<?xml version="1.0" encoding="utf-8"?>
<!-- Generator: Adobe Illustrator 22.0.0, SVG Export Plug-In . SVG Version: 6.00 Build 0)  -->
<svg version="1.1" id="Layer_1" xmlns="http://www.w3.org/2000/svg" xmlns:xlink="http://www.w3.org/1999/xlink" x="0px" y="0px"
	 viewBox="0 0 1677.8 1400" style="enable-background:new 0 0 1677.8 1400;" xml:space="preserve">
<style type="text/css">
	.st0{fill:#1B1B2D;}
	.st1{opacity:0.6;enable-background:new    ;}
	.st2{fill:none;stroke:#A4A4AB;stroke-miterlimit:10;}
	.st3{fill:none;stroke:#A4A4AB;stroke-miterlimit:10;stroke-dasharray:6.0113,10.0189;}
	.st4{fill:none;stroke:#A4A4AB;stroke-miterlimit:10;stroke-dasharray:5.9643,9.9406;}
</style>
<g>
	<g>
		<path class="st0" d="M1161.7,831.5c-4.9,0-9.3-1-13.2-3c-3.9-2-7.2-4.6-9.7-8c-2.6-3.4-4.3-7.1-5.2-11.2h9.9
			c0.8,2.6,2.1,4.9,3.8,6.8c1.7,2,3.8,3.5,6.3,4.6c2.5,1.1,5.2,1.7,8.2,1.7c3.5,0,6.8-0.8,9.7-2.5c2.9-1.6,5.3-3.9,7.1-6.8
			c1.8-2.9,2.9-6.1,3.2-9.6h-27.6v-8.7h27.6c-0.3-3.5-1.4-6.6-3.2-9.5c-1.8-2.8-4.2-5.1-7.1-6.7c-2.9-1.6-6.1-2.5-9.7-2.5
			c-4.4,0-8.2,1.2-11.5,3.5c-3.2,2.4-5.5,5.4-6.8,9.1h-9.9c1.1-4,2.9-7.7,5.5-11c2.6-3.3,5.8-5.9,9.7-7.9c3.9-2,8.2-2.9,12.9-2.9
			c5.5,0,10.6,1.4,15.2,4.1c4.6,2.8,8.3,6.6,10.9,11.5c2.7,4.9,4,10.5,4,16.7c0,6.2-1.3,11.8-4,16.7c-2.7,4.9-6.3,8.7-10.9,11.5
			C1172.3,830.1,1167.2,831.5,1161.7,831.5z"/>
		<path class="st0" d="M1192.3,831.1v-9.4h2.8c2,0,3.5-0.6,4.7-1.8c1.2-1.2,1.9-3,2.1-5.5l3.8-46.6h40.8v62.8h-9.6v-53.7h-22.2
			l-3.3,38.7c-0.4,5.2-1.9,9.1-4.5,11.6c-2.6,2.5-6.2,3.8-10.9,3.8L1192.3,831.1L1192.3,831.1z"/>
		<path class="st0" d="M1271.5,830.6v-53.7h-19.7v-9.1h48.8v9.1h-19.6v53.7H1271.5z"/>
		<path class="st0" d="M1294.5,830.6l23-62.8h14.1l23,62.8h-10.3l-18.9-52.7h-1.8l-18.9,52.7L1294.5,830.6L1294.5,830.6z
			 M1308.4,815.6V807h32.6v8.6H1308.4z"/>
	</g>
</g>
<g>
	<g>
		<path class="st0" d="M1161.7,1348.1c-4.9,0-9.3-1-13.2-3c-3.9-2-7.2-4.6-9.7-8c-2.6-3.4-4.3-7.1-5.2-11.2h9.9
			c0.8,2.6,2.1,4.9,3.8,6.8c1.7,2,3.8,3.5,6.3,4.6c2.5,1.1,5.2,1.7,8.2,1.7c3.5,0,6.8-0.8,9.7-2.5c2.9-1.6,5.3-3.9,7.1-6.8
			c1.8-2.9,2.9-6.1,3.2-9.6h-27.6v-8.7h27.6c-0.3-3.5-1.4-6.6-3.2-9.5c-1.8-2.8-4.2-5.1-7.1-6.7c-2.9-1.6-6.1-2.5-9.7-2.5
			c-4.4,0-8.2,1.2-11.5,3.5c-3.2,2.4-5.5,5.4-6.8,9.1h-9.9c1.1-4,2.9-7.7,5.5-11c2.6-3.3,5.8-5.9,9.7-7.9c3.9-2,8.2-2.9,12.9-2.9
			c5.5,0,10.6,1.4,15.2,4.1c4.6,2.8,8.3,6.6,10.9,11.5c2.7,4.9,4,10.5,4,16.7c0,6.2-1.3,11.8-4,16.7c-2.7,4.9-6.3,8.7-10.9,11.5
			C1172.3,1346.7,1167.2,1348.1,1161.7,1348.1z"/>
		<path class="st0" d="M1192.3,1347.6v-9.4h2.8c2,0,3.5-0.6,4.7-1.8c1.2-1.2,1.9-3,2.1-5.5l3.8-46.6h40.8v62.8h-9.6v-53.7h-22.2
			l-3.3,38.7c-0.4,5.2-1.9,9.1-4.5,11.6c-2.6,2.5-6.2,3.8-10.9,3.8L1192.3,1347.6L1192.3,1347.6z"/>
		<path class="st0" d="M1271.5,1347.2v-53.7h-19.7v-9.1h48.8v9.1h-19.6v53.7H1271.5z"/>
		<path class="st0" d="M1294.5,1347.2l23-62.8h14.1l23,62.8h-10.3l-18.9-52.7h-1.8l-18.9,52.7H1294.5L1294.5,1347.2z M1308.4,1332.2
			v-8.6h32.6v8.6H1308.4z"/>
	</g>
</g>
<g class="st1">
	<path class="st0" d="M682.9,1v959.8H1V1H682.9 M683.9,0H0v961.8h683.9V0L683.9,0z"/>
</g>
<g class="st1">
	<path class="st0" d="M1676.8,1v681.9H717V1H1676.8 M1677.8,0H716v683.9h961.8V0L1677.8,0z"/>
</g>
<g class="st1">
	<path class="st0" d="M1399,717.1V1399H717V717.1H1399 M1400,716.1H716V1400H1400V716.1L1400,716.1z"/>
</g>
<g>
	<path class="st0" d="M830.7,1315.7c0,9.3-2.9,18.3-8.2,25.9c-5.4,7.6-13,13.3-21.7,16.4v-10.8c6-2.8,11-7.3,14.6-12.9
		c3.5-5.6,5.4-12.1,5.4-18.7c0-6.6-1.9-13.1-5.4-18.7c-3.5-5.6-8.6-10.1-14.6-12.9v-10.8c8.8,3.1,16.4,8.8,21.8,16.4
		C827.8,1297.4,830.7,1306.5,830.7,1315.7z"/>
	<rect x="750.7" y="1310.7" class="st0" width="40" height="10"/>
	<path class="st0" d="M810.7,1315.7c0-3.3-0.6-6.5-1.9-9.6c-1.3-3-3.1-5.8-5.4-8.1c-2.3-2.3-5.1-4.2-8.1-5.4c-3-1.3-6.3-1.9-9.6-1.9
		h-15v10h30v30h-30v10h15c3.3,0,6.5-0.6,9.6-1.9c3-1.3,5.8-3.1,8.1-5.4c2.3-2.3,4.2-5.1,5.4-8.1C810,1322.3,810.7,1319,810.7,1315.7
		z"/>
</g>
<g>
	<path class="st0" d="M830.7,799.2c0,9.3-2.9,18.3-8.2,25.9c-5.4,7.6-13,13.3-21.7,16.4v-10.8c6-2.8,11-7.3,14.6-12.9
		c3.5-5.6,5.4-12.1,5.4-18.7c0-6.6-1.9-13.1-5.4-18.7c-3.5-5.6-8.6-10.1-14.6-12.9v-10.8c8.8,3.1,16.4,8.8,21.8,16.4
		C827.8,780.9,830.7,790,830.7,799.2z"/>
	<rect x="750.7" y="794.3" class="st0" width="40" height="10"/>
	<path class="st0" d="M810.7,799.2c0-3.3-0.6-6.5-1.9-9.6c-1.3-3-3.1-5.8-5.4-8.1c-2.3-2.3-5.1-4.2-8.1-5.4c-3-1.3-6.3-1.9-9.6-1.9
		h-15v10h30v30h-30v10h15c3.3,0,6.5-0.6,9.6-1.9c3-1.3,5.8-3.1,8.1-5.4c2.3-2.3,4.2-5.1,5.4-8.1C810,805.8,810.7,802.5,810.7,799.2z
		"/>
</g>
<g>
	<g>
		<line class="st2" x1="22.9" y1="0" x2="22.9" y2="3"/>
		<line class="st3" x1="22.9" y1="13" x2="22.9" y2="953.8"/>
		<line class="st2" x1="22.9" y1="958.8" x2="22.9" y2="961.8"/>
	</g>
</g>
<g>
	<g>
		<line class="st2" x1="58.9" y1="0" x2="58.9" y2="3"/>
		<line class="st3" x1="58.9" y1="13" x2="58.9" y2="953.8"/>
		<line class="st2" x1="58.9" y1="958.8" x2="58.9" y2="961.8"/>
	</g>
</g>
<g>
	<g>
		<path class="st0" d="M58.9,45.3c0,4.2-1.3,8.2-3.7,11.7c-2.4,3.4-5.8,6-9.8,7.4v-4.8c2.7-1.3,5-3.3,6.6-5.8
			c1.6-2.5,2.4-5.4,2.4-8.4c0-3-0.8-5.9-2.5-8.4c-1.6-2.5-3.9-4.5-6.6-5.8v-4.8c3.9,1.4,7.4,4,9.8,7.4
			C57.6,37.1,58.9,41.2,58.9,45.3z"/>
		<rect x="22.9" y="43.1" class="st0" width="18" height="4.5"/>
		<path class="st0" d="M49.9,45.3c0-1.5-0.3-2.9-0.8-4.3s-1.4-2.6-2.4-3.6c-1-1-2.3-1.9-3.6-2.4c-1.4-0.6-2.8-0.8-4.3-0.8H32v4.5
			h13.5V52H32v4.5h6.7c1.5,0,2.9-0.3,4.3-0.8c1.4-0.6,2.6-1.4,3.6-2.4c1-1,1.9-2.3,2.4-3.6C49.7,48.3,49.9,46.8,49.9,45.3z"/>
	</g>
	<g>
		<path class="st0" d="M610.6,53.4c-1.2,0-2.3-0.2-3.3-0.7c-1-0.5-1.8-1.2-2.4-2c-0.6-0.8-1.1-1.8-1.3-2.8h2.5
			c0.2,0.6,0.5,1.2,0.9,1.7c0.4,0.5,0.9,0.9,1.6,1.1c0.6,0.3,1.3,0.4,2,0.4c0.9,0,1.7-0.2,2.4-0.6c0.7-0.4,1.3-1,1.8-1.7
			c0.4-0.7,0.7-1.5,0.8-2.4h-6.9v-2.2h6.9c-0.1-0.9-0.4-1.7-0.8-2.4c-0.4-0.7-1-1.3-1.8-1.7c-0.7-0.4-1.5-0.6-2.4-0.6
			c-1.1,0-2.1,0.3-2.9,0.9c-0.8,0.6-1.4,1.3-1.7,2.3h-2.5c0.3-1,0.7-1.9,1.4-2.7c0.7-0.8,1.5-1.5,2.4-2c1-0.5,2-0.7,3.2-0.7
			c1.4,0,2.6,0.3,3.8,1c1.2,0.7,2.1,1.6,2.7,2.9c0.7,1.2,1,2.6,1,4.2c0,1.5-0.3,2.9-1,4.2c-0.7,1.2-1.6,2.2-2.7,2.9
			C613.2,53,612,53.4,610.6,53.4z"/>
		<path class="st0" d="M618.2,53.3v-2.3h0.7c0.5,0,0.9-0.1,1.2-0.4c0.3-0.3,0.5-0.7,0.5-1.4l1-11.6h10.1v15.6h-2.4V39.8h-5.5
			l-0.8,9.6c-0.1,1.3-0.5,2.3-1.1,2.9c-0.6,0.6-1.5,0.9-2.7,0.9L618.2,53.3L618.2,53.3z"/>
		<path class="st0" d="M637.9,53.1V39.8H633v-2.3h12.1v2.3h-4.9v13.4L637.9,53.1L637.9,53.1z"/>
		<path class="st0" d="M643.7,53.1l5.7-15.6h3.5l5.7,15.6H656L651.4,40h-0.4l-4.7,13.1H643.7z M647.1,49.4v-2.1h8.1v2.1H647.1z"/>
	</g>
</g>
<g>
	<g>
		<line class="st2" x1="740.1" y1="0" x2="740.1" y2="3"/>
		<line class="st4" x1="740.1" y1="12.9" x2="740.1" y2="676"/>
		<line class="st2" x1="740.1" y1="680.9" x2="740.1" y2="683.9"/>
	</g>
</g>
<g>
	<g>
		<line class="st2" x1="776.1" y1="0" x2="776.1" y2="3"/>
		<line class="st4" x1="776.1" y1="12.9" x2="776.1" y2="676"/>
		<line class="st2" x1="776.1" y1="680.9" x2="776.1" y2="683.9"/>
	</g>
</g>
<g>
	<g>
		<path class="st0" d="M776.1,45.3c0,4.2-1.3,8.2-3.7,11.7c-2.4,3.4-5.8,6-9.8,7.4v-4.8c2.7-1.3,5-3.3,6.6-5.8
			c1.6-2.5,2.4-5.4,2.4-8.4c0-3-0.8-5.9-2.5-8.4c-1.6-2.5-3.9-4.5-6.6-5.8v-4.8c3.9,1.4,7.4,4,9.8,7.4
			C774.8,37.1,776.1,41.2,776.1,45.3z"/>
		<rect x="740.1" y="43.1" class="st0" width="18" height="4.5"/>
		<path class="st0" d="M767.1,45.3c0-1.5-0.3-2.9-0.8-4.3c-0.6-1.4-1.4-2.6-2.4-3.6c-1-1-2.3-1.9-3.6-2.4c-1.4-0.6-2.8-0.8-4.3-0.8
			h-6.7v4.5h13.5V52h-13.5v4.5h6.7c1.5,0,2.9-0.3,4.3-0.8c1.4-0.6,2.6-1.4,3.6-2.4s1.9-2.3,2.4-3.6
			C766.9,48.3,767.1,46.8,767.1,45.3z"/>
	</g>
	<g>
		<path class="st0" d="M1600.4,53.4c-1.2,0-2.3-0.2-3.3-0.7s-1.8-1.2-2.4-2c-0.6-0.8-1.1-1.8-1.3-2.8h2.5c0.2,0.6,0.5,1.2,0.9,1.7
			c0.4,0.5,0.9,0.9,1.6,1.1c0.6,0.3,1.3,0.4,2,0.4c0.9,0,1.7-0.2,2.4-0.6c0.7-0.4,1.3-1,1.8-1.7c0.4-0.7,0.7-1.5,0.8-2.4h-6.9v-2.2
			h6.9c-0.1-0.9-0.4-1.7-0.8-2.4c-0.4-0.7-1-1.3-1.8-1.7c-0.7-0.4-1.5-0.6-2.4-0.6c-1.1,0-2.1,0.3-2.9,0.9c-0.8,0.6-1.4,1.3-1.7,2.3
			h-2.5c0.3-1,0.7-1.9,1.4-2.7c0.7-0.8,1.5-1.5,2.4-2c1-0.5,2-0.7,3.2-0.7c1.4,0,2.6,0.3,3.8,1c1.2,0.7,2.1,1.6,2.7,2.9
			c0.7,1.2,1,2.6,1,4.2c0,1.5-0.3,2.9-1,4.2c-0.7,1.2-1.6,2.2-2.7,2.9C1603,53,1601.8,53.4,1600.4,53.4z"/>
		<path class="st0" d="M1608,53.3v-2.3h0.7c0.5,0,0.9-0.1,1.2-0.4c0.3-0.3,0.5-0.7,0.5-1.4l1-11.6h10.1v15.6h-2.4V39.8h-5.5
			l-0.8,9.6c-0.1,1.3-0.5,2.3-1.1,2.9c-0.6,0.6-1.5,0.9-2.7,0.9L1608,53.3L1608,53.3z"/>
		<path class="st0" d="M1627.7,53.1V39.8h-4.9v-2.3h12.1v2.3h-4.9v13.4L1627.7,53.1L1627.7,53.1z"/>
		<path class="st0" d="M1633.4,53.1l5.7-15.6h3.5l5.7,15.6h-2.6l-4.7-13.1h-0.4l-4.7,13.1H1633.4z M1636.9,49.4v-2.1h8.1v2.1H1636.9
			z"/>
	</g>
</g>
<g>
	<g>
		<path class="st0" d="M776.1,643.8c0,4.2-1.3,8.2-3.7,11.7c-2.4,3.4-5.8,6-9.8,7.4V658c2.7-1.3,5-3.3,6.6-5.8
			c1.6-2.5,2.4-5.4,2.4-8.4c0-3-0.8-5.9-2.5-8.4c-1.6-2.5-3.9-4.5-6.6-5.8v-4.8c3.9,1.4,7.4,4,9.8,7.4
			C774.8,635.5,776.1,639.6,776.1,643.8z"/>
		<rect x="740.1" y="641.6" class="st0" width="18" height="4.5"/>
		<path class="st0" d="M767.1,643.8c0-1.5-0.3-2.9-0.8-4.3c-0.6-1.4-1.4-2.6-2.4-3.6c-1-1-2.3-1.9-3.6-2.4s-2.8-0.8-4.3-0.8h-6.7
			v4.5h13.5v13.5h-13.5v4.5h6.7c1.5,0,2.9-0.3,4.3-0.8c1.4-0.6,2.6-1.4,3.6-2.4c1-1,1.9-2.3,2.4-3.6
			C766.9,646.7,767.1,645.3,767.1,643.8z"/>
	</g>
	<g>
		<path class="st0" d="M1600.4,651.9c-1.2,0-2.3-0.2-3.3-0.7s-1.8-1.2-2.4-2s-1.1-1.8-1.3-2.8h2.5c0.2,0.6,0.5,1.2,0.9,1.7
			c0.4,0.5,0.9,0.9,1.6,1.1c0.6,0.3,1.3,0.4,2,0.4c0.9,0,1.7-0.2,2.4-0.6c0.7-0.4,1.3-1,1.8-1.7s0.7-1.5,0.8-2.4h-6.9v-2.2h6.9
			c-0.1-0.9-0.4-1.7-0.8-2.4c-0.4-0.7-1-1.3-1.8-1.7c-0.7-0.4-1.5-0.6-2.4-0.6c-1.1,0-2.1,0.3-2.9,0.9c-0.8,0.6-1.4,1.3-1.7,2.3
			h-2.5c0.3-1,0.7-1.9,1.4-2.7c0.7-0.8,1.5-1.5,2.4-2c1-0.5,2-0.7,3.2-0.7c1.4,0,2.6,0.3,3.8,1c1.2,0.7,2.1,1.6,2.7,2.9
			c0.7,1.2,1,2.6,1,4.2c0,1.5-0.3,2.9-1,4.2c-0.7,1.2-1.6,2.2-2.7,2.9C1603,651.5,1601.8,651.9,1600.4,651.9z"/>
		<path class="st0" d="M1608,651.7v-2.3h0.7c0.5,0,0.9-0.1,1.2-0.4c0.3-0.3,0.5-0.7,0.5-1.4l1-11.6h10.1v15.6h-2.4v-13.3h-5.5
			l-0.8,9.6c-0.1,1.3-0.5,2.3-1.1,2.9c-0.6,0.6-1.5,0.9-2.7,0.9H1608L1608,651.7z"/>
		<path class="st0" d="M1627.7,651.6v-13.3h-4.9V636h12.1v2.3h-4.9v13.4L1627.7,651.6L1627.7,651.6z"/>
		<path class="st0" d="M1633.4,651.6l5.7-15.6h3.5l5.7,15.6h-2.6l-4.7-13.1h-0.4l-4.7,13.1H1633.4z M1636.9,647.9v-2.1h8.1v2.1
			H1636.9z"/>
	</g>
</g>
<g>
	<g>
		<path class="st0" d="M58.9,916.8c0,4.2-1.3,8.2-3.7,11.7c-2.4,3.4-5.8,6-9.8,7.4V931c2.7-1.3,5-3.3,6.6-5.8
			c1.6-2.5,2.4-5.4,2.4-8.4c0-3-0.8-5.9-2.5-8.4c-1.6-2.5-3.9-4.5-6.6-5.8v-4.8c3.9,1.4,7.4,4,9.8,7.4
			C57.6,908.5,58.9,912.6,58.9,916.8z"/>
		<rect x="22.9" y="914.5" class="st0" width="18" height="4.5"/>
		<path class="st0" d="M49.9,916.8c0-1.5-0.3-2.9-0.8-4.3c-0.6-1.4-1.4-2.6-2.4-3.6c-1-1-2.3-1.9-3.6-2.4c-1.4-0.6-2.8-0.8-4.3-0.8
			H32v4.5h13.5v13.5H32v4.5h6.7c1.5,0,2.9-0.3,4.3-0.8c1.4-0.6,2.6-1.4,3.6-2.4c1-1,1.9-2.3,2.4-3.6
			C49.7,919.7,49.9,918.3,49.9,916.8z"/>
	</g>
	<g>
		<path class="st0" d="M610.6,924.8c-1.2,0-2.3-0.2-3.3-0.7c-1-0.5-1.8-1.2-2.4-2s-1.1-1.8-1.3-2.8h2.5c0.2,0.6,0.5,1.2,0.9,1.7
			c0.4,0.5,0.9,0.9,1.6,1.1c0.6,0.3,1.3,0.4,2,0.4c0.9,0,1.7-0.2,2.4-0.6s1.3-1,1.8-1.7c0.4-0.7,0.7-1.5,0.8-2.4h-6.9v-2.2h6.9
			c-0.1-0.9-0.4-1.7-0.8-2.4c-0.4-0.7-1-1.3-1.8-1.7s-1.5-0.6-2.4-0.6c-1.1,0-2.1,0.3-2.9,0.9c-0.8,0.6-1.4,1.3-1.7,2.3h-2.5
			c0.3-1,0.7-1.9,1.4-2.7c0.7-0.8,1.5-1.5,2.4-2c1-0.5,2-0.7,3.2-0.7c1.4,0,2.6,0.3,3.8,1c1.2,0.7,2.1,1.6,2.7,2.9
			c0.7,1.2,1,2.6,1,4.2c0,1.5-0.3,2.9-1,4.2c-0.7,1.2-1.6,2.2-2.7,2.9C613.2,924.5,612,924.8,610.6,924.8z"/>
		<path class="st0" d="M618.2,924.7v-2.3h0.7c0.5,0,0.9-0.1,1.2-0.4c0.3-0.3,0.5-0.7,0.5-1.4l1-11.6h10.1v15.6h-2.4v-13.3h-5.5
			l-0.8,9.6c-0.1,1.3-0.5,2.3-1.1,2.9c-0.6,0.6-1.5,0.9-2.7,0.9H618.2L618.2,924.7z"/>
		<path class="st0" d="M637.9,924.6v-13.3H633V909h12.1v2.3h-4.9v13.4L637.9,924.6L637.9,924.6z"/>
		<path class="st0" d="M643.7,924.6l5.7-15.6h3.5l5.7,15.6H656l-4.7-13.1h-0.4l-4.7,13.1H643.7z M647.1,920.9v-2.1h8.1v2.1H647.1z"
			/>
	</g>
</g>
<g>
	<g>
		<line class="st2" x1="603.6" y1="0" x2="603.6" y2="3"/>
		<line class="st3" x1="603.6" y1="13" x2="603.6" y2="953.8"/>
		<line class="st2" x1="603.6" y1="958.8" x2="603.6" y2="961.8"/>
	</g>
</g>
<g>
	<g>
		<line class="st2" x1="658.6" y1="0" x2="658.6" y2="3"/>
		<line class="st3" x1="658.6" y1="13" x2="658.6" y2="953.8"/>
		<line class="st2" x1="658.6" y1="958.8" x2="658.6" y2="961.8"/>
	</g>
</g>
<g>
	<g>
		<line class="st2" x1="1593.4" y1="0" x2="1593.4" y2="3"/>
		<line class="st4" x1="1593.4" y1="12.9" x2="1593.4" y2="676"/>
		<line class="st2" x1="1593.4" y1="680.9" x2="1593.4" y2="683.9"/>
	</g>
</g>
<g>
	<g>
		<line class="st2" x1="1648.4" y1="0" x2="1648.4" y2="3"/>
		<line class="st4" x1="1648.4" y1="12.9" x2="1648.4" y2="676"/>
		<line class="st2" x1="1648.4" y1="680.9" x2="1648.4" y2="683.9"/>
	</g>
</g>
<g>
	<g>
		<line class="st2" x1="749.4" y1="716.1" x2="749.4" y2="719.1"/>
		<line class="st4" x1="749.4" y1="729" x2="749.4" y2="1392"/>
		<line class="st2" x1="749.4" y1="1397" x2="749.4" y2="1400"/>
	</g>
</g>
<g>
	<g>
		<line class="st2" x1="1354.6" y1="716.1" x2="1354.6" y2="719.1"/>
		<line class="st4" x1="1354.6" y1="729" x2="1354.6" y2="1392"/>
		<line class="st2" x1="1354.6" y1="1397" x2="1354.6" y2="1400"/>
	</g>
</g>
<g>
	<g>
		<line class="st2" x1="1133.6" y1="716.1" x2="1133.6" y2="719.1"/>
		<line class="st4" x1="1133.6" y1="729" x2="1133.6" y2="1392"/>
		<line class="st2" x1="1133.6" y1="1397" x2="1133.6" y2="1400"/>
	</g>
</g>
<g>
	<g>
		<line class="st2" x1="830.7" y1="716.1" x2="830.7" y2="719.1"/>
		<line class="st4" x1="830.7" y1="729" x2="830.7" y2="1392"/>
		<line class="st2" x1="830.7" y1="1397" x2="830.7" y2="1400"/>
	</g>
</g>
</svg>
