<?xml version="1.0" encoding="utf-8"?>
<!-- Generator: Adobe Illustrator 22.0.0, SVG Export Plug-In . SVG Version: 6.00 Build 0)  -->
<svg version="1.1" id="Layer_1" xmlns="http://www.w3.org/2000/svg" xmlns:xlink="http://www.w3.org/1999/xlink" x="0px" y="0px"
	 viewBox="0 0 2000 1400" style="enable-background:new 0 0 2000 1400;" xml:space="preserve">
<style type="text/css">
	.st0{display:none;}
	.st1{display:inline;fill:#1B1B2D;}
	.st2{display:inline;}
	.st3{fill:#FFFFFF;}
	.st4{fill:#F2F2F3;}
</style>
<g id="Layer_2_1_" class="st0">
	<rect class="st1" width="2000" height="2000"/>
	<g class="st2">
		<g>
			<path class="st3" d="M584.8,976.5c0,35.9-11.1,70.9-31.9,100.3c-20.7,29.3-50.1,51.5-84,63.5v-41.7c23.2-11,42.7-28.3,56.4-49.9
				s21-46.7,20.9-72.3c0-25.6-7.3-50.7-21-72.3s-33.3-38.9-56.5-49.8v-41.7c33.9,12,63.3,34.2,84,63.5
				C573.6,905.6,584.7,940.6,584.8,976.5z"/>
			<rect x="275.5" y="957.2" class="st3" width="154.6" height="38.6"/>
			<path class="st3" d="M507.4,976.5c0-12.7-2.5-25.2-7.4-36.9s-12-22.4-20.9-31.3c-9-9-19.6-16.1-31.4-20.9
				c-11.7-4.8-24.3-7.3-37-7.3h-57.9v38.6h115.9v115.8h-116v38.6h57.9c12.7,0,25.3-2.5,37-7.3s22.4-12,31.4-20.9
				c9-9,16.1-19.6,21-31.3C504.9,1001.8,507.4,989.2,507.4,976.5z"/>
		</g>
		<g>
			<g>
				<path class="st3" d="M925.5,1125.6c-22,0-41.8-4.4-59.3-13.3c-17.6-8.8-32.1-20.8-43.6-36c-11.5-15.1-19.3-32-23.3-50.5h44.2
					c3.8,11.5,9.4,21.7,17.1,30.6c7.6,8.8,17,15.8,28.1,20.7c11.1,5,23.4,7.4,36.8,7.4c15.8,0,30.3-3.7,43.4-11.1
					c13.1-7.4,23.7-17.6,31.8-30.6c8-13,12.9-27.4,14.5-43.2H891.7v-39h123.4c-1.6-15.5-6.4-29.7-14.5-42.4
					c-8-12.7-18.6-22.8-31.8-30.2c-13.1-7.4-27.6-11.1-43.4-11.1c-19.8,0-37,5.3-51.5,15.9c-14.5,10.6-24.7,24.2-30.6,40.8h-44.2
					c4.8-18,13.1-34.4,24.7-49.3c11.7-14.9,26.2-26.7,43.6-35.4c17.4-8.7,36.7-13.1,57.9-13.1c24.7,0,47.4,6.2,68.2,18.5
					s37.1,29.5,49.1,51.5c11.9,22,17.9,46.9,17.9,74.8c0,27.9-6,52.8-17.9,74.8s-28.3,39.1-49.1,51.5
					C972.8,1119.5,950.1,1125.6,925.5,1125.6z"/>
				<path class="st3" d="M1082.7,1124v-39h10.9c7.8,0,14-2.3,18.7-6.8c4.7-4.6,7.4-11.9,8.2-22.1l11.3-136.7h143.9v202.2h-40.2
					V956.8h-66.3l-9.2,103.3c-1.9,21.4-7.8,37.5-17.9,48c-10.1,10.6-24.9,15.9-44.4,15.9H1082.7z"/>
				<path class="st3" d="M1368.9,1121.6V956.8h-66.3v-37.4h173.3v37.4h-66.3v164.8H1368.9z"/>
				<path class="st3" d="M1565.5,1125.6c-14.5,0-27.1-2.8-38-8.2c-10.9-5.5-19.2-12.9-25.1-22.3s-8.8-20.1-8.8-32.2
					c0-13.1,2.9-24.5,8.8-34.2c5.9-9.6,14.9-17.2,27.1-22.7s27.4-8.2,45.6-8.2h51.5v-5.2c0-13.1-3.8-23.5-11.5-31.2
					c-7.6-7.6-18-11.5-31.2-11.5c-12.3,0-22.3,2.8-30,8.4c-7.6,5.6-12.1,12.5-13.5,20.5h-40.2c1.1-11,5-21.4,11.7-31.2
					s16.2-17.6,28.5-23.5s26.8-8.8,43.4-8.8c16.9,0,31.6,3.2,44,9.4c12.5,6.3,22,15.3,28.7,26.9c6.7,11.7,10.1,25.3,10.1,40.8v129.1
					h-35l-4-22.1h-2c-4.6,6.7-12.2,12.7-22.9,18.1C1592.2,1123,1579.7,1125.6,1565.5,1125.6z M1570,1091.1c11.5,0,21.6-2.2,30.2-6.6
					s15.1-10.7,19.7-18.9c4.6-8.2,6.8-17.8,6.8-28.7v-6.8H1578c-15,0-26.1,2.9-33.2,8.6c-7.1,5.8-10.7,13.3-10.7,22.7
					c0,8.8,3.1,16,9.2,21.5C1549.6,1088.3,1558.4,1091.1,1570,1091.1z"/>
			</g>
		</g>
	</g>
</g>
<rect class="st4" width="2000" height="1400"/>
<g>
	<g>
		<path d="M1000,700c0,58.7-36,98-93.1,98c-44.7,0-75.4-26.1-81.9-66.3h32.7c6.4,23.7,23.7,38.9,50.9,38.9
			c32.5,0,54.6-22.9,58.7-57.9h-74.1v-27.2h74.1c-4.3-34-24.9-56-56.8-56c-27.6,0-44.9,15-51.3,38.7h-32.7
			c6.6-40.1,38.3-66.3,82.8-66.3C966,602,1000,640.7,1000,700z"/>
		<path d="M1003.1,796.4v-28h4.9c19.8,0,28.6-12.6,28.6-69.6v-95.1h139.2v192.7h-31.7V631.6h-77.4V701c0,71.9-17.3,95.3-55,95.3
			H1003.1z"/>
		<path d="M1199.1,603.6h150.5v28h-59.5v164.7h-31.7V631.6h-59.5v-28H1199.1z"/>
		<path d="M1331.5,796.4l72.1-192.7h37.7l71.9,192.7h-33.8l-18.1-47.6h-79.1l-17.9,47.6H1331.5z M1391,721.6h61.4l-30.9-84
			L1391,721.6z"/>
	</g>
	<g>
		<path d="M748,700c0,30.3-9.5,59.9-27,84.6s-42.2,43.4-70.8,53.7v-35.2c19.6-9.3,36-23.9,47.6-42.2c11.5-18.3,17.7-39.5,17.7-61.1
			c0-21.6-6.2-42.8-17.7-60.9c-11.5-18.3-28.2-32.9-47.8-42v-35.2c28.6,10.1,53.5,28.8,71,53.5C738.7,640.1,748,669.7,748,700z"/>
		<rect x="486.9" y="683.7" width="130.5" height="32.5"/>
		<path d="M682.7,700c0-10.7-2.1-21.2-6.2-31.3c-4.1-9.9-10.1-18.9-17.7-26.4c-7.6-7.6-16.7-13.6-26.6-17.7
			c-9.9-4.1-20.6-6.2-31.3-6.2h-48.8V651H650v97.8h-97.8v32.5h49c10.7,0,21.4-2.1,31.3-6.2c9.9-4.1,18.9-10.1,26.6-17.7
			c7.6-7.6,13.6-16.5,17.7-26.4C680.7,721.2,682.7,710.7,682.7,700z"/>
	</g>
</g>
</svg>
