<?xml version="1.0" encoding="utf-8"?>
<!-- Generator: Adobe Illustrator 22.0.0, SVG Export Plug-In . SVG Version: 6.00 Build 0)  -->
<svg version="1.1" id="Layer_1" xmlns="http://www.w3.org/2000/svg" xmlns:xlink="http://www.w3.org/1999/xlink" x="0px" y="0px"
	 viewBox="0 0 1620.5 588" style="enable-background:new 0 0 1620.5 588;" xml:space="preserve">
<style type="text/css">
	.st0{fill:#1B1B2D;}
	.st1{fill:#31772D;}
	.st2{fill:#E6E7E7;}
	.st3{fill:#D63318;}
	.st4{fill:#738CEA;}
	.st5{fill:none;stroke:#1B1B2D;stroke-miterlimit:10;}
	.st6{fill:#FFFFFF;}
</style>
<g>
	<g>
		<path class="st0" d="M471,29.1c-4.5,0-7.7-3.4-7.7-8.2c0-4.7,3.2-8.2,7.7-8.2c4.5,0,7.7,3.4,7.7,8.2
			C478.6,25.6,475.5,29.1,471,29.1z M471,27.2c3.4,0,5.6-2.6,5.6-6.3s-2.3-6.3-5.6-6.3c-3.4,0-5.6,2.6-5.6,6.3S467.6,27.2,471,27.2z
			"/>
		<path class="st0" d="M492,23.5c0,3.2-2.3,5.6-5.7,5.6c-3.5,0-5.7-2.1-5.7-6.6c0-6.3,1.5-8.6,6.6-9.3l4-0.5v1.8l-3.6,0.5
			c-3.7,0.5-4.7,1.4-5.1,4.9c0.8-1.1,2.3-1.9,4.3-1.9C489.8,18,492,20.1,492,23.5z M490.1,23.5c0-2.3-1.6-3.9-3.8-3.9
			c-2.3,0-3.9,1.6-3.9,3.7c0,2.6,1.6,4.1,3.8,4.1C488.6,27.4,490.1,25.8,490.1,23.5z"/>
		<path class="st0" d="M493.8,23.1c0-3.6,2.4-6,5.8-6s5.8,2.4,5.8,6c0,3.6-2.4,6-5.8,6S493.8,26.6,493.8,23.1z M503.5,23.1
			c0-2.5-1.6-4.3-3.9-4.3c-2.3,0-3.9,1.8-3.9,4.3s1.6,4.3,3.9,4.3C501.9,27.4,503.5,25.6,503.5,23.1z"/>
		<path class="st0" d="M516.8,25.6c0,2.2-2,3.5-5.2,3.5c-3.3,0-4.8-1.4-4.9-3.7h2c0.3,1.4,1,2.1,2.9,2.1c2,0,3.2-0.7,3.2-1.9
			c0-1.2-0.9-1.7-2.4-1.7h-2v-1.6h1.9c1.4,0,2.2-0.5,2.2-1.7c0-1.1-1-1.7-2.8-1.7c-1.9,0-2.7,0.8-3,2.1h-2c0.1-2.2,2-3.7,5-3.7
			c3,0,4.7,1.3,4.7,3.3c0,1.4-0.9,2.3-2.1,2.5C515.9,23.1,516.8,24,516.8,25.6z"/>
		<path class="st0" d="M527.4,17.2h1.9v11.7h-1.9v-5.1h-6.6v5.1h-1.9V17.2h1.9v4.9h6.6V17.2z"/>
		<path class="st0" d="M542.9,27.2v1.7h-1c-1.6,0-2.1-0.7-2.1-1.8c-0.7,1.1-1.9,2-3.9,2c-2.6,0-4.3-1.3-4.3-3.4
			c0-2.3,1.6-3.7,4.7-3.7h3.4v-0.8c0-1.5-1.1-2.4-2.9-2.4c-1.7,0-2.8,0.8-3,2h-1.9c0.3-2.3,2.1-3.7,5-3.7c3,0,4.7,1.5,4.7,4.2v5.1
			c0,0.6,0.2,0.8,0.8,0.8H542.9z M539.6,23.6H536c-1.7,0-2.6,0.6-2.6,2c0,1.1,1,1.9,2.6,1.9c2.3,0,3.7-1.4,3.7-3.3V23.6z"/>
		<path class="st0" d="M551.5,17.2h1.9v11.7h-1.9v-4.7c-0.9,0.6-2.1,0.9-3.3,0.9c-2.9,0-4.6-1.2-4.6-4.3v-3.7h1.9v3.3
			c0,2.1,1,2.9,3.1,2.9c1.1,0,2.1-0.3,2.9-0.9V17.2z"/>
		<path class="st0" d="M555.5,23.1c0-3.6,2.3-6,5.6-6c3.3,0,5.5,2.1,5.6,5.6c0,0.3,0,0.5,0,0.8h-9.1v0.2c0.1,2.2,1.5,3.8,3.7,3.8
			c1.7,0,2.9-0.9,3.3-2.4h1.9c-0.5,2.3-2.4,4.1-5.1,4.1C557.8,29.1,555.5,26.7,555.5,23.1z M564.6,21.9c-0.2-2-1.6-3.2-3.5-3.2
			c-1.7,0-3.3,1.2-3.5,3.2H564.6z"/>
		<path class="st0" d="M577.3,17.2h1.9v11.7h-1.9v-5.1h-6.6v5.1h-1.9V17.2h1.9v4.9h6.6V17.2z"/>
		<path class="st0" d="M581.8,28.9V17.2h1.8v8.9l7-8.9h1.7v11.7h-1.8V20l-7,8.9H581.8z"/>
		<path class="st0" d="M594.4,23.1c0-3.6,2.3-6,5.6-6c3.3,0,5.5,2.1,5.6,5.6c0,0.3,0,0.5,0,0.8h-9.1v0.2c0.1,2.2,1.5,3.8,3.7,3.8
			c1.7,0,2.9-0.9,3.3-2.4h1.9c-0.5,2.3-2.4,4.1-5.1,4.1C596.7,29.1,594.4,26.7,594.4,23.1z M603.5,21.9c-0.2-2-1.6-3.2-3.5-3.2
			c-1.7,0-3.3,1.2-3.5,3.2H603.5z"/>
		<path class="st0" d="M613,27.3l6.3-5.4c1.5-1.3,2.7-2.5,2.7-4.3c0-2-1.4-3.2-3.5-3.2c-2.1,0-3.4,1.4-3.4,3.6v0.3h-1.9v-0.4
			c0-3,2.1-5.2,5.4-5.2c3.5,0,5.5,1.9,5.5,4.8c0,2.4-1.6,3.9-3.5,5.6l-4.8,4.1h8.4v1.8H613V27.3z"/>
	</g>
	<g>
		<path class="st0" d="M103,45.1c-4.5,0-7.7-3.4-7.7-8.2c0-4.7,3.2-8.2,7.7-8.2c4.5,0,7.7,3.4,7.7,8.2
			C110.6,41.6,107.5,45.1,103,45.1z M103,43.2c3.4,0,5.6-2.6,5.6-6.3s-2.3-6.3-5.6-6.3c-3.4,0-5.6,2.6-5.6,6.3S99.6,43.2,103,43.2z"
			/>
		<path class="st0" d="M124,39.5c0,3.2-2.3,5.6-5.7,5.6c-3.5,0-5.7-2.1-5.7-6.6c0-6.3,1.5-8.6,6.6-9.3l4-0.5v1.8l-3.6,0.5
			c-3.7,0.5-4.7,1.4-5.1,4.9c0.8-1.1,2.3-1.9,4.3-1.9C121.8,34,124,36.1,124,39.5z M122.1,39.5c0-2.3-1.6-3.9-3.8-3.9
			c-2.3,0-3.9,1.6-3.9,3.7c0,2.6,1.6,4.1,3.8,4.1C120.6,43.4,122.1,41.8,122.1,39.5z"/>
		<path class="st0" d="M125.8,39.1c0-3.6,2.4-6,5.8-6s5.8,2.4,5.8,6c0,3.6-2.4,6-5.8,6S125.8,42.6,125.8,39.1z M135.5,39.1
			c0-2.5-1.6-4.3-3.9-4.3c-2.3,0-3.9,1.8-3.9,4.3s1.6,4.3,3.9,4.3C133.9,43.4,135.5,41.6,135.5,39.1z"/>
		<path class="st0" d="M148.8,41.6c0,2.2-2,3.5-5.2,3.5c-3.3,0-4.8-1.4-4.9-3.7h2c0.3,1.4,1,2.1,2.9,2.1s3.2-0.7,3.2-1.9
			c0-1.2-0.9-1.7-2.4-1.7h-2v-1.6h1.9c1.4,0,2.2-0.5,2.2-1.7c0-1.1-1-1.7-2.8-1.7c-1.9,0-2.7,0.8-3,2.1h-2c0.1-2.2,2-3.7,5-3.7
			c3,0,4.7,1.3,4.7,3.3c0,1.4-0.9,2.3-2.1,2.5C147.9,39.1,148.8,40,148.8,41.6z"/>
		<path class="st0" d="M159.4,33.2h1.9v11.7h-1.9v-5.1h-6.6v5.1h-1.9V33.2h1.9v4.9h6.6V33.2z"/>
		<path class="st0" d="M174.9,43.2v1.7h-1c-1.6,0-2.1-0.7-2.1-1.8c-0.7,1.1-1.9,2-3.9,2c-2.6,0-4.3-1.3-4.3-3.4
			c0-2.3,1.6-3.7,4.7-3.7h3.4v-0.8c0-1.5-1.1-2.4-2.9-2.4c-1.7,0-2.8,0.8-3,2h-1.9c0.3-2.3,2.1-3.7,5-3.7c3,0,4.7,1.5,4.7,4.2v5.1
			c0,0.6,0.2,0.8,0.8,0.8H174.9z M171.6,39.6H168c-1.7,0-2.6,0.6-2.6,2c0,1.1,1,1.9,2.6,1.9c2.3,0,3.7-1.4,3.7-3.3V39.6z"/>
		<path class="st0" d="M183.5,33.2h1.9v11.7h-1.9v-4.7c-0.9,0.6-2.1,0.9-3.3,0.9c-2.9,0-4.6-1.2-4.6-4.3v-3.7h1.9v3.3
			c0,2.1,1,2.9,3.1,2.9c1.1,0,2.1-0.3,2.9-0.9V33.2z"/>
		<path class="st0" d="M187.5,39.1c0-3.6,2.3-6,5.6-6c3.3,0,5.5,2.1,5.6,5.6c0,0.3,0,0.5,0,0.8h-9.1v0.2c0.1,2.2,1.5,3.8,3.7,3.8
			c1.7,0,2.9-0.9,3.3-2.4h1.9c-0.5,2.3-2.4,4.1-5.1,4.1C189.8,45.1,187.5,42.7,187.5,39.1z M196.6,37.9c-0.2-2-1.6-3.2-3.5-3.2
			c-1.7,0-3.3,1.2-3.5,3.2H196.6z"/>
		<path class="st0" d="M209.3,33.2h1.9v11.7h-1.9v-5.1h-6.6v5.1h-1.9V33.2h1.9v4.9h6.6V33.2z"/>
		<path class="st0" d="M213.8,44.9V33.2h1.8v8.9l7-8.9h1.7v11.7h-1.8V36l-7,8.9H213.8z"/>
		<path class="st0" d="M226.4,39.1c0-3.6,2.3-6,5.6-6c3.3,0,5.5,2.1,5.6,5.6c0,0.3,0,0.5,0,0.8h-9.1v0.2c0.1,2.2,1.5,3.8,3.7,3.8
			c1.7,0,2.9-0.9,3.3-2.4h1.9c-0.5,2.3-2.4,4.1-5.1,4.1C228.7,45.1,226.4,42.7,226.4,39.1z M235.5,37.9c-0.2-2-1.6-3.2-3.5-3.2
			c-1.7,0-3.3,1.2-3.5,3.2H235.5z"/>
		<path class="st0" d="M248.3,28.8h1.9v16.1h-1.9V33.4c-0.2,0.2-0.6,0.3-1.1,0.3h-2.6V32h2.6c0.8,0,1.1-0.6,1.1-1.4V28.8z"/>
	</g>
	<g>
		<path class="st0" d="M9,250.1c-4.5,0-7.7-3.4-7.7-8.2c0-4.7,3.2-8.2,7.7-8.2c4.5,0,7.7,3.4,7.7,8.2C16.6,246.6,13.5,250.1,9,250.1
			z M9,248.2c3.4,0,5.6-2.6,5.6-6.3s-2.3-6.3-5.6-6.3c-3.4,0-5.6,2.6-5.6,6.3S5.6,248.2,9,248.2z"/>
		<path class="st0" d="M30,244.5c0,3.2-2.3,5.6-5.7,5.6c-3.5,0-5.7-2.1-5.7-6.6c0-6.3,1.5-8.6,6.6-9.3l4-0.5v1.8l-3.6,0.5
			c-3.7,0.5-4.7,1.4-5.1,4.9c0.8-1.1,2.3-1.9,4.3-1.9C27.8,239,30,241.1,30,244.5z M28.1,244.5c0-2.3-1.6-3.9-3.8-3.9
			c-2.3,0-3.9,1.6-3.9,3.7c0,2.6,1.6,4.1,3.8,4.1C26.6,248.4,28.1,246.8,28.1,244.5z"/>
		<path class="st0" d="M31.8,244.1c0-3.6,2.4-6,5.8-6s5.8,2.4,5.8,6c0,3.6-2.4,6-5.8,6S31.8,247.6,31.8,244.1z M41.5,244.1
			c0-2.5-1.6-4.3-3.9-4.3c-2.3,0-3.9,1.8-3.9,4.3s1.6,4.3,3.9,4.3C39.9,248.4,41.5,246.6,41.5,244.1z"/>
		<path class="st0" d="M54.8,246.6c0,2.2-2,3.5-5.2,3.5c-3.3,0-4.8-1.4-4.9-3.7h2c0.3,1.4,1,2.1,2.9,2.1s3.2-0.7,3.2-1.9
			c0-1.2-0.9-1.7-2.4-1.7h-2v-1.6h1.9c1.4,0,2.2-0.5,2.2-1.7c0-1.1-1-1.7-2.8-1.7c-1.9,0-2.7,0.8-3,2.1h-2c0.1-2.2,2-3.7,5-3.7
			c3,0,4.7,1.3,4.7,3.3c0,1.4-0.9,2.3-2.1,2.5C53.9,244.1,54.8,245,54.8,246.6z"/>
		<path class="st0" d="M65.4,238.2h1.9v11.7h-1.9v-5.1h-6.6v5.1h-1.9v-11.7h1.9v4.9h6.6V238.2z"/>
		<path class="st0" d="M80.9,248.2v1.7h-1c-1.6,0-2.1-0.7-2.1-1.8c-0.7,1.1-1.9,2-3.9,2c-2.6,0-4.3-1.3-4.3-3.4
			c0-2.3,1.6-3.7,4.7-3.7h3.4v-0.8c0-1.5-1.1-2.4-2.9-2.4c-1.7,0-2.8,0.8-3,2h-1.9c0.3-2.3,2.1-3.7,5-3.7c3,0,4.7,1.5,4.7,4.2v5.1
			c0,0.6,0.2,0.8,0.8,0.8H80.9z M77.6,244.6H74c-1.7,0-2.6,0.6-2.6,2c0,1.1,1,1.9,2.6,1.9c2.3,0,3.7-1.4,3.7-3.3V244.6z"/>
		<path class="st0" d="M89.5,238.2h1.9v11.7h-1.9v-4.7c-0.9,0.6-2.1,0.9-3.3,0.9c-2.9,0-4.6-1.2-4.6-4.3v-3.7h1.9v3.3
			c0,2.1,1,2.9,3.1,2.9c1.1,0,2.1-0.3,2.9-0.9V238.2z"/>
		<path class="st0" d="M93.5,244.1c0-3.6,2.3-6,5.6-6c3.3,0,5.5,2.1,5.6,5.6c0,0.3,0,0.5,0,0.8h-9.1v0.2c0.1,2.2,1.5,3.8,3.7,3.8
			c1.7,0,2.9-0.9,3.3-2.4h1.9c-0.5,2.3-2.4,4.1-5.1,4.1C95.8,250.1,93.5,247.7,93.5,244.1z M102.6,242.9c-0.2-2-1.6-3.2-3.5-3.2
			c-1.7,0-3.3,1.2-3.5,3.2H102.6z"/>
		<path class="st0" d="M115.3,238.2h1.9v11.7h-1.9v-5.1h-6.6v5.1h-1.9v-11.7h1.9v4.9h6.6V238.2z"/>
		<path class="st0" d="M119.8,249.9v-11.7h1.8v8.9l7-8.9h1.7v11.7h-1.8V241l-7,8.9H119.8z"/>
		<path class="st0" d="M132.4,244.1c0-3.6,2.3-6,5.6-6c3.3,0,5.5,2.1,5.6,5.6c0,0.3,0,0.5,0,0.8h-9.1v0.2c0.1,2.2,1.5,3.8,3.7,3.8
			c1.7,0,2.9-0.9,3.3-2.4h1.9c-0.5,2.3-2.4,4.1-5.1,4.1C134.7,250.1,132.4,247.7,132.4,244.1z M141.5,242.9c-0.2-2-1.6-3.2-3.5-3.2
			c-1.7,0-3.3,1.2-3.5,3.2H141.5z"/>
		<path class="st0" d="M150.8,244.3l8.2-10.4h2.2v10.4h2.6v1.8h-2.6v3.9h-1.9V246h-8.4V244.3z M152.9,244.2h6.3v-8L152.9,244.2z"/>
	</g>
	<path class="st1" d="M432.9,36.8c-22-11.3-47-17.8-73.4-17.8v160.5L432.9,36.8z"/>
	<path class="st2" d="M359.5,19c-44.3,0-84.4,18-113.5,47l113.5,113.5V19z"/>
	<path class="st3" d="M246,66c-29,29-47,69.2-47,113.5c0,62.2,35.4,116.1,87.1,142.7l73.4-142.7L246,66z"/>
	<path class="st4" d="M432.9,36.8l-73.4,142.7l-73.4,142.7c22,11.3,47,17.8,73.4,17.8c44.3,0,84.4-18,113.5-47
		c29-29,47-69.2,47-113.5C520,117.3,484.6,63.4,432.9,36.8z"/>
	<line class="st5" x1="94.5" y1="55" x2="316.5" y2="55"/>
	<line class="st5" x1="395.5" y1="37.5" x2="617.5" y2="37.5"/>
	<g>
		<path class="st0" d="M538,301.1c-4.5,0-7.7-3.4-7.7-8.2c0-4.7,3.2-8.2,7.7-8.2c4.5,0,7.7,3.4,7.7,8.2
			C545.6,297.6,542.5,301.1,538,301.1z M538,299.2c3.4,0,5.6-2.6,5.6-6.3s-2.3-6.3-5.6-6.3c-3.4,0-5.6,2.6-5.6,6.3
			S534.6,299.2,538,299.2z"/>
		<path class="st0" d="M559,295.5c0,3.2-2.3,5.6-5.7,5.6c-3.5,0-5.7-2.1-5.7-6.6c0-6.3,1.5-8.6,6.6-9.3l4-0.5v1.8l-3.6,0.5
			c-3.7,0.5-4.7,1.4-5.1,4.9c0.8-1.1,2.3-1.9,4.3-1.9C556.8,290,559,292.1,559,295.5z M557.1,295.5c0-2.3-1.6-3.9-3.8-3.9
			c-2.3,0-3.9,1.6-3.9,3.7c0,2.6,1.6,4.1,3.8,4.1C555.6,299.4,557.1,297.8,557.1,295.5z"/>
		<path class="st0" d="M560.8,295.1c0-3.6,2.4-6,5.8-6s5.8,2.4,5.8,6c0,3.6-2.4,6-5.8,6S560.8,298.6,560.8,295.1z M570.5,295.1
			c0-2.5-1.6-4.3-3.9-4.3c-2.3,0-3.9,1.8-3.9,4.3s1.6,4.3,3.9,4.3C568.9,299.4,570.5,297.6,570.5,295.1z"/>
		<path class="st0" d="M583.8,297.6c0,2.2-2,3.5-5.2,3.5c-3.3,0-4.8-1.4-4.9-3.7h2c0.3,1.4,1,2.1,2.9,2.1s3.2-0.7,3.2-1.9
			c0-1.2-0.9-1.7-2.4-1.7h-2v-1.6h1.9c1.4,0,2.2-0.5,2.2-1.7c0-1.1-1-1.7-2.8-1.7c-1.9,0-2.7,0.8-3,2.1h-2c0.1-2.2,2-3.7,5-3.7
			c3,0,4.7,1.3,4.7,3.3c0,1.4-0.9,2.3-2.1,2.5C582.9,295.1,583.8,296,583.8,297.6z"/>
		<path class="st0" d="M594.4,289.2h1.9v11.7h-1.9v-5.1h-6.6v5.1h-1.9v-11.7h1.9v4.9h6.6V289.2z"/>
		<path class="st0" d="M609.9,299.2v1.7h-1c-1.6,0-2.1-0.7-2.1-1.8c-0.7,1.1-1.9,2-3.9,2c-2.6,0-4.3-1.3-4.3-3.4
			c0-2.3,1.6-3.7,4.7-3.7h3.4v-0.8c0-1.5-1.1-2.4-2.9-2.4c-1.7,0-2.8,0.8-3,2h-1.9c0.3-2.3,2.1-3.7,5-3.7c3,0,4.7,1.5,4.7,4.2v5.1
			c0,0.6,0.2,0.8,0.8,0.8H609.9z M606.6,295.6H603c-1.7,0-2.6,0.6-2.6,2c0,1.1,1,1.9,2.6,1.9c2.3,0,3.7-1.4,3.7-3.3V295.6z"/>
		<path class="st0" d="M618.5,289.2h1.9v11.7h-1.9v-4.7c-0.9,0.6-2.1,0.9-3.3,0.9c-2.9,0-4.6-1.2-4.6-4.3v-3.7h1.9v3.3
			c0,2.1,1,2.9,3.1,2.9c1.1,0,2.1-0.3,2.9-0.9V289.2z"/>
		<path class="st0" d="M622.5,295.1c0-3.6,2.3-6,5.6-6c3.3,0,5.5,2.1,5.6,5.6c0,0.3,0,0.5,0,0.8h-9.1v0.2c0.1,2.2,1.5,3.8,3.7,3.8
			c1.7,0,2.9-0.9,3.3-2.4h1.9c-0.5,2.3-2.4,4.1-5.1,4.1C624.8,301.1,622.5,298.7,622.5,295.1z M631.6,293.9c-0.2-2-1.6-3.2-3.5-3.2
			c-1.7,0-3.3,1.2-3.5,3.2H631.6z"/>
		<path class="st0" d="M644.3,289.2h1.9v11.7h-1.9v-5.1h-6.6v5.1h-1.9v-11.7h1.9v4.9h6.6V289.2z"/>
		<path class="st0" d="M648.8,300.9v-11.7h1.8v8.9l7-8.9h1.7v11.7h-1.8V292l-7,8.9H648.8z"/>
		<path class="st0" d="M661.4,295.1c0-3.6,2.3-6,5.6-6c3.3,0,5.5,2.1,5.6,5.6c0,0.3,0,0.5,0,0.8h-9.1v0.2c0.1,2.2,1.5,3.8,3.7,3.8
			c1.7,0,2.9-0.9,3.3-2.4h1.9c-0.5,2.3-2.4,4.1-5.1,4.1C663.7,301.1,661.4,298.7,661.4,295.1z M670.5,293.9c-0.2-2-1.6-3.2-3.5-3.2
			c-1.7,0-3.3,1.2-3.5,3.2H670.5z"/>
		<path class="st0" d="M691.6,296.5c0,2.7-2.3,4.6-5.8,4.6s-5.7-1.9-5.7-5.1h1.9c0,2.1,1.7,3.4,4,3.4c2.1,0,3.7-1.2,3.7-3
			c0-1.7-1.4-2.8-3.9-2.8h-1.4v-1.7h1.3c2.4,0,3.6-1.2,3.6-2.8c0-1.6-1.5-2.6-3.4-2.6c-2,0-3.5,1.2-3.5,3.1h-1.9
			c0-2.8,2.2-4.8,5.4-4.8c3.3,0,5.4,1.7,5.4,4.3c0,2-1.1,3.2-2.6,3.6C690.1,292.8,691.6,294,691.6,296.5z"/>
	</g>
	<line class="st5" x1="420" y1="309.5" x2="684.5" y2="309.5"/>
	<line class="st5" x1="0" y1="260.5" x2="264.5" y2="260.5"/>
	<rect x="1030.5" class="st2" width="284" height="284"/>
	<g>
		<g>
			<path class="st0" d="M1083.3,53.4c0,7.4-6.3,12.7-16.7,12.7c-10.3,0-16.7-5.3-16.7-12.7c0-6.2,4-10.2,9.1-11.4
				c-4.4-1-7.8-4.8-7.8-10.3c0-7.2,6-12.2,15.4-12.2s15.4,5,15.4,12.2c0,5.2-3.4,9.3-7.8,10.3C1079.2,43.2,1083.3,47.1,1083.3,53.4z
				 M1077.6,53c0-4.8-4.5-8.3-11-8.3s-11,3.5-11,8.3c0,4.9,4.6,8.4,11,8.4C1073.1,61.3,1077.6,57.9,1077.6,53z M1066.6,39.2
				c5.9,0,9.7-3,9.7-7.5c0-4.4-3.9-7.5-9.7-7.5s-9.7,3-9.7,7.5C1056.9,36.2,1060.7,39.2,1066.6,39.2z"/>
			<path class="st0" d="M1096,19.5c6.6,0,11.5,4.6,11.5,11.1c0,6.3-4.9,11-11.5,11s-11.5-4.6-11.5-11
				C1084.5,24.2,1089.4,19.5,1096,19.5z M1096,23.8c-3.9,0-6.7,2.9-6.7,6.8c0,3.9,2.8,6.7,6.7,6.7c3.9,0,6.7-2.8,6.7-6.7
				C1102.7,26.7,1099.9,23.8,1096,23.8z M1092.2,65.7l31.2-45.7h5.3l-31.2,45.7H1092.2z M1124.8,44c6.6,0,11.5,4.6,11.5,11.1
				c0,6.3-4.9,11-11.5,11c-6.6,0-11.5-4.6-11.5-11C1113.3,48.6,1118.2,44,1124.8,44z M1124.8,48.3c-3.9,0-6.7,2.9-6.7,6.8
				c0,3.9,2.8,6.7,6.7,6.7c3.9,0,6.7-2.8,6.7-6.7C1131.4,51.1,1128.6,48.3,1124.8,48.3z"/>
		</g>
	</g>
	<g>
		<path class="st0" d="M1056,265.1c-4.5,0-7.7-3.4-7.7-8.2c0-4.7,3.2-8.2,7.7-8.2c4.5,0,7.7,3.4,7.7,8.2
			C1063.6,261.6,1060.5,265.1,1056,265.1z M1056,263.2c3.4,0,5.6-2.6,5.6-6.3s-2.3-6.3-5.6-6.3c-3.4,0-5.6,2.6-5.6,6.3
			S1052.6,263.2,1056,263.2z"/>
		<path class="st0" d="M1077,259.5c0,3.2-2.3,5.6-5.7,5.6c-3.5,0-5.7-2.1-5.7-6.6c0-6.3,1.5-8.6,6.6-9.3l4-0.5v1.8l-3.6,0.5
			c-3.7,0.5-4.7,1.4-5.1,4.9c0.8-1.1,2.3-1.9,4.3-1.9C1074.8,254,1077,256.1,1077,259.5z M1075.1,259.5c0-2.3-1.6-3.9-3.8-3.9
			c-2.3,0-3.9,1.6-3.9,3.7c0,2.6,1.6,4.1,3.8,4.1C1073.6,263.4,1075.1,261.8,1075.1,259.5z"/>
		<path class="st0" d="M1078.8,259.1c0-3.6,2.4-6,5.8-6c3.4,0,5.8,2.4,5.8,6c0,3.6-2.4,6-5.8,6
			C1081.2,265.1,1078.8,262.6,1078.8,259.1z M1088.5,259.1c0-2.5-1.6-4.3-3.9-4.3c-2.3,0-3.9,1.8-3.9,4.3s1.6,4.3,3.9,4.3
			C1086.9,263.4,1088.5,261.6,1088.5,259.1z"/>
		<path class="st0" d="M1101.8,261.6c0,2.2-2,3.5-5.2,3.5c-3.3,0-4.8-1.4-4.9-3.7h2c0.3,1.4,1,2.1,2.9,2.1c2,0,3.2-0.7,3.2-1.9
			c0-1.2-0.9-1.7-2.4-1.7h-2v-1.6h1.9c1.4,0,2.2-0.5,2.2-1.7c0-1.1-1-1.7-2.8-1.7c-1.9,0-2.7,0.8-3,2.1h-2c0.1-2.2,2-3.7,5-3.7
			c3,0,4.7,1.3,4.7,3.3c0,1.4-0.9,2.3-2.1,2.5C1100.9,259.1,1101.8,260,1101.8,261.6z"/>
		<path class="st0" d="M1112.4,253.2h1.9v11.7h-1.9v-5.1h-6.6v5.1h-1.9v-11.7h1.9v4.9h6.6V253.2z"/>
		<path class="st0" d="M1127.9,263.2v1.7h-1c-1.6,0-2.1-0.7-2.1-1.8c-0.7,1.1-1.9,2-3.9,2c-2.6,0-4.3-1.3-4.3-3.4
			c0-2.3,1.6-3.7,4.7-3.7h3.4v-0.8c0-1.5-1.1-2.4-2.9-2.4c-1.7,0-2.8,0.8-3,2h-1.9c0.3-2.3,2.1-3.7,5-3.7c3,0,4.7,1.5,4.7,4.2v5.1
			c0,0.6,0.2,0.8,0.8,0.8H1127.9z M1124.6,259.6h-3.6c-1.7,0-2.6,0.6-2.6,2c0,1.1,1,1.9,2.6,1.9c2.3,0,3.7-1.4,3.7-3.3V259.6z"/>
		<path class="st0" d="M1136.5,253.2h1.9v11.7h-1.9v-4.7c-0.9,0.6-2.1,0.9-3.3,0.9c-2.9,0-4.6-1.2-4.6-4.3v-3.7h1.9v3.3
			c0,2.1,1,2.9,3.1,2.9c1.1,0,2.1-0.3,2.9-0.9V253.2z"/>
		<path class="st0" d="M1140.5,259.1c0-3.6,2.3-6,5.6-6c3.3,0,5.5,2.1,5.6,5.6c0,0.3,0,0.5,0,0.8h-9.1v0.2c0.1,2.2,1.5,3.8,3.7,3.8
			c1.7,0,2.9-0.9,3.3-2.4h1.9c-0.5,2.3-2.4,4.1-5.1,4.1C1142.8,265.1,1140.5,262.7,1140.5,259.1z M1149.6,257.9
			c-0.2-2-1.6-3.2-3.5-3.2c-1.7,0-3.3,1.2-3.5,3.2H1149.6z"/>
		<path class="st0" d="M1162.3,253.2h1.9v11.7h-1.9v-5.1h-6.6v5.1h-1.9v-11.7h1.9v4.9h6.6V253.2z"/>
		<path class="st0" d="M1166.8,264.9v-11.7h1.8v8.9l7-8.9h1.7v11.7h-1.8V256l-7,8.9H1166.8z"/>
		<path class="st0" d="M1179.4,259.1c0-3.6,2.3-6,5.6-6c3.3,0,5.5,2.1,5.6,5.6c0,0.3,0,0.5,0,0.8h-9.1v0.2c0.1,2.2,1.5,3.8,3.7,3.8
			c1.7,0,2.9-0.9,3.3-2.4h1.9c-0.5,2.3-2.4,4.1-5.1,4.1C1181.7,265.1,1179.4,262.7,1179.4,259.1z M1188.5,257.9
			c-0.2-2-1.6-3.2-3.5-3.2c-1.7,0-3.3,1.2-3.5,3.2H1188.5z"/>
		<path class="st0" d="M1201.3,248.8h1.9v16.1h-1.9v-11.5c-0.2,0.2-0.6,0.3-1.1,0.3h-2.6V252h2.6c0.8,0,1.1-0.6,1.1-1.4V248.8z"/>
	</g>
	<rect x="1336.5" class="st1" width="284" height="284"/>
	<g>
		<g>
			<path class="st6" d="M1354.2,49.6l23.3-29.7h6.1v29.5h7.4v5h-7.4v11.2h-5.5V54.5h-24V49.6z M1360.3,49.4h17.8V26.6L1360.3,49.4z"
				/>
			<path class="st6" d="M1401.8,19.5c6.6,0,11.5,4.6,11.5,11.1c0,6.3-4.9,11-11.5,11s-11.5-4.6-11.5-11
				C1390.3,24.2,1395.2,19.5,1401.8,19.5z M1401.8,23.8c-3.9,0-6.7,2.9-6.7,6.8c0,3.9,2.8,6.7,6.7,6.7c3.9,0,6.7-2.8,6.7-6.7
				C1408.5,26.7,1405.7,23.8,1401.8,23.8z M1398,65.7l31.2-45.7h5.3l-31.2,45.7H1398z M1430.6,44c6.6,0,11.5,4.6,11.5,11.1
				c0,6.3-4.9,11-11.5,11c-6.6,0-11.5-4.6-11.5-11C1419.1,48.6,1424,44,1430.6,44z M1430.6,48.3c-3.9,0-6.7,2.9-6.7,6.8
				c0,3.9,2.8,6.7,6.7,6.7c3.9,0,6.7-2.8,6.7-6.7C1437.2,51.1,1434.4,48.3,1430.6,48.3z"/>
		</g>
	</g>
	<g>
		<path class="st6" d="M1362,265.1c-4.5,0-7.7-3.4-7.7-8.2c0-4.7,3.2-8.2,7.7-8.2c4.5,0,7.7,3.4,7.7,8.2
			C1369.6,261.6,1366.5,265.1,1362,265.1z M1362,263.2c3.4,0,5.6-2.6,5.6-6.3s-2.3-6.3-5.6-6.3c-3.4,0-5.6,2.6-5.6,6.3
			S1358.6,263.2,1362,263.2z"/>
		<path class="st6" d="M1383,259.5c0,3.2-2.3,5.6-5.7,5.6c-3.5,0-5.7-2.1-5.7-6.6c0-6.3,1.5-8.6,6.6-9.3l4-0.5v1.8l-3.6,0.5
			c-3.7,0.5-4.7,1.4-5.1,4.9c0.8-1.1,2.3-1.9,4.3-1.9C1380.8,254,1383,256.1,1383,259.5z M1381.1,259.5c0-2.3-1.6-3.9-3.8-3.9
			c-2.3,0-3.9,1.6-3.9,3.7c0,2.6,1.6,4.1,3.8,4.1C1379.6,263.4,1381.1,261.8,1381.1,259.5z"/>
		<path class="st6" d="M1384.8,259.1c0-3.6,2.4-6,5.8-6c3.4,0,5.8,2.4,5.8,6c0,3.6-2.4,6-5.8,6
			C1387.2,265.1,1384.8,262.6,1384.8,259.1z M1394.5,259.1c0-2.5-1.6-4.3-3.9-4.3c-2.3,0-3.9,1.8-3.9,4.3s1.6,4.3,3.9,4.3
			C1392.9,263.4,1394.5,261.6,1394.5,259.1z"/>
		<path class="st6" d="M1407.8,261.6c0,2.2-2,3.5-5.2,3.5c-3.3,0-4.8-1.4-4.9-3.7h2c0.3,1.4,1,2.1,2.9,2.1c2,0,3.2-0.7,3.2-1.9
			c0-1.2-0.9-1.7-2.4-1.7h-2v-1.6h1.9c1.4,0,2.2-0.5,2.2-1.7c0-1.1-1-1.7-2.8-1.7c-1.9,0-2.7,0.8-3,2.1h-2c0.1-2.2,2-3.7,5-3.7
			c3,0,4.7,1.3,4.7,3.3c0,1.4-0.9,2.3-2.1,2.5C1406.9,259.1,1407.8,260,1407.8,261.6z"/>
		<path class="st6" d="M1418.4,253.2h1.9v11.7h-1.9v-5.1h-6.6v5.1h-1.9v-11.7h1.9v4.9h6.6V253.2z"/>
		<path class="st6" d="M1433.9,263.2v1.7h-1c-1.6,0-2.1-0.7-2.1-1.8c-0.7,1.1-1.9,2-3.9,2c-2.6,0-4.3-1.3-4.3-3.4
			c0-2.3,1.6-3.7,4.7-3.7h3.4v-0.8c0-1.5-1.1-2.4-2.9-2.4c-1.7,0-2.8,0.8-3,2h-1.9c0.3-2.3,2.1-3.7,5-3.7c3,0,4.7,1.5,4.7,4.2v5.1
			c0,0.6,0.2,0.8,0.8,0.8H1433.9z M1430.6,259.6h-3.6c-1.7,0-2.6,0.6-2.6,2c0,1.1,1,1.9,2.6,1.9c2.3,0,3.7-1.4,3.7-3.3V259.6z"/>
		<path class="st6" d="M1442.5,253.2h1.9v11.7h-1.9v-4.7c-0.9,0.6-2.1,0.9-3.3,0.9c-2.9,0-4.6-1.2-4.6-4.3v-3.7h1.9v3.3
			c0,2.1,1,2.9,3.1,2.9c1.1,0,2.1-0.3,2.9-0.9V253.2z"/>
		<path class="st6" d="M1446.5,259.1c0-3.6,2.3-6,5.6-6c3.3,0,5.5,2.1,5.6,5.6c0,0.3,0,0.5,0,0.8h-9.1v0.2c0.1,2.2,1.5,3.8,3.7,3.8
			c1.7,0,2.9-0.9,3.3-2.4h1.9c-0.5,2.3-2.4,4.1-5.1,4.1C1448.8,265.1,1446.5,262.7,1446.5,259.1z M1455.6,257.9
			c-0.2-2-1.6-3.2-3.5-3.2c-1.7,0-3.3,1.2-3.5,3.2H1455.6z"/>
		<path class="st6" d="M1468.3,253.2h1.9v11.7h-1.9v-5.1h-6.6v5.1h-1.9v-11.7h1.9v4.9h6.6V253.2z"/>
		<path class="st6" d="M1472.8,264.9v-11.7h1.8v8.9l7-8.9h1.7v11.7h-1.8V256l-7,8.9H1472.8z"/>
		<path class="st6" d="M1485.4,259.1c0-3.6,2.3-6,5.6-6c3.3,0,5.5,2.1,5.6,5.6c0,0.3,0,0.5,0,0.8h-9.1v0.2c0.1,2.2,1.5,3.8,3.7,3.8
			c1.7,0,2.9-0.9,3.3-2.4h1.9c-0.5,2.3-2.4,4.1-5.1,4.1C1487.7,265.1,1485.4,262.7,1485.4,259.1z M1494.5,257.9
			c-0.2-2-1.6-3.2-3.5-3.2c-1.7,0-3.3,1.2-3.5,3.2H1494.5z"/>
		<path class="st6" d="M1504,263.3l6.3-5.4c1.5-1.3,2.7-2.5,2.7-4.3c0-2-1.4-3.2-3.5-3.2c-2.1,0-3.4,1.4-3.4,3.6v0.3h-1.9v-0.4
			c0-3,2.1-5.2,5.4-5.2c3.5,0,5.5,1.9,5.5,4.8c0,2.4-1.6,3.9-3.5,5.6l-4.8,4.1h8.4v1.8H1504V263.3z"/>
	</g>
	<rect x="1030.5" y="304" class="st4" width="284" height="284"/>
	<g>
		<path class="st6" d="M1082.4,354.4c0,10.1-7.5,15.6-16,15.6c-10.2,0-16.1-6.6-16.5-14.6h5.4c0.5,5.3,4.5,9.7,11.1,9.7
			c5.4,0,10.4-3.6,10.4-10.7c0-6.2-4-10.6-10.3-10.6c-2.8,0-8.4,0.8-10.4,6.2l-5.3-0.1l1.5-26h27.4v5h-22.4l-1,14.4
			c2.8-3.3,6.7-4.4,11-4.4C1076.2,339,1082.4,345.3,1082.4,354.4z"/>
		<path class="st6" d="M1085.3,345.7c0-13,7.1-22.2,17.4-22.2c10.3,0,17.3,9.2,17.3,22.2v2.1c0,13.7-7.1,22.2-17.3,22.2
			c-10.3,0-17.4-8.6-17.4-22.2V345.7z M1114.5,345.9c0-10.8-4.7-17.4-11.8-17.4c-7.1,0-11.8,6.5-11.8,17.4v1.7
			c0,10.8,4.7,17.4,11.8,17.4c7.1,0,11.8-6.5,11.8-17.4V345.9z"/>
		<path class="st6" d="M1133,323.5c6.6,0,11.5,4.6,11.5,11.1c0,6.3-4.9,11-11.5,11s-11.5-4.6-11.5-11
			C1121.5,328.2,1126.4,323.5,1133,323.5z M1133,327.8c-3.9,0-6.7,2.9-6.7,6.8c0,3.9,2.8,6.7,6.7,6.7c3.9,0,6.7-2.8,6.7-6.7
			C1139.7,330.7,1136.8,327.8,1133,327.8z M1129.2,369.7l31.2-45.7h5.3l-31.2,45.7H1129.2z M1161.7,348c6.6,0,11.5,4.6,11.5,11.1
			c0,6.3-4.9,11-11.5,11c-6.6,0-11.5-4.6-11.5-11C1150.2,352.6,1155.1,348,1161.7,348z M1161.7,352.3c-3.9,0-6.7,2.9-6.7,6.8
			c0,3.9,2.8,6.7,6.7,6.7c3.9,0,6.7-2.8,6.7-6.7C1168.4,355.1,1165.6,352.3,1161.7,352.3z"/>
	</g>
	<g>
		<path class="st6" d="M1056,569.1c-4.5,0-7.7-3.4-7.7-8.2c0-4.7,3.2-8.2,7.7-8.2c4.5,0,7.7,3.4,7.7,8.2
			C1063.6,565.6,1060.5,569.1,1056,569.1z M1056,567.2c3.4,0,5.6-2.6,5.6-6.3s-2.3-6.3-5.6-6.3c-3.4,0-5.6,2.6-5.6,6.3
			S1052.6,567.2,1056,567.2z"/>
		<path class="st6" d="M1077,563.5c0,3.2-2.3,5.6-5.7,5.6c-3.5,0-5.7-2.1-5.7-6.6c0-6.3,1.5-8.6,6.6-9.3l4-0.5v1.8l-3.6,0.5
			c-3.7,0.5-4.7,1.4-5.1,4.9c0.8-1.1,2.3-1.9,4.3-1.9C1074.8,558,1077,560.1,1077,563.5z M1075.1,563.5c0-2.3-1.6-3.9-3.8-3.9
			c-2.3,0-3.9,1.6-3.9,3.7c0,2.6,1.6,4.1,3.8,4.1C1073.6,567.4,1075.1,565.8,1075.1,563.5z"/>
		<path class="st6" d="M1078.8,563.1c0-3.6,2.4-6,5.8-6c3.4,0,5.8,2.4,5.8,6c0,3.6-2.4,6-5.8,6
			C1081.2,569.1,1078.8,566.6,1078.8,563.1z M1088.5,563.1c0-2.5-1.6-4.3-3.9-4.3c-2.3,0-3.9,1.8-3.9,4.3s1.6,4.3,3.9,4.3
			C1086.9,567.4,1088.5,565.6,1088.5,563.1z"/>
		<path class="st6" d="M1101.8,565.6c0,2.2-2,3.5-5.2,3.5c-3.3,0-4.8-1.4-4.9-3.7h2c0.3,1.4,1,2.1,2.9,2.1c2,0,3.2-0.7,3.2-1.9
			c0-1.2-0.9-1.7-2.4-1.7h-2v-1.6h1.9c1.4,0,2.2-0.5,2.2-1.7c0-1.1-1-1.7-2.8-1.7c-1.9,0-2.7,0.8-3,2.1h-2c0.1-2.2,2-3.7,5-3.7
			c3,0,4.7,1.3,4.7,3.3c0,1.4-0.9,2.3-2.1,2.5C1100.9,563.1,1101.8,564,1101.8,565.6z"/>
		<path class="st6" d="M1112.4,557.2h1.9v11.7h-1.9v-5.1h-6.6v5.1h-1.9v-11.7h1.9v4.9h6.6V557.2z"/>
		<path class="st6" d="M1127.9,567.2v1.7h-1c-1.6,0-2.1-0.7-2.1-1.8c-0.7,1.1-1.9,2-3.9,2c-2.6,0-4.3-1.3-4.3-3.4
			c0-2.3,1.6-3.7,4.7-3.7h3.4v-0.8c0-1.5-1.1-2.4-2.9-2.4c-1.7,0-2.8,0.8-3,2h-1.9c0.3-2.3,2.1-3.7,5-3.7c3,0,4.7,1.5,4.7,4.2v5.1
			c0,0.6,0.2,0.8,0.8,0.8H1127.9z M1124.6,563.6h-3.6c-1.7,0-2.6,0.6-2.6,2c0,1.1,1,1.9,2.6,1.9c2.3,0,3.7-1.4,3.7-3.3V563.6z"/>
		<path class="st6" d="M1136.5,557.2h1.9v11.7h-1.9v-4.7c-0.9,0.6-2.1,0.9-3.3,0.9c-2.9,0-4.6-1.2-4.6-4.3v-3.7h1.9v3.3
			c0,2.1,1,2.9,3.1,2.9c1.1,0,2.1-0.3,2.9-0.9V557.2z"/>
		<path class="st6" d="M1140.5,563.1c0-3.6,2.3-6,5.6-6c3.3,0,5.5,2.1,5.6,5.6c0,0.3,0,0.5,0,0.8h-9.1v0.2c0.1,2.2,1.5,3.8,3.7,3.8
			c1.7,0,2.9-0.9,3.3-2.4h1.9c-0.5,2.3-2.4,4.1-5.1,4.1C1142.8,569.1,1140.5,566.7,1140.5,563.1z M1149.6,561.9
			c-0.2-2-1.6-3.2-3.5-3.2c-1.7,0-3.3,1.2-3.5,3.2H1149.6z"/>
		<path class="st6" d="M1162.3,557.2h1.9v11.7h-1.9v-5.1h-6.6v5.1h-1.9v-11.7h1.9v4.9h6.6V557.2z"/>
		<path class="st6" d="M1166.8,568.9v-11.7h1.8v8.9l7-8.9h1.7v11.7h-1.8V560l-7,8.9H1166.8z"/>
		<path class="st6" d="M1179.4,563.1c0-3.6,2.3-6,5.6-6c3.3,0,5.5,2.1,5.6,5.6c0,0.3,0,0.5,0,0.8h-9.1v0.2c0.1,2.2,1.5,3.8,3.7,3.8
			c1.7,0,2.9-0.9,3.3-2.4h1.9c-0.5,2.3-2.4,4.1-5.1,4.1C1181.7,569.1,1179.4,566.7,1179.4,563.1z M1188.5,561.9
			c-0.2-2-1.6-3.2-3.5-3.2c-1.7,0-3.3,1.2-3.5,3.2H1188.5z"/>
		<path class="st6" d="M1209.6,564.5c0,2.7-2.3,4.6-5.8,4.6s-5.7-1.9-5.7-5.1h1.9c0,2.1,1.7,3.4,4,3.4c2.1,0,3.7-1.2,3.7-3
			c0-1.7-1.4-2.8-3.9-2.8h-1.4v-1.7h1.3c2.4,0,3.6-1.2,3.6-2.8c0-1.6-1.5-2.6-3.4-2.6c-2,0-3.5,1.2-3.5,3.1h-1.9
			c0-2.8,2.2-4.8,5.4-4.8c3.3,0,5.4,1.7,5.4,4.3c0,2-1.1,3.2-2.6,3.6C1208.1,560.8,1209.6,562,1209.6,564.5z"/>
	</g>
	<rect x="1336.5" y="304" class="st3" width="284" height="284"/>
	<g>
		<g>
			<path class="st6" d="M1387.9,357c0,7.8-6.5,13.1-16.5,13.1c-9.9,0-16.3-5.4-16.3-14.5h5.4c0.1,6,4.8,9.6,11.2,9.6
				c5.9,0,10.5-3.3,10.5-8.6c0-4.8-3.9-7.8-11-7.8h-3.9V344h3.6c6.8,0,10.2-3.4,10.2-8c0-4.6-4.2-7.5-9.7-7.5c-5.8,0-9.9,3.5-10,8.7
				h-5.4c0.1-8,6.3-13.6,15.4-13.6c9.4,0,15.4,4.9,15.4,12.1c0,5.8-3,9.1-7.4,10.3C1383.6,346.7,1387.9,350,1387.9,357z"/>
			<path class="st6" d="M1424.6,357.4c0,7.4-6.3,12.7-16.7,12.7c-10.3,0-16.7-5.3-16.7-12.7c0-6.2,4-10.2,9.1-11.4
				c-4.4-1-7.8-4.8-7.8-10.3c0-7.2,6-12.2,15.4-12.2s15.4,5,15.4,12.2c0,5.2-3.4,9.3-7.8,10.3
				C1420.6,347.2,1424.6,351.1,1424.6,357.4z M1419,357c0-4.8-4.5-8.3-11-8.3s-11,3.5-11,8.3c0,4.9,4.6,8.4,11,8.4
				C1414.5,365.3,1419,361.9,1419,357z M1407.9,343.2c5.9,0,9.7-3,9.7-7.5c0-4.4-3.9-7.5-9.7-7.5s-9.7,3-9.7,7.5
				C1398.2,340.2,1402.1,343.2,1407.9,343.2z"/>
			<path class="st6" d="M1437.4,323.5c6.6,0,11.5,4.6,11.5,11.1c0,6.3-4.9,11-11.5,11s-11.5-4.6-11.5-11
				C1425.9,328.2,1430.8,323.5,1437.4,323.5z M1437.4,327.8c-3.9,0-6.7,2.9-6.7,6.8c0,3.9,2.8,6.7,6.7,6.7c3.9,0,6.7-2.8,6.7-6.7
				C1444,330.7,1441.2,327.8,1437.4,327.8z M1433.6,369.7l31.2-45.7h5.3l-31.2,45.7H1433.6z M1466.1,348c6.6,0,11.5,4.6,11.5,11.1
				c0,6.3-4.9,11-11.5,11c-6.6,0-11.5-4.6-11.5-11C1454.6,352.6,1459.5,348,1466.1,348z M1466.1,352.3c-3.9,0-6.7,2.9-6.7,6.8
				c0,3.9,2.8,6.7,6.7,6.7c3.9,0,6.7-2.8,6.7-6.7C1472.8,355.1,1470,352.3,1466.1,352.3z"/>
		</g>
	</g>
	<g>
		<path class="st6" d="M1362,569.1c-4.5,0-7.7-3.4-7.7-8.2c0-4.7,3.2-8.2,7.7-8.2c4.5,0,7.7,3.4,7.7,8.2
			C1369.6,565.6,1366.5,569.1,1362,569.1z M1362,567.2c3.4,0,5.6-2.6,5.6-6.3s-2.3-6.3-5.6-6.3c-3.4,0-5.6,2.6-5.6,6.3
			S1358.6,567.2,1362,567.2z"/>
		<path class="st6" d="M1383,563.5c0,3.2-2.3,5.6-5.7,5.6c-3.5,0-5.7-2.1-5.7-6.6c0-6.3,1.5-8.6,6.6-9.3l4-0.5v1.8l-3.6,0.5
			c-3.7,0.5-4.7,1.4-5.1,4.9c0.8-1.1,2.3-1.9,4.3-1.9C1380.8,558,1383,560.1,1383,563.5z M1381.1,563.5c0-2.3-1.6-3.9-3.8-3.9
			c-2.3,0-3.9,1.6-3.9,3.7c0,2.6,1.6,4.1,3.8,4.1C1379.6,567.4,1381.1,565.8,1381.1,563.5z"/>
		<path class="st6" d="M1384.8,563.1c0-3.6,2.4-6,5.8-6s5.8,2.4,5.8,6c0,3.6-2.4,6-5.8,6S1384.8,566.6,1384.8,563.1z M1394.5,563.1
			c0-2.5-1.6-4.3-3.9-4.3c-2.3,0-3.9,1.8-3.9,4.3s1.6,4.3,3.9,4.3C1392.9,567.4,1394.5,565.6,1394.5,563.1z"/>
		<path class="st6" d="M1407.8,565.6c0,2.2-2,3.5-5.2,3.5c-3.3,0-4.8-1.4-4.9-3.7h2c0.3,1.4,1,2.1,2.9,2.1s3.2-0.7,3.2-1.9
			c0-1.2-0.9-1.7-2.4-1.7h-2v-1.6h1.9c1.4,0,2.2-0.5,2.2-1.7c0-1.1-1-1.7-2.8-1.7c-1.9,0-2.7,0.8-3,2.1h-2c0.1-2.2,2-3.7,5-3.7
			c3,0,4.7,1.3,4.7,3.3c0,1.4-0.9,2.3-2.1,2.5C1406.9,563.1,1407.8,564,1407.8,565.6z"/>
		<path class="st6" d="M1418.4,557.2h1.9v11.7h-1.9v-5.1h-6.6v5.1h-1.9v-11.7h1.9v4.9h6.6V557.2z"/>
		<path class="st6" d="M1433.9,567.2v1.7h-1c-1.6,0-2.1-0.7-2.1-1.8c-0.7,1.1-1.9,2-3.9,2c-2.6,0-4.3-1.3-4.3-3.4
			c0-2.3,1.6-3.7,4.7-3.7h3.4v-0.8c0-1.5-1.1-2.4-2.9-2.4c-1.7,0-2.8,0.8-3,2h-1.9c0.3-2.3,2.1-3.7,5-3.7c3,0,4.7,1.5,4.7,4.2v5.1
			c0,0.6,0.2,0.8,0.8,0.8H1433.9z M1430.6,563.6h-3.6c-1.7,0-2.6,0.6-2.6,2c0,1.1,1,1.9,2.6,1.9c2.3,0,3.7-1.4,3.7-3.3V563.6z"/>
		<path class="st6" d="M1442.5,557.2h1.9v11.7h-1.9v-4.7c-0.9,0.6-2.1,0.9-3.3,0.9c-2.9,0-4.6-1.2-4.6-4.3v-3.7h1.9v3.3
			c0,2.1,1,2.9,3.1,2.9c1.1,0,2.1-0.3,2.9-0.9V557.2z"/>
		<path class="st6" d="M1446.5,563.1c0-3.6,2.3-6,5.6-6c3.3,0,5.5,2.1,5.6,5.6c0,0.3,0,0.5,0,0.8h-9.1v0.2c0.1,2.2,1.5,3.8,3.7,3.8
			c1.7,0,2.9-0.9,3.3-2.4h1.9c-0.5,2.3-2.4,4.1-5.1,4.1C1448.8,569.1,1446.5,566.7,1446.5,563.1z M1455.6,561.9
			c-0.2-2-1.6-3.2-3.5-3.2c-1.7,0-3.3,1.2-3.5,3.2H1455.6z"/>
		<path class="st6" d="M1468.3,557.2h1.9v11.7h-1.9v-5.1h-6.6v5.1h-1.9v-11.7h1.9v4.9h6.6V557.2z"/>
		<path class="st6" d="M1472.8,568.9v-11.7h1.8v8.9l7-8.9h1.7v11.7h-1.8V560l-7,8.9H1472.8z"/>
		<path class="st6" d="M1485.4,563.1c0-3.6,2.3-6,5.6-6c3.3,0,5.5,2.1,5.6,5.6c0,0.3,0,0.5,0,0.8h-9.1v0.2c0.1,2.2,1.5,3.8,3.7,3.8
			c1.7,0,2.9-0.9,3.3-2.4h1.9c-0.5,2.3-2.4,4.1-5.1,4.1C1487.7,569.1,1485.4,566.7,1485.4,563.1z M1494.5,561.9
			c-0.2-2-1.6-3.2-3.5-3.2c-1.7,0-3.3,1.2-3.5,3.2H1494.5z"/>
		<path class="st6" d="M1503.8,563.3l8.2-10.4h2.2v10.4h2.6v1.8h-2.6v3.9h-1.9V565h-8.4V563.3z M1505.9,563.2h6.3v-8L1505.9,563.2z"
			/>
	</g>
</g>
</svg>
