<?xml version="1.0" encoding="utf-8"?>
<!-- Generator: Adobe Illustrator 22.0.0, SVG Export Plug-In . SVG Version: 6.00 Build 0)  -->
<svg version="1.1" id="Layer_1" xmlns="http://www.w3.org/2000/svg" xmlns:xlink="http://www.w3.org/1999/xlink" x="0px" y="0px"
	 viewBox="0 0 1677.8 1400" style="enable-background:new 0 0 1677.8 1400;" xml:space="preserve">
<style type="text/css">
	.st0{opacity:0.6;enable-background:new    ;}
	.st1{fill:#1B1B2D;}
	.st2{fill:none;stroke:#A4A4AB;stroke-miterlimit:10;}
	.st3{fill:none;stroke:#A4A4AB;stroke-miterlimit:10;stroke-dasharray:6.0113,10.0189;}
	.st4{fill:none;stroke:#A4A4AB;stroke-miterlimit:10;stroke-dasharray:5.9643,9.9406;}
</style>
<g class="st0">
	<path class="st1" d="M682.9,1v959.8H1V1H682.9 M683.9,0H0v961.8h683.9V0L683.9,0z"/>
</g>
<g class="st0">
	<path class="st1" d="M1676.8,1v681.9H717V1H1676.8 M1677.8,0H716v683.9h961.8V0L1677.8,0z"/>
</g>
<g class="st0">
	<path class="st1" d="M1399,717.1V1399H717V717.1H1399 M1400,716.1H716V1400h684V716.1L1400,716.1z"/>
</g>
<g>
	<path class="st1" d="M830.7,1315.7c0,9.3-2.9,18.3-8.2,25.9c-5.4,7.6-13,13.3-21.7,16.4v-10.8c6-2.8,11-7.3,14.6-12.9
		c3.5-5.6,5.4-12.1,5.4-18.7s-1.9-13.1-5.4-18.7s-8.6-10.1-14.6-12.9v-10.8c8.8,3.1,16.4,8.8,21.8,16.4
		C827.8,1297.4,830.7,1306.5,830.7,1315.7z"/>
	<rect x="750.7" y="1310.7" class="st1" width="40" height="10"/>
	<path class="st1" d="M810.7,1315.7c0-3.3-0.6-6.5-1.9-9.6c-1.3-3-3.1-5.8-5.4-8.1c-2.3-2.3-5.1-4.2-8.1-5.4c-3-1.3-6.3-1.9-9.6-1.9
		h-15v10h30v30h-30v10h15c3.3,0,6.5-0.6,9.6-1.9c3-1.3,5.8-3.1,8.1-5.4s4.2-5.1,5.4-8.1C810,1322.3,810.7,1319,810.7,1315.7z"/>
</g>
<g>
	<path class="st1" d="M830.7,799.2c0,9.3-2.9,18.3-8.2,25.9c-5.4,7.6-13,13.3-21.7,16.4v-10.8c6-2.8,11-7.3,14.6-12.9
		c3.5-5.6,5.4-12.1,5.4-18.7c0-6.6-1.9-13.1-5.4-18.7c-3.5-5.6-8.6-10.1-14.6-12.9v-10.8c8.8,3.1,16.4,8.8,21.8,16.4
		C827.8,780.9,830.7,790,830.7,799.2z"/>
	<rect x="750.7" y="794.3" class="st1" width="40" height="10"/>
	<path class="st1" d="M810.7,799.2c0-3.3-0.6-6.5-1.9-9.6c-1.3-3-3.1-5.8-5.4-8.1c-2.3-2.3-5.1-4.2-8.1-5.4c-3-1.3-6.3-1.9-9.6-1.9
		h-15v10h30v30h-30v10h15c3.3,0,6.5-0.6,9.6-1.9c3-1.3,5.8-3.1,8.1-5.4c2.3-2.3,4.2-5.1,5.4-8.1S810.7,802.5,810.7,799.2z"/>
</g>
<g>
	<g>
		<line class="st2" x1="22.9" y1="0" x2="22.9" y2="3"/>
		<line class="st3" x1="22.9" y1="13" x2="22.9" y2="953.8"/>
		<line class="st2" x1="22.9" y1="958.8" x2="22.9" y2="961.8"/>
	</g>
</g>
<g>
	<g>
		<line class="st2" x1="58.9" y1="0" x2="58.9" y2="3"/>
		<line class="st3" x1="58.9" y1="13" x2="58.9" y2="953.8"/>
		<line class="st2" x1="58.9" y1="958.8" x2="58.9" y2="961.8"/>
	</g>
</g>
<g>
	<path class="st1" d="M58.9,45.3c0,4.2-1.3,8.2-3.7,11.7c-2.4,3.4-5.8,6-9.8,7.4v-4.8c2.7-1.3,5-3.3,6.6-5.8s2.4-5.4,2.4-8.4
		s-0.8-5.9-2.5-8.4c-1.6-2.5-3.9-4.5-6.6-5.8v-4.8c3.9,1.4,7.4,4,9.8,7.4C57.6,37.1,58.9,41.2,58.9,45.3z"/>
	<rect x="22.9" y="43.1" class="st1" width="18" height="4.5"/>
	<path class="st1" d="M49.9,45.3c0-1.5-0.3-2.9-0.8-4.3s-1.4-2.6-2.4-3.6s-2.3-1.9-3.6-2.4c-1.4-0.6-2.8-0.8-4.3-0.8H32v4.5h13.5V52
		H32v4.5h6.7c1.5,0,2.9-0.3,4.3-0.8c1.4-0.6,2.6-1.4,3.6-2.4s1.9-2.3,2.4-3.6C49.7,48.3,49.9,46.8,49.9,45.3z"/>
</g>
<g>
	<g>
		<line class="st2" x1="740.1" y1="0" x2="740.1" y2="3"/>
		<line class="st4" x1="740.1" y1="12.9" x2="740.1" y2="676"/>
		<line class="st2" x1="740.1" y1="680.9" x2="740.1" y2="683.9"/>
	</g>
</g>
<g>
	<g>
		<line class="st2" x1="776.1" y1="0" x2="776.1" y2="3"/>
		<line class="st4" x1="776.1" y1="12.9" x2="776.1" y2="676"/>
		<line class="st2" x1="776.1" y1="680.9" x2="776.1" y2="683.9"/>
	</g>
</g>
<g>
	<g>
		<path class="st1" d="M58.9,916.8c0,4.2-1.3,8.2-3.7,11.7c-2.4,3.4-5.8,6-9.8,7.4V931c2.7-1.3,5-3.3,6.6-5.8s2.4-5.4,2.4-8.4
			s-0.8-5.9-2.5-8.4c-1.6-2.5-3.9-4.5-6.6-5.8v-4.8c3.9,1.4,7.4,4,9.8,7.4C57.6,908.5,58.9,912.6,58.9,916.8z"/>
		<rect x="22.9" y="914.5" class="st1" width="18" height="4.5"/>
		<path class="st1" d="M49.9,916.8c0-1.5-0.3-2.9-0.8-4.3c-0.6-1.4-1.4-2.6-2.4-3.6s-2.3-1.9-3.6-2.4c-1.4-0.6-2.8-0.8-4.3-0.8H32
			v4.5h13.5v13.5H32v4.5h6.7c1.5,0,2.9-0.3,4.3-0.8c1.4-0.6,2.6-1.4,3.6-2.4s1.9-2.3,2.4-3.6C49.7,919.7,49.9,918.3,49.9,916.8z"/>
	</g>
	<g>
		<path class="st1" d="M610.6,924.8c-1.2,0-2.3-0.2-3.3-0.7s-1.8-1.2-2.4-2s-1.1-1.8-1.3-2.8h2.5c0.2,0.6,0.5,1.2,0.9,1.7
			s0.9,0.9,1.6,1.1c0.6,0.3,1.3,0.4,2,0.4c0.9,0,1.7-0.2,2.4-0.6s1.3-1,1.8-1.7c0.4-0.7,0.7-1.5,0.8-2.4h-6.9v-2.2h6.9
			c-0.1-0.9-0.4-1.7-0.8-2.4c-0.4-0.7-1-1.3-1.8-1.7s-1.5-0.6-2.4-0.6c-1.1,0-2.1,0.3-2.9,0.9c-0.8,0.6-1.4,1.3-1.7,2.3h-2.5
			c0.3-1,0.7-1.9,1.4-2.7s1.5-1.5,2.4-2c1-0.5,2-0.7,3.2-0.7c1.4,0,2.6,0.3,3.8,1s2.1,1.6,2.7,2.9c0.7,1.2,1,2.6,1,4.2
			c0,1.5-0.3,2.9-1,4.2c-0.7,1.2-1.6,2.2-2.7,2.9C613.2,924.5,612,924.8,610.6,924.8z"/>
		<path class="st1" d="M618.2,924.7v-2.3h0.7c0.5,0,0.9-0.1,1.2-0.4c0.3-0.3,0.5-0.7,0.5-1.4l1-11.6h10.1v15.6h-2.4v-13.3h-5.5
			l-0.8,9.6c-0.1,1.3-0.5,2.3-1.1,2.9c-0.6,0.6-1.5,0.9-2.7,0.9H618.2L618.2,924.7z"/>
		<path class="st1" d="M637.9,924.6v-13.3H633V909h12.1v2.3h-4.9v13.4L637.9,924.6L637.9,924.6z"/>
		<path class="st1" d="M643.7,924.6l5.7-15.6h3.5l5.7,15.6H656l-4.7-13.1h-0.4l-4.7,13.1H643.7z M647.1,920.9v-2.1h8.1v2.1H647.1z"
			/>
	</g>
</g>
<g>
	<g>
		<line class="st2" x1="603.6" y1="0" x2="603.6" y2="3"/>
		<line class="st3" x1="603.6" y1="13" x2="603.6" y2="953.8"/>
		<line class="st2" x1="603.6" y1="958.8" x2="603.6" y2="961.8"/>
	</g>
</g>
<g>
	<g>
		<line class="st2" x1="658.6" y1="0" x2="658.6" y2="3"/>
		<line class="st3" x1="658.6" y1="13" x2="658.6" y2="953.8"/>
		<line class="st2" x1="658.6" y1="958.8" x2="658.6" y2="961.8"/>
	</g>
</g>
<g>
	<g>
		<line class="st2" x1="1593.4" y1="0" x2="1593.4" y2="3"/>
		<line class="st4" x1="1593.4" y1="12.9" x2="1593.4" y2="676"/>
		<line class="st2" x1="1593.4" y1="680.9" x2="1593.4" y2="683.9"/>
	</g>
</g>
<g>
	<g>
		<line class="st2" x1="1648.4" y1="0" x2="1648.4" y2="3"/>
		<line class="st4" x1="1648.4" y1="12.9" x2="1648.4" y2="676"/>
		<line class="st2" x1="1648.4" y1="680.9" x2="1648.4" y2="683.9"/>
	</g>
</g>
<g>
	<g>
		<line class="st2" x1="749.4" y1="716.1" x2="749.4" y2="719.1"/>
		<line class="st4" x1="749.4" y1="729" x2="749.4" y2="1392"/>
		<line class="st2" x1="749.4" y1="1397" x2="749.4" y2="1400"/>
	</g>
</g>
<g>
	<g>
		<line class="st2" x1="1354.6" y1="716.1" x2="1354.6" y2="719.1"/>
		<line class="st4" x1="1354.6" y1="729" x2="1354.6" y2="1392"/>
		<line class="st2" x1="1354.6" y1="1397" x2="1354.6" y2="1400"/>
	</g>
</g>
<g>
	<g>
		<line class="st2" x1="1133.6" y1="716.1" x2="1133.6" y2="719.1"/>
		<line class="st4" x1="1133.6" y1="729" x2="1133.6" y2="1392"/>
		<line class="st2" x1="1133.6" y1="1397" x2="1133.6" y2="1400"/>
	</g>
</g>
<g>
	<g>
		<line class="st2" x1="830.7" y1="716.1" x2="830.7" y2="719.1"/>
		<line class="st4" x1="830.7" y1="729" x2="830.7" y2="1392"/>
		<line class="st2" x1="830.7" y1="1397" x2="830.7" y2="1400"/>
	</g>
</g>
<g>
	<path class="st1" d="M617.6,45.4c0,4.7-2.9,7.8-7.4,7.8c-3.6,0-6-2.1-6.6-5.3h2.6c0.5,1.9,1.9,3.1,4.1,3.1c2.6,0,4.4-1.8,4.7-4.6
		h-5.9v-2.2h5.9c-0.4-2.7-2-4.5-4.6-4.5c-2.2,0-3.6,1.2-4.1,3.1h-2.6c0.5-3.2,3.1-5.3,6.6-5.3C614.9,37.6,617.6,40.7,617.6,45.4z"/>
	<path class="st1" d="M617.8,53.1v-2.2h0.4c1.6,0,2.3-1,2.3-5.6v-7.6h11.1v15.4h-2.5V39.9h-6.2v5.5c0,5.7-1.4,7.6-4.4,7.6H617.8z"/>
	<path class="st1" d="M633.5,37.7h12v2.2h-4.8v13.2h-2.5V39.9h-4.8V37.7z"/>
	<path class="st1" d="M644.1,53.1l5.8-15.4h3l5.7,15.4h-2.7l-1.5-3.8h-6.3l-1.4,3.8H644.1z M648.8,47.1h4.9l-2.5-6.7L648.8,47.1z"/>
</g>
<g>
	<g>
		<path class="st1" d="M776.1,45.3c0,4.2-1.3,8.2-3.7,11.7c-2.4,3.4-5.8,6-9.8,7.4v-4.8c2.7-1.3,5-3.3,6.6-5.8s2.4-5.4,2.4-8.4
			s-0.8-5.9-2.5-8.4c-1.6-2.5-3.9-4.5-6.6-5.8v-4.8c3.9,1.4,7.4,4,9.8,7.4C774.8,37.1,776.1,41.2,776.1,45.3z"/>
		<rect x="740.1" y="43.1" class="st1" width="18" height="4.5"/>
		<path class="st1" d="M767.1,45.3c0-1.5-0.3-2.9-0.8-4.3c-0.6-1.4-1.4-2.6-2.4-3.6s-2.3-1.9-3.6-2.4c-1.4-0.6-2.8-0.8-4.3-0.8h-6.7
			v4.5h13.5V52h-13.5v4.5h6.7c1.5,0,2.9-0.3,4.3-0.8c1.4-0.6,2.6-1.4,3.6-2.4s1.9-2.3,2.4-3.6C766.9,48.3,767.1,46.8,767.1,45.3z"/>
	</g>
	<g>
		<path class="st1" d="M1608,45.4c0,4.7-2.9,7.8-7.4,7.8c-3.6,0-6-2.1-6.6-5.3h2.6c0.5,1.9,1.9,3.1,4.1,3.1c2.6,0,4.4-1.8,4.7-4.6
			h-5.9v-2.2h5.9c-0.4-2.7-2-4.5-4.6-4.5c-2.2,0-3.6,1.2-4.1,3.1h-2.6c0.5-3.2,3.1-5.3,6.6-5.3C1605.3,37.6,1608,40.7,1608,45.4z"/>
		<path class="st1" d="M1608.2,53.1v-2.2h0.4c1.6,0,2.3-1,2.3-5.6v-7.6h11.1v15.4h-2.5V39.9h-6.2v5.5c0,5.7-1.4,7.6-4.4,7.6H1608.2z
			"/>
		<path class="st1" d="M1623.9,37.7h12v2.2h-4.8v13.2h-2.5V39.9h-4.8V37.7z"/>
		<path class="st1" d="M1634.5,53.1l5.8-15.4h3l5.7,15.4h-2.7l-1.5-3.8h-6.3l-1.4,3.8H1634.5z M1639.2,47.1h4.9l-2.5-6.7
			L1639.2,47.1z"/>
	</g>
</g>
<g>
	<g>
		<path class="st1" d="M776.1,636.3c0,4.2-1.3,8.2-3.7,11.7c-2.4,3.4-5.8,6-9.8,7.4v-4.8c2.7-1.3,5-3.3,6.6-5.8s2.4-5.4,2.4-8.4
			s-0.8-5.9-2.5-8.4c-1.6-2.5-3.9-4.5-6.6-5.8v-4.8c3.9,1.4,7.4,4,9.8,7.4C774.8,628.1,776.1,632.2,776.1,636.3z"/>
		<rect x="740.1" y="634.1" class="st1" width="18" height="4.5"/>
		<path class="st1" d="M767.1,636.3c0-1.5-0.3-2.9-0.8-4.3c-0.6-1.4-1.4-2.6-2.4-3.6s-2.3-1.9-3.6-2.4c-1.4-0.6-2.8-0.8-4.3-0.8
			h-6.7v4.5h13.5V643h-13.5v4.5h6.7c1.5,0,2.9-0.3,4.3-0.8c1.4-0.6,2.6-1.4,3.6-2.4s1.9-2.3,2.4-3.6
			C766.9,639.3,767.1,637.8,767.1,636.3z"/>
	</g>
	<g>
		<path class="st1" d="M1608,636.4c0,4.7-2.9,7.8-7.4,7.8c-3.6,0-6-2.1-6.6-5.3h2.6c0.5,1.9,1.9,3.1,4.1,3.1c2.6,0,4.4-1.8,4.7-4.6
			h-5.9v-2.2h5.9c-0.4-2.7-2-4.5-4.6-4.5c-2.2,0-3.6,1.2-4.1,3.1h-2.6c0.5-3.2,3.1-5.3,6.6-5.3C1605.3,628.6,1608,631.7,1608,636.4z
			"/>
		<path class="st1" d="M1608.2,644.1v-2.2h0.4c1.6,0,2.3-1,2.3-5.6v-7.6h11.1v15.4h-2.5v-13.2h-6.2v5.5c0,5.7-1.4,7.6-4.4,7.6
			H1608.2z"/>
		<path class="st1" d="M1623.9,628.7h12v2.2h-4.8v13.2h-2.5v-13.2h-4.8V628.7z"/>
		<path class="st1" d="M1634.5,644.1l5.8-15.4h3l5.7,15.4h-2.7l-1.5-3.8h-6.3l-1.4,3.8H1634.5z M1639.2,638.1h4.9l-2.5-6.7
			L1639.2,638.1z"/>
	</g>
</g>
<g>
	<path class="st1" d="M1189.8,799.1c0,18.8-11.6,31.5-29.9,31.5c-14.3,0-24.2-8.4-26.3-21.3h10.5c2,7.6,7.6,12.5,16.4,12.5
		c10.4,0,17.5-7.3,18.8-18.6h-23.8v-8.7h23.8c-1.4-11-8-18-18.3-18c-8.8,0-14.4,4.9-16.4,12.5H1134c2.1-12.9,12.3-21.3,26.6-21.3
		C1178.9,767.6,1189.8,780.1,1189.8,799.1z"/>
	<path class="st1" d="M1190.8,830v-9h1.6c6.4,0,9.2-4.1,9.2-22.4v-30.5h44.7V830h-10.2v-52.9h-24.8v22.3c0,23.1-5.6,30.6-17.7,30.6
		H1190.8z"/>
	<path class="st1" d="M1253.7,768.2h48.4v9H1283V830h-10.2v-52.9h-19.1V768.2z"/>
	<path class="st1" d="M1296.3,830l23.2-61.9h12.1l23.1,61.9h-10.9l-5.8-15.3h-25.4l-5.7,15.3H1296.3z M1315.3,806.1h19.7l-9.9-27
		L1315.3,806.1z"/>
</g>
<g>
	<path class="st1" d="M1189.8,1315.6c0,18.8-11.6,31.5-29.9,31.5c-14.3,0-24.2-8.4-26.3-21.3h10.5c2,7.6,7.6,12.5,16.4,12.5
		c10.4,0,17.5-7.3,18.8-18.6h-23.8v-8.7h23.8c-1.4-11-8-18-18.3-18c-8.8,0-14.4,4.9-16.4,12.5H1134c2.1-12.9,12.3-21.3,26.6-21.3
		C1178.9,1284.1,1189.8,1296.6,1189.8,1315.6z"/>
	<path class="st1" d="M1190.8,1346.5v-9h1.6c6.4,0,9.2-4.1,9.2-22.4v-30.5h44.7v61.9h-10.2v-52.9h-24.8v22.3
		c0,23.1-5.6,30.6-17.7,30.6H1190.8z"/>
	<path class="st1" d="M1253.7,1284.7h48.4v9H1283v52.9h-10.2v-52.9h-19.1V1284.7z"/>
	<path class="st1" d="M1296.3,1346.5l23.2-61.9h12.1l23.1,61.9h-10.9l-5.8-15.3h-25.4l-5.7,15.3H1296.3z M1315.3,1322.6h19.7
		l-9.9-27L1315.3,1322.6z"/>
</g>
</svg>
