<?xml version="1.0" encoding="utf-8"?>
<!-- Generator: Adobe Illustrator 22.0.0, SVG Export Plug-In . SVG Version: 6.00 Build 0)  -->
<svg version="1.1" id="Layer_1" xmlns="http://www.w3.org/2000/svg" xmlns:xlink="http://www.w3.org/1999/xlink" x="0px" y="0px"
	 viewBox="0 0 2000 1400" style="enable-background:new 0 0 2000 1400;" xml:space="preserve">
<style type="text/css">
	.st0{display:none;}
	.st1{display:inline;fill:#1B1B2D;}
	.st2{display:inline;}
	.st3{fill:#FFFFFF;}
	.st4{fill:#F2F2F3;}
	.st5{opacity:0.6;}
</style>
<g id="Layer_2_1_" class="st0">
	<rect class="st1" width="2000" height="2000"/>
	<g class="st2">
		<g>
			<path class="st3" d="M584.8,976.5c0,35.9-11.1,70.9-31.9,100.3c-20.7,29.3-50.1,51.5-84,63.5v-41.7c23.2-11,42.7-28.3,56.4-49.9
				s21-46.7,20.9-72.3c0-25.6-7.3-50.7-21-72.3s-33.3-38.9-56.5-49.8v-41.7c33.9,12,63.3,34.2,84,63.5
				C573.6,905.6,584.7,940.6,584.8,976.5z"/>
			<rect x="275.5" y="957.2" class="st3" width="154.6" height="38.6"/>
			<path class="st3" d="M507.4,976.5c0-12.7-2.5-25.2-7.4-36.9s-12-22.4-20.9-31.3c-9-9-19.6-16.1-31.4-20.9
				c-11.7-4.8-24.3-7.3-37-7.3h-57.9v38.6h115.9v115.8h-116v38.6h57.9c12.7,0,25.3-2.5,37-7.3s22.4-12,31.4-20.9
				c9-9,16.1-19.6,21-31.3C504.9,1001.8,507.4,989.2,507.4,976.5z"/>
		</g>
		<g>
			<g>
				<path class="st3" d="M925.5,1125.6c-22,0-41.8-4.4-59.3-13.3c-17.6-8.8-32.1-20.8-43.6-36c-11.5-15.1-19.3-32-23.3-50.5h44.2
					c3.8,11.5,9.4,21.7,17.1,30.6c7.6,8.8,17,15.8,28.1,20.7c11.1,5,23.4,7.4,36.8,7.4c15.8,0,30.3-3.7,43.4-11.1
					c13.1-7.4,23.7-17.6,31.8-30.6c8-13,12.9-27.4,14.5-43.2H891.7v-39h123.4c-1.6-15.5-6.4-29.7-14.5-42.4
					c-8-12.7-18.6-22.8-31.8-30.2c-13.1-7.4-27.6-11.1-43.4-11.1c-19.8,0-37,5.3-51.5,15.9c-14.5,10.6-24.7,24.2-30.6,40.8h-44.2
					c4.8-18,13.1-34.4,24.7-49.3c11.7-14.9,26.2-26.7,43.6-35.4c17.4-8.7,36.7-13.1,57.9-13.1c24.7,0,47.4,6.2,68.2,18.5
					s37.1,29.5,49.1,51.5c11.9,22,17.9,46.9,17.9,74.8c0,27.9-6,52.8-17.9,74.8s-28.3,39.1-49.1,51.5
					C972.8,1119.5,950.1,1125.6,925.5,1125.6z"/>
				<path class="st3" d="M1082.7,1124v-39h10.9c7.8,0,14-2.3,18.7-6.8c4.7-4.6,7.4-11.9,8.2-22.1l11.3-136.7h143.9v202.2h-40.2
					V956.8h-66.3l-9.2,103.3c-1.9,21.4-7.8,37.5-17.9,48c-10.1,10.6-24.9,15.9-44.4,15.9H1082.7z"/>
				<path class="st3" d="M1368.9,1121.6V956.8h-66.3v-37.4h173.3v37.4h-66.3v164.8H1368.9z"/>
				<path class="st3" d="M1565.5,1125.6c-14.5,0-27.1-2.8-38-8.2c-10.9-5.5-19.2-12.9-25.1-22.3s-8.8-20.1-8.8-32.2
					c0-13.1,2.9-24.5,8.8-34.2c5.9-9.6,14.9-17.2,27.1-22.7s27.4-8.2,45.6-8.2h51.5v-5.2c0-13.1-3.8-23.5-11.5-31.2
					c-7.6-7.6-18-11.5-31.2-11.5c-12.3,0-22.3,2.8-30,8.4c-7.6,5.6-12.1,12.5-13.5,20.5h-40.2c1.1-11,5-21.4,11.7-31.2
					s16.2-17.6,28.5-23.5s26.8-8.8,43.4-8.8c16.9,0,31.6,3.2,44,9.4c12.5,6.3,22,15.3,28.7,26.9c6.7,11.7,10.1,25.3,10.1,40.8v129.1
					h-35l-4-22.1h-2c-4.6,6.7-12.2,12.7-22.9,18.1C1592.2,1123,1579.7,1125.6,1565.5,1125.6z M1570,1091.1c11.5,0,21.6-2.2,30.2-6.6
					s15.1-10.7,19.7-18.9c4.6-8.2,6.8-17.8,6.8-28.7v-6.8H1578c-15,0-26.1,2.9-33.2,8.6c-7.1,5.8-10.7,13.3-10.7,22.7
					c0,8.8,3.1,16,9.2,21.5C1549.6,1088.3,1558.4,1091.1,1570,1091.1z"/>
			</g>
		</g>
	</g>
</g>
<rect class="st4" width="2000" height="1400"/>
<g>
	<g>
		<g>
			<path d="M533.6,700c0,34.8-10.9,68.9-31,97.2c-20.1,28.4-48.5,49.9-81.4,61.8v-40.5c22.5-10.6,41.4-27.4,54.7-48.5
				c13.2-21.1,20.3-45.4,20.3-70.3s-7.1-49.2-20.3-70c-13.2-21.1-32.4-37.9-54.9-48.3V541c32.9,11.6,61.5,33.1,81.6,61.5
				C522.9,631.1,533.6,665.2,533.6,700z"/>
			<rect x="233.6" y="681.3" width="150" height="37.4"/>
			<path d="M458.6,700c0-12.3-2.4-24.4-7.1-36c-4.7-11.4-11.6-21.8-20.3-30.3c-8.8-8.8-19.2-15.6-30.5-20.3
				c-11.4-4.7-23.7-7.1-36-7.1h-56.1v37.4H421v112.4H308.6v37.4h56.3c12.3,0,24.6-2.4,36-7.1c11.4-4.7,21.8-11.6,30.5-20.3
				c8.8-8.8,15.6-18.9,20.3-30.3C456.2,724.4,458.6,712.3,458.6,700z"/>
		</g>
	</g>
	<g>
		<g>
			<path d="M748.1,577.2c0,19.4-11.9,32.5-30.8,32.5c-14.8,0-25-8.7-27.2-22H701c2.1,7.8,7.8,12.9,16.9,12.9
				c10.8,0,18-7.6,19.4-19.1h-24.5v-8.9h24.5c-1.5-11.3-8.3-18.6-18.9-18.6c-9.1,0-14.9,5-17,12.9h-10.8c2.2-13.3,12.7-22,27.4-22
				C736.8,544.7,748.1,557.6,748.1,577.2z"/>
			<path d="M749.1,609.1v-9.3h1.6c6.6,0,9.5-4.2,9.5-23.1v-31.5h46.1v63.8h-10.5v-54.5h-25.6v23c0,23.8-5.7,31.5-18.2,31.5H749.1z"
				/>
			<path d="M814,545.3h49.9v9.3h-19.7v54.5h-10.5v-54.5H814V545.3z"/>
			<path d="M857.9,609.1l23.9-63.8h12.5l23.8,63.8h-11.2l-6-15.8h-26.2l-5.9,15.8H857.9z M877.6,584.4h20.3l-10.2-27.8L877.6,584.4z
				"/>
			<path d="M691.7,700.9V656h5.6v19.5h8.3l14.8-19.5h6.5l-16.5,21.7l17.5,23.2H721l-15.5-20.3h-8.3v20.3H691.7z"/>
			<path d="M750.2,701.3c-12.6,0-21.4-9.6-21.4-22.8s8.8-22.8,21.4-22.8s21.4,9.6,21.4,22.8S762.8,701.3,750.2,701.3z M750.2,696.2
				c9.4,0,15.7-7.4,15.7-17.7c0-10.3-6.4-17.7-15.7-17.7s-15.7,7.4-15.7,17.7C734.5,688.8,740.8,696.2,750.2,696.2z"/>
			<path d="M778.7,656h7.1l15.9,37.3l15.7-37.3h6.9v44.9h-5.5v-35.4L804,700.9H799l-14.9-35.4v35.4h-5.5V656z"/>
			<path d="M833,700.9V656h34.1v44.9h-5.6v-39.8h-22.9v39.8H833z"/>
			<path d="M872,700.9v-5.1h1.1c4.9,0,7.1-3.1,7.1-17.7V656h31.2v44.9h-5.6v-39.8h-20.2v17.4c0,17.3-3.7,22.4-11.9,22.4H872z"/>
			<path d="M920.1,656h28.6v5.1h-23v14.4h19.2v5.1h-19.2v15.1h23.9v5.1h-29.4V656z"/>
			<path d="M955.9,700.9V656h5.6v19.5h8.3l14.8-19.5h6.5l-16.5,21.7l17.5,23.2h-6.8l-15.5-20.3h-8.3v20.3H955.9z"/>
			<path d="M993,678.5c0-13.6,8.4-22.8,21.4-22.8c9.9,0,17.2,5.8,18.9,15.1h-5.9c-1.7-6.2-6.5-9.9-13.2-9.9
				c-9.4,0-15.5,7.3-15.5,17.7c0,10.3,5.8,17.7,15.2,17.7c6.9,0,11.7-3.7,13.4-9.9h5.9c-1.7,9.3-9.1,15.1-19.2,15.1
				C1001,701.3,993,692.2,993,678.5z"/>
			<path d="M1039.9,656h5.6v19.5h23.2V656h5.6v44.9h-5.6v-20.3h-23.2v20.3h-5.6V656z"/>
			<path d="M1102.8,701.3c-12.6,0-21.4-9.6-21.4-22.8s8.8-22.8,21.4-22.8c12.6,0,21.4,9.6,21.4,22.8S1115.4,701.3,1102.8,701.3z
				 M1102.8,696.2c9.4,0,15.7-7.4,15.7-17.7c0-10.3-6.4-17.7-15.7-17.7c-9.4,0-15.7,7.4-15.7,17.7
				C1087.1,688.8,1093.4,696.2,1102.8,696.2z"/>
			<path d="M1131.3,656h28.6v5.1h-23v14.4h19.2v5.1h-19.2v15.1h23.9v5.1h-29.4V656z"/>
			<path d="M1183.8,700.9V656h34.1v44.9h-5.6v-39.8h-22.9v39.8H1183.8z"/>
			<path d="M1226.6,656h17.3c9,0,14.9,5.4,14.9,13.8s-5.9,13.9-14.9,13.9h-11.7v17.3h-5.6V656z M1232.2,661.1v17.4h11.2
				c5.9,0,9.7-3.4,9.7-8.7s-3.7-8.7-9.6-8.7H1232.2z"/>
			<path d="M1284.5,701.3c-12.6,0-21.4-9.6-21.4-22.8s8.8-22.8,21.4-22.8s21.4,9.6,21.4,22.8S1297.1,701.3,1284.5,701.3z
				 M1284.5,696.2c9.4,0,15.7-7.4,15.7-17.7c0-10.3-6.4-17.7-15.7-17.7s-15.7,7.4-15.7,17.7C1268.8,688.8,1275.1,696.2,1284.5,696.2
				z"/>
			<path d="M1313,656h28.6v5.1h-23v14.4h19.2v5.1h-19.2v15.1h23.9v5.1H1313V656z"/>
			<path d="M1348.7,700.9V656h5.6v19.5h8.3l14.8-19.5h6.5l-16.5,21.7l17.5,23.2h-6.8l-15.5-20.3h-8.3v20.3H1348.7z"/>
			<path d="M1386,656h34.7v5.1h-14.6v39.8h-5.6v-39.8H1386V656z"/>
			<path d="M1426.3,700.9V656h5.6v35.6L1456,656h5.2v44.9h-5.6v-35.6l-24.1,35.6H1426.3z"/>
			<path d="M1469.9,656h17.3c9,0,14.9,5.4,14.9,13.8s-5.9,13.9-14.9,13.9h-11.7v17.3h-5.6V656z M1475.5,661.1v17.4h11.2
				c5.9,0,9.7-3.4,9.7-8.7s-3.7-8.7-9.6-8.7H1475.5z"/>
			<path d="M1527.8,701.3c-12.6,0-21.4-9.6-21.4-22.8s8.8-22.8,21.4-22.8c12.6,0,21.4,9.6,21.4,22.8S1540.4,701.3,1527.8,701.3z
				 M1527.8,696.2c9.4,0,15.7-7.4,15.7-17.7c0-10.3-6.4-17.7-15.7-17.7c-9.4,0-15.7,7.4-15.7,17.7
				C1512,688.8,1518.4,696.2,1527.8,696.2z"/>
			<path d="M1556.2,656h15.9c9.6,0,14.9,4.6,14.9,11.9c0,5.1-2.8,8.3-7.1,9.8c4.7,0.9,8.9,4,8.9,10.5c0,8-5.6,12.8-16.3,12.8h-16.4
				V656z M1561.8,661.1v14.4h10.6c5.8,0,9-2.7,9-7.2c0-4.5-3.2-7.2-9-7.2H1561.8z M1561.8,680.5v15.3h10.8c6.9,0,10.6-2.9,10.6-7.5
				c0-5.1-3.9-7.8-10.6-7.8H1561.8z"/>
			<path d="M1590.8,700.9l17.1-44.9h6.6l17.1,44.9h-6l-4.7-12.1h-19.6l-4.7,12.1H1590.8z M1603,683.7h16.2l-8.1-21.6L1603,683.7z"/>
			<path d="M1636.7,656h5.6v19.5h23.2V656h5.6v44.9h-5.6v-20.3h-23.2v20.3h-5.6V656z"/>
			<path d="M1679.8,700.9V656h5.6v35.6l24.1-35.6h5.2v44.9h-5.6v-35.6l-24.1,35.6H1679.8z"/>
			<path d="M1723.4,656h28.6v5.1h-23v14.4h19.2v5.1h-19.2v15.1h23.9v5.1h-29.4V656z"/>
			<path d="M1766.4,700.7c0,5.5-3.4,8.7-9,8.9v-3c4.1-0.1,5.4-3,5.4-5.1c0-0.3,0-0.6-0.1-0.8c-0.5,0.5-1.4,0.8-2.2,0.8
				c-1.9,0-3.4-1.2-3.4-3.5c0-2.1,1.5-3.7,4.2-3.7C1764.5,694.2,1766.4,697.2,1766.4,700.7z"/>
			<path d="M691.7,733h7.1l15.9,37.3l15.7-37.3h6.9v44.9h-5.5v-35.4L717,777.9H712l-14.9-35.4v35.4h-5.5V733z"/>
			<path d="M765.8,778.3c-12.6,0-21.4-9.6-21.4-22.8c0-13.2,8.8-22.8,21.4-22.8s21.4,9.6,21.4,22.8
				C787.2,768.7,778.4,778.3,765.8,778.3z M765.8,773.1c9.4,0,15.7-7.4,15.7-17.7c0-10.3-6.4-17.7-15.7-17.7s-15.7,7.4-15.7,17.7
				C750.1,765.8,756.4,773.1,765.8,773.1z"/>
			<path d="M794.3,733h5.6v19.5h23.2V733h5.6v44.9h-5.6v-20.3h-23.2v20.3h-5.6V733z"/>
			<path d="M834.3,733H869v5.1h-14.6v39.8h-5.6v-39.8h-14.6V733z"/>
			<path d="M864.8,777.9L882,733h6.6l17.1,44.9h-6l-4.7-12.1h-19.6l-4.7,12.1H864.8z M877,760.7h16.2l-8.1-21.6L877,760.7z"/>
			<path d="M907.5,777.9l16.4-23.1L908.5,733h6.4l13.9,19.6h6.7V733h5.6v19.6h6.7l13.9-19.6h6.4l-15.3,21.8l16.3,23.1h-6.7
				l-14.2-20.2H941v20.2h-5.6v-20.2h-6.9l-14.3,20.2H907.5z"/>
			<path d="M991,777.9V733h5.6v35.6l24.1-35.6h5.2v44.9h-5.6v-35.6l-24.1,35.6H991z"/>
			<path d="M1071.1,778.3c-12.6,0-21.4-9.6-21.4-22.8c0-13.2,8.8-22.8,21.4-22.8s21.4,9.6,21.4,22.8
				C1092.5,768.7,1083.7,778.3,1071.1,778.3z M1071.1,773.1c9.4,0,15.7-7.4,15.7-17.7c0-10.3-6.4-17.7-15.7-17.7
				s-15.7,7.4-15.7,17.7C1055.4,765.8,1061.7,773.1,1071.1,773.1z"/>
			<path d="M1099.6,777.9V733h27.7v5.1h-22.1v13.2h12c8.6,0,14.4,4.4,14.4,13.2c0,8.4-5.8,13.3-14.4,13.3H1099.6z M1105.2,772.8
				h11.5c5.6,0,9.2-3.1,9.2-8.1c0-5-3.6-8.1-9.2-8.1h-11.5V772.8z"/>
			<path d="M1135.9,755.4c0-13.6,8.4-22.8,21.4-22.8c9.9,0,17.2,5.8,18.9,15.1h-5.9c-1.7-6.2-6.5-9.9-13.2-9.9
				c-9.4,0-15.5,7.3-15.5,17.7c0,10.3,5.8,17.7,15.2,17.7c6.9,0,11.7-3.7,13.4-9.9h5.9c-1.7,9.3-9.1,15.1-19.2,15.1
				C1144,778.3,1135.9,769.2,1135.9,755.4z"/>
			<path d="M1178,777.9v-5.1h1.1c4.9,0,7.1-3.1,7.1-17.7V733h31.2v44.9h-5.6v-39.8h-20.2v17.4c0,17.3-3.7,22.4-11.9,22.4H1178z"/>
			<path d="M1227.5,777.9v-5.1h4c3.7,0,5-0.6,6.7-4.2l1.4-3.1l-17.3-32.5h6.4l13.9,26.5l11.9-26.5h6l-17.2,37
				c-2.8,6.2-5.7,7.9-10.3,7.9H1227.5z"/>
			<path d="M1261.6,777.9l16.4-23.1l-15.3-21.8h6.4l13.9,19.6h6.7V733h5.6v19.6h6.7l13.9-19.6h6.4l-15.3,21.8l16.3,23.1h-6.7
				l-14.2-20.2h-6.9v20.2h-5.6v-20.2h-6.9l-14.3,20.2H1261.6z"/>
			<path d="M1328.3,777.9V733h5.6v35.6l24.1-35.6h5.2v44.9h-5.6v-35.6l-24.1,35.6H1328.3z"/>
			<path d="M1371.9,733h15.9c9.6,0,14.9,4.6,14.9,11.9c0,5.1-2.8,8.3-7.1,9.8c4.7,0.9,8.9,4,8.9,10.5c0,8-5.6,12.8-16.3,12.8h-16.4
				V733z M1377.4,738.1v14.4h10.6c5.8,0,9-2.7,9-7.2c0-4.5-3.2-7.2-9-7.2H1377.4z M1377.4,757.5v15.3h10.8c6.9,0,10.6-2.9,10.6-7.5
				c0-5.1-3.9-7.8-10.6-7.8H1377.4z"/>
			<path d="M1406.4,777.9l17.1-44.9h6.6l17.1,44.9h-6l-4.7-12.1H1417l-4.7,12.1H1406.4z M1418.6,760.7h16.2l-8.1-21.6L1418.6,760.7z
				"/>
			<path d="M1452.3,733h5.6v19.5h23.2V733h5.6v44.9h-5.6v-20.3h-23.2v20.3h-5.6V733z"/>
			<path d="M1495.4,777.9V733h5.6v35.6l24.1-35.6h5.2v44.9h-5.6v-35.6l-24.1,35.6H1495.4z"/>
			<path d="M1539,733h28.6v5.1h-23v14.4h19.2v5.1h-19.2v15.1h23.9v5.1H1539V733z"/>
			<path d="M691.7,854.9V810h5.6v35.6l24.1-35.6h5.2v44.9h-5.6v-35.6l-24.1,35.6H691.7z"/>
			<path d="M735.2,810h5.6v19.5H764V810h5.6v44.9H764v-20.3h-23.2v20.3h-5.6V810z"/>
			<path d="M775,854.9l16.4-23.1L776,810h6.4l13.9,19.6h6.7V810h5.6v19.6h6.7L829,810h6.4L820,831.8l16.3,23.1h-6.7l-14.2-20.2h-6.9
				v20.2h-5.6v-20.2H796l-14.3,20.2H775z"/>
			<path d="M841.6,810h28.6v5.1h-23v14.4h19.2v5.1h-19.2v15.1h23.9v5.1h-29.4V810z"/>
			<path d="M877.3,810h5.6v19.5h23.2V810h5.6v44.9h-5.6v-20.3h-23.2v20.3h-5.6V810z"/>
			<path d="M920.5,810h28.6v5.1h-23v14.4h19.2v5.1H926v15.1h23.9v5.1h-29.4V810z"/>
			<path d="M956.2,810h17.3c9,0,14.9,5.4,14.9,13.8s-5.9,13.9-14.9,13.9h-11.7v17.3h-5.6V810z M961.8,815.1v17.4h11.2
				c5.9,0,9.7-3.4,9.7-8.7c0-5.3-3.7-8.7-9.6-8.7H961.8z"/>
			<path d="M994.3,810h5.6v19.5h23.2V810h5.6v44.9h-5.6v-20.3h-23.2v20.3h-5.6V810z"/>
			<path d="M1037.4,854.9V810h5.6v17.2h11.2c8.9,0,14.8,5.8,14.8,13.9c0,8-5.9,13.9-14.8,13.9H1037.4z M1043,849.7h10.8
				c5.8,0,9.6-3.5,9.6-8.7s-3.8-8.7-9.6-8.7H1043V849.7z M1074.8,854.9V810h5.6v44.9H1074.8z"/>
			<path d="M1100.9,831.8l-14.2-21.9h6.5l11.2,17.4l11.2-17.4h6.4l-14.2,21.5l15.1,23.4h-6.6l-12.2-18.8l-12.1,18.8h-6.5
				L1100.9,831.8z"/>
			<path d="M1143.5,832.4c0-13.6,8.4-22.8,21.4-22.8c9.9,0,17.2,5.8,18.9,15.1h-5.9c-1.7-6.2-6.5-9.9-13.2-9.9
				c-9.4,0-15.5,7.3-15.5,17.7c0,10.3,5.8,17.7,15.2,17.7c6.9,0,11.7-3.7,13.4-9.9h5.9c-1.7,9.3-9.1,15.1-19.2,15.1
				C1151.6,855.3,1143.5,846.2,1143.5,832.4z"/>
			<path d="M1190.5,854.9V810h5.6v35.6l24.1-35.6h5.2v44.9h-5.6v-35.6l-24.1,35.6H1190.5z"/>
			<path d="M1232.4,832.4c0-13.6,8.4-22.8,21.4-22.8c9.9,0,17.2,5.8,18.9,15.1h-5.9c-1.7-6.2-6.5-9.9-13.2-9.9
				c-9.4,0-15.5,7.3-15.5,17.7c0,10.3,5.8,17.7,15.2,17.7c6.9,0,11.7-3.7,13.4-9.9h5.9c-1.7,9.3-9.1,15.1-19.2,15.1
				C1240.5,855.3,1232.4,846.2,1232.4,832.4z"/>
			<path d="M1274,810h34.7v5.1h-14.6v39.8h-5.6v-39.8H1274V810z"/>
			<path d="M1314.4,810h28.6v5.1h-23v14.4h19.2v5.1H1320v15.1h23.9v5.1h-29.4V810z"/>
			<path d="M1350.1,810h7.1l15.9,37.3l15.7-37.3h6.9v44.9h-5.5v-35.4l-14.9,35.4h-4.9l-14.9-35.4v35.4h-5.5V810z"/>
		</g>
	</g>
	<g class="st5">
		<g>
			<rect x="624.4" y="541" width="1" height="318"/>
		</g>
	</g>
</g>
</svg>
