<?xml version="1.0" encoding="utf-8"?>
<!-- Generator: Adobe Illustrator 22.0.0, SVG Export Plug-In . SVG Version: 6.00 Build 0)  -->
<svg version="1.1" id="Layer_1" xmlns="http://www.w3.org/2000/svg" xmlns:xlink="http://www.w3.org/1999/xlink" x="0px" y="0px"
	 viewBox="0 0 1600 1163.6" style="enable-background:new 0 0 1600 1163.6;" xml:space="preserve">
<style type="text/css">
	.st0{fill:#D1D1D5;}
	.st1{fill:#1B1B2D;}
	.st2{fill:#FFFFFF;}
</style>
<rect class="st0" width="1600" height="1163.6"/>
<g>
	<path class="st1" d="M263,228.9l13.6-35.7h5.3l13.6,35.7h-4.7l-3.8-9.6h-15.6l-3.8,9.6H263z M272.7,215.3h12.9l-6.5-17.2
		L272.7,215.3z"/>
	<path class="st1" d="M299.5,228.9v-35.7h22v4.1h-17.6v10.5h9.5c6.8,0,11.5,3.5,11.5,10.5c0,6.7-4.6,10.6-11.4,10.6H299.5z
		 M303.9,224.9h9.2c4.5,0,7.3-2.5,7.3-6.5c0-4-2.9-6.5-7.4-6.5h-9.1V224.9z"/>
	<path class="st1" d="M330,193.2h12.7c7.6,0,11.8,3.7,11.8,9.4c0,4.1-2.2,6.6-5.6,7.8c3.8,0.7,7.1,3.2,7.1,8.3
		c0,6.3-4.5,10.2-13,10.2h-13V193.2z M334.5,197.2v11.5h8.4c4.6,0,7.2-2.1,7.2-5.8c0-3.6-2.6-5.7-7.2-5.7H334.5z M334.5,212.7v12.2
		h8.6c5.5,0,8.4-2.3,8.4-6c0-4-3.1-6.2-8.4-6.2H334.5z"/>
	<path class="st1" d="M361.6,228.9v-35.7h20.9v4.1H366v31.7H361.6z"/>
	<path class="st1" d="M413.2,224.9h4.4v11.4h-4.4v-7.3h-27.3v7.3h-4.4v-11.4h3.4c2.4-2.1,3.8-5.5,3.8-15.9v-15.7h24.7V224.9z
		 M408.8,224.9V197h-16v12.5c0,8.3-0.9,12.5-2.8,15.4H408.8z"/>
	<path class="st1" d="M422.2,193.2h22.8v4.1h-18.3v11.4h15.3v4.1h-15.3v12h19v4.1h-23.4V193.2z"/>
	<path class="st1" d="M450.6,193.2h22.8v4.1H455v11.4h15.3v4.1H455v12h19v4.1h-23.4V193.2z M457.5,183.9c1.6,0,2.7,1.1,2.7,2.7
		c0,1.5-1.1,2.6-2.7,2.6c-1.5,0-2.7-1.1-2.7-2.6C454.8,185,456,183.9,457.5,183.9z M466.8,183.9c1.5,0,2.7,1.1,2.7,2.7
		c0,1.5-1.1,2.6-2.7,2.6c-1.5,0-2.7-1.1-2.7-2.6C464.1,185,465.3,183.9,466.8,183.9z"/>
	<path class="st1" d="M476.3,228.9l13-18.4l-12.2-17.4h5.1l11,15.6h5.3v-15.6h4.4v15.6h5.3l11-15.6h5.1l-12.2,17.4l13,18.4h-5.4
		l-11.3-16.1H503v16.1h-4.4v-16.1h-5.5l-11.4,16.1H476.3z"/>
	<path class="st1" d="M526.5,218.2h4.5c0.3,4.7,3.7,6.9,8.9,6.9c5.4,0,8.5-2.3,8.5-6.4c0-4.1-2.9-6.1-8.4-6.1h-3.6v-3.7h3.3
		c5.4,0,7.8-2.2,7.8-6.1c0-3.8-3.1-5.8-7.7-5.8c-5,0-8.2,2.5-8.4,6.5H527c0.3-6.3,5.5-10.6,12.9-10.6c7.7,0,12.3,3.8,12.3,9.4
		c0,4.7-2.3,7.2-5.8,8.1c3.4,0.8,6.7,3.1,6.7,8.6c0,6.1-5.3,10.2-13.3,10.2C531.4,229.3,526.7,225.3,526.5,218.2z"/>
	<path class="st1" d="M558.6,228.9v-35.7h4.4v28.3l19.1-28.3h4.1v35.7h-4.4v-28.3l-19.1,28.3H558.6z"/>
	<path class="st1" d="M593.3,228.9v-35.7h4.4v28.3l19.1-28.3h4.1v35.7h-4.4v-28.3l-19.1,28.3H593.3z M599.7,183.2h3.5
		c0,2.5,1.1,4,4,4s4.1-1.5,4.1-4h3.5c-0.1,4.3-2.7,7-7.7,7C602.2,190.2,599.8,187.5,599.7,183.2z"/>
	<path class="st1" d="M627.9,228.9v-35.7h4.4v15.5h6.6l11.7-15.5h5.2l-13.1,17.3l13.9,18.4h-5.4L639,212.8h-6.6v16.1H627.9z"/>
	<path class="st1" d="M658.3,228.9v-4.1h0.9c3.9,0,5.7-2.5,5.7-14.1v-17.6h24.8v35.7h-4.4v-31.7h-16.1v13.8c0,13.7-3,17.8-9.4,17.8
		H658.3z"/>
	<path class="st1" d="M696.6,193.2h5.6l12.7,29.7l12.5-29.7h5.5v35.7h-4.3v-28.2l-11.8,28.2h-3.9l-11.8-28.2v28.2h-4.3V193.2z"/>
	<path class="st1" d="M265.9,242.9h4.4v15.5h18.5v-15.5h4.4v35.7h-4.4v-16.1h-18.5v16.1h-4.4V242.9z"/>
	<path class="st1" d="M315.9,279c-10.1,0-17.1-7.7-17.1-18.2s7-18.2,17.1-18.2c10.1,0,17.1,7.7,17.1,18.2S326,279,315.9,279z
		 M315.9,274.9c7.5,0,12.5-5.9,12.5-14.1c0-8.2-5.1-14.1-12.5-14.1c-7.5,0-12.5,5.9-12.5,14.1C303.4,269,308.5,274.9,315.9,274.9z"
		/>
	<path class="st1" d="M338.6,278.7v-35.7h27.1v35.7h-4.4V247H343v31.7H338.6z"/>
	<path class="st1" d="M372.6,242.9h13.7c7.1,0,11.8,4.3,11.8,11s-4.7,11-11.8,11h-9.3v13.7h-4.4V242.9z M377.1,247v13.8h8.9
		c4.7,0,7.7-2.7,7.7-6.9c0-4.2-3-6.9-7.7-6.9H377.1z"/>
	<path class="st1" d="M401.6,260.8c0-10.8,6.7-18.2,17.1-18.2c7.9,0,13.7,4.6,15,12H429c-1.4-5-5.2-7.9-10.5-7.9
		c-7.5,0-12.3,5.8-12.3,14.1c0,8.2,4.6,14.1,12.1,14.1c5.5,0,9.3-2.9,10.7-7.9h4.7c-1.3,7.4-7.3,12-15.3,12
		C408.1,279,401.6,271.7,401.6,260.8z"/>
	<path class="st1" d="M434.8,242.9h27.6v4.1h-11.6v31.7h-4.4V247h-11.6V242.9z"/>
	<path class="st1" d="M468,278.7v-4.1h3.2c2.9,0,4-0.5,5.3-3.4l1.1-2.5l-13.8-25.8h5.1l11,21.1l9.4-21.1h4.8l-13.7,29.5
		c-2.2,4.9-4.5,6.3-8.2,6.3H468z"/>
	<path class="st1" d="M517.3,276.4v4.3H513v-4.3c-11-0.4-18-6.1-18-15.6c0-9.4,6.9-15.2,18-15.6v-4.3h4.3v4.3c11,0.4,18,6.1,18,15.6
		C535.3,270.2,528.4,275.9,517.3,276.4z M513,272.4v-23.3c-8.7,0.3-13.6,4.6-13.6,11.6C499.4,267.8,504.2,272.1,513,272.4z
		 M517.3,272.4c8.7-0.4,13.6-4.6,13.6-11.6s-4.8-11.3-13.6-11.6V272.4z"/>
	<path class="st1" d="M547.9,260.3l-11.3-17.4h5.2l8.9,13.8l8.9-13.8h5.1L553.5,260l12,18.6h-5.3l-9.7-15l-9.6,15h-5.2L547.9,260.3z
		"/>
	<path class="st1" d="M596.9,274.6h4.4V286h-4.4v-7.3h-27.1v-35.7h4.4v31.7h18.2v-31.7h4.4V274.6z"/>
	<path class="st1" d="M625,242.9h4.4v35.7H625v-15.3c-2.5,1.5-5.8,2.3-9.6,2.3c-7.1,0-12.3-3.5-12.3-11.1v-11.6h4.4v10.8
		c0,5.5,3.3,7.9,8.3,7.9c3.7,0,6.7-1,9.1-2.7V242.9z"/>
	<path class="st1" d="M636.4,278.7v-35.7h4.4v31.7h15.1v-31.7h4.4v31.7h15.1v-31.7h4.4v35.7H636.4z"/>
	<path class="st1" d="M730.2,274.6h4.4V286h-4.4v-7.3h-43.4v-35.7h4.4v31.7h15.1v-31.7h4.4v31.7h15.1v-31.7h4.4V274.6z"/>
	<path class="st1" d="M273.9,328.4v-32h-10.5v-3.8h14.9v13.7h9.4c7.1,0,11.8,4.6,11.8,11c0,6.4-4.7,11-11.8,11H273.9z M278.4,324.3
		h9.1c4.6,0,7.6-2.8,7.6-6.9c0-4.2-3-6.9-7.7-6.9h-9V324.3z"/>
	<path class="st1" d="M304.6,328.4v-35.7h4.4v13.7h8.9c7.1,0,11.8,4.6,11.8,11c0,6.4-4.7,11-11.8,11H304.6z M309,324.3h8.6
		c4.6,0,7.6-2.8,7.6-6.9c0-4.2-3-6.9-7.7-6.9H309V324.3z M334.4,328.4v-35.7h4.4v35.7H334.4z"/>
	<path class="st1" d="M345.7,328.4v-35.7h4.4v13.7h9.4c7.1,0,11.8,4.6,11.8,11c0,6.4-4.7,11-11.8,11H345.7z M350.2,324.3h9.1
		c4.6,0,7.6-2.8,7.6-6.9c0-4.2-3-6.9-7.7-6.9h-9V324.3z"/>
	<path class="st1" d="M407,310.5c0,10.8-6.7,18.2-17.1,18.2c-8.1,0-13.8-4.6-15.1-12h4.7c1.4,5,5,7.9,10.6,7.9
		c6.9,0,11.5-5,12.2-12.2h-14.8v-4.1h14.8c-0.7-7-5-11.9-11.8-11.9c-5.5,0-9.2,2.9-10.5,7.9h-4.7c1.3-7.4,7.1-12,15.1-12
		C400.6,292.3,407,299.6,407,310.5z"/>
	<path class="st1" d="M457,310.5c0,10.5-6.9,18.2-16.8,18.2c-9.3,0-16-6.8-16.8-16.3H417v16h-4.4v-35.7h4.4v15.6h6.4
		c0.9-9.3,7.5-15.9,16.7-15.9C450.1,292.3,457,300,457,310.5z M452.4,310.5c0-8.2-5-14.1-12.3-14.1s-12.3,5.9-12.3,14.1
		c0,8.2,5,14.1,12.3,14.1S452.4,318.7,452.4,310.5z"/>
	<path class="st1" d="M487.1,292.6v35.7h-4.4v-13.7h-8.6l-8.4,13.7h-5.2l8.8-14.3c-5.5-1.2-8.4-5.2-8.4-10.6c0-6.4,4.9-10.9,12-10.9
		H487.1z M482.7,310.6v-13.8h-9.3c-4.7,0-7.8,2.7-7.8,6.9c0,4.2,3,6.9,7.8,6.9H482.7z"/>
</g>
<g>
	<path class="st2" d="M84.8,89h16.5v3H88.1v8.3h11.1v3H88.1v8.7h13.8v3h-17V89z"/>
	<path class="st2" d="M104.5,114.9V89h3.2v22.9h11.8v3H104.5z"/>
	<path class="st2" d="M116.4,89h20v3H128v22.9h-3.2V92h-8.4V89z"/>
	<path class="st2" d="M133.1,114.9L143,89h3.8l9.8,25.9h-3.4l-2.7-7h-11.3l-2.7,7H133.1z M140.1,105h9.4l-4.7-12.5L140.1,105z"/>
	<path class="st2" d="M169.7,106.4c0.3,3.5,3,5.8,6.9,5.8c3.5,0,6-1.6,6-4.4c0-3.2-3.2-3.9-7.1-4.5c-4.2-0.7-8.5-2.1-8.5-7.1
		c0-4.4,3.6-7.4,8.8-7.4c5.8,0,9.3,3.2,9.6,7.9h-3.3c-0.4-3-2.8-5-6.3-5c-3.4,0-5.6,1.5-5.6,4.3c0,3.1,3.1,3.7,7,4.4
		c4.2,0.7,8.5,2.1,8.5,7.1c0,4.5-3.8,7.6-9.2,7.6c-6.3,0-10-3.6-10.2-8.7H169.7z"/>
	<path class="st2" d="M185.9,114.9l9.9-25.9h3.8l9.8,25.9H206l-2.7-7h-11.3l-2.7,7H185.9z M192.9,105h9.4l-4.7-12.5L192.9,105z"/>
	<path class="st2" d="M211.4,114.9V89h3l13.9,20V89h3.1v25.9h-3l-13.9-20v20H211.4z"/>
	<path class="st2" d="M237.8,106.4c0.3,3.5,3,5.8,6.9,5.8c3.5,0,6-1.6,6-4.4c0-3.2-3.2-3.9-7.1-4.5c-4.2-0.7-8.5-2.1-8.5-7.1
		c0-4.4,3.6-7.4,8.8-7.4c5.8,0,9.3,3.2,9.6,7.9h-3.3c-0.4-3-2.8-5-6.3-5c-3.4,0-5.6,1.5-5.6,4.3c0,3.1,3.1,3.7,7,4.4
		c4.2,0.7,8.5,2.1,8.5,7.1c0,4.5-3.8,7.6-9.2,7.6c-6.3,0-10-3.6-10.2-8.7H237.8z"/>
	<path class="st1" d="M84.8,122.1h9.9c5.2,0,8.6,3.1,8.6,7.9c0,3.6-2.2,6.4-5.5,7.4l5.8,10.6H100l-5.5-9.9h-6.5v9.9h-3.2V122.1z
		 M88.1,125.1v10h6.4c3.4,0,5.6-2,5.6-5s-2.2-5-5.5-5H88.1z"/>
	<path class="st1" d="M106.5,122.1H123v3h-13.3v8.3h11.1v3h-11.1v8.7h13.8v3h-17V122.1z"/>
	<path class="st1" d="M124.4,135.1c0-7.8,4.8-13.2,12.3-13.2c5.7,0,10.1,3.3,10.9,8.7h-3.4c-0.9-3.6-3.7-5.7-7.6-5.7
		c-5.4,0-9,4.2-9,10.2c0,6,3.5,10.2,8.9,10.2c4.8,0,8.2-2.8,8.2-7.4V137H137v-3h10.9v14h-2.8l-0.2-3.8c-1.2,1.9-4,4-8.4,4
		C129.4,148.2,124.4,142.9,124.4,135.1z"/>
	<path class="st1" d="M151.9,122.1h3.2v15c0,5.4,2.1,8.1,6.6,8.1c4.5,0,6.7-2.8,6.7-8.1v-15h3.2V137c0,7.4-3.4,11.3-9.9,11.3
		s-9.8-3.9-9.8-11.3V122.1z"/>
	<path class="st1" d="M175.6,148v-25.9h3.2v22.9h11.8v3H175.6z"/>
	<path class="st1" d="M191.1,148l9.9-25.9h3.8l9.8,25.9h-3.4l-2.7-7h-11.3l-2.7,7H191.1z M198.1,138.1h9.4l-4.7-12.5L198.1,138.1z"
		/>
	<path class="st1" d="M216.6,122.1h9.9c5.2,0,8.6,3.1,8.6,7.9c0,3.6-2.2,6.4-5.5,7.4l5.8,10.6h-3.6l-5.5-9.9h-6.5v9.9h-3.2V122.1z
		 M219.8,125.1v10h6.4c3.4,0,5.6-2,5.6-5s-2.2-5-5.5-5H219.8z"/>
</g>
<g>
	<path class="st1" d="M287.2,397.6v3.5h-2.1c-3.2,0-4.2-1.3-4.3-3.7c-1.5,2.1-3.9,4-8,4c-5.2,0-8.7-2.6-8.7-6.9
		c0-4.7,3.3-7.4,9.5-7.4h7v-1.6c0-3.1-2.2-4.9-5.9-4.9c-3.4,0-5.6,1.6-6,4h-3.8c0.6-4.7,4.3-7.4,10-7.4c6,0,9.5,3,9.5,8.6V396
		c0,1.3,0.5,1.6,1.5,1.6H287.2z M280.7,390.2h-7.4c-3.4,0-5.3,1.3-5.3,4c0,2.3,2,3.9,5.2,3.9c4.7,0,7.5-2.7,7.5-6.7V390.2z"/>
	<path class="st1" d="M312.3,390c0,6.6-4.6,11.4-11.6,11.4c-7.1,0-11.6-4.3-11.6-13.3c0-12.7,3-17.5,13.3-18.8l8-1v3.6l-7.2,0.9
		c-7.4,1-9.6,2.9-10.3,10c1.7-2.3,4.7-3.8,8.7-3.8C307.7,378.9,312.3,383.2,312.3,390z M308.4,390.1c0-4.6-3.2-7.9-7.6-7.9
		c-4.7,0-7.8,3.3-7.8,7.4c0,5.3,3.3,8.4,7.7,8.4C305.2,398,308.4,394.7,308.4,390.1z"/>
	<path class="st1" d="M316.2,401v-23.7h10.1c5.9,0,8.7,2.3,8.7,6.4c0,3-2,4.6-3.9,5.1c2.7,0.4,4.8,2.1,4.8,5.4
		c0,4.6-3.3,6.9-9.4,6.9H316.2z M320,387.4h6.6c3.2,0,4.5-1.3,4.5-3.4c0-2.3-1.3-3.4-4.5-3.4H320V387.4z M320,397.8h7
		c3.3,0,5-1.1,5-3.6c0-2.3-1.8-3.6-5-3.6h-7V397.8z"/>
	<path class="st1" d="M339.6,401v-23.7h15.2v3.5h-11.4V401H339.6z"/>
	<path class="st1" d="M376.6,397.6h3.8v9.8h-3.8V401h-19.4v6.3h-3.8v-9.8h2.4c1.7-1.3,2.7-3,2.7-10.3v-9.9h18.1V397.6z M372.8,397.6
		v-16.7h-10.6v6.8c0,5.4-0.6,8.1-1.8,9.9H372.8z"/>
	<path class="st1" d="M381.6,389.2c0-7.2,4.6-12.1,11.3-12.1c6.7,0,11.1,4.2,11.3,11.3c0,0.5,0,1.1-0.1,1.6h-18.4v0.3
		c0.1,4.5,3,7.7,7.5,7.7c3.3,0,6-1.8,6.7-4.8h3.9c-0.9,4.7-4.8,8.2-10.3,8.2C386.2,401.3,381.6,396.4,381.6,389.2z M400,386.8
		c-0.4-4.1-3.2-6.4-7.1-6.4c-3.5,0-6.7,2.5-7.1,6.4H400z"/>
	<path class="st1" d="M407.2,389.2c0-7.2,4.6-12.1,11.3-12.1c6.7,0,11.1,4.2,11.3,11.3c0,0.5,0,1.1-0.1,1.6h-18.4v0.3
		c0.1,4.5,3,7.7,7.5,7.7c3.3,0,6-1.8,6.7-4.8h3.9c-0.9,4.7-4.8,8.2-10.3,8.2C411.8,401.3,407.2,396.4,407.2,389.2z M425.6,386.8
		c-0.4-4.1-3.2-6.4-7.1-6.4c-3.5,0-6.7,2.5-7.1,6.4H425.6z M414.4,368.9c1.4,0,2.5,1,2.5,2.4c0,1.3-1,2.4-2.5,2.4
		c-1.4,0-2.4-1-2.4-2.4C412,369.9,413,368.9,414.4,368.9z M422.8,368.9c1.4,0,2.4,1,2.4,2.4c0,1.3-1,2.4-2.4,2.4
		c-1.3,0-2.5-1-2.5-2.4C420.4,369.9,421.5,368.9,422.8,368.9z"/>
	<path class="st1" d="M430.1,401l9-12.3l-8.3-11.4h4.2l7.2,9.9h3.7v-9.9h3.7v9.9h3.7l7.2-9.9h4.2l-8.3,11.4l9,12.3h-4.4l-7.6-10.3
		h-3.8V401h-3.7v-10.3H442l-7.6,10.3H430.1z"/>
	<path class="st1" d="M486,394.2c0,4.4-4,7.1-10.4,7.1c-6.7,0-9.6-2.7-9.9-7.6h4c0.6,2.8,2,4.3,6,4.3s6.5-1.4,6.5-3.9
		c0-2.5-1.8-3.5-4.8-3.5h-4v-3.3h3.8c2.8,0,4.5-1,4.5-3.5c0-2.1-2.1-3.5-5.7-3.5c-3.9,0-5.5,1.6-6,4.2h-4c0.3-4.4,4-7.4,10.1-7.4
		c6,0,9.5,2.7,9.5,6.7c0,2.9-1.7,4.6-4.2,5.1C484.2,389.3,486,391.1,486,394.2z"/>
	<path class="st1" d="M489.7,401v-23.7h3.7v18l14.1-18h3.3V401h-3.7v-18l-14.1,18H489.7z"/>
	<path class="st1" d="M515.7,401v-23.7h3.7v18l14.1-18h3.3V401h-3.7v-18l-14.1,18H515.7z M519.4,368.2h3.2c0,2.3,1,3.7,3.7,3.7
		s3.8-1.4,3.8-3.7h3.2c-0.1,3.9-2.5,6.4-7,6.4C521.8,374.6,519.5,372.2,519.4,368.2z"/>
	<path class="st1" d="M541.7,401v-23.7h3.8v9.9h5.1l7.4-9.9h4.4l-8.7,11.4l9.4,12.3h-4.6l-7.9-10.3h-5.1V401H541.7z"/>
	<path class="st1" d="M563.6,401v-3.5h0.7c2.7,0,3.7-1.6,3.7-8.7v-11.5h18V401h-3.8v-20.2h-10.4v8.1c0,9.4-2.2,12.1-6.8,12.1H563.6z
		"/>
	<path class="st1" d="M590.7,401v-23.7h4.7l9.1,19.1l9-19.1h4.6l0.1,23.7h-3.7v-17.9L606,401h-3.1l-8.5-17.9V401H590.7z"/>
	<path class="st1" d="M640.1,377.3h3.8V401h-3.8v-10.3h-13.4V401h-3.8v-23.7h3.8v9.9h13.4V377.3z"/>
	<path class="st1" d="M264.2,426.2c0-7.2,4.8-12.1,11.8-12.1s11.8,4.9,11.8,12.1c0,7.2-4.8,12.1-11.8,12.1S264.2,433.4,264.2,426.2z
		 M283.8,426.2c0-5.1-3.2-8.7-7.9-8.7c-4.7,0-7.9,3.7-7.9,8.7c0,5.1,3.2,8.7,7.9,8.7C280.7,434.9,283.8,431.2,283.8,426.2z"/>
	<path class="st1" d="M291.6,438v-23.7h20.5V438h-3.8v-20.2h-12.9V438H291.6z"/>
	<path class="st1" d="M340.3,426.2c0,7.3-4.8,12.1-11.4,12.1c-4,0-6.7-1.6-8.1-3.9v12.9h-3.8v-33h3.3l0.5,3.8
		c1.6-2.2,4.1-4.1,8.1-4.1C335.4,414,340.3,418.5,340.3,426.2z M336.4,426.2c0-5.2-3.2-8.7-7.9-8.7c-4.7,0-7.8,3.6-7.8,8.7
		c0,5.2,3.2,8.8,7.8,8.8C333.2,434.9,336.4,431.3,336.4,426.2z"/>
	<path class="st1" d="M343.3,426.2c0-7.3,4.7-12.2,11.6-12.2c5.8,0,9.5,3.3,10.5,8.5h-4c-0.7-3.2-3-5.1-6.5-5.1
		c-4.6,0-7.6,3.6-7.6,8.8c0,5.2,3.1,8.7,7.6,8.7c3.4,0,5.7-2,6.5-5h4c-0.9,5.1-4.8,8.4-10.6,8.4
		C347.9,438.3,343.3,433.6,343.3,426.2z"/>
	<path class="st1" d="M374.7,438v-20.2h-8.6v-3.5h20.9v3.5h-8.6V438H374.7z"/>
	<path class="st1" d="M387.9,414.3h4l7.3,18.9l7.1-18.9h4L399.4,442c-1.5,3.8-2.4,5.3-5.7,5.3h-4.6v-3.5h3.4c2.2,0,2.6-0.6,3.4-2.8
		l1.2-2.9L387.9,414.3z"/>
	<path class="st1" d="M424.4,447.3v-9.1c-8.1-0.2-13.5-4.8-13.5-12c0-7.1,5.4-11.8,13.5-12v-7.9h3.7v7.9c8.1,0.2,13.4,4.8,13.4,12
		c0,7.1-5.4,11.9-13.4,12v9.1H424.4z M424.4,417.5c-5.8,0.1-9.6,3.3-9.6,8.7c0,5.4,3.8,8.6,9.6,8.7V417.5z M428.1,434.9
		c5.9-0.1,9.6-3.3,9.6-8.7c0-5.4-3.7-8.6-9.6-8.7V434.9z"/>
	<path class="st1" d="M451,425.9l-8.4-11.5h4.6l6.3,8.8l6.4-8.8h4.3l-8.5,11.5l9.1,12.2h-4.6l-6.9-9.5l-6.9,9.5H442L451,425.9z"/>
	<path class="st1" d="M487,434.6h4v9.8h-3.8V438h-20.2v-23.7h3.8v20.2h12.5v-20.2h3.8V434.6z"/>
	<path class="st1" d="M507.4,414.3h3.8V438h-3.8v-9.5c-1.8,1.2-4.3,1.8-6.6,1.8c-5.8,0-9.3-2.5-9.3-8.6v-7.4h3.8v6.7
		c0,4.3,2.1,5.8,6.2,5.8c2.3,0,4.3-0.6,5.9-1.9V414.3z"/>
	<path class="st1" d="M516,438v-23.7h3.8v20.2h10.3v-20.2h3.8v20.2h10.3v-20.2h3.8V438H516z"/>
	<path class="st1" d="M584.9,434.6h4v9.8h-3.8V438h-32.2v-23.7h3.8v20.2H567v-20.2h3.8v20.2h10.3v-20.2h3.8V434.6z"/>
	<path class="st1" d="M280.4,459c5.9,0,9.3,2.9,9.3,8c0,5-3.4,8-9.3,8h-10.2v-20.2H263v-3.5h11v7.7H280.4z M279.8,471.8
		c3.9,0,6-1.7,6-4.7c0-3.1-2.1-4.7-6-4.7H274v9.5H279.8z"/>
	<path class="st1" d="M293.4,475v-23.7h3.8v7.7h6c5.9,0,9.3,2.9,9.3,8c0,5-3.4,8-9.3,8H293.4z M297.2,471.8h5.4c3.9,0,6-1.7,6-4.7
		c0-3.1-2.1-4.7-6-4.7h-5.4V471.8z M316.4,475v-23.7h3.8V475H316.4z"/>
	<path class="st1" d="M325,475v-23.7h3.8v7.7h6.4c5.9,0,9.3,2.9,9.3,8c0,5-3.4,8-9.3,8H325z M328.8,471.8h5.8c3.9,0,6-1.7,6-4.7
		c0-3.1-2.1-4.7-6-4.7h-5.8V471.8z"/>
	<path class="st1" d="M369.2,463.1c0,7.4-4.7,12.2-11.6,12.2c-5.8,0-9.5-3.3-10.5-8.5h4c0.7,3.2,3,5.1,6.5,5.1c4.1,0,7-2.8,7.5-7.2
		h-10.2v-3.3h10.2c-0.6-4.2-3.4-7-7.5-7c-3.2,0-5.7,2-6.5,5h-4c0.9-5.1,5-8.4,10.6-8.4C364.6,451,369.2,455.7,369.2,463.1z"/>
	<path class="st1" d="M405.8,463.1c0,7.3-4.7,12.2-11.7,12.2c-6.5,0-11-4.3-11.6-10.7h-5.6V475h-3.8v-23.7h3.8v10.2h5.7
		c0.7-6.3,5.2-10.4,11.5-10.4C401.1,451.1,405.8,455.9,405.8,463.1z M401.9,463.1c0-5.4-3.1-9-7.8-9c-4.7,0-7.8,3.6-7.8,9
		s3.1,9.1,7.8,9.1C398.8,472.2,401.9,468.5,401.9,463.1z"/>
	<path class="st1" d="M428.3,451.3V475h-3.8v-8.1h-6.3l-5.8,8.1h-4.5l6.5-8.7c-3.8-0.8-5.9-3.4-5.9-7.3c0-4.9,3.4-7.8,9.4-7.8H428.3
		z M424.5,463.6v-9H418c-3.6,0-5.6,1.5-5.6,4.5c0,3.1,2,4.6,5.6,4.6H424.5z"/>
	<path class="st1" d="M264.4,532c0-9.3,5-15.8,12.4-15.8c7.3,0,12.3,6.6,12.3,15.8v1.5c0,9.7-5,15.8-12.3,15.8
		c-7.4,0-12.4-6.1-12.4-15.8V532z M285.2,532.1c0-7.7-3.4-12.4-8.4-12.4c-5.1,0-8.4,4.7-8.4,12.4v1.2c0,7.7,3.3,12.4,8.4,12.4
		c5,0,8.4-4.7,8.4-12.4V532.1z"/>
	<path class="st1" d="M298.4,516.4h3.8V549h-3.9v-23.4c-0.5,0.4-1.2,0.6-2.2,0.6h-5.3v-3.5h5.3c1.5,0,2.3-1.2,2.3-2.8V516.4z"/>
	<path class="st1" d="M306,545.7l12.7-11c3-2.6,5.5-5.1,5.5-8.7c0-4.1-2.8-6.4-7.1-6.4c-4.2,0-7,2.8-7,7.3v0.6h-3.9v-0.8
		c0-6.1,4.3-10.5,10.9-10.5c7,0,11.1,3.9,11.1,9.7c0,4.9-3.2,8-7,11.3l-9.8,8.3h17v3.6H306V545.7z"/>
	<path class="st1" d="M354.1,540c0,5.5-4.7,9.3-11.7,9.3s-11.6-3.9-11.6-10.3h3.9c0,4.3,3.4,6.8,8,6.8c4.2,0,7.5-2.4,7.5-6.1
		c0-3.4-2.8-5.6-7.9-5.6h-2.8v-3.4h2.6c4.8,0,7.3-2.4,7.3-5.7s-3-5.4-6.9-5.4c-4.1,0-7.1,2.5-7.1,6.2h-3.9c0-5.7,4.5-9.7,10.9-9.7
		c6.7,0,10.9,3.5,10.9,8.6c0,4.1-2.1,6.5-5.3,7.3C351,532.6,354.1,535,354.1,540z"/>
	<path class="st1" d="M356.1,537.6l16.6-21.1h4.4v21h5.3v3.6h-5.3v8h-3.9v-8h-17.1V537.6z M360.5,537.5h12.7v-16.2L360.5,537.5z"/>
	<path class="st1" d="M407.3,538.1c0,7.2-5.3,11.1-11.4,11.1c-7.3,0-11.4-4.7-11.8-10.4h3.9c0.4,3.8,3.2,6.9,7.9,6.9
		c3.8,0,7.4-2.6,7.4-7.6c0-4.4-2.8-7.5-7.4-7.5c-2,0-6,0.6-7.4,4.4l-3.8-0.1l1.1-18.5h19.5v3.6h-15.9l-0.7,10.3
		c2-2.4,4.8-3.1,7.8-3.1C402.9,527.2,407.3,531.7,407.3,538.1z"/>
	<path class="st1" d="M410.3,532.9c0-10.2,4.6-16.7,12.4-16.7c5.9,0,10,3.5,10.7,9h-3.9c-0.7-3.3-3.1-5.5-7-5.5
		c-5.7,0-8.8,5.2-8.8,12.5c0,0.5,0,0.8,0,1.6c0-0.2,0.1-0.5,0.3-0.9c1.4-3.2,4.7-5.4,9.1-5.4c6.4,0,10.9,4.2,10.9,10.9
		c0,6.3-4.6,10.9-11.3,10.9c-4.5,0-7.8-2-9.9-5.4C411.2,541.1,410.3,537.1,410.3,532.9z M422.8,530.9c-4.5,0-7.6,3.1-7.6,7.5
		c0,4.4,3,7.4,7.4,7.4c4.5,0,7.4-3.1,7.4-7.5C430.1,534,427.3,530.9,422.8,530.9z"/>
	<path class="st1" d="M434.8,516.4h23v2.7l-16,29.8h-4.2l16-29h-18.7V516.4z"/>
	<path class="st1" d="M482.8,540.3c0,5.3-4.5,9-11.9,9s-11.9-3.8-11.9-9c0-4.4,2.8-7.3,6.5-8.1c-3.1-0.7-5.6-3.4-5.6-7.4
		c0-5.1,4.3-8.7,10.9-8.7s10.9,3.5,10.9,8.7c0,3.7-2.4,6.7-5.6,7.4C479.9,533,482.8,535.8,482.8,540.3z M478.8,540
		c0-3.4-3.2-5.9-7.9-5.9s-7.9,2.5-7.9,5.9c0,3.5,3.3,6,7.9,6C475.6,545.9,478.8,543.5,478.8,540z M470.9,530.2
		c4.2,0,6.9-2.1,6.9-5.4c0-3.2-2.7-5.3-6.9-5.3s-6.9,2.1-6.9,5.3C464,528,466.7,530.2,470.9,530.2z"/>
	<path class="st1" d="M486.6,540.3h3.9c0.7,3.3,3.1,5.5,7,5.5c5.7,0,8.8-5.2,8.8-12.5c0-0.5,0-0.8,0-1.6c0,0.2-0.1,0.5-0.3,0.9
		c-1.4,3.2-4.7,5.4-9.1,5.4c-6.4,0-10.9-4.2-10.9-10.9c0-6.3,4.6-10.9,11.3-10.9c4.5,0,7.8,2,9.9,5.4c1.6,2.8,2.6,6.7,2.6,11
		c0,10.2-4.6,16.7-12.4,16.7C491.4,549.3,487.4,545.8,486.6,540.3z M504.8,527c0-4.4-3-7.4-7.4-7.4c-4.5,0-7.4,3.1-7.4,7.5
		c0,4.3,2.8,7.4,7.3,7.4C501.7,534.5,504.8,531.5,504.8,527z"/>
	<path class="st1" d="M514.4,549v-32.6h3.5l15.4,24.5v-24.5h4V549h-3.5l-15.4-24.5V549H514.4z M540.5,527.1
		c0-6.5,4.2-10.9,10.5-10.9c6.3,0,10.5,4.4,10.5,10.9c0,6.5-4.2,10.9-10.5,10.9C544.6,538,540.5,533.6,540.5,527.1z M557.5,527.1
		c0-4.5-2.6-7.5-6.6-7.5c-4,0-6.6,3-6.6,7.5c0,4.6,2.6,7.5,6.6,7.5C554.9,534.6,557.5,531.6,557.5,527.1z"/>
	<path class="st1" d="M574.5,516.2c4.7,0,8.2,3.3,8.2,7.9c0,4.5-3.5,7.8-8.2,7.8c-4.7,0-8.2-3.3-8.2-7.8
		C566.3,519.5,569.8,516.2,574.5,516.2z M574.5,519.2c-2.7,0-4.7,2-4.7,4.8c0,2.7,2,4.7,4.7,4.7c2.7,0,4.7-2,4.7-4.7
		C579.3,521.3,577.2,519.2,574.5,519.2z M571.8,549l22.2-32.6h3.8L575.6,549H571.8z M595,533.6c4.7,0,8.2,3.3,8.2,7.9
		c0,4.5-3.5,7.8-8.2,7.8c-4.7,0-8.2-3.3-8.2-7.8C586.8,536.9,590.3,533.6,595,533.6z M595,536.6c-2.7,0-4.7,2-4.7,4.8
		c0,2.7,2,4.7,4.7,4.7c2.7,0,4.7-2,4.7-4.7C599.7,538.7,597.7,536.6,595,536.6z"/>
	<path class="st1" d="M606.8,526.8c0-6,4-10.7,10.6-10.7c6.1,0,10,3.5,10,8.2c0,4.1-2.2,6.3-4.6,8c-2.5,1.7-4.3,3-4.3,5.5v1.2h-3.6
		v-1.6c0-3.7,2.3-5.3,5-7.1c2.1-1.5,3.4-3.1,3.4-5.6c0-2.9-2.4-5.1-6-5.1c-4,0-6.7,2.9-6.7,7.1H606.8z M616.8,544.1
		c1.5,0,2.7,1,2.7,2.6s-1.1,2.6-2.7,2.6s-2.7-1-2.7-2.6S615.3,544.1,616.8,544.1z"/>
	<path class="st1" d="M634.4,544.1c1.5,0,2.7,1,2.7,2.6s-1.1,2.6-2.7,2.6s-2.7-1-2.7-2.6S632.9,544.1,634.4,544.1z M633,539.3
		l-0.6-22.8h4.1l-0.6,22.8H633z"/>
	<path class="st1" d="M657.4,522.5l-5.7,2.1l3.9,4.6l-2,1.9l-3.9-4.9l-3.9,4.9l-2-1.9l3.9-4.6l-5.7-2.1l1.1-2.6l5.4,2.5l-0.1-6h2.7
		l-0.1,6l5.4-2.5L657.4,522.5z"/>
</g>
<g>
	<path class="st1" d="M1021.3,747.9l13.8-35.7h3.2l13.8,35.7h-3l-4.3-10.9h-16.4l-4.3,10.9H1021.3z M1029.3,734.5h14.8l-7.4-19.2
		L1029.3,734.5z"/>
	<path class="st1" d="M1056.7,747.9v-35.7h21v2.6h-18.3v12.6h10.4c6.7,0,11.1,3.7,11.1,10.3c0,6.4-4.4,10.3-11.1,10.3H1056.7z
		 M1059.4,745.4h10.2c5.3,0,8.6-3,8.6-7.7s-3.3-7.8-8.6-7.8h-10.2V745.4z"/>
	<path class="st1" d="M1086.4,712.2h12.2c7.2,0,11.2,3.5,11.2,9.2c0,4.3-2.5,7-6.4,8.1c4.7,0.7,8.1,3.4,8.1,8.5
		c0,6.2-4.3,10-12.6,10h-12.4V712.2z M1089.2,714.7v13.7h9.5c5.3,0,8.3-2.6,8.3-6.9c0-4.2-3-6.8-8.3-6.8H1089.2z M1089.2,730.9v14.5
		h9.7c6.4,0,9.8-2.8,9.8-7.3c0-4.7-3.6-7.2-9.8-7.2H1089.2z"/>
	<path class="st1" d="M1117.4,747.9v-35.7h20.1v2.6h-17.4v33.2H1117.4z"/>
	<path class="st1" d="M1166.8,745.4h4.4v9.9h-2.8v-7.3h-29.4v7.3h-2.8v-9.9h3.2c2.5-2.3,3.9-6,3.9-17v-16.2h23.3V745.4z
		 M1164.1,745.4v-30.8h-17.9v14.2c0,9.5-1.1,13.8-3.3,16.6H1164.1z"/>
	<path class="st1" d="M1176.2,712.2h22v2.6h-19.2v13.6h16.1v2.6h-16.1v14.4h19.9v2.6h-22.7V712.2z"/>
	<path class="st1" d="M1204,712.2h22v2.6h-19.2v13.6h16.1v2.6h-16.1v14.4h19.9v2.6H1204V712.2z M1210.9,703.4c1.1,0,1.8,0.8,1.8,1.8
		s-0.8,1.8-1.8,1.8c-1,0-1.8-0.8-1.8-1.8S1209.9,703.4,1210.9,703.4z M1219.5,703.4c1,0,1.8,0.8,1.8,1.8s-0.8,1.8-1.8,1.8
		c-1,0-1.8-0.8-1.8-1.8S1218.4,703.4,1219.5,703.4z"/>
	<path class="st1" d="M1229.2,747.9l13.5-18.3l-12.6-17.4h3.2l11.8,16.3h6.3v-16.3h2.8v16.3h6.3l11.9-16.3h3.2l-12.6,17.4l13.5,18.3
		h-3.3l-12.5-16.9h-6.4v16.9h-2.8V731h-6.4l-12.6,16.9H1229.2z"/>
	<path class="st1" d="M1278.4,737.6h2.8c0.5,5.3,4.3,8.1,10.2,8.1c6.1,0,9.9-2.9,9.9-7.6c0-4.7-3.3-7.2-9.3-7.2h-4.6v-2.3h4.4
		c5.7,0,8.6-2.9,8.6-7.2s-3.6-6.9-9-6.9c-5.8,0-9.2,2.9-9.7,7.5h-2.8c0.5-6.1,5.3-10.1,12.5-10.1c7.4,0,11.8,3.7,11.8,9.2
		c0,4.7-2.7,7.7-6.7,8.5c4.2,0.7,7.6,3.2,7.6,8.7c0,6-5,10-12.8,10S1278.8,744.4,1278.4,737.6z"/>
	<path class="st1" d="M1310,747.9v-35.7h2.8v31.1l21.3-31.1h2.6v35.7h-2.8v-31.1l-21.2,31.1H1310z"/>
	<path class="st1" d="M1344,747.9v-35.7h2.8v31.1l21.3-31.1h2.6v35.7h-2.8v-31.1l-21.2,31.1H1344z M1350.5,702.2h2.2
		c0,2.9,1.4,4.5,4.7,4.5c3.4,0,4.8-1.7,4.8-4.5h2.2c-0.1,4-2.4,6.5-7,6.5C1352.8,708.7,1350.5,706.2,1350.5,702.2z"/>
	<path class="st1" d="M1378,747.9v-35.7h2.8v16.2h7.7l12.4-16.2h3.2l-13.3,17.4l14.2,18.4h-3.4l-13.2-17h-7.7v17H1378z"/>
	<path class="st1" d="M1407,747.9v-2.6h0.9c4.2,0,6.2-2.9,6.2-15.7v-17.5h23.3v35.7h-2.8v-33.2h-17.9v15.2c0,14.1-2.7,18-8.5,18
		H1407z"/>
	<path class="st1" d="M1444.7,712.2h3.5l13.9,32l13.8-32h3.5v35.7h-2.7v-31.1l-13.4,31.1h-2.5l-13.4-31.1v31.1h-2.7V712.2z"/>
	<path class="st1" d="M1024.1,761.9h2.8v16.2h20.7v-16.2h2.8v35.7h-2.8v-17h-20.7v17h-2.8V761.9z"/>
	<path class="st1" d="M1073.1,798c-9.8,0-16.7-7.6-16.7-18.2c0-10.6,6.9-18.2,16.7-18.2c9.9,0,16.7,7.6,16.7,18.2
		C1089.8,790.4,1082.9,798,1073.1,798z M1073.1,795.4c8.2,0,13.9-6.5,13.9-15.6s-5.7-15.6-13.9-15.6c-8.2,0-13.8,6.5-13.8,15.6
		S1064.9,795.4,1073.1,795.4z"/>
	<path class="st1" d="M1095.9,797.7v-35.7h25.9v35.7h-2.8v-33.2h-20.4v33.2H1095.9z"/>
	<path class="st1" d="M1129.2,761.9h13.3c6.8,0,11.2,4.2,11.2,10.4s-4.4,10.4-11.2,10.4h-10.5v14.9h-2.8V761.9z M1131.9,764.5v15.7
		h10.3c5.3,0,8.6-3.2,8.6-7.9c0-4.7-3.3-7.9-8.6-7.9H1131.9z"/>
	<path class="st1" d="M1157.3,779.8c0-10.7,6.5-18.2,16.6-18.2c7.5,0,12.9,4.1,14.5,11.3h-2.9c-1.6-5.6-5.8-8.7-11.7-8.7
		c-8.3,0-13.6,6.5-13.6,15.6s5.2,15.6,13.5,15.6c6.1,0,10.2-3.1,11.7-8.8h2.9c-1.5,7.2-6.9,11.3-14.6,11.3
		C1163.7,798,1157.3,790.6,1157.3,779.8z"/>
	<path class="st1" d="M1189.6,761.9h27.3v2.6h-12.3v33.2h-2.8v-33.2h-12.3V761.9z"/>
	<path class="st1" d="M1222.4,797.7v-2.6h3.2c2.9,0,4-0.6,5.6-3.9l1.4-3l-13.9-26.3h3.2l12.2,23.3l10.7-23.3h3l-14,30
		c-2.1,4.5-4,5.7-7.4,5.7H1222.4z"/>
	<path class="st1" d="M1269.6,795.2v4.5h-2.7v-4.5c-11.2-0.2-18.3-5.9-18.3-15.4s7.1-15.1,18.3-15.4v-4.5h2.7v4.5
		c11.2,0.3,18.2,5.9,18.2,15.4S1280.8,794.9,1269.6,795.2z M1267,792.7v-25.8c-9.8,0.2-15.5,5-15.5,12.9S1257.2,792.5,1267,792.7z
		 M1269.6,792.7c9.8-0.2,15.5-5,15.5-12.9s-5.7-12.7-15.5-12.9V792.7z"/>
	<path class="st1" d="M1301.4,779.4l-11.7-17.5h3.3l10.2,15.2l10.2-15.2h3.2l-11.7,17.3l12.5,18.5h-3.3l-11-16.2l-10.9,16.2h-3.2
		L1301.4,779.4z"/>
	<path class="st1" d="M1347.8,795.1h4.4v9.9h-2.8v-7.3H1322v-35.7h2.8v33.2h20.3v-33.2h2.8V795.1z"/>
	<path class="st1" d="M1376.6,761.9h2.8v35.7h-2.8v-16.4c-2.8,1.8-6.3,2.9-10.6,2.9c-7.1,0-11.8-3.5-11.8-10.9v-11.3h2.8v10.8
		c0,6.2,3.5,8.9,9.3,8.9c4.2,0,7.6-1.2,10.3-3.1V761.9z"/>
	<path class="st1" d="M1386.7,797.7v-35.7h2.8v33.2h17.1v-33.2h2.8v33.2h17v-33.2h2.8v35.7H1386.7z"/>
	<path class="st1" d="M1478.7,795.1h4.4v9.9h-2.8v-7.3h-44v-35.7h2.8v33.2h17.1v-33.2h2.8v33.2h17v-33.2h2.8V795.1z"/>
	<path class="st1" d="M1032.2,847.4V814h-10.8v-2.3h13.5V826h10.3c6.9,0,11.4,4.5,11.4,10.7c0,6.1-4.5,10.6-11.4,10.6H1032.2z
		 M1035,844.8h10.1c5.4,0,8.9-3.3,8.9-8.1c0-4.8-3.5-8.2-8.9-8.2H1035V844.8z"/>
	<path class="st1" d="M1061.9,847.4v-35.7h2.8V826h9.9c6.9,0,11.4,4.5,11.4,10.7c0,6.1-4.5,10.6-11.4,10.6H1061.9z M1064.7,844.8
		h9.6c5.4,0,8.8-3.3,8.8-8.1c0-4.8-3.5-8.2-8.9-8.2h-9.6V844.8z M1090.9,847.4v-35.7h2.8v35.7H1090.9z"/>
	<path class="st1" d="M1101,847.4v-35.7h2.8V826h10.3c6.9,0,11.4,4.5,11.4,10.7c0,6.1-4.5,10.6-11.4,10.6H1101z M1103.7,844.8h10.1
		c5.4,0,8.8-3.3,8.8-8.1c0-4.8-3.5-8.2-8.8-8.2h-10.1V844.8z"/>
	<path class="st1" d="M1160.3,829.5c0,10.7-6.5,18.2-16.5,18.2c-7.7,0-13-4.1-14.5-11.3h2.9c1.6,5.7,5.6,8.8,11.7,8.8
		c8,0,13.2-6,13.6-14.5h-16.7v-2.6h16.7c-0.5-8.4-5.5-14.2-13.4-14.2c-6,0-10.1,3.1-11.7,8.7h-2.9c1.5-7.1,6.9-11.3,14.5-11.3
		C1154,811.3,1160.3,818.7,1160.3,829.5z"/>
	<path class="st1" d="M1209.6,829.5c0,10.6-6.8,18.2-16.6,18.2c-9.4,0-16.1-7.1-16.5-17.1h-7.3v16.8h-2.8v-35.7h2.8V828h7.4
		c0.6-9.8,7.2-16.7,16.5-16.7C1202.8,811.3,1209.6,818.9,1209.6,829.5z M1206.8,829.5c0-9.1-5.6-15.6-13.8-15.6
		c-8.1,0-13.7,6.5-13.7,15.6s5.6,15.6,13.7,15.6C1201.1,845.1,1206.8,838.6,1206.8,829.5z"/>
	<path class="st1" d="M1238.7,811.6v35.7h-2.8v-14.8h-9.8l-9.4,14.8h-3.2l9.5-15.1c-5.9-0.7-9.3-4.7-9.3-10.3
		c0-6.1,4.5-10.4,11.4-10.4H1238.7z M1236,830v-15.8h-10.6c-5.4,0-8.8,3.2-8.8,7.9c0,4.7,3.4,7.9,8.7,7.9H1236z"/>
</g>
<g>
	<path class="st2" d="M843,608h15.9v1.8H845v9.9h11.7v1.8H845V632h14.4v1.8H843V608z"/>
	<path class="st2" d="M862.2,633.9V608h2v24h12.4v1.8H862.2z"/>
	<path class="st2" d="M873.7,608h19.7v1.8h-8.9v24h-2v-24h-8.9V608z"/>
	<path class="st2" d="M890.3,633.9l10-25.9h2.3l10,25.9h-2.1l-3.1-7.9h-11.9l-3.1,7.9H890.3z M896,624.1h10.7l-5.4-13.9L896,624.1z"
		/>
	<path class="st2" d="M925.1,625.9c0.3,3.8,3.2,6.4,7.6,6.4c4.2,0,7-2,7-5.3c0-3.8-3.6-4.6-7.7-5.3c-4.1-0.7-8.4-1.8-8.4-6.7
		c0-4.4,3.4-7.2,8.7-7.2c5.3,0,8.7,2.9,9,7.4h-2c-0.4-3.4-3.1-5.5-7-5.5c-4.1,0-6.7,1.9-6.7,5.3c0,3.7,3.4,4.4,7.4,5
		c4.3,0.7,8.7,2,8.7,6.9c0,4.4-3.6,7.3-9,7.3c-5.8,0-9.4-3.3-9.6-8.2H925.1z"/>
	<path class="st2" d="M942.2,633.9l10-25.9h2.3l10,25.9h-2.1l-3.1-7.9h-11.9l-3.1,7.9H942.2z M948,624.1h10.7l-5.4-13.9L948,624.1z"
		/>
	<path class="st2" d="M966.9,633.9V608h1.9l15.3,22.3V608h2v25.9h-1.9l-15.3-22.3v22.3H966.9z"/>
	<path class="st2" d="M991.6,625.9c0.3,3.8,3.2,6.4,7.6,6.4c4.2,0,7-2,7-5.3c0-3.8-3.6-4.6-7.7-5.3c-4.1-0.7-8.4-1.8-8.4-6.7
		c0-4.4,3.4-7.2,8.7-7.2c5.3,0,8.7,2.9,9,7.4h-2c-0.4-3.4-3.1-5.5-7-5.5c-4.1,0-6.7,1.9-6.7,5.3c0,3.7,3.4,4.4,7.4,5
		c4.3,0.7,8.7,2,8.7,6.9c0,4.4-3.6,7.3-9,7.3c-5.8,0-9.4-3.3-9.6-8.2H991.6z"/>
	<path class="st1" d="M843,667v-25.9h2v24h12.4v1.8H843z"/>
	<path class="st1" d="M859.8,641.1h2V667h-2V641.1z"/>
	<path class="st1" d="M865.3,654.1c0-7.8,4.7-13.2,12-13.2c5.4,0,9.5,3,10.5,8.2h-2.1c-1.1-4.1-4.1-6.3-8.5-6.3
		c-6,0-9.8,4.7-9.8,11.3c0,6.7,3.8,11.3,9.7,11.3c5.7,0,9.2-3.8,9.2-8.9v-1.1h-8.5v-1.8h10.4V667h-1.7l-0.1-5.7
		c-1.1,3.1-4.2,6-9.4,6C870.1,667.2,865.3,661.9,865.3,654.1z"/>
	<path class="st1" d="M892.6,641.1h2v11.8h15v-11.8h2V667h-2v-12.3h-15V667h-2V641.1z"/>
	<path class="st1" d="M914.1,641.1h19.7v1.8H925v24h-2v-24h-8.9V641.1z"/>
</g>
<g>
	<path class="st1" d="M1044.9,917.9v2.2h-1.4c-2.8,0-4-1.2-3.9-4v-0.8c-1.4,2.9-4.3,5.1-9.1,5.1c-5,0-8.3-2.6-8.3-6.7
		c0-4.4,3.3-7,9.3-7h8v-2c0-3.9-2.5-6.2-6.9-6.2c-4,0-6.5,1.9-7.1,4.8h-2.4c0.6-4.3,4.2-6.9,9.6-6.9c5.9,0,9.2,3,9.2,8.4v11
		c0,1.8,0.7,2.3,2.1,2.3H1044.9z M1039.5,908.6h-8.2c-4.4,0-6.7,1.7-6.7,4.8c0,2.9,2.3,4.8,6.1,4.8c5.6,0,8.8-3.3,8.8-7.8V908.6z"/>
	<path class="st1" d="M1069.2,909c0,6.6-4.6,11.4-11.2,11.4c-6.7,0-11.2-4.3-11.2-12.8c0-13.3,2.9-18,12.9-19.3l7.7-1v2.2l-7.3,1
		c-8,1.1-10.4,3.9-11,12.6c1.4-2.8,4.7-5.2,9.3-5.2C1064.7,897.8,1069.2,902.3,1069.2,909z M1066.8,909.1c0-5.3-3.6-9.1-8.7-9.1
		c-5.2,0-8.8,3.8-8.8,8.5c0,6.3,3.7,9.8,8.7,9.8C1063.1,918.2,1066.8,914.4,1066.8,909.1z"/>
	<path class="st1" d="M1073.4,920v-23.6h9.8c5.5,0,8,2.2,8,6.1c0,3-1.7,4.8-4.4,5.3c3.2,0.4,5.3,2.2,5.3,5.6c0,4.3-3.1,6.6-8.9,6.6
		H1073.4z M1075.8,907h7.6c3.9,0,5.4-1.6,5.4-4.2c0-2.8-1.5-4.2-5.4-4.2h-7.6V907z M1075.8,918h7.8c4,0,6.2-1.5,6.2-4.5
		c0-2.9-2.2-4.5-6.2-4.5h-7.8V918z"/>
	<path class="st1" d="M1096.2,920v-23.6h14.5v2.2h-12.1V920H1096.2z"/>
	<path class="st1" d="M1131.1,917.9h3.8v8.5h-2.4V920h-21v6.3h-2.4v-8.5h2.3c1.8-1.5,2.8-3.4,2.8-11.4v-10h16.8V917.9z
		 M1128.7,917.9v-19.2h-12.1v8c0,6.6-0.7,9.4-2.2,11.2H1128.7z"/>
	<path class="st1" d="M1136.3,908.1c0-7,4.4-11.9,10.9-11.9c6.3,0,10.7,4.1,10.9,11.1c0,0.3,0,0.7,0,1h-19.3v0.4
		c0.1,5.5,3.4,9.5,8.7,9.5c3.9,0,7-2.3,7.9-6h2.4c-1,4.7-5,8.1-10.1,8.1C1140.9,920.3,1136.3,915.5,1136.3,908.1z M1155.5,906.3
		c-0.4-5.2-3.7-8-8.3-8c-4.3,0-7.9,3.2-8.3,8H1155.5z"/>
	<path class="st1" d="M1161.4,908.1c0-7,4.4-11.9,10.9-11.9c6.3,0,10.7,4.1,10.9,11.1c0,0.3,0,0.7,0,1h-19.3v0.4
		c0.1,5.5,3.4,9.5,8.7,9.5c3.9,0,7-2.3,7.9-6h2.4c-1,4.7-5,8.1-10.1,8.1C1166,920.3,1161.4,915.5,1161.4,908.1z M1180.6,906.3
		c-0.4-5.2-3.7-8-8.3-8c-4.3,0-7.9,3.2-8.3,8H1180.6z M1168.6,888.4c1,0,1.7,0.7,1.7,1.6c0,0.9-0.7,1.6-1.7,1.6
		c-0.9,0-1.6-0.7-1.6-1.6C1166.9,889.1,1167.6,888.4,1168.6,888.4z M1176.4,888.4c0.9,0,1.6,0.7,1.6,1.6c0,0.9-0.7,1.6-1.6,1.6
		c-0.9,0-1.7-0.7-1.7-1.6C1174.7,889.1,1175.4,888.4,1176.4,888.4z"/>
	<path class="st1" d="M1183.9,920l9.5-12.2l-8.7-11.4h2.7l8,10.4h4.3v-10.4h2.3v10.4h4.3l8-10.4h2.7l-8.7,11.4l9.5,12.2h-2.7
		l-8.7-11h-4.3v11h-2.3v-11h-4.4l-8.7,11H1183.9z"/>
	<path class="st1" d="M1237.9,913.4c0,4.2-3.8,6.9-9.9,6.9c-6.2,0-9.1-2.6-9.4-7.2h2.5c0.5,3.4,2.5,5.1,7,5.1c4.5,0,7.4-1.9,7.4-4.9
		c0-2.9-2.2-4.3-5.9-4.3h-4v-2h3.8c3.3,0,5.4-1.4,5.4-4.3c0-2.7-2.5-4.5-6.6-4.5c-4.4,0-6.7,2-7.2,5h-2.4c0.3-4.2,3.9-7.1,9.6-7.1
		c5.6,0,8.9,2.6,8.9,6.5c0,3-2,4.8-4.6,5.3C1235.8,908.4,1237.9,910.2,1237.9,913.4z"/>
	<path class="st1" d="M1242,920v-23.6h2.3v20l15.7-20h2.1V920h-2.3V900l-15.7,20.1H1242z"/>
	<path class="st1" d="M1267.2,920v-23.6h2.3v20l15.7-20h2.1V920h-2.3V900l-15.7,20.1H1267.2z M1270.9,887.3h2c0,2.6,1.3,4.1,4.3,4.1
		c3.1,0,4.4-1.5,4.4-4.1h2c0,3.7-2.2,5.9-6.4,5.9C1273,893.3,1271,891,1270.9,887.3z"/>
	<path class="st1" d="M1292.4,920v-23.6h2.4v10.4h5.7l8.3-10.4h2.8l-9.2,11.4l10,12.2h-2.9l-9-11h-5.7v11H1292.4z"/>
	<path class="st1" d="M1313.2,920v-2.2h0.6c2.9,0,4.1-2,4.1-9.9v-11.5h16.7V920h-2.4v-21.4h-12v9.4c0,9.4-2,12-6.1,12H1313.2z"/>
	<path class="st1" d="M1339.8,920v-23.6h2.9l10.1,20.7l10-20.7h2.9l0,23.6h-2.3v-20l-9.8,20h-1.9l-9.7-20v20H1339.8z"/>
	<path class="st1" d="M1388.4,896.5h2.4V920h-2.4v-11h-15.1v11h-2.4v-23.6h2.4v10.4h15.1V896.5z"/>
	<path class="st1" d="M1022.3,945.2c0-7.1,4.7-12,11.3-12s11.4,4.9,11.4,12c0,7.2-4.7,12.1-11.4,12.1S1022.3,952.4,1022.3,945.2z
		 M1042.5,945.2c0-5.8-3.6-10-8.9-10s-8.9,4.1-8.9,10c0,5.9,3.6,10,8.9,10S1042.5,951.1,1042.5,945.2z"/>
	<path class="st1" d="M1049.2,957v-23.6h19.4V957h-2.4v-21.4h-14.7V957H1049.2z"/>
	<path class="st1" d="M1096.3,945.2c0,7.2-4.7,12.1-11.1,12.1c-4.5,0-7.7-2.3-9-5.7v14.7h-2.4v-32.9h2l0.4,5.4
		c1.5-3.3,4.6-5.7,9-5.7C1091.6,933.2,1096.3,937.8,1096.3,945.2z M1093.8,945.2c0-5.8-3.6-10-8.9-10s-8.9,4.1-8.9,9.9
		c0,5.9,3.6,10,8.9,10S1093.8,951.1,1093.8,945.2z"/>
	<path class="st1" d="M1099.6,945.3c0-7.2,4.6-12.1,11.2-12.1c5.3,0,9,3,10,7.9h-2.5c-0.8-3.5-3.6-5.8-7.6-5.8
		c-5.2,0-8.7,4.1-8.7,10c0,5.9,3.6,9.9,8.7,9.9c3.9,0,6.7-2.2,7.5-5.7h2.5c-0.9,4.8-4.7,7.9-10,7.9
		C1104.1,957.3,1099.6,952.5,1099.6,945.3z"/>
	<path class="st1" d="M1130.7,957v-21.4h-9.2v-2.2h20.8v2.2h-9.2V957H1130.7z"/>
	<path class="st1" d="M1143,933.5h2.6l8.2,20.5l8-20.5h2.6l-11.3,28c-1.5,3.7-2.2,4.9-5.4,4.9h-3.6v-2.2h3c2.4,0,2.8-0.7,3.9-3.3
		l1.5-3.8L1143,933.5z"/>
	<path class="st1" d="M1178.8,966.3v-9.1c-8-0.1-13.5-4.8-13.5-12c0-7.1,5.5-11.9,13.5-12v-8h2.3v8c8,0.1,13.5,4.8,13.5,12
		c0,7.1-5.5,11.9-13.5,12v9.1H1178.8z M1178.8,935.3c-6.6,0.1-11.1,3.9-11.1,9.9c0,6,4.5,9.8,11.1,9.9V935.3z M1181.1,955.1
		c6.6-0.1,11.1-3.9,11.1-9.9c0-6-4.5-9.8-11.1-9.9V955.1z"/>
	<path class="st1" d="M1204.5,945l-8.7-11.5h2.8l7.4,9.8l7.4-9.8h2.7l-8.7,11.5l9.2,12h-2.9l-7.8-10.4l-7.8,10.4h-2.7L1204.5,945z"
		/>
	<path class="st1" d="M1238.2,954.9h3.8v8.5h-2.4V957h-20.4v-23.6h2.4v21.4h14.2v-21.4h2.4V954.9z"/>
	<path class="st1" d="M1259.1,933.5h2.4V957h-2.4v-10.2c-1.9,1.4-4.6,2.2-7.4,2.2c-5.4,0-8.8-2.5-8.8-8.1v-7.4h2.4v7
		c0,4.6,2.4,6.4,6.8,6.4c2.8,0,5.1-0.7,6.9-2.2V933.5z"/>
	<path class="st1" d="M1266.6,957v-23.6h2.4v21.4h12v-21.4h2.4v21.4h11.9v-21.4h2.4V957H1266.6z"/>
	<path class="st1" d="M1333.7,954.9h3.9v8.5h-2.4V957h-32.5v-23.6h2.4v21.4h12v-21.4h2.4v21.4h11.9v-21.4h2.4V954.9z"/>
	<path class="st1" d="M1037.9,978.9c5.8,0,9,2.7,9,7.6c0,4.8-3.3,7.6-9,7.6h-9.4v-21.4h-7.6v-2.2h10v8.4H1037.9z M1037.6,992
		c4.5,0,7-2,7-5.5c0-3.7-2.5-5.5-7-5.5h-6.6V992H1037.6z"/>
	<path class="st1" d="M1051,994v-23.6h2.4v8.4h6.6c5.8,0,9,2.7,9,7.6c0,4.8-3.3,7.6-9,7.6H1051z M1053.3,992h6.2c4.5,0,7-2,7-5.5
		c0-3.7-2.5-5.5-7-5.5h-6.2V992z M1073.2,994v-23.6h2.4V994H1073.2z"/>
	<path class="st1" d="M1080.6,994v-23.6h2.4v8.4h6.9c5.8,0,9.1,2.7,9.1,7.6c0,4.8-3.3,7.6-9.1,7.6H1080.6z M1083,992h6.6
		c4.5,0,7-2,7-5.5c0-3.7-2.5-5.5-7-5.5h-6.6V992z"/>
	<path class="st1" d="M1123.2,982.2c0,7.3-4.6,12.1-11.2,12.1c-5.4,0-9.1-3-10-7.9h2.5c0.8,3.6,3.6,5.8,7.6,5.8c4.9,0,8.3-3.6,8.7-9
		h-11.5v-2.1h11.5c-0.4-5.3-3.8-8.8-8.6-8.8c-3.9,0-6.8,2.2-7.6,5.8h-2.5c0.9-4.8,4.8-7.9,10.1-7.9
		C1118.8,970.2,1123.2,974.9,1123.2,982.2z"/>
	<path class="st1" d="M1158.8,982.2c0,7.2-4.6,12.1-11.3,12.1c-6.4,0-10.8-4.6-11.2-11.3h-6.5v11h-2.4v-23.6h2.4v10.7h6.5
		c0.4-6.6,4.8-10.9,11.2-10.9C1154.2,970.2,1158.8,975,1158.8,982.2z M1156.4,982.2c0-6-3.6-10-8.9-10c-5.2,0-8.8,4-8.8,10
		c0,6,3.6,10.2,8.8,10.2C1152.7,992.4,1156.4,988.2,1156.4,982.2z"/>
	<path class="st1" d="M1180.3,970.4V994h-2.4v-8.8h-7.4l-0.1,0l-6.4,8.8h-2.8l6.7-9.1c-4-0.7-6.3-3.2-6.3-7.1c0-4.7,3.2-7.4,8.9-7.4
		H1180.3z M1178,983.2v-10.7h-7.4c-4.1,0-6.5,1.9-6.5,5.3c0,3.6,2.4,5.4,6.5,5.4H1178z"/>
	<path class="st1" d="M1022.7,1051c0-9.3,4.7-15.8,11.8-15.8c7,0,11.7,6.6,11.7,15.8v1.5c0,9.5-4.7,15.8-11.7,15.8
		c-7.1,0-11.8-6.3-11.8-15.8V1051z M1043.7,1051.1c0-8.3-3.7-13.7-9.3-13.7c-5.6,0-9.3,5.4-9.3,13.7v1.3c0,8.3,3.7,13.7,9.3,13.7
		c5.6,0,9.3-5.4,9.3-13.7V1051.1z"/>
	<path class="st1" d="M1055.7,1035.4h2.4v32.6h-2.4v-24.5c-0.4,0.5-1.1,0.8-2.1,0.8h-5.6v-2.2h5.6c1.4,0,2.1-1,2.1-2.5V1035.4z"/>
	<path class="st1" d="M1062.1,1065.9l12.7-11.5c3.1-2.8,6.2-5.6,6.2-9.7c0-4.6-3.2-7.4-8.1-7.4c-4.9,0-8,3.1-8,8.2v0.7h-2.4v-0.8
		c0-6.1,4.1-10.2,10.4-10.2c6.6,0,10.6,3.7,10.6,9.4c0,4.9-3.3,8-7.1,11.4l-10.8,9.8h18.4v2.2h-21.7V1065.9z"/>
	<path class="st1" d="M1108.9,1059.1c0,5.4-4.6,9.2-11.4,9.2s-11.3-3.7-11.3-9.8h2.4c0,4.8,3.7,7.6,9,7.6c5,0,8.7-2.9,8.7-7.2
		c0-4.2-3.2-6.5-8.9-6.5h-2.7v-2.1h2.6c5.4,0,8.1-2.9,8.1-6.7c0-3.8-3.2-6.3-7.8-6.3c-4.8,0-8.2,2.7-8.3,7h-2.4
		c0-5.6,4.5-9.2,10.7-9.2c6.3,0,10.3,3.4,10.3,8.4c0,4.2-2.4,6.8-6.1,7.6C1105.7,1051.7,1108.9,1054,1108.9,1059.1z"/>
	<path class="st1" d="M1111.1,1057.3l17.1-21.8h2.7v21.8h5.4v2.2h-5.4v8.6h-2.4v-8.6h-17.4V1057.3z M1113.8,1057.2h14.7v-18.7
		L1113.8,1057.2z"/>
	<path class="st1" d="M1160.5,1057.3c0,7.2-5.2,11-11.1,11c-6.9,0-10.8-4.6-11.2-10h2.4c0.4,4.2,3.4,7.8,8.7,7.8
		c4.5,0,8.6-3,8.6-8.7c0-5-3.2-8.7-8.4-8.7c-3,0-6.9,1.3-8.3,5.1l-2.3-0.1l1.2-18.2h18.3v2.2h-16.1l-0.9,12.7c2-2.7,5-4,8.5-4
		C1156.2,1046.4,1160.5,1050.9,1160.5,1057.3z"/>
	<path class="st1" d="M1163.9,1051.7c0-9.8,4.1-16.6,11.9-16.6c5.8,0,9.4,3.6,10.2,8.7h-2.4c-0.8-3.8-3.3-6.5-7.9-6.5
		c-6.5,0-9.7,6-9.7,14c0,1.4,0.1,2.7,0.5,4.2c0-0.4,0-0.8,0.1-1.3c0.8-4.5,4.5-7.6,9.6-7.6c6.4,0,10.6,4.3,10.6,10.8
		c0,6.3-4.4,10.8-10.8,10.8c-4.5,0-7.8-2.1-9.7-5.5C1164.7,1059.9,1163.9,1055.9,1163.9,1051.7z M1176,1048.8
		c-5.2,0-8.7,3.6-8.7,8.7c0,5.1,3.4,8.7,8.5,8.7c5.1,0,8.5-3.6,8.5-8.7C1184.3,1052.4,1181.2,1048.8,1176,1048.8z"/>
	<path class="st1" d="M1187.7,1035.4h22.3v1.8l-16.5,30.8h-2.7l16.5-30.3h-19.7V1035.4z"/>
	<path class="st1" d="M1234.4,1059.5c0,5.1-4.5,8.8-11.4,8.8s-11.4-3.7-11.4-8.8c0-4.5,3.2-7.5,7.5-8.3c-3.8-0.7-6.5-3.6-6.5-7.6
		c0-5,4.1-8.5,10.5-8.5s10.5,3.5,10.5,8.5c0,4-2.7,6.9-6.5,7.6C1231.3,1052,1234.4,1055,1234.4,1059.5z M1231.9,1059.3
		c0-4-3.7-6.9-8.9-6.9c-5.3,0-8.9,2.9-8.9,6.9c0,4,3.7,6.9,8.9,6.9S1231.9,1063.4,1231.9,1059.3z M1223,1050c4.7,0,8-2.6,8-6.4
		c0-3.8-3.2-6.4-8-6.4s-8,2.6-8,6.4C1215,1047.4,1218.2,1050,1223,1050z"/>
	<path class="st1" d="M1238.8,1059.6h2.4c0.8,3.8,3.3,6.5,8,6.5c6.6,0,9.7-6,9.7-14c0-1.4-0.1-2.7-0.5-4.2c0,0.4,0,0.8-0.1,1.3
		c-0.8,4.5-4.5,7.6-9.6,7.6c-6.4,0-10.6-4.3-10.6-10.8c0-6.3,4.4-10.8,10.8-10.8c4.5,0,7.8,2.1,9.7,5.5c1.5,2.9,2.4,6.8,2.4,11
		c0,9.8-4.1,16.6-12,16.6C1243.3,1068.3,1239.6,1064.7,1238.8,1059.6z M1257.5,1046c0-5.1-3.4-8.7-8.5-8.7c-5.1,0-8.5,3.6-8.5,8.7
		c0,5.1,3.2,8.7,8.3,8.7C1254,1054.7,1257.5,1051.1,1257.5,1046z"/>
	<path class="st1" d="M1266.2,1068v-32.6h2.3l17.1,27.6v-27.6h2.5v32.6h-2.2l-17.1-27.6v27.6H1266.2z M1291.2,1045.9
		c0-6.4,4-10.7,10-10.7c5.9,0,10,4.4,10,10.7c0,6.4-4.1,10.8-10,10.8C1295.2,1056.8,1291.2,1052.3,1291.2,1045.9z M1308.7,1045.9
		c0-5.1-3.1-8.6-7.5-8.6c-4.5,0-7.6,3.5-7.6,8.6c0,5.2,3.1,8.7,7.6,8.7C1305.7,1054.6,1308.7,1051.1,1308.7,1045.9z"/>
	<path class="st1" d="M1324.4,1035.2c4.5,0,7.9,3.4,7.9,7.8c0,4.5-3.3,7.8-7.9,7.8c-4.5,0-7.8-3.3-7.8-7.8
		C1316.6,1038.5,1319.9,1035.2,1324.4,1035.2z M1324.4,1037.1c-3.3,0-5.7,2.5-5.7,5.9s2.4,5.8,5.7,5.8c3.3,0,5.7-2.5,5.7-5.8
		S1327.7,1037.1,1324.4,1037.1z M1322.1,1068l21.9-32.6h2.4l-22,32.6H1322.1z M1344,1052.7c4.5,0,7.8,3.4,7.8,7.8s-3.3,7.8-7.8,7.8
		c-4.5,0-7.9-3.3-7.9-7.8S1339.4,1052.7,1344,1052.7z M1344,1054.7c-3.3,0-5.7,2.5-5.7,5.9c0,3.3,2.4,5.8,5.7,5.8
		c3.3,0,5.7-2.5,5.7-5.8C1349.6,1057.2,1347.2,1054.7,1344,1054.7z"/>
	<path class="st1" d="M1356.1,1045.4c0-5.8,3.9-10.2,10-10.2c5.7,0,9.4,3.4,9.4,7.9c0,3.9-2,6-4.3,7.8c-2.4,1.8-4.6,3.1-4.6,6v1.6
		h-2.2v-1.9c0-3.6,2.5-5.2,5-7c2.1-1.6,3.6-3.3,3.6-6.3c0-3.4-2.8-5.9-6.8-5.9c-4.6,0-7.6,3.3-7.6,8H1356.1z M1365.5,1064.8
		c1,0,1.8,0.7,1.8,1.7s-0.7,1.8-1.8,1.8s-1.8-0.7-1.8-1.8S1364.5,1064.8,1365.5,1064.8z"/>
	<path class="st1" d="M1382.2,1064.8c1.1,0,1.8,0.7,1.8,1.7s-0.7,1.8-1.8,1.8c-1,0-1.8-0.7-1.8-1.8S1381.2,1064.8,1382.2,1064.8z
		 M1381.3,1058.5l-0.4-23.1h2.6l-0.3,23.1H1381.3z"/>
	<path class="st1" d="M1403.4,1040.9l-5.9,2.3l4,4.8l-1.3,1.2l-4.1-5.1l-4.1,5.1l-1.3-1.2l4.1-4.9l-6-2.3l0.7-1.6l5.8,2.5l-0.1-6.4
		h1.7l-0.1,6.4l5.8-2.5L1403.4,1040.9z"/>
</g>
</svg>
