<?xml version="1.0" encoding="utf-8"?>
<!-- Generator: Adobe Illustrator 22.0.0, SVG Export Plug-In . SVG Version: 6.00 Build 0)  -->
<svg version="1.1" id="Layer_1" xmlns="http://www.w3.org/2000/svg" xmlns:xlink="http://www.w3.org/1999/xlink" x="0px" y="0px"
	 viewBox="0 0 1919.8 701.3" style="enable-background:new 0 0 1919.8 701.3;" xml:space="preserve">
<style type="text/css">
	.st0{fill:#D1D1D5;}
	.st1{fill:#868690;}
	.st2{fill:#1B1B2D;}
	.st3{fill:#A4A4AB;}
	.st4{fill:#E8E8EA;}
	.st5{fill:#FFFFFF;}
</style>
<g>
	<g>
		<path class="st0" d="M0,111.8c0,61.8,50,111.8,111.8,111.8s111.8-50,111.8-111.8H0z"/>
		<path class="st1" d="M0,111.8h111.8V0C50,0,0,50,0,111.8z"/>
		<path class="st2" d="M111.8,0v111.8h111.8C223.6,50,173.6,0,111.8,0z"/>
	</g>
	<g>
		<polygon class="st2" points="482,0 370.2,0 370.2,223.6 482,223.6 482,111.8 		"/>
		<rect x="482" class="st0" width="111.8" height="111.8"/>
		<rect x="482" y="111.8" class="st1" width="111.8" height="111.8"/>
	</g>
	<g>
		<rect x="744.7" y="157.9" class="st1" width="257.2" height="33.5"/>
		<rect x="744.7" y="95" class="st2" width="299.1" height="33.5"/>
		<rect x="744.7" y="32.1" class="st0" width="178.9" height="33.5"/>
	</g>
	<g>
		<rect x="1373.3" y="31.3" class="st1" width="33.5" height="192.3"/>
		<rect x="1310.4" class="st2" width="33.5" height="223.6"/>
		<rect x="1247.5" y="89.7" class="st0" width="33.5" height="133.8"/>
	</g>
	<g>
		<g>
			<path class="st2" d="M758.8,593.2c-1.7,0-3.4-1-4.3-2.5c-1.3-2.4-0.4-5.3,2-6.6l117.8-63.9l44,13.7l98.5-91.7
				c2-1.8,5-1.7,6.8,0.3c1.8,2,1.7,5-0.3,6.8l-102.7,95.6l-45.4-14.3L761,592.6C760.3,592.9,759.6,593.2,758.8,593.2z"/>
		</g>
		<g>
			<g>
				<path class="st1" d="M871.8,573.6l-1-0.3l-113.2-25.2c-2.7-0.6-4.3-3.2-3.8-5.9c0.6-2.7,3.2-4.3,5.9-3.8L872,563.4l152.8-28.9
					c2.7-0.6,5.2,1.3,5.7,3.9s-1.3,5.2-3.9,5.7L871.8,573.6z"/>
			</g>
		</g>
		<g>
			<path class="st0" d="M758.8,615.5c-2.2,0-4.3-1.5-4.8-3.9c-0.6-2.7,1.1-5.3,3.8-5.9l94.9-20.7l41.8-44.7l59,25.3l73.1-65
				c2-1.8,5.2-1.7,6.8,0.4c1.8,2,1.7,5.2-0.4,6.8l-77.8,69.2l-58.4-25L857.4,594l-98,21.2C759.5,615.4,759,615.5,758.8,615.5z"/>
		</g>
	</g>
	<g>
		<path class="st2" d="M1796.9,61.6c12.9,12.9,20.7,30.6,20.7,50.2c0,39.4-31.9,71.3-71.3,71.3c-19.6,0-37.3-8-50.2-20.7l-28.7,28.7
			c20.3,20.1,48.1,32.6,78.8,32.6c61.8,0,111.8-50,111.8-111.8c0-30.7-12.4-58.7-32.6-78.8L1796.9,61.6z"/>
		<path class="st3" d="M1675.1,111.8h-40.5c0,31,12.6,59,33,79.2l28.7-28.7C1683.2,149.4,1675.1,131.5,1675.1,111.8z"/>
		<path class="st4" d="M1746.4,40.5c19.7,0,37.6,8.1,50.6,21.1l28.7-28.7c-20.3-20.4-48.2-33-79.2-33c-0.3,0-0.4,0-0.7,0v40.5
			C1745.9,40.5,1746.1,40.5,1746.4,40.5z"/>
		<path class="st1" d="M1745.7,40.5V0c-61.5,0.4-111.1,50.3-111.1,111.8h40.5C1675.1,72.7,1706.7,41,1745.7,40.5z"/>
	</g>
	<g>
		<g>
			<path class="st2" d="M1308,532.6h-62.9c-2.7,0-4.9-2.2-4.9-4.9c0-2.7,2.2-4.9,4.9-4.9h62.9c2.7,0,4.9,2.2,4.9,4.9
				C1312.9,530.4,1310.6,532.6,1308,532.6z"/>
		</g>
		<g>
			<path class="st1" d="M1517.6,532.6h-74.1c-2.7,0-4.9-2.2-4.9-4.9c0-2.7,2.2-4.9,4.9-4.9h74.1c2.7,0,4.9,2.2,4.9,4.9
				C1522.5,530.4,1520.3,532.6,1517.6,532.6z"/>
		</g>
		<g>
			<path class="st1" d="M1403,572.9c-24.6,0-44.7-20.1-44.7-44.7c0-24.6,20.1-44.7,44.7-44.7c24.6,0,44.7,20.1,44.7,44.7
				C1447.7,552.8,1427.6,572.9,1403,572.9z M1403,493.2c-19.3,0-34.9,15.7-34.9,34.9c0,19.3,15.7,34.9,34.9,34.9
				c19.3,0,34.9-15.7,34.9-34.9C1438,508.9,1422.3,493.2,1403,493.2z"/>
		</g>
		<g>
			<g>
				<path class="st0" d="M1347.8,572.9c-24.6,0-44.7-20.1-44.7-44.7c0-24.6,20.1-44.7,44.7-44.7c24.6,0,44.7,20.1,44.7,44.7
					C1392.5,552.8,1372.4,572.9,1347.8,572.9z M1347.8,493.2c-19.3,0-34.9,15.7-34.9,34.9c0,19.3,15.7,34.9,34.9,34.9
					c19.3,0,34.9-15.7,34.9-34.9C1382.8,508.9,1367.1,493.2,1347.8,493.2z"/>
			</g>
		</g>
		<circle class="st2" cx="1188.5" cy="528.2" r="56.6"/>
	</g>
	<g>
		<circle class="st2" cx="72" cy="564.5" r="67.8"/>
		
			<ellipse transform="matrix(0.3162 -0.9487 0.9487 0.3162 -330.6231 476.035)" class="st1" cx="164.9" cy="467.4" rx="43.3" ry="43.3"/>
		
			<ellipse transform="matrix(0.3162 -0.9487 0.9487 0.3162 -404.1389 568.3104)" class="st0" cx="192.2" cy="564.5" rx="27.3" ry="27.3"/>
	</g>
	<g>
		<polygon class="st1" points="532.4,510.7 554.7,536.3 618.3,553.3 618.3,451.7 547,445 461.8,511.4 509.4,524.1 		"/>
		<polygon class="st1" points="389.8,552.6 418.5,520.2 389.1,507.9 345.8,528.2 345.8,547.7 		"/>
		<polygon class="st2" points="461.8,511.4 433.1,503.7 418.5,520.2 389.8,552.6 345.8,547.7 345.8,576.8 468.1,548.4 509.4,524.1 
					"/>
		<polygon class="st2" points="554.7,536.3 618.3,609 618.3,553.3 		"/>
		<polygon class="st0" points="554.7,536.3 532.4,510.7 509.4,524.1 468.1,548.4 345.8,576.8 345.8,611.3 618.3,611.3 618.3,609 		
			"/>
	</g>
	<g>
		<g>
			<g>
				<rect x="1607.8" y="531.4" class="st0" width="34" height="42.1"/>
				<rect x="1705" y="531.4" class="st0" width="34" height="108.6"/>
				<rect x="1850.9" y="531.4" class="st0" width="34" height="64.9"/>
			</g>
		</g>
		<rect x="1802.3" y="448.8" class="st3" width="34" height="82.6"/>
		<rect x="1753.6" y="416.4" class="st2" width="34" height="115"/>
		<rect x="1656.5" y="465" class="st5" width="34" height="66.4"/>
		<g>
			<rect x="1572.9" y="530" class="st1" width="346.9" height="2.8"/>
		</g>
	</g>
	<g>
		<path class="st2" d="M72.3,277.1c0,4.2-2.8,7-6.6,7c-2.3,0-3.9-0.9-4.7-2.3v7.5h-2.2v-19.2h1.9l0.3,2.2c0.9-1.3,2.4-2.4,4.7-2.4
			C69.5,270,72.3,272.6,72.3,277.1z M70,277.1c0-3-1.8-5.1-4.6-5.1c-2.7,0-4.5,2.1-4.5,5c0,3,1.8,5.1,4.5,5.1
			C68.2,282.1,70,280,70,277.1z"/>
		<path class="st2" d="M74.5,266.4c0-0.8,0.6-1.4,1.4-1.4c0.8,0,1.4,0.6,1.4,1.4c0,0.8-0.6,1.4-1.4,1.4
			C75.2,267.8,74.5,267.3,74.5,266.4z M74.8,270.2H77v13.8h-2.2V270.2z"/>
		<path class="st2" d="M79.6,277.1c0-4.2,2.6-7,6.5-7c3.9,0,6.4,2.5,6.5,6.5c0,0.3,0,0.6-0.1,0.9H81.9v0.2c0.1,2.6,1.7,4.5,4.3,4.5
			c1.9,0,3.5-1,3.9-2.8h2.2c-0.5,2.8-2.8,4.8-6,4.8C82.3,284.1,79.6,281.3,79.6,277.1z M90.3,275.7c-0.2-2.4-1.8-3.7-4.1-3.7
			c-2,0-3.9,1.5-4.1,3.7H90.3z"/>
		<path class="st2" d="M93.4,286.3v-2.2h10.4v2.2H93.4z"/>
		<path class="st2" d="M104.6,277.1c0-4.2,2.7-7.1,6.7-7.1c3.4,0,5.5,1.9,6.1,4.9h-2.3c-0.4-1.8-1.8-2.9-3.8-2.9
			c-2.6,0-4.4,2.1-4.4,5.1c0,3,1.8,5,4.4,5c2,0,3.3-1.1,3.8-2.9h2.3c-0.5,3-2.8,4.9-6.1,4.9C107.3,284.1,104.6,281.4,104.6,277.1z"
			/>
		<path class="st2" d="M132.2,276.3v7.7H130v-7.5c0-2.9-1.4-4.4-3.8-4.4c-2.6,0-4.2,1.9-4.2,5v6.9h-2.2V265h2.2v7.4
			c0.8-1.3,2.2-2.4,4.5-2.4C129.7,270,132.2,271.7,132.2,276.3z"/>
		<path class="st2" d="M147.9,281.9v2h-1.2c-1.8,0-2.5-0.8-2.5-2.1c-0.9,1.2-2.2,2.3-4.6,2.3c-3,0-5.1-1.5-5.1-4
			c0-2.8,1.9-4.3,5.5-4.3h4v-0.9c0-1.8-1.3-2.9-3.4-2.9c-1.9,0-3.2,0.9-3.5,2.3h-2.2c0.3-2.7,2.5-4.3,5.8-4.3c3.5,0,5.5,1.8,5.5,5v6
			c0,0.7,0.3,0.9,0.9,0.9H147.9z M144.1,277.6h-4.3c-2,0-3.1,0.7-3.1,2.3c0,1.3,1.2,2.3,3,2.3c2.8,0,4.3-1.6,4.3-3.9V277.6z"/>
		<path class="st2" d="M156.6,270.2v2.2h-1.1c-2.9,0-3.7,2.4-3.7,4.6v7h-2.2v-13.8h1.9l0.3,2.1c0.6-1.1,1.7-2.1,4.2-2.1H156.6z"/>
		<path class="st2" d="M160,272.2h-2.5v-2h2.5v-3.9h2.2v3.9h3.6v2h-3.6v8.1c0,1.2,0.4,1.6,1.6,1.6h2.2v2h-2.4
			c-2.6,0-3.6-1.2-3.6-3.6V272.2z"/>
	</g>
	<g>
		<path class="st2" d="M436.4,281.9v2h-1.2c-1.8,0-2.5-0.8-2.5-2.1c-0.9,1.2-2.2,2.3-4.6,2.3c-3,0-5.1-1.5-5.1-4
			c0-2.8,1.9-4.3,5.5-4.3h4v-0.9c0-1.8-1.3-2.9-3.4-2.9c-1.9,0-3.2,0.9-3.5,2.3h-2.2c0.3-2.7,2.5-4.3,5.8-4.3c3.5,0,5.5,1.8,5.5,5v6
			c0,0.7,0.3,0.9,0.9,0.9H436.4z M432.6,277.6h-4.3c-2,0-3.1,0.7-3.1,2.3c0,1.3,1.2,2.3,3,2.3c2.8,0,4.3-1.6,4.3-3.9V277.6z"/>
		<path class="st2" d="M445.1,270.2v2.2H444c-2.9,0-3.7,2.4-3.7,4.6v7h-2.2v-13.8h1.9l0.3,2.1c0.6-1.1,1.7-2.1,4.2-2.1H445.1z"/>
		<path class="st2" d="M445.7,277.1c0-4.2,2.6-7,6.5-7c3.9,0,6.4,2.5,6.5,6.5c0,0.3,0,0.6-0.1,0.9h-10.7v0.2
			c0.1,2.6,1.7,4.5,4.3,4.5c1.9,0,3.5-1,3.9-2.8h2.2c-0.5,2.8-2.8,4.8-6,4.8C448.4,284.1,445.7,281.3,445.7,277.1z M456.4,275.7
			c-0.2-2.4-1.8-3.7-4.1-3.7c-2,0-3.9,1.5-4.1,3.7H456.4z"/>
		<path class="st2" d="M474.2,281.9v2H473c-1.8,0-2.5-0.8-2.5-2.1c-0.9,1.2-2.2,2.3-4.6,2.3c-3,0-5.1-1.5-5.1-4
			c0-2.8,1.9-4.3,5.5-4.3h4v-0.9c0-1.8-1.3-2.9-3.4-2.9c-1.9,0-3.2,0.9-3.5,2.3h-2.2c0.3-2.7,2.5-4.3,5.8-4.3c3.5,0,5.5,1.8,5.5,5v6
			c0,0.7,0.3,0.9,0.9,0.9H474.2z M470.4,277.6h-4.3c-2,0-3.1,0.7-3.1,2.3c0,1.3,1.2,2.3,3,2.3c2.8,0,4.3-1.6,4.3-3.9V277.6z"/>
		<path class="st2" d="M476,286.3v-2.2h10.4v2.2H476z"/>
		<path class="st2" d="M510.1,276v7.9h-2.2v-7.8c0-2.7-1.2-4.1-3.3-4.1c-2.3,0-3.7,1.7-3.7,4.5v7.4h-2.2v-7.8c0-2.7-1.2-4.1-3.3-4.1
			c-2.3,0-3.6,1.9-3.6,4.6v7.3h-2.2v-13.8h1.9l0.3,1.9c0.7-1,1.9-2.1,4-2.1c1.9,0,3.6,0.9,4.3,2.6c0.8-1.5,2.3-2.6,4.8-2.6
			C507.7,270,510.1,271.7,510.1,276z"/>
		<path class="st2" d="M525.8,281.9v2h-1.2c-1.8,0-2.5-0.8-2.5-2.1c-0.9,1.2-2.2,2.3-4.6,2.3c-3,0-5.1-1.5-5.1-4
			c0-2.8,1.9-4.3,5.5-4.3h4v-0.9c0-1.8-1.3-2.9-3.4-2.9c-1.9,0-3.2,0.9-3.5,2.3h-2.2c0.3-2.7,2.5-4.3,5.8-4.3c3.5,0,5.5,1.8,5.5,5v6
			c0,0.7,0.3,0.9,0.9,0.9H525.8z M522,277.6h-4.3c-2,0-3.1,0.7-3.1,2.3c0,1.3,1.2,2.3,3,2.3c2.8,0,4.3-1.6,4.3-3.9V277.6z"/>
		<path class="st2" d="M541.1,277.1c0,4.2-2.8,7-6.6,7c-2.3,0-3.9-0.9-4.7-2.3v7.5h-2.2v-19.2h1.9l0.3,2.2c0.9-1.3,2.4-2.4,4.7-2.4
			C538.2,270,541.1,272.6,541.1,277.1z M538.8,277.1c0-3-1.8-5.1-4.6-5.1c-2.7,0-4.5,2.1-4.5,5c0,3,1.8,5.1,4.5,5.1
			C536.9,282.1,538.8,280,538.8,277.1z"/>
	</g>
	<g>
		<path class="st2" d="M814.9,277.1c0-4.2,2.8-7,6.8-7c4,0,6.8,2.9,6.8,7c0,4.2-2.8,7-6.8,7C817.7,284.1,814.9,281.2,814.9,277.1z
			 M826.3,277.1c0-2.9-1.8-5.1-4.6-5.1s-4.6,2.1-4.6,5.1c0,2.9,1.8,5.1,4.6,5.1S826.3,280,826.3,277.1z"/>
		<path class="st2" d="M838.1,270.2v2.2H837c-2.9,0-3.7,2.4-3.7,4.6v7h-2.2v-13.8h1.9l0.3,2.1c0.6-1.1,1.7-2.1,4.2-2.1H838.1z"/>
		<path class="st2" d="M850,265h2.2v18.9h-1.9l-0.3-2.2c-0.9,1.3-2.4,2.4-4.7,2.4c-3.8,0-6.6-2.6-6.6-7c0-4.2,2.8-7,6.6-7
			c2.3,0,3.9,0.9,4.7,2.3V265z M850.1,277.1c0-3-1.8-5.1-4.5-5.1c-2.7,0-4.6,2.1-4.6,5.1s1.8,5.1,4.6,5.1
			C848.2,282.1,850.1,280,850.1,277.1z"/>
		<path class="st2" d="M854.8,277.1c0-4.2,2.6-7,6.5-7c3.9,0,6.4,2.5,6.5,6.5c0,0.3,0,0.6-0.1,0.9h-10.7v0.2
			c0.1,2.6,1.7,4.5,4.3,4.5c1.9,0,3.5-1,3.9-2.8h2.2c-0.5,2.8-2.8,4.8-6,4.8C857.5,284.1,854.8,281.3,854.8,277.1z M865.5,275.7
			c-0.2-2.4-1.8-3.7-4.1-3.7c-2,0-3.9,1.5-4.1,3.7H865.5z"/>
		<path class="st2" d="M877.4,270.2v2.2h-1.1c-2.9,0-3.7,2.4-3.7,4.6v7h-2.2v-13.8h1.9l0.3,2.1c0.6-1.1,1.7-2.1,4.2-2.1H877.4z"/>
		<path class="st2" d="M878.1,277.1c0-4.2,2.6-7,6.5-7c3.9,0,6.4,2.5,6.5,6.5c0,0.3,0,0.6-0.1,0.9h-10.7v0.2
			c0.1,2.6,1.7,4.5,4.3,4.5c1.9,0,3.5-1,3.9-2.8h2.2c-0.5,2.8-2.8,4.8-6,4.8C880.8,284.1,878.1,281.3,878.1,277.1z M888.7,275.7
			c-0.2-2.4-1.8-3.7-4.1-3.7c-2,0-3.9,1.5-4.1,3.7H888.7z"/>
		<path class="st2" d="M904.5,265h2.2v18.9h-1.9l-0.3-2.2c-0.9,1.3-2.4,2.4-4.7,2.4c-3.8,0-6.6-2.6-6.6-7c0-4.2,2.8-7,6.6-7
			c2.3,0,3.9,0.9,4.7,2.3V265z M904.5,277.1c0-3-1.8-5.1-4.5-5.1c-2.7,0-4.6,2.1-4.6,5.1s1.8,5.1,4.6,5.1
			C902.7,282.1,904.5,280,904.5,277.1z"/>
		<path class="st2" d="M909.8,286.3v-2.2h10.4v2.2H909.8z"/>
		<path class="st2" d="M936.9,277.1c0,4.2-2.8,7-6.6,7c-2.3,0-3.9-0.9-4.7-2.3l-0.3,2.1h-1.9V265h2.2v7.3c0.9-1.3,2.4-2.4,4.7-2.4
			C934.1,270,936.9,272.6,936.9,277.1z M934.6,277.1c0-3-1.8-5.1-4.6-5.1c-2.7,0-4.5,2.1-4.5,5c0,3,1.8,5.1,4.5,5.1
			C932.8,282.1,934.6,280,934.6,277.1z"/>
		<path class="st2" d="M952.3,281.9v2h-1.2c-1.8,0-2.5-0.8-2.5-2.1c-0.9,1.2-2.2,2.3-4.6,2.3c-3,0-5.1-1.5-5.1-4
			c0-2.8,1.9-4.3,5.5-4.3h4v-0.9c0-1.8-1.3-2.9-3.4-2.9c-1.9,0-3.2,0.9-3.5,2.3h-2.2c0.3-2.7,2.5-4.3,5.8-4.3c3.5,0,5.5,1.8,5.5,5v6
			c0,0.7,0.3,0.9,0.9,0.9H952.3z M948.5,277.6h-4.3c-2,0-3.1,0.7-3.1,2.3c0,1.3,1.2,2.3,3,2.3c2.8,0,4.3-1.6,4.3-3.9V277.6z"/>
		<path class="st2" d="M961,270.2v2.2h-1.1c-2.9,0-3.7,2.4-3.7,4.6v7H954v-13.8h1.9l0.3,2.1c0.6-1.1,1.7-2.1,4.2-2.1H961z"/>
		<path class="st2" d="M964.3,279.4c0.1,1.6,1.5,2.8,3.8,2.8c1.9,0,3.3-0.8,3.3-2.1c0-1.7-1.5-1.9-3.6-2.1c-3.1-0.4-5.5-1-5.5-3.9
			c0-2.5,2.3-4.2,5.4-4.1c3.1,0,5.4,1.5,5.6,4.3h-2.3c-0.2-1.4-1.5-2.5-3.3-2.5c-1.9,0-3.2,0.8-3.2,2.1c0,1.5,1.5,1.7,3.5,1.9
			c3.1,0.4,5.6,1,5.6,4c0,2.6-2.5,4.2-5.5,4.2c-3.6,0-6-1.7-6.1-4.7H964.3z"/>
	</g>
	<g>
		<path class="st2" d="M1264.5,265h2.2v18.9h-2.2V265z"/>
		<path class="st2" d="M1269.4,266.4c0-0.8,0.6-1.4,1.4-1.4s1.4,0.6,1.4,1.4c0,0.8-0.6,1.4-1.4,1.4S1269.4,267.3,1269.4,266.4z
			 M1269.7,270.2h2.2v13.8h-2.2V270.2z"/>
		<path class="st2" d="M1287.3,276.3v7.7h-2.2v-7.5c0-2.9-1.3-4.4-3.7-4.4c-2.6,0-4.2,1.9-4.2,5v6.9h-2.2v-13.8h1.9l0.3,1.9
			c0.8-1.1,2.2-2,4.5-2C1284.8,270,1287.3,271.7,1287.3,276.3z"/>
		<path class="st2" d="M1289.5,277.1c0-4.2,2.6-7,6.5-7s6.4,2.5,6.5,6.5c0,0.3,0,0.6-0.1,0.9h-10.7v0.2c0.1,2.6,1.7,4.5,4.3,4.5
			c1.9,0,3.5-1,3.9-2.8h2.2c-0.5,2.8-2.8,4.8-6,4.8C1292.2,284.1,1289.5,281.3,1289.5,277.1z M1300.2,275.7
			c-0.2-2.4-1.8-3.7-4.1-3.7c-2,0-3.9,1.5-4.1,3.7H1300.2z"/>
		<path class="st2" d="M1317.9,281.9v2h-1.2c-1.8,0-2.5-0.8-2.5-2.1c-0.9,1.2-2.2,2.3-4.6,2.3c-3,0-5.1-1.5-5.1-4
			c0-2.8,1.9-4.3,5.5-4.3h4v-0.9c0-1.8-1.3-2.9-3.4-2.9c-1.9,0-3.2,0.9-3.5,2.3h-2.2c0.3-2.7,2.5-4.3,5.8-4.3c3.5,0,5.5,1.8,5.5,5v6
			c0,0.7,0.3,0.9,0.9,0.9H1317.9z M1314.1,277.6h-4.3c-2,0-3.1,0.7-3.1,2.3c0,1.3,1.2,2.3,3,2.3c2.8,0,4.3-1.6,4.3-3.9V277.6z"/>
		<path class="st2" d="M1326.6,270.2v2.2h-1.1c-2.9,0-3.7,2.4-3.7,4.6v7h-2.2v-13.8h1.9l0.3,2.1c0.6-1.1,1.7-2.1,4.2-2.1H1326.6z"/>
		<path class="st2" d="M1326.7,286.3v-2.2h10.4v2.2H1326.7z"/>
		<path class="st2" d="M1353.7,277.1c0,4.2-2.8,7-6.6,7c-2.3,0-3.9-0.9-4.7-2.3l-0.3,2.1h-1.9V265h2.2v7.3c0.9-1.3,2.4-2.4,4.7-2.4
			C1350.9,270,1353.7,272.6,1353.7,277.1z M1351.5,277.1c0-3-1.8-5.1-4.6-5.1c-2.7,0-4.5,2.1-4.5,5c0,3,1.8,5.1,4.5,5.1
			C1349.6,282.1,1351.5,280,1351.5,277.1z"/>
		<path class="st2" d="M1369.1,281.9v2h-1.2c-1.8,0-2.5-0.8-2.5-2.1c-0.9,1.2-2.2,2.3-4.6,2.3c-3,0-5.1-1.5-5.1-4
			c0-2.8,1.9-4.3,5.5-4.3h4v-0.9c0-1.8-1.3-2.9-3.4-2.9c-1.9,0-3.2,0.9-3.5,2.3h-2.2c0.3-2.7,2.5-4.3,5.8-4.3c3.5,0,5.5,1.8,5.5,5v6
			c0,0.7,0.3,0.9,0.9,0.9H1369.1z M1365.3,277.6h-4.3c-2,0-3.1,0.7-3.1,2.3c0,1.3,1.2,2.3,3,2.3c2.8,0,4.3-1.6,4.3-3.9V277.6z"/>
		<path class="st2" d="M1377.8,270.2v2.2h-1.1c-2.9,0-3.7,2.4-3.7,4.6v7h-2.2v-13.8h1.9l0.3,2.1c0.6-1.1,1.7-2.1,4.2-2.1H1377.8z"/>
		<path class="st2" d="M1381.2,279.4c0.1,1.6,1.5,2.8,3.8,2.8c1.9,0,3.3-0.8,3.3-2.1c0-1.7-1.5-1.9-3.6-2.1c-3.1-0.4-5.5-1-5.5-3.9
			c0-2.5,2.3-4.2,5.4-4.1c3.1,0,5.4,1.5,5.6,4.3h-2.3c-0.2-1.4-1.5-2.5-3.3-2.5c-1.9,0-3.2,0.8-3.2,2.1c0,1.5,1.5,1.7,3.5,1.9
			c3.1,0.4,5.6,1,5.6,4c0,2.6-2.5,4.2-5.5,4.2c-3.6,0-6-1.7-6.1-4.7H1381.2z"/>
	</g>
	<g>
		<path class="st2" d="M1723.3,265h2.2v18.9h-1.9l-0.3-2.2c-0.9,1.3-2.4,2.4-4.7,2.4c-3.8,0-6.6-2.6-6.6-7c0-4.2,2.8-7,6.6-7
			c2.3,0,3.9,0.9,4.7,2.3V265z M1723.3,277.1c0-3-1.8-5.1-4.5-5.1c-2.7,0-4.6,2.1-4.6,5.1s1.8,5.1,4.6,5.1
			C1721.5,282.1,1723.3,280,1723.3,277.1z"/>
		<path class="st2" d="M1728.1,277.1c0-4.2,2.8-7,6.8-7c4,0,6.8,2.9,6.8,7c0,4.2-2.8,7-6.8,7
			C1730.9,284.1,1728.1,281.2,1728.1,277.1z M1739.5,277.1c0-2.9-1.8-5.1-4.6-5.1c-2.7,0-4.6,2.1-4.6,5.1c0,2.9,1.8,5.1,4.6,5.1
			C1737.6,282.1,1739.5,280,1739.5,277.1z"/>
		<path class="st2" d="M1756.6,276.3v7.7h-2.2v-7.5c0-2.9-1.3-4.4-3.7-4.4c-2.6,0-4.2,1.9-4.2,5v6.9h-2.2v-13.8h1.9l0.3,1.9
			c0.8-1.1,2.2-2,4.5-2C1754.1,270,1756.6,271.7,1756.6,276.3z"/>
		<path class="st2" d="M1769,270.2h2.2v13.8h-1.9l-0.3-1.8c-0.8,1-2.1,2-4.4,2c-3,0-5.4-1.7-5.4-6.3v-7.7h2.2v7.5
			c0,2.9,1.3,4.4,3.6,4.4c2.5,0,4-1.9,4-5V270.2z"/>
		<path class="st2" d="M1775.4,272.2h-2.5v-2h2.5v-3.9h2.2v3.9h3.6v2h-3.6v8.1c0,1.2,0.4,1.6,1.6,1.6h2.2v2h-2.4
			c-2.6,0-3.6-1.2-3.6-3.6V272.2z"/>
	</g>
	<g>
		<path class="st2" d="M78.4,689.1c0,4.2-2.8,7-6.6,7c-2.3,0-3.9-0.9-4.7-2.3l-0.3,2.1h-1.9V677h2.2v7.3c0.9-1.3,2.4-2.4,4.7-2.4
			C75.6,682,78.4,684.6,78.4,689.1z M76.1,689.1c0-3-1.8-5.1-4.6-5.1c-2.7,0-4.5,2.1-4.5,5c0,3,1.8,5.1,4.5,5.1
			C74.3,694.1,76.1,692,76.1,689.1z"/>
		<path class="st2" d="M90.6,682.2h2.2v13.8h-1.9l-0.3-1.8c-0.8,1-2.1,2-4.4,2c-3,0-5.4-1.7-5.4-6.3v-7.7H83v7.5
			c0,2.9,1.3,4.4,3.6,4.4c2.5,0,4-1.9,4-5V682.2z"/>
		<path class="st2" d="M109.4,689.1c0,4.2-2.8,7-6.6,7c-2.3,0-3.9-0.9-4.7-2.3l-0.3,2.1h-1.9V677H98v7.3c0.9-1.3,2.4-2.4,4.7-2.4
			C106.6,682,109.4,684.6,109.4,689.1z M107.1,689.1c0-3-1.8-5.1-4.6-5.1c-2.7,0-4.5,2.1-4.5,5c0,3,1.8,5.1,4.5,5.1
			C105.3,694.1,107.1,692,107.1,689.1z"/>
		<path class="st2" d="M125.5,689.1c0,4.2-2.8,7-6.6,7c-2.3,0-3.9-0.9-4.7-2.3l-0.3,2.1h-1.9V677h2.2v7.3c0.9-1.3,2.4-2.4,4.7-2.4
			C122.7,682,125.5,684.6,125.5,689.1z M123.2,689.1c0-3-1.8-5.1-4.6-5.1c-2.7,0-4.5,2.1-4.5,5c0,3,1.8,5.1,4.5,5.1
			C121.4,694.1,123.2,692,123.2,689.1z"/>
		<path class="st2" d="M128,677h2.2v18.9H128V677z"/>
		<path class="st2" d="M132.8,689.1c0-4.2,2.6-7,6.5-7c3.9,0,6.4,2.5,6.5,6.5c0,0.3,0,0.6-0.1,0.9h-10.7v0.2
			c0.1,2.6,1.7,4.5,4.3,4.5c1.9,0,3.5-1,3.9-2.8h2.2c-0.5,2.8-2.8,4.8-6,4.8C135.5,696.1,132.8,693.3,132.8,689.1z M143.5,687.7
			c-0.2-2.4-1.8-3.7-4.1-3.7c-2,0-3.9,1.5-4.1,3.7H143.5z"/>
		<path class="st2" d="M150,691.4c0.1,1.6,1.5,2.8,3.8,2.8c1.9,0,3.3-0.8,3.3-2.1c0-1.7-1.5-1.9-3.6-2.1c-3.1-0.4-5.5-1-5.5-3.9
			c0-2.5,2.3-4.2,5.4-4.1c3.1,0,5.4,1.5,5.6,4.3h-2.3c-0.2-1.4-1.5-2.5-3.3-2.5c-1.9,0-3.2,0.8-3.2,2.1c0,1.5,1.5,1.7,3.5,1.9
			c3.1,0.4,5.6,1,5.6,4c0,2.6-2.5,4.2-5.5,4.2c-3.6,0-6-1.7-6.1-4.7H150z"/>
	</g>
	<g>
		<path class="st2" d="M405,691.4c0.1,1.6,1.5,2.8,3.8,2.8c1.9,0,3.3-0.8,3.3-2.1c0-1.7-1.5-1.9-3.6-2.1c-3.1-0.4-5.5-1-5.5-3.9
			c0-2.5,2.3-4.2,5.4-4.1c3.1,0,5.4,1.5,5.6,4.3h-2.3c-0.2-1.4-1.5-2.5-3.3-2.5c-1.9,0-3.2,0.8-3.2,2.1c0,1.5,1.5,1.7,3.5,1.9
			c3.1,0.4,5.6,1,5.6,4c0,2.6-2.5,4.2-5.5,4.2c-3.6,0-6-1.7-6.1-4.7H405z"/>
		<path class="st2" d="M417.8,684.2h-2.5v-2h2.5v-3.9h2.2v3.9h3.6v2H420v8.1c0,1.2,0.4,1.6,1.6,1.6h2.2v2h-2.4
			c-2.6,0-3.6-1.2-3.6-3.6V684.2z"/>
		<path class="st2" d="M438.4,693.9v2h-1.2c-1.8,0-2.5-0.8-2.5-2.1c-0.9,1.2-2.2,2.3-4.6,2.3c-3,0-5.1-1.5-5.1-4
			c0-2.8,1.9-4.3,5.5-4.3h4v-0.9c0-1.8-1.3-2.9-3.4-2.9c-1.9,0-3.2,0.9-3.5,2.3h-2.2c0.3-2.7,2.5-4.3,5.8-4.3c3.5,0,5.5,1.8,5.5,5v6
			c0,0.7,0.3,0.9,0.9,0.9H438.4z M434.6,689.6h-4.3c-2,0-3.1,0.7-3.1,2.3c0,1.3,1.2,2.3,3,2.3c2.8,0,4.3-1.6,4.3-3.9V689.6z"/>
		<path class="st2" d="M439.4,689.1c0-4.2,2.7-7.1,6.7-7.1c3.4,0,5.5,1.9,6.1,4.9h-2.3c-0.4-1.8-1.8-2.9-3.8-2.9
			c-2.6,0-4.4,2.1-4.4,5.1c0,3,1.8,5,4.4,5c2,0,3.3-1.1,3.8-2.9h2.3c-0.5,3-2.8,4.9-6.1,4.9C442.1,696.1,439.4,693.4,439.4,689.1z"
			/>
		<path class="st2" d="M454.7,677h2.2v12.4l6.9-7.3h2.7l-5.4,5.7l5.7,8.1h-2.7l-4.6-6.5l-2.8,2.9v3.6h-2.2V677z"/>
		<path class="st2" d="M467.2,689.1c0-4.2,2.6-7,6.5-7c3.9,0,6.4,2.5,6.5,6.5c0,0.3,0,0.6-0.1,0.9h-10.7v0.2
			c0.1,2.6,1.7,4.5,4.3,4.5c1.9,0,3.5-1,3.9-2.8h2.2c-0.5,2.8-2.8,4.8-6,4.8C469.9,696.1,467.2,693.3,467.2,689.1z M477.9,687.7
			c-0.2-2.4-1.8-3.7-4.1-3.7c-2,0-3.9,1.5-4.1,3.7H477.9z"/>
		<path class="st2" d="M493.6,677h2.2v18.9h-1.9l-0.3-2.2c-0.9,1.3-2.4,2.4-4.7,2.4c-3.8,0-6.6-2.6-6.6-7c0-4.2,2.8-7,6.6-7
			c2.3,0,3.9,0.9,4.7,2.3V677z M493.7,689.1c0-3-1.8-5.1-4.5-5.1c-2.7,0-4.6,2.1-4.6,5.1s1.8,5.1,4.6,5.1
			C491.8,694.1,493.7,692,493.7,689.1z"/>
		<path class="st2" d="M499,698.3v-2.2h10.4v2.2H499z"/>
		<path class="st2" d="M524.3,693.9v2h-1.2c-1.8,0-2.5-0.8-2.5-2.1c-0.9,1.2-2.2,2.3-4.6,2.3c-3,0-5.1-1.5-5.1-4
			c0-2.8,1.9-4.3,5.5-4.3h4v-0.9c0-1.8-1.3-2.9-3.4-2.9c-1.9,0-3.2,0.9-3.5,2.3h-2.2c0.3-2.7,2.5-4.3,5.8-4.3c3.5,0,5.5,1.8,5.5,5v6
			c0,0.7,0.3,0.9,0.9,0.9H524.3z M520.5,689.6h-4.3c-2,0-3.1,0.7-3.1,2.3c0,1.3,1.2,2.3,3,2.3c2.8,0,4.3-1.6,4.3-3.9V689.6z"/>
		<path class="st2" d="M533,682.2v2.2h-1.1c-2.9,0-3.7,2.4-3.7,4.6v7H526v-13.8h1.9l0.3,2.1c0.6-1.1,1.7-2.1,4.2-2.1H533z"/>
		<path class="st2" d="M533.6,689.1c0-4.2,2.6-7,6.5-7c3.9,0,6.4,2.5,6.5,6.5c0,0.3,0,0.6-0.1,0.9H536v0.2c0.1,2.6,1.7,4.5,4.3,4.5
			c1.9,0,3.5-1,3.9-2.8h2.2c-0.5,2.8-2.8,4.8-6,4.8C536.3,696.1,533.6,693.3,533.6,689.1z M544.3,687.7c-0.2-2.4-1.8-3.7-4.1-3.7
			c-2,0-3.9,1.5-4.1,3.7H544.3z"/>
		<path class="st2" d="M562.1,693.9v2h-1.2c-1.8,0-2.5-0.8-2.5-2.1c-0.9,1.2-2.2,2.3-4.6,2.3c-3,0-5.1-1.5-5.1-4
			c0-2.8,1.9-4.3,5.5-4.3h4v-0.9c0-1.8-1.3-2.9-3.4-2.9c-1.9,0-3.2,0.9-3.5,2.3h-2.2c0.3-2.7,2.5-4.3,5.8-4.3c3.5,0,5.5,1.8,5.5,5v6
			c0,0.7,0.3,0.9,0.9,0.9H562.1z M558.3,689.6H554c-2,0-3.1,0.7-3.1,2.3c0,1.3,1.2,2.3,3,2.3c2.8,0,4.3-1.6,4.3-3.9V689.6z"/>
	</g>
	<g>
		<path class="st2" d="M848.6,693.9v2h-1.2c-1.8,0-2.5-0.8-2.5-2.1c-0.9,1.2-2.2,2.3-4.6,2.3c-3,0-5.1-1.5-5.1-4
			c0-2.8,1.9-4.3,5.5-4.3h4v-0.9c0-1.8-1.3-2.9-3.4-2.9c-1.9,0-3.2,0.9-3.5,2.3h-2.2c0.3-2.7,2.5-4.3,5.8-4.3c3.5,0,5.5,1.8,5.5,5v6
			c0,0.7,0.3,0.9,0.9,0.9H848.6z M844.8,689.6h-4.3c-2,0-3.1,0.7-3.1,2.3c0,1.3,1.2,2.3,3,2.3c2.8,0,4.3-1.6,4.3-3.9V689.6z"/>
		<path class="st2" d="M857.3,682.2v2.2h-1.1c-2.9,0-3.7,2.4-3.7,4.6v7h-2.2v-13.8h1.9l0.3,2.1c0.6-1.1,1.7-2.1,4.2-2.1H857.3z"/>
		<path class="st2" d="M857.9,689.1c0-4.2,2.6-7,6.5-7c3.9,0,6.4,2.5,6.5,6.5c0,0.3,0,0.6-0.1,0.9h-10.7v0.2
			c0.1,2.6,1.7,4.5,4.3,4.5c1.9,0,3.5-1,3.9-2.8h2.2c-0.5,2.8-2.8,4.8-6,4.8C860.6,696.1,857.9,693.3,857.9,689.1z M868.6,687.7
			c-0.2-2.4-1.8-3.7-4.1-3.7c-2,0-3.9,1.5-4.1,3.7H868.6z"/>
		<path class="st2" d="M886.4,693.9v2h-1.2c-1.8,0-2.5-0.8-2.5-2.1c-0.9,1.2-2.2,2.3-4.6,2.3c-3,0-5.1-1.5-5.1-4
			c0-2.8,1.9-4.3,5.5-4.3h4v-0.9c0-1.8-1.3-2.9-3.4-2.9c-1.9,0-3.2,0.9-3.5,2.3h-2.2c0.3-2.7,2.5-4.3,5.8-4.3c3.5,0,5.5,1.8,5.5,5v6
			c0,0.7,0.3,0.9,0.9,0.9H886.4z M882.6,689.6h-4.3c-2,0-3.1,0.7-3.1,2.3c0,1.3,1.2,2.3,3,2.3c2.8,0,4.3-1.6,4.3-3.9V689.6z"/>
		<path class="st2" d="M888.2,698.3v-2.2h10.4v2.2H888.2z"/>
		<path class="st2" d="M922.2,688v7.9H920v-7.8c0-2.7-1.2-4.1-3.3-4.1c-2.3,0-3.7,1.7-3.7,4.5v7.4h-2.2v-7.8c0-2.7-1.2-4.1-3.3-4.1
			c-2.3,0-3.6,1.9-3.6,4.6v7.3h-2.2v-13.8h1.9l0.3,1.9c0.7-1,1.9-2.1,4-2.1c1.9,0,3.6,0.9,4.3,2.6c0.8-1.5,2.3-2.6,4.8-2.6
			C919.9,682,922.2,683.7,922.2,688z"/>
		<path class="st2" d="M938,693.9v2h-1.2c-1.8,0-2.5-0.8-2.5-2.1c-0.9,1.2-2.2,2.3-4.6,2.3c-3,0-5.1-1.5-5.1-4
			c0-2.8,1.9-4.3,5.5-4.3h4v-0.9c0-1.8-1.3-2.9-3.4-2.9c-1.9,0-3.2,0.9-3.5,2.3H925c0.3-2.7,2.5-4.3,5.8-4.3c3.5,0,5.5,1.8,5.5,5v6
			c0,0.7,0.3,0.9,0.9,0.9H938z M934.2,689.6h-4.3c-2,0-3.1,0.7-3.1,2.3c0,1.3,1.2,2.3,3,2.3c2.8,0,4.3-1.6,4.3-3.9V689.6z"/>
		<path class="st2" d="M953.2,689.1c0,4.2-2.8,7-6.6,7c-2.3,0-3.9-0.9-4.7-2.3v7.5h-2.2v-19.2h1.9l0.3,2.2c0.9-1.3,2.4-2.4,4.7-2.4
			C950.4,682,953.2,684.6,953.2,689.1z M950.9,689.1c0-3-1.8-5.1-4.6-5.1c-2.7,0-4.5,2.1-4.5,5c0,3,1.8,5.1,4.5,5.1
			C949.1,694.1,950.9,692,950.9,689.1z"/>
	</g>
	<g>
		<path class="st2" d="M1283.2,684.2h-2.5v-2h2.5v-3.9h2.2v3.9h3.6v2h-3.6v8.1c0,1.2,0.4,1.6,1.6,1.6h2.2v2h-2.4
			c-2.6,0-3.6-1.2-3.6-3.6V684.2z"/>
		<path class="st2" d="M1290.8,678.4c0-0.8,0.6-1.4,1.4-1.4c0.8,0,1.4,0.6,1.4,1.4c0,0.8-0.6,1.4-1.4,1.4
			C1291.4,679.8,1290.8,679.3,1290.8,678.4z M1291.1,682.2h2.2v13.8h-2.2V682.2z"/>
		<path class="st2" d="M1316.9,688v7.9h-2.2v-7.8c0-2.7-1.2-4.1-3.3-4.1c-2.3,0-3.7,1.7-3.7,4.5v7.4h-2.2v-7.8
			c0-2.7-1.2-4.1-3.3-4.1c-2.3,0-3.6,1.9-3.6,4.6v7.3h-2.2v-13.8h1.9l0.3,1.9c0.7-1,1.9-2.1,4-2.1c1.9,0,3.6,0.9,4.3,2.6
			c0.8-1.5,2.3-2.6,4.8-2.6C1314.5,682,1316.9,683.7,1316.9,688z"/>
		<path class="st2" d="M1319.1,689.1c0-4.2,2.6-7,6.5-7s6.4,2.5,6.5,6.5c0,0.3,0,0.6-0.1,0.9h-10.7v0.2c0.1,2.6,1.7,4.5,4.3,4.5
			c1.9,0,3.5-1,3.9-2.8h2.2c-0.5,2.8-2.8,4.8-6,4.8C1321.8,696.1,1319.1,693.3,1319.1,689.1z M1329.8,687.7
			c-0.2-2.4-1.8-3.7-4.1-3.7c-2,0-3.9,1.5-4.1,3.7H1329.8z"/>
		<path class="st2" d="M1334.7,677h2.2v18.9h-2.2V677z"/>
		<path class="st2" d="M1339.6,678.4c0-0.8,0.6-1.4,1.4-1.4c0.8,0,1.4,0.6,1.4,1.4c0,0.8-0.6,1.4-1.4,1.4
			C1340.3,679.8,1339.6,679.3,1339.6,678.4z M1339.9,682.2h2.2v13.8h-2.2V682.2z"/>
		<path class="st2" d="M1357.5,688.3v7.7h-2.2v-7.5c0-2.9-1.3-4.4-3.7-4.4c-2.6,0-4.2,1.9-4.2,5v6.9h-2.2v-13.8h1.9l0.3,1.9
			c0.8-1.1,2.2-2,4.5-2C1355,682,1357.5,683.7,1357.5,688.3z"/>
		<path class="st2" d="M1359.7,689.1c0-4.2,2.6-7,6.5-7c3.9,0,6.4,2.5,6.5,6.5c0,0.3,0,0.6-0.1,0.9H1362v0.2
			c0.1,2.6,1.7,4.5,4.3,4.5c1.9,0,3.5-1,3.9-2.8h2.2c-0.5,2.8-2.8,4.8-6,4.8C1362.4,696.1,1359.7,693.3,1359.7,689.1z M1370.4,687.7
			c-0.2-2.4-1.8-3.7-4.1-3.7c-2,0-3.9,1.5-4.1,3.7H1370.4z"/>
	</g>
	<g>
		<path class="st2" d="M1695.7,682.2h2.3l3.4,11.2l3.6-11.2h2.1l3.4,11.2l3.6-11.2h2.2l-4.6,13.8h-2.4l-3.3-10.2l-3.5,10.2h-2.4
			L1695.7,682.2z"/>
		<path class="st2" d="M1730.5,693.9v2h-1.2c-1.8,0-2.5-0.8-2.5-2.1c-0.9,1.2-2.2,2.3-4.6,2.3c-3,0-5.1-1.5-5.1-4
			c0-2.8,1.9-4.3,5.5-4.3h4v-0.9c0-1.8-1.3-2.9-3.4-2.9c-1.9,0-3.2,0.9-3.5,2.3h-2.2c0.3-2.7,2.5-4.3,5.8-4.3c3.5,0,5.5,1.8,5.5,5v6
			c0,0.7,0.3,0.9,0.9,0.9H1730.5z M1726.7,689.6h-4.3c-2,0-3.1,0.7-3.1,2.3c0,1.3,1.2,2.3,3,2.3c2.8,0,4.3-1.6,4.3-3.9V689.6z"/>
		<path class="st2" d="M1733.2,684.2h-2.5v-2h2.5v-3.9h2.2v3.9h3.6v2h-3.6v8.1c0,1.2,0.4,1.6,1.6,1.6h2.2v2h-2.4
			c-2.6,0-3.6-1.2-3.6-3.6V684.2z"/>
		<path class="st2" d="M1740.3,689.1c0-4.2,2.6-7,6.5-7s6.4,2.5,6.5,6.5c0,0.3,0,0.6-0.1,0.9h-10.7v0.2c0.1,2.6,1.7,4.5,4.3,4.5
			c1.9,0,3.5-1,3.9-2.8h2.2c-0.5,2.8-2.8,4.8-6,4.8C1743,696.1,1740.3,693.3,1740.3,689.1z M1751,687.7c-0.2-2.4-1.8-3.7-4.1-3.7
			c-2,0-3.9,1.5-4.1,3.7H1751z"/>
		<path class="st2" d="M1762.9,682.2v2.2h-1.1c-2.9,0-3.7,2.4-3.7,4.6v7h-2.2v-13.8h1.9l0.3,2.1c0.6-1.1,1.7-2.1,4.2-2.1H1762.9z"/>
		<path class="st2" d="M1763.9,682.2h2.5v-1.5c0-2.4,1-3.6,3.6-3.6h2.5v2h-2.4c-1.1,0-1.5,0.5-1.5,1.5v1.6h3.9v2h-3.9v11.7h-2.2
			v-11.7h-2.5V682.2z"/>
		<path class="st2" d="M1786.5,693.9v2h-1.2c-1.8,0-2.5-0.8-2.5-2.1c-0.9,1.2-2.2,2.3-4.6,2.3c-3,0-5.1-1.5-5.1-4
			c0-2.8,1.9-4.3,5.5-4.3h4v-0.9c0-1.8-1.3-2.9-3.4-2.9c-1.9,0-3.2,0.9-3.5,2.3h-2.2c0.3-2.7,2.5-4.3,5.8-4.3c3.5,0,5.5,1.8,5.5,5v6
			c0,0.7,0.3,0.9,0.9,0.9H1786.5z M1782.7,689.6h-4.3c-2,0-3.1,0.7-3.1,2.3c0,1.3,1.2,2.3,3,2.3c2.8,0,4.3-1.6,4.3-3.9V689.6z"/>
		<path class="st2" d="M1788.2,677h2.2v18.9h-2.2V677z"/>
		<path class="st2" d="M1793.5,677h2.2v18.9h-2.2V677z"/>
	</g>
</g>
</svg>
