<?xml version="1.0" encoding="utf-8"?>
<!-- Generator: Adobe Illustrator 22.0.0, SVG Export Plug-In . SVG Version: 6.00 Build 0)  -->
<svg version="1.1" id="Layer_1" xmlns="http://www.w3.org/2000/svg" xmlns:xlink="http://www.w3.org/1999/xlink" x="0px" y="0px"
	 viewBox="0 0 2000 1400" style="enable-background:new 0 0 2000 1400;" xml:space="preserve">
<style type="text/css">
	.st0{display:none;}
	.st1{display:inline;fill:#1B1B2D;}
	.st2{display:inline;}
	.st3{fill:#FFFFFF;}
	.st4{fill:#1B1B2D;}
</style>
<g id="Layer_2_1_" class="st0">
	<rect class="st1" width="2000" height="2000"/>
	<g class="st2">
		<g>
			<path class="st3" d="M584.8,976.5c0,35.9-11.1,70.9-31.9,100.3c-20.7,29.3-50.1,51.5-84,63.5v-41.7c23.2-11,42.7-28.3,56.4-49.9
				s21-46.7,20.9-72.3c0-25.6-7.3-50.7-21-72.3s-33.3-38.9-56.5-49.8v-41.7c33.9,12,63.3,34.2,84,63.5
				C573.6,905.6,584.7,940.6,584.8,976.5z"/>
			<rect x="275.5" y="957.2" class="st3" width="154.6" height="38.6"/>
			<path class="st3" d="M507.4,976.5c0-12.7-2.5-25.2-7.4-36.9s-12-22.4-20.9-31.3c-9-9-19.6-16.1-31.4-20.9
				c-11.7-4.8-24.3-7.3-37-7.3h-57.9v38.6h115.9v115.8h-116v38.6h57.9c12.7,0,25.3-2.5,37-7.3s22.4-12,31.4-20.9
				c9-9,16.1-19.6,21-31.3C504.9,1001.8,507.4,989.2,507.4,976.5z"/>
		</g>
		<g>
			<g>
				<path class="st3" d="M925.5,1125.6c-22,0-41.8-4.4-59.3-13.3c-17.6-8.8-32.1-20.8-43.6-36c-11.5-15.1-19.3-32-23.3-50.5h44.2
					c3.8,11.5,9.4,21.7,17.1,30.6c7.6,8.8,17,15.8,28.1,20.7c11.1,5,23.4,7.4,36.8,7.4c15.8,0,30.3-3.7,43.4-11.1
					c13.1-7.4,23.7-17.6,31.8-30.6c8-13,12.9-27.4,14.5-43.2H891.7v-39h123.4c-1.6-15.5-6.4-29.7-14.5-42.4
					c-8-12.7-18.6-22.8-31.8-30.2c-13.1-7.4-27.6-11.1-43.4-11.1c-19.8,0-37,5.3-51.5,15.9c-14.5,10.6-24.7,24.2-30.6,40.8h-44.2
					c4.8-18,13.1-34.4,24.7-49.3c11.7-14.9,26.2-26.7,43.6-35.4c17.4-8.7,36.7-13.1,57.9-13.1c24.7,0,47.4,6.2,68.2,18.5
					s37.1,29.5,49.1,51.5c11.9,22,17.9,46.9,17.9,74.8c0,27.9-6,52.8-17.9,74.8s-28.3,39.1-49.1,51.5
					C972.8,1119.5,950.1,1125.6,925.5,1125.6z"/>
				<path class="st3" d="M1082.7,1124v-39h10.9c7.8,0,14-2.3,18.7-6.8c4.7-4.6,7.4-11.9,8.2-22.1l11.3-136.7h143.9v202.2h-40.2
					V956.8h-66.3l-9.2,103.3c-1.9,21.4-7.8,37.5-17.9,48c-10.1,10.6-24.9,15.9-44.4,15.9H1082.7z"/>
				<path class="st3" d="M1368.9,1121.6V956.8h-66.3v-37.4h173.3v37.4h-66.3v164.8H1368.9z"/>
				<path class="st3" d="M1565.5,1125.6c-14.5,0-27.1-2.8-38-8.2c-10.9-5.5-19.2-12.9-25.1-22.3s-8.8-20.1-8.8-32.2
					c0-13.1,2.9-24.5,8.8-34.2c5.9-9.6,14.9-17.2,27.1-22.7s27.4-8.2,45.6-8.2h51.5v-5.2c0-13.1-3.8-23.5-11.5-31.2
					c-7.6-7.6-18-11.5-31.2-11.5c-12.3,0-22.3,2.8-30,8.4c-7.6,5.6-12.1,12.5-13.5,20.5h-40.2c1.1-11,5-21.4,11.7-31.2
					s16.2-17.6,28.5-23.5s26.8-8.8,43.4-8.8c16.9,0,31.6,3.2,44,9.4c12.5,6.3,22,15.3,28.7,26.9c6.7,11.7,10.1,25.3,10.1,40.8v129.1
					h-35l-4-22.1h-2c-4.6,6.7-12.2,12.7-22.9,18.1C1592.2,1123,1579.7,1125.6,1565.5,1125.6z M1570,1091.1c11.5,0,21.6-2.2,30.2-6.6
					s15.1-10.7,19.7-18.9c4.6-8.2,6.8-17.8,6.8-28.7v-6.8H1578c-15,0-26.1,2.9-33.2,8.6c-7.1,5.8-10.7,13.3-10.7,22.7
					c0,8.8,3.1,16,9.2,21.5C1549.6,1088.3,1558.4,1091.1,1570,1091.1z"/>
			</g>
		</g>
	</g>
</g>
<rect class="st3" width="2000" height="1400"/>
<g>
	<g>
		<path class="st4" d="M738.6,700c0,26.6-8.2,52.5-23.6,74.3c-15.4,21.7-37.1,38.2-62.2,47v-30.8c17.2-8.1,31.6-20.9,41.8-37
			c10.1-16.1,15.5-34.6,15.5-53.5s-5.4-37.5-15.6-53.5c-10.1-16.1-24.6-28.8-41.8-36.9v-30.8c25.1,8.9,46.9,25.3,62.3,47
			C730.3,647.4,738.6,673.5,738.6,700z"/>
		<rect x="509.5" y="685.7" class="st4" width="114.5" height="28.6"/>
		<path class="st4" d="M681.3,700c0-9.4-1.8-18.7-5.4-27.4s-8.9-16.5-15.5-23.2c-6.6-6.6-14.6-11.9-23.2-15.5s-18-5.4-27.4-5.4
			h-42.9V657h85.9v85.8h-85.9v28.6h42.9c9.4,0,18.7-1.8,27.4-5.4c8.7-3.6,16.6-8.9,23.2-15.5s11.9-14.5,15.5-23.2
			C679.5,718.7,681.3,709.4,681.3,700z"/>
	</g>
	<g>
		<path class="st4" d="M938.3,792.4c-14,0-26.7-2.8-37.9-8.5c-11.2-5.7-20.5-13.3-27.9-23c-7.4-9.7-12.3-20.4-14.9-32.2h28.3
			c2.4,7.4,6,13.9,10.9,19.5c4.9,5.7,10.9,10.1,18,13.2c7.1,3.2,14.9,4.8,23.5,4.8c10.1,0,19.4-2.4,27.8-7.1
			c8.4-4.7,15.2-11.2,20.3-19.5c5.1-8.3,8.2-17.5,9.3-27.6h-78.9V687h78.9c-1-9.9-4.1-19-9.3-27.1c-5.1-8.1-11.9-14.6-20.3-19.3
			c-8.4-4.7-17.6-7.1-27.8-7.1c-12.7,0-23.6,3.4-32.9,10.1c-9.3,6.8-15.8,15.5-19.5,26.1h-28.3c3.1-11.5,8.4-22,15.8-31.5
			c7.5-9.5,16.7-17,27.9-22.6c11.1-5.6,23.5-8.4,37-8.4c15.8,0,30.3,3.9,43.6,11.8c13.3,7.9,23.7,18.8,31.3,32.9
			c7.6,14,11.4,30,11.4,47.8c0,17.8-3.8,33.7-11.4,47.8c-7.6,14-18.1,25-31.3,32.9C968.5,788.5,954,792.4,938.3,792.4z"/>
		<path class="st4" d="M1025.7,791.1v-27h8c5.7,0,10.1-1.7,13.5-5.1c3.3-3.4,5.4-8.6,6-15.7l11-133.4h116.7v179.9h-27.5V636.2h-63.7
			l-9.5,110.7c-1.2,14.9-5.5,26-12.8,33.3c-7.4,7.3-17.7,10.9-31.1,10.9H1025.7z"/>
		<path class="st4" d="M1252.7,789.8V636.2h-56.3V610h139.8v26.2H1280v153.7H1252.7z"/>
		<path class="st4" d="M1318.4,789.8l66-179.9h40.3l65.8,179.9H1461L1407,639h-5.1l-54,150.8H1318.4z M1358.2,746.9v-24.7h93.5v24.7
			H1358.2z"/>
	</g>
</g>
</svg>
