<?xml version="1.0" encoding="utf-8"?>
<!-- Generator: Adobe Illustrator 22.0.0, SVG Export Plug-In . SVG Version: 6.00 Build 0)  -->
<svg version="1.1" xmlns="http://www.w3.org/2000/svg" xmlns:xlink="http://www.w3.org/1999/xlink" x="0px" y="0px"
	 viewBox="0 0 1920 437.5" style="enable-background:new 0 0 1920 437.5;" xml:space="preserve">
<style type="text/css">
	.st0{display:none;}
	.st1{display:inline;}
	.st2{fill:#D1D1D5;}
	.st3{fill:#868690;}
	.st4{fill:#1B1B2D;}
	.st5{fill:#A4A4AB;}
	.st6{fill:#E8E8EA;}
	.st7{fill:#FFFFFF;}
	.st8{display:inline;fill:#1B1B2D;}
	.st9{font-family:'AeonikPro-Regular';}
	.st10{font-size:27px;}
	.st11{fill:#738CEA;}
	.st12{fill:#E6E7E7;}
	.st13{fill:#D63318;}
	.st14{fill:#F7D6D1;}
	.st15{fill:#5AA358;}
	.st16{fill:#31772D;}
	.st17{fill:none;stroke:#738CEA;stroke-miterlimit:10;}
</style>
<g id="Layer_1" class="st0">
	<g class="st1">
		<path class="st2" d="M0,111.8c0,61.8,50,111.8,111.8,111.8s111.8-50,111.8-111.8H0z"/>
		<path class="st3" d="M0,111.8h111.8V0C50,0,0,50,0,111.8z"/>
		<path class="st4" d="M111.8,0v111.8h111.8C223.6,50,173.6,0,111.8,0z"/>
	</g>
	<g class="st1">
		<polygon class="st4" points="482,0 370.2,0 370.2,223.6 482,223.6 482,111.8 		"/>
		<rect x="482" class="st2" width="111.8" height="111.8"/>
		<rect x="482" y="111.8" class="st3" width="111.8" height="111.8"/>
	</g>
	<g class="st1">
		<rect x="744.7" y="157.9" class="st3" width="257.2" height="33.5"/>
		<rect x="744.7" y="95" class="st4" width="299.1" height="33.5"/>
		<rect x="744.7" y="32.1" class="st2" width="178.9" height="33.5"/>
	</g>
	<g class="st1">
		<rect x="1373.3" y="31.3" class="st3" width="33.5" height="192.3"/>
		<rect x="1310.4" class="st4" width="33.5" height="223.6"/>
		<rect x="1247.5" y="89.7" class="st2" width="33.5" height="133.8"/>
	</g>
	<g class="st1">
		<g>
			<path class="st4" d="M758.8,593.2c-1.7,0-3.4-1-4.3-2.5c-1.3-2.4-0.4-5.3,2-6.6l117.8-63.9l44,13.7l98.5-91.7
				c2-1.8,5-1.7,6.8,0.3c1.8,2,1.7,5-0.3,6.8l-102.7,95.6l-45.4-14.3L761,592.6C760.3,592.9,759.6,593.2,758.8,593.2z"/>
		</g>
		<g>
			<g>
				<path class="st3" d="M871.8,573.6l-1-0.3l-113.2-25.2c-2.7-0.6-4.3-3.2-3.8-5.9c0.6-2.7,3.2-4.3,5.9-3.8L872,563.4l152.8-28.9
					c2.7-0.6,5.2,1.3,5.7,3.9s-1.3,5.2-3.9,5.7L871.8,573.6z"/>
			</g>
		</g>
		<g>
			<path class="st2" d="M758.8,615.5c-2.2,0-4.3-1.5-4.8-3.9c-0.6-2.7,1.1-5.3,3.8-5.9l94.9-20.7l41.8-44.7l59,25.3l73.1-65
				c2-1.8,5.2-1.7,6.8,0.4c1.8,2,1.7,5.2-0.4,6.8l-77.8,69.2l-58.4-25L857.4,594l-98,21.2C759.5,615.4,759,615.5,758.8,615.5z"/>
		</g>
	</g>
	<g class="st1">
		<path class="st4" d="M1796.9,61.6c12.9,12.9,20.7,30.6,20.7,50.2c0,39.4-31.9,71.3-71.3,71.3c-19.6,0-37.3-8-50.2-20.7l-28.7,28.7
			c20.3,20.1,48.1,32.6,78.8,32.6c61.8,0,111.8-50,111.8-111.8c0-30.7-12.4-58.7-32.6-78.8L1796.9,61.6z"/>
		<path class="st5" d="M1675.1,111.8h-40.5c0,31,12.6,59,33,79.2l28.7-28.7C1683.2,149.4,1675.1,131.5,1675.1,111.8z"/>
		<path class="st6" d="M1746.4,40.5c19.7,0,37.6,8.1,50.6,21.1l28.7-28.7c-20.3-20.4-48.2-33-79.2-33c-0.3,0-0.4,0-0.7,0v40.5
			C1745.9,40.5,1746.1,40.5,1746.4,40.5z"/>
		<path class="st3" d="M1745.7,40.5V0c-61.5,0.4-111.1,50.3-111.1,111.8h40.5C1675.1,72.7,1706.7,41,1745.7,40.5z"/>
	</g>
	<g class="st1">
		<g>
			<path class="st4" d="M1308,532.6h-62.9c-2.7,0-4.9-2.2-4.9-4.9c0-2.7,2.2-4.9,4.9-4.9h62.9c2.7,0,4.9,2.2,4.9,4.9
				C1312.9,530.4,1310.6,532.6,1308,532.6z"/>
		</g>
		<g>
			<path class="st3" d="M1517.6,532.6h-74.1c-2.7,0-4.9-2.2-4.9-4.9c0-2.7,2.2-4.9,4.9-4.9h74.1c2.7,0,4.9,2.2,4.9,4.9
				C1522.5,530.4,1520.3,532.6,1517.6,532.6z"/>
		</g>
		<g>
			<path class="st3" d="M1403,572.9c-24.6,0-44.7-20.1-44.7-44.7c0-24.6,20.1-44.7,44.7-44.7c24.6,0,44.7,20.1,44.7,44.7
				C1447.7,552.8,1427.6,572.9,1403,572.9z M1403,493.2c-19.3,0-34.9,15.7-34.9,34.9c0,19.3,15.7,34.9,34.9,34.9
				c19.3,0,34.9-15.7,34.9-34.9C1438,508.9,1422.3,493.2,1403,493.2z"/>
		</g>
		<g>
			<g>
				<path class="st2" d="M1347.8,572.9c-24.6,0-44.7-20.1-44.7-44.7c0-24.6,20.1-44.7,44.7-44.7c24.6,0,44.7,20.1,44.7,44.7
					C1392.5,552.8,1372.4,572.9,1347.8,572.9z M1347.8,493.2c-19.3,0-34.9,15.7-34.9,34.9c0,19.3,15.7,34.9,34.9,34.9
					c19.3,0,34.9-15.7,34.9-34.9C1382.8,508.9,1367.1,493.2,1347.8,493.2z"/>
			</g>
		</g>
		<circle class="st4" cx="1188.5" cy="528.2" r="56.6"/>
	</g>
	<g class="st1">
		<circle class="st4" cx="72" cy="564.5" r="67.8"/>
		
			<ellipse transform="matrix(0.3162 -0.9487 0.9487 0.3162 -330.6231 476.035)" class="st3" cx="164.9" cy="467.4" rx="43.3" ry="43.3"/>
		
			<ellipse transform="matrix(0.3162 -0.9487 0.9487 0.3162 -404.1389 568.3104)" class="st2" cx="192.2" cy="564.5" rx="27.3" ry="27.3"/>
	</g>
	<g class="st1">
		<polygon class="st3" points="532.4,510.7 554.7,536.3 618.3,553.3 618.3,451.7 547,445 461.8,511.4 509.4,524.1 		"/>
		<polygon class="st3" points="389.8,552.6 418.5,520.2 389.1,507.9 345.8,528.2 345.8,547.7 		"/>
		<polygon class="st4" points="461.8,511.4 433.1,503.7 418.5,520.2 389.8,552.6 345.8,547.7 345.8,576.8 468.1,548.4 509.4,524.1 
					"/>
		<polygon class="st4" points="554.7,536.3 618.3,609 618.3,553.3 		"/>
		<polygon class="st2" points="554.7,536.3 532.4,510.7 509.4,524.1 468.1,548.4 345.8,576.8 345.8,611.3 618.3,611.3 618.3,609 		
			"/>
	</g>
	<g class="st1">
		<g>
			<g>
				<rect x="1607.8" y="531.4" class="st2" width="34" height="42.1"/>
				<rect x="1705" y="531.4" class="st2" width="34" height="108.6"/>
				<rect x="1850.9" y="531.4" class="st2" width="34" height="64.9"/>
			</g>
		</g>
		<rect x="1802.3" y="448.8" class="st5" width="34" height="82.6"/>
		<rect x="1753.6" y="416.4" class="st4" width="34" height="115"/>
		<rect x="1656.5" y="465" class="st7" width="34" height="66.4"/>
		<g>
			<rect x="1572.9" y="530" class="st3" width="346.9" height="2.8"/>
		</g>
	</g>
	<text transform="matrix(1 0 0 1 55.6251 283.937)" class="st8 st9 st10">pie_chart</text>
	<text transform="matrix(1 0 0 1 421.6215 283.937)" class="st8 st9 st10">area_map</text>
	<text transform="matrix(1 0 0 1 812.9158 283.937)" class="st8 st9 st10">ordered_bars</text>
	<text transform="matrix(1 0 0 1 1261.7673 283.937)" class="st8 st9 st10">linear_bars</text>
	<text transform="matrix(1 0 0 1 1710.9702 283.937)" class="st8 st9 st10">donut</text>
	<text transform="matrix(1 0 0 1 63.3199 695.937)" class="st8 st9 st10">bubbles</text>
	<text transform="matrix(1 0 0 1 400.2919 695.937)" class="st8 st9 st10">stacked_area</text>
	<text transform="matrix(1 0 0 1 833.7859 695.937)" class="st8 st9 st10">area_map</text>
	<text transform="matrix(1 0 0 1 1280.4778 695.937)" class="st8 st9 st10">timeline</text>
	<text transform="matrix(1 0 0 1 1695.1348 695.937)" class="st8 st9 st10">waterfall</text>
</g>
<g id="Layer_2">
	<g>
		<path class="st11" d="M38.1,95.3C14.1,130.5,0,173,0,218.8c0,9.9,0.7,19.6,2,29.1l216.9-29.1L38.1,95.3z"/>
		<path class="st12" d="M218.8,0c-75,0-141.3,37.7-180.7,95.3l180.7,123.5V0z"/>
		<path class="st4" d="M435.7,189.6C421.4,82.6,329.8,0,218.8,0v218.8L2,247.9c14.3,107,105.9,189.6,216.9,189.6
			c75,0,141.3-37.7,180.7-95.3c24-35.1,38.1-77.7,38.1-123.5C437.5,208.9,436.9,199.3,435.7,189.6z"/>
		<circle class="st4" cx="484.4" cy="11.2" r="11.2"/>
		<circle class="st12" cx="484.4" cy="82.3" r="11.2"/>
		<circle class="st11" cx="484.4" cy="47.5" r="11.2"/>
		<g>
			<path class="st4" d="M1359.6,205.4c0-62.9-51-113.9-113.9-113.9v51.3c34.5,0,62.5,27.9,62.5,62.5c0,25.8-15.8,48.1-38.1,57.6
				l20.4,47.1C1331,292.7,1359.6,252.3,1359.6,205.4z"/>
			<path class="st11" d="M1245.7,267.9c-34.5,0-62.5-27.9-62.5-62.5s27.9-62.5,62.5-62.5V91.5c-62.9,0-113.9,51-113.9,113.9
				s51,113.9,113.9,113.9c15.9,0,31-3.2,44.7-9.2L1270,263C1262.6,266.2,1254.3,267.9,1245.7,267.9z"/>
		</g>
		<path class="st4" d="M1525.8,91.5v51.3c34.5,0,62.5,27.9,62.5,62.5s-27.9,62.5-62.5,62.5c-13.6,0-26.1-4.3-36.3-11.7l-28.6,42.6
			c18.4,12.9,40.8,20.4,65,20.4c62.9,0,113.9-51,113.9-113.9C1639.7,142.5,1588.7,91.5,1525.8,91.5z"/>
		<path class="st13" d="M1463.4,205.4c0-20.4,9.8-38.4,24.7-49.9l-30.7-41.2c-27.5,20.8-45.4,53.8-45.4,91
			c0,38.7,19.3,72.8,48.8,93.5l28.6-42.6C1473.7,244.8,1463.4,226.4,1463.4,205.4z"/>
		<path class="st14" d="M1525.8,142.9V91.5c-25.7,0-49.3,8.5-68.5,22.9l30.7,41.2C1498.6,147.6,1511.7,142.9,1525.8,142.9z"/>
		<path class="st4" d="M1868.6,205.4c0,13.1-4.1,25.2-10.9,35.2l42.5,28.9c12.4-18.3,19.8-40.4,19.8-64.1
			c0-62.9-51-113.9-113.9-113.9v51.3C1840.5,142.9,1868.6,170.9,1868.6,205.4z"/>
		<path class="st15" d="M1806,142.9V91.5c-18.6,0-36,4.5-51.6,12.3l23.2,45.8C1786.1,145.3,1795.8,142.9,1806,142.9z"/>
		<path class="st16" d="M1857.7,240.6c-11.3,16.5-30.2,27.2-51.6,27.2c-34.5,0-62.5-27.9-62.5-62.5c0-24.3,14-45.4,34.2-55.8
			l-23.2-45.8c-36.9,18.9-62.3,57.1-62.3,101.4c0,62.9,51,113.9,113.9,113.9c39.1,0,73.5-19.7,94-49.6L1857.7,240.6z"/>
		<line class="st17" x1="803.7" y1="58" x2="1919.9" y2="58"/>
		<line class="st17" x1="1132.9" y1="351.6" x2="1358.4" y2="351.6"/>
		<line class="st17" x1="1413.1" y1="351.6" x2="1638.6" y2="351.6"/>
		<line class="st17" x1="1694.3" y1="351.6" x2="1919.9" y2="351.6"/>
		<g>
			<path class="st4" d="M514.9,10.8c0-4.8,2.7-8.2,6.4-8.2c3.8,0,6.4,3.4,6.4,8.2v0.8c0,5-2.7,8.2-6.4,8.2c-3.8,0-6.4-3.2-6.4-8.2
				V10.8z M525.7,10.9c0-4.1-1.7-6.4-4.3-6.4c-2.7,0-4.3,2.4-4.3,6.4v0.6c0,4.1,1.7,6.4,4.3,6.4c2.7,0,4.3-2.4,4.3-6.4V10.9z"/>
			<path class="st4" d="M532.8,2.8h2v16.8h-2v-12c-0.3,0.3-0.6,0.3-1.1,0.3H529V6h2.8c0.8,0,1.1-0.6,1.1-1.4V2.8H532.8z"/>
			<path class="st4" d="M544.4,19.6V2.8h2.1v7.3h3.1l5.6-7.3h2.4l-6.1,8.1l6.6,8.7h-2.5l-5.7-7.5h-3.1v7.5H544.4z"/>
			<path class="st4" d="M558.6,13.4c0-3.8,2.5-6.3,6.1-6.3c3.6,0,6.1,2.5,6.1,6.3s-2.5,6.3-6.1,6.3
				C561.1,19.7,558.6,17.2,558.6,13.4z M568.7,13.4c0-2.7-1.7-4.5-4.1-4.5c-2.4,0-4.1,2-4.1,4.5s1.7,4.5,4.1,4.5
				C567,17.9,568.7,16.1,568.7,13.4z"/>
			<path class="st4" d="M571.3,19.6v-1.8h0.4c1.4,0,2-0.8,2-4.5v-6h9.2v12.3h-2V9.1h-5.4v4.2c0,4.9-1.1,6.3-3.5,6.3H571.3z"/>
			<path class="st4" d="M585.6,19.6V7.3h2v9.2l7.3-9.2h1.7v12.3h-2v-9.4l-7.3,9.4H585.6z"/>
			<path class="st4" d="M607,7.3h2v12.3h-2v-4.9c-1,0.6-2.2,1-3.4,1c-2.9,0-4.8-1.3-4.8-4.5V7.4h2v3.5c0,2.2,1.1,3.1,3.2,3.1
				c1.1,0,2.2-0.3,3.1-1V7.3H607z"/>
			<path class="st4" d="M611.2,13.4c0-3.8,2.4-6.3,5.9-6.3c3.5,0,5.7,2.2,5.9,5.9c0,0.3,0,0.6,0,0.8h-9.5V14
				c0.1,2.4,1.5,3.9,3.9,3.9c1.7,0,3.1-1,3.5-2.5h2c-0.4,2.5-2.5,4.2-5.3,4.2C613.5,19.7,611.2,17.2,611.2,13.4z M620.7,12.2
				c-0.1-2.1-1.7-3.4-3.6-3.4c-1.8,0-3.5,1.3-3.6,3.4H620.7z"/>
			<path class="st4" d="M624.7,13.4c0-3.8,2.4-6.3,6-6.3c3.1,0,4.9,1.7,5.4,4.3h-2.1c-0.4-1.7-1.5-2.7-3.4-2.7
				c-2.4,0-3.9,1.8-3.9,4.6c0,2.7,1.5,4.5,3.9,4.5c1.8,0,2.9-1,3.4-2.5h2.1c-0.4,2.7-2.5,4.3-5.4,4.3
				C627,19.7,624.7,17.3,624.7,13.4z"/>
			<path class="st4" d="M641.2,19.6V9.1h-4.5V7.3h10.8v1.8H643v10.5H641.2z"/>
			<path class="st4" d="M649.2,19.6V7.3h5.2c3.1,0,4.5,1.1,4.5,3.4c0,1.5-1,2.4-2,2.7c1.4,0.3,2.5,1.1,2.5,2.8
				c0,2.4-1.7,3.5-4.9,3.5L649.2,19.6L649.2,19.6z M651.1,12.6h3.4c1.7,0,2.4-0.7,2.4-1.8s-0.7-1.8-2.4-1.8h-3.4V12.6z M651.1,17.9
				h3.6c1.7,0,2.7-0.6,2.7-1.8c0-1.3-1-1.8-2.7-1.8h-3.6V17.9z"/>
			<path class="st4" d="M661.1,13.4c0-3.8,2.5-6.3,6.1-6.3s6.1,2.5,6.1,6.3s-2.5,6.3-6.1,6.3C663.6,19.7,661.1,17.2,661.1,13.4z
				 M671.3,13.4c0-2.7-1.7-4.5-4.1-4.5s-4.1,2-4.1,4.5s1.7,4.5,4.1,4.5C669.6,17.9,671.3,16.1,671.3,13.4z"/>
			<path class="st4" d="M514.9,45.7c0-4.8,2.7-8.2,6.4-8.2c3.8,0,6.4,3.4,6.4,8.2v0.8c0,5-2.7,8.2-6.4,8.2c-3.8,0-6.4-3.2-6.4-8.2
				V45.7z M525.7,45.8c0-4.1-1.7-6.4-4.3-6.4c-2.7,0-4.3,2.4-4.3,6.4v0.6c0,4.1,1.7,6.4,4.3,6.4c2.7,0,4.3-2.4,4.3-6.4V45.8z"/>
			<path class="st4" d="M529.3,52.8l6.6-5.7c1.5-1.4,2.8-2.7,2.8-4.5c0-2.1-1.4-3.4-3.6-3.4c-2.1,0-3.6,1.4-3.6,3.8v0.3h-2v-0.4
				c0-3.2,2.2-5.4,5.6-5.4c3.6,0,5.7,2,5.7,5c0,2.5-1.7,4.1-3.6,5.9l-5,4.3h8.8v1.8h-11.6V52.8z"/>
			<path class="st4" d="M549.5,54.5V37.7h2.1V45h3.1l5.6-7.3h2.4l-6.1,8.1l6.6,8.7h-2.5l-5.7-7.5h-3.2v7.5H549.5z"/>
			<path class="st4" d="M563.8,48.3c0-3.8,2.5-6.3,6.1-6.3c3.6,0,6.1,2.5,6.1,6.3s-2.5,6.3-6.1,6.3
				C566.3,54.6,563.8,52.1,563.8,48.3z M574,48.3c0-2.7-1.7-4.5-4.1-4.5c-2.4,0-4.1,2-4.1,4.5s1.7,4.5,4.1,4.5
				C572.3,52.8,574,51,574,48.3z"/>
			<path class="st4" d="M576.5,54.5v-1.8h0.4c1.4,0,2-0.8,2-4.5v-6h9.2v12.3h-2V44h-5.4v4.2c0,4.9-1.1,6.3-3.5,6.3H576.5z"/>
			<path class="st4" d="M590.8,54.5V42.2h2v9.2l7.3-9.2h1.7v12.3h-2v-9.4l-7.3,9.4H590.8z"/>
			<path class="st4" d="M612.1,42.2h2v12.3h-2v-4.9c-1,0.6-2.2,1-3.4,1c-2.9,0-4.8-1.3-4.8-4.5v-3.8h2v3.5c0,2.2,1.1,3.1,3.2,3.1
				c1.1,0,2.2-0.3,3.1-1v-5.7H612.1z"/>
			<path class="st4" d="M616.5,48.3c0-3.8,2.4-6.3,5.9-6.3c3.5,0,5.7,2.2,5.9,5.9c0,0.3,0,0.6,0,0.8h-9.5v0.1
				c0.1,2.4,1.5,3.9,3.9,3.9c1.7,0,3.1-1,3.5-2.5h2c-0.4,2.5-2.5,4.2-5.3,4.2C618.9,54.6,616.5,52.1,616.5,48.3z M626,47.1
				c-0.1-2.1-1.7-3.4-3.6-3.4c-1.8,0-3.5,1.3-3.6,3.4H626z"/>
			<path class="st4" d="M629.9,48.3c0-3.8,2.4-6.3,6-6.3c3.1,0,4.9,1.7,5.4,4.3h-2.1c-0.4-1.7-1.5-2.7-3.4-2.7
				c-2.4,0-3.9,1.8-3.9,4.6c0,2.7,1.5,4.5,3.9,4.5c1.8,0,2.9-1,3.4-2.5h2.1c-0.4,2.7-2.5,4.3-5.4,4.3
				C632.3,54.6,629.9,52.3,629.9,48.3z"/>
			<path class="st4" d="M646.4,54.5V44h-4.5v-1.8h10.8V44h-4.5v10.5H646.4z"/>
			<path class="st4" d="M654.3,54.5V42.2h5.2c3.1,0,4.5,1.1,4.5,3.4c0,1.5-1,2.4-2,2.7c1.4,0.3,2.5,1.1,2.5,2.8
				c0,2.4-1.7,3.5-4.9,3.5L654.3,54.5L654.3,54.5z M656.3,47.5h3.4c1.7,0,2.4-0.7,2.4-1.8s-0.7-1.8-2.4-1.8h-3.4V47.5z M656.3,52.8
				h3.6c1.7,0,2.7-0.6,2.7-1.8c0-1.3-1-1.8-2.7-1.8h-3.6V52.8z"/>
			<path class="st4" d="M666.4,48.3c0-3.8,2.5-6.3,6.1-6.3c3.6,0,6.1,2.5,6.1,6.3s-2.5,6.3-6.1,6.3
				C668.9,54.6,666.4,52.1,666.4,48.3z M676.4,48.3c0-2.7-1.7-4.5-4.1-4.5c-2.4,0-4.1,2-4.1,4.5s1.7,4.5,4.1,4.5
				C674.7,52.8,676.4,51,676.4,48.3z"/>
			<path class="st4" d="M514.9,80.6c0-4.8,2.7-8.2,6.4-8.2c3.8,0,6.4,3.4,6.4,8.2v0.8c0,5-2.7,8.2-6.4,8.2c-3.8,0-6.4-3.2-6.4-8.2
				V80.6z M525.7,80.8c0-4.1-1.7-6.4-4.3-6.4c-2.7,0-4.3,2.4-4.3,6.4v0.6c0,4.1,1.7,6.4,4.3,6.4c2.7,0,4.3-2.4,4.3-6.4V80.8z"/>
			<path class="st4" d="M541.4,84.8c0,2.8-2.4,4.8-6,4.8s-6-2-6-5.3h2c0,2.2,1.8,3.5,4.2,3.5c2.2,0,3.9-1.3,3.9-3.2
				c0-1.8-1.4-2.9-4.1-2.9H534v-1.8h1.3c2.5,0,3.8-1.3,3.8-2.9c0-1.7-1.5-2.8-3.5-2.8c-2.1,0-3.6,1.3-3.6,3.2h-2c0-2.9,2.4-5,5.6-5
				c3.5,0,5.6,1.8,5.6,4.5c0,2.1-1.1,3.4-2.7,3.8C539.8,80.9,541.4,82.2,541.4,84.8z"/>
			<path class="st4" d="M550.2,89.4V72.7h2.1v7.3h3.1l5.6-7.3h2.4l-6.1,8.1l6.6,8.7h-2.5l-5.7-7.5h-3.1v7.5H550.2z"/>
			<path class="st4" d="M564.5,83.3c0-3.8,2.5-6.3,6.1-6.3c3.6,0,6.1,2.5,6.1,6.3c0,3.8-2.5,6.3-6.1,6.3
				C567,89.6,564.5,87.1,564.5,83.3z M574.7,83.3c0-2.7-1.7-4.5-4.1-4.5c-2.4,0-4.1,2-4.1,4.5c0,2.5,1.7,4.5,4.1,4.5
				C573,87.7,574.7,85.9,574.7,83.3z"/>
			<path class="st4" d="M577.4,89.4v-1.8h0.4c1.4,0,2-0.8,2-4.5v-6h9.2v12.3h-2V78.9h-5.4v4.2c0,4.9-1.1,6.3-3.5,6.3H577.4z"/>
			<path class="st4" d="M591.6,89.4V77.1h2v9.2l7.3-9.2h1.7v12.3h-2v-9.4l-7.3,9.4H591.6z"/>
			<path class="st4" d="M612.8,77.1h2v12.3h-2v-4.9c-1,0.6-2.2,1-3.4,1c-2.9,0-4.8-1.3-4.8-4.5v-3.8h2v3.5c0,2.2,1.1,3.1,3.2,3.1
				c1.1,0,2.2-0.3,3.1-1v-5.7H612.8z"/>
			<path class="st4" d="M617.2,83.3c0-3.8,2.4-6.3,5.9-6.3c3.5,0,5.7,2.2,5.9,5.9c0,0.3,0,0.6,0,0.8h-9.5v0.1
				c0.1,2.4,1.5,3.9,3.9,3.9c1.7,0,3.1-1,3.5-2.5h2c-0.4,2.5-2.5,4.2-5.3,4.2C619.6,89.6,617.2,87.1,617.2,83.3z M626.7,82
				c-0.1-2.1-1.7-3.4-3.6-3.4c-1.8,0-3.5,1.3-3.6,3.4H626.7z"/>
			<path class="st4" d="M630.6,83.3c0-3.8,2.4-6.3,6-6.3c3.1,0,4.9,1.7,5.4,4.3H640c-0.4-1.7-1.5-2.7-3.4-2.7
				c-2.4,0-3.9,1.8-3.9,4.6c0,2.7,1.5,4.5,3.9,4.5c1.8,0,2.9-1,3.4-2.5h2.1c-0.4,2.7-2.5,4.3-5.4,4.3
				C633,89.6,630.6,87.2,630.6,83.3z"/>
			<path class="st4" d="M647.1,89.4V78.9h-4.5v-1.8h10.8v1.8h-4.5v10.5H647.1z"/>
			<path class="st4" d="M655.2,89.4V77.1h5.2c3.1,0,4.5,1.1,4.5,3.4c0,1.5-1,2.4-2,2.7c1.4,0.3,2.5,1.1,2.5,2.8
				c0,2.4-1.7,3.5-4.9,3.5L655.2,89.4L655.2,89.4z M657.1,82.4h3.4c1.7,0,2.4-0.7,2.4-1.8c0-1.1-0.7-1.8-2.4-1.8h-3.4V82.4z
				 M657.1,87.7h3.6c1.7,0,2.7-0.6,2.7-1.8c0-1.3-1-1.8-2.7-1.8h-3.6V87.7z"/>
			<path class="st4" d="M667.1,83.3c0-3.8,2.5-6.3,6.1-6.3s6.1,2.5,6.1,6.3c0,3.8-2.5,6.3-6.1,6.3S667.1,87.1,667.1,83.3z
				 M677.3,83.3c0-2.7-1.7-4.5-4.1-4.5s-4.1,2-4.1,4.5c0,2.5,1.7,4.5,4.1,4.5S677.3,85.9,677.3,83.3z"/>
		</g>
		<g>
			<path class="st4" d="M805.4,95.3V78.5h9.9v2h-7.8v15h-2.1V95.3z"/>
			<path class="st4" d="M827.9,89.1c0,3.8-2.5,6.3-5.9,6.3c-2.1,0-3.5-0.8-4.2-2v6.7h-2v-17h1.7l0.3,2c0.8-1.1,2.1-2.1,4.2-2.1
				C825.4,82.9,827.9,85.2,827.9,89.1z M825.9,89.1c0-2.7-1.7-4.5-4.1-4.5c-2.4,0-4.1,1.8-4.1,4.5s1.7,4.6,4.1,4.6
				C824.3,93.6,825.9,91.8,825.9,89.1z"/>
			<path class="st4" d="M841.6,93.5v1.8h-1.1c-1.7,0-2.2-0.7-2.2-2c-0.8,1.1-2,2.1-4.1,2.1c-2.7,0-4.5-1.4-4.5-3.6
				c0-2.5,1.7-3.8,4.9-3.8h3.6v-0.8c0-1.5-1.1-2.5-3.1-2.5c-1.7,0-2.9,0.8-3.1,2.1h-2c0.3-2.4,2.2-3.8,5.2-3.8
				c3.1,0,4.9,1.5,4.9,4.5v5.3c0,0.7,0.3,0.8,0.8,0.8h0.6V93.5z M838.2,89.7h-3.8c-1.8,0-2.8,0.7-2.8,2.1c0,1.3,1,2,2.7,2
				c2.5,0,3.9-1.4,3.9-3.5V89.7z"/>
			<path class="st4" d="M849.7,100v-4.8c-4.2-0.1-7-2.5-7-6.3c0-3.6,2.8-6.1,7-6.3v-4.1h2v4.1c4.2,0.1,7,2.5,7,6.3
				c0,3.6-2.8,6.1-7,6.3v4.8H849.7z M849.7,84.7c-3.1,0.1-4.9,1.7-4.9,4.5s2,4.5,4.9,4.5V84.7z M851.6,93.6c3.1-0.1,4.9-1.7,4.9-4.5
				s-2-4.5-4.9-4.5V93.6z"/>
			<path class="st4" d="M860.9,95.3V83h2v9.2l7.3-9.2h1.7v12.3h-2v-9.4l-7.3,9.4H860.9z"/>
			<path class="st4" d="M874.4,95.3V83h2v5.2h2.7l3.8-5.2h2.2l-4.5,5.9l4.9,6.4h-2.4L879,90h-2.7v5.3H874.4z"/>
			<path class="st4" d="M893.3,95.3V83h5.2c3.1,0,4.5,1.1,4.5,3.4c0,1.5-1,2.4-2,2.7c1.4,0.3,2.5,1.1,2.5,2.8c0,2.4-1.7,3.5-4.9,3.5
				L893.3,95.3L893.3,95.3z M895.2,88.3h3.4c1.7,0,2.4-0.7,2.4-1.8s-0.7-1.8-2.4-1.8h-3.4V88.3z M895.2,93.6h3.6
				c1.7,0,2.7-0.6,2.7-1.8c0-1.3-1-1.8-2.7-1.8h-3.6V93.6z"/>
			<path class="st4" d="M911.9,95.3V83h10.6v12.3h-2V84.8h-6.7v10.5H911.9z"/>
			<path class="st4" d="M937.3,89.1c0,3.8-2.5,6.3-5.9,6.3c-2.1,0-3.5-0.8-4.2-2v6.7h-2v-17h1.7l0.3,2c0.8-1.1,2.1-2.1,4.2-2.1
				C934.8,82.9,937.3,85.2,937.3,89.1z M935.2,89.1c0-2.7-1.7-4.5-4.1-4.5c-2.4,0-4.1,1.8-4.1,4.5s1.7,4.6,4.1,4.6
				C933.7,93.6,935.2,91.8,935.2,89.1z"/>
			<path class="st4" d="M939.1,89.1c0-3.8,2.5-6.3,6.1-6.3c3.6,0,6.1,2.5,6.1,6.3s-2.5,6.3-6.1,6.3S939.1,92.9,939.1,89.1z
				 M949.3,89.1c0-2.7-1.7-4.5-4.1-4.5c-2.4,0-4.1,2-4.1,4.5s1.7,4.5,4.1,4.5S949.3,91.8,949.3,89.1z"/>
			<path class="st4" d="M964,93.5h2.1v5h-2v-3.2h-10.5V83h2v10.5h6.4V83h2V93.5z"/>
			<path class="st4" d="M966.8,89.1c0-3.8,2.4-6.3,5.9-6.3c3.5,0,5.7,2.2,5.9,5.9c0,0.3,0,0.6,0,0.8H969v0.1
				c0.1,2.4,1.5,3.9,3.9,3.9c1.7,0,3.1-1,3.5-2.5h2c-0.4,2.5-2.5,4.2-5.3,4.2C969.3,95.4,966.8,92.9,966.8,89.1z M976.4,87.9
				c-0.1-2.1-1.7-3.4-3.6-3.4c-1.8,0-3.5,1.3-3.6,3.4H976.4z"/>
			<path class="st4" d="M989.7,83h2v12.3h-2V90h-6.8v5.3h-2V83h2v5.2h6.8V83z"/>
			<path class="st4" d="M997.7,95.3V84.8h-4.5V83h10.8v1.8h-4.5v10.5H997.7z"/>
			<path class="st4" d="M1014.6,83h2v12.3h-2V90h-6.8v5.3h-2V83h2v5.2h6.8L1014.6,83L1014.6,83z"/>
			<path class="st4" d="M1019.3,95.3V83h2v4.1h3.1c3.1,0,4.8,1.5,4.8,4.2s-1.8,4.2-4.8,4.2h-5V95.3z M1021.3,93.6h2.8
				c2,0,3.1-0.8,3.1-2.5s-1.1-2.5-3.1-2.5h-2.8V93.6z M1031.2,95.3V83h2v12.3H1031.2z"/>
			<path class="st4" d="M1039.2,89l-4.3-6h2.4l3.2,4.6l3.4-4.6h2.2l-4.3,6l4.8,6.3h-2.4l-3.6-4.9l-3.6,4.9h-2.2L1039.2,89z"/>
			<path class="st4" d="M804.7,114.3c0-3.8,2.4-6.3,6-6.3c3.1,0,4.9,1.7,5.4,4.3h-2.1c-0.4-1.7-1.5-2.7-3.4-2.7
				c-2.4,0-3.9,1.8-3.9,4.6c0,2.7,1.5,4.5,3.9,4.5c1.8,0,2.9-1,3.4-2.5h2.1c-0.4,2.7-2.5,4.3-5.4,4.3
				C806.9,120.6,804.7,118.2,804.7,114.3z"/>
			<path class="st4" d="M817.5,114.3c0-3.8,2.5-6.3,6.1-6.3c3.6,0,6.1,2.5,6.1,6.3s-2.5,6.3-6.1,6.3
				C820.1,120.6,817.5,118.1,817.5,114.3z M827.6,114.3c0-2.7-1.7-4.5-4.1-4.5c-2.4,0-4.1,2-4.1,4.5s1.7,4.5,4.1,4.5
				C825.9,118.8,827.6,117,827.6,114.3z"/>
			<path class="st4" d="M831.5,114.3c0-3.8,2.5-6.3,6.1-6.3c3.6,0,6.1,2.5,6.1,6.3s-2.5,6.3-6.1,6.3
				C834,120.6,831.5,118.1,831.5,114.3z M841.6,114.3c0-2.7-1.7-4.5-4.1-4.5c-2.4,0-4.1,2-4.1,4.5s1.7,4.5,4.1,4.5
				C839.9,118.8,841.6,117,841.6,114.3z"/>
			<path class="st4" d="M848.6,120.4V110h-4.5v-1.8h10.8v1.8h-4.5v10.5H848.6z"/>
			<path class="st4" d="M865.5,108.1h2v12.3h-2v-5.3h-6.8v5.3h-2v-12.3h2v5.2h6.8V108.1z"/>
			<path class="st4" d="M869.7,114.3c0-3.8,2.5-6.3,6.1-6.3c3.6,0,6.1,2.5,6.1,6.3s-2.5,6.3-6.1,6.3
				C872.2,120.6,869.7,118.1,869.7,114.3z M879.9,114.3c0-2.7-1.7-4.5-4.1-4.5c-2.4,0-4.1,2-4.1,4.5s1.7,4.5,4.1,4.5
				C878.2,118.8,879.9,117,879.9,114.3z"/>
			<path class="st4" d="M884.1,120.4v-12.3h2v10.5h5.3v-10.5h2v10.5h5.3v-10.5h2v12.3H884.1z"/>
			<path class="st4" d="M902.9,114.3c0-3.8,2.4-6.3,5.9-6.3s5.7,2.2,5.9,5.9c0,0.3,0,0.6,0,0.8h-9.5v0.1c0.1,2.4,1.5,3.9,3.9,3.9
				c1.7,0,3.1-1,3.5-2.5h2c-0.4,2.5-2.5,4.2-5.3,4.2C905.3,120.6,902.9,118.1,902.9,114.3z M912.4,113c-0.1-2.1-1.7-3.4-3.6-3.4
				c-1.8,0-3.5,1.3-3.6,3.4H912.4z"/>
			<path class="st4" d="M925.7,108.1h2v12.3h-2v-5.3h-6.8v5.3h-2v-12.3h2v5.2h6.8V108.1z"/>
			<path class="st4" d="M930.4,120.4v-12.3h2v9.2l7.3-9.2h1.7v12.3h-2v-9.4l-7.3,9.4H930.4z"/>
			<path class="st4" d="M953.8,108.1v12.3h-2v-4.2h-3.4l-3.1,4.2H943l3.4-4.5c-2-0.4-3.1-1.8-3.1-3.8c0-2.5,1.8-4.1,4.9-4.1
				L953.8,108.1L953.8,108.1z M951.8,114.6V110h-3.4c-1.8,0-2.9,0.8-2.9,2.4c0,1.5,1.1,2.4,2.9,2.4h3.4V114.6z"/>
			<path class="st4" d="M959.8,114.2l-4.3-6h2.4l3.2,4.6l3.4-4.6h2.2l-4.3,6l4.8,6.3h-2.4l-3.6-4.9l-3.6,4.9h-2.2L959.8,114.2z"/>
		</g>
		<g>
			<path class="st4" d="M1134.2,36.3V22.6h10.8v13.7h-2.2V24.6h-6.3v11.7H1134.2z"/>
			<path class="st4" d="M1146.9,31.3c0-3.1,2.1-5.2,5.2-5.2c3.1,0,5.2,2.1,5.2,5.2s-2.1,5.2-5.2,5.2
				C1149,36.5,1146.9,34.4,1146.9,31.3z M1155,31.3c0-2-1.1-3.4-2.9-3.4c-1.8,0-2.9,1.4-2.9,3.4s1.1,3.4,2.9,3.4
				C1153.9,34.7,1155,33.3,1155,31.3z"/>
			<path class="st4" d="M1158.8,36.3V26.3h2.1v4.1h1.8l2.9-4.1h2.4l-3.5,4.8l3.8,5.3h-2.5l-3.1-4.2h-1.8v4.2H1158.8z"/>
			<path class="st4" d="M1178.6,34.5v1.8h-1.1c-1.4,0-1.8-0.6-1.8-1.5c-0.7,1-1.7,1.7-3.4,1.7c-2.2,0-3.8-1.1-3.8-2.9
				c0-2.1,1.5-3.2,4.3-3.2h2.5v-0.6c0-1.1-0.8-1.8-2.2-1.8c-1.3,0-2.1,0.6-2.2,1.5h-2.1c0.3-2,2-3.2,4.5-3.2c2.7,0,4.2,1.3,4.2,3.6
				V34c0,0.6,0.3,0.7,0.7,0.7h0.4V34.5z M1175.4,31.9h-2.7c-1.3,0-2.1,0.4-2.1,1.5c0,0.8,0.7,1.4,1.8,1.4c1.8,0,2.8-1,2.8-2.5v-0.4
				H1175.4z"/>
			<path class="st4" d="M1188.1,33.4c0,1.8-1.7,3.1-4.6,3.1c-3.1,0-4.2-1.3-4.3-3.4h2.1c0.1,1.1,0.7,1.7,2.2,1.7s2.4-0.6,2.4-1.5
				s-0.7-1.3-1.8-1.3h-1.5v-1.7h1.4c1.1,0,1.7-0.4,1.7-1.4c0-0.8-0.7-1.3-2.1-1.3c-1.4,0-2.1,0.6-2.2,1.5h-2.1
				c0.1-2,1.7-3.2,4.5-3.2c2.7,0,4.2,1.1,4.2,2.8c0,1.3-0.7,2-1.8,2.1C1187.4,31.4,1188.1,32.1,1188.1,33.4z"/>
			<path class="st4" d="M1199.4,34.5v1.8h-1.1c-1.4,0-1.8-0.6-1.8-1.5c-0.7,1-1.7,1.7-3.4,1.7c-2.2,0-3.8-1.1-3.8-2.9
				c0-2.1,1.5-3.2,4.3-3.2h2.5v-0.6c0-1.1-0.8-1.8-2.2-1.8c-1.3,0-2.1,0.6-2.2,1.5h-2.1c0.3-2,2-3.2,4.5-3.2c2.7,0,4.2,1.3,4.2,3.6
				V34c0,0.6,0.3,0.7,0.7,0.7h0.4V34.5z M1196.2,31.9h-2.7c-1.3,0-2.1,0.4-2.1,1.5c0,0.8,0.7,1.4,1.8,1.4c1.8,0,2.8-1,2.8-2.5v-0.4
				H1196.2z"/>
			<path class="st4" d="M1202.6,36.3v-8.1h-3.4v-1.8h8.9v1.8h-3.4v8.1H1202.6z"/>
			<path class="st4" d="M1208.5,31.3c0-3.1,2-5.2,4.9-5.2c2.9,0,4.9,1.8,4.9,4.8c0,0.3,0,0.6,0,0.8h-7.5v0.1c0,1.7,1.1,2.8,2.8,2.8
				c1.3,0,2.2-0.7,2.5-1.8h2.1c-0.4,2-2.1,3.5-4.5,3.5C1210.5,36.5,1208.5,34.4,1208.5,31.3z M1216.2,30.2c-0.1-1.5-1.3-2.4-2.7-2.4
				c-1.4,0-2.5,0.8-2.7,2.4H1216.2z"/>
			<path class="st4" d="M1218.8,36.3v-1.8h0.4c1,0,1.4-0.7,1.4-3.4v-4.8h8v10.1h-2.1v-8.1h-3.9v3.1c0,3.9-1,5.2-3.1,5.2h-0.7V36.3z"
				/>
			<path class="st4" d="M1230.6,36.3V26.3h2.1v3.1h2.5c2.5,0,4.1,1.3,4.1,3.5c0,2.1-1.4,3.5-4.1,3.5H1230.6z M1232.8,34.7h2.1
				c1.4,0,2.2-0.7,2.2-1.8s-0.7-1.8-2.2-1.8h-2.1V34.7z"/>
			<path class="st4" d="M1246.1,36.3V22.6h2l5.9,9.4v-9.4h2.2v13.7h-2l-5.9-9.4v9.4H1246.1z M1257.4,27.1c0-2.8,1.8-4.6,4.6-4.6
				s4.6,1.8,4.6,4.6s-1.8,4.6-4.6,4.6S1257.4,29.9,1257.4,27.1z M1264.5,27.1c0-1.7-1-2.8-2.5-2.8c-1.5,0-2.5,1.1-2.5,2.8
				s1,2.9,2.5,2.9C1263.6,30,1264.5,28.9,1264.5,27.1z"/>
			<path class="st4" d="M1276,22.6h2.1v13.7h-2.2V27c-0.1,0.1-0.4,0.1-0.8,0.1h-2.2v-1.8h2.1c0.7,0,1-0.6,1-1.3v-1.4H1276z"/>
		</g>
		<g>
			<path class="st4" d="M1203.2,207.4l15-19.8h5.9v19.7h4.8v4.3h-4.8v7.3h-4.9v-7.3h-15.9V207.4z M1208.4,207.4h10.9V193
				L1208.4,207.4z"/>
			<path class="st4" d="M1253.8,208.3c0,7-5.2,10.8-11.3,10.8c-7.1,0-11.3-4.5-11.6-10.1h4.9c0.4,3.2,2.7,6,6.7,6
				c3.2,0,6.3-2.2,6.3-6.6c0-3.8-2.5-6.6-6.3-6.6c-1.8,0-5,0.6-6.3,3.8l-4.8-0.1l1-18h19.6v4.3h-15l-0.6,8.5c1.7-1.8,4.1-2.7,7-2.7
				C1249.6,197.7,1253.8,202,1253.8,208.3z"/>
			<path class="st4" d="M1265.1,187.2c4.6,0,8,3.2,8,7.7c0,4.5-3.4,7.5-8,7.5c-4.6,0-8-3.2-8-7.5
				C1257.1,190.4,1260.5,187.2,1265.1,187.2z M1265.1,191c-2.2,0-3.9,1.7-3.9,3.9s1.7,3.9,3.9,3.9s3.9-1.7,3.9-3.9
				S1267.5,191,1265.1,191z M1262.3,218.8l21.4-31.3h4.8l-21.4,31.3H1262.3z M1285.5,203.9c4.6,0,8,3.2,8,7.7c0,4.3-3.4,7.5-8,7.5
				s-8-3.2-8-7.5C1277.5,207.1,1280.9,203.9,1285.5,203.9z M1285.5,207.5c-2.2,0-3.9,1.7-3.9,4.1c0,2.4,1.7,3.9,3.9,3.9
				c2.2,0,3.9-1.7,3.9-3.9S1287.7,207.5,1285.5,207.5z"/>
		</g>
		<g>
			<path class="st4" d="M1131,397.4l15-19.8h5.9v19.7h4.8v4.3h-4.8v7.3h-4.9v-7.3H1131V397.4z M1136,397.4h10.9V383L1136,397.4z"/>
			<path class="st4" d="M1181.5,398.4c0,7-5.2,10.8-11.3,10.8c-7.1,0-11.3-4.5-11.6-10.1h4.9c0.4,3.2,2.7,6,6.7,6
				c3.2,0,6.3-2.2,6.3-6.6c0-3.8-2.5-6.6-6.3-6.6c-1.8,0-5,0.6-6.3,3.8l-4.8-0.1l1-18h19.6v4.3h-15l-0.6,8.5c1.7-1.8,4.1-2.7,7-2.7
				C1177.2,387.7,1181.5,392.1,1181.5,398.4z"/>
			<path class="st4" d="M1186.8,403c1.8,0,3.1,1.3,3.1,3.1c0,1.8-1.4,3.1-3.1,3.1s-3.1-1.3-3.1-3.1
				C1183.8,404.2,1185,403,1186.8,403z"/>
			<path class="st4" d="M1216.1,400.3c0,5.2-4.3,8.8-11.7,8.8c-7.4,0-11.7-3.6-11.7-8.8c0-4.3,2.8-7,6.1-7.7c-2.8-0.7-5.3-3.2-5.3-7
				c0-4.9,4.2-8.2,10.9-8.2s10.9,3.5,10.9,8.2c0,3.6-2.5,6.3-5.4,7C1213.1,393.3,1216.1,395.8,1216.1,400.3z M1210.9,400
				c0-3.1-2.7-5.2-6.7-5.2c-3.9,0-6.7,2.2-6.7,5.2c0,3.1,2.7,5.3,6.7,5.3C1208.2,405.4,1210.9,403.1,1210.9,400z M1198.4,385.8
				c0,2.8,2.4,4.6,5.9,4.6c3.6,0,5.9-1.8,5.9-4.6c0-2.7-2.4-4.6-5.9-4.6C1200.7,381.2,1198.4,383,1198.4,385.8z"/>
			<path class="st4" d="M1219.5,400.3h4.9c0.7,2.8,2.8,4.8,6.1,4.8c4.9,0,7.5-4.3,7.5-10.6c0-0.4,0-0.7,0-1.3
				c-0.1,0.3-0.3,0.6-0.4,1c-1.4,2.7-4.3,4.3-8,4.3c-6.1,0-10.5-4.1-10.5-10.5c0-6.1,4.6-10.5,11.2-10.5c4.3,0,7.4,1.8,9.5,4.9
				c1.7,2.7,2.8,6.4,2.8,10.8c0,10.1-4.5,16.1-12.3,16.1C1224.3,409.1,1220.2,405.8,1219.5,400.3z M1236.7,387.7
				c0-3.8-2.5-6.4-6.3-6.4s-6.3,2.7-6.3,6.4s2.4,6.4,6.1,6.4C1234.1,394.3,1236.7,391.7,1236.7,387.7z"/>
			<path class="st4" d="M1246.4,400.3h4.9c0.7,2.8,2.8,4.8,6.1,4.8c4.9,0,7.5-4.3,7.5-10.6c0-0.4,0-0.7,0-1.3
				c-0.1,0.3-0.3,0.6-0.4,1c-1.4,2.7-4.3,4.3-8,4.3c-6.1,0-10.5-4.1-10.5-10.5c0-6.1,4.6-10.5,11.2-10.5c4.3,0,7.4,1.8,9.5,4.9
				c1.7,2.7,2.8,6.4,2.8,10.8c0,10.1-4.5,16.1-12.3,16.1C1251.1,409.1,1247.1,405.8,1246.4,400.3z M1263.6,387.7
				c0-3.8-2.5-6.4-6.3-6.4s-6.3,2.7-6.3,6.4s2.4,6.4,6.1,6.4C1260.9,394.3,1263.6,391.7,1263.6,387.7z"/>
		</g>
		<g>
			<path class="st4" d="M1437.7,398.4c0,7-5.2,10.8-11.3,10.8c-7.1,0-11.3-4.5-11.6-10.1h4.9c0.4,3.2,2.7,6,6.7,6
				c3.2,0,6.3-2.2,6.3-6.6c0-3.8-2.5-6.6-6.3-6.6c-1.8,0-5,0.6-6.3,3.8l-4.8-0.1l1-18h19.6v4.3h-15.1l-0.6,8.5
				c1.7-1.8,4.1-2.7,7-2.7C1433.3,387.7,1437.7,392.1,1437.7,398.4z"/>
			<path class="st4" d="M1439.6,404.9l12-10.2c2.8-2.4,4.9-4.6,4.9-7.5c0-3.6-2.4-5.6-5.9-5.6c-3.6,0-6,2.4-6,6.3v0.6h-4.9v-0.8
				c0-6,4.3-10.2,10.9-10.2c7,0,10.9,3.8,10.9,9.5c0,4.6-2.8,7.5-6.6,10.8l-8.2,7h15.1v4.3h-22.1v-4.1H1439.6z"/>
			<path class="st4" d="M1468,403c1.8,0,3.1,1.3,3.1,3.1c0,1.8-1.4,3.1-3.1,3.1c-1.8,0-3.1-1.3-3.1-3.1
				C1464.9,404.2,1466.2,403,1468,403z"/>
			<path class="st4" d="M1496.1,398.4c0,7-5.2,10.8-11.3,10.8c-7.1,0-11.3-4.5-11.6-10.1h4.9c0.4,3.2,2.7,6,6.7,6
				c3.2,0,6.3-2.2,6.3-6.6c0-3.8-2.5-6.6-6.3-6.6c-1.8,0-5,0.6-6.3,3.8l-4.8-0.1l1-18h19.6v4.3h-15l-0.6,8.5c1.7-1.8,4.1-2.7,7-2.7
				C1491.9,387.7,1496.1,392.1,1496.1,398.4z"/>
			<path class="st4" d="M1498,404.9l12-10.2c2.8-2.4,4.9-4.6,4.9-7.5c0-3.6-2.4-5.6-6-5.6c-3.6,0-6,2.4-6,6.3v0.6h-4.9v-0.8
				c0-6,4.3-10.2,10.9-10.2c7,0,10.9,3.8,10.9,9.5c0,4.6-2.8,7.5-6.6,10.8l-8.2,7h15.1v4.3H1498V404.9z"/>
			<path class="st4" d="M1521.8,377.5h22.4v3.4l-14.7,27.9h-5.3l14.5-27h-17v-4.3H1521.8z"/>
		</g>
		<g>
			<path class="st4" d="M1718.5,400c0,5.3-4.5,9.1-11.6,9.1c-7,0-11.6-3.8-11.6-10.2h4.9c0.1,3.8,2.9,6,7,6c3.5,0,6.3-2,6.3-5.2
				c0-2.9-2.2-4.8-6.6-4.8h-2.8V391h2.7c4.1,0,6.1-2.1,6.1-4.9s-2.5-4.6-5.9-4.6c-3.5,0-6,2.1-6.1,5.4h-4.9c0-5.6,4.6-9.5,11-9.5
				c6.7,0,10.9,3.4,10.9,8.4c0,3.8-2.2,6.1-5.2,7C1715.6,393.2,1718.5,395.4,1718.5,400z"/>
			<path class="st4" d="M1744.1,400c0,5.3-4.5,9.1-11.6,9.1c-7,0-11.6-3.8-11.6-10.2h4.9c0.1,3.8,2.9,6,7,6c3.5,0,6.3-2,6.3-5.2
				c0-2.9-2.2-4.8-6.6-4.8h-2.8V391h2.7c4.1,0,6.1-2.1,6.1-4.9s-2.5-4.6-5.9-4.6c-3.5,0-6,2.1-6.1,5.4h-4.9c0-5.6,4.6-9.5,11-9.5
				c6.7,0,10.9,3.4,10.9,8.4c0,3.8-2.2,6.1-5.2,7C1741.3,393.2,1744.1,395.4,1744.1,400z"/>
			<path class="st4" d="M1749.8,403c1.8,0,3.1,1.3,3.1,3.1c0,1.8-1.4,3.1-3.1,3.1c-1.7,0-3.1-1.3-3.1-3.1
				C1746.7,404.2,1748,403,1749.8,403z"/>
			<path class="st4" d="M1754.8,377.5h22.4v3.4l-14.7,27.9h-5.3l14.5-27h-17v-4.3H1754.8z"/>
			<path class="st4" d="M1785.3,377.5h4.9v31.3h-4.9v-21.4c-0.4,0.3-1.1,0.4-2,0.4h-5v-4.2h4.9c1.7,0,2.2-1.1,2.2-2.8v-3.4H1785.3z"
				/>
			<path class="st4" d="M1794.8,392.5c0-9.1,5-15.2,12.3-15.2c7.3,0,12.3,6.1,12.3,15.2v1.4c0,9.4-5,15.2-12.3,15.2
				c-7.3,0-12.3-5.7-12.3-15.2V392.5z M1814.5,392.6c0-7-2.9-11-7.3-11s-7.3,4.1-7.3,11v1.1c0,7,2.9,11,7.3,11s7.3-4.1,7.3-11V392.6
				z"/>
		</g>
		<g>
			<path class="st4" d="M1507,208.2c0,7-5.2,10.8-11.3,10.8c-7.1,0-11.3-4.5-11.6-10.1h4.9c0.4,3.2,2.7,6,6.7,6
				c3.2,0,6.3-2.2,6.3-6.6c0-3.8-2.5-6.6-6.3-6.6c-1.8,0-5,0.6-6.3,3.8l-4.8-0.1l1-18h19.6v4.3h-15l-0.6,8.5c1.7-1.8,4.1-2.7,7-2.7
				C1502.6,197.7,1507,201.9,1507,208.2z"/>
			<path class="st4" d="M1508.9,214.8l12-10.2c2.8-2.4,4.9-4.6,4.9-7.5c0-3.6-2.4-5.6-6-5.6c-3.6,0-6,2.4-6,6.3v0.6h-4.9v-0.8
				c0-6,4.3-10.2,10.9-10.2c7,0,10.9,3.8,10.9,9.5c0,4.6-2.8,7.5-6.6,10.8l-8.2,7h15.1v4.3h-22.1V214.8z"/>
			<path class="st4" d="M1542.5,187.2c4.6,0,8,3.2,8,7.7c0,4.5-3.4,7.5-8,7.5c-4.6,0-8-3.2-8-7.5
				C1534.4,190.4,1537.8,187.2,1542.5,187.2z M1542.5,190.9c-2.2,0-3.9,1.7-3.9,3.9s1.7,3.9,3.9,3.9c2.2,0,3.9-1.7,3.9-3.9
				S1544.7,190.9,1542.5,190.9z M1539.7,218.8l21.4-31.3h4.8l-21.4,31.3H1539.7z M1562.9,203.7c4.6,0,8,3.2,8,7.7
				c0,4.3-3.4,7.5-8,7.5s-8-3.2-8-7.5C1554.8,206.9,1558.2,203.7,1562.9,203.7z M1562.9,207.4c-2.2,0-3.9,1.7-3.9,4.1
				c0,2.4,1.7,3.9,3.9,3.9c2.2,0,3.9-1.7,3.9-3.9S1565.1,207.4,1562.9,207.4z"/>
		</g>
		<g>
			<path class="st4" d="M1784.2,210c0,5.3-4.5,9.1-11.6,9.1c-7,0-11.6-3.8-11.6-10.2h4.9c0.1,3.8,2.9,6,7,6c3.5,0,6.3-2,6.3-5.2
				c0-2.9-2.2-4.8-6.6-4.8h-2.8v-4.1h2.7c4.1,0,6.1-2.1,6.1-4.9s-2.5-4.6-5.9-4.6c-3.5,0-6,2.1-6.1,5.4h-4.9c0-5.6,4.6-9.5,11-9.5
				c6.7,0,10.9,3.4,10.9,8.4c0,3.8-2.2,6.1-5.2,7C1781.4,203.2,1784.2,205.4,1784.2,210z"/>
			<path class="st4" d="M1809.9,210c0,5.3-4.5,9.1-11.6,9.1c-7,0-11.6-3.8-11.6-10.2h4.9c0.1,3.8,2.9,6,7,6c3.5,0,6.3-2,6.3-5.2
				c0-2.9-2.2-4.8-6.6-4.8h-2.8v-4.1h2.7c4.1,0,6.1-2.1,6.1-4.9s-2.5-4.6-5.9-4.6c-3.5,0-6,2.1-6.1,5.4h-4.9c0-5.6,4.6-9.5,11-9.5
				c6.7,0,10.9,3.4,10.9,8.4c0,3.8-2.2,6.1-5.2,7C1807,203.2,1809.9,205.4,1809.9,210z"/>
			<path class="st4" d="M1821.6,187.2c4.6,0,8,3.2,8,7.7c0,4.5-3.4,7.5-8,7.5c-4.6,0-8-3.2-8-7.5
				C1813.7,190.4,1817,187.2,1821.6,187.2z M1821.6,191c-2.2,0-3.9,1.7-3.9,3.9s1.7,3.9,3.9,3.9c2.2,0,3.9-1.7,3.9-3.9
				C1825.5,192.7,1823.9,191,1821.6,191z M1818.8,218.8l21.4-31.3h4.8l-21.4,31.3H1818.8z M1842,203.9c4.6,0,8,3.2,8,7.7
				c0,4.3-3.4,7.5-8,7.5s-8-3.2-8-7.5C1834.1,207.1,1837.4,203.9,1842,203.9z M1842,207.5c-2.2,0-3.9,1.7-3.9,4.1
				c0,2.4,1.7,3.9,3.9,3.9c2.2,0,3.9-1.7,3.9-3.9S1844.3,207.5,1842,207.5z"/>
		</g>
		<g>
			<path class="st4" d="M1413.2,36.3V22.6h10.8v13.7h-2.2V24.6h-6.3v11.7H1413.2z"/>
			<path class="st4" d="M1425.9,31.3c0-3.1,2.1-5.2,5.2-5.2s5.2,2.1,5.2,5.2s-2.1,5.2-5.2,5.2C1428,36.5,1425.9,34.4,1425.9,31.3z
				 M1434,31.3c0-2-1.1-3.4-2.9-3.4c-1.8,0-2.9,1.4-2.9,3.4s1.1,3.4,2.9,3.4C1432.8,34.7,1434,33.3,1434,31.3z"/>
			<path class="st4" d="M1437.8,36.3V26.3h2.1v4.1h1.8l2.9-4.1h2.4l-3.5,4.8l3.8,5.3h-2.5l-3.1-4.2h-2v4.2H1437.8z"/>
			<path class="st4" d="M1457.6,34.5v1.8h-1.1c-1.4,0-1.8-0.6-1.8-1.5c-0.7,1-1.7,1.7-3.4,1.7c-2.2,0-3.8-1.1-3.8-2.9
				c0-2.1,1.5-3.2,4.3-3.2h2.5v-0.6c0-1.1-0.8-1.8-2.2-1.8c-1.3,0-2.1,0.6-2.2,1.5h-2.1c0.3-2,2-3.2,4.5-3.2c2.7,0,4.2,1.3,4.2,3.6
				V34c0,0.6,0.3,0.7,0.7,0.7h0.4V34.5z M1454.4,31.9h-2.7c-1.3,0-2.1,0.4-2.1,1.5c0,0.8,0.7,1.4,1.8,1.4c1.8,0,2.8-1,2.8-2.5v-0.4
				H1454.4z"/>
			<path class="st4" d="M1467.1,33.4c0,1.8-1.7,3.1-4.6,3.1c-3.1,0-4.2-1.3-4.3-3.4h2.1c0.1,1.1,0.7,1.7,2.2,1.7
				c1.5,0,2.4-0.6,2.4-1.5s-0.7-1.3-1.8-1.3h-1.5v-1.7h1.4c1.1,0,1.7-0.4,1.7-1.4c0-0.8-0.7-1.3-2.1-1.3c-1.4,0-2.1,0.6-2.2,1.5
				h-2.1c0.1-2,1.7-3.2,4.5-3.2c2.7,0,4.2,1.1,4.2,2.8c0,1.3-0.7,2-1.8,2.1C1466.4,31.4,1467.1,32.1,1467.1,33.4z"/>
			<path class="st4" d="M1478.5,34.5v1.8h-1.1c-1.4,0-1.8-0.6-1.8-1.5c-0.7,1-1.7,1.7-3.4,1.7c-2.2,0-3.8-1.1-3.8-2.9
				c0-2.1,1.5-3.2,4.3-3.2h2.5v-0.6c0-1.1-0.8-1.8-2.2-1.8c-1.3,0-2.1,0.6-2.2,1.5h-2.1c0.3-2,2-3.2,4.5-3.2c2.7,0,4.2,1.3,4.2,3.6
				V34c0,0.6,0.3,0.7,0.7,0.7h0.4V34.5z M1475.2,31.9h-2.7c-1.3,0-2.1,0.4-2.1,1.5c0,0.8,0.7,1.4,1.8,1.4c1.8,0,2.8-1,2.8-2.5v-0.4
				H1475.2z"/>
			<path class="st4" d="M1481.7,36.3v-8.1h-3.4v-1.8h8.9v1.8h-3.4v8.1H1481.7z"/>
			<path class="st4" d="M1487.5,31.3c0-3.1,2-5.2,4.9-5.2c2.9,0,4.9,1.8,4.9,4.8c0,0.3,0,0.6,0,0.8h-7.5v0.1c0,1.7,1.1,2.8,2.8,2.8
				c1.3,0,2.2-0.7,2.5-1.8h2.1c-0.4,2-2.1,3.5-4.5,3.5C1489.5,36.5,1487.5,34.4,1487.5,31.3z M1495.2,30.2c-0.1-1.5-1.3-2.4-2.7-2.4
				c-1.4,0-2.5,0.8-2.7,2.4H1495.2z"/>
			<path class="st4" d="M1497.9,36.3v-1.8h0.4c1,0,1.4-0.7,1.4-3.4v-4.8h8v10.1h-2.1v-8.1h-3.9v3.1c0,3.9-1,5.2-3.1,5.2h-0.7V36.3z"
				/>
			<path class="st4" d="M1509.6,36.3V26.3h2.1v3.1h2.5c2.5,0,4.1,1.3,4.1,3.5c0,2.1-1.5,3.5-4.1,3.5H1509.6z M1511.9,34.7h2.1
				c1.4,0,2.2-0.7,2.2-1.8s-0.7-1.8-2.2-1.8h-2.1V34.7z"/>
			<path class="st4" d="M1525.1,36.3V22.6h2l5.9,9.4v-9.4h2.2v13.7h-2l-5.9-9.4v9.4H1525.1z M1536.4,27.1c0-2.8,1.8-4.6,4.6-4.6
				s4.6,1.8,4.6,4.6s-1.8,4.6-4.6,4.6C1538.3,31.7,1536.4,29.9,1536.4,27.1z M1543.6,27.1c0-1.7-1-2.8-2.5-2.8
				c-1.5,0-2.5,1.1-2.5,2.8s1,2.9,2.5,2.9C1542.6,30,1543.6,28.9,1543.6,27.1z"/>
			<path class="st4" d="M1552.2,34.7l5.3-4.5c1.3-1,2.1-2,2.1-3.4c0-1.5-1-2.4-2.7-2.4c-1.5,0-2.7,1.1-2.7,2.8v0.3h-2.2v-0.4
				c0-2.7,1.8-4.5,4.8-4.5c3.1,0,4.8,1.7,4.8,4.2c0,2.1-1.3,3.4-2.9,4.8l-3.6,3.1h6.6v2h-9.6v-2H1552.2z"/>
		</g>
		<g>
			<path class="st4" d="M1693.6,36.3V22.6h10.8v13.7h-2.2V24.6h-6.3v11.7H1693.6z"/>
			<path class="st4" d="M1706.4,31.3c0-3.1,2.1-5.2,5.2-5.2s5.2,2.1,5.2,5.2s-2.1,5.2-5.2,5.2C1708.5,36.5,1706.4,34.4,1706.4,31.3z
				 M1714.5,31.3c0-2-1.1-3.4-2.9-3.4c-1.8,0-2.9,1.4-2.9,3.4s1.1,3.4,2.9,3.4C1713.2,34.7,1714.5,33.3,1714.5,31.3z"/>
			<path class="st4" d="M1718.2,36.3V26.3h2.1v4.1h1.8l2.9-4.1h2.4L1724,31l3.8,5.3h-2.5l-3.1-4.2h-2v4.2H1718.2z"/>
			<path class="st4" d="M1738.1,34.5v1.8h-1.1c-1.4,0-1.8-0.6-1.8-1.5c-0.7,1-1.7,1.7-3.4,1.7c-2.2,0-3.8-1.1-3.8-2.9
				c0-2.1,1.5-3.2,4.3-3.2h2.5v-0.6c0-1.1-0.8-1.8-2.2-1.8c-1.3,0-2.1,0.6-2.2,1.5h-2.1c0.3-2,2-3.2,4.5-3.2c2.7,0,4.2,1.3,4.2,3.6
				V34c0,0.6,0.3,0.7,0.7,0.7h0.4V34.5z M1734.9,31.9h-2.7c-1.3,0-2.1,0.4-2.1,1.5c0,0.8,0.7,1.4,1.8,1.4c1.8,0,2.8-1,2.8-2.5v-0.4
				H1734.9z"/>
			<path class="st4" d="M1747.6,33.4c0,1.8-1.7,3.1-4.6,3.1c-3.1,0-4.2-1.3-4.3-3.4h2.1c0.1,1.1,0.7,1.7,2.2,1.7
				c1.5,0,2.4-0.6,2.4-1.5s-0.7-1.3-1.8-1.3h-1.5v-1.7h1.4c1.1,0,1.7-0.4,1.7-1.4c0-0.8-0.7-1.3-2.1-1.3c-1.4,0-2.1,0.6-2.2,1.5
				h-2.1c0.1-2,1.7-3.2,4.5-3.2c2.7,0,4.2,1.1,4.2,2.8c0,1.3-0.7,2-1.8,2.1C1746.9,31.4,1747.6,32.1,1747.6,33.4z"/>
			<path class="st4" d="M1758.9,34.5v1.8h-1.1c-1.4,0-1.8-0.6-1.8-1.5c-0.7,1-1.7,1.7-3.4,1.7c-2.2,0-3.8-1.1-3.8-2.9
				c0-2.1,1.5-3.2,4.3-3.2h2.5v-0.6c0-1.1-0.8-1.8-2.2-1.8c-1.3,0-2.1,0.6-2.2,1.5h-2.1c0.3-2,2-3.2,4.5-3.2c2.7,0,4.2,1.3,4.2,3.6
				V34c0,0.6,0.3,0.7,0.7,0.7h0.4V34.5z M1755.7,31.9h-2.7c-1.3,0-2.1,0.4-2.1,1.5c0,0.8,0.7,1.4,1.8,1.4c1.8,0,2.8-1,2.8-2.5v-0.4
				H1755.7z"/>
			<path class="st4" d="M1762.1,36.3v-8.1h-3.4v-1.8h8.9v1.8h-3.4v8.1H1762.1z"/>
			<path class="st4" d="M1768,31.3c0-3.1,2-5.2,4.9-5.2s4.9,1.8,4.9,4.8c0,0.3,0,0.6,0,0.8h-7.5v0.1c0,1.7,1.1,2.8,2.8,2.8
				c1.3,0,2.2-0.7,2.5-1.8h2.1c-0.4,2-2.1,3.5-4.5,3.5C1769.9,36.5,1768,34.4,1768,31.3z M1775.7,30.2c-0.1-1.5-1.3-2.4-2.7-2.4
				c-1.4,0-2.5,0.8-2.7,2.4H1775.7z"/>
			<path class="st4" d="M1778.3,36.3v-1.8h0.4c1,0,1.4-0.7,1.4-3.4v-4.8h8v10.1h-2.1v-8.1h-3.9v3.1c0,3.9-1,5.2-3.1,5.2h-0.7V36.3z"
				/>
			<path class="st4" d="M1790.1,36.3V26.3h2.1v3.1h2.5c2.5,0,4.1,1.3,4.1,3.5c0,2.1-1.5,3.5-4.1,3.5H1790.1z M1792.3,34.7h2.1
				c1.4,0,2.2-0.7,2.2-1.8s-0.7-1.8-2.2-1.8h-2.1V34.7z"/>
			<path class="st4" d="M1805.6,36.3V22.6h2l5.9,9.4v-9.4h2.2v13.7h-2l-5.9-9.4v9.4H1805.6z M1816.9,27.1c0-2.8,1.8-4.6,4.6-4.6
				s4.6,1.8,4.6,4.6s-1.8,4.6-4.6,4.6S1816.9,29.9,1816.9,27.1z M1824,27.1c0-1.7-1-2.8-2.5-2.8c-1.5,0-2.5,1.1-2.5,2.8
				s1,2.9,2.5,2.9C1823,30,1824,28.9,1824,27.1z"/>
			<path class="st4" d="M1842.7,32.6c0,2.4-2,3.9-5,3.9s-5-1.7-5-4.5h2.1c0,1.7,1.3,2.7,3.1,2.7c1.5,0,2.8-0.8,2.8-2.2
				c0-1.3-1-2.1-2.9-2.1h-1.3v-1.8h1.1c1.8,0,2.7-0.8,2.7-2.1c0-1.3-1.1-2-2.5-2c-1.5,0-2.7,1-2.7,2.4h-2.1c0-2.5,2-4.2,4.8-4.2
				c2.9,0,4.8,1.5,4.8,3.6c0,1.7-1,2.7-2.2,3.1C1841.5,29.5,1842.7,30.5,1842.7,32.6z"/>
		</g>
		<g>
			<path class="st4" d="M115.3,54.4h2.9v24.7h-2.9V61.3c-0.4,0.3-1,0.4-1.7,0.4h-4.1v-2.7h4.1c1.1,0,1.7-0.8,1.7-2.1V54.4z"/>
			<path class="st4" d="M140,72.5c0,4.1-3.5,6.8-8.9,6.8c-5.6,0-8.9-2.8-8.9-6.8c0-3.4,2.1-5.4,4.9-6.1c-2.4-0.6-4.2-2.7-4.2-5.6
				c0-3.9,3.2-6.6,8.2-6.6c5,0,8.2,2.7,8.2,6.6c0,2.8-1.8,5-4.2,5.6C137.9,66.9,140,69,140,72.5z M137.1,72.2c0-2.7-2.4-4.5-6-4.5
				s-6,1.8-6,4.5s2.5,4.5,6,4.5C134.6,76.7,137.1,74.9,137.1,72.2z M131.1,64.8c3.2,0,5.3-1.7,5.3-4.1s-2.1-4.1-5.3-4.1
				c-3.2,0-5.3,1.7-5.3,4.1S127.9,64.8,131.1,64.8z"/>
			<path class="st4" d="M149.6,54.2c3.6,0,6.1,2.5,6.1,6s-2.7,5.9-6.1,5.9c-3.6,0-6.1-2.5-6.1-5.9C143.4,56.7,146,54.2,149.6,54.2z
				 M149.6,56.5c-2.1,0-3.6,1.5-3.6,3.6s1.5,3.6,3.6,3.6s3.6-1.5,3.6-3.6C153.1,58,151.6,56.5,149.6,56.5z M147.6,79.1l16.9-24.7
				h2.8l-16.9,24.7H147.6z M165.2,67.3c3.6,0,6.1,2.5,6.1,6s-2.7,5.9-6.1,5.9c-3.6,0-6.1-2.5-6.1-5.9
				C158.9,69.9,161.5,67.3,165.2,67.3z M165.2,69.7c-2.1,0-3.6,1.5-3.6,3.6s1.5,3.6,3.6,3.6s3.6-1.5,3.6-3.6
				C168.7,71.3,167.3,69.7,165.2,69.7z"/>
		</g>
		<g>
			<path class="st7" d="M305.2,307c0-7.8,3.5-12.7,9.4-12.7c4.5,0,7.5,2.7,8.1,6.8h-2.9c-0.6-2.5-2.4-4.2-5.3-4.2
				c-4.3,0-6.7,3.9-6.7,9.5c0,0.4,0,0.6,0,1.3c0-0.1,0.1-0.4,0.3-0.7c1.1-2.4,3.6-4.1,6.8-4.1c4.9,0,8.2,3.2,8.2,8.2
				c0,4.8-3.5,8.2-8.5,8.2c-3.5,0-5.9-1.5-7.5-4.1C305.9,313.3,305.2,310.3,305.2,307z M314.7,305.6c-3.5,0-5.7,2.4-5.7,5.7
				c0,3.4,2.2,5.6,5.6,5.6c3.5,0,5.6-2.4,5.6-5.7C320.3,308,318,305.6,314.7,305.6z"/>
			<path class="st7" d="M344,312.7c0,4.1-3.5,6.8-8.9,6.8c-5.6,0-8.9-2.8-8.9-6.8c0-3.4,2.1-5.4,4.9-6.1c-2.4-0.6-4.2-2.7-4.2-5.6
				c0-3.9,3.2-6.6,8.2-6.6c5,0,8.2,2.7,8.2,6.6c0,2.8-1.8,5-4.2,5.6C341.8,307.1,344,309.2,344,312.7z M340.9,312.4
				c0-2.7-2.4-4.5-6-4.5c-3.6,0-6,1.8-6,4.5c0,2.7,2.5,4.5,6,4.5C338.4,316.9,340.9,315.1,340.9,312.4z M334.9,305
				c3.2,0,5.3-1.7,5.3-4.1s-2.1-4.1-5.3-4.1c-3.2,0-5.3,1.7-5.3,4.1S331.7,305,334.9,305z"/>
			<path class="st7" d="M353.5,294.4c3.6,0,6.1,2.5,6.1,6s-2.7,5.9-6.1,5.9c-3.6,0-6.1-2.5-6.1-5.9
				C347.2,296.9,349.9,294.4,353.5,294.4z M353.5,296.6c-2.1,0-3.6,1.5-3.6,3.6s1.5,3.6,3.6,3.6c2.1,0,3.6-1.5,3.6-3.6
				C357.1,298.2,355.6,296.6,353.5,296.6z M351.4,319.3l16.9-24.7h2.8l-16.9,24.7H351.4z M369,307.5c3.6,0,6.1,2.5,6.1,6
				s-2.7,5.9-6.1,5.9c-3.6,0-6.1-2.5-6.1-5.9C362.7,310.1,365.4,307.5,369,307.5z M369,309.9c-2.1,0-3.6,1.5-3.6,3.6
				s1.5,3.6,3.6,3.6s3.6-1.5,3.6-3.6C372.7,311.5,371.1,309.9,369,309.9z"/>
		</g>
		<g>
			<path class="st4" d="M34.2,176.1h2.9v24.7h-2.9V183c-0.4,0.3-1,0.4-1.7,0.4h-4.1v-2.7h4.1c1.1,0,1.7-0.8,1.7-2.1V176.1z"/>
			<path class="st4" d="M40.1,192.1l12.6-16.1H56V192h4.1v2.7H56v6h-2.9v-6h-13L40.1,192.1L40.1,192.1z M43.3,192H53v-12.3L43.3,192
				z"/>
			<path class="st4" d="M68.5,175.9c3.6,0,6.1,2.5,6.1,6s-2.7,5.9-6.1,5.9c-3.6,0-6.1-2.5-6.1-5.9C62.2,178.4,64.8,175.9,68.5,175.9
				z M68.5,178.2c-2.1,0-3.6,1.5-3.6,3.6s1.5,3.6,3.6,3.6s3.6-1.5,3.6-3.6S70.6,178.2,68.5,178.2z M66.4,200.8l16.9-24.7h2.8
				l-16.9,24.7H66.4z M84,189.1c3.6,0,6.1,2.5,6.1,6s-2.7,5.9-6.1,5.9c-3.6,0-6.1-2.5-6.1-5.9C77.7,191.6,80.3,189.1,84,189.1z
				 M84,191.4c-2.1,0-3.6,1.5-3.6,3.6s1.5,3.6,3.6,3.6s3.6-1.5,3.6-3.6C87.6,193,86.1,191.4,84,191.4z"/>
		</g>
	</g>
</g>
</svg>
