<?xml version="1.0" encoding="utf-8"?>
<!-- Generator: Adobe Illustrator 22.0.0, SVG Export Plug-In . SVG Version: 6.00 Build 0)  -->
<svg version="1.1" id="Layer_1" xmlns="http://www.w3.org/2000/svg" xmlns:xlink="http://www.w3.org/1999/xlink" x="0px" y="0px"
	 viewBox="0 0 2551.2 1417.5" style="enable-background:new 0 0 2551.2 1417.5;" xml:space="preserve">
<style type="text/css">
	.st0{fill:#FFFFFF;}
	.st1{opacity:0.7;fill:none;stroke:#FFFFFF;stroke-miterlimit:10;}
</style>
<rect x="0" width="2551.2" height="1417.3"/>
<g>
	<g>
		<path class="st0" d="M1304.2,114.2v5.2h-5.1v-5.2c-13.2-0.4-21.5-7.3-21.5-18.6c0-11.2,8.3-18.2,21.5-18.6v-5.2h5.1v5.2
			c13.2,0.4,21.5,7.3,21.5,18.6C1325.8,106.8,1317.5,113.6,1304.2,114.2z M1299.1,109.5V81.6c-10.4,0.4-16.2,5.5-16.2,13.9
			C1282.9,103.9,1288.6,109,1299.1,109.5z M1304.2,109.5c10.4-0.4,16.2-5.6,16.2-13.9s-5.7-13.5-16.2-13.9V109.5z"/>
		<path class="st0" d="M1360.8,112.3v4.6h-2.7c-4.1,0-5.6-1.8-5.6-4.8c-2,2.8-5.1,5.2-10.4,5.2c-6.8,0-11.5-3.4-11.5-9.1
			c0-6.2,4.3-9.7,12.5-9.7h9.2v-2.1c0-4-2.9-6.5-7.7-6.5c-4.4,0-7.3,2.1-7.9,5.2h-5c0.7-6.1,5.7-9.7,13.2-9.7
			c7.9,0,12.5,4,12.5,11.2v13.6c0,1.6,0.6,2.1,2,2.1H1360.8z M1352.2,102.7h-9.6c-4.5,0-7,1.6-7,5.2c0,3,2.6,5.1,6.8,5.1
			c6.2,0,9.8-3.6,9.8-8.8V102.7z"/>
		<path class="st0" d="M1364.7,116.9V85.8h6.2l12,25l11.8-25h6l0.1,31.1h-4.8V93.4l-11.2,23.5h-4l-11.2-23.5v23.5H1364.7z"/>
		<path class="st0" d="M1407.5,116.9V85.8h4.9v23.5l18.5-23.5h4.4v31.1h-4.9V93.3l-18.5,23.6H1407.5z"/>
		<path class="st0" d="M1438.9,116.9v-4.6h0.9c3.5,0,4.9-2.1,4.9-11.5V85.8h23.5v31.1h-5V90.4h-13.7V101c0,12.4-2.9,15.9-9,15.9
			H1438.9z"/>
		<path class="st0" d="M1475.1,116.9V85.8h4.9v23.5l18.5-23.5h4.4v31.1h-4.9V93.3l-18.5,23.6H1475.1z"/>
		<path class="st0" d="M1534.3,85.8v31.1h-5v-10.7h-8.3l-7.6,10.7h-5.9l8.5-11.3c-5-1.1-7.7-4.5-7.7-9.5c0-6.4,4.5-10.2,12.3-10.2
			H1534.3z M1529.3,101.9V90.1h-8.5c-4.7,0-7.4,2-7.4,5.9c0,4,2.7,6,7.4,6H1529.3z"/>
		<path class="st0" d="M1557.9,116.9V74.2h5.3v33.9l22.9-33.9h4.9v42.7h-5.3V83l-22.9,33.9H1557.9z"/>
		<path class="st0" d="M1598.6,116.9V85.8h6.2l12,25l11.8-25h6l0.1,31.1h-4.8V93.4l-11.2,23.5h-4l-11.2-23.5v23.5H1598.6z"/>
		<path class="st0" d="M1666,85.8v31.1h-5v-10.7h-8.3l-7.6,10.7h-5.9l8.5-11.3c-5-1.1-7.7-4.5-7.7-9.5c0-6.4,4.5-10.2,12.3-10.2
			H1666z M1661,101.9V90.1h-8.5c-4.7,0-7.4,2-7.4,5.9c0,4,2.7,6,7.4,6H1661z"/>
		<path class="st0" d="M1708.3,117.3c-12,0-20.4-9.2-20.4-21.7s8.4-21.7,20.4-21.7c12,0,20.4,9.2,20.4,21.7
			S1720.3,117.3,1708.3,117.3z M1708.3,112.4c8.9,0,14.9-7,14.9-16.8s-6-16.8-14.9-16.8c-8.9,0-14.9,7-14.9,16.8
			S1699.4,112.4,1708.3,112.4z"/>
		<path class="st0" d="M1742.8,116.9V90.4h-11.2v-4.6h27.5v4.6h-11.2v26.5H1742.8z"/>
		<path class="st0" d="M1783.2,85.8h5v31.1h-5v-12.5c-2.4,1.6-5.6,2.4-8.7,2.4c-7.6,0-12.2-3.3-12.2-11.3v-9.7h5v8.8
			c0,5.7,2.7,7.6,8.2,7.6c3,0,5.6-0.7,7.7-2.5V85.8z"/>
		<path class="st0" d="M1793.9,101.3c0-9.5,6-15.9,14.8-15.9c8.8,0,14.5,5.6,14.8,14.8c0,0.7-0.1,1.4-0.1,2.1h-24.2v0.4
			c0.2,5.9,3.9,10.1,9.8,10.1c4.4,0,7.8-2.3,8.8-6.3h5.1c-1.2,6.2-6.3,10.8-13.5,10.8C1800,117.3,1793.9,110.9,1793.9,101.3z
			 M1818.1,98.2c-0.5-5.4-4.1-8.4-9.3-8.4c-4.6,0-8.8,3.3-9.3,8.4H1818.1z"/>
		<path class="st0" d="M1828.1,101.4c0-9.5,6.2-16,15.2-16c7.6,0,12.4,4.3,13.7,11.1h-5.2c-0.9-4.1-4-6.6-8.5-6.6
			c-6,0-10,4.8-10,11.5s4,11.4,10,11.4c4.5,0,7.5-2.6,8.5-6.5h5.3c-1.2,6.7-6.3,11-13.8,11C1834.1,117.3,1828.1,111.1,1828.1,101.4z
			"/>
		<path class="st0" d="M1869.9,116.9V90.4h-11.2v-4.6h27.5v4.6h-11.2v26.5H1869.9z"/>
		<path class="st0" d="M1890.3,116.9V85.8h13.2c7.7,0,11.4,3,11.4,8.4c0,3.9-2.6,6-5.1,6.6c3.6,0.5,6.3,2.8,6.3,7.1
			c0,6-4.3,9-12.4,9H1890.3z M1895.3,99h8.7c4.1,0,5.9-1.7,5.9-4.5c0-3-1.8-4.5-5.9-4.5h-8.7V99z M1895.3,112.6h9.2
			c4.3,0,6.6-1.5,6.6-4.7c0-3-2.3-4.8-6.6-4.8h-9.2V112.6z"/>
		<path class="st0" d="M1920.5,101.3c0-9.5,6.3-15.9,15.4-15.9c9.1,0,15.4,6.5,15.4,15.9c0,9.5-6.3,15.9-15.4,15.9
			C1926.9,117.3,1920.5,110.8,1920.5,101.3z M1946.3,101.3c0-6.6-4.1-11.5-10.3-11.5c-6.2,0-10.3,4.8-10.3,11.5
			c0,6.7,4.1,11.5,10.3,11.5C1942.1,112.8,1946.3,108,1946.3,101.3z"/>
		<path class="st0" d="M1314.1,176h5.2v13.6h-5.3v-8.7h-32.6v8.7h-5.3V176h4c2.9-2.6,4.5-6.5,4.5-19v-18.8h29.5V176z M1308.7,176
			v-33.3h-19.2v14.9c0,9.9-1,14.9-3.4,18.4H1308.7z"/>
		<path class="st0" d="M1321.9,165.3c0-9.5,6.3-15.9,15.4-15.9s15.4,6.5,15.4,15.9c0,9.5-6.3,15.9-15.4,15.9
			S1321.9,174.8,1321.9,165.3z M1347.7,165.3c0-6.6-4.1-11.5-10.3-11.5c-6.2,0-10.3,4.8-10.3,11.5c0,6.7,4.1,11.5,10.3,11.5
			C1343.5,176.8,1347.7,172,1347.7,165.3z"/>
		<path class="st0" d="M1354.3,180.9v-4.6h0.9c3.5,0,4.9-2.1,4.9-11.5v-15.1h23.5v31.1h-5v-26.5H1365V165c0,12.4-2.9,15.9-9,15.9
			H1354.3z"/>
		<path class="st0" d="M1387.2,180.9l11.8-16.1l-10.9-15h5.6l9.4,13h4.8v-13h4.9v13h4.8l9.4-13h5.6l-10.9,15l11.8,16.1h-5.7
			l-9.9-13.5h-5v13.5h-4.9v-13.5h-5l-9.9,13.5H1387.2z"/>
		<path class="st0" d="M1459.5,149.8h5v31.1h-5v-13.5H1442v13.5h-5v-31.1h5v13h17.5V149.8z"/>
		<path class="st0" d="M1470.2,165.3c0-9.5,6.3-15.9,15.4-15.9s15.4,6.5,15.4,15.9c0,9.5-6.3,15.9-15.4,15.9
			S1470.2,174.8,1470.2,165.3z M1496,165.3c0-6.6-4.1-11.5-10.3-11.5c-6.2,0-10.3,4.8-10.3,11.5c0,6.7,4.1,11.5,10.3,11.5
			C1491.8,176.8,1496,172,1496,165.3z"/>
		<path class="st0" d="M1505.7,165.4c0-9.5,6.2-16,15.2-16c7.6,0,12.4,4.3,13.7,11.1h-5.2c-0.9-4.1-4-6.6-8.5-6.6
			c-6,0-10,4.8-10,11.5s4,11.4,10,11.4c4.5,0,7.5-2.6,8.5-6.5h5.3c-1.2,6.7-6.3,11-13.8,11C1511.7,181.3,1505.7,175.1,1505.7,165.4z
			"/>
		<path class="st0" d="M1547.5,180.9v-26.5h-11.2v-4.6h27.5v4.6h-11.2v26.5H1547.5z"/>
		<path class="st0" d="M1567.9,180.9v-31.1h5v10.1h8.4c7.7,0,12.2,3.8,12.2,10.5c0,6.6-4.5,10.5-12.2,10.5H1567.9z M1572.9,176.6
			h7.6c5.1,0,7.9-2.3,7.9-6.2c0-4.1-2.8-6.2-7.9-6.2h-7.6V176.6z"/>
	</g>
</g>
<g>
	<g>
		<path class="st0" d="M1276.2,280.9h33v4.9h-13.8v37.8h-5.3v-37.8h-13.8V280.9z"/>
		<path class="st0" d="M1307.3,308.1c0-9.5,6-15.9,14.8-15.9c8.8,0,14.5,5.6,14.8,14.8c0,0.7-0.1,1.4-0.1,2.1h-24.2v0.4
			c0.2,5.9,3.9,10.1,9.8,10.1c4.4,0,7.8-2.3,8.8-6.3h5.1c-1.2,6.2-6.3,10.8-13.5,10.8C1313.4,324,1307.3,317.6,1307.3,308.1z
			 M1331.4,304.9c-0.5-5.4-4.1-8.4-9.3-8.4c-4.6,0-8.8,3.3-9.3,8.4H1331.4z"/>
		<path class="st0" d="M1338.3,323.6v-4.6h0.9c3.5,0,4.9-2.1,4.9-11.5v-15.1h23.5v31.1h-5v-26.5H1349v10.7c0,12.4-2.9,15.9-9,15.9
			H1338.3z"/>
		<path class="st0" d="M1373.4,308.1c0-9.5,6-15.9,14.8-15.9c8.8,0,14.5,5.6,14.8,14.8c0,0.7-0.1,1.4-0.1,2.1h-24.2v0.4
			c0.2,5.9,3.9,10.1,9.8,10.1c4.4,0,7.8-2.3,8.8-6.3h5.1c-1.2,6.2-6.3,10.8-13.5,10.8C1379.5,324,1373.4,317.6,1373.4,308.1z
			 M1397.6,304.9c-0.5-5.4-4.1-8.4-9.3-8.4c-4.6,0-8.8,3.3-9.3,8.4H1397.6z"/>
		<path class="st0" d="M1425.3,335.8v-12c-10.7-0.2-17.7-6.3-17.7-15.8c0-9.3,7.1-15.5,17.7-15.8v-10.4h4.9v10.4
			c10.6,0.3,17.6,6.3,17.6,15.8c0,9.3-7,15.6-17.6,15.8v12H1425.3z M1425.3,296.7c-7.6,0.2-12.6,4.4-12.6,11.4s4.9,11.2,12.6,11.4
			V296.7z M1430.1,319.5c7.7-0.2,12.6-4.4,12.6-11.4s-4.9-11.2-12.6-11.4V319.5z"/>
		<path class="st0" d="M1452.4,308.1c0-9.5,6.3-15.9,15.4-15.9s15.4,6.5,15.4,15.9s-6.3,15.9-15.4,15.9S1452.4,317.5,1452.4,308.1z
			 M1478.1,308.1c0-6.7-4.1-11.5-10.3-11.5c-6.2,0-10.3,4.8-10.3,11.5s4.1,11.5,10.3,11.5C1474,319.6,1478.1,314.7,1478.1,308.1z"/>
		<path class="st0" d="M1511.5,292.5h5v31.1h-5v-13.5H1494v13.5h-5v-31.1h5v13h17.5V292.5z"/>
		<path class="st0" d="M1279.2,344.9h27.2v4.9h-21.9v13.7h18.2v4.9h-18.2v14.4h22.7v4.9h-28V344.9z"/>
		<path class="st0" d="M1358.9,369.7v17.9h-5V370c0-6.1-2.7-9.3-7.4-9.3c-5.2,0-8.4,3.9-8.4,10.3v16.7h-5V370c0-6.1-2.7-9.3-7.5-9.3
			c-5.1,0-8.2,4.3-8.2,10.5v16.4h-5v-31.1h4.3l0.7,4.3c1.6-2.3,4.3-4.6,9.1-4.6c4.3,0,8.1,2,9.8,5.9c1.9-3.4,5.2-5.9,10.8-5.9
			C1353.6,356.2,1358.9,359.9,1358.9,369.7z"/>
		<path class="st0" d="M1394.4,383.1v4.6h-2.7c-4.1,0-5.6-1.8-5.6-4.8c-2,2.8-5.1,5.2-10.4,5.2c-6.8,0-11.5-3.4-11.5-9.1
			c0-6.2,4.3-9.7,12.5-9.7h9.2v-2.1c0-4-2.9-6.5-7.7-6.5c-4.4,0-7.3,2.1-7.9,5.2h-5c0.7-6.1,5.7-9.7,13.2-9.7
			c7.9,0,12.5,4,12.5,11.2V381c0,1.6,0.6,2.1,2,2.1H1394.4z M1385.8,373.4h-9.6c-4.5,0-7,1.6-7,5.2c0,3.1,2.6,5.1,6.8,5.1
			c6.2,0,9.8-3.6,9.8-8.8V373.4z"/>
		<path class="st0" d="M1397.6,348.1c0-1.9,1.4-3.2,3.2-3.2s3.2,1.3,3.2,3.2c0,1.9-1.4,3.2-3.2,3.2S1397.6,349.9,1397.6,348.1z
			 M1398.2,356.5h5v31.1h-5V356.5z"/>
		<path class="st0" d="M1410.1,344.9h5v42.7h-5V344.9z"/>
	</g>
</g>
<g>
	<path class="st0" d="M1277.6,1120.7c0-12.9,8-21.7,20.4-21.7c9.5,0,16.3,5.5,17.9,14.3h-5.6c-1.6-5.9-6.2-9.5-12.6-9.5
		c-9,0-14.7,7-14.7,16.8c0,9.8,5.5,16.8,14.5,16.8c6.6,0,11.2-3.5,12.8-9.5h5.6c-1.6,8.8-8.7,14.3-18.3,14.3
		C1285.3,1142.4,1277.6,1133.8,1277.6,1120.7z"/>
	<path class="st0" d="M1350.6,1137.5v4.6h-2.7c-4.1,0-5.6-1.8-5.6-4.8c-2,2.8-5.1,5.2-10.4,5.2c-6.8,0-11.5-3.4-11.5-9.1
		c0-6.2,4.3-9.7,12.5-9.7h9.2v-2.1c0-4-2.9-6.5-7.7-6.5c-4.4,0-7.3,2.1-7.9,5.2h-5c0.7-6.1,5.7-9.7,13.2-9.7c7.9,0,12.5,4,12.5,11.2
		v13.6c0,1.6,0.6,2.1,2,2.1H1350.6z M1342,1127.9h-9.6c-4.5,0-7,1.6-7,5.2c0,3.1,2.6,5.1,6.8,5.1c6.2,0,9.8-3.6,9.8-8.8V1127.9z"/>
	<path class="st0" d="M1376.9,1111h5v31.1h-5v-13.5h-17.5v13.5h-5V1111h5v13h17.5V1111z"/>
	<path class="st0" d="M1388.8,1142.1V1111h5v13h6.7l9.7-13h5.8l-11.3,14.9l12.3,16.2h-6l-10.4-13.5h-6.7v13.5H1388.8z"/>
	<path class="st0" d="M1429.1,1142.1v-26.5h-11.2v-4.6h27.5v4.6h-11.2v26.5H1429.1z"/>
	<path class="st0" d="M1447.5,1126.8v-4.2h20.3v4.2H1447.5z"/>
	<path class="st0" d="M1475.1,1142.1v-42.7h32.4v42.7h-5.3v-37.8h-21.8v37.8H1475.1z"/>
	<path class="st0" d="M1513.9,1126.5c0-9.5,6-15.9,14.8-15.9c8.8,0,14.5,5.6,14.8,14.8c0,0.7-0.1,1.4-0.1,2.1h-24.2v0.4
		c0.2,5.9,3.9,10.1,9.8,10.1c4.4,0,7.8-2.3,8.8-6.3h5.1c-1.2,6.2-6.3,10.8-13.5,10.8C1520,1142.4,1513.9,1136,1513.9,1126.5z
		 M1538.1,1123.3c-0.5-5.4-4.1-8.4-9.3-8.4c-4.6,0-8.8,3.3-9.3,8.4H1538.1z"/>
	<path class="st0" d="M1555.8,1142.1v-26.5h-11.2v-4.6h27.5v4.6h-11.2v26.5H1555.8z"/>
	<path class="st0" d="M1573.3,1126.5c0-9.5,6-15.9,14.8-15.9c8.8,0,14.5,5.6,14.8,14.8c0,0.7-0.1,1.4-0.1,2.1h-24.2v0.4
		c0.2,5.9,3.9,10.1,9.8,10.1c4.4,0,7.8-2.3,8.8-6.3h5.1c-1.2,6.2-6.3,10.8-13.5,10.8C1579.4,1142.4,1573.3,1136,1573.3,1126.5z
		 M1597.5,1123.3c-0.5-5.4-4.1-8.4-9.3-8.4c-4.6,0-8.8,3.3-9.3,8.4H1597.5z"/>
	<path class="st0" d="M1639.2,1126.5c0,9.5-6.3,15.9-14.9,15.9c-5.2,0-8.8-2.1-10.7-5.1v17h-5V1111h4.3l0.7,5
		c2.1-2.9,5.4-5.4,10.7-5.4C1632.8,1110.6,1639.2,1116.4,1639.2,1126.5z M1634.1,1126.5c0-6.8-4.1-11.5-10.3-11.5
		c-6.1,0-10.2,4.7-10.2,11.3c0,6.8,4.1,11.6,10.2,11.6C1629.9,1138,1634.1,1133.3,1634.1,1126.5z"/>
	<path class="st0" d="M1674.5,1127.5c0,8.6-6,14.9-15.2,14.9c-9.3,0-15.2-5.6-15.2-17.4c0-16.7,4-22.9,17.4-24.6l10.6-1.3v4.7
		l-9.5,1.2c-9.8,1.3-12.6,3.8-13.5,13.1c2.2-3,6.1-4.9,11.4-4.9C1668.5,1113,1674.5,1118.7,1674.5,1127.5z M1669.4,1127.7
		c0-6-4.1-10.3-10-10.3c-6.1,0-10.3,4.3-10.3,9.7c0,7,4.3,11,10.1,11C1665.2,1138.1,1669.4,1133.8,1669.4,1127.7z"/>
	<path class="st0" d="M1675.9,1111h5.3l9.6,24.8l9.3-24.8h5.3l-14.3,36.4c-2,5-3.1,7-7.5,7h-6v-4.6h4.5c2.9,0,3.4-0.7,4.5-3.7
		l1.5-3.8L1675.9,1111z"/>
	<path class="st0" d="M1739.7,1126.5c0,9.5-6.3,15.9-14.9,15.9c-5.2,0-8.8-2.1-10.7-5.1v17h-5V1111h4.3l0.7,5
		c2.1-2.9,5.4-5.4,10.7-5.4C1733.4,1110.6,1739.7,1116.4,1739.7,1126.5z M1734.6,1126.5c0-6.8-4.1-11.5-10.3-11.5
		c-6.1,0-10.2,4.7-10.2,11.3c0,6.8,4.1,11.6,10.2,11.6C1730.4,1138,1734.6,1133.3,1734.6,1126.5z"/>
	<path class="st0" d="M1745.4,1142.1V1111h19.9v4.6h-14.9v26.5H1745.4z"/>
	<path class="st0" d="M1772.7,1141.9c0,5.2-3.2,8.3-8.6,8.4v-2.9c3.9-0.1,5.1-2.8,5.1-4.9c0-0.3,0-0.5-0.1-0.8
		c-0.5,0.5-1.3,0.7-2.1,0.7c-1.8,0-3.2-1.1-3.2-3.3c0-2,1.5-3.5,4-3.5C1770.9,1135.7,1772.7,1138.5,1772.7,1141.9z"/>
	<path class="st0" d="M1278.4,1206.1V1175h26.9v31.1h-5v-26.5h-16.9v26.5H1278.4z"/>
	<path class="st0" d="M1342.8,1190.5c0,9.5-6.3,15.9-14.9,15.9c-5.2,0-8.8-2.1-10.7-5.1v17h-5V1175h4.3l0.7,5
		c2.1-2.9,5.4-5.4,10.7-5.4C1336.4,1174.6,1342.8,1180.4,1342.8,1190.5z M1337.7,1190.5c0-6.8-4.1-11.5-10.3-11.5
		c-6.1,0-10.2,4.7-10.2,11.3c0,6.8,4.1,11.6,10.2,11.6C1333.5,1202,1337.7,1197.3,1337.7,1190.5z"/>
	<path class="st0" d="M1347.4,1190.5c0-9.5,6.3-15.9,15.4-15.9c9.1,0,15.4,6.5,15.4,15.9c0,9.5-6.3,15.9-15.4,15.9
		C1353.8,1206.4,1347.4,1200,1347.4,1190.5z M1373.2,1190.5c0-6.6-4.1-11.5-10.3-11.5s-10.3,4.8-10.3,11.5c0,6.7,4.1,11.5,10.3,11.5
		S1373.2,1197.2,1373.2,1190.5z"/>
	<path class="st0" d="M1382.9,1190.6c0-9.5,6.2-16,15.2-16c7.6,0,12.4,4.3,13.7,11.1h-5.2c-0.9-4.1-4-6.7-8.5-6.7
		c-6,0-10,4.8-10,11.5s4,11.4,10,11.4c4.5,0,7.5-2.6,8.5-6.5h5.3c-1.2,6.7-6.3,11-13.8,11
		C1388.9,1206.4,1382.9,1200.3,1382.9,1190.6z"/>
	<path class="st0" d="M1417.3,1206.1V1175h26.9v31.1h-5v-26.5h-16.9v26.5H1417.3z"/>
	<path class="st0" d="M1450,1190.5c0-9.5,6-15.9,14.8-15.9s14.5,5.6,14.8,14.8c0,0.7-0.1,1.4-0.1,2.1h-24.2v0.4
		c0.2,5.9,3.9,10.1,9.8,10.1c4.4,0,7.8-2.3,8.8-6.3h5.1c-1.2,6.2-6.3,10.8-13.5,10.8C1456.1,1206.4,1450,1200,1450,1190.5z
		 M1474.1,1187.3c-0.5-5.4-4.1-8.4-9.3-8.4c-4.6,0-8.8,3.3-9.3,8.4H1474.1z"/>
	<path class="st0" d="M1485.2,1206.1V1175h5v13h6.7l9.7-13h5.8l-11.3,14.9l12.3,16.2h-6l-10.4-13.5h-6.7v13.5H1485.2z"/>
	<path class="st0" d="M1525.5,1206.1v-26.5h-11.2v-4.6h27.5v4.6h-11.2v26.5H1525.5z"/>
	<path class="st0" d="M1559,1206.1v-4.9h1c4.7,0,6.8-2.9,6.8-16.8v-21h29.6v42.7h-5.3v-37.8H1572v16.5c0,16.4-3.5,21.3-11.3,21.3
		H1559z"/>
	<path class="st0" d="M1600.9,1175h5.3l9.6,24.8l9.3-24.8h5.3l-14.3,36.4c-2,5-3.1,7-7.5,7h-6v-4.6h4.5c2.9,0,3.4-0.7,4.5-3.7
		l1.5-3.8L1600.9,1175z"/>
	<path class="st0" d="M1656.6,1175h5v31.1h-5v-13.5h-17.5v13.5h-5V1175h5v13h17.5V1175z"/>
	<path class="st0" d="M1697.6,1201.5v4.6h-2.7c-4.1,0-5.6-1.8-5.6-4.8c-2,2.8-5.1,5.2-10.4,5.2c-6.8,0-11.5-3.4-11.5-9.1
		c0-6.2,4.3-9.7,12.5-9.7h9.2v-2.1c0-4-2.9-6.5-7.7-6.5c-4.4,0-7.3,2.1-7.9,5.2h-5c0.7-6.1,5.7-9.7,13.2-9.7c7.9,0,12.5,4,12.5,11.2
		v13.6c0,1.6,0.6,2.1,2,2.1H1697.6z M1689,1191.9h-9.6c-4.5,0-7,1.6-7,5.2c0,3.1,2.6,5.1,6.8,5.1c6.2,0,9.8-3.6,9.8-8.8V1191.9z"/>
	<path class="st0" d="M1720.4,1175h5v31.1h-5v-12.5c-2.4,1.6-5.6,2.4-8.7,2.4c-7.6,0-12.2-3.3-12.2-11.3v-9.7h5v8.8
		c0,5.7,2.7,7.6,8.2,7.6c3,0,5.6-0.7,7.7-2.5V1175z"/>
	<path class="st0" d="M1761.4,1201.5v4.6h-2.7c-4.1,0-5.6-1.8-5.6-4.8c-2,2.8-5.1,5.2-10.4,5.2c-6.8,0-11.5-3.4-11.5-9.1
		c0-6.2,4.3-9.7,12.5-9.7h9.2v-2.1c0-4-2.9-6.5-7.7-6.5c-4.4,0-7.3,2.1-7.9,5.2h-5c0.7-6.1,5.7-9.7,13.2-9.7c7.9,0,12.5,4,12.5,11.2
		v13.6c0,1.6,0.6,2.1,2,2.1H1761.4z M1752.8,1191.9h-9.6c-4.5,0-7,1.6-7,5.2c0,3.1,2.6,5.1,6.8,5.1c6.2,0,9.8-3.6,9.8-8.8V1191.9z"
		/>
	<path class="st0" d="M1795.8,1190.5c0,9.5-6.3,15.9-14.9,15.9c-5.2,0-8.8-2.1-10.7-5.1v17h-5V1175h4.3l0.7,5
		c2.1-2.9,5.4-5.4,10.7-5.4C1789.5,1174.6,1795.8,1180.4,1795.8,1190.5z M1790.7,1190.5c0-6.8-4.1-11.5-10.3-11.5
		c-6.1,0-10.3,4.7-10.3,11.3c0,6.8,4.1,11.6,10.3,11.6C1786.6,1202,1790.7,1197.3,1790.7,1190.5z"/>
	<path class="st0" d="M1800.5,1190.6c0-9.5,6.2-16,15.2-16c7.6,0,12.4,4.3,13.7,11.1h-5.2c-0.9-4.1-4-6.7-8.5-6.7
		c-6,0-10,4.8-10,11.5s4,11.4,10,11.4c4.5,0,7.5-2.6,8.5-6.5h5.3c-1.2,6.7-6.3,11-13.8,11
		C1806.4,1206.4,1800.5,1200.3,1800.5,1190.6z"/>
	<path class="st0" d="M1834.9,1206.1V1175h5v13h6.7l9.7-13h5.8l-11.3,14.9l12.3,16.2h-6l-10.4-13.5h-6.7v13.5H1834.9z"/>
	<path class="st0" d="M1864.1,1190.5c0-9.5,6.3-15.9,15.4-15.9c9.1,0,15.4,6.5,15.4,15.9c0,9.5-6.3,15.9-15.4,15.9
		C1870.4,1206.4,1864.1,1200,1864.1,1190.5z M1889.8,1190.5c0-6.6-4.1-11.5-10.3-11.5s-10.3,4.8-10.3,11.5c0,6.7,4.1,11.5,10.3,11.5
		S1889.8,1197.2,1889.8,1190.5z"/>
	<path class="st0" d="M1900.7,1206.1V1175h19.9v4.6h-14.9v26.5H1900.7z"/>
	<path class="st0" d="M1921.9,1190.5c0-9.5,6.3-15.9,15.4-15.9s15.4,6.5,15.4,15.9c0,9.5-6.3,15.9-15.4,15.9
		S1921.9,1200,1921.9,1190.5z M1947.7,1190.5c0-6.6-4.1-11.5-10.3-11.5s-10.3,4.8-10.3,11.5c0,6.7,4.1,11.5,10.3,11.5
		S1947.7,1197.2,1947.7,1190.5z"/>
	<path class="st0" d="M1963.6,1205.9c0,5.2-3.2,8.3-8.6,8.4v-2.9c3.9-0.1,5.1-2.8,5.1-4.9c0-0.3,0-0.5-0.1-0.8
		c-0.5,0.5-1.3,0.7-2.1,0.7c-1.8,0-3.2-1.1-3.2-3.3c0-2,1.5-3.5,4-3.5C1961.7,1199.7,1963.6,1202.5,1963.6,1205.9z"/>
	<path class="st0" d="M2012.6,1201.5h4.9v12.8h-5v-8.2h-25.4v8.2h-5v-12.8h3.2c2.3-1.7,3.5-3.9,3.5-13.5v-13h23.8V1201.5z
		 M2007.6,1201.5v-22h-13.9v9c0,7.1-0.8,10.6-2.3,13H2007.6z"/>
	<path class="st0" d="M2019.7,1190.5c0-9.5,6.3-15.9,15.4-15.9s15.4,6.5,15.4,15.9c0,9.5-6.3,15.9-15.4,15.9
		S2019.7,1200,2019.7,1190.5z M2045.4,1190.5c0-6.6-4.1-11.5-10.3-11.5c-6.2,0-10.3,4.8-10.3,11.5c0,6.7,4.1,11.5,10.3,11.5
		C2041.3,1202,2045.4,1197.2,2045.4,1190.5z"/>
	<path class="st0" d="M2056.3,1206.1V1175h6.2l12,25l11.8-25h6l0.1,31.1h-4.8v-23.5l-11.2,23.5h-4l-11.2-23.5v23.5H2056.3z"/>
	<path class="st0" d="M2113,1201.7l16.6-14.4c4-3.4,7.3-6.7,7.3-11.3c0-5.4-3.7-8.4-9.3-8.4c-5.5,0-9.2,3.7-9.2,9.5v0.8h-5.1v-1.1
		c0-8.1,5.7-13.8,14.3-13.8c9.2,0,14.6,5.1,14.6,12.8c0,6.4-4.1,10.4-9.2,14.8l-12.8,10.9h22.3v4.7H2113V1201.7z"/>
	<path class="st0" d="M2154.5,1163.4h5v42.7h-5.1v-30.6c-0.6,0.5-1.6,0.8-2.9,0.8h-6.9v-4.6h7c2,0,3-1.5,3-3.7V1163.4z"/>
	<path class="st0" d="M2174.2,1205.9c0,5.2-3.2,8.3-8.6,8.4v-2.9c3.9-0.1,5.1-2.8,5.1-4.9c0-0.3,0-0.5-0.1-0.8
		c-0.5,0.5-1.3,0.7-2.1,0.7c-1.8,0-3.2-1.1-3.2-3.3c0-2,1.5-3.5,4-3.5C2172.4,1199.7,2174.2,1202.5,2174.2,1205.9z"/>
	<path class="st0" d="M2195.7,1206.1V1175h5v13h6.7l9.7-13h5.8l-11.3,14.9l12.3,16.2h-6l-10.4-13.5h-6.7v13.5H2195.7z"/>
	<path class="st0" d="M2224.9,1190.5c0-9.5,6.3-15.9,15.4-15.9s15.4,6.5,15.4,15.9c0,9.5-6.3,15.9-15.4,15.9
		S2224.9,1200,2224.9,1190.5z M2250.6,1190.5c0-6.6-4.1-11.5-10.3-11.5s-10.3,4.8-10.3,11.5c0,6.7,4.1,11.5,10.3,11.5
		S2250.6,1197.2,2250.6,1190.5z"/>
	<path class="st0" d="M2292.1,1190.5c0,9.5-6.3,15.9-14.9,15.9c-5.2,0-8.8-2.1-10.7-5.1v17h-5V1175h4.3l0.7,5
		c2.1-2.9,5.4-5.4,10.7-5.4C2285.8,1174.6,2292.1,1180.4,2292.1,1190.5z M2287,1190.5c0-6.8-4.1-11.5-10.3-11.5
		c-6.1,0-10.3,4.7-10.3,11.3c0,6.8,4.1,11.6,10.3,11.6C2282.8,1202,2287,1197.3,2287,1190.5z"/>
	<path class="st0" d="M2297.8,1206.1V1175h26.9v31.1h-5v-26.5h-16.9v26.5H2297.8z"/>
	<path class="st0" d="M2328.5,1175h5.3l9.6,24.8l9.3-24.8h5.3l-14.3,36.4c-2,5-3.1,7-7.5,7h-6v-4.6h4.5c2.9,0,3.4-0.7,4.5-3.7
		l1.5-3.8L2328.5,1175z"/>
	<path class="st0" d="M2359.3,1190.6c0-9.5,6.2-16,15.2-16c7.6,0,12.4,4.3,13.7,11.1h-5.2c-0.9-4.1-4-6.7-8.5-6.7
		c-6,0-10,4.8-10,11.5s4,11.4,10,11.4c4.5,0,7.5-2.6,8.5-6.5h5.3c-1.2,6.7-6.3,11-13.8,11
		C2365.3,1206.4,2359.3,1200.3,2359.3,1190.6z"/>
	<path class="st0" d="M2416.5,1163.4h5v42.7h-5.1v-30.6c-0.6,0.5-1.6,0.8-2.9,0.8h-6.9v-4.6h7c2,0,3-1.5,3-3.7V1163.4z"/>
</g>
<g>
	<path class="st0" d="M1275.5,1312.6h5.2l7.7,25.3l8.2-25.3h4.6l7.7,25.3l8.1-25.3h5.1l-10.4,31.1h-5.5l-7.5-23.1l-7.8,23.1h-5.5
		L1275.5,1312.6z"/>
	<path class="st0" d="M1323.3,1312.6h5.2l7.7,25.3l8.2-25.3h4.6l7.7,25.3l8.1-25.3h5.1l-10.4,31.1h-5.5l-7.5-23.1l-7.8,23.1h-5.5
		L1323.3,1312.6z"/>
	<path class="st0" d="M1371,1312.6h5.2l7.7,25.3l8.2-25.3h4.6l7.7,25.3l8.1-25.3h5.1l-10.4,31.1h-5.5l-7.5-23.1l-7.8,23.1h-5.5
		L1371,1312.6z"/>
	<path class="st0" d="M1422.1,1337.2c2,0,3.5,1.3,3.5,3.4s-1.5,3.4-3.5,3.4c-2,0-3.5-1.3-3.5-3.4S1420.1,1337.2,1422.1,1337.2z"/>
	<path class="st0" d="M1428.7,1328.1c0-9.5,6-15.9,14.8-15.9c8.8,0,14.5,5.6,14.8,14.8c0,0.7-0.1,1.4-0.1,2.1H1434v0.4
		c0.2,5.9,3.9,10.1,9.8,10.1c4.4,0,7.8-2.3,8.8-6.3h5.1c-1.2,6.2-6.3,10.8-13.5,10.8C1434.8,1344.1,1428.7,1337.7,1428.7,1328.1z
		 M1452.9,1325c-0.5-5.4-4.1-8.4-9.3-8.4c-4.6,0-8.8,3.3-9.3,8.4H1452.9z"/>
	<path class="st0" d="M1464,1301h5v42.7h-5V1301z"/>
	<path class="st0" d="M1478.1,1317.2h-5.6v-4.6h5.6v-8.7h5v8.7h8.1v4.6h-8.1v18.4c0,2.6,0.9,3.6,3.6,3.6h4.9v4.6h-5.4
		c-6,0-8.1-2.6-8.1-8.1V1317.2z"/>
	<path class="st0" d="M1524.6,1339.1v4.6h-2.7c-4.1,0-5.6-1.8-5.6-4.8c-2,2.8-5.1,5.2-10.4,5.2c-6.8,0-11.5-3.4-11.5-9.1
		c0-6.2,4.3-9.7,12.5-9.7h9.2v-2.1c0-4-2.9-6.5-7.7-6.5c-4.4,0-7.3,2.1-7.9,5.2h-5c0.7-6.1,5.7-9.7,13.2-9.7c7.9,0,12.5,4,12.5,11.2
		v13.6c0,1.6,0.6,2.1,2,2.1H1524.6z M1516,1329.5h-9.6c-4.5,0-7,1.6-7,5.2c0,3.1,2.6,5.1,6.8,5.1c6.2,0,9.8-3.6,9.8-8.8V1329.5z"/>
	<path class="st0" d="M1532.3,1333.5c0.2,3.7,3.4,6.3,8.6,6.3c4.4,0,7.5-1.9,7.5-4.8c0-3.9-3.4-4.2-8.1-4.8
		c-7-0.9-12.5-2.3-12.5-8.7c0-5.7,5.2-9.4,12.2-9.3c7.1,0.1,12.2,3.4,12.7,9.8h-5.1c-0.4-3.2-3.3-5.6-7.6-5.6
		c-4.3,0-7.3,1.8-7.3,4.7c0,3.4,3.3,3.8,7.8,4.4c7.1,0.9,12.8,2.2,12.8,9.1c0,5.8-5.6,9.4-12.4,9.4c-8.1,0-13.6-3.8-13.7-10.6
		H1532.3z"/>
	<path class="st0" d="M1589.5,1328.1c0,9.5-6.3,15.9-14.9,15.9c-5.2,0-8.8-2.1-10.7-5.1v17h-5v-43.3h4.3l0.7,5
		c2.1-2.9,5.4-5.4,10.7-5.4C1583.2,1312.2,1589.5,1318,1589.5,1328.1z M1584.4,1328.1c0-6.8-4.1-11.5-10.3-11.5
		c-6.1,0-10.2,4.7-10.2,11.3c0,6.8,4.1,11.6,10.2,11.6C1580.3,1339.6,1584.4,1334.9,1584.4,1328.1z"/>
	<path class="st0" d="M1625.9,1328.1c0,9.5-6.3,15.9-14.9,15.9c-5.2,0-8.8-2.1-10.7-5.1l-0.7,4.8h-4.3V1301h5v16.6
		c2.1-2.9,5.4-5.4,10.7-5.4C1619.5,1312.2,1625.9,1318,1625.9,1328.1z M1620.8,1328.1c0-6.8-4.1-11.5-10.3-11.5
		c-6.1,0-10.2,4.7-10.2,11.3c0,6.8,4.1,11.6,10.2,11.6C1616.6,1339.6,1620.8,1334.9,1620.8,1328.1z"/>
	<path class="st0" d="M1632.5,1337.2c2,0,3.5,1.3,3.5,3.4s-1.5,3.4-3.5,3.4s-3.5-1.3-3.5-3.4S1630.5,1337.2,1632.5,1337.2z"/>
	<path class="st0" d="M1658,1312.6v4.9h-2.5c-6.5,0-8.3,5.4-8.3,10.4v15.9h-5v-31.1h4.3l0.7,4.7c1.5-2.4,3.8-4.7,9.4-4.7H1658z"/>
	<path class="st0" d="M1684.1,1312.6h5v31.1h-4.3l-0.7-4.1c-1.8,2.3-4.8,4.5-9.9,4.5c-6.8,0-12.3-3.8-12.3-14.2v-17.3h5v17
		c0,6.5,2.9,9.9,8.1,9.9c5.7,0,9.1-4.3,9.1-11.3V1312.6z"/>
</g>
<g>
	<path class="st0" d="M289.1,1222c0,27-8.4,53.2-23.9,75.3c-15.6,22-37.6,38.7-63,47.7v-31.3c17.4-8.2,32.1-21.2,42.3-37.4
		c10.3-16.2,15.7-35.1,15.7-54.3c0-19.2-5.5-38-15.8-54.2c-10.3-16.2-25-29.2-42.4-37.4V1099c25.5,9,47.5,25.6,63.1,47.7
		C280.7,1168.7,289.1,1195,289.1,1222z"/>
	<rect x="57" y="1207.5" class="st0" width="116.1" height="29"/>
	<path class="st0" d="M231,1222c0-9.5-1.9-18.9-5.5-27.7c-3.6-8.8-9-16.8-15.7-23.5c-6.7-6.7-14.7-12.1-23.5-15.7
		c-8.8-3.6-18.2-5.5-27.8-5.5H115v29h87v86.9h-87v29h43.5c9.5,0,19-1.9,27.8-5.5s16.8-9,23.5-15.7c6.7-6.7,12.1-14.7,15.7-23.5
		C229.2,1240.9,231,1231.5,231,1222z"/>
</g>
<g>
	<g>
		<path class="st0" d="M57,648.3v-42.7h7v17.9h7.1L84,605.6h8.1L77,626.1l16,22.1h-8.5l-13.4-18.5H64v18.5H57z"/>
		<path class="st0" d="M114.1,648.7c-12.3,0-20.7-9.2-20.7-21.7s8.5-21.7,20.7-21.7c12.3,0,20.7,9.2,20.7,21.7
			S126.4,648.7,114.1,648.7z M114.1,642.5c8.1,0,13.5-6.5,13.5-15.6s-5.4-15.6-13.5-15.6c-8.1,0-13.5,6.5-13.5,15.6
			S106,642.5,114.1,642.5z"/>
		<path class="st0" d="M141,605.6h9.1l13.7,33.6l13.4-33.6h8.9v42.7h-6.8v-31.4l-12.8,31.4h-5.9l-12.8-31.4v31.4H141V605.6z"/>
		<path class="st0" d="M193.9,648.3v-42.7h33.6v42.7h-7v-36.5h-19.6v36.5H193.9z"/>
		<path class="st0" d="M231.9,648.3v-6.2h1.1c4.4,0,6.3-2.8,6.3-15.4v-21h30.9v42.7h-7v-36.5h-17.1v15.4c0,15.9-3.8,21.1-12.2,21.1
			H231.9z"/>
		<path class="st0" d="M278,605.6h27.9v6.2H285v11.8h17.2v6H285v12.4h21.6v6.2H278V605.6z"/>
		<path class="st0" d="M312.4,648.3v-42.7h7v17.9h7.1l12.9-17.9h8.1l-15.1,20.6l16,22.1h-8.5l-13.4-18.5h-7.2v18.5H312.4z"/>
		<path class="st0" d="M348.8,626.9c0-13,8-21.7,20.6-21.7c9.8,0,16.8,5.9,18.2,14.9h-7.3c-1.4-5.4-5.4-8.7-11.2-8.7
			c-8.1,0-13.1,6.4-13.1,15.6c0,9.1,4.9,15.6,12.9,15.6c5.9,0,10-3.3,11.3-8.7h7.3c-1.3,9-8.6,14.9-18.5,14.9
			C356.5,648.7,348.8,640,348.8,626.9z"/>
		<path class="st0" d="M393.3,605.6h7v17.9h19.8v-17.9h7v42.7h-7v-18.5h-19.8v18.5h-7V605.6z"/>
		<path class="st0" d="M454.1,648.7c-12.3,0-20.7-9.2-20.7-21.7s8.5-21.7,20.7-21.7c12.3,0,20.7,9.2,20.7,21.7
			S466.3,648.7,454.1,648.7z M454.1,642.5c8.1,0,13.5-6.5,13.5-15.6s-5.4-15.6-13.5-15.6c-8.1,0-13.5,6.5-13.5,15.6
			S446,642.5,454.1,642.5z"/>
		<path class="st0" d="M481,605.6h27.9v6.2H488v11.8h17.2v6H488v12.4h21.6v6.2H481V605.6z"/>
		<path class="st0" d="M530.9,648.3v-42.7h33.6v42.7h-7v-36.5h-19.6v36.5H530.9z"/>
		<path class="st0" d="M572.3,605.6h16.8c8.9,0,14.8,5.3,14.8,13.6c0,8.2-5.9,13.6-14.8,13.6h-9.8v15.5h-7V605.6z M579.4,611.7v15
			h9.2c5,0,8.2-2.9,8.2-7.5c0-4.6-3.2-7.5-8.2-7.5H579.4z"/>
		<path class="st0" d="M628.4,648.7c-12.3,0-20.7-9.2-20.7-21.7s8.5-21.7,20.7-21.7c12.3,0,20.7,9.2,20.7,21.7
			S640.7,648.7,628.4,648.7z M628.4,642.5c8.1,0,13.5-6.5,13.5-15.6s-5.4-15.6-13.5-15.6c-8.1,0-13.5,6.5-13.5,15.6
			S620.3,642.5,628.4,642.5z"/>
		<path class="st0" d="M655.3,605.6h27.9v6.2h-20.9v11.8h17.2v6h-17.2v12.4h21.6v6.2h-28.6V605.6z"/>
		<path class="st0" d="M689.6,648.3v-42.7h7v17.9h7.1l12.9-17.9h8.1l-15.1,20.6l16,22.1h-8.5l-13.4-18.5h-7.2v18.5H689.6z"/>
		<path class="st0" d="M726.6,605.6H760v6.2h-13.2v36.5h-7v-36.5h-13.2V605.6z"/>
		<path class="st0" d="M765.1,648.3v-42.7h7v31.2l20.9-31.2h6.5v42.7h-7v-31.2l-20.9,31.2H765.1z"/>
		<path class="st0" d="M807.3,605.6h16.8c8.9,0,14.8,5.3,14.8,13.6c0,8.2-5.9,13.6-14.8,13.6h-9.8v15.5h-7V605.6z M814.3,611.7v15
			h9.2c5,0,8.2-2.9,8.2-7.5c0-4.6-3.2-7.5-8.2-7.5H814.3z"/>
		<path class="st0" d="M863.3,648.7c-12.3,0-20.7-9.2-20.7-21.7s8.5-21.7,20.7-21.7c12.3,0,20.7,9.2,20.7,21.7
			S875.6,648.7,863.3,648.7z M863.3,642.5c8.1,0,13.5-6.5,13.5-15.6s-5.4-15.6-13.5-15.6c-8.1,0-13.5,6.5-13.5,15.6
			S855.2,642.5,863.3,642.5z"/>
		<path class="st0" d="M890.2,605.6h15.7c9.4,0,14.8,4.3,14.8,11.3c0,5.1-2.9,8.1-7.3,9.3c5.1,0.8,9,3.8,9,9.9
			c0,7.6-5.6,12.2-15.9,12.2h-16.2V605.6z M897.2,611.4v12.3h8.8c4.8,0,7.6-2.3,7.6-6.2c0-3.8-2.7-6.1-7.6-6.1H897.2z M897.2,629.5
			v12.9h9.3c5.6,0,8.6-2.4,8.6-6.3c0-4.2-3.2-6.5-8.6-6.5H897.2z"/>
		<path class="st0" d="M923.6,648.3l16-42.7h8.4l15.9,42.7h-7.5l-4-10.6h-17.5l-4,10.6H923.6z M936.8,631.8h13.6l-6.8-18.6
			L936.8,631.8z"/>
		<path class="st0" d="M968.3,605.6h7v17.9h19.8v-17.9h7v42.7h-7v-18.5h-19.8v18.5h-7V605.6z"/>
		<path class="st0" d="M1010,648.3v-42.7h7v31.2l20.9-31.2h6.5v42.7h-7v-31.2l-20.9,31.2H1010z"/>
		<path class="st0" d="M1052.1,605.6h27.9v6.2h-20.9v11.8h17.2v6h-17.2v12.4h21.6v6.2h-28.6V605.6z"/>
		<path class="st0" d="M1094.9,647.4c0,5.9-3.8,9.3-9.8,9.3v-3.5c3.8-0.1,5.4-2.4,5.4-4.6c0-0.2,0-0.5-0.1-0.8
			c-0.5,0.4-1.3,0.6-2,0.6c-2,0-3.6-1.3-3.6-3.9c0-2.3,1.8-4.1,4.6-4.1C1092.8,640.4,1094.9,643.5,1094.9,647.4z"/>
		<path class="st0" d="M57,671.6H66l13.7,33.6l13.4-33.6h8.9v42.7h-6.8v-31.4l-12.8,31.4h-5.9l-12.8-31.4v31.4H57V671.6z"/>
		<path class="st0" d="M128.9,714.7c-12.3,0-20.7-9.2-20.7-21.7s8.5-21.7,20.7-21.7c12.3,0,20.7,9.2,20.7,21.7
			S141.2,714.7,128.9,714.7z M128.9,708.5c8.1,0,13.5-6.5,13.5-15.6s-5.4-15.6-13.5-15.6c-8.1,0-13.5,6.5-13.5,15.6
			S120.8,708.5,128.9,708.5z"/>
		<path class="st0" d="M155.8,671.6h7v17.9h19.8v-17.9h7v42.7h-7v-18.5h-19.8v18.5h-7V671.6z"/>
		<path class="st0" d="M194.8,671.6h33.4v6.2H215v36.5h-7v-36.5h-13.2V671.6z"/>
		<path class="st0" d="M224.2,714.3l16-42.7h8.4l15.9,42.7h-7.5l-4-10.6h-17.5l-4,10.6H224.2z M237.3,697.8h13.6l-6.8-18.6
			L237.3,697.8z"/>
		<path class="st0" d="M265.8,714.3l15.1-22.1l-14.2-20.6h7.8l12.3,17.9h5.6v-17.9h7v17.9h5.6l12.3-17.9h7.8l-14.2,20.6l15,22.1
			h-8.3l-12.4-18.5h-5.8v18.5h-7v-18.5h-5.7l-12.5,18.5H265.8z"/>
		<path class="st0" d="M346.2,714.3v-42.7h7v31.2l20.9-31.2h6.5v42.7h-7v-31.2l-20.9,31.2H346.2z"/>
		<path class="st0" d="M423.1,714.7c-12.3,0-20.7-9.2-20.7-21.7s8.5-21.7,20.7-21.7c12.3,0,20.7,9.2,20.7,21.7
			S435.3,714.7,423.1,714.7z M423.1,708.5c8.1,0,13.5-6.5,13.5-15.6s-5.4-15.6-13.5-15.6c-8.1,0-13.5,6.5-13.5,15.6
			S415,708.5,423.1,708.5z"/>
		<path class="st0" d="M450,714.3v-42.7h27.4v6.1H457v11h10.1c8.5,0,14.3,4.1,14.3,12.8c0,8.3-5.7,12.9-14.2,12.9H450z M457,708.2
			h9.5c4.8,0,7.7-2.6,7.7-6.8s-3-6.8-7.7-6.8H457V708.2z"/>
		<path class="st0" d="M485,692.9c0-13,8-21.7,20.6-21.7c9.8,0,16.8,5.9,18.2,14.9h-7.3c-1.4-5.4-5.4-8.7-11.2-8.7
			c-8.1,0-13.1,6.4-13.1,15.6c0,9.1,4.9,15.6,12.9,15.6c5.9,0,10-3.3,11.3-8.7h7.3c-1.3,9-8.6,14.9-18.5,14.9
			C492.7,714.7,485,706,485,692.9z"/>
		<path class="st0" d="M525.4,714.3v-6.2h1.1c4.4,0,6.3-2.8,6.3-15.4v-21h30.9v42.7h-7v-36.5h-17.1v15.4c0,15.9-3.8,21.1-12.2,21.1
			H525.4z"/>
		<path class="st0" d="M573.1,714.3v-6.2h3.9c3.5,0,4.8-0.6,6.2-3.7l1.1-2.4l-16.5-30.4h7.8l12.2,23.1l10.2-23.1h7.4l-16,34.7
			c-2.8,6.2-5.9,8.1-10.6,8.1H573.1z"/>
		<path class="st0" d="M606.4,714.3l15.1-22.1l-14.2-20.6h7.8l12.3,17.9h5.6v-17.9h7v17.9h5.6l12.3-17.9h7.8l-14.2,20.6l15,22.1
			h-8.3l-12.4-18.5h-5.8v18.5h-7v-18.5h-5.7l-12.5,18.5H606.4z"/>
		<path class="st0" d="M671.2,714.3v-42.7h7v31.2l20.9-31.2h6.5v42.7h-7v-31.2l-20.9,31.2H671.2z"/>
		<path class="st0" d="M713.3,671.6H729c9.4,0,14.8,4.3,14.8,11.3c0,5.1-2.9,8.1-7.3,9.3c5.1,0.8,9,3.8,9,9.9
			c0,7.6-5.6,12.2-15.9,12.2h-16.2V671.6z M720.3,677.4v12.3h8.8c4.8,0,7.6-2.3,7.6-6.2c0-3.8-2.7-6.1-7.6-6.1H720.3z M720.3,695.5
			v12.9h9.3c5.6,0,8.6-2.4,8.6-6.3c0-4.2-3.2-6.5-8.6-6.5H720.3z"/>
		<path class="st0" d="M746.7,714.3l16-42.7h8.4l15.9,42.7h-7.5l-4-10.6H758l-4,10.6H746.7z M759.9,697.8h13.6l-6.8-18.6
			L759.9,697.8z"/>
		<path class="st0" d="M791.4,671.6h7v17.9h19.8v-17.9h7v42.7h-7v-18.5h-19.8v18.5h-7V671.6z"/>
		<path class="st0" d="M833.1,714.3v-42.7h7v31.2l20.9-31.2h6.5v42.7h-7v-31.2l-20.9,31.2H833.1z"/>
		<path class="st0" d="M875.2,671.6h27.9v6.2h-20.9v11.8h17.2v6h-17.2v12.4h21.6v6.2h-28.6V671.6z"/>
		<path class="st0" d="M57,780.3v-42.7h7v31.2l20.9-31.2h6.5v42.7h-7v-31.2l-20.9,31.2H57z"/>
		<path class="st0" d="M99.1,737.6h7v17.9h19.8v-17.9h7v42.7h-7v-18.5h-19.8v18.5h-7V737.6z"/>
		<path class="st0" d="M137.7,780.3l15.1-22.1l-14.2-20.6h7.8l12.3,17.9h5.6v-17.9h7v17.9h5.6l12.3-17.9h7.8l-14.2,20.6l15,22.1
			h-8.3L177,761.7h-5.8v18.5h-7v-18.5h-5.7L146,780.3H137.7z"/>
		<path class="st0" d="M202.4,737.6h27.9v6.2h-20.9v11.8h17.2v6h-17.2v12.4h21.6v6.2h-28.6V737.6z"/>
		<path class="st0" d="M236.8,737.6h7v17.9h19.8v-17.9h7v42.7h-7v-18.5h-19.8v18.5h-7V737.6z"/>
		<path class="st0" d="M278.4,737.6h27.9v6.2h-20.9v11.8h17.2v6h-17.2v12.4h21.6v6.2h-28.6V737.6z"/>
		<path class="st0" d="M312.8,737.6h16.8c8.9,0,14.8,5.3,14.8,13.6c0,8.2-5.9,13.6-14.8,13.6h-9.8v15.5h-7V737.6z M319.8,743.7v15
			h9.2c5,0,8.2-2.9,8.2-7.5c0-4.6-3.2-7.5-8.2-7.5H319.8z"/>
		<path class="st0" d="M349.8,737.6h7v17.9h19.8v-17.9h7v42.7h-7v-18.5h-19.8v18.5h-7V737.6z"/>
		<path class="st0" d="M391.4,780.3v-42.7h7v15.6h9.5c8.9,0,14.8,5.6,14.8,13.6c0,7.9-5.9,13.5-14.8,13.5H391.4z M398.4,774.2h9
			c4.9,0,8.2-2.9,8.2-7.4c0-4.6-3.2-7.4-8.2-7.4h-8.9V774.2z M427.8,780.3v-42.7h7v42.7H427.8z"/>
		<path class="st0" d="M453.6,758.4l-13.4-20.9h8.3l9.6,15.2l9.8-15.2h7.9l-13.4,20.6l14.2,22.1h-8.4l-10.4-16.4l-10.5,16.4h-7.9
			L453.6,758.4z"/>
		<path class="st0" d="M495.3,758.9c0-13,8-21.7,20.6-21.7c9.8,0,16.8,5.9,18.2,14.9h-7.3c-1.4-5.4-5.4-8.7-11.2-8.7
			c-8.1,0-13.1,6.4-13.1,15.6c0,9.1,4.9,15.6,12.9,15.6c5.9,0,10-3.3,11.3-8.7h7.3c-1.3,9-8.6,14.9-18.5,14.9
			C503,780.7,495.3,772,495.3,758.9z"/>
		<path class="st0" d="M539.8,780.3v-42.7h7v31.2l20.9-31.2h6.5v42.7h-7v-31.2l-20.9,31.2H539.8z"/>
		<path class="st0" d="M580.3,758.9c0-13,8-21.7,20.6-21.7c9.8,0,16.8,5.9,18.2,14.9h-7.3c-1.4-5.4-5.4-8.7-11.2-8.7
			c-8.1,0-13.1,6.4-13.1,15.6c0,9.1,4.9,15.6,12.9,15.6c5.9,0,10-3.3,11.3-8.7h7.3c-1.3,9-8.6,14.9-18.5,14.9
			C588.1,780.7,580.3,772,580.3,758.9z"/>
		<path class="st0" d="M620.2,737.6h33.4v6.2h-13.2v36.5h-7v-36.5h-13.2V737.6z"/>
		<path class="st0" d="M658.7,737.6h27.9v6.2h-20.9v11.8h17.2v6h-17.2v12.4h21.6v6.2h-28.6V737.6z"/>
		<path class="st0" d="M693.1,737.6h9.1l13.7,33.6l13.4-33.6h8.9v42.7h-6.8v-31.4l-12.8,31.4h-5.9l-12.8-31.4v31.4h-6.8V737.6z"/>
	</g>
</g>
<g>
	<g>
		<path class="st0" d="M116,104.8c0,19.8-12.2,33.1-31.4,33.1c-15,0-25.4-8.8-27.7-22.4H68c2.1,8,8,13.1,17.2,13.1
			c11,0,18.4-7.7,19.8-19.5H80V100h25C103.5,88.5,96.5,81,85.7,81c-9.3,0-15.1,5.1-17.3,13.1h-11c2.2-13.6,12.9-22.4,27.9-22.4
			C104.5,71.8,116,84.9,116,104.8z"/>
		<path class="st0" d="M117,137.3v-9.5h1.7c6.7,0,9.7-4.3,9.7-23.5v-32h47v65h-10.7V81.8h-26.1v23.4c0,24.2-5.8,32.1-18.6,32.1H117z
			"/>
		<path class="st0" d="M183.1,72.3h50.8v9.5h-20.1v55.5h-10.7V81.8h-20.1V72.3z"/>
		<path class="st0" d="M227.8,137.3l24.3-65h12.7l24.2,65h-11.4l-6.1-16.1h-26.6l-6,16.1H227.8z M247.9,112.1h20.7l-10.4-28.3
			L247.9,112.1z"/>
	</g>
</g>
<line class="st1" x1="57" y1="-0.1" x2="57" y2="1417.4"/>
<line class="st1" x1="289.1" y1="-0.1" x2="289.1" y2="1417.4"/>
<line class="st1" x1="2551.2" y1="71.8" x2="-1.1" y2="71.8"/>
<line class="st1" x1="2551.7" y1="280.9" x2="-0.5" y2="280.9"/>
<line class="st1" x1="2551.7" y1="605.2" x2="-0.5" y2="605.2"/>
<line class="st1" x1="2551.7" y1="780.7" x2="-0.5" y2="780.7"/>
<line class="st1" x1="2551.7" y1="1099" x2="-0.5" y2="1099"/>
<line class="st1" x1="2551.2" y1="1344.9" x2="-1.1" y2="1344.9"/>
<line class="st1" x1="1094.9" y1="-0.1" x2="1094.9" y2="1417.4"/>
<line class="st1" x1="1276" y1="-0.1" x2="1276" y2="1417.4"/>
<line class="st1" x1="2421.5" y1="-0.1" x2="2421.5" y2="1417.4"/>
</svg>
