<?xml version="1.0" encoding="utf-8"?>
<!-- Generator: Adobe Illustrator 22.0.0, SVG Export Plug-In . SVG Version: 6.00 Build 0)  -->
<svg version="1.1" id="Layer_1" xmlns="http://www.w3.org/2000/svg" xmlns:xlink="http://www.w3.org/1999/xlink" x="0px" y="0px"
	 viewBox="0 0 2551.2 1417.3" style="enable-background:new 0 0 2551.2 1417.3;" xml:space="preserve">
<style type="text/css">
	.st0{fill:#FFFFFF;}
	.st1{fill:none;stroke:#52525F;stroke-miterlimit:10;}
</style>
<rect width="2551.2" height="1417.3"/>
<g>
	<path class="st0" d="M1496.4,708.7c0,51.3-15.9,101.3-45.5,143.2c-29.6,41.9-71.5,73.6-119.9,90.7v-59.5
		c33.1-15.7,61-40.4,80.6-71.3c19.6-30.9,29.9-66.7,29.9-103.3c0-36.6-10.4-72.3-30-103.2c-19.6-30.9-47.6-55.6-80.6-71.2v-59.5
		c48.4,17.1,90.4,48.8,120,90.7C1480.5,607.3,1496.4,657.4,1496.4,708.7z"/>
	<rect x="1054.7" y="681.1" class="st0" width="220.8" height="55.1"/>
	<path class="st0" d="M1386,708.7c0-18.1-3.6-36-10.5-52.8c-6.9-16.7-17.1-31.9-29.9-44.7c-12.8-12.8-28-23-44.8-29.9
		c-16.7-6.9-34.7-10.5-52.8-10.5h-82.7V626h165.6v165.4h-165.6v55.2h82.7c18.1,0,36.1-3.6,52.8-10.5c16.8-6.9,32-17.1,44.8-29.9
		c12.8-12.8,23-28,29.9-44.7C1382.4,744.7,1386,726.8,1386,708.7z"/>
</g>
<line class="st1" x1="1054.7" y1="0" x2="1054.7" y2="1417.3"/>
<line class="st1" x1="1496.7" y1="0" x2="1496.7" y2="1417.3"/>
<line class="st1" x1="2551.2" y1="474.7" x2="0" y2="474.7"/>
<line class="st1" x1="2551.2" y1="942.7" x2="0" y2="942.7"/>
</svg>
