<?xml version="1.0" encoding="utf-8"?>
<!-- Generator: Adobe Illustrator 22.0.0, SVG Export Plug-In . SVG Version: 6.00 Build 0)  -->
<svg version="1.1" id="Бараев_Александр_Анатольевич"
	 xmlns="http://www.w3.org/2000/svg" xmlns:xlink="http://www.w3.org/1999/xlink" x="0px" y="0px" viewBox="0 0 2551.2 1417.3"
	 style="enable-background:new 0 0 2551.2 1417.3;" xml:space="preserve">
<style type="text/css">
	.st0{fill:#D1D1D5;}
	.st1{fill:#1B1B2D;}
</style>
<rect class="st0" width="2551.2" height="1417.3"/>
<g>
	<g>
		<path class="st1" d="M1279.4,123.6V78.1h26.7v5.2h-21v40.3H1279.4z"/>
		<path class="st1" d="M1333.9,107.1c0,10.1-6.8,17-15.9,17c-5.6,0-9.4-2.3-11.4-5.5v18.1h-5.3V90.5h4.6l0.7,5.3
			c2.2-3.1,5.8-5.7,11.4-5.7C1327.2,90.1,1333.9,96.3,1333.9,107.1z M1328.5,107.1c0-7.2-4.4-12.2-11-12.2c-6.5,0-10.9,5-10.9,12.1
			c0,7.3,4.4,12.4,10.9,12.4C1324,119.3,1328.5,114.3,1328.5,107.1z"/>
		<path class="st1" d="M1370.3,118.8v4.9h-2.9c-4.4,0-5.9-1.9-6-5.1c-2.1,3-5.4,5.5-11.1,5.5c-7.3,0-12.2-3.6-12.2-9.7
			c0-6.6,4.6-10.3,13.3-10.3h9.8v-2.3c0-4.3-3.1-6.9-8.3-6.9c-4.7,0-7.8,2.2-8.5,5.6h-5.3c0.8-6.5,6-10.3,14-10.3
			c8.4,0,13.3,4.2,13.3,12v14.5c0,1.8,0.7,2.2,2.1,2.2H1370.3z M1361.2,108.5h-10.3c-4.7,0-7.4,1.8-7.4,5.5c0,3.3,2.8,5.5,7.2,5.5
			c6.6,0,10.5-3.8,10.5-9.4V108.5z"/>
		<path class="st1" d="M1405.4,118.8h5.3v13.7h-5.3v-8.8h-27v8.8h-5.3v-13.7h3.4c2.4-1.8,3.7-4.2,3.7-14.4V90.5h25.4V118.8z
			 M1400.1,118.8V95.4h-14.8v9.6c0,7.6-0.8,11.3-2.5,13.8H1400.1z"/>
		<path class="st1" d="M1434,90.5h5.3v33.2h-5.3v-13.3c-2.5,1.7-6,2.5-9.2,2.5c-8.1,0-13-3.5-13-12V90.5h5.3v9.4
			c0,6,2.9,8.1,8.7,8.1c3.2,0,6-0.8,8.2-2.7V90.5z"/>
		<path class="st1" d="M1477.5,118.8v4.9h-2.9c-4.4,0-5.9-1.9-6-5.1c-2.1,3-5.4,5.5-11.1,5.5c-7.3,0-12.2-3.6-12.2-9.7
			c0-6.6,4.6-10.3,13.3-10.3h9.8v-2.3c0-4.3-3.1-6.9-8.3-6.9c-4.7,0-7.8,2.2-8.5,5.6h-5.3c0.8-6.5,6-10.3,14-10.3
			c8.4,0,13.3,4.2,13.3,12v14.5c0,1.8,0.7,2.2,2.1,2.2H1477.5z M1468.3,108.5h-10.3c-4.7,0-7.4,1.8-7.4,5.5c0,3.3,2.8,5.5,7.2,5.5
			c6.6,0,10.5-3.8,10.5-9.4V108.5z"/>
		<path class="st1" d="M1505.9,90.5h5.3v33.2h-5.3v-14.4h-18.7v14.4h-5.3V90.5h5.3v13.8h18.7V90.5z"/>
		<path class="st1" d="M1518.6,123.6V90.5h5.2v25.1l19.8-25.1h4.7v33.2h-5.2V98.5l-19.8,25.2H1518.6z"/>
		<path class="st1" d="M1579.6,90.5h5.3v33.2h-5.3v-14.4h-18.7v14.4h-5.3V90.5h5.3v13.8h18.7V90.5z"/>
		<path class="st1" d="M1590.7,107.1c0-10.1,6.8-17,16.4-17s16.4,6.9,16.4,17c0,10.1-6.8,17-16.4,17S1590.7,117.1,1590.7,107.1z
			 M1618.2,107.1c0-7.1-4.4-12.2-11-12.2c-6.6,0-11,5.1-11,12.2c0,7.1,4.4,12.2,11,12.2C1613.7,119.3,1618.2,114.2,1618.2,107.1z"/>
		<path class="st1" d="M1629.5,123.6V90.5h14.1c8.2,0,12.2,3.2,12.2,8.9c0,4.2-2.7,6.4-5.5,7.1c3.8,0.6,6.7,3,6.7,7.5
			c0,6.4-4.5,9.6-13.2,9.6H1629.5z M1634.8,104.6h9.2c4.4,0,6.3-1.8,6.3-4.8c0-3.2-1.9-4.7-6.3-4.7h-9.2V104.6z M1634.8,119.1h9.8
			c4.5,0,7-1.6,7-5c0-3.3-2.5-5.1-7-5.1h-9.8V119.1z"/>
		<path class="st1" d="M1677.6,123.6l17.4-45.5h6.7l17.3,45.5h-6l-4.8-12.3h-19.8l-4.8,12.3H1677.6z M1690,106.2h16.4l-8.3-21.9
			L1690,106.2z"/>
		<path class="st1" d="M1721.6,123.6v-4.9h1c3.8,0,5.2-2.3,5.2-12.2V90.5h25.1v33.2h-5.3V95.4H1733v11.4c0,13.2-3.1,16.9-9.6,16.9
			H1721.6z"/>
		<path class="st1" d="M1758.7,107.1c0-10.1,6.4-17,15.7-17c9.4,0,15.5,5.9,15.7,15.7c0,0.7-0.1,1.5-0.1,2.3h-25.7v0.5
			c0.2,6.3,4.2,10.7,10.5,10.7c4.7,0,8.3-2.5,9.4-6.8h5.4c-1.3,6.6-6.8,11.5-14.4,11.5C1765.2,124,1758.7,117.2,1758.7,107.1z
			 M1784.4,103.7c-0.5-5.7-4.4-8.9-9.9-8.9c-4.9,0-9.4,3.5-9.9,8.9H1784.4z"/>
		<path class="st1" d="M1796,123.6V90.5h5.3v13.8h7.1l10.3-13.8h6.2l-12.1,15.9l13.1,17.2h-6.4l-11.1-14.4h-7.1v14.4H1796z"/>
		<path class="st1" d="M1826.4,107.1c0-10.1,6.6-17,16.2-17c8.1,0,13.3,4.5,14.6,11.8h-5.6c-1-4.4-4.2-7.1-9.1-7.1
			c-6.4,0-10.7,5.1-10.7,12.3c0,7.2,4.3,12.2,10.7,12.2c4.7,0,8-2.7,9-7h5.7c-1.3,7.2-6.7,11.7-14.8,11.7
			C1832.7,124,1826.4,117.5,1826.4,107.1z"/>
		<path class="st1" d="M1893.7,118.8v4.9h-2.9c-4.4,0-5.9-1.9-6-5.1c-2.1,3-5.4,5.5-11.1,5.5c-7.3,0-12.2-3.6-12.2-9.7
			c0-6.6,4.6-10.3,13.3-10.3h9.8v-2.3c0-4.3-3.1-6.9-8.3-6.9c-4.7,0-7.8,2.2-8.5,5.6h-5.3c0.8-6.5,6-10.3,14-10.3
			c8.5,0,13.3,4.2,13.3,12v14.5c0,1.8,0.6,2.2,2.1,2.2H1893.7z M1884.5,108.5h-10.3c-4.7,0-7.4,1.8-7.4,5.5c0,3.3,2.8,5.5,7.2,5.5
			c6.6,0,10.5-3.8,10.5-9.4V108.5z"/>
		<path class="st1" d="M1922.1,90.5h5.3v33.2h-5.3v-14.4h-18.7v14.4h-5.3V90.5h5.3v13.8h18.7V90.5z"/>
		<path class="st1" d="M1963.9,118.8h5.3v13.7h-5.3v-8.8h-27v8.8h-5.3v-13.7h3.4c2.4-1.8,3.7-4.2,3.7-14.4V90.5h25.4V118.8z
			 M1958.6,118.8V95.4h-14.8v9.6c0,7.6-0.8,11.3-2.5,13.8H1958.6z"/>
		<path class="st1" d="M2006.9,107.1c0,10.1-6.8,17-15.9,17c-5.6,0-9.4-2.3-11.4-5.5v18.1h-5.3V90.5h4.6l0.7,5.3
			c2.2-3.1,5.8-5.7,11.4-5.7C2000.1,90.1,2006.9,96.3,2006.9,107.1z M2001.4,107.1c0-7.2-4.4-12.2-11-12.2c-6.5,0-10.9,5-10.9,12.1
			c0,7.3,4.4,12.4,10.9,12.4C1997,119.3,2001.4,114.3,2001.4,107.1z"/>
		<path class="st1" d="M2031.4,78.1h5.7v19.8h23.5V78.1h5.7v45.5h-5.7v-20.5h-23.5v20.5h-5.7V78.1z"/>
		<path class="st1" d="M2074.1,123.6V90.5h5.2v25.1l19.8-25.1h4.7v33.2h-5.2V98.5l-19.8,25.2H2074.1z"/>
		<path class="st1" d="M2111.1,123.6V90.5h5.3v13.8h7.1l10.3-13.8h6.2l-12.1,15.9l13.1,17.2h-6.4l-11.1-14.4h-7.1v14.4H2111.1z"/>
		<path class="st1" d="M2141.5,107.1c0-10.1,6.8-17,16.4-17c9.7,0,16.4,6.9,16.4,17c0,10.1-6.8,17-16.4,17
			C2148.2,124,2141.5,117.1,2141.5,107.1z M2168.9,107.1c0-7.1-4.4-12.2-11-12.2s-11,5.1-11,12.2c0,7.1,4.4,12.2,11,12.2
			S2168.9,114.2,2168.9,107.1z"/>
		<path class="st1" d="M2175.9,123.6v-4.9h1c3.8,0,5.2-2.3,5.2-12.2V90.5h25.1v33.2h-5.3V95.4h-14.6v11.4c0,13.2-3.1,16.9-9.6,16.9
			H2175.9z"/>
		<path class="st1" d="M2245.4,118.8v4.9h-2.9c-4.4,0-5.9-1.9-6-5.1c-2.1,3-5.4,5.5-11.1,5.5c-7.3,0-12.2-3.6-12.2-9.7
			c0-6.6,4.6-10.3,13.3-10.3h9.8v-2.3c0-4.3-3.1-6.9-8.3-6.9c-4.7,0-7.8,2.2-8.5,5.6h-5.3c0.8-6.5,6-10.3,14-10.3
			c8.5,0,13.3,4.2,13.3,12v14.5c0,1.8,0.6,2.2,2.1,2.2H2245.4z M2236.2,108.5h-10.3c-4.7,0-7.4,1.8-7.4,5.5c0,3.3,2.8,5.5,7.2,5.5
			c6.6,0,10.5-3.8,10.5-9.4V108.5z"/>
		<path class="st1" d="M2247.6,107.1c0-10.1,6.4-17,15.7-17c9.4,0,15.5,5.9,15.7,15.7c0,0.7-0.1,1.5-0.1,2.3h-25.7v0.5
			c0.2,6.3,4.2,10.7,10.5,10.7c4.7,0,8.3-2.5,9.4-6.8h5.4c-1.3,6.6-6.8,11.5-14.4,11.5C2254.1,124,2247.6,117.2,2247.6,107.1z
			 M2273.3,103.7c-0.5-5.7-4.4-8.9-9.9-8.9c-4.9,0-9.4,3.5-9.9,8.9H2273.3z"/>
		<path class="st1" d="M2284.9,123.6V90.5h14.1c8.2,0,12.2,3.2,12.2,8.9c0,4.2-2.7,6.4-5.5,7.1c3.8,0.6,6.7,3,6.7,7.5
			c0,6.4-4.5,9.6-13.2,9.6H2284.9z M2290.2,104.6h9.2c4.4,0,6.3-1.8,6.3-4.8c0-3.2-1.9-4.7-6.3-4.7h-9.2V104.6z M2290.2,119.1h9.8
			c4.5,0,7-1.6,7-5c0-3.3-2.5-5.1-7-5.1h-9.8V119.1z"/>
		<path class="st1" d="M2318.2,123.6V90.5h5.2v25.1l19.8-25.1h4.7v33.2h-5.2V98.5l-19.8,25.2H2318.2z"/>
		<path class="st1" d="M2375.7,90.5h5.3v33.2h-5.3v-13.3c-2.5,1.7-6,2.5-9.2,2.5c-8.1,0-13-3.5-13-12V90.5h5.3v9.4
			c0,6,2.9,8.1,8.7,8.1c3.2,0,6-0.8,8.2-2.7V90.5z"/>
		<path class="st1" d="M1276.3,150.1h35.2v5.2h-14.8v40.3h-5.7v-40.3h-14.8V150.1z"/>
		<path class="st1" d="M1308,179.1c0-10.1,6.4-17,15.7-17c9.4,0,15.5,5.9,15.7,15.7c0,0.7-0.1,1.5-0.1,2.3h-25.7v0.5
			c0.2,6.3,4.2,10.7,10.5,10.7c4.7,0,8.3-2.5,9.4-6.8h5.4c-1.3,6.6-6.8,11.5-14.4,11.5C1314.5,196,1308,189.2,1308,179.1z
			 M1333.8,175.7c-0.5-5.7-4.4-8.9-9.9-8.9c-4.9,0-9.4,3.5-9.9,8.9H1333.8z"/>
		<path class="st1" d="M1352.8,178.6l-11.8-16.1h6.4l8.8,12.3l8.9-12.3h6l-11.8,16.1l12.7,17h-6.4l-9.7-13.3l-9.7,13.3h-6
			L1352.8,178.6z"/>
		<path class="st1" d="M1399.9,162.5h5.3v33.2h-5.3v-14.4h-18.7v14.4h-5.3v-33.2h5.3v13.8h18.7V162.5z"/>
		<path class="st1" d="M1412.6,195.6v-33.2h5.2v25.1l19.8-25.1h4.7v33.2h-5.2v-25.2l-19.8,25.2H1412.6z"/>
		<path class="st1" d="M1470,162.5h5.3v33.2h-5.3v-13.3c-2.5,1.7-6,2.5-9.2,2.5c-8.1,0-13-3.5-13-12v-10.3h5.3v9.4
			c0,6,2.9,8.1,8.7,8.1c3.2,0,6-0.8,8.2-2.7V162.5z"/>
		<path class="st1" d="M1481.2,179.1c0-10.1,6.4-17,15.7-17s15.5,5.9,15.7,15.7c0,0.7-0.1,1.5-0.1,2.3h-25.7v0.5
			c0.2,6.3,4.2,10.7,10.5,10.7c4.7,0,8.3-2.5,9.4-6.8h5.4c-1.3,6.6-6.8,11.5-14.4,11.5C1487.7,196,1481.2,189.2,1481.2,179.1z
			 M1506.9,175.7c-0.5-5.7-4.4-8.9-9.9-8.9c-4.9,0-9.4,3.5-9.9,8.9H1506.9z"/>
		<path class="st1" d="M1517.1,179.1c0-10.1,6.6-17,16.2-17c8.1,0,13.3,4.5,14.6,11.8h-5.6c-1-4.4-4.2-7.1-9.1-7.1
			c-6.4,0-10.7,5.1-10.7,12.3c0,7.2,4.3,12.2,10.7,12.2c4.7,0,8-2.7,9-7h5.7c-1.3,7.2-6.7,11.7-14.8,11.7
			C1523.5,196,1517.1,189.5,1517.1,179.1z"/>
		<path class="st1" d="M1553.5,195.6v-33.2h5.3v13.8h7.1l10.3-13.8h6.2l-12.1,15.9l13.1,17.2h-6.4l-11-14.4h-7.2v14.4H1553.5z"/>
		<path class="st1" d="M1587.4,195.6v-33.2h5.2v25.1l19.8-25.1h4.7v33.2h-5.2v-25.2l-19.8,25.2H1587.4z"/>
		<path class="st1" d="M1624.4,195.6v-33.2h5.2v25.1l19.8-25.1h4.7v33.2h-5.2v-25.2l-19.8,25.2H1624.4z M1629.6,149.8h4.4
			c0,3.2,1.4,5.1,5.1,5.1s5.3-2,5.3-5.1h4.4c-0.1,5.5-3.4,8.9-9.8,8.9C1632.8,158.7,1629.7,155.3,1629.6,149.8z"/>
		<path class="st1" d="M1708.3,190.8h5.3v13.7h-5.3v-8.8h-27v8.8h-5.3v-13.7h3.4c2.4-1.8,3.7-4.2,3.7-14.4v-13.8h25.4V190.8z
			 M1703,190.8v-23.4h-14.8v9.6c0,7.6-0.8,11.3-2.5,13.8H1703z"/>
		<path class="st1" d="M1717.9,195.6v-33.2h5.2v25.1l19.8-25.1h4.7v33.2h-5.2v-25.2l-19.8,25.2H1717.9z"/>
		<path class="st1" d="M1787.6,179.1c0,10.1-6.8,17-15.9,17c-5.6,0-9.4-2.3-11.4-5.5v18.1h-5.3v-46.2h4.6l0.7,5.3
			c2.2-3.1,5.8-5.7,11.4-5.7C1780.8,162.1,1787.6,168.3,1787.6,179.1z M1782.1,179.1c0-7.2-4.4-12.2-11-12.2
			c-6.5,0-10.9,5-10.9,12.1c0,7.3,4.4,12.4,10.9,12.4C1777.7,191.3,1782.1,186.3,1782.1,179.1z"/>
		<path class="st1" d="M1792,179.1c0-10.1,6.4-17,15.7-17c9.4,0,15.5,5.9,15.7,15.7c0,0.7-0.1,1.5-0.1,2.3h-25.7v0.5
			c0.2,6.3,4.2,10.7,10.5,10.7c4.7,0,8.3-2.5,9.4-6.8h5.4c-1.3,6.6-6.8,11.5-14.4,11.5C1798.5,196,1792,189.2,1792,179.1z
			 M1817.8,175.7c-0.5-5.7-4.4-8.9-9.9-8.9c-4.9,0-9.4,3.5-9.9,8.9H1817.8z"/>
		<path class="st1" d="M1829.3,195.6v-33.2h5.3v13.8h7.1l10.3-13.8h6.2l-12.1,15.9l13.1,17.2h-6.4l-11.1-14.4h-7.1v14.4H1829.3z"/>
		<path class="st1" d="M1873.3,195.6v-28.3h-12v-4.9h29.3v4.9h-12v28.3H1873.3z"/>
		<path class="st1" d="M1892.5,179.1c0-10.1,6.8-17,16.4-17c9.7,0,16.4,6.9,16.4,17c0,10.1-6.8,17-16.4,17
			C1899.3,196,1892.5,189.1,1892.5,179.1z M1920,179.1c0-7.1-4.4-12.2-11-12.2s-11,5.1-11,12.2c0,7.1,4.4,12.2,11,12.2
			S1920,186.2,1920,179.1z"/>
		<path class="st1" d="M1963.9,179.1c0,10.1-6.8,17-15.9,17c-5.6,0-9.4-2.3-11.4-5.5v18.1h-5.3v-46.2h4.6l0.7,5.3
			c2.2-3.1,5.8-5.7,11.4-5.7C1957.1,162.1,1963.9,168.3,1963.9,179.1z M1958.4,179.1c0-7.2-4.4-12.2-11-12.2
			c-6.5,0-10.9,5-10.9,12.1c0,7.3,4.4,12.4,10.9,12.4C1954,191.3,1958.4,186.3,1958.4,179.1z"/>
	</g>
</g>
<g>
	<g>
		<path class="st1" d="M1275.7,1124.4c0-13.8,8.5-23.1,21.7-23.1c10.1,0,17.4,5.9,19.1,15.3h-6c-1.8-6.3-6.6-10.1-13.4-10.1
			c-9.6,0-15.7,7.4-15.7,17.9c0,10.5,5.8,17.9,15.4,17.9c7,0,11.9-3.7,13.6-10.1h6c-1.7,9.4-9.2,15.3-19.5,15.3
			C1283.9,1147.5,1275.7,1138.3,1275.7,1124.4z"/>
		<path class="st1" d="M1352.8,1142.3v4.9h-2.9c-4.4,0-5.9-1.9-6-5.1c-2.1,3-5.4,5.5-11.1,5.5c-7.3,0-12.2-3.6-12.2-9.7
			c0-6.6,4.6-10.3,13.3-10.3h9.8v-2.3c0-4.3-3.1-6.9-8.3-6.9c-4.7,0-7.8,2.2-8.5,5.6h-5.3c0.8-6.5,6-10.3,14-10.3
			c8.4,0,13.3,4.2,13.3,12v14.5c0,1.8,0.7,2.2,2.1,2.2H1352.8z M1343.7,1132h-10.3c-4.7,0-7.4,1.8-7.4,5.5c0,3.3,2.8,5.5,7.2,5.5
			c6.6,0,10.5-3.8,10.5-9.4V1132z"/>
		<path class="st1" d="M1381.2,1114h5.3v33.2h-5.3v-14.4h-18.7v14.4h-5.3V1114h5.3v13.8h18.7V1114z"/>
		<path class="st1" d="M1393.9,1147.1V1114h5.3v13.8h7.1l10.3-13.8h6.2l-12.1,15.9l13.1,17.2h-6.4l-11-14.4h-7.2v14.4H1393.9z"/>
		<path class="st1" d="M1437.9,1147.1v-28.3h-12v-4.9h29.3v4.9h-12v28.3H1437.9z"/>
		<path class="st1" d="M1456.9,1130.9v-4.5h21.6v4.5H1456.9z"/>
		<path class="st1" d="M1485.8,1147.1v-45.5h34.5v45.5h-5.7v-40.3h-23.2v40.3H1485.8z"/>
		<path class="st1" d="M1526.5,1130.5c0-10.1,6.4-17,15.7-17c9.4,0,15.5,5.9,15.7,15.7c0,0.7-0.1,1.5-0.1,2.3h-25.7v0.5
			c0.2,6.3,4.2,10.7,10.5,10.7c4.7,0,8.3-2.5,9.4-6.8h5.4c-1.3,6.6-6.8,11.5-14.4,11.5C1533,1147.5,1526.5,1140.7,1526.5,1130.5z
			 M1552.2,1127.2c-0.5-5.7-4.4-8.9-9.9-8.9c-4.9,0-9.4,3.5-9.9,8.9H1552.2z"/>
		<path class="st1" d="M1572.1,1147.1v-28.3h-12v-4.9h29.3v4.9h-12v28.3H1572.1z"/>
		<path class="st1" d="M1591.5,1130.5c0-10.1,6.4-17,15.7-17c9.4,0,15.5,5.9,15.7,15.7c0,0.7-0.1,1.5-0.1,2.3h-25.7v0.5
			c0.2,6.3,4.2,10.7,10.5,10.7c4.7,0,8.3-2.5,9.4-6.8h5.4c-1.3,6.6-6.8,11.5-14.4,11.5C1598,1147.5,1591.5,1140.7,1591.5,1130.5z
			 M1617.2,1127.2c-0.5-5.7-4.4-8.9-9.9-8.9c-4.9,0-9.4,3.5-9.9,8.9H1617.2z"/>
		<path class="st1" d="M1661.4,1130.5c0,10.1-6.8,17-15.9,17c-5.6,0-9.4-2.3-11.4-5.5v18.1h-5.3V1114h4.6l0.7,5.3
			c2.2-3.1,5.8-5.7,11.4-5.7C1654.7,1113.6,1661.4,1119.8,1661.4,1130.5z M1656,1130.5c0-7.2-4.4-12.2-11-12.2
			c-6.5,0-10.9,5-10.9,12.1c0,7.3,4.4,12.3,10.9,12.3C1651.5,1142.8,1656,1137.8,1656,1130.5z"/>
		<path class="st1" d="M1698.7,1131.7c0,9.2-6.4,15.9-16.2,15.9c-9.9,0-16.2-6-16.2-18.6c0-17.7,4.2-24.4,18.6-26.3l11.2-1.4v5
			l-10.1,1.3c-10.4,1.4-13.4,4.1-14.4,13.9c2.3-3.2,6.5-5.3,12.2-5.3C1692.3,1116.2,1698.7,1122.2,1698.7,1131.7z M1693.3,1131.8
			c0-6.4-4.4-11-10.7-11c-6.5,0-10.9,4.6-10.9,10.3c0,7.4,4.6,11.7,10.8,11.7C1688.8,1142.9,1693.3,1138.3,1693.3,1131.8z"/>
		<path class="st1" d="M1699.4,1114h5.7l10.2,26.5l9.9-26.5h5.7l-15.3,38.7c-2.1,5.3-3.3,7.4-8,7.4h-6.4v-4.9h4.7
			c3.1,0,3.6-0.8,4.8-3.9l1.6-4L1699.4,1114z"/>
		<path class="st1" d="M1767.5,1130.5c0,10.1-6.8,17-15.9,17c-5.6,0-9.4-2.3-11.4-5.5v18.1h-5.3V1114h4.6l0.7,5.3
			c2.2-3.1,5.8-5.7,11.4-5.7C1760.7,1113.6,1767.5,1119.8,1767.5,1130.5z M1762,1130.5c0-7.2-4.4-12.2-11-12.2
			c-6.5,0-10.9,5-10.9,12.1c0,7.3,4.4,12.3,10.9,12.3C1757.6,1142.8,1762,1137.8,1762,1130.5z"/>
		<path class="st1" d="M1773.3,1147.1V1114h21.3v4.9h-15.9v28.3H1773.3z"/>
		<path class="st1" d="M1799.2,1146.9c0,5.5-3.4,8.8-9.2,9v-3.1c4.2-0.1,5.5-3,5.5-5.2c0-0.3,0-0.6-0.1-0.8
			c-0.5,0.5-1.4,0.8-2.2,0.8c-2,0-3.4-1.2-3.4-3.5c0-2.1,1.6-3.8,4.3-3.8C1797.3,1140.3,1799.2,1143.4,1799.2,1146.9z"/>
		<path class="st1" d="M1275.6,1213.1V1180h28.7v33.2h-5.3v-28.3h-18v28.3H1275.6z"/>
		<path class="st1" d="M1344.3,1196.5c0,10.1-6.8,17-15.9,17c-5.6,0-9.4-2.3-11.4-5.5v18.1h-5.3V1180h4.6l0.7,5.3
			c2.2-3.1,5.8-5.7,11.4-5.7C1337.6,1179.6,1344.3,1185.8,1344.3,1196.5z M1338.9,1196.5c0-7.2-4.4-12.2-11-12.2
			c-6.5,0-10.9,5-10.9,12.1c0,7.3,4.4,12.3,10.9,12.3C1334.4,1208.8,1338.9,1203.8,1338.9,1196.5z"/>
		<path class="st1" d="M1351,1206.2c2.1,0,3.7,1.4,3.7,3.6c0,2.2-1.6,3.6-3.7,3.6s-3.7-1.4-3.7-3.6
			C1347.3,1207.7,1348.8,1206.2,1351,1206.2z"/>
		<path class="st1" d="M1375.9,1213.1v-5.2h1.1c5,0,7.2-3.1,7.2-17.9v-22.4h31.6v45.5h-5.7v-40.3h-20.5v17.6
			c0,17.5-3.8,22.7-12,22.7H1375.9z"/>
		<path class="st1" d="M1420.2,1180h5.7l10.2,26.5l9.9-26.5h5.7l-15.3,38.7c-2.1,5.3-3.3,7.4-8,7.4h-6.4v-4.9h4.7
			c3.1,0,3.6-0.8,4.8-3.9l1.6-4L1420.2,1180z"/>
		<path class="st1" d="M1479.6,1180h5.3v33.2h-5.3v-14.4H1461v14.4h-5.3V1180h5.3v13.8h18.7V1180z"/>
		<path class="st1" d="M1523.1,1208.3v4.9h-2.9c-4.4,0-5.9-1.9-6-5.1c-2.1,3-5.4,5.5-11.1,5.5c-7.3,0-12.2-3.6-12.2-9.7
			c0-6.6,4.6-10.3,13.3-10.3h9.8v-2.3c0-4.3-3.1-6.9-8.3-6.9c-4.7,0-7.8,2.2-8.4,5.6h-5.3c0.8-6.5,6-10.3,14-10.3
			c8.5,0,13.3,4.2,13.3,12v14.5c0,1.8,0.7,2.2,2.1,2.2H1523.1z M1513.9,1198h-10.3c-4.7,0-7.4,1.8-7.4,5.5c0,3.3,2.8,5.5,7.2,5.5
			c6.6,0,10.5-3.8,10.5-9.4V1198z"/>
		<path class="st1" d="M1546.7,1180h5.3v33.2h-5.3v-13.3c-2.5,1.7-6,2.5-9.2,2.5c-8.1,0-13-3.5-13-12V1180h5.3v9.4
			c0,6,2.9,8.1,8.7,8.1c3.2,0,6-0.8,8.2-2.7V1180z"/>
		<path class="st1" d="M1590.2,1208.3v4.9h-2.9c-4.4,0-5.9-1.9-6-5.1c-2.1,3-5.4,5.5-11.1,5.5c-7.3,0-12.2-3.6-12.2-9.7
			c0-6.6,4.6-10.3,13.3-10.3h9.8v-2.3c0-4.3-3.1-6.9-8.3-6.9c-4.7,0-7.8,2.2-8.4,5.6h-5.3c0.8-6.5,6-10.3,14-10.3
			c8.5,0,13.3,4.2,13.3,12v14.5c0,1.8,0.7,2.2,2.1,2.2H1590.2z M1581,1198h-10.3c-4.7,0-7.4,1.8-7.4,5.5c0,3.3,2.8,5.5,7.2,5.5
			c6.6,0,10.5-3.8,10.5-9.4V1198z"/>
		<path class="st1" d="M1627.2,1196.5c0,10.1-6.8,17-15.9,17c-5.6,0-9.4-2.3-11.4-5.5v18.1h-5.3V1180h4.6l0.7,5.3
			c2.2-3.1,5.8-5.7,11.4-5.7C1620.4,1179.6,1627.2,1185.8,1627.2,1196.5z M1621.7,1196.5c0-7.2-4.4-12.2-11-12.2
			c-6.5,0-10.9,5-10.9,12.1c0,7.3,4.4,12.3,10.9,12.3C1617.3,1208.8,1621.7,1203.8,1621.7,1196.5z"/>
		<path class="st1" d="M1631.6,1196.6c0-10.1,6.6-17,16.2-17c8.1,0,13.3,4.5,14.6,11.8h-5.6c-1-4.4-4.2-7.1-9.1-7.1
			c-6.4,0-10.7,5.1-10.7,12.3s4.3,12.2,10.7,12.2c4.7,0,8-2.7,9-7h5.7c-1.3,7.2-6.7,11.7-14.8,11.7
			C1638,1213.5,1631.6,1206.9,1631.6,1196.6z"/>
		<path class="st1" d="M1668,1213.1V1180h5.3v13.8h7.1l10.3-13.8h6.2l-12.1,15.9l13.1,17.2h-6.4l-11-14.4h-7.2v14.4H1668z"/>
		<path class="st1" d="M1698.4,1196.5c0-10.1,6.8-17,16.4-17s16.4,6.9,16.4,17c0,10.1-6.8,17-16.4,17S1698.4,1206.6,1698.4,1196.5z
			 M1725.8,1196.5c0-7.1-4.4-12.2-11-12.2c-6.6,0-11,5.1-11,12.2c0,7.1,4.4,12.2,11,12.2C1721.4,1208.8,1725.8,1203.6,1725.8,1196.5
			z"/>
		<path class="st1" d="M1737.1,1213.1V1180h21.3v4.9h-15.9v28.3H1737.1z"/>
		<path class="st1" d="M1760.3,1196.5c0-10.1,6.8-17,16.4-17s16.4,6.9,16.4,17c0,10.1-6.8,17-16.4,17S1760.3,1206.6,1760.3,1196.5z
			 M1787.7,1196.5c0-7.1-4.4-12.2-11-12.2c-6.6,0-11,5.1-11,12.2c0,7.1,4.4,12.2,11,12.2C1783.3,1208.8,1787.7,1203.6,1787.7,1196.5
			z"/>
		<path class="st1" d="M1804.8,1212.9c0,5.5-3.4,8.8-9.2,9v-3.1c4.2-0.1,5.5-3,5.5-5.2c0-0.3,0-0.6-0.1-0.8
			c-0.5,0.5-1.4,0.8-2.2,0.8c-1.9,0-3.4-1.2-3.4-3.5c0-2.1,1.6-3.8,4.3-3.8C1802.9,1206.3,1804.8,1209.4,1804.8,1212.9z"/>
		<path class="st1" d="M1857.7,1208.3h5.3v13.7h-5.3v-8.8h-27v8.8h-5.3v-13.7h3.4c2.4-1.8,3.7-4.2,3.7-14.4V1180h25.4V1208.3z
			 M1852.3,1208.3v-23.4h-14.8v9.6c0,7.6-0.8,11.3-2.5,13.8H1852.3z"/>
		<path class="st1" d="M1865.1,1196.5c0-10.1,6.8-17,16.4-17c9.7,0,16.4,6.9,16.4,17c0,10.1-6.8,17-16.4,17
			C1871.8,1213.5,1865.1,1206.6,1865.1,1196.5z M1892.5,1196.5c0-7.1-4.4-12.2-11-12.2s-11,5.1-11,12.2c0,7.1,4.4,12.2,11,12.2
			S1892.5,1203.6,1892.5,1196.5z"/>
		<path class="st1" d="M1903.8,1213.1V1180h6.6l12.7,26.7l12.5-26.7h6.4l0.1,33.2h-5.1v-25l-11.9,25h-4.3l-11.9-25v25H1903.8z"/>
		<path class="st1" d="M1964.9,1208.5l17.7-15.3c4.2-3.6,7.7-7.2,7.7-12.1c0-5.7-3.9-9-9.9-9c-5.9,0-9.8,3.9-9.8,10.1v0.8h-5.5v-1.2
			c0-8.6,6-14.7,15.2-14.7c9.8,0,15.5,5.4,15.5,13.6c0,6.8-4.4,11.1-9.8,15.7l-13.7,11.6h23.8v5h-31.3V1208.5z"/>
		<path class="st1" d="M2009.9,1167.6h5.3v45.5h-5.5v-32.6c-0.7,0.6-1.7,0.8-3.1,0.8h-7.3v-4.9h7.4c2.1,0,3.2-1.6,3.2-3.9V1167.6z"
			/>
		<path class="st1" d="M2031.9,1212.9c0,5.5-3.4,8.8-9.2,9v-3.1c4.2-0.1,5.5-3,5.5-5.2c0-0.3,0-0.6-0.1-0.8
			c-0.5,0.5-1.4,0.8-2.2,0.8c-2,0-3.4-1.2-3.4-3.5c0-2.1,1.6-3.8,4.3-3.8C2030,1206.3,2031.9,1209.4,2031.9,1212.9z"/>
		<path class="st1" d="M2055.5,1213.1V1180h5.3v13.8h7.1l10.3-13.8h6.2l-12.1,15.9l13.1,17.2h-6.4l-11.1-14.4h-7.2v14.4H2055.5z"/>
		<path class="st1" d="M2085.8,1196.5c0-10.1,6.8-17,16.4-17c9.7,0,16.4,6.9,16.4,17c0,10.1-6.8,17-16.4,17
			C2092.6,1213.5,2085.8,1206.6,2085.8,1196.5z M2113.3,1196.5c0-7.1-4.4-12.2-11-12.2s-11,5.1-11,12.2c0,7.1,4.4,12.2,11,12.2
			S2113.3,1203.6,2113.3,1196.5z"/>
		<path class="st1" d="M2157.2,1196.5c0,10.1-6.8,17-15.9,17c-5.6,0-9.4-2.3-11.4-5.5v18.1h-5.3V1180h4.6l0.7,5.3
			c2.2-3.1,5.8-5.7,11.4-5.7C2150.4,1179.6,2157.2,1185.8,2157.2,1196.5z M2151.7,1196.5c0-7.2-4.4-12.2-11-12.2
			c-6.5,0-10.9,5-10.9,12.1c0,7.3,4.4,12.3,10.9,12.3C2147.3,1208.8,2151.7,1203.8,2151.7,1196.5z"/>
		<path class="st1" d="M2163,1213.1V1180h28.7v33.2h-5.3v-28.3h-18v28.3H2163z"/>
		<path class="st1" d="M2195.7,1180h5.7l10.2,26.5l9.9-26.5h5.7l-15.3,38.7c-2.1,5.3-3.3,7.4-8,7.4h-6.4v-4.9h4.7
			c3.1,0,3.6-0.8,4.8-3.9l1.6-4L2195.7,1180z"/>
		<path class="st1" d="M2228.1,1196.6c0-10.1,6.6-17,16.2-17c8.1,0,13.3,4.5,14.6,11.8h-5.6c-1-4.4-4.2-7.1-9.1-7.1
			c-6.4,0-10.7,5.1-10.7,12.3s4.3,12.2,10.7,12.2c4.7,0,8-2.7,9-7h5.7c-1.3,7.2-6.7,11.7-14.8,11.7
			C2234.4,1213.5,2228.1,1206.9,2228.1,1196.6z"/>
		<path class="st1" d="M2289.6,1167.6h5.3v45.5h-5.5v-32.6c-0.7,0.6-1.7,0.8-3.1,0.8h-7.3v-4.9h7.4c2.1,0,3.2-1.6,3.2-3.9V1167.6z"
			/>
		<path class="st1" d="M1276.5,1312h5.6l8.3,27l8.7-27h4.9l8.3,27l8.6-27h5.4l-11.1,33.2h-5.9l-8-24.6l-8.3,24.6h-5.8L1276.5,1312z"
			/>
		<path class="st1" d="M1328.9,1312h5.6l8.3,27l8.7-27h4.9l8.3,27l8.6-27h5.4l-11,33.2h-5.9l-8-24.6l-8.3,24.6h-5.9L1328.9,1312z"/>
		<path class="st1" d="M1381.2,1312h5.6l8.3,27l8.7-27h4.9l8.3,27l8.6-27h5.4l-11.1,33.2h-5.8l-8-24.6l-8.3,24.6h-5.8L1381.2,1312z"
			/>
		<path class="st1" d="M1434.7,1338.2c2.1,0,3.7,1.4,3.7,3.6c0,2.2-1.6,3.6-3.7,3.6s-3.7-1.4-3.7-3.6
			C1431,1339.7,1432.6,1338.2,1434.7,1338.2z"/>
		<path class="st1" d="M1442.2,1328.5c0-10.1,6.4-17,15.7-17s15.5,5.9,15.7,15.7c0,0.7-0.1,1.5-0.1,2.3h-25.7v0.5
			c0.2,6.3,4.2,10.7,10.5,10.7c4.7,0,8.3-2.5,9.4-6.8h5.4c-1.3,6.6-6.8,11.5-14.4,11.5C1448.7,1345.5,1442.2,1338.7,1442.2,1328.5z
			 M1468,1325.2c-0.5-5.7-4.4-8.9-9.9-8.9c-4.9,0-9.4,3.5-9.9,8.9H1468z"/>
		<path class="st1" d="M1479.5,1299.6h5.3v45.5h-5.3V1299.6z"/>
		<path class="st1" d="M1494.5,1316.8h-6v-4.9h6v-9.3h5.3v9.3h8.6v4.9h-8.6v19.6c0,2.8,1,3.8,3.8,3.8h5.3v4.9h-5.8
			c-6.4,0-8.6-2.8-8.6-8.6V1316.8z"/>
		<path class="st1" d="M1544.3,1340.3v4.9h-2.9c-4.4,0-5.9-1.9-6-5.1c-2.1,3-5.4,5.5-11.1,5.5c-7.3,0-12.2-3.6-12.2-9.7
			c0-6.6,4.6-10.3,13.3-10.3h9.8v-2.3c0-4.3-3.1-6.9-8.3-6.9c-4.7,0-7.8,2.2-8.4,5.6h-5.3c0.8-6.5,6-10.3,14-10.3
			c8.5,0,13.3,4.2,13.3,12v14.5c0,1.8,0.7,2.2,2.1,2.2H1544.3z M1535.1,1330h-10.3c-4.7,0-7.4,1.8-7.4,5.5c0,3.3,2.8,5.5,7.2,5.5
			c6.6,0,10.5-3.8,10.5-9.4V1330z"/>
		<path class="st1" d="M1552.3,1334.2c0.2,3.9,3.6,6.8,9.2,6.8c4.7,0,8-2,8-5.1c0-4.2-3.6-4.5-8.6-5.1c-7.4-0.9-13.3-2.4-13.3-9.3
			c0-6,5.5-10,13-9.9c7.5,0.1,13,3.6,13.5,10.5h-5.5c-0.4-3.4-3.5-5.9-8.1-5.9c-4.6,0-7.7,2-7.7,5c0,3.6,3.5,4.1,8.3,4.7
			c7.5,0.9,13.6,2.3,13.6,9.7c0,6.2-5.9,10-13.3,10c-8.6,0-14.5-4-14.6-11.3H1552.3z"/>
		<path class="st1" d="M1613.1,1328.5c0,10.1-6.8,17-15.9,17c-5.6,0-9.4-2.3-11.4-5.5v18.1h-5.3V1312h4.6l0.7,5.3
			c2.2-3.1,5.8-5.7,11.4-5.7C1606.4,1311.6,1613.1,1317.8,1613.1,1328.5z M1607.7,1328.5c0-7.2-4.4-12.2-11-12.2
			c-6.5,0-10.9,5-10.9,12.1c0,7.3,4.4,12.3,10.9,12.3C1603.3,1340.8,1607.7,1335.8,1607.7,1328.5z"/>
		<path class="st1" d="M1651.5,1328.5c0,10.1-6.8,17-15.9,17c-5.6,0-9.4-2.3-11.4-5.5l-0.7,5.1h-4.6v-45.5h5.3v17.7
			c2.2-3.1,5.8-5.7,11.4-5.7C1644.8,1311.6,1651.5,1317.8,1651.5,1328.5z M1646.1,1328.5c0-7.2-4.4-12.2-11-12.2
			c-6.5,0-10.9,5-10.9,12.1c0,7.3,4.4,12.3,10.9,12.3C1641.6,1340.8,1646.1,1335.8,1646.1,1328.5z"/>
		<path class="st1" d="M1659.1,1338.2c2.1,0,3.7,1.4,3.7,3.6c0,2.2-1.6,3.6-3.7,3.6s-3.7-1.4-3.7-3.6
			C1655.4,1339.7,1657,1338.2,1659.1,1338.2z"/>
		<path class="st1" d="M1686.2,1312v5.2h-2.7c-7,0-8.8,5.8-8.8,11.1v16.9h-5.3V1312h4.6l0.7,5c1.6-2.5,4.1-5,10-5H1686.2z"/>
		<path class="st1" d="M1713.7,1312h5.3v33.2h-4.6l-0.7-4.4c-2,2.5-5.1,4.8-10.6,4.8c-7.3,0-13.1-4.1-13.1-15.1V1312h5.3v18.1
			c0,6.9,3.1,10.5,8.6,10.5c6,0,9.7-4.6,9.7-12.1V1312z"/>
	</g>
</g>
<g>
	<path class="st1" d="M301.1,1222c0,27-8.4,53.2-23.9,75.3c-15.6,22-37.6,38.7-63,47.7v-31.3c17.4-8.2,32.1-21.2,42.3-37.4
		c10.3-16.2,15.7-35.1,15.7-54.3c0-19.2-5.5-38-15.8-54.2c-10.3-16.2-25-29.2-42.4-37.4V1099c25.5,9,47.5,25.6,63.1,47.7
		C292.7,1168.7,301.1,1195,301.1,1222z"/>
	<rect x="69" y="1207.5" class="st1" width="116.1" height="29"/>
	<path class="st1" d="M243.1,1222c0-9.5-1.9-18.9-5.5-27.7c-3.6-8.8-9-16.8-15.7-23.5c-6.7-6.7-14.7-12.1-23.5-15.7
		c-8.8-3.6-18.2-5.5-27.8-5.5h-43.5v29h87v86.9h-87v29h43.5c9.5,0,19-1.9,27.8-5.5c8.8-3.6,16.8-9,23.5-15.7
		c6.7-6.7,12.1-14.7,15.7-23.5C241.2,1240.9,243.1,1231.5,243.1,1222z"/>
</g>
<g>
	<g>
		<path class="st1" d="M128.6,109.1c0,20-12.3,33.4-31.7,33.4c-15.2,0-25.7-8.9-27.9-22.6h11.2c2.2,8.1,8.1,13.2,17.3,13.2
			c11.1,0,18.6-7.8,20-19.7H92.3v-9.2h25.2c-1.5-11.6-8.5-19.1-19.4-19.1c-9.4,0-15.3,5.2-17.4,13.2H69.5
			c2.3-13.7,13-22.6,28.2-22.6C117,75.8,128.6,89,128.6,109.1z"/>
		<path class="st1" d="M129.9,142v-9.6h1.7c6.8,0,9.8-4.3,9.8-23.7V76.3h47.5V142H178V85.9h-26.4v23.6c0,24.5-5.9,32.4-18.8,32.4
			H129.9z"/>
		<path class="st1" d="M195.1,76.3h51.3v9.6h-20.3V142h-10.8V85.9h-20.3V76.3z"/>
		<path class="st1" d="M239.2,142l24.6-65.6h12.8l24.5,65.6h-11.5l-6.2-16.2h-26.9l-6.1,16.2H239.2z M259.5,116.6h20.9l-10.5-28.6
			L259.5,116.6z"/>
	</g>
</g>
<g>
	<g>
		<path class="st1" d="M69,615.8v-45.5h5.7V590H83l15-19.8h6.6l-16.7,22l17.7,23.5h-6.9L83,595.2h-8.4v20.5H69z"/>
		<path class="st1" d="M126.6,616.2c-12.8,0-21.7-9.8-21.7-23.1s8.9-23.1,21.7-23.1s21.7,9.8,21.7,23.1S139.4,616.2,126.6,616.2z
			 M126.6,611c9.5,0,15.9-7.5,15.9-17.9s-6.4-17.9-15.9-17.9s-15.9,7.5-15.9,17.9S117.1,611,126.6,611z"/>
		<path class="st1" d="M154.2,570.3h7.1l16.1,37.8l15.9-37.8h7v45.5h-5.5v-35.9l-15.1,35.9h-5l-15.1-35.9v35.9h-5.5V570.3z"/>
		<path class="st1" d="M208.6,615.8v-45.5h34.5v45.5h-5.7v-40.3h-23.2v40.3H208.6z"/>
		<path class="st1" d="M247.7,615.8v-5.2h1.1c5,0,7.2-3.1,7.2-17.9v-22.4h31.6v45.5h-5.7v-40.3h-20.5v17.6c0,17.5-3.8,22.7-12,22.7
			H247.7z"/>
		<path class="st1" d="M295.7,570.3h29v5.2h-23.3V590h19.4v5.2h-19.4v15.3h24.2v5.2h-29.8V570.3z"/>
		<path class="st1" d="M330.6,615.8v-45.5h5.7V590h8.4l15-19.8h6.6l-16.7,22l17.7,23.5h-6.9l-15.7-20.5h-8.4v20.5H330.6z"/>
		<path class="st1" d="M366.5,593c0-13.8,8.5-23.1,21.7-23.1c10.1,0,17.4,5.9,19.1,15.3h-6c-1.8-6.3-6.6-10.1-13.4-10.1
			c-9.6,0-15.7,7.4-15.7,17.9c0,10.5,5.9,17.9,15.4,17.9c7,0,11.9-3.7,13.6-10.1h6c-1.7,9.4-9.2,15.3-19.5,15.3
			C374.7,616.2,366.5,606.9,366.5,593z"/>
		<path class="st1" d="M412.9,570.3h5.7V590h23.5v-19.8h5.7v45.5h-5.7v-20.5h-23.5v20.5h-5.7V570.3z"/>
		<path class="st1" d="M475.4,616.2c-12.8,0-21.7-9.8-21.7-23.1s8.9-23.1,21.7-23.1s21.7,9.8,21.7,23.1S488.2,616.2,475.4,616.2z
			 M475.4,611c9.5,0,15.9-7.5,15.9-17.9s-6.4-17.9-15.9-17.9s-15.9,7.5-15.9,17.9S465.9,611,475.4,611z"/>
		<path class="st1" d="M503.1,570.3h29v5.2h-23.3V590h19.4v5.2h-19.4v15.3h24.2v5.2h-29.8V570.3z"/>
		<path class="st1" d="M557,615.8v-45.5h34.5v45.5h-5.7v-40.3h-23.2v40.3H557z"/>
		<path class="st1" d="M599.6,570.3h17.5c9.1,0,15.1,5.5,15.1,14c0,8.5-6,14-15.1,14h-11.8v17.5h-5.7V570.3z M605.3,575.5v17.6h11.3
			c6,0,9.8-3.4,9.8-8.8c0-5.4-3.8-8.8-9.8-8.8H605.3z"/>
		<path class="st1" d="M657.8,616.2c-12.8,0-21.7-9.8-21.7-23.1s8.9-23.1,21.7-23.1s21.7,9.8,21.7,23.1S670.6,616.2,657.8,616.2z
			 M657.8,611c9.5,0,15.9-7.5,15.9-17.9s-6.4-17.9-15.9-17.9s-15.9,7.5-15.9,17.9S648.3,611,657.8,611z"/>
		<path class="st1" d="M685.5,570.3h29v5.2h-23.3V590h19.4v5.2h-19.4v15.3h24.2v5.2h-29.8V570.3z"/>
		<path class="st1" d="M720.4,615.8v-45.5h5.7V590h8.4l15-19.8h6.6l-16.7,22l17.7,23.5h-6.9l-15.7-20.5H726v20.5H720.4z"/>
		<path class="st1" d="M759.7,570.3h35.2v5.2h-14.8v40.3h-5.7v-40.3h-14.8V570.3z"/>
		<path class="st1" d="M799.7,615.8v-45.5h5.7v36.1l24.4-36.1h5.3v45.5h-5.7v-36.1l-24.4,36.1H799.7z"/>
		<path class="st1" d="M843.1,570.3h17.5c9.1,0,15.1,5.5,15.1,14c0,8.5-6,14-15.1,14h-11.8v17.5h-5.7V570.3z M848.7,575.5v17.6H860
			c6,0,9.8-3.4,9.8-8.8c0-5.4-3.8-8.8-9.8-8.8H848.7z"/>
		<path class="st1" d="M901.2,616.2c-12.8,0-21.7-9.8-21.7-23.1s8.9-23.1,21.7-23.1s21.7,9.8,21.7,23.1S914,616.2,901.2,616.2z
			 M901.2,611c9.5,0,15.9-7.5,15.9-17.9s-6.4-17.9-15.9-17.9s-15.9,7.5-15.9,17.9S891.7,611,901.2,611z"/>
		<path class="st1" d="M928.9,570.3H945c9.7,0,15.1,4.7,15.1,12c0,5.2-2.9,8.4-7.1,9.9c4.8,0.9,9,4,9,10.6c0,8.1-5.7,13-16.5,13
			h-16.6V570.3z M934.6,575.4V590h10.7c5.9,0,9.2-2.7,9.2-7.3c0-4.5-3.3-7.3-9.2-7.3H934.6z M934.6,595.1v15.5h10.9
			c7,0,10.7-2.9,10.7-7.6c0-5.1-4-7.9-10.7-7.9H934.6z"/>
		<path class="st1" d="M963.9,615.8l17.4-45.5h6.7l17.3,45.5h-6l-4.8-12.3h-19.8l-4.8,12.3H963.9z M976.2,598.3h16.4l-8.3-21.9
			L976.2,598.3z"/>
		<path class="st1" d="M1009.8,570.3h5.7V590h23.5v-19.8h5.7v45.5h-5.7v-20.5h-23.5v20.5h-5.7V570.3z"/>
		<path class="st1" d="M1052.7,615.8v-45.5h5.7v36.1l24.4-36.1h5.3v45.5h-5.7v-36.1l-24.4,36.1H1052.7z"/>
		<path class="st1" d="M1096.2,570.3h29v5.2h-23.3V590h19.4v5.2h-19.4v15.3h24.2v5.2h-29.8V570.3z"/>
		<path class="st1" d="M1139.3,615.6c0,5.5-3.4,8.8-9.2,9v-3.1c4.2-0.1,5.5-3,5.5-5.2c0-0.3,0-0.6-0.1-0.8c-0.5,0.5-1.4,0.8-2.2,0.8
			c-2,0-3.4-1.2-3.4-3.5c0-2.1,1.6-3.8,4.3-3.8C1137.4,608.9,1139.3,612,1139.3,615.6z"/>
		<path class="st1" d="M69,642.3h7.2L92.3,680l15.9-37.8h7v45.5h-5.5v-35.9l-15.1,35.9h-5l-15.1-35.9v35.9H69V642.3z"/>
		<path class="st1" d="M142.9,688.2c-12.8,0-21.7-9.8-21.7-23.1s8.9-23.1,21.7-23.1s21.7,9.8,21.7,23.1S155.7,688.2,142.9,688.2z
			 M142.9,683c9.5,0,15.9-7.5,15.9-17.9s-6.4-17.9-15.9-17.9S127,654.5,127,665S133.4,683,142.9,683z"/>
		<path class="st1" d="M170.6,642.3h5.7V662h23.5v-19.8h5.7v45.5h-5.7v-20.5h-23.5v20.5h-5.7V642.3z"/>
		<path class="st1" d="M210.3,642.3h35.2v5.2h-14.8v40.3H225v-40.3h-14.8V642.3z"/>
		<path class="st1" d="M240.5,687.8l17.4-45.5h6.7l17.3,45.5h-6l-4.8-12.3h-19.8l-4.8,12.3H240.5z M252.8,670.3h16.4l-8.3-21.9
			L252.8,670.3z"/>
		<path class="st1" d="M284.8,687.8l16.6-23.4l-15.5-22.1h6.4l14,19.8h6.8v-19.8h5.7v19.8h6.8l14-19.8h6.4l-15.5,22.1l16.5,23.4
			h-6.8l-14.4-20.5h-7v20.5h-5.7v-20.5h-7l-14.5,20.5H284.8z"/>
		<path class="st1" d="M370,687.8v-45.5h5.7v36.1l24.4-36.1h5.3v45.5h-5.7v-36.1l-24.4,36.1H370z"/>
		<path class="st1" d="M451.9,688.2c-12.8,0-21.7-9.8-21.7-23.1s8.9-23.1,21.7-23.1s21.7,9.8,21.7,23.1S464.7,688.2,451.9,688.2z
			 M451.9,683c9.5,0,15.9-7.5,15.9-17.9s-6.4-17.9-15.9-17.9s-15.9,7.5-15.9,17.9S442.4,683,451.9,683z"/>
		<path class="st1" d="M479.6,687.8v-45.5h28v5.2h-22.4v13.4h12.2c8.7,0,14.6,4.4,14.6,13.4c0,8.5-5.9,13.5-14.6,13.5H479.6z
			 M485.2,682.6h11.7c5.7,0,9.3-3.2,9.3-8.3c0-5.1-3.6-8.3-9.4-8.3h-11.6V682.6z"/>
		<path class="st1" d="M516.1,665c0-13.8,8.5-23.1,21.7-23.1c10.1,0,17.4,5.9,19.1,15.3h-6c-1.8-6.3-6.6-10.1-13.4-10.1
			c-9.6,0-15.7,7.4-15.7,17.9c0,10.5,5.9,17.9,15.4,17.9c7,0,11.9-3.7,13.6-10.1h6c-1.7,9.4-9.2,15.3-19.5,15.3
			C524.3,688.2,516.1,678.9,516.1,665z"/>
		<path class="st1" d="M558.4,687.8v-5.2h1.1c5,0,7.2-3.1,7.2-17.9v-22.4h31.6v45.5h-5.7v-40.3h-20.5v17.6c0,17.5-3.8,22.7-12,22.7
			H558.4z"/>
		<path class="st1" d="M608.1,687.8v-5.2h4.1c3.7,0,5.1-0.6,6.8-4.3l1.4-3.1l-17.6-32.9h6.5l14,26.8l12-26.8h6.1L624,679.8
			c-2.9,6.2-5.8,8-10.4,8H608.1z"/>
		<path class="st1" d="M643.8,687.8l16.6-23.4l-15.5-22.1h6.4l14,19.8h6.8v-19.8h5.7v19.8h6.8l14-19.8h6.4l-15.5,22.1l16.5,23.4
			h-6.8l-14.4-20.5h-7v20.5h-5.7v-20.5h-7l-14.5,20.5H643.8z"/>
		<path class="st1" d="M710.7,687.8v-45.5h5.7v36.1l24.4-36.1h5.3v45.5h-5.7v-36.1L716,687.8H710.7z"/>
		<path class="st1" d="M754.2,642.3h16.1c9.7,0,15.1,4.7,15.1,12c0,5.2-2.9,8.4-7.2,9.9c4.8,0.9,9,4,9,10.6c0,8.1-5.7,13-16.5,13
			h-16.6V642.3z M759.8,647.4V662h10.7c5.9,0,9.2-2.7,9.2-7.3c0-4.5-3.3-7.3-9.2-7.3H759.8z M759.8,667.1v15.5h10.9
			c7,0,10.7-2.9,10.7-7.6c0-5.1-4-7.9-10.7-7.9H759.8z"/>
		<path class="st1" d="M789.1,687.8l17.4-45.5h6.7l17.3,45.5h-6l-4.8-12.3h-19.8l-4.8,12.3H789.1z M801.5,670.3h16.4l-8.3-21.9
			L801.5,670.3z"/>
		<path class="st1" d="M835,642.3h5.7V662h23.5v-19.8h5.7v45.5h-5.7v-20.5h-23.5v20.5H835V642.3z"/>
		<path class="st1" d="M878,687.8v-45.5h5.7v36.1l24.4-36.1h5.3v45.5h-5.7v-36.1l-24.4,36.1H878z"/>
		<path class="st1" d="M921.4,642.3h29v5.2h-23.3V662h19.4v5.2h-19.4v15.3h24.2v5.2h-29.8V642.3z"/>
		<path class="st1" d="M69,759.8v-45.5h5.7v36.1L99,714.3h5.3v45.5h-5.7v-36.1l-24.4,36.1H69z"/>
		<path class="st1" d="M112.4,714.3h5.7V734h23.5v-19.8h5.7v45.5h-5.7v-20.5h-23.5v20.5h-5.7V714.3z"/>
		<path class="st1" d="M152,759.8l16.6-23.4L153,714.3h6.4l14,19.8h6.8v-19.8h5.7v19.8h6.8l14-19.8h6.4l-15.5,22.1l16.5,23.4h-6.8
			l-14.4-20.5h-7v20.5h-5.7v-20.5h-7l-14.5,20.5H152z"/>
		<path class="st1" d="M218.9,714.3h29v5.2h-23.3V734h19.4v5.2h-19.4v15.3h24.2v5.2h-29.8V714.3z"/>
		<path class="st1" d="M253.8,714.3h5.7V734H283v-19.8h5.7v45.5H283v-20.5h-23.5v20.5h-5.7V714.3z"/>
		<path class="st1" d="M296.8,714.3h29v5.2h-23.3V734h19.4v5.2h-19.4v15.3h24.2v5.2h-29.8V714.3z"/>
		<path class="st1" d="M331.7,714.3h17.5c9.1,0,15.1,5.5,15.1,14s-6,14-15.1,14h-11.8v17.5h-5.7V714.3z M337.3,719.5v17.6h11.3
			c6,0,9.8-3.4,9.8-8.8c0-5.4-3.8-8.8-9.8-8.8H337.3z"/>
		<path class="st1" d="M369.2,714.3h5.7V734h23.5v-19.8h5.7v45.5h-5.7v-20.5h-23.5v20.5h-5.7V714.3z"/>
		<path class="st1" d="M412.2,759.8v-45.5h5.7v17.4h11.4c9,0,15,5.9,15,14c0,8.1-6,14-15,14H412.2z M417.9,754.6h10.9
			c5.9,0,9.7-3.5,9.7-8.8c0-5.3-3.8-8.8-9.8-8.8h-10.9V754.6z M450.1,759.8v-45.5h5.7v45.5H450.1z"/>
		<path class="st1" d="M475.8,736.4l-14.4-22.2h6.6l11.4,17.6l11.4-17.6h6.5L483,736l15.3,23.7h-6.7l-12.4-19l-12.2,19h-6.6
			L475.8,736.4z"/>
		<path class="st1" d="M519.7,737c0-13.8,8.5-23.1,21.7-23.1c10.1,0,17.4,5.8,19.1,15.3h-6c-1.8-6.3-6.6-10.1-13.4-10.1
			c-9.6,0-15.7,7.4-15.7,17.9c0,10.5,5.9,17.9,15.4,17.9c7,0,11.9-3.7,13.6-10.1h6c-1.7,9.4-9.2,15.3-19.5,15.3
			C527.9,760.2,519.7,750.9,519.7,737z"/>
		<path class="st1" d="M566.1,759.8v-45.5h5.7v36.1l24.4-36.1h5.3v45.5h-5.7v-36.1l-24.4,36.1H566.1z"/>
		<path class="st1" d="M607.5,737c0-13.8,8.5-23.1,21.7-23.1c10.1,0,17.4,5.8,19.1,15.3h-6c-1.8-6.3-6.6-10.1-13.4-10.1
			c-9.6,0-15.7,7.4-15.7,17.9c0,10.5,5.9,17.9,15.4,17.9c7,0,11.9-3.7,13.6-10.1h6c-1.7,9.4-9.2,15.3-19.5,15.3
			C615.7,760.2,607.5,750.9,607.5,737z"/>
		<path class="st1" d="M650.1,714.3h35.2v5.2h-14.8v40.3h-5.7v-40.3h-14.8V714.3z"/>
		<path class="st1" d="M690,714.3h29v5.2h-23.3V734h19.4v5.2h-19.4v15.3h24.2v5.2H690V714.3z"/>
		<path class="st1" d="M725,714.3h7.2l16.1,37.8l15.9-37.8h7v45.5h-5.5v-35.9l-15.1,35.9h-5l-15.1-35.9v35.9H725V714.3z"/>
	</g>
</g>
<g>
	<g>
		<path class="st1" d="M1291.6,301.4h4.9v11.4h10.9v4.5h-10.9v11.4h-4.9v-11.4h-10.8v-4.5h10.8V301.4z"/>
		<path class="st1" d="M1304.7,288.1h32.1v3.8l-22.4,41.7h-5.9l22.3-40.5h-26.1V288.1z"/>
		<path class="st1" d="M1367.6,342.1c-6.6-8.6-9.4-17.9-9.4-28c0-9.8,2.7-19.2,9.4-28h5.9c-7.2,9.6-10,18.1-10,28
			c0,9.9,2.7,18.5,10,28H1367.6z"/>
		<path class="st1" d="M1375.5,321.5h5.5c1,4.6,4.3,7.7,9.8,7.7c7.9,0,12.3-7.2,12.3-17.5c0-0.6,0-1.1-0.1-2.2
			c-0.1,0.3-0.1,0.6-0.4,1.2c-2,4.5-6.6,7.5-12.7,7.5c-9,0-15.3-5.9-15.3-15.2c0-8.8,6.4-15.3,15.8-15.3c6.3,0,10.9,2.9,13.8,7.5
			c2.3,4,3.6,9.4,3.6,15.4c0,14.3-6.4,23.3-17.3,23.3C1382.3,334,1376.6,329.1,1375.5,321.5z M1401,302.9c0-6.1-4.2-10.3-10.4-10.3
			c-6.3,0-10.4,4.4-10.4,10.5c0,6,3.9,10.4,10.2,10.4C1396.7,313.4,1401,309.1,1401,302.9z"/>
		<path class="st1" d="M1446,321.4c0,7.3-6.3,12.6-16.6,12.6s-16.6-5.3-16.6-12.6c0-6.2,4-10.1,9.1-11.3c-4.4-1-7.8-4.8-7.8-10.3
			c0-7.2,6-12.1,15.3-12.1s15.3,4.9,15.3,12.1c0,5.2-3.4,9.3-7.8,10.3C1442,311.3,1446,315.2,1446,321.4z M1440.4,321
			c0-4.8-4.5-8.3-11-8.3c-6.5,0-11,3.4-11,8.3c0,4.9,4.5,8.3,11,8.3C1436,329.4,1440.4,325.9,1440.4,321z M1429.5,307.3
			c5.9,0,9.7-3,9.7-7.5c0-4.4-3.8-7.4-9.7-7.4s-9.7,3-9.7,7.4C1419.8,304.3,1423.6,307.3,1429.5,307.3z"/>
		<path class="st1" d="M1459.4,288.1h5.3v45.5h-5.5V301c-0.7,0.6-1.7,0.8-3.1,0.8h-7.3V297h7.4c2.1,0,3.2-1.6,3.2-3.9V288.1z"/>
		<path class="st1" d="M1474.7,286.2c6.6,8.6,9.4,17.9,9.4,28c0,9.8-2.7,19.2-9.4,28h-5.9c7.2-9.6,10-18.1,10-28
			c0-9.9-2.7-18.5-10-28H1474.7z"/>
		<path class="st1" d="M1515.7,288.1h5.3v45.5h-5.5V301c-0.7,0.6-1.7,0.8-3.1,0.8h-7.3V297h7.4c2.1,0,3.2-1.6,3.2-3.9V288.1z"/>
		<path class="st1" d="M1561.3,321.4c0,7.3-6.3,12.6-16.6,12.6s-16.6-5.3-16.6-12.6c0-6.2,4-10.1,9.1-11.3c-4.4-1-7.8-4.8-7.8-10.3
			c0-7.2,6-12.1,15.3-12.1c9.3,0,15.3,4.9,15.3,12.1c0,5.2-3.4,9.3-7.8,10.3C1557.2,311.3,1561.3,315.2,1561.3,321.4z M1555.7,321
			c0-4.8-4.5-8.3-11-8.3s-11,3.4-11,8.3c0,4.9,4.5,8.3,11,8.3C1551.2,329.4,1555.7,325.9,1555.7,321z M1544.7,307.3
			c5.9,0,9.7-3,9.7-7.5c0-4.4-3.8-7.4-9.7-7.4s-9.7,3-9.7,7.4C1535,304.3,1538.8,307.3,1544.7,307.3z"/>
		<path class="st1" d="M1599.5,321.4c0,7.3-6.3,12.6-16.6,12.6s-16.6-5.3-16.6-12.6c0-6.2,4-10.1,9.1-11.3c-4.4-1-7.8-4.8-7.8-10.3
			c0-7.2,6-12.1,15.3-12.1s15.3,4.9,15.3,12.1c0,5.2-3.4,9.3-7.8,10.3C1595.5,311.3,1599.5,315.2,1599.5,321.4z M1593.9,321
			c0-4.8-4.5-8.3-11-8.3s-11,3.4-11,8.3c0,4.9,4.5,8.3,11,8.3C1589.5,329.4,1593.9,325.9,1593.9,321z M1583,307.3
			c5.9,0,9.7-3,9.7-7.5c0-4.4-3.8-7.4-9.7-7.4s-9.7,3-9.7,7.4C1573.3,304.3,1577.1,307.3,1583,307.3z"/>
		<path class="st1" d="M1605.6,317.4v-4.5h21.6v4.5H1605.6z"/>
		<path class="st1" d="M1666.2,318.4c0,10.1-7.4,15.5-15.9,15.5c-10.1,0-16-6.6-16.4-14.5h5.4c0.5,5.3,4.5,9.6,11,9.6
			c5.3,0,10.3-3.6,10.3-10.6c0-6.2-4-10.5-10.3-10.5c-2.8,0-8.4,0.8-10.3,6.2l-5.3-0.1l1.5-25.9h27.2v5h-22.2l-1,14.4
			c2.8-3.3,6.7-4.4,10.9-4.4C1660,303.2,1666.2,309.4,1666.2,318.4z"/>
		<path class="st1" d="M1703.7,321.4c0,7.3-6.3,12.6-16.6,12.6s-16.6-5.3-16.6-12.6c0-6.2,4-10.1,9.1-11.3c-4.4-1-7.8-4.8-7.8-10.3
			c0-7.2,6-12.1,15.3-12.1c9.3,0,15.3,4.9,15.3,12.1c0,5.2-3.4,9.3-7.8,10.3C1699.6,311.3,1703.7,315.2,1703.7,321.4z M1698.1,321
			c0-4.8-4.5-8.3-11-8.3s-11,3.4-11,8.3c0,4.9,4.5,8.3,11,8.3C1693.6,329.4,1698.1,325.9,1698.1,321z M1687.1,307.3
			c5.9,0,9.7-3,9.7-7.5c0-4.4-3.8-7.4-9.7-7.4s-9.7,3-9.7,7.4C1677.4,304.3,1681.2,307.3,1687.1,307.3z"/>
		<path class="st1" d="M1709.8,317.4v-4.5h21.6v4.5H1709.8z"/>
		<path class="st1" d="M1738.6,309.9c0-12.9,7-22.1,17.3-22.1c10.2,0,17.2,9.2,17.2,22.1v2.1c0,13.6-7,22.1-17.2,22.1
			c-10.3,0-17.3-8.5-17.3-22.1V309.9z M1767.6,310.1c0-10.8-4.7-17.3-11.7-17.3c-7.1,0-11.8,6.5-11.8,17.3v1.7
			c0,10.8,4.7,17.3,11.8,17.3c7,0,11.7-6.5,11.7-17.3V310.1z"/>
		<path class="st1" d="M1778.8,309.9c0-12.9,7-22.1,17.3-22.1c10.2,0,17.2,9.2,17.2,22.1v2.1c0,13.6-7,22.1-17.2,22.1
			c-10.3,0-17.3-8.5-17.3-22.1V309.9z M1807.8,310.1c0-10.8-4.7-17.3-11.7-17.3c-7.1,0-11.8,6.5-11.8,17.3v1.7
			c0,10.8,4.7,17.3,11.8,17.3c7,0,11.7-6.5,11.7-17.3V310.1z"/>
		<path class="st1" d="M1307.5,372.5h4.6V404c0,9.6-5.1,15-16.4,15c-8.5,0-14.4-4-15.2-11.2h5.5c0.9,4.2,4.6,6.5,10.1,6.5
			c7,0,10.7-3.3,10.7-10.5v-3.9c-2.2,3.8-5.8,6.1-11.4,6.1c-9.2,0-15.9-6.2-15.9-17c0-10.1,6.8-17,15.9-17c5.6,0,9.3,2.4,11.4,6.1
			L1307.5,372.5z M1306.8,389.2c0-7.3-4.4-12.4-10.9-12.4c-6.6,0-11,5-11,12.2c0,7.2,4.4,12.2,11,12.2
			C1302.4,401.3,1306.8,396.3,1306.8,389.2z"/>
		<path class="st1" d="M1336.1,372.5v5.2h-2.7c-7,0-8.8,5.8-8.8,11.1v16.9h-5.3v-33.2h4.6l0.7,5c1.6-2.5,4.1-5,10-5H1336.1z"/>
		<path class="st1" d="M1370.7,400.8v4.9h-2.9c-4.4,0-5.9-1.9-6-5.1c-2.1,3-5.4,5.5-11.1,5.5c-7.3,0-12.2-3.6-12.2-9.7
			c0-6.6,4.6-10.3,13.3-10.3h9.8v-2.3c0-4.3-3.1-6.9-8.3-6.9c-4.7,0-7.8,2.2-8.5,5.6h-5.3c0.8-6.5,6-10.3,14-10.3
			c8.4,0,13.3,4.2,13.3,12v14.5c0,1.8,0.7,2.2,2.1,2.2H1370.7z M1361.5,390.5h-10.3c-4.7,0-7.4,1.8-7.4,5.5c0,3.3,2.8,5.5,7.2,5.5
			c6.6,0,10.5-3.8,10.5-9.4V390.5z"/>
		<path class="st1" d="M1400,360.1h5.3v45.5h-4.6l-0.7-5.3c-2.2,3.1-5.8,5.7-11.4,5.7c-9.2,0-15.9-6.2-15.9-17
			c0-10.1,6.8-17,15.9-17c5.6,0,9.4,2.3,11.4,5.5V360.1z M1400.1,389.2c0-7.3-4.4-12.4-10.9-12.4c-6.6,0-11,5-11,12.2
			c0,7.2,4.4,12.2,11,12.2C1395.7,401.3,1400.1,396.3,1400.1,389.2z"/>
		<path class="st1" d="M1441.9,361.4c16.1,0,27.2,9.8,27.2,23.6c0,10.3-5.8,17.4-13.8,17.4c-4,0-6.6-2.3-6.9-4.9l-0.1-1
			c-1.5,3.5-5.5,5.8-10,5.8c-6.5,0-11.8-5-11.8-12.4c0-8.3,6.3-15,13.5-15c5.1,0,8.1,2.1,9.1,4.9l1-4.4h4.2l-2,18.5
			c-0.3,3.1,1.2,4.4,3.8,4.4c4.3,0,8-5.8,8-13.7c0-11.4-8.9-19-22.2-19c-15,0-24.8,10.4-24.8,23.7c0,13.5,8.6,21.8,24,21.8
			c5.7,0,10.9-1.4,14.9-4l-0.1,4.7c-3.3,2.2-9,3.7-15.2,3.7c-16.7,0-28.6-10.3-28.6-26.2C1411.9,373.5,1425.3,361.4,1441.9,361.4z
			 M1441,378.9c-5.4,0-9.6,4.9-9.6,10.9c0,5.2,3.1,8.7,7.6,8.7c5.3,0,9.4-4.7,9.4-11.7C1448.4,381.9,1445.3,378.9,1441,378.9z"/>
		<path class="st1" d="M1473.9,389.1c0-10.1,6.4-17,15.7-17c9.4,0,15.5,5.9,15.7,15.7c0,0.7-0.1,1.5-0.1,2.3h-25.7v0.5
			c0.2,6.3,4.2,10.7,10.5,10.7c4.7,0,8.3-2.5,9.4-6.8h5.4c-1.3,6.6-6.8,11.5-14.4,11.5C1480.4,406,1473.9,399.2,1473.9,389.1z
			 M1499.7,385.7c-0.5-5.7-4.4-8.9-9.9-8.9c-4.9,0-9.4,3.5-9.9,8.9H1499.7z"/>
		<path class="st1" d="M1511.2,360.1h5.3v45.5h-5.3V360.1z"/>
		<path class="st1" d="M1526.1,377.4h-6v-4.9h6v-9.3h5.3v9.3h8.6v4.9h-8.6v19.6c0,2.8,1,3.8,3.8,3.8h5.3v4.9h-5.8
			c-6.4,0-8.6-2.8-8.6-8.6V377.4z"/>
		<path class="st1" d="M1576,400.8v4.9h-2.9c-4.4,0-5.9-1.9-6-5.1c-2.1,3-5.4,5.5-11.1,5.5c-7.3,0-12.2-3.6-12.2-9.7
			c0-6.6,4.6-10.3,13.3-10.3h9.8v-2.3c0-4.3-3.1-6.9-8.3-6.9c-4.7,0-7.8,2.2-8.5,5.6h-5.3c0.8-6.5,6-10.3,14-10.3
			c8.5,0,13.3,4.2,13.3,12v14.5c0,1.8,0.6,2.2,2.1,2.2H1576z M1566.8,390.5h-10.3c-4.7,0-7.4,1.8-7.4,5.5c0,3.3,2.8,5.5,7.2,5.5
			c6.6,0,10.5-3.8,10.5-9.4V390.5z"/>
		<path class="st1" d="M1579.1,389.4v-4.5h21.6v4.5H1579.1z"/>
		<path class="st1" d="M1611.4,394.7c0.2,3.9,3.6,6.8,9.2,6.8c4.7,0,8-2,8-5.1c0-4.2-3.6-4.5-8.6-5.1c-7.4-0.9-13.3-2.4-13.3-9.3
			c0-6,5.5-10,13-9.9c7.5,0.1,13,3.6,13.5,10.5h-5.5c-0.4-3.4-3.5-5.9-8.1-5.9c-4.6,0-7.7,2-7.7,5c0,3.6,3.5,4.1,8.3,4.7
			c7.5,0.9,13.6,2.3,13.6,9.7c0,6.2-5.9,10-13.3,10c-8.6,0-14.5-4-14.6-11.3H1611.4z"/>
		<path class="st1" d="M1672.2,389.1c0,10.1-6.8,17-15.9,17c-5.6,0-9.4-2.3-11.4-5.5v18.1h-5.3v-46.2h4.6l0.7,5.3
			c2.2-3.1,5.8-5.7,11.4-5.7C1665.5,372.1,1672.2,378.3,1672.2,389.1z M1666.8,389.1c0-7.2-4.4-12.2-11-12.2
			c-6.5,0-10.9,5-10.9,12.1c0,7.3,4.4,12.4,10.9,12.4C1662.4,401.3,1666.8,396.3,1666.8,389.1z"/>
		<path class="st1" d="M1710.6,389.1c0,10.1-6.8,17-15.9,17c-5.6,0-9.4-2.3-11.4-5.5l-0.7,5.1h-4.6v-45.5h5.3v17.7
			c2.2-3.1,5.8-5.7,11.4-5.7C1703.9,372.1,1710.6,378.3,1710.6,389.1z M1705.2,389.1c0-7.2-4.4-12.2-11-12.2
			c-6.5,0-10.9,5-10.9,12.1c0,7.3,4.4,12.4,10.9,12.4C1700.8,401.3,1705.2,396.3,1705.2,389.1z"/>
		<path class="st1" d="M1718.2,398.8c2.1,0,3.7,1.4,3.7,3.6s-1.6,3.6-3.7,3.6c-2.1,0-3.7-1.4-3.7-3.6S1716.1,398.8,1718.2,398.8z"/>
		<path class="st1" d="M1725.7,389.1c0-10.1,6.6-17,16.2-17c8.1,0,13.3,4.5,14.6,11.8h-5.6c-1-4.4-4.2-7.1-9.1-7.1
			c-6.4,0-10.7,5.1-10.7,12.3c0,7.2,4.3,12.2,10.7,12.2c4.7,0,8-2.7,9-7h5.7c-1.3,7.2-6.7,11.7-14.8,11.7
			C1732.1,406,1725.7,399.5,1725.7,389.1z"/>
		<path class="st1" d="M1760.5,389.1c0-10.1,6.8-17,16.4-17c9.7,0,16.4,6.9,16.4,17c0,10.1-6.8,17-16.4,17
			C1767.2,406,1760.5,399.1,1760.5,389.1z M1787.9,389.1c0-7.1-4.4-12.2-11-12.2s-11,5.1-11,12.2c0,7.1,4.4,12.2,11,12.2
			S1787.9,396.2,1787.9,389.1z"/>
		<path class="st1" d="M1848.7,386.5v19.1h-5.3v-18.8c0-6.5-2.9-9.9-7.9-9.9c-5.5,0-8.9,4.2-8.9,10.9v17.7h-5.3v-18.8
			c0-6.5-2.9-9.9-8-9.9c-5.5,0-8.8,4.5-8.8,11.2v17.5h-5.3v-33.2h4.6l0.7,4.5c1.8-2.4,4.5-4.9,9.7-4.9c4.6,0,8.6,2.1,10.5,6.3
			c2-3.6,5.6-6.3,11.5-6.3C1843,372.1,1848.7,376.1,1848.7,386.5z"/>
	</g>
</g>
</svg>
