<?xml version="1.0" encoding="utf-8"?>
<!-- Generator: Adobe Illustrator 22.0.0, SVG Export Plug-In . SVG Version: 6.00 Build 0)  -->
<svg version="1.1" id="Layer_1" xmlns="http://www.w3.org/2000/svg" xmlns:xlink="http://www.w3.org/1999/xlink" x="0px" y="0px"
	 viewBox="0 0 1600 1163.6" style="enable-background:new 0 0 1600 1163.6;" xml:space="preserve">
<style type="text/css">
	.st0{fill:#D1D1D5;}
	.st1{fill:#1B1B2D;}
	.st2{fill:#FFFFFF;}
	.st3{fill:#3B3B4B;}
</style>
<rect class="st0" width="1600" height="1163.6"/>
<g>
	<path class="st1" d="M456.1,385.6l27.2-74.2H500l27.1,74.2h-12.2l-22.3-62.2h-2.1l-22.3,62.2H456.1z M472.5,367.9v-10.2h38.6v10.2
		H472.5z"/>
	<path class="st1" d="M533.4,385.6v-74.2h51.4v10.3h-40.2v20.5h23c4,0,7.5,0.9,10.8,2.8c3.2,1.8,5.8,4.4,7.6,7.7
		c1.9,3.3,2.8,7,2.8,11.3s-0.9,8-2.8,11.3c-1.9,3.3-4.4,5.8-7.6,7.7c-3.2,1.8-6.8,2.8-10.8,2.8H533.4z M567.3,375.3
		c2,0,3.7-0.5,5.3-1.4c1.6-1,2.8-2.3,3.6-4c0.8-1.7,1.3-3.7,1.3-6c0-3.4-1-6.1-2.9-8.3s-4.3-3.2-7.3-3.2h-22.7v22.9H567.3z"/>
	<path class="st1" d="M600.7,385.6v-74.2h33.2c3.9,0,7.4,0.9,10.5,2.7c3.1,1.8,5.6,4.3,7.4,7.4c1.8,3.1,2.7,6.7,2.7,10.5
		c0,2.5-0.4,4.9-1.2,7c-0.8,2.1-1.8,3.9-3,5.5c-1.2,1.5-2.4,2.7-3.7,3.4v0.5c2.3,1.1,4.4,3.2,6.3,6.1c1.8,2.9,2.8,6.4,2.8,10.3
		c0,3.9-0.9,7.4-2.7,10.5c-1.8,3.1-4.3,5.6-7.4,7.4c-3.1,1.8-6.7,2.7-10.5,2.7H600.7z M633,343.5c1.8,0,3.5-0.5,5.1-1.4
		c1.6-0.9,2.8-2.2,3.7-3.9c0.9-1.7,1.4-3.6,1.4-5.6c0-2-0.5-3.9-1.4-5.6c-0.9-1.7-2.2-3-3.7-3.9c-1.6-0.9-3.3-1.4-5.1-1.4h-21.1
		v21.8H633z M634.1,375.3c1.8,0,3.5-0.5,5.1-1.4c1.6-0.9,2.8-2.2,3.7-3.9c0.9-1.7,1.4-3.6,1.4-5.6c0-3.2-1-5.8-3-7.8
		c-2-2-4.4-3.1-7.2-3.1h-22.2v21.8H634.1z"/>
	<path class="st1" d="M668.5,385.6v-74.2H716v10.8h-36.3v63.4H668.5z"/>
	<path class="st1" d="M713.6,400.4v-25.7h1.2c2.8,0,4.8-0.7,6.2-2.1c1.4-1.4,2.2-3.6,2.5-6.5l4.6-54.8h48.1v63.4h8v25.7h-11.3v-14.8
		h-47.9v14.8H713.6z M731.4,374.8h33.4v-52.6h-26.3l-3.8,44c-0.1,1.5-0.4,2.8-0.7,4c-0.4,1.2-0.8,2.2-1.2,3
		C732.3,373.9,731.8,374.5,731.4,374.8z"/>
	<path class="st1" d="M793.6,385.6v-74.2h48.8v10.4h-37.5v21.4h35.4v10.3h-35.4v21.7h37.5v10.4H793.6z"/>
	<path class="st1" d="M855.6,385.6v-74.2h48.8v10.4h-37.5v21.4h35.4v10.3h-35.4v21.7h37.5v10.4H855.6z M865.6,300.8v-10.6h10.6v10.6
		H865.6z M884.9,300.8v-10.6h10.6v10.6H884.9z"/>
	<path class="st1" d="M909.2,385.6l26.8-37.6l-24.7-36.6h13.5l22.9,34.1v-34.1H959v34.1l22.9-34.1h13.5l-24.8,36.6l26.9,37.6H984
		L959,350v35.6h-11.3V350l-25.1,35.6H909.2z"/>
	<path class="st1" d="M1025.8,386.6c-5.8,0-10.8-1-14.9-2.9s-7.4-4.6-9.6-8.1c-2.3-3.4-3.4-7.3-3.4-11.5h11.3c0,2.1,0.6,4.1,1.9,5.9
		c1.3,1.8,3.2,3.3,5.7,4.3c2.5,1.1,5.5,1.6,9.1,1.6c3.4,0,6.3-0.5,8.8-1.6c2.5-1.1,4.4-2.5,5.7-4.2c1.3-1.7,2-3.6,2-5.7
		c0-2-0.6-4-1.8-5.7c-1.2-1.8-2.9-3.2-5-4.2c-2.2-1.1-4.6-1.6-7.5-1.6h-7.6v-9.6h7.4c2.5,0,4.8-0.5,6.8-1.5c2-1,3.6-2.4,4.6-4
		c1.1-1.7,1.6-3.5,1.6-5.5c0-2.1-0.6-4-1.8-5.8c-1.2-1.7-2.9-3.1-5.2-4.1c-2.3-1-5-1.5-8.2-1.5c-3,0-5.7,0.5-8,1.6
		c-2.3,1.1-4,2.5-5.2,4.2c-1.2,1.8-1.8,3.7-1.8,5.8h-11.2c0-4.1,1.1-7.9,3.2-11.3c2.1-3.4,5.2-6.1,9.2-8.1c4-1.9,8.7-2.9,14.2-2.9
		c5.3,0,9.9,1,13.9,2.9c4,1.9,7,4.6,9.2,7.9c2.1,3.3,3.2,6.9,3.2,10.7c0,4.2-1.1,7.7-3.4,10.4c-2.3,2.8-4.9,4.6-7.7,5.5v0.5
		c3.2,0.9,6.1,2.9,8.6,5.8c2.6,3,3.9,6.6,3.9,11c0,4-1.1,7.6-3.3,10.9c-2.2,3.3-5.4,5.9-9.5,7.8
		C1036.5,385.7,1031.5,386.6,1025.8,386.6z"/>
	<path class="st1" d="M1065.5,385.6v-74.2h11.2v57.6h2.1l30.1-57.6h16.2v74.2h-11.3V328h-2.1l-30,57.6H1065.5z"/>
	<path class="st1" d="M1140.8,385.6v-74.2h11.2v57.6h2.1l30.1-57.6h16.2v74.2h-11.3V328h-2.1l-30,57.6H1140.8z M1170.6,302.9
		c-4.5,0-8.1-1.3-11-3.9c-2.9-2.6-4.5-6-4.8-10.2h8.5c0.4,2.2,1.2,3.9,2.4,5s2.9,1.7,4.9,1.7c2,0,3.7-0.6,5-1.7s2-2.8,2.3-5h8.5
		c-0.3,4.2-1.9,7.7-4.8,10.2C1178.7,301.6,1175,302.9,1170.6,302.9z"/>
	<path class="st1" d="M1216.1,385.6v-74.2h11.2v33.9l28.1-33.9h14l-30.4,36.6l32.5,37.6h-14l-30.2-35.2v35.2H1216.1z"/>
	<path class="st1" d="M1267.6,386.1V375h3.3c2.3,0,4.2-0.7,5.6-2.1c1.4-1.4,2.2-3.6,2.5-6.5l4.6-55h48.1v74.2h-11.3v-63.4H1294
		l-3.9,45.7c-0.5,6.1-2.3,10.7-5.3,13.7c-3,3-7.3,4.5-12.8,4.5H1267.6z"/>
	<path class="st1" d="M1347,385.6v-74.2h18.9l20.1,58.5h2.1l20.1-58.5h18.9v74.2h-11.2v-57.2h-2.1l-19.8,57.2h-13.8l-19.8-57.2h-2.1
		v57.2H1347z"/>
	<path class="st1" d="M464.5,488.8v-74.2h11.2v31.3h37.1v-31.3h11.3v74.2h-11.3V457h-37.1v31.8H464.5z"/>
	<path class="st1" d="M572.2,489.9c-6.5,0-12.5-1.6-18-4.9c-5.5-3.2-9.8-7.8-12.9-13.6c-3.1-5.8-4.7-12.4-4.7-19.7
		c0-7.3,1.6-13.9,4.7-19.7c3.1-5.8,7.5-10.3,12.9-13.6c5.5-3.3,11.5-4.9,18-4.9c6.6,0,12.6,1.6,18.1,4.9c5.5,3.3,9.8,7.8,12.9,13.6
		c3.1,5.8,4.7,12.4,4.7,19.7c0,7.4-1.6,13.9-4.7,19.7c-3.1,5.8-7.5,10.3-12.9,13.6C584.8,488.2,578.8,489.9,572.2,489.9z M572.2,479
		c4.5,0,8.6-1.1,12.3-3.4c3.7-2.3,6.6-5.5,8.8-9.6c2.2-4.1,3.2-8.9,3.2-14.3c0-5.4-1.1-10.1-3.2-14.3c-2.2-4.1-5.1-7.3-8.8-9.6
		c-3.7-2.3-7.8-3.4-12.3-3.4c-4.5,0-8.5,1.1-12.2,3.4c-3.7,2.3-6.7,5.5-8.9,9.6c-2.2,4.1-3.3,8.9-3.3,14.3c0,5.4,1.1,10.1,3.3,14.3
		c2.2,4.1,5.1,7.4,8.9,9.6C563.7,477.9,567.7,479,572.2,479z"/>
	<path class="st1" d="M621.4,488.8v-74.2h59.4v74.2h-11.3v-63.4h-36.8v63.4H621.4z"/>
	<path class="st1" d="M696.6,488.8v-74.2h33c4.2,0,8,1,11.3,3c3.4,2,6.1,4.8,8,8.5c1.9,3.6,2.9,7.8,2.9,12.3c0,4.6-1,8.7-2.9,12.3
		c-1.9,3.6-4.6,6.5-8,8.5s-7.2,3-11.3,3h-21.7v26.5H696.6z M729.3,451.5c2.1,0,4-0.5,5.7-1.6c1.7-1.1,3.1-2.6,4.1-4.6
		c1-2,1.5-4.3,1.5-6.8c0-3.9-1.1-7-3.3-9.4c-2.2-2.4-4.9-3.6-8.1-3.6h-21.4v26.1H729.3z"/>
	<path class="st1" d="M796.4,489.9c-6.5,0-12.5-1.6-18-4.9c-5.5-3.2-9.8-7.8-12.9-13.6c-3.1-5.8-4.7-12.4-4.7-19.7
		c0-7.3,1.6-13.9,4.7-19.7c3.1-5.8,7.5-10.3,12.9-13.6c5.5-3.3,11.5-4.9,18-4.9c5.7,0,10.8,1.1,15.4,3.4c4.6,2.3,8.4,5.4,11.4,9.4
		c3,4,5.1,8.4,6.4,13.4H818c-1-3-2.5-5.7-4.6-8c-2-2.3-4.5-4.1-7.4-5.4c-2.9-1.3-6.1-2-9.6-2c-4.5,0-8.5,1.1-12.2,3.4
		c-3.7,2.3-6.7,5.5-8.9,9.6c-2.2,4.1-3.3,8.9-3.3,14.3c0,5.4,1.1,10.1,3.3,14.3c2.2,4.1,5.1,7.4,8.9,9.6c3.7,2.3,7.8,3.4,12.2,3.4
		c5.4,0,9.9-1.4,13.7-4.3c3.8-2.9,6.4-6.7,7.9-11.6h11.7c-1.2,5-3.3,9.5-6.3,13.6c-3,4-6.8,7.2-11.4,9.6
		C807.4,488.7,802.2,489.9,796.4,489.9z"/>
	<path class="st1" d="M856.7,488.8v-63.4h-23.2v-10.8h57.7v10.8h-23.2v63.4H856.7z"/>
	<path class="st1" d="M904,488.8v-10.4h10.1c1.5,0,2.6-0.3,3.4-0.8c0.8-0.5,1.5-1.4,2.1-2.7l3.2-6.9l-0.1,6l-28.8-59.5h12.3
		l19.8,41.9h2.1l18.8-41.9H959l-29.7,65.2c-0.9,2-2,3.6-3.2,4.9c-1.2,1.3-2.8,2.3-4.7,3c-1.9,0.7-4.2,1.1-7,1.1H904z"/>
	<path class="st1" d="M993.8,490.9v-15.1l3.3,3.4h-4.6c-6.6,0-12.4-1.2-17.3-3.7c-4.9-2.5-8.6-5.9-11.2-10.2
		c-2.6-4.3-3.9-9.2-3.9-14.7c0-5.4,1.3-10.3,3.9-14.7c2.6-4.3,6.4-7.8,11.2-10.2c4.9-2.5,10.6-3.7,17.3-3.7h4.6l-3.3,3.4v-12.9h11.3
		v12.9l-3.3-3.4h4.6c6.6,0,12.4,1.2,17.3,3.7c4.9,2.5,8.6,5.9,11.2,10.2c2.6,4.3,3.9,9.2,3.9,14.7c0,5.4-1.3,10.3-3.9,14.7
		c-2.6,4.3-6.4,7.8-11.2,10.2c-4.9,2.5-10.6,3.7-17.3,3.7h-4.6l3.3-3.4v15.1H993.8z M993.8,472.7v-44.1l3.3,3.3h-4.6
		c-4.3,0-8.1,0.8-11.2,2.4c-3.2,1.6-5.6,3.9-7.4,6.7c-1.7,2.8-2.6,6-2.6,9.6c0,3.6,0.9,6.8,2.6,9.6c1.7,2.8,4.2,5.1,7.4,6.7
		c3.2,1.6,6.9,2.4,11.2,2.4h4.6L993.8,472.7z M1005.1,472.7l-3.4-3.3h4.6c4.4,0,8.2-0.8,11.3-2.4c3.2-1.6,5.6-3.9,7.3-6.7
		c1.7-2.8,2.5-6,2.5-9.6c0-3.6-0.8-6.8-2.5-9.6c-1.7-2.8-4.1-5.1-7.3-6.7c-3.2-1.6-7-2.4-11.3-2.4h-4.6l3.4-3.3V472.7z"/>
	<path class="st1" d="M1036.9,488.8l25.5-38.2l-24-36h13l17.5,26.8h2.1l17.5-26.8h13l-24,36l25.5,38.2h-13.1l-19-28.8h-2.1l-19,28.8
		H1036.9z"/>
	<path class="st1" d="M1164.8,503.6v-14.8h-54.2v-74.2h11.2V478h35v-63.4h11.3V478h8v25.7H1164.8z"/>
	<path class="st1" d="M1228,458.9c-2,1.6-4.7,3.1-8.3,4.4c-3.5,1.3-7.2,2-11.1,2c-8.6,0-15-2.2-19.3-6.7c-4.3-4.5-6.5-11.2-6.5-20.1
		v-23.9h11.3v23.3c0,5.6,1.3,9.8,3.9,12.5c2.6,2.8,6.5,4.1,11.8,4.1c4,0,7.6-0.7,10.9-2c3.3-1.3,5.7-2.9,7.4-4.6v-33.4h11.3v74.2
		H1228V458.9z"/>
	<path class="st1" d="M1254.8,488.8v-74.2h11.2V478h25.9v-63.4h11.2V478h25.9v-63.4h11.2v74.2H1254.8z"/>
	<path class="st1" d="M1437.6,503.6v-14.8h-82.2v-74.2h11.2V478h25.9v-63.4h11.2V478h25.9v-63.4h11.2V478h8v25.7H1437.6z"/>
	<path class="st1" d="M473.6,592v-63.4h-16.4v-10.8h27.8V544h19.6c4.2,0,8.1,1,11.6,3.1c3.5,2.1,6.2,4.9,8.1,8.6
		c1.9,3.7,2.9,7.8,2.9,12.3c0,4.6-1,8.7-2.9,12.3c-1.9,3.6-4.6,6.5-8.1,8.6c-3.5,2.1-7.3,3.1-11.6,3.1H473.6z M504.2,581.2
		c2.1,0,4.1-0.6,5.9-1.7c1.8-1.1,3.2-2.7,4.2-4.7c1-2,1.5-4.3,1.5-6.9c0-2.5-0.5-4.8-1.5-6.8c-1-2-2.4-3.6-4.2-4.7
		c-1.8-1.1-3.8-1.7-5.9-1.7h-19.3v26.5H504.2z"/>
	<path class="st1" d="M538.2,592v-74.2h11.2V544h18.7c4.2,0,8.1,1,11.6,3.1c3.5,2.1,6.2,4.9,8.1,8.6c1.9,3.7,2.9,7.8,2.9,12.3
		c0,4.6-1,8.7-2.9,12.3c-1.9,3.6-4.6,6.5-8.1,8.6c-3.5,2.1-7.3,3.1-11.6,3.1H538.2z M567.7,581.2c2.1,0,4.1-0.6,5.9-1.7
		c1.8-1.1,3.2-2.7,4.2-4.7c1-2,1.5-4.3,1.5-6.9c0-2.5-0.5-4.8-1.5-6.8c-1-2-2.4-3.6-4.2-4.7c-1.8-1.1-3.8-1.7-5.9-1.7h-18.3v26.5
		H567.7z M598.6,592v-74.2h11.2V592H598.6z"/>
	<path class="st1" d="M622.4,592v-74.2h11.2V544h20.7c4.3,0,8.2,1,11.6,3.1c3.4,2.1,6.1,4.9,8.1,8.6c2,3.7,3,7.8,3,12.3
		c0,4.6-1,8.7-3,12.3c-2,3.6-4.7,6.5-8.1,8.6c-3.4,2.1-7.3,3.1-11.6,3.1H622.4z M654,581.2c2.2,0,4.2-0.6,5.9-1.7
		c1.8-1.1,3.2-2.7,4.2-4.7c1-2,1.5-4.3,1.5-6.9c0-2.5-0.5-4.8-1.5-6.8c-1-2-2.4-3.6-4.2-4.7c-1.8-1.1-3.7-1.7-5.9-1.7h-20.4v26.5
		H654z"/>
	<path class="st1" d="M716.8,593.1c-5.8,0-11-1.2-15.6-3.5c-4.6-2.3-8.5-5.5-11.5-9.5c-3-4-5.1-8.4-6.1-13.3h11.7
		c1,3,2.5,5.7,4.5,8.1s4.5,4.2,7.4,5.5c2.9,1.3,6.2,2,9.7,2c4.2,0,8-1,11.4-2.9c3.5-1.9,6.3-4.6,8.4-8.1c2.1-3.4,3.4-7.2,3.8-11.4
		h-32.5v-10.3h32.5c-0.4-4.1-1.7-7.8-3.8-11.2c-2.1-3.4-4.9-6-8.4-8c-3.5-1.9-7.3-2.9-11.4-2.9c-5.2,0-9.8,1.4-13.6,4.2
		c-3.8,2.8-6.5,6.4-8.1,10.8h-11.7c1.3-4.7,3.4-9.1,6.5-13s6.9-7,11.5-9.3c4.6-2.3,9.7-3.4,15.3-3.4c6.5,0,12.5,1.6,18,4.9
		c5.5,3.3,9.8,7.8,12.9,13.6c3.1,5.8,4.7,12.4,4.7,19.7c0,7.4-1.6,13.9-4.7,19.7c-3.1,5.8-7.5,10.3-12.9,13.6
		C729.3,591.5,723.3,593.1,716.8,593.1z"/>
	<path class="st1" d="M820.8,593.1c-5.7,0-11-1.4-15.9-4.2c-4.9-2.8-8.9-6.7-12-11.7c-3.1-5-5-10.7-5.6-17.2h-10.5v32h-11.2v-74.2
		h11.2v31.5h10.5c0.8-6.4,2.8-12.1,5.9-17c3.1-4.9,7-8.7,11.8-11.4c4.8-2.7,10.1-4.1,15.8-4.1c6.2,0,11.9,1.6,17.1,4.8
		c5.2,3.2,9.2,7.7,12.2,13.5c3,5.8,4.5,12.4,4.5,19.8s-1.5,14-4.5,19.8c-3,5.8-7.1,10.3-12.2,13.5
		C832.7,591.5,827,593.1,820.8,593.1z M820.8,582.3c4.2,0,8-1.1,11.4-3.3c3.4-2.2,6.1-5.4,8.1-9.5c2-4.1,3-9,3-14.5s-1-10.3-3-14.5
		c-2-4.1-4.7-7.3-8.1-9.5c-3.4-2.2-7.2-3.3-11.4-3.3c-4.1,0-7.9,1.1-11.3,3.3c-3.4,2.2-6.1,5.4-8.1,9.5c-2,4.1-3,9-3,14.5
		s1,10.3,3,14.5c2,4.1,4.7,7.3,8.1,9.5C812.9,581.2,816.7,582.3,820.8,582.3z"/>
	<path class="st1" d="M862,592l28.6-29.9l0.6,2.5H885c-3.7,0-7.2-1-10.5-2.9c-3.3-1.9-5.9-4.7-7.8-8.2s-3-7.5-3-12.1
		c0-4.5,1-8.6,3-12.2c2-3.6,4.6-6.4,8-8.4c3.4-2,7.1-3,11.3-3h33.3V592h-11.3v-27h-6l-25.8,27H862z M886.4,554.6h21.5v-26.2h-21.5
		c-2.1,0-4,0.5-5.8,1.6c-1.7,1.1-3.1,2.6-4.1,4.6c-1,2-1.5,4.2-1.5,6.8c0,2.6,0.5,4.9,1.5,6.9c1,2,2.3,3.5,4.1,4.6
		C882.3,554.1,884.3,554.6,886.4,554.6z"/>
</g>
<g>
	<path class="st2" d="M88.2,148.7V95h35.3v7.5H96.4V118H122v7.4H96.4v15.7h27.2v7.5H88.2z"/>
	<path class="st2" d="M131.2,148.7V95h8.1v45.9h26v7.8H131.2z"/>
	<path class="st2" d="M175,148.7v-45.9h-16.8V95h41.8v7.8h-16.8v45.9H175z"/>
	<path class="st2" d="M195,148.7L214.8,95h12.1l19.7,53.7h-8.8l-16.1-45.1H220l-16.1,45.1H195z M206.9,135.9v-7.4h27.9v7.4H206.9z"
		/>
	<path class="st2" d="M281.4,149.5c-4.2,0-8-0.8-11.1-2.3c-3.2-1.5-5.6-3.6-7.3-6.2c-1.7-2.6-2.5-5.5-2.5-8.6h8.2
		c0,1.8,0.5,3.4,1.5,4.9c1,1.5,2.4,2.6,4.4,3.5c1.9,0.9,4.2,1.3,6.9,1.3c4.1,0,7.1-0.8,9.1-2.3c2-1.5,3-3.5,3-6c0-2-0.7-3.7-2.1-5
		c-1.4-1.3-3.6-2.3-6.6-2.8l-9.8-1.8c-4.5-0.8-7.8-2.4-10.1-4.8c-2.3-2.4-3.4-5.5-3.4-9.4c0-3,0.8-5.7,2.3-8.1
		c1.5-2.4,3.7-4.2,6.6-5.6c2.9-1.4,6.2-2.1,10.1-2.1c4.2,0,7.9,0.7,11,2.2c3.1,1.5,5.5,3.5,7.2,6.1c1.7,2.6,2.5,5.5,2.5,8.8h-8.2
		c0-1.7-0.5-3.4-1.5-4.8c-1-1.5-2.4-2.7-4.3-3.5c-1.9-0.9-4.1-1.3-6.6-1.3c-3.4,0-6.1,0.8-8,2.3c-1.9,1.6-2.8,3.5-2.8,5.9
		c0,1.9,0.6,3.5,1.9,4.7c1.3,1.2,3.3,2.1,6.1,2.6l8.4,1.5c5.3,1,9.2,2.6,11.7,5c2.5,2.4,3.7,5.7,3.7,9.9c0,3-0.8,5.7-2.3,8.1
		c-1.6,2.4-3.9,4.2-6.9,5.6C289.4,148.8,285.7,149.5,281.4,149.5z"/>
	<path class="st2" d="M301,148.7L320.7,95h12.1l19.7,53.7h-8.8l-16.1-45.1h-1.5l-16.1,45.1H301z M312.9,135.9v-7.4h27.9v7.4H312.9z"
		/>
	<path class="st2" d="M355,148.7V95h11.9l21.7,41.7h1.5V95h8.2v53.7h-11.9L364.7,107h-1.5v41.7H355z"/>
	<path class="st2" d="M425.7,149.5c-4.2,0-8-0.8-11.1-2.3c-3.2-1.5-5.6-3.6-7.3-6.2c-1.7-2.6-2.5-5.5-2.5-8.6h8.2
		c0,1.8,0.5,3.4,1.5,4.9c1,1.5,2.4,2.6,4.4,3.5c1.9,0.9,4.2,1.3,6.9,1.3c4.1,0,7.1-0.8,9.1-2.3c2-1.5,3-3.5,3-6c0-2-0.7-3.7-2.1-5
		c-1.4-1.3-3.6-2.3-6.6-2.8l-9.8-1.8c-4.5-0.8-7.8-2.4-10.1-4.8c-2.3-2.4-3.4-5.5-3.4-9.4c0-3,0.8-5.7,2.3-8.1
		c1.5-2.4,3.7-4.2,6.6-5.6c2.9-1.4,6.2-2.1,10.1-2.1c4.2,0,7.9,0.7,11,2.2c3.1,1.5,5.5,3.5,7.2,6.1c1.7,2.6,2.5,5.5,2.5,8.8h-8.2
		c0-1.7-0.5-3.4-1.5-4.8c-1-1.5-2.4-2.7-4.3-3.5c-1.9-0.9-4.1-1.3-6.6-1.3c-3.4,0-6.1,0.8-8,2.3c-1.9,1.6-2.8,3.5-2.8,5.9
		c0,1.9,0.6,3.5,1.9,4.7c1.3,1.2,3.3,2.1,6.1,2.6l8.4,1.5c5.3,1,9.2,2.6,11.7,5c2.5,2.4,3.7,5.7,3.7,9.9c0,3-0.8,5.7-2.3,8.1
		c-1.6,2.4-3.9,4.2-6.9,5.6C433.7,148.8,430,149.5,425.7,149.5z"/>
	<path class="st1" d="M88.2,217.5v-53.7h13.7l14.6,42.4h1.5l14.6-42.4h13.7v53.7h-8.1v-41.5h-1.5l-14.4,41.5h-10l-14.4-41.5h-1.5
		v41.5H88.2z"/>
	<path class="st1" d="M155.4,217.5v-53.7h35.3v7.5h-27.2v15.5h25.6v7.4h-25.6V210h27.2v7.5H155.4z"/>
	<path class="st1" d="M198.4,217.5v-53.7h18.7c4.9,0,9.3,1.2,13.2,3.5c3.9,2.3,7,5.5,9.3,9.6c2.3,4.1,3.4,8.7,3.4,13.8
		c0,5.1-1.1,9.7-3.4,13.8c-2.3,4.1-5.3,7.3-9.3,9.6c-3.9,2.3-8.3,3.5-13.2,3.5H198.4z M217.1,209.7c3.3,0,6.3-0.8,9-2.4
		c2.7-1.6,4.8-3.8,6.3-6.7c1.6-2.9,2.3-6.2,2.3-9.9c0-3.7-0.8-7-2.3-9.9c-1.6-2.9-3.7-5.1-6.3-6.7c-2.7-1.6-5.7-2.4-9-2.4h-10.5
		v38.1H217.1z"/>
	<path class="st1" d="M250.2,217.5v-53.7h8.1v53.7H250.2z"/>
	<path class="st1" d="M287.7,218.3c-4.1,0-7.9-0.9-11.2-2.8s-5.9-4.5-7.7-7.8c-1.8-3.4-2.8-7.3-2.8-11.7v-32.2h8.2V196
		c0,2.8,0.6,5.3,1.8,7.5c1.2,2.2,2.8,3.9,4.8,5.1c2,1.2,4.3,1.8,6.8,1.8c2.5,0,4.8-0.6,6.8-1.8c2-1.2,3.7-2.9,4.8-5.1
		c1.2-2.2,1.8-4.7,1.8-7.5v-32.2h8.2V196c0,4.4-0.9,8.3-2.8,11.7c-1.8,3.4-4.4,6-7.7,7.8S291.8,218.3,287.7,218.3z"/>
	<path class="st1" d="M317.8,217.5v-53.7h13.7l14.6,42.4h1.5l14.6-42.4h13.7v53.7h-8.1v-41.5h-1.5l-14.4,41.5h-10l-14.4-41.5h-1.5
		v41.5H317.8z"/>
</g>
<g>
	<g>
		<path class="st3" d="M478,743.9c-3.5,0-6.5-0.7-9.1-2s-4.6-3.1-6-5.4c-1.4-2.3-2.1-4.8-2.1-7.7c0-3.2,0.7-5.9,2.1-8.2
			c1.4-2.3,3.6-4.1,6.5-5.5c2.9-1.3,6.6-2,11-2h12.4v-1.3c0-3.2-0.9-5.7-2.8-7.5c-1.8-1.8-4.3-2.8-7.5-2.8c-3,0-5.4,0.7-7.2,2
			c-1.8,1.4-2.9,3-3.2,4.9h-9.7c0.3-2.6,1.2-5.1,2.8-7.5c1.6-2.4,3.9-4.2,6.9-5.7c3-1.4,6.4-2.1,10.4-2.1c4.1,0,7.6,0.8,10.6,2.3
			c3,1.5,5.3,3.7,6.9,6.5c1.6,2.8,2.4,6.1,2.4,9.8v31h-8.4l-1-5.3h-0.5c-1.1,1.6-2.9,3.1-5.5,4.3C484.4,743.3,481.4,743.9,478,743.9
			z M479,735.6c2.8,0,5.2-0.5,7.2-1.6c2.1-1.1,3.6-2.6,4.7-4.5c1.1-2,1.6-4.3,1.6-6.9v-1.6H481c-3.6,0-6.3,0.7-8,2.1
			c-1.7,1.4-2.6,3.2-2.6,5.5c0,2.1,0.7,3.8,2.2,5.2C474.1,735,476.3,735.6,479,735.6z"/>
		<path class="st3" d="M534.3,743.9c-4.5,0-8.5-1.1-12.1-3.2c-3.6-2.1-6.4-5.2-8.4-9.1s-3-8.5-3-13.8c0-0.5,0-0.9,0-1.4
			c0-0.5,0-0.9,0-1.4c0-5.7,0.5-10.7,1.5-14.8c1-4.1,2.6-7.6,4.6-10.4c2-2.8,4.6-5.1,7.6-6.8c2.1-1.2,4.4-2.1,7-2.7
			c2.5-0.6,5.5-1.2,8.9-1.5c2.1-0.3,3.6-0.9,4.5-2c1-1.1,1.5-2.6,1.5-4.6h8.7c-0.1,3.2-0.5,5.8-1.4,7.9c-0.9,2.1-2.2,3.7-4,4.9
			c-1.8,1.2-4,1.9-6.8,2.2c-2.9,0.3-5.5,0.8-7.8,1.3c-2.3,0.5-4.3,1.3-5.9,2.3c-2.4,1.4-4.3,3.2-5.7,5.4c-1.4,2.3-2.3,5-2.7,8.2h0.5
			c1.7-2.2,3.8-3.8,6.3-5c2.5-1.1,5.3-1.7,8.3-1.7c4.1,0,7.8,1,11.2,2.9c3.3,1.9,5.9,4.6,7.9,8.1c1.9,3.4,2.9,7.3,2.9,11.6
			c0,4.4-1,8.5-3,12c-2,3.6-4.8,6.4-8.4,8.4C542.8,742.9,538.7,743.9,534.3,743.9z M534.3,735c2.5,0,4.8-0.6,6.9-1.8
			c2.1-1.2,3.7-2.9,4.9-5.2c1.2-2.2,1.8-4.7,1.8-7.5c0-2.8-0.6-5.2-1.8-7.4c-1.2-2.2-2.8-3.9-4.9-5.1c-2.1-1.2-4.4-1.8-6.9-1.8
			c-2.6,0-4.9,0.6-7,1.8c-2.1,1.2-3.7,2.9-4.9,5.1c-1.2,2.2-1.8,4.7-1.8,7.4c0,2.8,0.6,5.3,1.8,7.5c1.2,2.2,2.8,3.9,4.9,5.2
			C529.4,734.4,531.7,735,534.3,735z"/>
		<path class="st3" d="M565.7,743v-48.6h26.2c2.8,0,5.3,0.6,7.5,1.7c2.2,1.1,3.8,2.7,5,4.8c1.2,2.1,1.7,4.4,1.7,7.1
			c0,2.4-0.6,4.6-1.8,6.3c-1.2,1.8-2.5,3-4,3.7v0.5c1.7,0.7,3.3,2,4.7,3.9c1.4,1.9,2.1,4.2,2.1,6.9c0,2.5-0.6,4.8-1.8,6.9
			c-1.2,2.1-2.9,3.8-5.1,5c-2.2,1.2-4.6,1.8-7.3,1.8H565.7z M589.9,714.6c1.8,0,3.3-0.6,4.5-1.8c1.2-1.2,1.8-2.7,1.8-4.6
			c0-1.8-0.6-3.3-1.8-4.5c-1.2-1.2-2.7-1.8-4.5-1.8h-14.6v12.7H589.9z M590.8,735.3c1.2,0,2.2-0.3,3.2-0.8c1-0.5,1.8-1.3,2.3-2.3
			c0.5-1,0.8-2.1,0.8-3.4c0-1.9-0.6-3.4-1.9-4.6c-1.3-1.2-2.8-1.8-4.5-1.8h-15.5v13H590.8z"/>
		<path class="st3" d="M615,743v-48.6h32.6v9.1h-22.9V743H615z"/>
		<path class="st3" d="M645.4,754.5v-20.7h0.8c2.2,0,3.8-0.5,4.9-1.6c1.1-1.1,1.7-2.8,1.9-5.2l2.8-32.8h34.6v39.5h6.8v20.7h-9.8V743
			h-32.3v11.6H645.4z M659.9,733.9h20.7v-30.5h-15.8l-2.1,24c-0.2,1.7-0.5,3.1-1.1,4.3C661,732.8,660.5,733.6,659.9,733.9z"/>
		<path class="st3" d="M723.7,743.9c-4.5,0-8.6-1.1-12.3-3.2c-3.7-2.2-6.6-5.2-8.7-9c-2.1-3.8-3.2-8.2-3.2-13.1
			c0-4.8,1.1-9.2,3.2-13c2.1-3.8,5-6.8,8.7-9c3.7-2.2,7.8-3.2,12.3-3.2c4.3,0,8.2,1,11.7,3.1c3.6,2.1,6.4,4.9,8.4,8.5
			c2,3.6,3,7.7,3,12.2c0,1.2,0,2.2-0.1,3.1s-0.2,1.6-0.3,2h-37.1c0.3,2.6,1.1,4.9,2.5,6.9c1.3,2,3,3.6,5.1,4.7
			c2.1,1.1,4.4,1.6,6.9,1.6c2.6,0,5-0.6,7-1.8c2-1.2,3.6-2.8,4.7-4.7h10c-1,2.8-2.4,5.3-4.4,7.5c-2,2.3-4.4,4-7.3,5.4
			C730.8,743.3,727.5,743.9,723.7,743.9z M737.3,714.8c-0.2-2.4-0.9-4.7-2.1-6.7c-1.2-2-2.8-3.6-4.8-4.7c-2-1.2-4.2-1.7-6.6-1.7
			c-2.6,0-4.9,0.6-7,1.7c-2.1,1.2-3.8,2.7-5,4.7c-1.3,2-2.1,4.2-2.5,6.7H737.3z"/>
		<path class="st3" d="M775.9,743.9c-4.5,0-8.6-1.1-12.3-3.2c-3.7-2.2-6.6-5.2-8.7-9c-2.1-3.8-3.2-8.2-3.2-13.1
			c0-4.8,1.1-9.2,3.2-13c2.1-3.8,5-6.8,8.7-9c3.7-2.2,7.8-3.2,12.3-3.2c4.3,0,8.2,1,11.7,3.1c3.6,2.1,6.4,4.9,8.4,8.5
			c2,3.6,3,7.7,3,12.2c0,1.2,0,2.2-0.1,3.1s-0.2,1.6-0.3,2h-37.1c0.3,2.6,1.1,4.9,2.5,6.9c1.3,2,3,3.6,5.1,4.7
			c2.1,1.1,4.4,1.6,6.9,1.6c2.6,0,5-0.6,7-1.8c2-1.2,3.6-2.8,4.7-4.7h10c-1,2.8-2.4,5.3-4.4,7.5c-2,2.3-4.4,4-7.3,5.4
			C783,743.3,779.6,743.9,775.9,743.9z M789.4,714.8c-0.2-2.4-0.9-4.7-2.1-6.7c-1.2-2-2.8-3.6-4.8-4.7c-2-1.2-4.2-1.7-6.6-1.7
			c-2.6,0-4.9,0.6-7,1.7c-2.1,1.2-3.8,2.7-5,4.7c-1.3,2-2.1,4.2-2.5,6.7H789.4z M761.8,684.2v-9.6h9.7v9.6H761.8z M779.4,684.2v-9.6
			h9.7v9.6H779.4z"/>
		<path class="st3" d="M799.1,743l18.3-24.8l-16.9-23.8h11.3l15.5,22.4v-22.4h9.8v22.4l15.5-22.4h11.3l-17,23.8L865,743h-11.3
			L837,719.5V743h-9.8v-23.5L810.4,743H799.1z"/>
		<path class="st3" d="M883.4,743.9c-4.1,0-7.6-0.7-10.7-2.2c-3.1-1.5-5.4-3.5-7-6c-1.6-2.5-2.4-5.3-2.4-8.4h9.7
			c0,1.4,0.4,2.8,1.3,4.1c0.8,1.3,2,2.3,3.6,3c1.6,0.7,3.4,1.1,5.6,1.1c3.5,0,6.1-0.6,7.8-1.9c1.7-1.3,2.6-2.9,2.6-4.9
			c0-1.9-0.9-3.5-2.6-4.8c-1.7-1.3-4.1-1.9-7.3-1.9h-4.8v-7.4h4.8c2.9,0,5.1-0.6,6.6-1.9c1.5-1.3,2.3-2.8,2.3-4.8
			c0-1.8-0.8-3.3-2.4-4.5c-1.6-1.2-3.9-1.8-7-1.8c-3,0-5.3,0.7-7,2.2c-1.7,1.5-2.6,3.3-2.6,5.4h-9.7c0-2.9,0.8-5.6,2.4-8
			c1.6-2.4,3.8-4.3,6.8-5.7c2.9-1.4,6.3-2.1,10.1-2.1c4,0,7.4,0.7,10.3,2c2.9,1.3,5,3.1,6.5,5.3c1.5,2.2,2.2,4.6,2.2,7.2
			c0,2.6-0.8,4.8-2.3,6.6c-1.5,1.8-3.2,2.9-5.1,3.5v0.5c2.2,0.6,4.1,1.8,5.8,3.7c1.7,1.9,2.5,4.2,2.5,7.1c0,2.7-0.8,5.2-2.3,7.4
			c-1.5,2.2-3.8,4-6.8,5.3C891.3,743.3,887.7,743.9,883.4,743.9z"/>
		<path class="st3" d="M910.6,743v-48.6h9.7v34.9h1.9l16.4-34.9h14.1V743H943v-35h-1.9l-16.4,35H910.6z"/>
		<path class="st3" d="M963.2,743v-48.6h9.7v34.9h1.9l16.4-34.9h14.1V743h-9.7v-35h-1.9l-16.4,35H963.2z M984.4,686.1
			c-4.1,0-7.4-1.2-10-3.5c-2.6-2.4-4.1-5.5-4.3-9.3h7.7c0.3,2,1.1,3.5,2.2,4.6c1.2,1.1,2.6,1.6,4.4,1.6c1.9,0,3.4-0.5,4.5-1.6
			c1.2-1.1,1.9-2.6,2.1-4.6h7.7c-0.3,3.9-1.7,7-4.3,9.3C991.8,685,988.4,686.1,984.4,686.1z"/>
		<path class="st3" d="M1015.9,743v-48.6h9.7v22.2l20.1-22.2h11.6l-21.7,23.8l22.7,24.8h-11.6l-21.1-23.2V743H1015.9z"/>
		<path class="st3" d="M1055.1,743.5v-9.4h2.6c1.9,0,3.4-0.5,4.5-1.6c1.1-1.1,1.8-2.9,2-5.3l2.7-32.8h34.6V743h-9.7v-39.6h-15.9
			l-2.2,24.8c-0.5,5.2-1.9,9-4.3,11.5c-2.4,2.5-6,3.8-10.7,3.8H1055.1z"/>
		<path class="st3" d="M1112,743v-48.6h16l11.8,36h1.9l11.8-36h16V743h-9.7v-35.5h-1.9l-11.7,35.5h-11l-11.7-35.5h-1.9V743H1112z"/>
		<path class="st3" d="M1179.6,743v-48.6h9.7v19.7h22.6v-19.7h9.7V743h-9.7v-19.8h-22.6V743H1179.6z"/>
		<path class="st3" d="M484.1,820.7c-4.5,0-8.6-1.1-12.3-3.2c-3.7-2.2-6.6-5.2-8.6-9c-2.1-3.8-3.1-8.2-3.1-13.1c0-4.8,1-9.2,3.1-13
			c2.1-3.8,5-6.8,8.6-9c3.7-2.2,7.8-3.2,12.3-3.2c4.5,0,8.6,1.1,12.3,3.2c3.7,2.2,6.6,5.2,8.6,9c2.1,3.8,3.1,8.2,3.1,13
			c0,4.9-1,9.3-3.1,13.1c-2.1,3.8-5,6.8-8.6,9C492.7,819.7,488.6,820.7,484.1,820.7z M484.1,811.8c2.6,0,5.1-0.7,7.2-2
			c2.2-1.4,3.9-3.3,5.2-5.7c1.3-2.5,1.9-5.3,1.9-8.5c0-3.2-0.6-6-1.9-8.5c-1.3-2.5-3-4.4-5.2-5.7c-2.2-1.4-4.6-2-7.2-2
			c-2.6,0-5,0.7-7.2,2s-4,3.3-5.2,5.7c-1.3,2.5-1.9,5.3-1.9,8.5c0,3.2,0.6,6.1,1.9,8.5c1.3,2.5,3,4.4,5.2,5.7
			S481.5,811.8,484.1,811.8z"/>
		<path class="st3" d="M515.9,819.8v-48.6h41.9v48.6h-9.7v-39.5h-22.6v39.5H515.9z"/>
		<path class="st3" d="M568.6,839.1v-67.9h8.3l1,6.1h0.5c1.7-2.3,3.9-4,6.4-5.2c2.5-1.2,5.4-1.8,8.7-1.8c4.2,0,8,1.1,11.4,3.2
			c3.4,2.1,6.1,5.1,8.1,8.9c2,3.8,2.9,8.2,2.9,13.1c0,5-1,9.4-2.9,13.2c-2,3.8-4.7,6.8-8.1,8.9c-3.4,2.1-7.2,3.2-11.4,3.2
			c-3.2,0-6.1-0.6-8.5-1.8c-2.4-1.2-4.5-2.9-6.2-4.9h-0.5v25.1H568.6z M592.2,811.8c2.6,0,4.9-0.7,7.1-2s3.8-3.3,5.1-5.7
			c1.3-2.5,1.9-5.3,1.9-8.5c0-3.2-0.6-6.1-1.9-8.5c-1.3-2.4-2.9-4.3-5.1-5.7s-4.5-2-7.1-2c-2.5,0-4.8,0.7-7,2s-3.8,3.3-5.1,5.7
			c-1.3,2.4-1.9,5.3-1.9,8.5c0,3.2,0.6,6.1,1.9,8.5c1.3,2.5,2.9,4.4,5.1,5.7S589.7,811.8,592.2,811.8z"/>
		<path class="st3" d="M645,820.7c-4.5,0-8.6-1.1-12.3-3.2c-3.7-2.2-6.6-5.2-8.7-9c-2.1-3.8-3.2-8.2-3.2-13.1c0-4.8,1.1-9.2,3.2-13
			c2.1-3.8,5-6.8,8.7-9c3.7-2.2,7.8-3.2,12.3-3.2c3.9,0,7.5,0.8,10.6,2.3c3.1,1.5,5.7,3.7,7.7,6.3c2,2.7,3.3,5.7,4.1,9h-9.8
			c-0.8-2.7-2.4-4.8-4.5-6.4c-2.2-1.5-4.9-2.3-8-2.3c-2.6,0-5.1,0.7-7.2,2c-2.2,1.4-3.9,3.3-5.2,5.7c-1.3,2.5-1.9,5.3-1.9,8.5
			c0,3.2,0.6,6.1,1.9,8.5c1.3,2.5,3,4.4,5.2,5.7c2.2,1.4,4.6,2,7.2,2c3.2,0,5.9-0.8,8.1-2.4c2.2-1.6,3.7-3.8,4.5-6.7h9.8
			c-0.7,3.5-2.1,6.6-4.1,9.3c-2,2.7-4.6,4.8-7.7,6.4C652.5,819.9,648.9,820.7,645,820.7z"/>
		<path class="st3" d="M683.4,819.8v-39.6h-15.9v-9h41.6v9h-15.9v39.6H683.4z"/>
		<path class="st3" d="M714.1,839.1v-9h9.5c0.8,0,1.5-0.2,2.1-0.7c0.5-0.5,0.9-1.1,1.2-1.9l2.6-7.2v5.7l-21-54.8h10.3l13.7,36.8h1.9
			l12.4-36.8h10.3l-21.4,60.1c-1,2.7-2.3,4.7-3.9,5.9c-1.6,1.3-3.9,1.9-7.1,1.9H714.1z"/>
		<path class="st3" d="M783.4,839.1v-22.4l2.9,3.1h-4c-5.1,0-9.5-1-13.3-3c-3.8-2-6.7-4.9-8.8-8.5c-2.1-3.7-3.1-7.9-3.1-12.8
			c0-4.8,1-9,3.1-12.7c2.1-3.7,5-6.6,8.8-8.6c3.8-2,8.2-3,13.3-3h4l-2.9,3v-22h9.7v22l-2.9-3h4c5.1,0,9.5,1,13.3,3
			c3.8,2,6.7,4.8,8.8,8.6c2.1,3.7,3.1,7.9,3.1,12.7c0,4.8-1,9.1-3.1,12.8c-2.1,3.7-5,6.5-8.8,8.5c-3.8,2-8.2,3-13.3,3h-4l2.9-3.1
			v22.4H783.4z M783.4,813.8v-36.7l3,3.1h-4.2c-3.3,0-6.1,0.6-8.4,1.9c-2.3,1.3-4.1,3-5.3,5.3c-1.2,2.3-1.8,5-1.8,8.1
			c0,3.2,0.6,5.9,1.8,8.2c1.2,2.3,3,4.1,5.3,5.3c2.4,1.3,5.1,1.9,8.4,1.9h4.2L783.4,813.8z M793.1,813.8l-3-3h4.2
			c3.2,0,6-0.6,8.4-1.9c2.4-1.3,4.1-3,5.3-5.3c1.2-2.3,1.8-5,1.8-8.2c0-3.1-0.6-5.8-1.8-8.1c-1.2-2.3-2.9-4.1-5.3-5.3
			c-2.3-1.3-5.1-1.9-8.4-1.9h-4.2l3-3.1V813.8z"/>
		<path class="st3" d="M817.7,819.8l16.4-24.8l-15.8-23.8h11.2l10.8,16.8h1.9l10.9-16.8h11.2l-15.8,23.8l16.4,24.8h-11.2L842.2,802
			h-1.9l-11.4,17.8H817.7z"/>
		<path class="st3" d="M907.3,831.4v-11.6H869v-48.6h9.7v39.5h21.8v-39.5h9.7v39.5h6.8v20.7H907.3z"/>
		<path class="st3" d="M950.8,801.7c-1.8,1.2-3.8,2.2-6,2.8c-2.2,0.6-4.7,1-7.4,1c-5.7,0-10-1.6-13-4.7c-3-3.2-4.5-7.8-4.5-13.8
			v-15.7h9.8v14.9c0,3.4,0.8,6,2.5,7.7c1.7,1.7,4.1,2.6,7.2,2.6c2.4,0,4.5-0.3,6.2-1c1.8-0.6,3.5-1.6,5.2-2.9v-21.4h9.7v48.6h-9.7
			V801.7z"/>
		<path class="st3" d="M971,819.8v-48.6h9.7v39.5h17.2v-39.5h9.7v39.5h17.2v-39.5h9.8v48.6H971z"/>
		<path class="st3" d="M1105.3,831.4v-11.6h-60.5v-48.6h9.7v39.5h17.2v-39.5h9.7v39.5h17.2v-39.5h9.8v39.5h6.8v20.7H1105.3z"/>
		<path class="st3" d="M469.4,896.6V857h-12.1v-9H479v15.7h13.1c3.3,0,6.2,0.7,8.8,2.1c2.6,1.4,4.6,3.3,6,5.8
			c1.4,2.5,2.1,5.3,2.1,8.5c0,3.2-0.7,6-2.1,8.5c-1.4,2.5-3.4,4.4-6,5.8c-2.6,1.4-5.6,2.1-8.8,2.1H469.4z M491.2,888.3
			c2.4,0,4.3-0.8,5.9-2.3c1.5-1.5,2.3-3.5,2.3-5.8c0-2.4-0.8-4.3-2.3-5.9c-1.5-1.5-3.5-2.3-5.9-2.3H479v16.3H491.2z"/>
		<path class="st3" d="M515.9,896.6V848h9.7v15.7h12.2c3.3,0,6.2,0.7,8.8,2.1c2.6,1.4,4.6,3.3,6,5.8c1.4,2.5,2.1,5.3,2.1,8.5
			c0,3.2-0.7,6-2.1,8.5c-1.4,2.5-3.4,4.4-6,5.8c-2.6,1.4-5.5,2.1-8.8,2.1H515.9z M536.8,888.3c2.4,0,4.3-0.8,5.8-2.3
			c1.5-1.5,2.3-3.5,2.3-5.8c0-2.4-0.8-4.3-2.3-5.9s-3.5-2.3-5.8-2.3h-11.2v16.3H536.8z M561.2,896.6V848h9.7v48.6H561.2z"/>
		<path class="st3" d="M579.7,896.6V848h9.7v15.7h13.7c3.3,0,6.3,0.7,8.9,2.1c2.6,1.4,4.6,3.3,6,5.8c1.4,2.5,2.1,5.3,2.1,8.5
			c0,3.2-0.7,6-2.1,8.5c-1.4,2.5-3.4,4.4-6,5.8c-2.6,1.4-5.5,2.1-8.9,2.1H579.7z M602.1,888.3c2.4,0,4.3-0.8,5.9-2.3
			c1.5-1.5,2.3-3.5,2.3-5.8c0-2.4-0.8-4.3-2.3-5.9c-1.5-1.5-3.5-2.3-5.9-2.3h-12.8v16.3H602.1z"/>
		<path class="st3" d="M646.1,897.6c-3.9,0-7.5-0.8-10.6-2.3c-3.1-1.5-5.7-3.6-7.7-6.2c-2-2.6-3.3-5.6-4.1-8.8h9.7
			c0.8,2.6,2.4,4.8,4.6,6.3c2.3,1.6,4.9,2.4,8,2.4c2.4,0,4.7-0.5,6.7-1.5c2-1,3.7-2.5,5-4.4c1.3-1.9,2.2-4.1,2.6-6.6h-19.6v-8.2
			h19.6c-0.4-2.5-1.2-4.7-2.6-6.6c-1.3-1.9-3-3.4-5-4.4c-2-1-4.2-1.5-6.7-1.5c-3.1,0-5.8,0.8-8,2.3c-2.3,1.5-3.8,3.6-4.6,6.1h-9.7
			c0.7-3.1,2.1-5.9,4.1-8.5c2-2.6,4.6-4.6,7.7-6.2c3.1-1.5,6.6-2.3,10.6-2.3c4.5,0,8.6,1.1,12.3,3.2c3.7,2.2,6.6,5.2,8.7,9
			c2.1,3.8,3.2,8.2,3.2,13c0,4.9-1.1,9.3-3.2,13.1c-2.1,3.8-5,6.8-8.7,9C654.7,896.5,650.6,897.6,646.1,897.6z"/>
		<path class="st3" d="M716.7,897.6c-3.9,0-7.5-0.9-10.8-2.6c-3.3-1.7-5.9-4.2-8-7.3c-2.1-3.1-3.4-6.7-4-10.9h-6.5v19.8h-9.7V848
			h9.7v19.8h6.5c0.6-4.1,1.9-7.7,4-10.8c2.1-3.2,4.8-5.6,8-7.3c3.3-1.7,6.8-2.6,10.8-2.6c4.4,0,8.3,1.1,11.8,3.2
			c3.5,2.1,6.3,5.1,8.3,8.9c2,3.8,3,8.2,3,13.1c0,5-1,9.4-3,13.2c-2,3.8-4.8,6.8-8.3,8.9C725,896.5,721.1,897.6,716.7,897.6z
			 M716.7,888.6c2.5,0,4.8-0.7,6.8-2s3.6-3.3,4.8-5.7c1.2-2.5,1.8-5.3,1.8-8.5c0-3.2-0.6-6.1-1.8-8.5c-1.2-2.5-2.8-4.4-4.8-5.7
			c-2-1.3-4.3-2-6.8-2c-2.4,0-4.7,0.7-6.7,2c-2,1.3-3.6,3.2-4.8,5.7c-1.2,2.5-1.8,5.3-1.8,8.5c0,3.2,0.6,6.1,1.8,8.5
			c1.2,2.5,2.8,4.4,4.8,5.7C712,887.9,714.2,888.6,716.7,888.6z"/>
		<path class="st3" d="M742.5,896.6l19.1-20.2v3h-2.7c-2.8,0-5.4-0.7-7.8-2c-2.4-1.3-4.2-3.2-5.6-5.6c-1.4-2.4-2.1-5.1-2.1-8
			c0-3,0.7-5.7,2.2-8.2c1.4-2.4,3.4-4.3,5.9-5.7c2.5-1.4,5.3-2,8.5-2h24.2v48.6h-9.7v-17.1h-4.5L754,896.6H742.5z M761,871.5h13.6
			v-15.3H761c-2.2,0-4,0.7-5.6,2.2c-1.5,1.4-2.3,3.3-2.3,5.5c0,2.2,0.8,4,2.3,5.5C757,870.7,758.8,871.5,761,871.5z"/>
		<path class="st3" d="M488.1,1051.2c-5,0-9.5-1.4-13.6-4.1c-4.1-2.7-7.3-6.7-9.8-12c-2.4-5.2-3.6-11.5-3.6-18.7
			c0-7.2,1.2-13.4,3.6-18.7c2.4-5.2,5.7-9.2,9.8-12c4.1-2.7,8.6-4.1,13.6-4.1c5,0,9.6,1.4,13.7,4.1c4.1,2.7,7.3,6.7,9.7,12
			c2.4,5.3,3.6,11.5,3.6,18.7c0,7.2-1.2,13.4-3.6,18.7c-2.4,5.3-5.6,9.2-9.7,12C497.7,1049.8,493.1,1051.2,488.1,1051.2z
			 M488.1,1041.3c3,0,5.8-0.9,8.4-2.8c2.5-1.9,4.6-4.7,6.1-8.5c1.5-3.8,2.3-8.3,2.3-13.7c0-5.3-0.8-9.9-2.3-13.7
			c-1.5-3.8-3.5-6.6-6.1-8.5c-2.5-1.9-5.3-2.8-8.4-2.8c-3,0-5.7,0.9-8.3,2.8c-2.5,1.9-4.6,4.7-6.1,8.5c-1.5,3.8-2.3,8.3-2.3,13.7
			c0,5.3,0.8,9.9,2.3,13.7c1.5,3.8,3.5,6.6,6.1,8.5C482.4,1040.4,485.2,1041.3,488.1,1041.3z"/>
		<path class="st3" d="M534.9,1050.2v-50.7h-14.1v-9.4H532c1,0,1.7-0.3,2.2-0.8c0.5-0.5,0.7-1.3,0.7-2.2v-4.5h10.3v67.6H534.9z"/>
		<path class="st3" d="M554.7,1050.2v-8.7l27.6-28c1.7-1.8,3-3.5,3.8-5.1c0.8-1.6,1.2-3.5,1.2-5.7c0-2.2-0.5-4.1-1.4-5.8
			c-0.9-1.7-2.3-3-4-4c-1.7-0.9-3.7-1.4-5.9-1.4c-2.1,0-4.1,0.5-5.9,1.6c-1.8,1.1-3.2,2.6-4.3,4.5c-1,2-1.5,4.2-1.5,6.6h-10.2
			c0-4.3,0.9-8.2,2.8-11.6c1.8-3.4,4.4-6.1,7.8-8.1c3.3-1.9,7.1-2.9,11.4-2.9s8,0.9,11.3,2.7c3.3,1.8,5.8,4.3,7.7,7.4
			c1.8,3.2,2.8,6.8,2.8,10.9c0,2.6-0.4,5-1.2,7.1c-0.8,2.1-1.8,4-3,5.7c-1.3,1.7-2.9,3.5-5,5.5l-18.9,19.2v0.5h29.2v9.7H554.7z"/>
		<path class="st3" d="M626.7,1051.2c-4.6,0-8.6-0.9-12.2-2.7c-3.5-1.8-6.3-4.2-8.2-7.2c-1.9-3.1-2.9-6.5-2.9-10.2h10.3
			c0,1.9,0.5,3.7,1.5,5.3c1,1.6,2.5,2.8,4.5,3.8c2,0.9,4.2,1.4,6.8,1.4c2.5,0,4.7-0.5,6.7-1.4c1.9-0.9,3.4-2.2,4.4-3.8
			c1-1.6,1.5-3.3,1.5-5.3c0-3.2-1.2-5.8-3.5-7.9c-2.3-2-5.4-3-9.3-3h-4.4v-9.1h4.4c2.4,0,4.6-0.5,6.3-1.4c1.8-0.9,3.1-2.1,4.1-3.7
			c0.9-1.5,1.4-3.3,1.4-5.2c0-1.7-0.5-3.3-1.4-4.7c-1-1.5-2.3-2.7-4.1-3.5c-1.8-0.9-3.8-1.3-6.1-1.3c-2.3,0-4.3,0.5-6.1,1.4
			c-1.8,0.9-3.2,2.1-4.3,3.6c-1,1.5-1.5,3.1-1.5,4.7h-10.3c0-3.4,0.9-6.6,2.8-9.6c1.9-3,4.5-5.3,7.9-7.1c3.4-1.8,7.2-2.7,11.5-2.7
			c4.3,0,8.1,0.9,11.4,2.6c3.3,1.7,5.9,4,7.7,6.9c1.9,2.9,2.8,6.1,2.8,9.7c0,2.5-0.5,4.8-1.5,6.8c-1,2-2.3,3.7-3.9,5
			c-1.5,1.3-3.1,2.3-4.6,2.8v0.5c2.8,0.9,5.3,2.8,7.6,5.6c2.3,2.8,3.4,6.2,3.4,10.1c0,3.5-1,6.8-2.9,9.8s-4.7,5.4-8.2,7.1
			C635.1,1050.3,631.1,1051.2,626.7,1051.2z"/>
		<path class="st3" d="M685.3,1050.2v-14.5h-31.1v-8.3l25.4-44.8h16v44h8.2v9.2h-8.2v14.5H685.3z M666.2,1026.5h19.1v-31h-1.9
			l-17.2,30.5V1026.5z"/>
		<path class="st3" d="M731.1,1051.2c-4.3,0-8.1-0.8-11.4-2.5c-3.3-1.7-6-4-8.1-6.9c-2-2.9-3.2-6.3-3.6-10.1h10.3
			c0.3,1.9,1.1,3.6,2.3,5.1c1.2,1.5,2.7,2.6,4.5,3.5c1.8,0.8,3.8,1.3,6,1.3c2.5,0,4.8-0.6,6.9-1.8c2.1-1.2,3.7-2.8,4.8-4.8
			c1.2-2,1.7-4.3,1.7-6.8c0-2.6-0.5-5-1.6-7c-1.1-2-2.6-3.6-4.6-4.7c-2-1.1-4.3-1.7-6.8-1.7c-2.6,0-4.9,0.5-6.9,1.4
			c-2,0.9-3.6,2.2-4.7,3.7h-10.6l3.9-37.2H751v9.7h-29l-1.8,16.5h0.5c1.4-1.1,3.1-1.9,5.2-2.6c2-0.6,4.3-0.9,6.8-0.9
			c4.1,0,7.8,1,11.2,3c3.4,2,6.1,4.7,8.1,8.2c2,3.4,3,7.3,3,11.6c0,4.4-1,8.3-3,11.9c-2,3.5-4.8,6.3-8.4,8.3
			C739.8,1050.2,735.7,1051.2,731.1,1051.2z"/>
		<path class="st3" d="M784.8,1051.2c-4.4,0-8.5-1-12.1-3.1c-3.6-2.1-6.5-4.9-8.6-8.4c-2.1-3.5-3.1-7.4-3.1-11.6
			c0-2.6,0.4-5.2,1.3-7.6c0.8-2.4,1.8-4.5,2.9-6.2l20.5-31.7h11.6l-16.5,25.8l0.4-1.8c0.7-0.1,1.5-0.3,2.5-0.4
			c1-0.1,1.9-0.2,2.9-0.2c4,0,7.7,1,11.1,2.9c3.4,1.9,6.1,4.5,8.1,7.9c2,3.4,2.9,7.2,2.9,11.4c0,4.2-1,8.1-3.1,11.6
			c-2.1,3.5-4.9,6.3-8.6,8.4C793.3,1050.2,789.2,1051.2,784.8,1051.2z M784.8,1041.6c2.5,0,4.8-0.6,6.9-1.8c2.1-1.2,3.7-2.8,4.9-4.9
			c1.2-2.1,1.8-4.3,1.8-6.9s-0.6-4.8-1.8-6.9c-1.2-2.1-2.8-3.7-4.9-4.8c-2.1-1.2-4.3-1.7-6.9-1.7c-2.5,0-4.8,0.6-6.9,1.7
			c-2.1,1.2-3.7,2.8-4.9,4.8c-1.2,2.1-1.7,4.3-1.7,6.9s0.6,4.8,1.7,6.9c1.2,2.1,2.8,3.7,4.9,4.9C780,1041,782.3,1041.6,784.8,1041.6
			z"/>
		<path class="st3" d="M817.8,1050.2l23.4-57.8h-32.1v-9.9h43.8v8.7l-23.8,58.9H817.8z"/>
		<path class="st3" d="M881,1051.2c-4.6,0-8.7-0.9-12.2-2.7c-3.5-1.8-6.2-4.2-8.1-7.2c-1.9-3-2.8-6.2-2.8-9.7c0-2.7,0.5-5.2,1.6-7.4
			c1.1-2.2,2.4-4.1,3.9-5.6c1.5-1.5,3.2-2.5,4.8-3.1v-0.5c-2.3-1-4.4-2.8-6.2-5.4c-1.8-2.6-2.8-5.6-2.8-9c0-3.5,0.9-6.7,2.8-9.6
			c1.8-2.9,4.4-5.2,7.7-6.9c3.3-1.7,7.1-2.5,11.3-2.5c4.2,0,7.9,0.8,11.3,2.5c3.3,1.7,5.9,4,7.7,6.9c1.8,2.9,2.7,6.1,2.7,9.6
			c0,3.4-0.9,6.4-2.8,9c-1.8,2.6-3.9,4.4-6.1,5.4v0.5c2.6,1,5,3,7.1,5.8c2.1,2.9,3.2,6.3,3.2,10.2c0,3.4-1,6.6-2.8,9.7
			c-1.9,3-4.6,5.4-8.1,7.2C889.6,1050.3,885.6,1051.2,881,1051.2z M881,1041.8c2.4,0,4.6-0.5,6.5-1.4c2-1,3.5-2.3,4.6-4
			c1.1-1.7,1.6-3.5,1.6-5.6c0-2.1-0.5-3.9-1.6-5.6c-1.1-1.7-2.6-3-4.6-4c-2-1-4.1-1.4-6.5-1.4c-2.4,0-4.7,0.5-6.6,1.4
			c-2,1-3.5,2.3-4.6,4c-1.1,1.7-1.6,3.5-1.6,5.6c0,2.1,0.5,3.9,1.6,5.6c1.1,1.7,2.6,3,4.6,4C876.4,1041.3,878.6,1041.8,881,1041.8z
			 M881,1011.1c2.3,0,4.3-0.5,6-1.4c1.7-0.9,3.1-2.1,4-3.7c0.9-1.5,1.4-3.2,1.4-5c0-1.9-0.5-3.6-1.4-5.1c-0.9-1.5-2.3-2.8-4-3.7
			c-1.7-0.9-3.7-1.4-6-1.4c-2.3,0-4.3,0.5-6,1.4c-1.7,0.9-3,2.1-4,3.7c-0.9,1.5-1.4,3.3-1.4,5.1c0,1.8,0.5,3.5,1.4,5
			c0.9,1.5,2.3,2.8,4,3.7C876.7,1010.6,878.7,1011.1,881,1011.1z"/>
		<path class="st3" d="M921.7,1050.2l16.5-25.8l-0.4,1.8c-0.7,0.1-1.5,0.3-2.5,0.4c-1,0.1-1.9,0.2-2.9,0.2c-4,0-7.7-1-11.1-2.9
			c-3.4-1.9-6.1-4.5-8.1-7.9c-2-3.4-3-7.2-3-11.4c0-4.2,1-8,3.1-11.6c2.1-3.5,5-6.3,8.6-8.4c3.6-2.1,7.7-3.1,12.1-3.1
			c4.4,0,8.5,1,12.1,3.1c3.6,2.1,6.5,4.9,8.6,8.4c2.1,3.5,3.1,7.4,3.1,11.6c0,2.6-0.4,5.1-1.2,7.6c-0.8,2.5-1.8,4.6-2.8,6.2
			l-20.5,31.7H921.7z M934.1,1018.1c2.5,0,4.8-0.6,6.9-1.7c2.1-1.2,3.7-2.8,4.9-4.9c1.2-2.1,1.8-4.4,1.8-6.8c0-2.5-0.6-4.8-1.8-6.9
			c-1.2-2.1-2.8-3.7-4.9-4.9c-2.1-1.2-4.3-1.8-6.9-1.8c-2.5,0-4.8,0.6-6.9,1.8c-2.1,1.2-3.7,2.8-4.9,4.9c-1.2,2.1-1.7,4.3-1.7,6.9
			c0,2.4,0.6,4.7,1.7,6.8c1.2,2.1,2.8,3.7,4.9,4.9C929.2,1017.6,931.5,1018.1,934.1,1018.1z"/>
		<path class="st3" d="M967.1,1050.2v-67.6h15.3l26.3,52.5h1.9v-52.5h10.2v67.6h-15.3l-26.3-52.5h-1.9v52.5H967.1z M1044.2,1035.4
			c-2.8,0-5.4-0.7-7.7-2c-2.3-1.3-4.2-3.2-5.5-5.5c-1.4-2.3-2-5-2-7.9s0.7-5.5,2-7.8c1.4-2.3,3.2-4.1,5.5-5.5c2.3-1.3,4.9-2,7.7-2
			c2.8,0,5.4,0.7,7.7,2c2.3,1.3,4.2,3.1,5.5,5.5c1.4,2.3,2,4.9,2,7.8s-0.7,5.5-2,7.9c-1.4,2.4-3.2,4.2-5.5,5.5
			C1049.6,1034.8,1047,1035.4,1044.2,1035.4z M1029.5,1050.2v-8.4h29.4v8.4H1029.5z M1044.2,1027.8c1.4,0,2.6-0.3,3.7-0.9
			c1.1-0.6,2-1.5,2.7-2.7c0.7-1.2,1-2.6,1-4.1c0-1.5-0.3-2.8-1-4c-0.7-1.2-1.6-2.1-2.7-2.8c-1.1-0.6-2.4-1-3.7-1s-2.6,0.3-3.7,1
			c-1.1,0.6-2,1.6-2.7,2.8c-0.7,1.2-1,2.5-1,4c0,1.5,0.3,2.9,1,4.1c0.7,1.2,1.6,2.1,2.7,2.7
			C1041.6,1027.5,1042.8,1027.8,1044.2,1027.8z"/>
		<path class="st3" d="M1080.6,1012.3c-2.8,0-5.3-0.7-7.7-2c-2.4-1.4-4.2-3.2-5.6-5.6c-1.4-2.4-2.1-4.9-2.1-7.8
			c0-2.8,0.7-5.4,2.1-7.7c1.4-2.3,3.3-4.2,5.6-5.5c2.4-1.4,4.9-2,7.7-2c2.7,0,5.2,0.7,7.6,2c2.4,1.4,4.2,3.2,5.6,5.5
			c1.4,2.3,2.1,4.9,2.1,7.7c0,2.8-0.7,5.4-2.1,7.8c-1.4,2.4-3.2,4.2-5.6,5.6S1083.4,1012.3,1080.6,1012.3z M1080.6,1004.6
			c1.3,0,2.5-0.3,3.6-0.9c1.1-0.6,2-1.5,2.7-2.7c0.7-1.2,1-2.6,1-4.1c0-1.5-0.3-2.8-1-4c-0.7-1.2-1.6-2.1-2.7-2.8
			c-1.1-0.6-2.3-1-3.6-1c-1.4,0-2.6,0.3-3.7,1c-1.1,0.6-2,1.6-2.6,2.8c-0.6,1.2-1,2.5-1,4c0,1.5,0.3,2.9,1,4.1
			c0.6,1.2,1.5,2.1,2.6,2.7C1078,1004.3,1079.3,1004.6,1080.6,1004.6z M1073.9,1050.2l42-67.6h9.8l-42,67.6H1073.9z M1118.9,1051.2
			c-2.7,0-5.2-0.7-7.6-2c-2.4-1.4-4.2-3.2-5.6-5.5c-1.4-2.3-2.1-4.9-2.1-7.7c0-2.8,0.7-5.4,2.1-7.8c1.4-2.4,3.2-4.2,5.6-5.6
			c2.3-1.4,4.9-2,7.6-2c2.8,0,5.3,0.7,7.7,2c2.4,1.4,4.2,3.2,5.6,5.6c1.4,2.4,2.1,4.9,2.1,7.8c0,2.8-0.7,5.4-2.1,7.7
			c-1.4,2.3-3.3,4.2-5.6,5.5C1124.2,1050.5,1121.6,1051.2,1118.9,1051.2z M1118.9,1043.6c1.4,0,2.6-0.3,3.7-1c1.1-0.6,2-1.6,2.6-2.8
			c0.6-1.2,1-2.5,1-4c0-1.5-0.3-2.9-1-4.1c-0.6-1.2-1.5-2.1-2.6-2.7c-1.1-0.6-2.3-0.9-3.7-0.9c-1.3,0-2.5,0.3-3.6,0.9
			c-1.1,0.6-2,1.5-2.7,2.7c-0.7,1.2-1,2.6-1,4.1c0,1.5,0.3,2.8,1,4c0.7,1.2,1.6,2.1,2.7,2.8
			C1116.4,1043.3,1117.6,1043.6,1118.9,1043.6z"/>
		<path class="st3" d="M1153.3,1027.6c0-2.6,0.4-4.9,1.1-6.8c0.7-1.9,1.8-3.5,3.3-4.9c1.5-1.4,3.5-2.7,6-4c1.5-0.8,2.7-1.6,3.7-2.6
			c1-1,1.7-2.1,2.2-3.3s0.7-2.7,0.7-4.4c0-2-0.5-3.8-1.5-5.4c-1-1.6-2.4-2.8-4.1-3.8c-1.7-0.9-3.7-1.4-6-1.4c-2.2,0-4.2,0.5-5.9,1.4
			c-1.7,0.9-3.1,2.1-4.1,3.6c-1,1.5-1.4,3.2-1.4,5.1h-10.4c0-3.7,0.9-7,2.8-10c1.8-3,4.4-5.3,7.8-7c3.3-1.7,7.2-2.6,11.6-2.6
			c4.3,0,8.1,0.9,11.4,2.6c3.3,1.7,5.9,4.1,7.7,7.1c1.8,3,2.7,6.2,2.7,9.8c0,4.1-0.9,7.6-2.8,10.4c-1.9,2.8-4.5,5.1-7.9,6.8
			c-2.5,1.2-4.3,2.6-5.2,4.1c-1,1.5-1.4,3.3-1.4,5.3v4.9h-10.1V1027.6z M1152.8,1050.2v-11h11.1v11H1152.8z"/>
		<path class="st3" d="M1189.9,1050.2v-11h10.9v11H1189.9z M1191.5,1032.5l-1.4-22.2v-27.7h10.3v27.7l-1.4,22.2H1191.5z"/>
		<path class="st3" d="M1220.3,1019.4l-6.3-5.2l8.6-10.8l-13.4-3.7l2.4-7.5l13.2,4.8l-0.6-14.4h8.2l-0.7,14.4l13.3-4.8l2.3,7.5
			l-13.3,3.7l8.6,10.8l-6.3,5.2l-8.1-11.9L1220.3,1019.4z"/>
	</g>
</g>
<g>
	<g>
		<path class="st1" d="M2575.6,576.9v-16.8h1.9v16.8H2575.6z"/>
		<path class="st1" d="M2581.3,576.9v-16.8h3.2l7.6,14.5h0.5v-14.5h1.9v16.8h-3.2l-7.6-14.5h-0.5v14.5H2581.3z"/>
		<path class="st1" d="M2598.4,576.9v-16.8h10.6v1.8h-8.6v5.6h8.2v1.8h-8.2v7.6H2598.4z"/>
		<path class="st1" d="M2619.2,577.1c-1.5,0-2.8-0.4-4.1-1.1c-1.2-0.7-2.2-1.7-2.9-3.1c-0.7-1.3-1.1-2.8-1.1-4.5
			c0-1.7,0.4-3.2,1.1-4.5c0.7-1.3,1.7-2.3,2.9-3.1c1.2-0.7,2.6-1.1,4.1-1.1c1.5,0,2.8,0.4,4.1,1.1c1.2,0.7,2.2,1.7,2.9,3.1
			c0.7,1.3,1.1,2.8,1.1,4.5c0,1.7-0.4,3.2-1.1,4.5c-0.7,1.3-1.7,2.3-2.9,3.1C2622.1,576.8,2620.7,577.1,2619.2,577.1z M2619.2,575.3
			c1.1,0,2.1-0.3,3.1-0.9s1.7-1.4,2.2-2.4s0.8-2.2,0.8-3.6c0-1.3-0.3-2.5-0.8-3.6s-1.3-1.8-2.2-2.4s-2-0.9-3.1-0.9s-2.1,0.3-3.1,0.9
			s-1.7,1.4-2.2,2.4s-0.8,2.2-0.8,3.6c0,1.3,0.3,2.5,0.8,3.6s1.3,1.8,2.2,2.4S2618.1,575.3,2619.2,575.3z"/>
		<path class="st1" d="M2630.4,576.9v-16.8h10.8v1.8h-8.9v5.6h8.4v1.8h-8.4v5.8h8.9v1.8H2630.4z"/>
		<path class="st1" d="M2646.7,576.9v-13.2h-3.6V562h2.9c0.2,0,0.4-0.1,0.5-0.2c0.1-0.1,0.2-0.3,0.2-0.5v-1.2h1.9v16.8H2646.7z"/>
		<path class="st1" d="M2658.4,577.1c-1.2,0-2.3-0.3-3.3-1c-1-0.7-1.8-1.7-2.4-3c-0.6-1.3-0.9-2.9-0.9-4.7c0-1.8,0.3-3.4,0.9-4.7
			c0.6-1.3,1.4-2.3,2.4-3s2.1-1,3.3-1c1.2,0,2.3,0.3,3.3,1s1.8,1.7,2.4,3c0.6,1.3,0.9,2.9,0.9,4.7c0,1.8-0.3,3.4-0.9,4.7
			c-0.6,1.3-1.4,2.3-2.4,3C2660.6,576.8,2659.5,577.1,2658.4,577.1z M2658.4,575.3c0.8,0,1.6-0.3,2.3-0.8c0.7-0.5,1.3-1.3,1.7-2.3
			s0.6-2.3,0.6-3.7c0-1.5-0.2-2.7-0.6-3.7s-1-1.8-1.7-2.3c-0.7-0.5-1.5-0.8-2.3-0.8s-1.6,0.3-2.3,0.8c-0.7,0.5-1.3,1.3-1.7,2.3
			s-0.6,2.3-0.6,3.7c0,1.5,0.2,2.7,0.6,3.7s1,1.8,1.7,2.3C2656.8,575.1,2657.5,575.3,2658.4,575.3z"/>
	</g>
</g>
</svg>
