<?xml version="1.0" encoding="utf-8"?>
<!-- Generator: Adobe Illustrator 22.0.0, SVG Export Plug-In . SVG Version: 6.00 Build 0)  -->
<svg version="1.1" id="Layer_1" xmlns="http://www.w3.org/2000/svg" xmlns:xlink="http://www.w3.org/1999/xlink" x="0px" y="0px"
	 viewBox="0 0 2551.2 1417.3" style="enable-background:new 0 0 2551.2 1417.3;" xml:space="preserve">
<style type="text/css">
	.st0{fill:#D1D1D5;}
	.st1{fill:none;stroke:#52525F;stroke-miterlimit:10;}
</style>
<rect class="st0" width="2551.2" height="1417.3"/>
<g>
	<path d="M1488.2,708.7c0,49.4-15.3,97.5-43.8,137.9c-28.5,40.3-68.9,70.8-115.5,87.3v-57.3c31.8-15.1,58.7-38.9,77.6-68.6
		c18.8-29.7,28.8-64.2,28.8-99.4s-10-69.6-28.9-99.4c-18.9-29.7-45.8-53.5-77.6-68.5v-57.3c46.6,16.5,87,47,115.6,87.3
		C1472.8,611.1,1488.2,659.3,1488.2,708.7z"/>
	<rect x="1063" y="682.1" width="212.6" height="53.1"/>
	<path d="M1381.9,708.7c0-17.4-3.4-34.7-10.1-50.8s-16.5-30.7-28.8-43.1c-12.3-12.3-27-22.1-43.1-28.8s-33.4-10.1-50.9-10.1h-79.6
		V629h159.4v159.2h-159.4v53.1h79.6c17.5,0,34.7-3.4,50.9-10.1c16.1-6.7,30.8-16.4,43.1-28.8c12.3-12.3,22.1-27,28.8-43.1
		C1378.4,743.4,1381.9,726.1,1381.9,708.7z"/>
</g>
<line class="st1" x1="1063" y1="0" x2="1063" y2="1417.3"/>
<line class="st1" x1="1488.2" y1="0" x2="1488.2" y2="1417.3"/>
<line class="st1" x1="2551.2" y1="483.4" x2="0" y2="483.4"/>
<line class="st1" x1="2551.2" y1="933.9" x2="0" y2="933.9"/>
</svg>
