<?xml version="1.0" encoding="utf-8"?>
<!-- Generator: Adobe Illustrator 22.0.0, SVG Export Plug-In . SVG Version: 6.00 Build 0)  -->
<svg version="1.1" id="Layer_1" xmlns="http://www.w3.org/2000/svg" xmlns:xlink="http://www.w3.org/1999/xlink" x="0px" y="0px"
	 viewBox="0 0 1600 1163.6" style="enable-background:new 0 0 1600 1163.6;" xml:space="preserve">
<style type="text/css">
	.st0{fill:#F2F2F3;}
	.st1{fill:#D1D1D5;}
	.st2{fill:#868690;}
	.st3{fill:#1B1B2D;}
	.st4{fill:#A4A4AB;}
	.st5{fill:#E8E8EA;}
	.st6{fill:#FFFFFF;}
	.st7{fill:#738CEA;}
	.st8{fill:#E6E7E7;}
	.st9{fill:#D63318;}
	.st10{fill:#F7D6D1;}
	.st11{fill:#5AA358;}
	.st12{fill:#31772D;}
	.st13{fill:none;stroke:#738CEA;stroke-miterlimit:10;}
</style>
<rect class="st0" width="1600" height="1163.6"/>
<g>
	<path class="st1" d="M113.2,209.6c0,44.2,35.8,80,80,80s80-35.8,80-80H113.2z"/>
	<path class="st2" d="M113.2,209.6h80v-80C149,129.6,113.2,165.4,113.2,209.6z"/>
	<path class="st3" d="M193.2,129.6v80h80C273.2,165.4,237.4,129.6,193.2,129.6z"/>
</g>
<g>
	<polygon class="st3" points="458.1,129.6 378.1,129.6 378.1,289.6 458.1,289.6 458.1,209.6 	"/>
	<rect x="458.1" y="129.6" class="st1" width="80" height="80"/>
	<rect x="458.1" y="209.6" class="st2" width="80" height="80"/>
</g>
<g>
	<rect x="646" y="242.6" class="st2" width="184" height="24"/>
	<rect x="646" y="197.6" class="st3" width="214" height="24"/>
	<rect x="646" y="152.6" class="st1" width="128" height="24"/>
</g>
<g>
	<rect x="1095.8" y="152" class="st2" width="24" height="137.6"/>
	<rect x="1050.8" y="129.6" class="st3" width="24" height="160"/>
	<rect x="1005.8" y="193.8" class="st1" width="24" height="95.7"/>
</g>
<g>
	<g>
		<path class="st3" d="M656,554c-1.2,0-2.4-0.7-3.1-1.8c-0.9-1.7-0.3-3.8,1.4-4.7l84.3-45.7l31.5,9.8l70.5-65.6
			c1.4-1.3,3.6-1.2,4.9,0.2c1.3,1.4,1.2,3.6-0.2,4.9l-73.5,68.4l-32.5-10.2l-81.7,44.3C657.1,553.8,656.6,554,656,554z"/>
	</g>
	<g>
		<g>
			<path class="st2" d="M736.9,540l-0.7-0.2l-81-18c-1.9-0.4-3.1-2.3-2.7-4.2c0.4-1.9,2.3-3.1,4.2-2.7l80.3,17.8L846.3,512
				c1.9-0.4,3.7,0.9,4.1,2.8s-0.9,3.7-2.8,4.1L736.9,540z"/>
		</g>
	</g>
	<g>
		<path class="st1" d="M656,570c-1.6,0-3.1-1.1-3.4-2.8c-0.4-1.9,0.8-3.8,2.7-4.2l67.9-14.8l29.9-32l42.2,18.1l52.3-46.5
			c1.4-1.3,3.7-1.2,4.9,0.3c1.3,1.4,1.2,3.7-0.3,4.9l-55.7,49.5l-41.8-17.9l-28.1,30l-70.1,15.2C656.5,569.9,656.2,570,656,570z"/>
	</g>
</g>
<g>
	<path class="st3" d="M1398.9,173.7c9.2,9.2,14.8,21.9,14.8,35.9c0,28.2-22.8,51-51,51c-14,0-26.7-5.7-35.9-14.8l-20.5,20.5
		c14.5,14.4,34.4,23.3,56.4,23.3c44.2,0,80-35.8,80-80c0-22-8.9-42-23.3-56.4L1398.9,173.7z"/>
	<path class="st4" d="M1311.7,209.6h-29c0,22.2,9,42.2,23.6,56.7l20.5-20.5C1317.5,236.5,1311.7,223.7,1311.7,209.6z"/>
	<path class="st5" d="M1362.7,158.6c14.1,0,26.9,5.8,36.2,15.1l20.5-20.5c-14.5-14.6-34.5-23.6-56.7-23.6c-0.2,0-0.3,0-0.5,0v29
		C1362.4,158.6,1362.5,158.6,1362.7,158.6z"/>
	<path class="st2" d="M1362.2,158.6v-29c-44,0.3-79.5,36-79.5,80h29C1311.7,181.6,1334.3,158.9,1362.2,158.6z"/>
</g>
<g>
	<g>
		<path class="st3" d="M1050.8,510.7h-45c-1.9,0-3.5-1.6-3.5-3.5s1.6-3.5,3.5-3.5h45c1.9,0,3.5,1.6,3.5,3.5
			S1052.7,510.7,1050.8,510.7z"/>
	</g>
	<g>
		<path class="st2" d="M1200.8,510.7h-53c-1.9,0-3.5-1.6-3.5-3.5s1.6-3.5,3.5-3.5h53c1.9,0,3.5,1.6,3.5,3.5
			S1202.7,510.7,1200.8,510.7z"/>
	</g>
	<g>
		<path class="st2" d="M1118.8,539.5c-17.6,0-32-14.4-32-32c0-17.6,14.4-32,32-32s32,14.4,32,32
			C1150.8,525.1,1136.4,539.5,1118.8,539.5z M1118.8,482.5c-13.8,0-25,11.2-25,25s11.2,25,25,25s25-11.2,25-25
			S1132.6,482.5,1118.8,482.5z"/>
	</g>
	<g>
		<g>
			<path class="st1" d="M1079.3,539.5c-17.6,0-32-14.4-32-32c0-17.6,14.4-32,32-32s32,14.4,32,32
				C1111.3,525.1,1096.9,539.5,1079.3,539.5z M1079.3,482.5c-13.8,0-25,11.2-25,25s11.2,25,25,25s25-11.2,25-25
				S1093.1,482.5,1079.3,482.5z"/>
		</g>
	</g>
	<circle class="st3" cx="965.3" cy="507.5" r="40.5"/>
</g>
<g>
	<circle class="st3" cx="164.7" cy="533.5" r="48.5"/>
	<ellipse transform="matrix(0.1602 -0.9871 0.9871 0.1602 -263.8427 617.8901)" class="st2" cx="231.2" cy="464" rx="31" ry="31"/>
	
		<ellipse transform="matrix(0.1602 -0.9871 0.9871 0.1602 -316.0688 695.5056)" class="st1" cx="250.7" cy="533.5" rx="19.5" ry="19.5"/>
</g>
<g>
	<polygon class="st2" points="494.1,495 510.1,513.3 555.6,525.5 555.6,452.8 504.6,448 443.6,495.5 477.7,504.6 	"/>
	<polygon class="st2" points="392.1,525 412.6,501.8 391.6,493 360.6,507.5 360.6,521.5 	"/>
	<polygon class="st3" points="443.6,495.5 423.1,490 412.6,501.8 392.1,525 360.6,521.5 360.6,542.3 448.1,522 477.7,504.6 	"/>
	<polygon class="st3" points="510.1,513.3 555.6,565.3 555.6,525.5 	"/>
	<polygon class="st1" points="510.1,513.3 494.1,495 477.7,504.6 448.1,522 360.6,542.3 360.6,567 555.6,567 555.6,565.3 	"/>
</g>
<g>
	<g>
		<g>
			<rect x="1263.6" y="509.8" class="st1" width="24.3" height="30.1"/>
			<rect x="1333.1" y="509.8" class="st1" width="24.3" height="77.7"/>
			<rect x="1437.5" y="509.8" class="st1" width="24.3" height="46.4"/>
		</g>
	</g>
	<rect x="1402.7" y="450.7" class="st4" width="24.3" height="59.1"/>
	<rect x="1367.9" y="427.5" class="st3" width="24.3" height="82.3"/>
	<rect x="1298.4" y="462.3" class="st6" width="24.3" height="47.5"/>
	<g>
		<rect x="1238.6" y="508.8" class="st2" width="248.2" height="2"/>
	</g>
</g>
<path class="st7" d="M143.5,816.2c-17.2,25.2-27.3,55.6-27.3,88.4c0,7.1,0.5,14,1.4,20.8l155.2-20.8L143.5,816.2z"/>
<path class="st8" d="M272.8,748c-53.7,0-101.1,27-129.3,68.2l129.3,88.4V748z"/>
<path class="st3" d="M428,883.7C417.8,807.1,352.2,748,272.8,748v156.6l-155.2,20.8c10.2,76.6,75.8,135.7,155.2,135.7
	c53.7,0,101.1-27,129.3-68.2c17.2-25.1,27.3-55.6,27.3-88.4C429.3,897.5,428.9,890.6,428,883.7z"/>
<circle class="st3" cx="462.9" cy="756" r="8"/>
<circle class="st8" cx="462.9" cy="806.9" r="8"/>
<circle class="st7" cx="462.9" cy="782" r="8"/>
<g>
	<path class="st3" d="M1089.2,895c0-45-36.5-81.5-81.5-81.5v36.7c24.7,0,44.7,20,44.7,44.7c0,18.5-11.3,34.4-27.3,41.2l14.6,33.7
		C1068.8,957.5,1089.2,928.6,1089.2,895z"/>
	<path class="st7" d="M1007.7,939.7c-24.7,0-44.7-20-44.7-44.7s20-44.7,44.7-44.7v-36.8c-45,0-81.5,36.5-81.5,81.5
		s36.5,81.5,81.5,81.5c11.4,0,22.2-2.3,32-6.6l-14.6-33.7C1019.8,938.5,1013.9,939.7,1007.7,939.7z"/>
</g>
<path class="st3" d="M1208.2,813.5v36.7c24.7,0,44.7,20,44.7,44.7s-20,44.7-44.7,44.7c-9.7,0-18.7-3.1-26-8.4l-20.5,30.5
	c13.2,9.2,29.2,14.6,46.5,14.6c45,0,81.5-36.5,81.5-81.5C1289.7,850,1253.2,813.5,1208.2,813.5z"/>
<path class="st9" d="M1163.5,895c0-14.6,7-27.5,17.7-35.7l-22-29.5c-19.7,14.9-32.5,38.5-32.5,65.1c0,27.7,13.8,52.1,34.9,66.9
	l20.5-30.5C1170.9,923.2,1163.5,910,1163.5,895z"/>
<path class="st10" d="M1208.2,850.3v-36.8c-18.4,0-35.3,6.1-49,16.4l22,29.5C1188.7,853.6,1198.1,850.3,1208.2,850.3z"/>
<path class="st3" d="M1453.5,895c0,9.4-2.9,18-7.8,25.2l30.4,20.7c8.9-13.1,14.2-28.9,14.2-45.9c0-45-36.5-81.5-81.5-81.5v36.7
	C1433.4,850.3,1453.5,870.3,1453.5,895z"/>
<path class="st11" d="M1408.7,850.3v-36.8c-13.3,0-25.8,3.2-36.9,8.8l16.6,32.8C1394.5,852,1401.4,850.3,1408.7,850.3z"/>
<path class="st12" d="M1445.7,920.2c-8.1,11.8-21.6,19.5-36.9,19.5c-24.7,0-44.7-20-44.7-44.7c0-17.4,10-32.5,24.5-39.9l-16.6-32.8
	c-26.4,13.5-44.6,40.9-44.6,72.6c0,45,36.5,81.5,81.5,81.5c28,0,52.6-14.1,67.3-35.5L1445.7,920.2z"/>
<line class="st13" x1="691.4" y1="789.5" x2="1490.2" y2="789.5"/>
<line class="st13" x1="927" y1="999.6" x2="1088.4" y2="999.6"/>
<line class="st13" x1="1127.5" y1="999.6" x2="1288.9" y2="999.6"/>
<line class="st13" x1="1328.8" y1="999.6" x2="1490.2" y2="999.6"/>
<g>
	<path class="st3" d="M484.7,755.7c0-3.4,1.9-5.9,4.6-5.9c2.7,0,4.6,2.4,4.6,5.9v0.6c0,3.6-1.9,5.9-4.6,5.9c-2.7,0-4.6-2.3-4.6-5.9
		V755.7z M492.4,755.8c0-2.9-1.2-4.6-3.1-4.6c-1.9,0-3.1,1.7-3.1,4.6v0.4c0,2.9,1.2,4.6,3.1,4.6c1.9,0,3.1-1.7,3.1-4.6V755.8z"/>
	<path class="st3" d="M497.5,750h1.4v12h-1.4v-8.6c-0.2,0.2-0.4,0.2-0.8,0.2h-1.9v-1.3h2c0.6,0,0.8-0.4,0.8-1V750z"/>
	<path class="st3" d="M505.8,762v-12h1.5v5.2h2.2l4-5.2h1.7l-4.4,5.8l4.7,6.2h-1.8l-4.1-5.4h-2.2v5.4H505.8z"/>
	<path class="st3" d="M516,757.6c0-2.7,1.8-4.5,4.4-4.5s4.4,1.8,4.4,4.5c0,2.7-1.8,4.5-4.4,4.5S516,760.3,516,757.6z M523.2,757.6
		c0-1.9-1.2-3.2-2.9-3.2s-2.9,1.4-2.9,3.2s1.2,3.2,2.9,3.2S523.2,759.5,523.2,757.6z"/>
	<path class="st3" d="M525.1,762v-1.3h0.3c1,0,1.4-0.6,1.4-3.2v-4.3h6.6v8.8H532v-7.5h-3.9v3c0,3.5-0.8,4.5-2.5,4.5H525.1z"/>
	<path class="st3" d="M535.3,762v-8.8h1.4v6.6l5.2-6.6h1.2v8.8h-1.4v-6.7l-5.2,6.7H535.3z"/>
	<path class="st3" d="M550.6,753.2h1.4v8.8h-1.4v-3.5c-0.7,0.4-1.6,0.7-2.4,0.7c-2.1,0-3.4-0.9-3.4-3.2v-2.7h1.4v2.5
		c0,1.6,0.8,2.2,2.3,2.2c0.8,0,1.6-0.2,2.2-0.7V753.2z"/>
	<path class="st3" d="M553.6,757.6c0-2.7,1.7-4.5,4.2-4.5s4.1,1.6,4.2,4.2c0,0.2,0,0.4,0,0.6h-6.8v0.1c0.1,1.7,1.1,2.8,2.8,2.8
		c1.2,0,2.2-0.7,2.5-1.8h1.4c-0.3,1.8-1.8,3-3.8,3C555.3,762.1,553.6,760.3,553.6,757.6z M560.4,756.7c-0.1-1.5-1.2-2.4-2.6-2.4
		c-1.3,0-2.5,0.9-2.6,2.4H560.4z"/>
	<path class="st3" d="M563.3,757.6c0-2.7,1.7-4.5,4.3-4.5c2.2,0,3.5,1.2,3.9,3.1h-1.5c-0.3-1.2-1.1-1.9-2.4-1.9
		c-1.7,0-2.8,1.3-2.8,3.3c0,1.9,1.1,3.2,2.8,3.2c1.3,0,2.1-0.7,2.4-1.8h1.5c-0.3,1.9-1.8,3.1-3.9,3.1
		C564.9,762.1,563.3,760.4,563.3,757.6z"/>
	<path class="st3" d="M575.1,762v-7.5h-3.2v-1.3h7.7v1.3h-3.2v7.5H575.1z"/>
	<path class="st3" d="M580.8,762v-8.8h3.7c2.2,0,3.2,0.8,3.2,2.4c0,1.1-0.7,1.7-1.4,1.9c1,0.2,1.8,0.8,1.8,2c0,1.7-1.2,2.5-3.5,2.5
		H580.8z M582.2,757h2.4c1.2,0,1.7-0.5,1.7-1.3c0-0.8-0.5-1.3-1.7-1.3h-2.4V757z M582.2,760.8h2.6c1.2,0,1.9-0.4,1.9-1.3
		c0-0.9-0.7-1.3-1.9-1.3h-2.6V760.8z"/>
	<path class="st3" d="M589.3,757.6c0-2.7,1.8-4.5,4.4-4.5c2.6,0,4.4,1.8,4.4,4.5c0,2.7-1.8,4.5-4.4,4.5
		C591.1,762.1,589.3,760.3,589.3,757.6z M596.6,757.6c0-1.9-1.2-3.2-2.9-3.2c-1.7,0-2.9,1.4-2.9,3.2s1.2,3.2,2.9,3.2
		C595.4,760.8,596.6,759.5,596.6,757.6z"/>
	<path class="st3" d="M484.7,780.7c0-3.4,1.9-5.9,4.6-5.9c2.7,0,4.6,2.4,4.6,5.9v0.6c0,3.6-1.9,5.9-4.6,5.9c-2.7,0-4.6-2.3-4.6-5.9
		V780.7z M492.4,780.8c0-2.9-1.2-4.6-3.1-4.6c-1.9,0-3.1,1.7-3.1,4.6v0.4c0,2.9,1.2,4.6,3.1,4.6c1.9,0,3.1-1.7,3.1-4.6V780.8z"/>
	<path class="st3" d="M495,785.8l4.7-4.1c1.1-1,2-1.9,2-3.2c0-1.5-1-2.4-2.6-2.4c-1.5,0-2.6,1-2.6,2.7v0.2h-1.4v-0.3
		c0-2.3,1.6-3.9,4-3.9c2.6,0,4.1,1.4,4.1,3.6c0,1.8-1.2,2.9-2.6,4.2l-3.6,3.1h6.3v1.3H495V785.8z"/>
	<path class="st3" d="M509.5,787v-12h1.5v5.2h2.2l4-5.2h1.7l-4.4,5.8l4.7,6.2h-1.8l-4.1-5.4H511v5.4H509.5z"/>
	<path class="st3" d="M519.7,782.6c0-2.7,1.8-4.5,4.4-4.5c2.6,0,4.4,1.8,4.4,4.5c0,2.7-1.8,4.5-4.4,4.5
		C521.5,787.1,519.7,785.3,519.7,782.6z M527,782.6c0-1.9-1.2-3.2-2.9-3.2c-1.7,0-2.9,1.4-2.9,3.2s1.2,3.2,2.9,3.2
		C525.8,785.8,527,784.5,527,782.6z"/>
	<path class="st3" d="M528.8,787v-1.3h0.3c1,0,1.4-0.6,1.4-3.2v-4.3h6.6v8.8h-1.4v-7.5h-3.9v3c0,3.5-0.8,4.5-2.5,4.5H528.8z"/>
	<path class="st3" d="M539,787v-8.8h1.4v6.6l5.2-6.6h1.2v8.8h-1.4v-6.7l-5.2,6.7H539z"/>
	<path class="st3" d="M554.3,778.2h1.4v8.8h-1.4v-3.5c-0.7,0.4-1.6,0.7-2.4,0.7c-2.1,0-3.4-0.9-3.4-3.2v-2.7h1.4v2.5
		c0,1.6,0.8,2.2,2.3,2.2c0.8,0,1.6-0.2,2.2-0.7V778.2z"/>
	<path class="st3" d="M557.4,782.6c0-2.7,1.7-4.5,4.2-4.5s4.1,1.6,4.2,4.2c0,0.2,0,0.4,0,0.6h-6.8v0.1c0.1,1.7,1.1,2.8,2.8,2.8
		c1.2,0,2.2-0.7,2.5-1.8h1.4c-0.3,1.8-1.8,3-3.8,3C559.1,787.1,557.4,785.3,557.4,782.6z M564.2,781.7c-0.1-1.5-1.2-2.4-2.6-2.4
		c-1.3,0-2.5,0.9-2.6,2.4H564.2z"/>
	<path class="st3" d="M567,782.6c0-2.7,1.7-4.5,4.3-4.5c2.2,0,3.5,1.2,3.9,3.1h-1.5c-0.3-1.2-1.1-1.9-2.4-1.9
		c-1.7,0-2.8,1.3-2.8,3.3c0,1.9,1.1,3.2,2.8,3.2c1.3,0,2.1-0.7,2.4-1.8h1.5c-0.3,1.9-1.8,3.1-3.9,3.1
		C568.7,787.1,567,785.4,567,782.6z"/>
	<path class="st3" d="M578.8,787v-7.5h-3.2v-1.3h7.7v1.3h-3.2v7.5H578.8z"/>
	<path class="st3" d="M584.5,787v-8.8h3.7c2.2,0,3.2,0.8,3.2,2.4c0,1.1-0.7,1.7-1.4,1.9c1,0.2,1.8,0.8,1.8,2c0,1.7-1.2,2.5-3.5,2.5
		H584.5z M585.9,782h2.4c1.2,0,1.7-0.5,1.7-1.3c0-0.8-0.5-1.3-1.7-1.3h-2.4V782z M585.9,785.8h2.6c1.2,0,1.9-0.4,1.9-1.3
		c0-0.9-0.7-1.3-1.9-1.3h-2.6V785.8z"/>
	<path class="st3" d="M593.1,782.6c0-2.7,1.8-4.5,4.4-4.5s4.4,1.8,4.4,4.5c0,2.7-1.8,4.5-4.4,4.5S593.1,785.3,593.1,782.6z
		 M600.3,782.6c0-1.9-1.2-3.2-2.9-3.2s-2.9,1.4-2.9,3.2s1.2,3.2,2.9,3.2S600.3,784.5,600.3,782.6z"/>
	<path class="st3" d="M484.7,805.7c0-3.4,1.9-5.9,4.6-5.9c2.7,0,4.6,2.4,4.6,5.9v0.6c0,3.6-1.9,5.9-4.6,5.9c-2.7,0-4.6-2.3-4.6-5.9
		V805.7z M492.4,805.8c0-2.9-1.2-4.6-3.1-4.6c-1.9,0-3.1,1.7-3.1,4.6v0.4c0,2.9,1.2,4.6,3.1,4.6c1.9,0,3.1-1.7,3.1-4.6V805.8z"/>
	<path class="st3" d="M503.7,808.7c0,2-1.7,3.4-4.3,3.4s-4.3-1.4-4.3-3.8h1.4c0,1.6,1.3,2.5,3,2.5c1.6,0,2.8-0.9,2.8-2.3
		c0-1.3-1-2.1-2.9-2.1h-1v-1.3h0.9c1.8,0,2.7-0.9,2.7-2.1c0-1.2-1.1-2-2.5-2c-1.5,0-2.6,0.9-2.6,2.3h-1.4c0-2.1,1.7-3.6,4-3.6
		c2.5,0,4,1.3,4,3.2c0,1.5-0.8,2.4-1.9,2.7C502.5,805.9,503.7,806.8,503.7,808.7z"/>
	<path class="st3" d="M510,812v-12h1.5v5.2h2.2l4-5.2h1.7l-4.4,5.8l4.7,6.2h-1.8l-4.1-5.4h-2.2v5.4H510z"/>
	<path class="st3" d="M520.2,807.6c0-2.7,1.8-4.5,4.4-4.5c2.6,0,4.4,1.8,4.4,4.5c0,2.7-1.8,4.5-4.4,4.5
		C522,812.1,520.2,810.3,520.2,807.6z M527.5,807.6c0-1.9-1.2-3.2-2.9-3.2c-1.7,0-2.9,1.4-2.9,3.2s1.2,3.2,2.9,3.2
		C526.3,810.8,527.5,809.5,527.5,807.6z"/>
	<path class="st3" d="M529.4,812v-1.3h0.3c1,0,1.4-0.6,1.4-3.2v-4.3h6.6v8.8h-1.4v-7.5h-3.9v3c0,3.5-0.8,4.5-2.5,4.5H529.4z"/>
	<path class="st3" d="M539.6,812v-8.8h1.4v6.6l5.2-6.6h1.2v8.8H546v-6.7l-5.2,6.7H539.6z"/>
	<path class="st3" d="M554.8,803.2h1.4v8.8h-1.4v-3.5c-0.7,0.4-1.6,0.7-2.4,0.7c-2.1,0-3.4-0.9-3.4-3.2v-2.7h1.4v2.5
		c0,1.6,0.8,2.2,2.3,2.2c0.8,0,1.6-0.2,2.2-0.7V803.2z"/>
	<path class="st3" d="M557.9,807.6c0-2.7,1.7-4.5,4.2-4.5s4.1,1.6,4.2,4.2c0,0.2,0,0.4,0,0.6h-6.8v0.1c0.1,1.7,1.1,2.8,2.8,2.8
		c1.2,0,2.2-0.7,2.5-1.8h1.4c-0.3,1.8-1.8,3-3.8,3C559.6,812.1,557.9,810.3,557.9,807.6z M564.7,806.7c-0.1-1.5-1.2-2.4-2.6-2.4
		c-1.3,0-2.5,0.9-2.6,2.4H564.7z"/>
	<path class="st3" d="M567.5,807.6c0-2.7,1.7-4.5,4.3-4.5c2.2,0,3.5,1.2,3.9,3.1h-1.5c-0.3-1.2-1.1-1.9-2.4-1.9
		c-1.7,0-2.8,1.3-2.8,3.3c0,1.9,1.1,3.2,2.8,3.2c1.3,0,2.1-0.7,2.4-1.8h1.5c-0.3,1.9-1.8,3.1-3.9,3.1
		C569.2,812.1,567.5,810.4,567.5,807.6z"/>
	<path class="st3" d="M579.3,812v-7.5h-3.2v-1.3h7.7v1.3h-3.2v7.5H579.3z"/>
	<path class="st3" d="M585.1,812v-8.8h3.7c2.2,0,3.2,0.8,3.2,2.4c0,1.1-0.7,1.7-1.4,1.9c1,0.2,1.8,0.8,1.8,2c0,1.7-1.2,2.5-3.5,2.5
		H585.1z M586.5,807h2.4c1.2,0,1.7-0.5,1.7-1.3c0-0.8-0.5-1.3-1.7-1.3h-2.4V807z M586.5,810.8h2.6c1.2,0,1.9-0.4,1.9-1.3
		c0-0.9-0.7-1.3-1.9-1.3h-2.6V810.8z"/>
	<path class="st3" d="M593.6,807.6c0-2.7,1.8-4.5,4.4-4.5s4.4,1.8,4.4,4.5c0,2.7-1.8,4.5-4.4,4.5S593.6,810.3,593.6,807.6z
		 M600.9,807.6c0-1.9-1.2-3.2-2.9-3.2s-2.9,1.4-2.9,3.2s1.2,3.2,2.9,3.2S600.9,809.5,600.9,807.6z"/>
</g>
<g>
	<path class="st3" d="M692.6,816.2v-12h7.1v1.4h-5.6v10.7H692.6z"/>
	<path class="st3" d="M708.7,811.8c0,2.7-1.8,4.5-4.2,4.5c-1.5,0-2.5-0.6-3-1.4v4.8h-1.4v-12.2h1.2l0.2,1.4c0.6-0.8,1.5-1.5,3-1.5
		C706.9,807.3,708.7,809,708.7,811.8z M707.3,811.8c0-1.9-1.2-3.2-2.9-3.2c-1.7,0-2.9,1.3-2.9,3.2c0,1.9,1.2,3.3,2.9,3.3
		C706.1,815,707.3,813.7,707.3,811.8z"/>
	<path class="st3" d="M718.5,814.9v1.3h-0.8c-1.2,0-1.6-0.5-1.6-1.4c-0.6,0.8-1.4,1.5-2.9,1.5c-1.9,0-3.2-1-3.2-2.6
		c0-1.8,1.2-2.7,3.5-2.7h2.6v-0.6c0-1.1-0.8-1.8-2.2-1.8c-1.2,0-2.1,0.6-2.2,1.5h-1.4c0.2-1.7,1.6-2.7,3.7-2.7
		c2.2,0,3.5,1.1,3.5,3.2v3.8c0,0.5,0.2,0.6,0.6,0.6H718.5z M716.1,812.2h-2.7c-1.3,0-2,0.5-2,1.5c0,0.9,0.7,1.4,1.9,1.4
		c1.8,0,2.8-1,2.8-2.5V812.2z"/>
	<path class="st3" d="M724.3,819.6v-3.4c-3-0.1-5-1.8-5-4.5c0-2.6,2-4.4,5-4.5v-2.9h1.4v2.9c3,0.1,5,1.8,5,4.5c0,2.6-2,4.4-5,4.5
		v3.4H724.3z M724.3,808.6c-2.2,0.1-3.5,1.2-3.5,3.2s1.4,3.2,3.5,3.2V808.6z M725.7,815c2.2-0.1,3.5-1.2,3.5-3.2s-1.4-3.2-3.5-3.2
		V815z"/>
	<path class="st3" d="M732.3,816.2v-8.8h1.4v6.6l5.2-6.6h1.2v8.8h-1.4v-6.7l-5.2,6.7H732.3z"/>
	<path class="st3" d="M742,816.2v-8.8h1.4v3.7h1.9l2.7-3.7h1.6l-3.2,4.2l3.5,4.6h-1.7l-2.9-3.8h-1.9v3.8H742z"/>
	<path class="st3" d="M755.5,816.2v-8.8h3.7c2.2,0,3.2,0.8,3.2,2.4c0,1.1-0.7,1.7-1.4,1.9c1,0.2,1.8,0.8,1.8,2
		c0,1.7-1.2,2.5-3.5,2.5H755.5z M756.9,811.2h2.4c1.2,0,1.7-0.5,1.7-1.3c0-0.8-0.5-1.3-1.7-1.3h-2.4V811.2z M756.9,815h2.6
		c1.2,0,1.9-0.4,1.9-1.3c0-0.9-0.7-1.3-1.9-1.3h-2.6V815z"/>
	<path class="st3" d="M768.8,816.2v-8.8h7.6v8.8H775v-7.5h-4.8v7.5H768.8z"/>
	<path class="st3" d="M787,811.8c0,2.7-1.8,4.5-4.2,4.5c-1.5,0-2.5-0.6-3-1.4v4.8h-1.4v-12.2h1.2l0.2,1.4c0.6-0.8,1.5-1.5,3-1.5
		C785.2,807.3,787,809,787,811.8z M785.5,811.8c0-1.9-1.2-3.2-2.9-3.2c-1.7,0-2.9,1.3-2.9,3.2c0,1.9,1.2,3.3,2.9,3.3
		C784.4,815,785.5,813.7,785.5,811.8z"/>
	<path class="st3" d="M788.3,811.8c0-2.7,1.8-4.5,4.4-4.5c2.6,0,4.4,1.8,4.4,4.5c0,2.7-1.8,4.5-4.4,4.5
		C790.1,816.3,788.3,814.5,788.3,811.8z M795.6,811.8c0-1.9-1.2-3.2-2.9-3.2c-1.7,0-2.9,1.4-2.9,3.2s1.2,3.2,2.9,3.2
		C794.4,815,795.6,813.7,795.6,811.8z"/>
	<path class="st3" d="M806.1,814.9h1.5v3.6h-1.4v-2.3h-7.5v-8.8h1.4v7.5h4.6v-7.5h1.4V814.9z"/>
	<path class="st3" d="M808.1,811.8c0-2.7,1.7-4.5,4.2-4.5s4.1,1.6,4.2,4.2c0,0.2,0,0.4,0,0.6h-6.8v0.1c0.1,1.7,1.1,2.8,2.8,2.8
		c1.2,0,2.2-0.7,2.5-1.8h1.4c-0.3,1.8-1.8,3-3.8,3C809.9,816.3,808.1,814.5,808.1,811.8z M815,810.9c-0.1-1.5-1.2-2.4-2.6-2.4
		c-1.3,0-2.5,0.9-2.6,2.4H815z"/>
	<path class="st3" d="M824.5,807.4h1.4v8.8h-1.4v-3.8h-4.9v3.8h-1.4v-8.8h1.4v3.7h4.9V807.4z"/>
	<path class="st3" d="M830.2,816.2v-7.5h-3.2v-1.3h7.7v1.3h-3.2v7.5H830.2z"/>
	<path class="st3" d="M842.3,807.4h1.4v8.8h-1.4v-3.8h-4.9v3.8H836v-8.8h1.4v3.7h4.9V807.4z"/>
	<path class="st3" d="M845.7,816.2v-8.8h1.4v2.9h2.2c2.2,0,3.4,1.1,3.4,3c0,1.9-1.3,3-3.4,3H845.7z M847.1,815h2
		c1.4,0,2.2-0.6,2.2-1.8c0-1.2-0.8-1.8-2.2-1.8h-2V815z M854.2,816.2v-8.8h1.4v8.8H854.2z"/>
	<path class="st3" d="M859.9,811.7l-3.1-4.3h1.7l2.3,3.3l2.4-3.3h1.6l-3.1,4.3l3.4,4.5h-1.7l-2.6-3.5l-2.6,3.5h-1.6L859.9,811.7z"/>
	<path class="st3" d="M692.1,829.8c0-2.7,1.7-4.5,4.3-4.5c2.2,0,3.5,1.2,3.9,3.1h-1.5c-0.3-1.2-1.1-1.9-2.4-1.9
		c-1.7,0-2.8,1.3-2.8,3.3c0,1.9,1.1,3.2,2.8,3.2c1.3,0,2.1-0.7,2.4-1.8h1.5c-0.3,1.9-1.8,3.1-3.9,3.1
		C693.7,834.3,692.1,832.6,692.1,829.8z"/>
	<path class="st3" d="M701.3,829.8c0-2.7,1.8-4.5,4.4-4.5s4.4,1.8,4.4,4.5c0,2.7-1.8,4.5-4.4,4.5S701.3,832.5,701.3,829.8z
		 M708.5,829.8c0-1.9-1.2-3.2-2.9-3.2s-2.9,1.4-2.9,3.2s1.2,3.2,2.9,3.2S708.5,831.7,708.5,829.8z"/>
	<path class="st3" d="M711.3,829.8c0-2.7,1.8-4.5,4.4-4.5s4.4,1.8,4.4,4.5c0,2.7-1.8,4.5-4.4,4.5S711.3,832.5,711.3,829.8z
		 M718.5,829.8c0-1.9-1.2-3.2-2.9-3.2s-2.9,1.4-2.9,3.2s1.2,3.2,2.9,3.2S718.5,831.7,718.5,829.8z"/>
	<path class="st3" d="M723.5,834.2v-7.5h-3.2v-1.3h7.7v1.3h-3.2v7.5H723.5z"/>
	<path class="st3" d="M735.6,825.4h1.4v8.8h-1.4v-3.8h-4.9v3.8h-1.4v-8.8h1.4v3.7h4.9V825.4z"/>
	<path class="st3" d="M738.6,829.8c0-2.7,1.8-4.5,4.4-4.5s4.4,1.8,4.4,4.5c0,2.7-1.8,4.5-4.4,4.5S738.6,832.5,738.6,829.8z
		 M745.9,829.8c0-1.9-1.2-3.2-2.9-3.2s-2.9,1.4-2.9,3.2s1.2,3.2,2.9,3.2S745.9,831.7,745.9,829.8z"/>
	<path class="st3" d="M748.9,834.2v-8.8h1.4v7.5h3.8v-7.5h1.4v7.5h3.8v-7.5h1.4v8.8H748.9z"/>
	<path class="st3" d="M762.4,829.8c0-2.7,1.7-4.5,4.2-4.5s4.1,1.6,4.2,4.2c0,0.2,0,0.4,0,0.6h-6.8v0.1c0.1,1.7,1.1,2.8,2.8,2.8
		c1.2,0,2.2-0.7,2.5-1.8h1.4c-0.3,1.8-1.8,3-3.8,3C764.1,834.3,762.4,832.5,762.4,829.8z M769.2,828.9c-0.1-1.5-1.2-2.4-2.6-2.4
		c-1.3,0-2.5,0.9-2.6,2.4H769.2z"/>
	<path class="st3" d="M778.7,825.4h1.4v8.8h-1.4v-3.8h-4.9v3.8h-1.4v-8.8h1.4v3.7h4.9V825.4z"/>
	<path class="st3" d="M782.1,834.2v-8.8h1.4v6.6l5.2-6.6h1.2v8.8h-1.4v-6.7l-5.2,6.7H782.1z"/>
	<path class="st3" d="M798.8,825.4v8.8h-1.4v-3H795l-2.2,3h-1.7l2.4-3.2c-1.4-0.3-2.2-1.3-2.2-2.7c0-1.8,1.3-2.9,3.5-2.9H798.8z
		 M797.4,830v-3.3h-2.4c-1.3,0-2.1,0.6-2.1,1.7c0,1.1,0.8,1.7,2.1,1.7H797.4z"/>
	<path class="st3" d="M803.1,829.7l-3.1-4.3h1.7l2.3,3.3l2.4-3.3h1.6l-3.1,4.3l3.4,4.5h-1.7l-2.6-3.5l-2.6,3.5h-1.6L803.1,829.7z"/>
</g>
<g>
	<path class="st3" d="M927.9,774v-9.8h7.7v9.8H934v-8.4h-4.5v8.4H927.9z"/>
	<path class="st3" d="M937,770.4c0-2.2,1.5-3.7,3.7-3.7c2.2,0,3.7,1.5,3.7,3.7c0,2.2-1.5,3.7-3.7,3.7
		C938.5,774.1,937,772.6,937,770.4z M942.8,770.4c0-1.4-0.8-2.4-2.1-2.4s-2.1,1-2.1,2.4s0.8,2.4,2.1,2.4S942.8,771.8,942.8,770.4z"
		/>
	<path class="st3" d="M945.5,774v-7.2h1.5v2.9h1.3l2.1-2.9h1.7l-2.5,3.4l2.7,3.8h-1.8l-2.2-3H947v3H945.5z"/>
	<path class="st3" d="M959.7,772.7v1.3h-0.8c-1,0-1.3-0.4-1.3-1.1c-0.5,0.7-1.2,1.2-2.4,1.2c-1.6,0-2.7-0.8-2.7-2.1
		c0-1.5,1.1-2.3,3.1-2.3h1.8v-0.4c0-0.8-0.6-1.3-1.6-1.3c-0.9,0-1.5,0.4-1.6,1.1h-1.5c0.2-1.4,1.4-2.3,3.2-2.3c1.9,0,3,0.9,3,2.6
		v2.9c0,0.4,0.2,0.5,0.5,0.5H959.7z M957.4,770.8h-1.9c-0.9,0-1.5,0.3-1.5,1.1c0,0.6,0.5,1,1.3,1c1.3,0,2-0.7,2-1.8V770.8z"/>
	<path class="st3" d="M966.5,771.9c0,1.3-1.2,2.2-3.3,2.2c-2.2,0-3-0.9-3.1-2.4h1.5c0.1,0.8,0.5,1.2,1.6,1.2c1.1,0,1.7-0.4,1.7-1.1
		s-0.5-0.9-1.3-0.9h-1.1v-1.2h1c0.8,0,1.2-0.3,1.2-1c0-0.6-0.5-0.9-1.5-0.9c-1,0-1.5,0.4-1.6,1.1h-1.5c0.1-1.4,1.2-2.3,3.2-2.3
		c1.9,0,3,0.8,3,2c0,0.9-0.5,1.4-1.3,1.5C966,770.5,966.5,771,966.5,771.9z"/>
	<path class="st3" d="M974.6,772.7v1.3h-0.8c-1,0-1.3-0.4-1.3-1.1c-0.5,0.7-1.2,1.2-2.4,1.2c-1.6,0-2.7-0.8-2.7-2.1
		c0-1.5,1.1-2.3,3.1-2.3h1.8v-0.4c0-0.8-0.6-1.3-1.6-1.3c-0.9,0-1.5,0.4-1.6,1.1h-1.5c0.2-1.4,1.4-2.3,3.2-2.3c1.9,0,3,0.9,3,2.6
		v2.9c0,0.4,0.2,0.5,0.5,0.5H974.6z M972.3,770.8h-1.9c-0.9,0-1.5,0.3-1.5,1.1c0,0.6,0.5,1,1.3,1c1.3,0,2-0.7,2-1.8V770.8z"/>
	<path class="st3" d="M976.9,774v-5.8h-2.4v-1.3h6.4v1.3h-2.4v5.8H976.9z"/>
	<path class="st3" d="M981.1,770.4c0-2.2,1.4-3.7,3.5-3.7c2.1,0,3.5,1.3,3.5,3.4c0,0.2,0,0.4,0,0.6h-5.4v0.1c0,1.2,0.8,2,2,2
		c0.9,0,1.6-0.5,1.8-1.3h1.5c-0.3,1.4-1.5,2.5-3.2,2.5C982.5,774.1,981.1,772.6,981.1,770.4z M986.6,769.6c-0.1-1.1-0.9-1.7-1.9-1.7
		c-1,0-1.8,0.6-1.9,1.7H986.6z"/>
	<path class="st3" d="M988.5,774v-1.3h0.3c0.7,0,1-0.5,1-2.4v-3.4h5.7v7.2H994v-5.8h-2.8v2.2c0,2.8-0.7,3.7-2.2,3.7H988.5z"/>
	<path class="st3" d="M996.9,774v-7.2h1.5v2.2h1.8c1.8,0,2.9,0.9,2.9,2.5c0,1.5-1,2.5-2.9,2.5H996.9z M998.5,772.8h1.5
		c1,0,1.6-0.5,1.6-1.3c0-0.8-0.5-1.3-1.6-1.3h-1.5V772.8z"/>
	<path class="st3" d="M1008,774v-9.8h1.4l4.2,6.7v-6.7h1.6v9.8h-1.4l-4.2-6.7v6.7H1008z M1016.1,767.4c0-2,1.3-3.3,3.3-3.3
		c2,0,3.3,1.3,3.3,3.3c0,2-1.3,3.3-3.3,3.3C1017.4,770.7,1016.1,769.4,1016.1,767.4z M1021.2,767.4c0-1.2-0.7-2-1.8-2
		c-1.1,0-1.8,0.8-1.8,2c0,1.2,0.7,2.1,1.8,2.1C1020.5,769.5,1021.2,768.7,1021.2,767.4z"/>
	<path class="st3" d="M1029.4,764.2h1.5v9.8h-1.6v-6.7c-0.1,0.1-0.3,0.1-0.6,0.1h-1.6v-1.3h1.5c0.5,0,0.7-0.4,0.7-0.9V764.2z"/>
</g>
<g>
	<path class="st3" d="M977.3,896.4l10.7-14.2h4.2v14.1h3.4v3.1h-3.4v5.2h-3.5v-5.2h-11.4V896.4z M981,896.4h7.8v-10.3L981,896.4z"/>
	<path class="st3" d="M1013.5,897.1c0,5-3.7,7.7-8.1,7.7c-5.1,0-8.1-3.2-8.3-7.2h3.5c0.3,2.3,1.9,4.3,4.8,4.3c2.3,0,4.5-1.6,4.5-4.7
		c0-2.7-1.8-4.7-4.5-4.7c-1.3,0-3.6,0.4-4.5,2.7l-3.4-0.1l0.7-12.9h14v3.1h-10.7l-0.4,6.1c1.2-1.3,2.9-1.9,5-1.9
		C1010.5,889.5,1013.5,892.6,1013.5,897.1z"/>
	<path class="st3" d="M1021.6,882c3.3,0,5.7,2.3,5.7,5.5c0,3.2-2.4,5.4-5.7,5.4s-5.7-2.3-5.7-5.4
		C1015.9,884.3,1018.3,882,1021.6,882z M1021.6,884.7c-1.6,0-2.8,1.2-2.8,2.8c0,1.6,1.2,2.8,2.8,2.8c1.6,0,2.8-1.2,2.8-2.8
		C1024.4,885.9,1023.3,884.7,1021.6,884.7z M1019.6,904.6l15.3-22.4h3.4l-15.3,22.4H1019.6z M1036.2,893.9c3.3,0,5.7,2.3,5.7,5.5
		c0,3.1-2.4,5.4-5.7,5.4s-5.7-2.3-5.7-5.4C1030.5,896.2,1032.9,893.9,1036.2,893.9z M1036.2,896.5c-1.6,0-2.8,1.2-2.8,2.9
		s1.2,2.8,2.8,2.8s2.8-1.2,2.8-2.8S1037.8,896.5,1036.2,896.5z"/>
</g>
<g>
	<path class="st3" d="M925.6,1032.4l10.7-14.2h4.2v14.1h3.4v3.1h-3.4v5.2H937v-5.2h-11.4V1032.4z M929.2,1032.4h7.8v-10.3
		L929.2,1032.4z"/>
	<path class="st3" d="M961.8,1033.1c0,5-3.7,7.7-8.1,7.7c-5.1,0-8.1-3.2-8.3-7.2h3.5c0.3,2.3,1.9,4.3,4.8,4.3c2.3,0,4.5-1.6,4.5-4.7
		c0-2.7-1.8-4.7-4.5-4.7c-1.3,0-3.6,0.4-4.5,2.7l-3.4-0.1l0.7-12.9h14v3.1h-10.7l-0.4,6.1c1.2-1.3,2.9-1.9,5-1.9
		C958.7,1025.5,961.8,1028.6,961.8,1033.1z"/>
	<path class="st3" d="M965.6,1036.4c1.3,0,2.2,0.9,2.2,2.2c0,1.3-1,2.2-2.2,2.2s-2.2-0.9-2.2-2.2
		C963.4,1037.3,964.3,1036.4,965.6,1036.4z"/>
	<path class="st3" d="M986.5,1034.5c0,3.7-3.1,6.3-8.4,6.3c-5.3,0-8.4-2.6-8.4-6.3c0-3.1,2-5,4.4-5.5c-2-0.5-3.8-2.3-3.8-5
		c0-3.5,3-5.9,7.8-5.9c4.8,0,7.8,2.5,7.8,5.9c0,2.6-1.8,4.5-3.9,5C984.4,1029.5,986.5,1031.3,986.5,1034.5z M982.8,1034.3
		c0-2.2-1.9-3.7-4.8-3.7c-2.8,0-4.8,1.6-4.8,3.7c0,2.2,1.9,3.8,4.8,3.8C980.9,1038.1,982.8,1036.5,982.8,1034.3z M973.9,1024.1
		c0,2,1.7,3.3,4.2,3.3c2.6,0,4.2-1.3,4.2-3.3c0-1.9-1.7-3.3-4.2-3.3C975.5,1020.8,973.9,1022.1,973.9,1024.1z"/>
	<path class="st3" d="M989,1034.5h3.5c0.5,2,2,3.4,4.4,3.4c3.5,0,5.4-3.1,5.4-7.6c0-0.3,0-0.5,0-0.9c-0.1,0.2-0.2,0.4-0.3,0.7
		c-1,1.9-3.1,3.1-5.7,3.1c-4.4,0-7.5-2.9-7.5-7.5c0-4.4,3.3-7.5,8-7.5c3.1,0,5.3,1.3,6.8,3.5c1.2,1.9,2,4.6,2,7.7
		c0,7.2-3.2,11.5-8.8,11.5C992.4,1040.8,989.5,1038.4,989,1034.5z M1001.3,1025.5c0-2.7-1.8-4.6-4.5-4.6c-2.7,0-4.5,1.9-4.5,4.6
		c0,2.7,1.7,4.6,4.4,4.6C999.4,1030.2,1001.3,1028.3,1001.3,1025.5z"/>
	<path class="st3" d="M1008.2,1034.5h3.5c0.5,2,2,3.4,4.4,3.4c3.5,0,5.4-3.1,5.4-7.6c0-0.3,0-0.5,0-0.9c-0.1,0.2-0.2,0.4-0.3,0.7
		c-1,1.9-3.1,3.1-5.7,3.1c-4.4,0-7.5-2.9-7.5-7.5c0-4.4,3.3-7.5,8-7.5c3.1,0,5.3,1.3,6.8,3.5c1.2,1.9,2,4.6,2,7.7
		c0,7.2-3.2,11.5-8.8,11.5C1011.6,1040.8,1008.7,1038.4,1008.2,1034.5z M1020.5,1025.5c0-2.7-1.8-4.6-4.5-4.6s-4.5,1.9-4.5,4.6
		c0,2.7,1.7,4.6,4.4,4.6C1018.6,1030.2,1020.5,1028.3,1020.5,1025.5z"/>
</g>
<g>
	<path class="st3" d="M1145.1,1033.1c0,5-3.7,7.7-8.1,7.7c-5.1,0-8.1-3.2-8.3-7.2h3.5c0.3,2.3,1.9,4.3,4.8,4.3
		c2.3,0,4.5-1.6,4.5-4.7c0-2.7-1.8-4.7-4.5-4.7c-1.3,0-3.6,0.4-4.5,2.7l-3.4-0.1l0.7-12.9h14v3.1H1133l-0.4,6.1
		c1.2-1.3,2.9-1.9,5-1.9C1142,1025.5,1145.1,1028.6,1145.1,1033.1z"/>
	<path class="st3" d="M1146.5,1037.8l8.6-7.3c2-1.7,3.5-3.3,3.5-5.4c0-2.6-1.7-4-4.2-4c-2.6,0-4.3,1.7-4.3,4.5v0.4h-3.5v-0.6
		c0-4.3,3.1-7.3,7.8-7.3c5,0,7.8,2.7,7.8,6.8c0,3.3-2,5.4-4.7,7.7l-5.9,5h10.8v3.1h-15.8V1037.8z"/>
	<path class="st3" d="M1166.8,1036.4c1.3,0,2.2,0.9,2.2,2.2c0,1.3-1,2.2-2.2,2.2c-1.3,0-2.2-0.9-2.2-2.2
		C1164.6,1037.3,1165.5,1036.4,1166.8,1036.4z"/>
	<path class="st3" d="M1186.9,1033.1c0,5-3.7,7.7-8.1,7.7c-5.1,0-8.1-3.2-8.3-7.2h3.5c0.3,2.3,1.9,4.3,4.8,4.3
		c2.3,0,4.5-1.6,4.5-4.7c0-2.7-1.8-4.7-4.5-4.7c-1.3,0-3.6,0.4-4.5,2.7l-3.4-0.1l0.7-12.9h14v3.1h-10.7l-0.4,6.1
		c1.2-1.3,2.9-1.9,5-1.9C1183.9,1025.5,1186.9,1028.6,1186.9,1033.1z"/>
	<path class="st3" d="M1188.3,1037.8l8.6-7.3c2-1.7,3.5-3.3,3.5-5.4c0-2.6-1.7-4-4.3-4c-2.6,0-4.3,1.7-4.3,4.5v0.4h-3.5v-0.6
		c0-4.3,3.1-7.3,7.8-7.3c5,0,7.8,2.7,7.8,6.8c0,3.3-2,5.4-4.7,7.7l-5.9,5h10.8v3.1h-15.8V1037.8z"/>
	<path class="st3" d="M1205.3,1018.2h16v2.4l-10.5,20h-3.8l10.4-19.3h-12.2V1018.2z"/>
</g>
<g>
	<path class="st3" d="M1346.1,1034.3c0,3.8-3.2,6.5-8.3,6.5c-5,0-8.3-2.7-8.3-7.3h3.5c0.1,2.7,2.1,4.3,5,4.3c2.5,0,4.5-1.4,4.5-3.7
		c0-2.1-1.6-3.4-4.7-3.4h-2v-2.9h1.9c2.9,0,4.4-1.5,4.4-3.5s-1.8-3.3-4.2-3.3c-2.5,0-4.3,1.5-4.4,3.9h-3.5c0-4,3.3-6.8,7.9-6.8
		c4.8,0,7.8,2.4,7.8,6c0,2.7-1.6,4.4-3.7,5C1344,1029.4,1346.1,1031,1346.1,1034.3z"/>
	<path class="st3" d="M1364.4,1034.3c0,3.8-3.2,6.5-8.3,6.5c-5,0-8.3-2.7-8.3-7.3h3.5c0.1,2.7,2.1,4.3,5,4.3c2.5,0,4.5-1.4,4.5-3.7
		c0-2.1-1.6-3.4-4.7-3.4h-2v-2.9h1.9c2.9,0,4.4-1.5,4.4-3.5s-1.8-3.3-4.2-3.3c-2.5,0-4.3,1.5-4.4,3.9h-3.5c0-4,3.3-6.8,7.9-6.8
		c4.8,0,7.8,2.4,7.8,6c0,2.7-1.6,4.4-3.7,5C1362.4,1029.4,1364.4,1031,1364.4,1034.3z"/>
	<path class="st3" d="M1368.5,1036.4c1.3,0,2.2,0.9,2.2,2.2c0,1.3-1,2.2-2.2,2.2s-2.2-0.9-2.2-2.2
		C1366.3,1037.3,1367.2,1036.4,1368.5,1036.4z"/>
	<path class="st3" d="M1372.1,1018.2h16v2.4l-10.5,20h-3.8l10.4-19.3h-12.2V1018.2z"/>
	<path class="st3" d="M1393.9,1018.2h3.5v22.4h-3.5v-15.3c-0.3,0.2-0.8,0.3-1.4,0.3h-3.6v-3h3.5c1.2,0,1.6-0.8,1.6-2V1018.2z"/>
	<path class="st3" d="M1400.7,1028.9c0-6.5,3.6-10.9,8.8-10.9s8.8,4.4,8.8,10.9v1c0,6.7-3.6,10.9-8.8,10.9s-8.8-4.1-8.8-10.9V1028.9
		z M1414.8,1029c0-5-2.1-7.9-5.2-7.9c-3.1,0-5.2,2.9-5.2,7.9v0.8c0,5,2.1,7.9,5.2,7.9c3.1,0,5.2-2.9,5.2-7.9V1029z"/>
</g>
<g>
	<path class="st3" d="M1194.7,897c0,5-3.7,7.7-8.1,7.7c-5.1,0-8.1-3.2-8.3-7.2h3.5c0.3,2.3,1.9,4.3,4.8,4.3c2.3,0,4.5-1.6,4.5-4.7
		c0-2.7-1.8-4.7-4.5-4.7c-1.3,0-3.6,0.4-4.5,2.7l-3.4-0.1l0.7-12.9h14v3.1h-10.7l-0.4,6.1c1.2-1.3,2.9-1.9,5-1.9
		C1191.6,889.5,1194.7,892.5,1194.7,897z"/>
	<path class="st3" d="M1196.1,901.7l8.6-7.3c2-1.7,3.5-3.3,3.5-5.4c0-2.6-1.7-4-4.3-4c-2.6,0-4.3,1.7-4.3,4.5v0.4h-3.5v-0.6
		c0-4.3,3.1-7.3,7.8-7.3c5,0,7.8,2.7,7.8,6.8c0,3.3-2,5.4-4.7,7.7l-5.9,5h10.8v3.1h-15.8V901.7z"/>
	<path class="st3" d="M1220.1,882c3.3,0,5.7,2.3,5.7,5.5c0,3.2-2.4,5.4-5.7,5.4s-5.7-2.3-5.7-5.4
		C1214.3,884.3,1216.8,882,1220.1,882z M1220.1,884.6c-1.6,0-2.8,1.2-2.8,2.8c0,1.6,1.2,2.8,2.8,2.8c1.6,0,2.8-1.2,2.8-2.8
		C1222.9,885.8,1221.7,884.6,1220.1,884.6z M1218.1,904.6l15.3-22.4h3.4l-15.3,22.4H1218.1z M1234.7,893.8c3.3,0,5.7,2.3,5.7,5.5
		c0,3.1-2.4,5.4-5.7,5.4s-5.7-2.3-5.7-5.4C1228.9,896.1,1231.4,893.8,1234.7,893.8z M1234.7,896.4c-1.6,0-2.8,1.2-2.8,2.9
		s1.2,2.8,2.8,2.8s2.8-1.2,2.8-2.8S1236.3,896.4,1234.7,896.4z"/>
</g>
<g>
	<path class="st3" d="M1393.1,898.3c0,3.8-3.2,6.5-8.3,6.5c-5,0-8.3-2.7-8.3-7.3h3.5c0.1,2.7,2.1,4.3,5,4.3c2.5,0,4.5-1.4,4.5-3.7
		c0-2.1-1.6-3.4-4.7-3.4h-2v-2.9h1.9c2.9,0,4.4-1.5,4.4-3.5s-1.8-3.3-4.2-3.3c-2.5,0-4.3,1.5-4.4,3.9h-3.5c0-4,3.3-6.8,7.9-6.8
		c4.8,0,7.8,2.4,7.8,6c0,2.7-1.6,4.4-3.7,5C1391.1,893.4,1393.1,895,1393.1,898.3z"/>
	<path class="st3" d="M1411.5,898.3c0,3.8-3.2,6.5-8.3,6.5c-5,0-8.3-2.7-8.3-7.3h3.5c0.1,2.7,2.1,4.3,5,4.3c2.5,0,4.5-1.4,4.5-3.7
		c0-2.1-1.6-3.4-4.7-3.4h-2v-2.9h1.9c2.9,0,4.4-1.5,4.4-3.5s-1.8-3.3-4.2-3.3c-2.5,0-4.3,1.5-4.4,3.9h-3.5c0-4,3.3-6.8,7.9-6.8
		c4.8,0,7.8,2.4,7.8,6c0,2.7-1.6,4.4-3.7,5C1409.4,893.4,1411.5,895,1411.5,898.3z"/>
	<path class="st3" d="M1419.9,882c3.3,0,5.7,2.3,5.7,5.5c0,3.2-2.4,5.4-5.7,5.4s-5.7-2.3-5.7-5.4
		C1414.2,884.3,1416.6,882,1419.9,882z M1419.9,884.7c-1.6,0-2.8,1.2-2.8,2.8c0,1.6,1.2,2.8,2.8,2.8c1.6,0,2.8-1.2,2.8-2.8
		C1422.7,885.9,1421.5,884.7,1419.9,884.7z M1417.9,904.6l15.3-22.4h3.4l-15.3,22.4H1417.9z M1434.5,893.9c3.3,0,5.7,2.3,5.7,5.5
		c0,3.1-2.4,5.4-5.7,5.4s-5.7-2.3-5.7-5.4C1428.8,896.2,1431.2,893.9,1434.5,893.9z M1434.5,896.5c-1.6,0-2.8,1.2-2.8,2.9
		s1.2,2.8,2.8,2.8s2.8-1.2,2.8-2.8S1436.1,896.5,1434.5,896.5z"/>
</g>
<g>
	<path class="st3" d="M1127.6,774v-9.8h7.7v9.8h-1.6v-8.4h-4.5v8.4H1127.6z"/>
	<path class="st3" d="M1136.7,770.4c0-2.2,1.5-3.7,3.7-3.7c2.2,0,3.7,1.5,3.7,3.7c0,2.2-1.5,3.7-3.7,3.7
		C1138.2,774.1,1136.7,772.6,1136.7,770.4z M1142.5,770.4c0-1.4-0.8-2.4-2.1-2.4c-1.3,0-2.1,1-2.1,2.4s0.8,2.4,2.1,2.4
		C1141.6,772.8,1142.5,771.8,1142.5,770.4z"/>
	<path class="st3" d="M1145.2,774v-7.2h1.5v2.9h1.3l2.1-2.9h1.7l-2.5,3.4l2.7,3.8h-1.8l-2.2-3h-1.4v3H1145.2z"/>
	<path class="st3" d="M1159.4,772.7v1.3h-0.8c-1,0-1.3-0.4-1.3-1.1c-0.5,0.7-1.2,1.2-2.4,1.2c-1.6,0-2.7-0.8-2.7-2.1
		c0-1.5,1.1-2.3,3.1-2.3h1.8v-0.4c0-0.8-0.6-1.3-1.6-1.3c-0.9,0-1.5,0.4-1.6,1.1h-1.5c0.2-1.4,1.4-2.3,3.2-2.3c1.9,0,3,0.9,3,2.6
		v2.9c0,0.4,0.2,0.5,0.5,0.5H1159.4z M1157.1,770.8h-1.9c-0.9,0-1.5,0.3-1.5,1.1c0,0.6,0.5,1,1.3,1c1.3,0,2-0.7,2-1.8V770.8z"/>
	<path class="st3" d="M1166.2,771.9c0,1.3-1.2,2.2-3.3,2.2c-2.2,0-3-0.9-3.1-2.4h1.5c0.1,0.8,0.5,1.2,1.6,1.2c1.1,0,1.7-0.4,1.7-1.1
		s-0.5-0.9-1.3-0.9h-1.1v-1.2h1c0.8,0,1.2-0.3,1.2-1c0-0.6-0.5-0.9-1.5-0.9c-1,0-1.5,0.4-1.6,1.1h-1.5c0.1-1.4,1.2-2.3,3.2-2.3
		c1.9,0,3,0.8,3,2c0,0.9-0.5,1.4-1.3,1.5C1165.7,770.5,1166.2,771,1166.2,771.9z"/>
	<path class="st3" d="M1174.3,772.7v1.3h-0.8c-1,0-1.3-0.4-1.3-1.1c-0.5,0.7-1.2,1.2-2.4,1.2c-1.6,0-2.7-0.8-2.7-2.1
		c0-1.5,1.1-2.3,3.1-2.3h1.8v-0.4c0-0.8-0.6-1.3-1.6-1.3c-0.9,0-1.5,0.4-1.6,1.1h-1.5c0.2-1.4,1.4-2.3,3.2-2.3c1.9,0,3,0.9,3,2.6
		v2.9c0,0.4,0.2,0.5,0.5,0.5H1174.3z M1172,770.8h-1.9c-0.9,0-1.5,0.3-1.5,1.1c0,0.6,0.5,1,1.3,1c1.3,0,2-0.7,2-1.8V770.8z"/>
	<path class="st3" d="M1176.6,774v-5.8h-2.4v-1.3h6.4v1.3h-2.4v5.8H1176.6z"/>
	<path class="st3" d="M1180.8,770.4c0-2.2,1.4-3.7,3.5-3.7c2.1,0,3.5,1.3,3.5,3.4c0,0.2,0,0.4,0,0.6h-5.4v0.1c0,1.2,0.8,2,2,2
		c0.9,0,1.6-0.5,1.8-1.3h1.5c-0.3,1.4-1.5,2.5-3.2,2.5C1182.2,774.1,1180.8,772.6,1180.8,770.4z M1186.3,769.6
		c-0.1-1.1-0.9-1.7-1.9-1.7c-1,0-1.8,0.6-1.9,1.7H1186.3z"/>
	<path class="st3" d="M1188.2,774v-1.3h0.3c0.7,0,1-0.5,1-2.4v-3.4h5.7v7.2h-1.5v-5.8h-2.8v2.2c0,2.8-0.7,3.7-2.2,3.7H1188.2z"/>
	<path class="st3" d="M1196.6,774v-7.2h1.5v2.2h1.8c1.8,0,2.9,0.9,2.9,2.5c0,1.5-1.1,2.5-2.9,2.5H1196.6z M1198.2,772.8h1.5
		c1,0,1.6-0.5,1.6-1.3c0-0.8-0.5-1.3-1.6-1.3h-1.5V772.8z"/>
	<path class="st3" d="M1207.7,774v-9.8h1.4l4.2,6.7v-6.7h1.6v9.8h-1.4l-4.2-6.7v6.7H1207.7z M1215.8,767.4c0-2,1.3-3.3,3.3-3.3
		c2,0,3.3,1.3,3.3,3.3c0,2-1.3,3.3-3.3,3.3C1217.1,770.7,1215.8,769.4,1215.8,767.4z M1220.9,767.4c0-1.2-0.7-2-1.8-2
		c-1.1,0-1.8,0.8-1.8,2c0,1.2,0.7,2.1,1.8,2.1C1220.2,769.5,1220.9,768.7,1220.9,767.4z"/>
	<path class="st3" d="M1227.1,772.8l3.8-3.2c0.9-0.7,1.5-1.4,1.5-2.4c0-1.1-0.7-1.7-1.9-1.7c-1.1,0-1.9,0.8-1.9,2v0.2h-1.6v-0.3
		c0-1.9,1.3-3.2,3.4-3.2c2.2,0,3.4,1.2,3.4,3c0,1.5-0.9,2.4-2.1,3.4l-2.6,2.2h4.7v1.4h-6.9V772.8z"/>
</g>
<g>
	<path class="st3" d="M1328.3,774v-9.8h7.7v9.8h-1.6v-8.4h-4.5v8.4H1328.3z"/>
	<path class="st3" d="M1337.4,770.4c0-2.2,1.5-3.7,3.7-3.7c2.2,0,3.7,1.5,3.7,3.7c0,2.2-1.5,3.7-3.7,3.7
		C1338.9,774.1,1337.4,772.6,1337.4,770.4z M1343.2,770.4c0-1.4-0.8-2.4-2.1-2.4c-1.3,0-2.1,1-2.1,2.4s0.8,2.4,2.1,2.4
		C1342.3,772.8,1343.2,771.8,1343.2,770.4z"/>
	<path class="st3" d="M1345.9,774v-7.2h1.5v2.9h1.3l2.1-2.9h1.7l-2.5,3.4l2.7,3.8h-1.8l-2.2-3h-1.4v3H1345.9z"/>
	<path class="st3" d="M1360.1,772.7v1.3h-0.8c-1,0-1.3-0.4-1.3-1.1c-0.5,0.7-1.2,1.2-2.4,1.2c-1.6,0-2.7-0.8-2.7-2.1
		c0-1.5,1.1-2.3,3.1-2.3h1.8v-0.4c0-0.8-0.6-1.3-1.6-1.3c-0.9,0-1.5,0.4-1.6,1.1h-1.5c0.2-1.4,1.4-2.3,3.2-2.3c1.9,0,3,0.9,3,2.6
		v2.9c0,0.4,0.2,0.5,0.5,0.5H1360.1z M1357.8,770.8h-1.9c-0.9,0-1.5,0.3-1.5,1.1c0,0.6,0.5,1,1.3,1c1.3,0,2-0.7,2-1.8V770.8z"/>
	<path class="st3" d="M1366.9,771.9c0,1.3-1.2,2.2-3.3,2.2c-2.2,0-3-0.9-3.1-2.4h1.5c0.1,0.8,0.5,1.2,1.6,1.2c1.1,0,1.7-0.4,1.7-1.1
		s-0.5-0.9-1.3-0.9h-1.1v-1.2h1c0.8,0,1.2-0.3,1.2-1c0-0.6-0.5-0.9-1.5-0.9c-1,0-1.5,0.4-1.6,1.1h-1.5c0.1-1.4,1.2-2.3,3.2-2.3
		c1.9,0,3,0.8,3,2c0,0.9-0.5,1.4-1.3,1.5C1366.4,770.5,1366.9,771,1366.9,771.9z"/>
	<path class="st3" d="M1375,772.7v1.3h-0.8c-1,0-1.3-0.4-1.3-1.1c-0.5,0.7-1.2,1.2-2.4,1.2c-1.6,0-2.7-0.8-2.7-2.1
		c0-1.5,1.1-2.3,3.1-2.3h1.8v-0.4c0-0.8-0.6-1.3-1.6-1.3c-0.9,0-1.5,0.4-1.6,1.1h-1.5c0.2-1.4,1.4-2.3,3.2-2.3c1.9,0,3,0.9,3,2.6
		v2.9c0,0.4,0.2,0.5,0.5,0.5H1375z M1372.7,770.8h-1.9c-0.9,0-1.5,0.3-1.5,1.1c0,0.6,0.5,1,1.3,1c1.3,0,2-0.7,2-1.8V770.8z"/>
	<path class="st3" d="M1377.3,774v-5.8h-2.4v-1.3h6.4v1.3h-2.4v5.8H1377.3z"/>
	<path class="st3" d="M1381.5,770.4c0-2.2,1.4-3.7,3.5-3.7c2.1,0,3.5,1.3,3.5,3.4c0,0.2,0,0.4,0,0.6h-5.4v0.1c0,1.2,0.8,2,2,2
		c0.9,0,1.6-0.5,1.8-1.3h1.5c-0.3,1.4-1.5,2.5-3.2,2.5C1382.9,774.1,1381.5,772.6,1381.5,770.4z M1387,769.6
		c-0.1-1.1-0.9-1.7-1.9-1.7c-1,0-1.8,0.6-1.9,1.7H1387z"/>
	<path class="st3" d="M1388.9,774v-1.3h0.3c0.7,0,1-0.5,1-2.4v-3.4h5.7v7.2h-1.5v-5.8h-2.8v2.2c0,2.8-0.7,3.7-2.2,3.7H1388.9z"/>
	<path class="st3" d="M1397.3,774v-7.2h1.5v2.2h1.8c1.8,0,2.9,0.9,2.9,2.5c0,1.5-1.1,2.5-2.9,2.5H1397.3z M1398.9,772.8h1.5
		c1,0,1.6-0.5,1.6-1.3c0-0.8-0.5-1.3-1.6-1.3h-1.5V772.8z"/>
	<path class="st3" d="M1408.4,774v-9.8h1.4l4.2,6.7v-6.7h1.6v9.8h-1.4l-4.2-6.7v6.7H1408.4z M1416.5,767.4c0-2,1.3-3.3,3.3-3.3
		c2,0,3.3,1.3,3.3,3.3c0,2-1.3,3.3-3.3,3.3C1417.8,770.7,1416.5,769.4,1416.5,767.4z M1421.6,767.4c0-1.2-0.7-2-1.8-2
		c-1.1,0-1.8,0.8-1.8,2c0,1.2,0.7,2.1,1.8,2.1C1420.9,769.5,1421.6,768.7,1421.6,767.4z"/>
	<path class="st3" d="M1435,771.3c0,1.7-1.4,2.8-3.6,2.8s-3.6-1.2-3.6-3.2h1.5c0,1.2,0.9,1.9,2.2,1.9c1.1,0,2-0.6,2-1.6
		c0-0.9-0.7-1.5-2.1-1.5h-0.9v-1.3h0.8c1.3,0,1.9-0.6,1.9-1.5s-0.8-1.4-1.8-1.4c-1.1,0-1.9,0.7-1.9,1.7h-1.5c0-1.8,1.4-3,3.4-3
		c2.1,0,3.4,1.1,3.4,2.6c0,1.2-0.7,1.9-1.6,2.2C1434.1,769.1,1435,769.8,1435,771.3z"/>
</g>
<g>
	<path class="st3" d="M198.7,786.9h2.1v17.7h-2.1v-12.7c-0.3,0.2-0.7,0.3-1.2,0.3h-2.9v-1.9h2.9c0.8,0,1.2-0.6,1.2-1.5V786.9z"/>
	<path class="st3" d="M216.4,799.9c0,2.9-2.5,4.9-6.4,4.9c-4,0-6.4-2-6.4-4.9c0-2.4,1.5-3.9,3.5-4.4c-1.7-0.4-3-1.9-3-4
		c0-2.8,2.3-4.7,5.9-4.7s5.9,1.9,5.9,4.7c0,2-1.3,3.6-3,4C214.9,795.9,216.4,797.4,216.4,799.9z M214.3,799.7c0-1.9-1.7-3.2-4.3-3.2
		s-4.3,1.3-4.3,3.2c0,1.9,1.8,3.2,4.3,3.2C212.5,802.9,214.3,801.6,214.3,799.7z M210,794.4c2.3,0,3.8-1.2,3.8-2.9
		c0-1.7-1.5-2.9-3.8-2.9c-2.3,0-3.8,1.2-3.8,2.9C206.2,793.2,207.7,794.4,210,794.4z"/>
	<path class="st3" d="M223.3,786.8c2.6,0,4.4,1.8,4.4,4.3c0,2.5-1.9,4.2-4.4,4.2c-2.6,0-4.4-1.8-4.4-4.2
		C218.8,788.6,220.7,786.8,223.3,786.8z M223.3,788.4c-1.5,0-2.6,1.1-2.6,2.6c0,1.5,1.1,2.6,2.6,2.6c1.5,0,2.6-1.1,2.6-2.6
		C225.8,789.5,224.7,788.4,223.3,788.4z M221.8,804.6l12.1-17.7h2l-12.1,17.7H221.8z M234.4,796.2c2.6,0,4.4,1.8,4.4,4.3
		c0,2.5-1.9,4.2-4.4,4.2c-2.6,0-4.4-1.8-4.4-4.2C229.9,798,231.8,796.2,234.4,796.2z M234.4,797.9c-1.5,0-2.6,1.1-2.6,2.6
		c0,1.5,1.1,2.6,2.6,2.6c1.5,0,2.6-1.1,2.6-2.6C236.9,799,235.9,797.9,234.4,797.9z"/>
</g>
<g>
	<path class="st6" d="M334.6,967.7c0-5.6,2.5-9.1,6.7-9.1c3.2,0,5.4,1.9,5.8,4.9H345c-0.4-1.8-1.7-3-3.8-3c-3.1,0-4.8,2.8-4.8,6.8
		c0,0.3,0,0.4,0,0.9c0-0.1,0.1-0.3,0.2-0.5c0.8-1.7,2.6-2.9,4.9-2.9c3.5,0,5.9,2.3,5.9,5.9c0,3.4-2.5,5.9-6.1,5.9
		c-2.5,0-4.2-1.1-5.4-2.9C335.1,972.2,334.6,970.1,334.6,967.7z M341.4,966.7c-2.5,0-4.1,1.7-4.1,4.1c0,2.4,1.6,4,4,4
		c2.5,0,4-1.7,4-4.1C345.4,968.4,343.8,966.7,341.4,966.7z"/>
	<path class="st6" d="M362.4,971.8c0,2.9-2.5,4.9-6.4,4.9c-4,0-6.4-2-6.4-4.9c0-2.4,1.5-3.9,3.5-4.4c-1.7-0.4-3-1.9-3-4
		c0-2.8,2.3-4.7,5.9-4.7c3.6,0,5.9,1.9,5.9,4.7c0,2-1.3,3.6-3,4C360.8,967.8,362.4,969.3,362.4,971.8z M360.2,971.6
		c0-1.9-1.7-3.2-4.3-3.2s-4.3,1.3-4.3,3.2c0,1.9,1.8,3.2,4.3,3.2C358.4,974.8,360.2,973.5,360.2,971.6z M355.9,966.3
		c2.3,0,3.8-1.2,3.8-2.9c0-1.7-1.5-2.9-3.8-2.9c-2.3,0-3.8,1.2-3.8,2.9C352.1,965.1,353.6,966.3,355.9,966.3z"/>
	<path class="st6" d="M369.2,958.7c2.6,0,4.4,1.8,4.4,4.3c0,2.5-1.9,4.2-4.4,4.2c-2.6,0-4.4-1.8-4.4-4.2
		C364.7,960.5,366.6,958.7,369.2,958.7z M369.2,960.3c-1.5,0-2.6,1.1-2.6,2.6c0,1.5,1.1,2.6,2.6,2.6c1.5,0,2.6-1.1,2.6-2.6
		C371.8,961.4,370.7,960.3,369.2,960.3z M367.7,976.5l12.1-17.7h2l-12.1,17.7H367.7z M380.3,968.1c2.6,0,4.4,1.8,4.4,4.3
		c0,2.5-1.9,4.2-4.4,4.2c-2.6,0-4.4-1.8-4.4-4.2C375.8,969.9,377.7,968.1,380.3,968.1z M380.3,969.8c-1.5,0-2.6,1.1-2.6,2.6
		c0,1.5,1.1,2.6,2.6,2.6c1.5,0,2.6-1.1,2.6-2.6C382.9,970.9,381.8,969.8,380.3,969.8z"/>
</g>
<g>
	<path class="st3" d="M140.7,874h2.1v17.7h-2.1V879c-0.3,0.2-0.7,0.3-1.2,0.3h-2.9v-1.9h2.9c0.8,0,1.2-0.6,1.2-1.5V874z"/>
	<path class="st3" d="M144.9,885.5l9-11.5h2.4v11.4h2.9v1.9h-2.9v4.3h-2.1v-4.3h-9.3V885.5z M147.2,885.4h6.9v-8.8L147.2,885.4z"/>
	<path class="st3" d="M165.2,873.9c2.6,0,4.4,1.8,4.4,4.3c0,2.5-1.9,4.2-4.4,4.2c-2.6,0-4.4-1.8-4.4-4.2
		C160.7,875.7,162.6,873.9,165.2,873.9z M165.2,875.5c-1.5,0-2.6,1.1-2.6,2.6c0,1.5,1.1,2.6,2.6,2.6c1.5,0,2.6-1.1,2.6-2.6
		C167.8,876.6,166.7,875.5,165.2,875.5z M163.7,891.7l12.1-17.7h2l-12.1,17.7H163.7z M176.3,883.3c2.6,0,4.4,1.8,4.4,4.3
		c0,2.5-1.9,4.2-4.4,4.2c-2.6,0-4.4-1.8-4.4-4.2C171.8,885.1,173.7,883.3,176.3,883.3z M176.3,885c-1.5,0-2.6,1.1-2.6,2.6
		c0,1.5,1.1,2.6,2.6,2.6c1.5,0,2.6-1.1,2.6-2.6C178.9,886.1,177.8,885,176.3,885z"/>
</g>
</svg>
