<?xml version="1.0" encoding="utf-8"?>
<!-- Generator: Adobe Illustrator 22.0.0, SVG Export Plug-In . SVG Version: 6.00 Build 0)  -->
<svg version="1.1" id="Layer_1" xmlns="http://www.w3.org/2000/svg" xmlns:xlink="http://www.w3.org/1999/xlink" x="0px" y="0px"
	 viewBox="0 0 1602 1163.6" style="enable-background:new 0 0 1602 1163.6;" xml:space="preserve">
<style type="text/css">
	.st0{fill:#D1D1D5;}
	.st1{fill:none;stroke:#FFFFFF;stroke-miterlimit:10;}
	.st2{fill:#1B1B2D;}
	.st3{fill:#FFFFFF;}
</style>
<rect class="st0" width="1600" height="1163.6"/>
<line class="st1" x1="1600" y1="139" x2="0" y2="139"/>
<line class="st1" x1="1600" y1="992.6" x2="0" y2="992.6"/>
<line class="st1" x1="1600" y1="863.5" x2="0" y2="863.5"/>
<line class="st1" x1="1600" y1="733.3" x2="0" y2="733.3"/>
<line class="st1" x1="1600" y1="768.1" x2="0" y2="768.1"/>
<line class="st1" x1="1600" y1="897.4" x2="0" y2="897.4"/>
<line class="st1" x1="1600" y1="534.5" x2="0" y2="534.5"/>
<line class="st1" x1="1600" y1="356.3" x2="0" y2="356.3"/>
<line class="st1" x1="1600" y1="319" x2="0" y2="319"/>
<line class="st1" x1="1600" y1="268.7" x2="0" y2="268.7"/>
<line class="st1" x1="89.6" y1="0" x2="89.6" y2="1163.6"/>
<line class="st1" x1="1514.4" y1="0" x2="1514.4" y2="1163.6"/>
<line class="st1" x1="802" y1="0" x2="802" y2="1163.6"/>
<line class="st1" x1="531.3" y1="0" x2="531.3" y2="1163.6"/>
<line class="st1" x1="609.7" y1="0" x2="609.7" y2="1163.6"/>
<g>
	<path class="st2" d="M205.5,203.8c0,38.8-23.9,64.8-61.6,64.8c-29.5,0-49.9-17.3-54.3-43.9h21.7c4.2,15.7,15.7,25.7,33.7,25.7
		c21.5,0,36.1-15.1,38.8-38.3h-49v-17.9h49c-2.9-22.6-16.6-37.2-37.7-37.2c-18.2,0-29.7,10-33.9,25.7H90.5
		c4.4-26.6,25.3-43.9,54.8-43.9C182.9,139,205.5,164.7,205.5,203.8z"/>
	<path class="st2" d="M202.9,267.6V249h3.3c13.1,0,18.9-8.4,18.9-46.1v-62.8h92.2v127.5h-20.9V158.7h-51.2v45.9
		c0,47.5-11.5,63-36.4,63H202.9z"/>
	<path class="st2" d="M328,140.1h99.6v18.6h-39.3v108.9h-20.9V158.7H328V140.1z"/>
	<path class="st2" d="M411.1,267.6l47.7-127.5h25l47.5,127.5h-22.4l-12-31.5h-52.3l-11.8,31.5H411.1z M450.4,218.2H491l-20.4-55.6
		L450.4,218.2z"/>
</g>
<g>
	<path d="M846.9,224.9c0-51.3,28.6-85.9,69.8-85.9c41.2,0,69.8,34.6,69.8,85.9v8.1c0,53.3-28.6,85.9-69.8,85.9
		c-41.2,0-69.8-32.6-69.8-85.9V224.9z M958.1,226c0-39.4-16.7-62.4-41.5-62.4c-24.8,0-41.5,23-41.5,62.4v6.1
		c0,39.7,16.7,62.4,41.5,62.4c24.8,0,41.5-22.7,41.5-62.4V226z"/>
	<path d="M1038.2,140.5h27.6v176.9h-28.1V196.1c-2.5,1.5-6.3,2.3-11.1,2.3h-28.8v-24h27.6c9.1,0,12.9-6.6,12.9-15.9V140.5z"/>
	<path d="M1087.8,295l68-57.9c15.9-13.4,27.8-25.8,27.8-42.7c0-20.2-13.4-31.3-33.6-31.3c-20.2,0-33.9,13.6-33.9,35.6v3H1088v-4.6
		c0-33.6,24.3-58.1,61.9-58.1c39.7,0,61.9,21.7,61.9,54.1c0,26.3-15.9,42.7-37.4,60.7l-47,39.2h85.7v24.5h-125.4V295z"/>
	<path d="M1357.2,267.9c0,30.3-25.5,51.1-65.5,51.1c-39.9,0-65.5-21-65.5-57.4h27.6c0.5,21.7,16.9,34.1,39.4,34.1
		c20,0,35.4-11.4,35.4-29.6c0-16.4-12.9-27-37.4-27H1275v-23.3h14.7c23.3,0,34.9-11.6,34.9-27.8s-14.4-25.8-32.9-25.8
		c-20,0-34.4,12.1-34.9,30.6h-27.3c0.3-31.8,25.8-53.8,62.2-53.8c38.2,0,61.4,19,61.4,47.3c0,21.7-12.6,34.6-29.6,39.2
		C1341,229,1357.2,241.4,1357.2,267.9z"/>
	<path d="M1369.8,252.7l84.9-112.2h32.9v111.7h26.8v24.3h-26.8v40.9h-27.6v-40.9h-90.2V252.7z M1398.6,252.2h61.4v-81.1
		L1398.6,252.2z"/>
</g>
<g>
	<path class="st3" d="M932.3,474.4c0,39.7-29.6,60.7-64.2,60.7c-40.2,0-63.9-25.5-65.7-57.1h27.8c2,18.5,15.4,33.6,38.2,33.6
		c18.2,0,35.6-12.6,35.6-37.2c0-21.5-13.9-36.9-35.6-36.9c-10.6,0-28.6,3.5-35.6,21.7l-27-0.5l5.6-101.9h110.5v24.5h-84.9l-3,48
		c9.9-10.6,23.3-14.9,39.4-14.9C908.3,414.5,932.3,438.7,932.3,474.4z"/>
	<path class="st3" d="M949.2,446.6c0-57.4,26.5-91.2,69.8-91.2c32.6,0,56.4,19,60.7,50h-27.8c-3.8-16.4-15.7-26.8-34.6-26.8
		c-27.3,0-42.5,23.8-42.5,60.4c0,2,0,3.5,0.3,6.8c0.5-1,0.8-2.5,1.8-4.3c8.1-15.4,24.8-25.5,46-25.5c35.1,0,59.7,23.8,59.7,59.7
		c0,34.9-25.8,59.7-63.4,59.7c-24.5,0-43-10.6-54.8-28.6C954.8,491.3,949.2,470.3,949.2,446.6z M1019.3,439
		c-21.5,0-36.4,14.9-36.4,36.9c0,21.5,14.4,36.4,35.9,36.4c21.5,0,35.6-15.2,35.6-36.7C1054.4,454.1,1041,439,1019.3,439z"/>
	<path class="st3" d="M1091,356.8h126.9v18.7L1135,533.8h-30.1l82.4-152.4H1091V356.8z"/>
	<path class="st3" d="M1360.4,485.5c0,29.3-24.8,49.8-66.5,49.8c-41.7,0-66.2-20.5-66.2-49.8c0-24.5,16.2-39.2,35.1-43.5
		c-16.2-4-30.3-18.2-30.3-39.7c0-27.6,23.8-47,61.4-47c37.9,0,61.7,19.5,61.7,47c0,20.7-14.2,35.6-30.6,39.4
		C1344,445.8,1360.4,460.5,1360.4,485.5z M1331.9,484c0-17.2-15.4-29.6-37.9-29.6c-22.2,0-37.7,12.4-37.7,29.6
		c0,17.2,15.4,29.8,37.7,29.8C1316.5,513.8,1331.9,501.2,1331.9,484z M1260.8,403.1c0,15.7,13.1,26.3,33.1,26.3
		c20.2,0,33.4-10.6,33.4-26.3c0-15.4-13.1-26-33.4-26C1274,377,1260.8,387.7,1260.8,403.1z"/>
	<path class="st3" d="M1383.6,485.2h27.6c3.8,16.2,15.7,26.8,34.6,26.8c27.8,0,42.7-24.3,42.7-60.4c0-2,0-3.8-0.3-7.1
		c-0.8,1.5-1.3,3-2.5,5.3c-8.1,14.9-24.3,24.3-45,24.3c-35.1,0-59.7-23-59.7-59.1c0-34.6,25.8-59.7,63.4-59.7
		c24.3,0,42.2,10.4,54.1,27.8c9.9,15.2,15.7,36.7,15.7,60.9c0,56.9-25.5,91.2-69.8,91.2C1410.4,535.3,1387.7,516.3,1383.6,485.2z
		 M1480.7,414.5c0-21.5-14.4-36.1-35.9-36.1c-21.5,0-35.6,15.2-35.6,36.7c0,21.2,13.4,36.4,35.1,36.4
		C1465.8,451.4,1480.7,436.4,1480.7,414.5z"/>
</g>
<text transform="matrix(1 0 0 1 111.3002 -56.1947)" style="font-family:'AeonikPro-Medium'; font-size:134.682px;">01234</text>
<g>
	<path d="M89.6,638.8h61.6v13.7h-46.1v26.1h38V692h-38v27.3h47.7v13.7H89.6V638.8z"/>
	<path d="M165.4,733.1v-94.3h15.5v80.5h40.5v13.7H165.4z"/>
	<path d="M213.1,638.8h73.7v13.7h-29.1v80.5h-15.5v-80.5h-29.1V638.8z"/>
	<path d="M277.6,733.1l35.3-94.3h18.5l35.2,94.3h-16.6l-8.9-23.3h-38.7l-8.8,23.3H277.6z M306.7,696.6h30l-15.1-41.1L306.7,696.6z"
		/>
	<path class="st3" d="M384.7,702.4c0.8,11,9.4,18.5,22.6,18.5c11.2,0,19.3-5,19.3-14c0-10-9.8-12.1-24.8-14.8
		c-15.6-2.7-30.4-7.7-30.4-26.4c0-16.4,13.5-27.6,33.5-27.6c21.6,0,35,11.7,35.7,29.1h-15.5c-1.2-9.6-8.8-16-20.2-16
		c-10.6,0-18,4.6-18,13.5c0,9.7,9.7,11.7,24.5,14.3c15.6,2.8,30.8,7.8,30.7,26.4c0,17-14.1,28.7-34.9,28.7
		c-23.4,0-37.6-12.9-38.1-31.8L384.7,702.4z"/>
	<path class="st3" d="M444.8,733.1l35.3-94.3h18.5l35.2,94.3h-16.6l-8.9-23.3h-38.7l-8.8,23.3H444.8z M473.8,696.6h30l-15.1-41.1
		L473.8,696.6z"/>
	<path class="st3" d="M543.3,733.1v-94.3h14.1l45.9,66.8v-66.8h15.2v94.3h-14.1l-45.9-66.8v66.8H543.3z"/>
	<path class="st3" d="M647.7,702.4c0.8,11,9.4,18.5,22.6,18.5c11.2,0,19.3-5,19.3-14c0-10-9.8-12.1-24.8-14.8
		c-15.6-2.7-30.4-7.7-30.4-26.4c0-16.4,13.5-27.6,33.5-27.6c21.5,0,35,11.7,35.7,29.1h-15.5c-1.2-9.6-8.8-16-20.2-16
		c-10.6,0-18,4.6-18,13.5c0,9.7,9.7,11.7,24.5,14.3c15.6,2.8,30.8,7.8,30.7,26.4c0,17-14.1,28.7-34.9,28.7
		c-23.4,0-37.6-12.9-38.1-31.8L647.7,702.4z"/>
</g>
<g>
	<path d="M802,732.9v-94.3h7.3v87.5h45.1v6.7H802z"/>
	<path d="M863.4,638.6h7.3v94.3h-7.3V638.6z"/>
	<path d="M883.3,685.8c0-28.3,17-48,43.6-48c19.8,0,34.5,10.9,38.4,29.8h-7.8c-3.9-14.8-15-23-30.8-23c-21.8,0-35.8,17.1-35.8,41.2
		c0,24.2,14,41.2,35.2,41.2c20.9,0,33.7-14,33.7-32.5v-4h-31v-6.7h38v49.2h-6.3L960,712c-4,11.3-15.2,21.7-34.1,21.7
		C900.7,733.7,883.3,714.2,883.3,685.8z"/>
	<path d="M982.9,638.6h7.3v42.8h54.5v-42.8h7.3v94.3h-7.3v-44.7h-54.5v44.7h-7.3V638.6z"/>
	<path d="M1061,638.6h71.9v6.7h-32.3v87.5h-7.3v-87.5H1061V638.6z"/>
</g>
<g>
	<path d="M801.8,768.9h36.1c18.9,0,31.4,11.3,31.4,29c0,13.2-7.9,23.4-20.1,26.8l21.1,38.5h-13.2L837.2,827h-23.7v36.2h-11.7V768.9z
		 M813.5,779.7v36.5h23.4c12.4,0,20.3-7.3,20.3-18.3c0-11-7.9-18.2-20.2-18.2H813.5z"/>
	<path d="M880.7,768.9h60.1v10.8h-48.4v30.2h40.3v10.8h-40.3v31.8h50.1v10.8h-61.8V768.9z"/>
	<path d="M945.7,816.1c0-28.6,17.6-47.9,45-47.9c20.9,0,36.6,12.1,39.9,31.5h-12.5c-3.2-13.1-13.3-20.7-27.6-20.7
		c-19.8,0-32.7,15.4-32.7,37.2s12.9,37.2,32.5,37.2c17.4,0,29.9-10.4,29.9-27.1v-3.2h-28.3v-10.8h39.7v51h-10.1l-0.8-13.7
		c-4.3,6.9-14.4,14.5-30.6,14.5C963.9,864,945.7,844.6,945.7,816.1z"/>
	<path d="M1045.9,768.9h11.7v54.7c0,19.5,7.8,29.6,24.1,29.6c16.6,0,24.4-10.1,24.4-29.6v-54.7h11.7v54c0,26.9-12.5,41.1-36.1,41.1
		s-35.8-14.1-35.8-41.1V768.9z"/>
	<path d="M1132.3,863.2v-94.3h11.7v83.5h43v10.8H1132.3z"/>
	<path d="M1188.8,863.2l36-94.3h13.9l35.8,94.3H1262l-10-25.5h-41.1l-10,25.5H1188.8z M1214.4,827.1h34.1l-17.1-45.4L1214.4,827.1z"
		/>
	<path d="M1281.8,768.9h36.1c18.9,0,31.4,11.3,31.4,29c0,13.2-7.9,23.4-20.1,26.8l21.1,38.5h-13.2l-19.9-36.2h-23.7v36.2h-11.7
		V768.9z M1293.5,779.7v36.5h23.4c12.4,0,20.3-7.3,20.3-18.3c0-11-7.9-18.2-20.2-18.2H1293.5z"/>
</g>
<g>
	<path d="M802.2,897.5h20.1l30.2,74.2l29.6-74.2h19.7v94.3h-15v-69.4l-28.3,69.4h-13.1l-28.3-69.4v69.4h-15V897.5z"/>
	<path d="M915.6,897.5h61.6v13.7h-46.1v26.1h38v13.3h-38V978h47.7v13.7h-63.2V897.5z"/>
	<path d="M988.1,991.8v-94.3h32.1c29.5,0,48.1,19,48.1,47c0,28-18.6,47.3-48.1,47.3H988.1z M1003.6,978.3h16.6
		c20.7,0,32.2-13.6,32.2-33.8c0-20.2-11.4-33.5-32.2-33.5h-16.6V978.3z"/>
	<path d="M1078.5,897.5h15.5v94.3h-15.5V897.5z"/>
	<path d="M1107.3,897.5h15.5v54.7c0,17.5,6.7,26.7,21.6,26.7c15.1,0,21.8-9.2,21.8-26.7v-54.7h15.5v53.9c0,26.8-12.8,41.2-37.3,41.2
		c-24.4,0-37-14.4-37-41.2V897.5z"/>
	<path d="M1195,897.5h20.1l30.2,74.2l29.6-74.2h19.7v94.3h-15v-69.4l-28.3,69.4h-13.1l-28.3-69.4v69.4h-15V897.5z"/>
</g>
<g>
	<path class="st2" d="M90.4,802.1l12.7-33.4h4.9l12.7,33.4h-4.4l-3.5-9H98.2l-3.5,9H90.4z M99.5,789.3h12.1l-6.1-16.1L99.5,789.3z"
		/>
	<path class="st2" d="M124.5,802.1v-33.4h20.6v3.8h-16.4v9.8h8.9c6.4,0,10.7,3.2,10.7,9.8c0,6.3-4.3,9.9-10.7,9.9H124.5z
		 M128.7,798.3h8.6c4.2,0,6.8-2.3,6.8-6.1c0-3.7-2.7-6.1-6.9-6.1h-8.5V798.3z"/>
	<path class="st2" d="M153.1,768.7h11.8c7.1,0,11.1,3.4,11.1,8.8c0,3.8-2.1,6.2-5.3,7.3c3.5,0.7,6.6,3,6.6,7.8
		c0,5.9-4.2,9.5-12.1,9.5h-12.2V768.7z M157.2,772.4v10.7h7.9c4.3,0,6.7-2,6.7-5.4c0-3.3-2.4-5.3-6.7-5.3H157.2z M157.2,786.9v11.4
		h8c5.2,0,7.9-2.1,7.9-5.6c0-3.8-2.9-5.8-7.9-5.8H157.2z"/>
	<path class="st2" d="M182.6,802.1v-33.4h19.6v3.8h-15.4v29.6H182.6z"/>
	<path class="st2" d="M230.9,798.3h4.1v10.6h-4.2v-6.8h-25.5v6.8h-4.2v-10.6h3.2c2.2-2,3.5-5.1,3.5-14.9v-14.7h23.1V798.3z
		 M226.7,798.3v-26.1h-15v11.7c0,7.8-0.8,11.7-2.6,14.4H226.7z"/>
	<path class="st2" d="M239.2,768.7h21.3v3.8h-17.1v10.7h14.3v3.8h-14.3v11.3h17.8v3.8h-21.9V768.7z"/>
	<path class="st2" d="M265.8,768.7h21.3v3.8H270v10.7h14.3v3.8H270v11.3h17.8v3.8h-21.9V768.7z M272.3,759.9c1.5,0,2.5,1.1,2.5,2.5
		c0,1.4-1.1,2.4-2.5,2.4c-1.4,0-2.5-1.1-2.5-2.4C269.8,761,270.8,759.9,272.3,759.9z M280.9,759.9c1.4,0,2.5,1.1,2.5,2.5
		c0,1.4-1.1,2.4-2.5,2.4c-1.4,0-2.5-1.1-2.5-2.4C278.4,761,279.6,759.9,280.9,759.9z"/>
	<path class="st2" d="M289.9,802.1l12.2-17.2l-11.4-16.2h4.7l10.3,14.6h5v-14.6h4.2v14.6h5l10.3-14.6h4.7l-11.4,16.2l12.1,17.2h-5
		l-10.6-15h-5.1v15h-4.2v-15h-5.1l-10.6,15H289.9z"/>
	<path class="st2" d="M336.8,792h4.2c0.2,4.4,3.5,6.5,8.4,6.5c5,0,8-2.2,8-6c0-3.9-2.7-5.7-7.9-5.7h-3.3v-3.5h3.1
		c5,0,7.3-2.1,7.3-5.7c0-3.5-2.9-5.4-7.2-5.4c-4.7,0-7.6,2.3-7.9,6.1h-4.2c0.2-5.9,5.1-9.9,12.1-9.9c7.2,0,11.5,3.6,11.5,8.8
		c0,4.4-2.2,6.7-5.4,7.6c3.2,0.8,6.3,2.9,6.3,8c0,5.7-4.9,9.5-12.5,9.5C341.4,802.4,337,798.7,336.8,792z"/>
	<path class="st2" d="M366.8,802.1v-33.4h4.2v26.5l17.9-26.5h3.9v33.4h-4.2v-26.5l-17.9,26.5H366.8z"/>
	<path class="st2" d="M399.2,802.1v-33.4h4.2v26.5l17.9-26.5h3.9v33.4H421v-26.5l-17.9,26.5H399.2z M405.2,759.3h3.2
		c0,2.3,1.1,3.8,3.8,3.8c2.7,0,3.9-1.4,3.9-3.8h3.2c-0.1,4-2.5,6.5-7.2,6.5C407.6,765.8,405.3,763.3,405.2,759.3z"/>
	<path class="st2" d="M431.6,802.1v-33.4h4.2v14.5h6.2l11-14.5h4.8l-12.3,16.2l13,17.2h-5.1L442,787h-6.2v15.1H431.6z"/>
	<path class="st2" d="M460.1,802.1v-3.8h0.8c3.7,0,5.3-2.3,5.3-13.2v-16.4h23.2v33.4h-4.2v-29.6h-15v12.9c0,12.8-2.8,16.7-8.8,16.7
		H460.1z"/>
	<path class="st2" d="M495.9,768.7h5.3l11.8,27.7l11.7-27.7h5.2v33.4h-4.1v-26.4l-11.1,26.4H511l-11.1-26.4v26.4h-4.1V768.7z"/>
	<path class="st2" d="M90.1,816.1h4.2v14.5h17.3v-14.5h4.2v33.4h-4.2v-15.1H94.3v15.1h-4.2V816.1z"/>
	<path class="st2" d="M136.9,849.8c-9.4,0-15.9-7.2-15.9-17s6.5-17,15.9-17c9.4,0,15.9,7.2,15.9,17S146.3,849.8,136.9,849.8z
		 M136.9,846c7,0,11.7-5.5,11.7-13.2s-4.7-13.2-11.7-13.2c-7,0-11.7,5.5-11.7,13.2S129.9,846,136.9,846z"/>
	<path class="st2" d="M158.1,849.6v-33.4h25.4v33.4h-4.2V820h-17v29.6H158.1z"/>
	<path class="st2" d="M189.9,816.1h12.8c6.7,0,11.1,4,11.1,10.3s-4.4,10.3-11.1,10.3h-8.7v12.8h-4.2V816.1z M194.1,820v12.9h8.3
		c4.4,0,7.2-2.5,7.2-6.5s-2.8-6.4-7.2-6.4H194.1z"/>
	<path class="st2" d="M217,832.8c0-10.1,6.3-17,15.9-17c7.4,0,12.8,4.3,14,11.2h-4.4c-1.3-4.6-4.8-7.4-9.8-7.4
		c-7,0-11.5,5.4-11.5,13.2c0,7.7,4.3,13.2,11.3,13.2c5.2,0,8.7-2.7,10-7.4h4.4c-1.2,6.9-6.8,11.2-14.3,11.2
		C223,849.8,217,843.1,217,832.8z"/>
	<path class="st2" d="M248,816.1h25.8v3.8H263v29.6h-4.2V820H248V816.1z"/>
	<path class="st2" d="M279.1,849.6v-3.8h3c2.7,0,3.7-0.4,5-3.2l1.1-2.3l-12.9-24.2h4.8l10.3,19.7l8.8-19.7h4.5l-12.8,27.5
		c-2.1,4.6-4.2,5.9-7.6,5.9H279.1z"/>
	<path class="st2" d="M325.2,847.4v4.1h-4v-4.1c-10.3-0.3-16.9-5.7-16.9-14.6c0-8.8,6.5-14.2,16.9-14.6v-4.1h4v4.1
		c10.3,0.3,16.9,5.7,16.9,14.6C342.1,841.6,335.6,847,325.2,847.4z M321.2,843.7V822c-8.2,0.3-12.7,4.3-12.7,10.9
		C308.5,839.4,313,843.4,321.2,843.7z M325.2,843.7c8.2-0.3,12.7-4.3,12.7-10.9c0-6.5-4.5-10.6-12.7-10.9V843.7z"/>
	<path class="st2" d="M353.8,832.4l-10.6-16.3h4.9l8.4,12.9l8.4-12.9h4.8l-10.6,16l11.3,17.4h-4.9l-9.1-14l-9,14h-4.8L353.8,832.4z"
		/>
	<path class="st2" d="M399.6,845.7h4.1v10.6h-4.2v-6.8h-25.3v-33.4h4.2v29.6h17v-29.6h4.2V845.7z"/>
	<path class="st2" d="M425.9,816.1h4.2v33.4h-4.2v-14.3c-2.3,1.4-5.4,2.2-9,2.2c-6.6,0-11.5-3.3-11.5-10.4v-10.9h4.2v10.1
		c0,5.2,3.1,7.4,7.7,7.4c3.4,0,6.3-0.9,8.5-2.5V816.1z"/>
	<path class="st2" d="M438.5,849.6v-33.4h4.2v29.6h14.1v-29.6h4.2v29.6H475v-29.6h4.2v33.4H438.5z"/>
	<path class="st2" d="M526.3,845.7h4.1v10.6h-4.2v-6.8h-40.6v-33.4h4.2v29.6h14.1v-29.6h4.2v29.6h14.1v-29.6h4.2V845.7z"/>
	<path class="st2" d="M99.6,897v-29.9h-9.8v-3.5h13.9v12.8h8.8c6.6,0,11,4.3,11,10.3c0,6-4.4,10.3-11,10.3H99.6z M103.8,893.2h8.5
		c4.3,0,7.1-2.6,7.1-6.5c0-3.9-2.8-6.5-7.2-6.5h-8.5V893.2z"/>
	<path class="st2" d="M128.3,897v-33.4h4.2v12.8h8.4c6.6,0,11,4.3,11,10.3c0,6-4.4,10.3-11,10.3H128.3z M132.4,893.2h8
		c4.3,0,7.1-2.6,7.1-6.5c0-3.9-2.8-6.5-7.2-6.5h-8V893.2z M156.1,897v-33.4h4.2V897H156.1z"/>
	<path class="st2" d="M166.8,897v-33.4h4.2v12.8h8.8c6.6,0,11,4.3,11,10.3c0,6-4.4,10.3-11,10.3H166.8z M170.9,893.2h8.5
		c4.3,0,7.1-2.6,7.1-6.5c0-3.9-2.8-6.5-7.2-6.5h-8.5V893.2z"/>
	<path class="st2" d="M224,880.3c0,10.1-6.3,17-15.9,17c-7.6,0-12.9-4.3-14.1-11.2h4.4c1.3,4.6,4.7,7.4,9.9,7.4
		c6.5,0,10.8-4.6,11.4-11.4h-13.8v-3.8h13.8c-0.7-6.6-4.7-11.1-11.1-11.1c-5.2,0-8.6,2.7-9.8,7.4h-4.4c1.2-6.9,6.6-11.2,14.1-11.2
		C218.1,863.3,224,870.1,224,880.3z"/>
	<path class="st2" d="M270.8,880.3c0,9.8-6.4,17-15.8,17c-8.7,0-15-6.3-15.7-15.3h-5.9v15h-4.2v-33.4h4.2v14.6h6
		c0.9-8.7,7-14.9,15.7-14.9C264.3,863.3,270.8,870.5,270.8,880.3z M266.5,880.3c0-7.7-4.6-13.2-11.5-13.2s-11.5,5.5-11.5,13.2
		c0,7.7,4.6,13.2,11.5,13.2S266.5,888,266.5,880.3z"/>
	<path class="st2" d="M298.9,863.6V897h-4.2v-12.8h-8l-7.8,12.8h-4.8l8.2-13.4c-5.1-1.1-7.8-4.8-7.8-9.9c0-6,4.5-10.2,11.3-10.2
		H298.9z M294.8,880.4v-12.9h-8.7c-4.4,0-7.3,2.5-7.3,6.4s2.8,6.5,7.3,6.5H294.8z"/>
</g>
<g>
	<path class="st3" d="M90.3,941.6c0-9.3,5-15.8,12.4-15.8c7.3,0,12.3,6.6,12.3,15.8v1.5c0,9.7-5,15.8-12.3,15.8
		c-7.4,0-12.4-6.1-12.4-15.8V941.6z M111,941.8c0-7.7-3.4-12.4-8.4-12.4c-5.1,0-8.4,4.7-8.4,12.4v1.2c0,7.7,3.3,12.4,8.4,12.4
		c5,0,8.4-4.7,8.4-12.4V941.8z"/>
	<path class="st3" d="M124.3,926.1h3.8v32.6h-3.9v-23.4c-0.5,0.4-1.2,0.6-2.2,0.6h-5.3v-3.5h5.3c1.5,0,2.3-1.2,2.3-2.8V926.1z"/>
	<path class="st3" d="M131.9,955.4l12.7-11c3-2.6,5.5-5.1,5.5-8.7c0-4.1-2.8-6.4-7.1-6.4c-4.2,0-7,2.8-7,7.3v0.6h-3.9v-0.8
		c0-6.1,4.3-10.5,10.9-10.5c7,0,11.1,3.9,11.1,9.7c0,4.9-3.2,8-7,11.3l-9.8,8.3h17v3.6h-22.4V955.4z"/>
	<path class="st3" d="M179.9,949.7c0,5.5-4.7,9.3-11.7,9.3s-11.6-3.9-11.6-10.3h3.9c0,4.3,3.4,6.8,8,6.8c4.2,0,7.5-2.4,7.5-6.1
		c0-3.4-2.8-5.6-7.9-5.6h-2.8v-3.4h2.6c4.8,0,7.3-2.4,7.3-5.7c0-3.3-3-5.3-6.9-5.3c-4.1,0-7.1,2.5-7.1,6.2h-3.9
		c0-5.7,4.5-9.7,10.9-9.7c6.7,0,10.9,3.5,10.9,8.6c0,4.1-2.1,6.5-5.3,7.3C176.8,942.3,179.9,944.7,179.9,949.7z"/>
	<path class="st3" d="M181.9,947.2l16.6-21.1h4.4v21h5.3v3.6h-5.3v8H199v-8h-17.1V947.2z M186.3,947.1H199v-16.2L186.3,947.1z"/>
	<path class="st3" d="M233.2,947.8c0,7.2-5.3,11.1-11.4,11.1c-7.3,0-11.4-4.7-11.8-10.4h3.9c0.4,3.8,3.2,6.9,7.9,6.9
		c3.8,0,7.4-2.6,7.4-7.6c0-4.4-2.8-7.5-7.4-7.5c-2,0-6,0.6-7.4,4.4l-3.8-0.1l1.1-18.5h19.5v3.6h-15.9l-0.7,10.3
		c2-2.4,4.8-3.1,7.8-3.1C228.7,936.9,233.2,941.3,233.2,947.8z"/>
	<path class="st3" d="M236.1,942.5c0-10.2,4.6-16.7,12.4-16.7c5.9,0,10,3.5,10.7,9h-3.9c-0.7-3.3-3.1-5.5-7-5.5
		c-5.7,0-8.8,5.2-8.8,12.5c0,0.5,0,0.8,0,1.6c0-0.2,0.1-0.5,0.3-0.9c1.4-3.2,4.7-5.4,9.1-5.4c6.4,0,10.9,4.2,10.9,10.9
		c0,6.3-4.6,10.9-11.3,10.9c-4.5,0-7.8-2-9.9-5.4C237.1,950.7,236.1,946.8,236.1,942.5z M248.7,940.6c-4.5,0-7.6,3.1-7.6,7.5
		c0,4.4,3,7.4,7.4,7.4c4.5,0,7.4-3.1,7.4-7.5C256,943.7,253.2,940.6,248.7,940.6z"/>
	<path class="st3" d="M260.7,926.1h23v2.7l-16,29.8h-4.2l16-29h-18.7V926.1z"/>
	<path class="st3" d="M308.6,949.9c0,5.3-4.5,9-11.9,9s-11.9-3.8-11.9-9c0-4.4,2.8-7.3,6.5-8.1c-3.1-0.7-5.6-3.4-5.6-7.4
		c0-5.1,4.3-8.7,10.9-8.7s10.9,3.5,10.9,8.7c0,3.7-2.4,6.7-5.6,7.4C305.7,942.7,308.6,945.5,308.6,949.9z M304.6,949.7
		c0-3.4-3.2-5.9-7.9-5.9s-7.9,2.5-7.9,5.9c0,3.5,3.3,6,7.9,6C301.4,955.6,304.6,953.1,304.6,949.7z M296.8,939.8
		c4.2,0,6.9-2.1,6.9-5.3c0-3.2-2.7-5.3-6.9-5.3s-6.9,2.1-6.9,5.3C289.8,937.7,292.6,939.8,296.8,939.8z"/>
	<path class="st3" d="M312.4,950h3.9c0.7,3.3,3.1,5.5,7,5.5c5.7,0,8.8-5.2,8.8-12.5c0-0.5,0-0.8,0-1.6c0,0.2-0.1,0.5-0.3,0.9
		c-1.4,3.2-4.7,5.4-9.1,5.4c-6.4,0-10.9-4.2-10.9-10.9c0-6.3,4.6-10.9,11.3-10.9c4.5,0,7.8,2,9.9,5.4c1.6,2.8,2.6,6.7,2.6,11
		c0,10.2-4.6,16.7-12.4,16.7C317.3,959,313.2,955.4,312.4,950z M330.6,936.7c0-4.4-3-7.4-7.4-7.4c-4.5,0-7.4,3.1-7.4,7.5
		c0,4.3,2.8,7.4,7.3,7.4C327.6,944.2,330.6,941.1,330.6,936.7z"/>
	<path class="st3" d="M340.3,958.7v-32.6h3.5l15.4,24.5v-24.5h4v32.6h-3.5l-15.4-24.5v24.5H340.3z M366.3,936.7
		c0-6.5,4.2-10.9,10.5-10.9c6.3,0,10.5,4.4,10.5,10.9c0,6.5-4.2,10.9-10.5,10.9C370.5,947.7,366.3,943.2,366.3,936.7z M383.4,936.7
		c0-4.5-2.6-7.5-6.6-7.5c-4,0-6.6,3-6.6,7.5c0,4.6,2.6,7.5,6.6,7.5C380.8,944.3,383.4,941.3,383.4,936.7z"/>
	<path class="st3" d="M400.4,925.8c4.7,0,8.2,3.3,8.2,7.9c0,4.5-3.5,7.8-8.2,7.8c-4.7,0-8.2-3.3-8.2-7.8
		C392.2,929.1,395.7,925.8,400.4,925.8z M400.4,928.9c-2.7,0-4.7,2-4.7,4.8c0,2.7,2,4.7,4.7,4.7c2.7,0,4.7-2,4.7-4.7
		C405.1,930.9,403.1,928.9,400.4,928.9z M397.7,958.7l22.2-32.6h3.8l-22.2,32.6H397.7z M420.8,943.2c4.7,0,8.2,3.3,8.2,7.9
		c0,4.5-3.5,7.8-8.2,7.8c-4.7,0-8.2-3.3-8.2-7.8C412.6,946.5,416.1,943.2,420.8,943.2z M420.8,946.3c-2.7,0-4.7,2-4.7,4.8
		c0,2.7,2,4.7,4.7,4.7c2.7,0,4.7-2,4.7-4.7C425.6,948.3,423.6,946.3,420.8,946.3z"/>
	<path class="st3" d="M432.6,936.5c0-6,4-10.7,10.6-10.7c6.1,0,10,3.5,10,8.2c0,4.1-2.2,6.3-4.6,8c-2.5,1.7-4.3,3-4.3,5.5v1.2h-3.6
		v-1.6c0-3.7,2.3-5.3,5-7.1c2.1-1.5,3.4-3.1,3.4-5.6c0-2.9-2.4-5.1-6-5.1c-4,0-6.7,2.9-6.7,7.1H432.6z M442.7,953.7
		c1.5,0,2.7,1,2.7,2.6c0,1.6-1.1,2.6-2.7,2.6s-2.7-1-2.7-2.6C440,954.8,441.1,953.7,442.7,953.7z"/>
	<path class="st3" d="M460.3,953.7c1.5,0,2.7,1,2.7,2.6c0,1.6-1.1,2.6-2.7,2.6s-2.7-1-2.7-2.6C457.6,954.8,458.7,953.7,460.3,953.7z
		 M458.8,949l-0.6-22.8h4.1l-0.6,22.8H458.8z"/>
	<path class="st3" d="M483.2,932.2l-5.7,2.1l3.9,4.6l-2,1.9l-3.9-4.9l-3.9,4.9l-2-1.9l3.9-4.6l-5.7-2.1l1.1-2.6l5.4,2.5l-0.1-6h2.7
		l-0.1,6l5.4-2.5L483.2,932.2z"/>
</g>
<g>
	<path class="st2" d="M112.5,1013.2v3.5h-2.1c-3.2,0-4.2-1.3-4.3-3.7c-1.5,2.1-3.9,4-8,4c-5.2,0-8.7-2.6-8.7-6.9
		c0-4.7,3.3-7.4,9.5-7.4h7v-1.6c0-3.1-2.2-4.9-5.9-4.9c-3.4,0-5.6,1.6-6,4h-3.8c0.6-4.7,4.3-7.4,10-7.4c6,0,9.5,3,9.5,8.6v10.4
		c0,1.3,0.5,1.6,1.5,1.6H112.5z M106,1005.9h-7.4c-3.4,0-5.3,1.3-5.3,4c0,2.3,2,3.9,5.2,3.9c4.7,0,7.5-2.7,7.5-6.7V1005.9z"/>
	<path class="st2" d="M137.6,1005.7c0,6.6-4.6,11.4-11.6,11.4c-7.1,0-11.6-4.3-11.6-13.3c0-12.7,3-17.5,13.3-18.8l8-1v3.6l-7.2,0.9
		c-7.4,1-9.6,2.9-10.3,10c1.7-2.3,4.7-3.8,8.7-3.8C133,994.6,137.6,998.9,137.6,1005.7z M133.7,1005.8c0-4.6-3.2-7.9-7.6-7.9
		c-4.7,0-7.8,3.3-7.8,7.4c0,5.3,3.3,8.4,7.7,8.4C130.5,1013.7,133.7,1010.4,133.7,1005.8z"/>
	<path class="st2" d="M141.5,1016.7V993h10.1c5.9,0,8.7,2.3,8.7,6.4c0,3-2,4.6-3.9,5.1c2.7,0.4,4.8,2.1,4.8,5.4
		c0,4.6-3.3,6.9-9.4,6.9H141.5z M145.3,1003.1h6.6c3.2,0,4.5-1.3,4.5-3.4c0-2.3-1.3-3.4-4.5-3.4h-6.6V1003.1z M145.3,1013.5h7
		c3.3,0,5-1.1,5-3.6c0-2.3-1.8-3.6-5-3.6h-7V1013.5z"/>
	<path class="st2" d="M164.9,1016.7V993h15.2v3.5h-11.4v20.2H164.9z"/>
	<path class="st2" d="M201.9,1013.2h3.8v9.8h-3.8v-6.3h-19.4v6.3h-3.8v-9.8h2.4c1.7-1.3,2.7-3,2.7-10.3V993h18.1V1013.2z
		 M198.1,1013.2v-16.7h-10.6v6.8c0,5.4-0.6,8.1-1.8,9.9H198.1z"/>
	<path class="st2" d="M206.9,1004.9c0-7.2,4.6-12.1,11.3-12.1c6.7,0,11.1,4.2,11.3,11.3c0,0.5,0,1.1-0.1,1.6h-18.4v0.3
		c0.1,4.5,3,7.7,7.5,7.7c3.3,0,6-1.8,6.7-4.8h3.9c-0.9,4.7-4.8,8.2-10.3,8.2C211.5,1017,206.9,1012.1,206.9,1004.9z M225.3,1002.4
		c-0.4-4.1-3.2-6.4-7.1-6.4c-3.5,0-6.7,2.5-7.1,6.4H225.3z"/>
	<path class="st2" d="M232.5,1004.9c0-7.2,4.6-12.1,11.3-12.1c6.7,0,11.1,4.2,11.3,11.3c0,0.5,0,1.1-0.1,1.6h-18.4v0.3
		c0.1,4.5,3,7.7,7.5,7.7c3.3,0,6-1.8,6.7-4.8h3.9c-0.9,4.7-4.8,8.2-10.3,8.2C237.1,1017,232.5,1012.1,232.5,1004.9z M250.9,1002.4
		c-0.4-4.1-3.2-6.4-7.1-6.4c-3.5,0-6.7,2.5-7.1,6.4H250.9z M239.7,984.5c1.4,0,2.5,1,2.5,2.4c0,1.3-1,2.4-2.5,2.4
		c-1.4,0-2.4-1-2.4-2.4C237.3,985.6,238.3,984.5,239.7,984.5z M248.1,984.5c1.4,0,2.4,1,2.4,2.4c0,1.3-1,2.4-2.4,2.4
		c-1.3,0-2.5-1-2.5-2.4C245.7,985.6,246.8,984.5,248.1,984.5z"/>
	<path class="st2" d="M255.4,1016.7l9-12.3l-8.3-11.4h4.2l7.2,9.9h3.7V993h3.7v9.9h3.7l7.2-9.9h4.2l-8.3,11.4l9,12.3h-4.4l-7.6-10.3
		h-3.8v10.3h-3.7v-10.3h-3.8l-7.6,10.3H255.4z"/>
	<path class="st2" d="M311.3,1009.9c0,4.4-4,7.1-10.4,7.1c-6.7,0-9.6-2.7-9.9-7.6h4c0.6,2.8,2,4.3,6,4.3s6.5-1.4,6.5-3.9
		c0-2.5-1.8-3.5-4.8-3.5h-4v-3.3h3.8c2.8,0,4.5-1,4.5-3.5c0-2.1-2.1-3.5-5.7-3.5c-3.9,0-5.5,1.6-6,4.2h-4c0.3-4.4,4-7.4,10.1-7.4
		c6,0,9.5,2.7,9.5,6.7c0,2.9-1.7,4.6-4.2,5.1C309.5,1005,311.3,1006.8,311.3,1009.9z"/>
	<path class="st2" d="M315,1016.7V993h3.7v18l14.1-18h3.3v23.7h-3.7v-18l-14.1,18H315z"/>
	<path class="st2" d="M341,1016.7V993h3.7v18l14.1-18h3.3v23.7h-3.7v-18l-14.1,18H341z M344.7,983.9h3.2c0,2.3,1,3.7,3.7,3.7
		s3.8-1.4,3.8-3.7h3.2c-0.1,3.9-2.5,6.4-7,6.4C347,990.3,344.8,987.8,344.7,983.9z"/>
	<path class="st2" d="M367,1016.7V993h3.8v9.9h5.1l7.4-9.9h4.4l-8.7,11.4l9.4,12.3h-4.6l-7.9-10.3h-5.1v10.3H367z"/>
	<path class="st2" d="M388.9,1016.7v-3.5h0.7c2.7,0,3.7-1.6,3.7-8.7V993h18v23.7h-3.8v-20.2h-10.4v8.1c0,9.4-2.2,12.1-6.8,12.1
		H388.9z"/>
	<path class="st2" d="M416,1016.7V993h4.7l9.1,19.1l9-19.1h4.6l0.1,23.7h-3.7v-17.9l-8.5,17.9h-3.1l-8.5-17.9v17.9H416z"/>
	<path class="st2" d="M465.4,993h3.8v23.7h-3.8v-10.3H452v10.3h-3.8V993h3.8v9.9h13.4V993z"/>
	<path class="st2" d="M89.5,1041.9c0-7.2,4.8-12.1,11.8-12.1s11.8,4.9,11.8,12.1c0,7.2-4.8,12.1-11.8,12.1S89.5,1049.1,89.5,1041.9z
		 M109.1,1041.9c0-5.1-3.2-8.7-7.9-8.7c-4.7,0-7.9,3.7-7.9,8.7c0,5.1,3.2,8.7,7.9,8.7C106,1050.6,109.1,1046.9,109.1,1041.9z"/>
	<path class="st2" d="M116.9,1053.7V1030h20.5v23.7h-3.8v-20.2h-12.9v20.2H116.9z"/>
	<path class="st2" d="M165.6,1041.9c0,7.3-4.8,12.1-11.4,12.1c-4,0-6.7-1.6-8.1-3.9v12.9h-3.8v-33h3.3l0.5,3.8
		c1.6-2.2,4.1-4.1,8.1-4.1C160.7,1029.7,165.6,1034.1,165.6,1041.9z M161.7,1041.9c0-5.2-3.2-8.7-7.9-8.7c-4.7,0-7.8,3.6-7.8,8.7
		c0,5.2,3.2,8.8,7.8,8.8C158.5,1050.6,161.7,1047,161.7,1041.9z"/>
	<path class="st2" d="M168.6,1041.9c0-7.3,4.7-12.2,11.6-12.2c5.8,0,9.5,3.3,10.5,8.5h-4c-0.7-3.2-3-5.1-6.5-5.1
		c-4.6,0-7.6,3.6-7.6,8.8s3.1,8.7,7.6,8.7c3.4,0,5.7-2,6.5-5h4c-0.9,5.1-4.8,8.4-10.6,8.4C173.2,1054,168.6,1049.3,168.6,1041.9z"/>
	<path class="st2" d="M200,1053.7v-20.2h-8.6v-3.5h20.9v3.5h-8.6v20.2H200z"/>
	<path class="st2" d="M213.2,1030h4l7.3,18.9l7.1-18.9h4l-10.9,27.7c-1.5,3.8-2.4,5.3-5.7,5.3h-4.6v-3.5h3.4c2.2,0,2.6-0.6,3.4-2.8
		l1.2-2.9L213.2,1030z"/>
	<path class="st2" d="M249.7,1063v-9.1c-8.1-0.2-13.5-4.8-13.5-12c0-7.1,5.4-11.8,13.5-12v-7.9h3.7v7.9c8.1,0.2,13.4,4.8,13.4,12
		c0,7.1-5.4,11.9-13.4,12v9.1H249.7z M249.7,1033.2c-5.8,0.1-9.6,3.3-9.6,8.7c0,5.4,3.8,8.6,9.6,8.7V1033.2z M253.4,1050.6
		c5.9-0.1,9.6-3.3,9.6-8.7c0-5.3-3.7-8.6-9.6-8.7V1050.6z"/>
	<path class="st2" d="M276.3,1041.5l-8.4-11.5h4.6l6.3,8.8l6.4-8.8h4.3l-8.5,11.5l9.1,12.2h-4.6l-6.9-9.5l-6.9,9.5h-4.3
		L276.3,1041.5z"/>
	<path class="st2" d="M312.3,1050.2h4v9.8h-3.8v-6.3h-20.2V1030h3.8v20.2h12.5V1030h3.8V1050.2z"/>
	<path class="st2" d="M332.7,1030h3.8v23.7h-3.8v-9.5c-1.8,1.2-4.3,1.8-6.6,1.8c-5.8,0-9.3-2.5-9.3-8.6v-7.4h3.8v6.7
		c0,4.3,2.1,5.8,6.2,5.8c2.3,0,4.3-0.6,5.9-1.9V1030z"/>
	<path class="st2" d="M341.3,1053.7V1030h3.8v20.2h10.3V1030h3.8v20.2h10.3V1030h3.8v23.7H341.3z"/>
	<path class="st2" d="M410.2,1050.2h4v9.8h-3.8v-6.3h-32.2V1030h3.8v20.2h10.3V1030h3.8v20.2h10.3V1030h3.8V1050.2z"/>
	<path class="st2" d="M106.7,1074.7c5.9,0,9.3,2.9,9.3,8c0,5-3.4,8-9.3,8H96.5v-20.2h-7.2v-3.5h11v7.7H106.7z M106.1,1087.5
		c3.9,0,6-1.7,6-4.7c0-3.1-2.1-4.7-6-4.7h-5.8v9.5H106.1z"/>
	<path class="st2" d="M119.7,1090.7V1067h3.8v7.7h6c5.9,0,9.3,2.9,9.3,8c0,5-3.4,8-9.3,8H119.7z M123.5,1087.5h5.4
		c3.9,0,6-1.7,6-4.7c0-3.1-2.1-4.7-6-4.7h-5.4V1087.5z M142.7,1090.7V1067h3.8v23.7H142.7z"/>
	<path class="st2" d="M151.3,1090.7V1067h3.8v7.7h6.4c5.9,0,9.3,2.9,9.3,8c0,5-3.4,8-9.3,8H151.3z M155.1,1087.5h5.8
		c3.9,0,6-1.7,6-4.7c0-3.1-2.1-4.7-6-4.7h-5.8V1087.5z"/>
	<path class="st2" d="M195.5,1078.8c0,7.4-4.7,12.2-11.6,12.2c-5.8,0-9.5-3.3-10.5-8.5h4c0.7,3.2,3,5.1,6.5,5.1c4.1,0,7-2.8,7.5-7.2
		h-10.2v-3.3h10.2c-0.6-4.2-3.4-7-7.5-7c-3.2,0-5.7,2-6.5,5h-4c0.9-5.1,5-8.4,10.6-8.4C190.9,1066.7,195.5,1071.4,195.5,1078.8z"/>
	<path class="st2" d="M232.1,1078.8c0,7.3-4.7,12.2-11.7,12.2c-6.5,0-11-4.3-11.6-10.7h-5.6v10.4h-3.8V1067h3.8v10.2h5.7
		c0.7-6.3,5.2-10.4,11.5-10.4C227.4,1066.8,232.1,1071.6,232.1,1078.8z M228.2,1078.8c0-5.4-3.1-9-7.8-9c-4.7,0-7.8,3.6-7.8,9
		c0,5.3,3.1,9.1,7.8,9.1C225.1,1087.9,228.2,1084.2,228.2,1078.8z"/>
	<path class="st2" d="M254.6,1067v23.7h-3.8v-8.1h-6.3l-5.8,8.1h-4.5l6.5-8.7c-3.8-0.8-5.9-3.4-5.9-7.3c0-4.9,3.4-7.8,9.4-7.8H254.6
		z M250.8,1079.3v-9h-6.5c-3.6,0-5.6,1.5-5.6,4.5c0,3.1,2,4.6,5.6,4.6H250.8z"/>
</g>
</svg>
