<?xml version="1.0" encoding="utf-8"?>
<!-- Generator: Adobe Illustrator 22.0.0, SVG Export Plug-In . SVG Version: 6.00 Build 0)  -->
<svg version="1.1" id="Layer_1" xmlns="http://www.w3.org/2000/svg" xmlns:xlink="http://www.w3.org/1999/xlink" x="0px" y="0px"
	 viewBox="0 0 1677.8 1400" style="enable-background:new 0 0 1677.8 1400;" xml:space="preserve">
<style type="text/css">
	.st0{opacity:0.6;enable-background:new    ;}
	.st1{fill:#1B1B2D;}
	.st2{fill:none;stroke:#A4A4AB;stroke-miterlimit:10;}
	.st3{fill:none;stroke:#A4A4AB;stroke-miterlimit:10;stroke-dasharray:6.0113,10.0189;}
	.st4{fill:none;stroke:#A4A4AB;stroke-miterlimit:10;stroke-dasharray:5.9643,9.9406;}
</style>
<g class="st0">
	<path class="st1" d="M682.9,1v959.8H1V1H682.9 M683.9,0H0v961.8h683.9V0L683.9,0z"/>
</g>
<g class="st0">
	<path class="st1" d="M1676.8,1v681.9H717V1H1676.8 M1677.8,0H716v683.9h961.8V0L1677.8,0z"/>
</g>
<g class="st0">
	<path class="st1" d="M1399,717.1V1399H717V717.1H1399 M1400,716.1H716V1400h684V716.1L1400,716.1z"/>
</g>
<g>
	<path class="st1" d="M77.9,906.1c0,6.4-2,12.6-5.7,17.8s-8.9,9.2-14.9,11.3v-7.4c4.1-1.9,7.6-5,10-8.9s3.7-8.3,3.7-12.8
		s-1.3-9-3.7-12.8c-2.4-3.9-5.9-6.9-10-8.9V877c6,2.1,11.3,6.1,15,11.3C75.9,893.5,77.9,899.8,77.9,906.1z"/>
	<rect x="22.9" y="902.7" class="st1" width="27.5" height="6.9"/>
	<path class="st1" d="M64.2,906.1c0-2.3-0.4-4.5-1.3-6.6c-0.9-2.1-2.1-4-3.7-5.6c-1.6-1.6-3.5-2.9-5.6-3.7c-2.1-0.9-4.3-1.3-6.6-1.3
		H36.7v6.8h20.6v20.6H36.7v6.9H47c2.3,0,4.5-0.4,6.6-1.3c2.1-0.9,4-2.1,5.6-3.7c1.6-1.6,2.9-3.5,3.7-5.6
		C63.8,910.6,64.2,908.4,64.2,906.1z"/>
</g>
<g>
	<path class="st1" d="M790.7,633.9c0,6.4-2,12.6-5.7,17.8s-8.9,9.2-14.9,11.3v-7.4c4.1-1.9,7.6-5,10-8.9s3.7-8.3,3.7-12.8
		s-1.3-9-3.7-12.8c-2.4-3.9-5.9-6.9-10-8.9v-7.4c6,2.1,11.3,6.1,15,11.3C788.7,621.3,790.7,627.6,790.7,633.9z"/>
	<rect x="735.7" y="630.5" class="st1" width="27.5" height="6.9"/>
	<path class="st1" d="M776.9,633.9c0-2.3-0.4-4.5-1.3-6.6s-2.1-4-3.7-5.6c-1.6-1.6-3.5-2.9-5.6-3.7c-2.1-0.9-4.3-1.3-6.6-1.3h-10.3
		v6.8H770v20.6h-20.6v6.9h10.3c2.3,0,4.5-0.4,6.6-1.3c2.1-0.9,4-2.1,5.6-3.7s2.9-3.5,3.7-5.6C776.5,638.4,776.9,636.2,776.9,633.9z"
		/>
</g>
<g>
	<path class="st1" d="M865.7,1308.9c0,13.4-4.1,26.4-11.8,37.3s-18.6,19.2-31.2,23.6v-15.5c8.6-4.1,15.9-10.5,21-18.6
		s7.8-17.4,7.8-26.9s-2.7-18.8-7.8-26.9s-12.3-14.5-21-18.5v-15.5c12.6,4.5,23.5,12.7,31.3,23.6
		C861.5,1282.5,865.7,1295.6,865.7,1308.9z"/>
	<rect x="750.7" y="1301.7" class="st1" width="57.5" height="14.4"/>
	<path class="st1" d="M836.9,1308.9c0-4.7-0.9-9.4-2.7-13.8s-4.5-8.3-7.8-11.6c-3.3-3.3-7.3-6-11.6-7.8s-9-2.7-13.8-2.7h-21.5v14.3
		h43.1v43.1h-43.1v14.4H801c4.7,0,9.4-0.9,13.8-2.7c4.4-1.8,8.3-4.5,11.6-7.8s6-7.3,7.8-11.6C836,1318.3,836.9,1313.6,836.9,1308.9z
		"/>
</g>
<g>
	<path class="st1" d="M30,41.4c-1.2,0-2.3-0.2-3.3-0.7s-1.8-1.2-2.4-2s-1.1-1.8-1.3-2.8h2.5c0.2,0.6,0.5,1.2,0.9,1.7
		s0.9,0.9,1.6,1.1c0.6,0.3,1.3,0.4,2,0.4c0.9,0,1.7-0.2,2.4-0.6c0.7-0.4,1.3-1,1.8-1.7c0.4-0.7,0.7-1.5,0.8-2.4h-6.9v-2.2H35
		c-0.1-0.9-0.4-1.7-0.8-2.4c-0.4-0.7-1-1.3-1.8-1.7c-0.7-0.4-1.5-0.6-2.4-0.6c-1.1,0-2.1,0.3-2.9,0.9s-1.4,1.3-1.7,2.3h-2.5
		c0.3-1,0.7-1.9,1.4-2.7c0.7-0.8,1.5-1.5,2.4-2c1-0.5,2-0.7,3.2-0.7c1.4,0,2.6,0.3,3.8,1s2.1,1.6,2.7,2.9c0.7,1.2,1,2.6,1,4.2
		c0,1.5-0.3,2.9-1,4.2c-0.7,1.2-1.6,2.2-2.7,2.9C32.6,41,31.3,41.4,30,41.4z"/>
	<path class="st1" d="M37.5,41.3V39h0.7c0.5,0,0.9-0.1,1.2-0.4c0.3-0.3,0.5-0.7,0.5-1.4l1-11.6H51v15.6h-2.4V27.8h-5.5l-0.8,9.6
		c-0.1,1.3-0.5,2.3-1.1,2.9c-0.6,0.6-1.5,0.9-2.7,0.9L37.5,41.3L37.5,41.3z"/>
	<path class="st1" d="M57.3,41.1V27.8h-4.9v-2.3h12.1v2.3h-4.9v13.4L57.3,41.1L57.3,41.1z"/>
	<path class="st1" d="M63,41.1l5.7-15.6h3.5l5.7,15.6h-2.6L70.7,28h-0.4l-4.7,13.1H63z M66.4,37.4v-2.1h8.1v2.1H66.4z"/>
</g>
<g>
	<path class="st1" d="M742.7,41.4c-1.2,0-2.3-0.2-3.3-0.7s-1.8-1.2-2.4-2c-0.6-0.8-1.1-1.8-1.3-2.8h2.5c0.2,0.6,0.5,1.2,0.9,1.7
		s0.9,0.9,1.6,1.1c0.6,0.3,1.3,0.4,2,0.4c0.9,0,1.7-0.2,2.4-0.6c0.7-0.4,1.3-1,1.8-1.7c0.4-0.7,0.7-1.5,0.8-2.4h-6.9v-2.2h6.9
		c-0.1-0.9-0.4-1.7-0.8-2.4c-0.4-0.7-1-1.3-1.8-1.7c-0.7-0.4-1.5-0.6-2.4-0.6c-1.1,0-2.1,0.3-2.9,0.9c-0.8,0.6-1.4,1.3-1.7,2.3h-2.5
		c0.3-1,0.7-1.9,1.4-2.7c0.7-0.8,1.5-1.5,2.4-2c1-0.5,2-0.7,3.2-0.7c1.4,0,2.6,0.3,3.8,1s2.1,1.6,2.7,2.9c0.7,1.2,1,2.6,1,4.2
		c0,1.5-0.3,2.9-1,4.2c-0.7,1.2-1.6,2.2-2.7,2.9C745.3,41,744,41.4,742.7,41.4z"/>
	<path class="st1" d="M750.3,41.3V39h0.7c0.5,0,0.9-0.1,1.2-0.4c0.3-0.3,0.5-0.7,0.5-1.4l1-11.6h10.1v15.6h-2.4V27.8h-5.5l-0.8,9.6
		c-0.1,1.3-0.5,2.3-1.1,2.9c-0.6,0.6-1.5,0.9-2.7,0.9L750.3,41.3L750.3,41.3z"/>
	<path class="st1" d="M770,41.1V27.8h-4.9v-2.3h12.1v2.3h-4.9v13.4L770,41.1L770,41.1z"/>
	<path class="st1" d="M775.7,41.1l5.7-15.6h3.5l5.7,15.6H788L783.4,28H783l-4.7,13.1H775.7z M779.2,37.4v-2.1h8.1v2.1H779.2z"/>
</g>
<g>
	<path class="st1" d="M765.3,791.6c-2.5,0-4.9-0.5-6.9-1.5s-3.7-2.4-5.1-4.2s-2.2-3.7-2.7-5.9h5.1c0.4,1.3,1.1,2.5,2,3.5
		s2,1.8,3.3,2.4c1.3,0.6,2.7,0.9,4.3,0.9c1.8,0,3.5-0.4,5.1-1.3c1.5-0.9,2.8-2,3.7-3.5s1.5-3.2,1.7-5h-14.3v-4.5h14.3
		c-0.2-1.8-0.7-3.5-1.7-4.9c-0.9-1.5-2.2-2.7-3.7-3.5s-3.2-1.3-5.1-1.3c-2.3,0-4.3,0.6-6,1.8s-2.9,2.8-3.5,4.7h-5.1
		c0.6-2.1,1.5-4,2.9-5.7s3-3.1,5.1-4.1c2-1,4.3-1.5,6.7-1.5c2.9,0,5.5,0.7,7.9,2.1c2.4,1.4,4.3,3.4,5.7,6c1.4,2.5,2.1,5.5,2.1,8.7
		s-0.7,6.1-2.1,8.7c-1.4,2.5-3.3,4.5-5.7,6C770.8,790.9,768.2,791.6,765.3,791.6z"/>
	<path class="st1" d="M781.2,791.4v-4.9h1.5c1,0,1.8-0.3,2.5-0.9c0.6-0.6,1-1.6,1.1-2.9l2-24.2h21.2v32.7h-5v-27.9h-11.6l-1.7,20.1
		c-0.2,2.7-1,4.7-2.3,6.1c-1.3,1.3-3.2,2-5.7,2L781.2,791.4L781.2,791.4z"/>
	<path class="st1" d="M822.5,791.1v-27.9h-10.2v-4.8h25.4v4.8h-10.2v27.9H822.5L822.5,791.1z"/>
	<path class="st1" d="M834.4,791.1l12-32.7h7.3l12,32.7h-5.4l-9.8-27.4h-0.9l-9.8,27.4H834.4z M841.6,783.3v-4.5h17v4.5H841.6z"/>
</g>
<g>
	<g>
		<line class="st2" x1="22.9" y1="0" x2="22.9" y2="3"/>
		<line class="st3" x1="22.9" y1="13" x2="22.9" y2="953.8"/>
		<line class="st2" x1="22.9" y1="958.8" x2="22.9" y2="961.8"/>
	</g>
</g>
<g>
	<g>
		<line class="st2" x1="77.9" y1="0" x2="77.9" y2="3"/>
		<line class="st3" x1="77.9" y1="13" x2="77.9" y2="953.8"/>
		<line class="st2" x1="77.9" y1="958.8" x2="77.9" y2="961.8"/>
	</g>
</g>
<g>
	<g>
		<line class="st2" x1="749.4" y1="716.1" x2="749.4" y2="719.1"/>
		<line class="st4" x1="749.4" y1="729" x2="749.4" y2="1392"/>
		<line class="st2" x1="749.4" y1="1397" x2="749.4" y2="1400"/>
	</g>
</g>
<g>
	<g>
		<line class="st2" x1="865.7" y1="716.1" x2="865.7" y2="719.1"/>
		<line class="st4" x1="865.7" y1="729" x2="865.7" y2="1392"/>
		<line class="st2" x1="865.7" y1="1397" x2="865.7" y2="1400"/>
	</g>
</g>
<g>
	<g>
		<g>
			<line class="st2" x1="735.7" y1="0" x2="735.7" y2="3"/>
			<line class="st4" x1="735.7" y1="12.9" x2="735.7" y2="676"/>
			<line class="st2" x1="735.7" y1="680.9" x2="735.7" y2="683.9"/>
		</g>
	</g>
	<g>
		<g>
			<line class="st2" x1="790.7" y1="0" x2="790.7" y2="3"/>
			<line class="st4" x1="790.7" y1="12.9" x2="790.7" y2="676"/>
			<line class="st2" x1="790.7" y1="680.9" x2="790.7" y2="683.9"/>
		</g>
	</g>
</g>
</svg>
