<?xml version="1.0" encoding="utf-8"?>
<!-- Generator: Adobe Illustrator 22.0.0, SVG Export Plug-In . SVG Version: 6.00 Build 0)  -->
<svg version="1.1" id="Бараев_Александр_Анатольевич"
	 xmlns="http://www.w3.org/2000/svg" xmlns:xlink="http://www.w3.org/1999/xlink" x="0px" y="0px" viewBox="0 0 2551.2 1417.3"
	 style="enable-background:new 0 0 2551.2 1417.3;" xml:space="preserve">
<style type="text/css">
	.st0{fill:#F2F2F3;}
	.st1{fill:#1B1B2D;}
</style>
<rect class="st0" width="2551.2" height="1417.3"/>
<g>
	<g>
		<path class="st1" d="M1277.6,1131.8c0-12.9,8-21.7,20.4-21.7c9.5,0,16.3,5.5,17.9,14.3h-5.6c-1.6-5.9-6.2-9.5-12.6-9.5
			c-9,0-14.7,7-14.7,16.8c0,9.8,5.5,16.8,14.5,16.8c6.6,0,11.2-3.5,12.8-9.5h5.6c-1.6,8.8-8.7,14.3-18.3,14.3
			C1285.2,1153.5,1277.6,1144.8,1277.6,1131.8z"/>
		<path class="st1" d="M1350.6,1148.5v4.6h-2.7c-4.1,0-5.6-1.8-5.6-4.8c-2,2.8-5.1,5.2-10.4,5.2c-6.8,0-11.5-3.4-11.5-9.1
			c0-6.2,4.3-9.7,12.5-9.7h9.2v-2.1c0-4-2.9-6.5-7.7-6.5c-4.4,0-7.3,2.1-7.9,5.2h-5c0.7-6.1,5.7-9.7,13.2-9.7
			c7.9,0,12.5,4,12.5,11.2v13.6c0,1.6,0.6,2.1,2,2.1H1350.6z M1342,1138.9h-9.6c-4.5,0-7,1.6-7,5.2c0,3.1,2.6,5.1,6.8,5.1
			c6.2,0,9.8-3.6,9.8-8.8V1138.9z"/>
		<path class="st1" d="M1376.9,1122h5v31.1h-5v-13.5h-17.5v13.5h-5V1122h5v13h17.5V1122z"/>
		<path class="st1" d="M1388.8,1153.1V1122h5v13h6.7l9.7-13h5.8l-11.3,14.9l12.3,16.2h-6l-10.4-13.5h-6.7v13.5H1388.8z"/>
		<path class="st1" d="M1429.1,1153.1v-26.5h-11.2v-4.6h27.5v4.6h-11.2v26.5H1429.1z"/>
		<path class="st1" d="M1447.4,1137.9v-4.2h20.3v4.2H1447.4z"/>
		<path class="st1" d="M1475.1,1153.1v-42.7h32.4v42.7h-5.3v-37.8h-21.8v37.8H1475.1z"/>
		<path class="st1" d="M1513.9,1137.6c0-9.5,6-15.9,14.8-15.9c8.8,0,14.5,5.6,14.8,14.8c0,0.7-0.1,1.4-0.1,2.1h-24.2v0.4
			c0.2,5.9,3.9,10.1,9.8,10.1c4.4,0,7.8-2.3,8.8-6.3h5.1c-1.2,6.2-6.3,10.8-13.5,10.8C1520,1153.5,1513.9,1147.1,1513.9,1137.6z
			 M1538.1,1134.4c-0.5-5.4-4.1-8.4-9.3-8.4c-4.6,0-8.8,3.3-9.3,8.4H1538.1z"/>
		<path class="st1" d="M1555.8,1153.1v-26.5h-11.2v-4.6h27.5v4.6h-11.2v26.5H1555.8z"/>
		<path class="st1" d="M1573.3,1137.6c0-9.5,6-15.9,14.8-15.9c8.8,0,14.5,5.6,14.8,14.8c0,0.7-0.1,1.4-0.1,2.1h-24.2v0.4
			c0.2,5.9,3.9,10.1,9.8,10.1c4.4,0,7.8-2.3,8.8-6.3h5.1c-1.2,6.2-6.3,10.8-13.5,10.8C1579.4,1153.5,1573.3,1147.1,1573.3,1137.6z
			 M1597.4,1134.4c-0.5-5.4-4.1-8.4-9.3-8.4c-4.6,0-8.8,3.3-9.3,8.4H1597.4z"/>
		<path class="st1" d="M1639.2,1137.6c0,9.5-6.3,15.9-14.9,15.9c-5.2,0-8.8-2.1-10.7-5.1v17h-5V1122h4.3l0.7,5
			c2.1-2.9,5.4-5.4,10.7-5.4C1632.8,1121.6,1639.2,1127.4,1639.2,1137.6z M1634,1137.6c0-6.8-4.1-11.5-10.3-11.5
			c-6.1,0-10.2,4.7-10.2,11.3c0,6.8,4.1,11.6,10.2,11.6C1629.9,1149,1634,1144.3,1634,1137.6z"/>
		<path class="st1" d="M1674.5,1138.6c0,8.6-6,14.9-15.2,14.9c-9.3,0-15.2-5.6-15.2-17.4c0-16.7,4-22.9,17.4-24.6l10.6-1.3v4.7
			l-9.5,1.2c-9.8,1.3-12.6,3.8-13.5,13.1c2.2-3,6.1-4.9,11.4-4.9C1668.5,1124.1,1674.5,1129.8,1674.5,1138.6z M1669.4,1138.8
			c0-6-4.1-10.3-10-10.3c-6.1,0-10.3,4.3-10.3,9.7c0,7,4.3,11,10.1,11C1665.2,1149.2,1669.4,1144.8,1669.4,1138.8z"/>
		<path class="st1" d="M1675.9,1122h5.3l9.6,24.8l9.3-24.8h5.3l-14.3,36.4c-2,5-3.1,7-7.5,7h-6v-4.6h4.5c2.9,0,3.4-0.7,4.5-3.7
			l1.5-3.8L1675.9,1122z"/>
		<path class="st1" d="M1739.7,1137.6c0,9.5-6.3,15.9-14.9,15.9c-5.2,0-8.8-2.1-10.7-5.1v17h-5V1122h4.3l0.7,5
			c2.1-2.9,5.4-5.4,10.7-5.4C1733.4,1121.6,1739.7,1127.4,1739.7,1137.6z M1734.6,1137.6c0-6.8-4.1-11.5-10.3-11.5
			c-6.1,0-10.2,4.7-10.2,11.3c0,6.8,4.1,11.6,10.2,11.6C1730.4,1149,1734.6,1144.3,1734.6,1137.6z"/>
		<path class="st1" d="M1745.4,1153.1V1122h19.9v4.6h-14.9v26.5H1745.4z"/>
		<path class="st1" d="M1772.7,1152.9c0,5.2-3.2,8.3-8.6,8.4v-2.9c3.9-0.1,5.1-2.8,5.1-4.9c0-0.3,0-0.5-0.1-0.8
			c-0.5,0.5-1.3,0.7-2.1,0.7c-1.8,0-3.2-1.1-3.2-3.3c0-2,1.5-3.5,4-3.5C1770.9,1146.7,1772.7,1149.6,1772.7,1152.9z"/>
		<path class="st1" d="M1278.4,1217.1V1186h26.9v31.1h-5v-26.5h-16.9v26.5H1278.4z"/>
		<path class="st1" d="M1342.8,1201.6c0,9.5-6.3,15.9-14.9,15.9c-5.2,0-8.8-2.1-10.7-5.1v17h-5V1186h4.3l0.7,5
			c2.1-2.9,5.4-5.4,10.7-5.4C1336.4,1185.6,1342.8,1191.4,1342.8,1201.6z M1337.6,1201.6c0-6.8-4.1-11.5-10.3-11.5
			c-6.1,0-10.2,4.7-10.2,11.3c0,6.8,4.1,11.6,10.2,11.6C1333.5,1213,1337.6,1208.3,1337.6,1201.6z"/>
		<path class="st1" d="M1347.4,1201.6c0-9.5,6.3-15.9,15.4-15.9c9.1,0,15.4,6.5,15.4,15.9c0,9.5-6.3,15.9-15.4,15.9
			C1353.8,1217.5,1347.4,1211,1347.4,1201.6z M1373.2,1201.6c0-6.6-4.1-11.5-10.3-11.5s-10.3,4.8-10.3,11.5
			c0,6.7,4.1,11.5,10.3,11.5S1373.2,1208.2,1373.2,1201.6z"/>
		<path class="st1" d="M1382.9,1201.6c0-9.5,6.2-16,15.2-16c7.6,0,12.4,4.3,13.7,11.1h-5.2c-0.9-4.1-4-6.7-8.5-6.7
			c-6,0-10,4.8-10,11.5s4,11.4,10,11.4c4.5,0,7.5-2.6,8.5-6.5h5.3c-1.2,6.7-6.3,11-13.8,11
			C1388.9,1217.5,1382.9,1211.3,1382.9,1201.6z"/>
		<path class="st1" d="M1417.3,1217.1V1186h26.9v31.1h-5v-26.5h-16.9v26.5H1417.3z"/>
		<path class="st1" d="M1449.9,1201.6c0-9.5,6-15.9,14.8-15.9s14.5,5.6,14.8,14.8c0,0.7-0.1,1.4-0.1,2.1h-24.2v0.4
			c0.2,5.9,3.9,10.1,9.8,10.1c4.4,0,7.8-2.3,8.8-6.3h5.1c-1.2,6.2-6.3,10.8-13.5,10.8C1456,1217.5,1449.9,1211.1,1449.9,1201.6z
			 M1474.1,1198.4c-0.5-5.4-4.1-8.4-9.3-8.4c-4.6,0-8.8,3.3-9.3,8.4H1474.1z"/>
		<path class="st1" d="M1485.2,1217.1V1186h5v13h6.7l9.7-13h5.8L1501,1201l12.3,16.2h-6l-10.4-13.5h-6.7v13.5H1485.2z"/>
		<path class="st1" d="M1525.5,1217.1v-26.5h-11.2v-4.6h27.5v4.6h-11.2v26.5H1525.5z"/>
		<path class="st1" d="M1559,1217.1v-4.9h1c4.7,0,6.8-2.9,6.8-16.8v-21h29.6v42.7h-5.3v-37.8h-19.2v16.5c0,16.4-3.5,21.3-11.3,21.3
			H1559z"/>
		<path class="st1" d="M1600.9,1186h5.3l9.6,24.8l9.3-24.8h5.3l-14.3,36.4c-2,5-3.1,7-7.5,7h-6v-4.6h4.5c2.9,0,3.4-0.7,4.5-3.7
			l1.5-3.8L1600.9,1186z"/>
		<path class="st1" d="M1656.6,1186h5v31.1h-5v-13.5h-17.5v13.5h-5V1186h5v13h17.5V1186z"/>
		<path class="st1" d="M1697.5,1212.5v4.6h-2.7c-4.1,0-5.6-1.8-5.6-4.8c-2,2.8-5.1,5.2-10.4,5.2c-6.8,0-11.5-3.4-11.5-9.1
			c0-6.2,4.3-9.7,12.5-9.7h9.2v-2.1c0-4-2.9-6.5-7.7-6.5c-4.4,0-7.3,2.1-7.9,5.2h-5c0.7-6.1,5.7-9.7,13.2-9.7
			c7.9,0,12.5,4,12.5,11.2v13.6c0,1.6,0.6,2.1,2,2.1H1697.5z M1688.9,1202.9h-9.6c-4.5,0-7,1.6-7,5.2c0,3.1,2.6,5.1,6.8,5.1
			c6.2,0,9.8-3.6,9.8-8.8V1202.9z"/>
		<path class="st1" d="M1720.4,1186h5v31.1h-5v-12.5c-2.4,1.6-5.6,2.4-8.7,2.4c-7.6,0-12.2-3.3-12.2-11.3v-9.7h5v8.8
			c0,5.7,2.7,7.6,8.2,7.6c3,0,5.6-0.7,7.7-2.5V1186z"/>
		<path class="st1" d="M1761.3,1212.5v4.6h-2.7c-4.1,0-5.6-1.8-5.6-4.8c-2,2.8-5.1,5.2-10.4,5.2c-6.8,0-11.5-3.4-11.5-9.1
			c0-6.2,4.3-9.7,12.5-9.7h9.2v-2.1c0-4-2.9-6.5-7.7-6.5c-4.4,0-7.3,2.1-7.9,5.2h-5c0.7-6.1,5.7-9.7,13.2-9.7
			c7.9,0,12.5,4,12.5,11.2v13.6c0,1.6,0.6,2.1,2,2.1H1761.3z M1752.7,1202.9h-9.6c-4.5,0-7,1.6-7,5.2c0,3.1,2.6,5.1,6.8,5.1
			c6.2,0,9.8-3.6,9.8-8.8V1202.9z"/>
		<path class="st1" d="M1795.8,1201.6c0,9.5-6.3,15.9-14.9,15.9c-5.2,0-8.8-2.1-10.7-5.1v17h-5V1186h4.3l0.7,5
			c2.1-2.9,5.4-5.4,10.7-5.4C1789.5,1185.6,1795.8,1191.4,1795.8,1201.6z M1790.7,1201.6c0-6.8-4.1-11.5-10.3-11.5
			c-6.1,0-10.3,4.7-10.3,11.3c0,6.8,4.1,11.6,10.3,11.6C1786.5,1213,1790.7,1208.3,1790.7,1201.6z"/>
		<path class="st1" d="M1800.4,1201.6c0-9.5,6.2-16,15.2-16c7.6,0,12.4,4.3,13.7,11.1h-5.2c-0.9-4.1-4-6.7-8.5-6.7
			c-6,0-10,4.8-10,11.5s4,11.4,10,11.4c4.5,0,7.5-2.6,8.5-6.5h5.3c-1.2,6.7-6.3,11-13.8,11
			C1806.4,1217.5,1800.4,1211.3,1800.4,1201.6z"/>
		<path class="st1" d="M1834.9,1217.1V1186h5v13h6.7l9.7-13h5.8l-11.3,14.9l12.3,16.2h-6l-10.4-13.5h-6.7v13.5H1834.9z"/>
		<path class="st1" d="M1864.1,1201.6c0-9.5,6.3-15.9,15.4-15.9c9.1,0,15.4,6.5,15.4,15.9c0,9.5-6.3,15.9-15.4,15.9
			C1870.4,1217.5,1864.1,1211,1864.1,1201.6z M1889.8,1201.6c0-6.6-4.1-11.5-10.3-11.5s-10.3,4.8-10.3,11.5
			c0,6.7,4.1,11.5,10.3,11.5S1889.8,1208.2,1889.8,1201.6z"/>
		<path class="st1" d="M1900.7,1217.1V1186h19.9v4.6h-14.9v26.5H1900.7z"/>
		<path class="st1" d="M1921.9,1201.6c0-9.5,6.3-15.9,15.4-15.9s15.4,6.5,15.4,15.9c0,9.5-6.3,15.9-15.4,15.9
			S1921.9,1211,1921.9,1201.6z M1947.6,1201.6c0-6.6-4.1-11.5-10.3-11.5s-10.3,4.8-10.3,11.5c0,6.7,4.1,11.5,10.3,11.5
			S1947.6,1208.2,1947.6,1201.6z"/>
		<path class="st1" d="M1963.6,1216.9c0,5.2-3.2,8.3-8.6,8.4v-2.9c3.9-0.1,5.1-2.8,5.1-4.9c0-0.3,0-0.5-0.1-0.8
			c-0.5,0.5-1.3,0.7-2.1,0.7c-1.8,0-3.2-1.1-3.2-3.3c0-2,1.5-3.5,4-3.5C1961.7,1210.7,1963.6,1213.6,1963.6,1216.9z"/>
		<path class="st1" d="M2012.5,1212.5h4.9v12.8h-5v-8.2h-25.4v8.2h-5v-12.8h3.2c2.3-1.7,3.5-3.9,3.5-13.5v-13h23.8V1212.5z
			 M2007.5,1212.5v-22h-13.9v9c0,7.1-0.8,10.6-2.3,13H2007.5z"/>
		<path class="st1" d="M2019.7,1201.6c0-9.5,6.3-15.9,15.4-15.9s15.4,6.5,15.4,15.9c0,9.5-6.3,15.9-15.4,15.9
			S2019.7,1211,2019.7,1201.6z M2045.4,1201.6c0-6.6-4.1-11.5-10.3-11.5c-6.2,0-10.3,4.8-10.3,11.5c0,6.7,4.1,11.5,10.3,11.5
			C2041.3,1213,2045.4,1208.2,2045.4,1201.6z"/>
		<path class="st1" d="M2056.3,1217.1V1186h6.2l12,25l11.8-25h6l0.1,31.1h-4.8v-23.5l-11.2,23.5h-4l-11.2-23.5v23.5H2056.3z"/>
		<path class="st1" d="M2113,1212.8l16.6-14.4c4-3.4,7.3-6.7,7.3-11.3c0-5.4-3.7-8.4-9.3-8.4c-5.5,0-9.2,3.7-9.2,9.5v0.8h-5.1v-1.1
			c0-8.1,5.7-13.8,14.3-13.8c9.2,0,14.6,5.1,14.6,12.8c0,6.4-4.1,10.4-9.2,14.8l-12.8,10.9h22.3v4.7H2113V1212.8z"/>
		<path class="st1" d="M2154.5,1174.4h5v42.7h-5.1v-30.6c-0.6,0.5-1.6,0.8-2.9,0.8h-6.9v-4.6h7c2,0,3-1.5,3-3.7V1174.4z"/>
		<path class="st1" d="M2174.2,1216.9c0,5.2-3.2,8.3-8.6,8.4v-2.9c3.9-0.1,5.1-2.8,5.1-4.9c0-0.3,0-0.5-0.1-0.8
			c-0.5,0.5-1.3,0.7-2.1,0.7c-1.8,0-3.2-1.1-3.2-3.3c0-2,1.5-3.5,4-3.5C2172.4,1210.7,2174.2,1213.6,2174.2,1216.9z"/>
		<path class="st1" d="M2195.7,1217.1V1186h5v13h6.7l9.7-13h5.8l-11.3,14.9l12.3,16.2h-6l-10.4-13.5h-6.7v13.5H2195.7z"/>
		<path class="st1" d="M2224.9,1201.6c0-9.5,6.3-15.9,15.4-15.9s15.4,6.5,15.4,15.9c0,9.5-6.3,15.9-15.4,15.9
			S2224.9,1211,2224.9,1201.6z M2250.6,1201.6c0-6.6-4.1-11.5-10.3-11.5s-10.3,4.8-10.3,11.5c0,6.7,4.1,11.5,10.3,11.5
			S2250.6,1208.2,2250.6,1201.6z"/>
		<path class="st1" d="M2292.1,1201.6c0,9.5-6.3,15.9-14.9,15.9c-5.2,0-8.8-2.1-10.7-5.1v17h-5V1186h4.3l0.7,5
			c2.1-2.9,5.4-5.4,10.7-5.4C2285.8,1185.6,2292.1,1191.4,2292.1,1201.6z M2287,1201.6c0-6.8-4.1-11.5-10.3-11.5
			c-6.1,0-10.3,4.7-10.3,11.3c0,6.8,4.1,11.6,10.3,11.6C2282.8,1213,2287,1208.3,2287,1201.6z"/>
		<path class="st1" d="M2297.8,1217.1V1186h26.9v31.1h-5v-26.5h-16.9v26.5H2297.8z"/>
		<path class="st1" d="M2328.5,1186h5.3l9.6,24.8l9.3-24.8h5.3l-14.3,36.4c-2,5-3.1,7-7.5,7h-6v-4.6h4.5c2.9,0,3.4-0.7,4.5-3.7
			l1.5-3.8L2328.5,1186z"/>
		<path class="st1" d="M2359.3,1201.6c0-9.5,6.2-16,15.2-16c7.6,0,12.4,4.3,13.7,11.1h-5.2c-0.9-4.1-4-6.7-8.5-6.7
			c-6,0-10,4.8-10,11.5s4,11.4,10,11.4c4.5,0,7.5-2.6,8.5-6.5h5.3c-1.2,6.7-6.3,11-13.8,11
			C2365.3,1217.5,2359.3,1211.3,2359.3,1201.6z"/>
		<path class="st1" d="M2416.5,1174.4h5v42.7h-5.1v-30.6c-0.6,0.5-1.6,0.8-2.9,0.8h-6.9v-4.6h7c2,0,3-1.5,3-3.7V1174.4z"/>
		<path class="st1" d="M1275.5,1314h5.2l7.7,25.3l8.2-25.3h4.6l7.7,25.3l8.1-25.3h5.1l-10.4,31.1h-5.5l-7.5-23.1l-7.8,23.1h-5.5
			L1275.5,1314z"/>
		<path class="st1" d="M1323.3,1314h5.2l7.7,25.3l8.2-25.3h4.6l7.7,25.3l8.1-25.3h5.1l-10.4,31.1h-5.5l-7.5-23.1l-7.8,23.1h-5.5
			L1323.3,1314z"/>
		<path class="st1" d="M1371,1314h5.2l7.7,25.3l8.2-25.3h4.6l7.7,25.3l8.1-25.3h5.1l-10.4,31.1h-5.5l-7.5-23.1l-7.8,23.1h-5.5
			L1371,1314z"/>
		<path class="st1" d="M1422.1,1338.7c2,0,3.5,1.3,3.5,3.4s-1.5,3.4-3.5,3.4c-2,0-3.5-1.3-3.5-3.4S1420.1,1338.7,1422.1,1338.7z"/>
		<path class="st1" d="M1428.7,1329.6c0-9.5,6-15.9,14.8-15.9c8.8,0,14.5,5.6,14.8,14.8c0,0.7-0.1,1.4-0.1,2.1H1434v0.4
			c0.2,5.9,3.9,10.1,9.8,10.1c4.4,0,7.8-2.3,8.8-6.3h5.1c-1.2,6.2-6.3,10.8-13.5,10.8C1434.8,1345.5,1428.7,1339.1,1428.7,1329.6z
			 M1452.9,1326.4c-0.5-5.4-4.1-8.4-9.3-8.4c-4.6,0-8.8,3.3-9.3,8.4H1452.9z"/>
		<path class="st1" d="M1464,1302.4h5v42.7h-5V1302.4z"/>
		<path class="st1" d="M1478.1,1318.6h-5.6v-4.6h5.6v-8.7h5v8.7h8.1v4.6h-8.1v18.4c0,2.6,0.9,3.6,3.6,3.6h4.9v4.6h-5.4
			c-6,0-8.1-2.6-8.1-8.1V1318.6z"/>
		<path class="st1" d="M1524.6,1340.5v4.6h-2.7c-4.1,0-5.6-1.8-5.6-4.8c-2,2.8-5.1,5.2-10.4,5.2c-6.8,0-11.5-3.4-11.5-9.1
			c0-6.2,4.3-9.7,12.5-9.7h9.2v-2.1c0-4-2.9-6.5-7.7-6.5c-4.4,0-7.3,2.1-7.9,5.2h-5c0.7-6.1,5.7-9.7,13.2-9.7
			c7.9,0,12.5,4,12.5,11.2v13.6c0,1.6,0.6,2.1,2,2.1H1524.6z M1516,1330.9h-9.6c-4.5,0-7,1.6-7,5.2c0,3.1,2.6,5.1,6.8,5.1
			c6.2,0,9.8-3.6,9.8-8.8V1330.9z"/>
		<path class="st1" d="M1532.3,1334.9c0.2,3.7,3.4,6.3,8.6,6.3c4.4,0,7.5-1.9,7.5-4.8c0-3.9-3.4-4.2-8.1-4.8
			c-7-0.9-12.5-2.3-12.5-8.7c0-5.7,5.2-9.4,12.2-9.3c7.1,0.1,12.2,3.4,12.7,9.8h-5.1c-0.4-3.2-3.3-5.6-7.6-5.6
			c-4.3,0-7.3,1.8-7.3,4.7c0,3.4,3.3,3.8,7.8,4.4c7.1,0.9,12.8,2.2,12.8,9.1c0,5.8-5.6,9.4-12.4,9.4c-8.1,0-13.6-3.8-13.7-10.6
			H1532.3z"/>
		<path class="st1" d="M1589.5,1329.6c0,9.5-6.3,15.9-14.9,15.9c-5.2,0-8.8-2.1-10.7-5.1v17h-5V1314h4.3l0.7,5
			c2.1-2.9,5.4-5.4,10.7-5.4C1583.2,1313.6,1589.5,1319.4,1589.5,1329.6z M1584.4,1329.6c0-6.8-4.1-11.5-10.3-11.5
			c-6.1,0-10.2,4.7-10.2,11.3c0,6.8,4.1,11.6,10.2,11.6C1580.2,1341,1584.4,1336.3,1584.4,1329.6z"/>
		<path class="st1" d="M1625.9,1329.6c0,9.5-6.3,15.9-14.9,15.9c-5.2,0-8.8-2.1-10.7-5.1l-0.7,4.8h-4.3v-42.7h5v16.6
			c2.1-2.9,5.4-5.4,10.7-5.4C1619.5,1313.6,1625.9,1319.4,1625.9,1329.6z M1620.7,1329.6c0-6.8-4.1-11.5-10.3-11.5
			c-6.1,0-10.2,4.7-10.2,11.3c0,6.8,4.1,11.6,10.2,11.6C1616.6,1341,1620.7,1336.3,1620.7,1329.6z"/>
		<path class="st1" d="M1632.5,1338.7c2,0,3.5,1.3,3.5,3.4s-1.5,3.4-3.5,3.4s-3.5-1.3-3.5-3.4S1630.4,1338.7,1632.5,1338.7z"/>
		<path class="st1" d="M1658,1314v4.9h-2.5c-6.5,0-8.3,5.4-8.3,10.4v15.9h-5V1314h4.3l0.7,4.7c1.5-2.4,3.8-4.7,9.4-4.7H1658z"/>
		<path class="st1" d="M1684.1,1314h5v31.1h-4.3l-0.7-4.1c-1.8,2.3-4.8,4.5-9.9,4.5c-6.8,0-12.3-3.8-12.3-14.2V1314h5v17
			c0,6.5,2.9,9.9,8.1,9.9c5.7,0,9.1-4.3,9.1-11.3V1314z"/>
	</g>
</g>
<g>
	<path class="st1" d="M283.1,1222c0,27-8.4,53.2-23.9,75.3c-15.6,22-37.6,38.7-63,47.7v-31.3c17.4-8.2,32.1-21.2,42.3-37.4
		c10.3-16.2,15.7-35.1,15.7-54.3c0-19.2-5.5-38-15.8-54.2c-10.3-16.2-25-29.2-42.4-37.4V1099c25.5,9,47.5,25.6,63.1,47.7
		C274.7,1168.7,283.1,1195,283.1,1222z"/>
	<rect x="51" y="1207.5" class="st1" width="116.1" height="29"/>
	<path class="st1" d="M225.1,1222c0-9.5-1.9-18.9-5.5-27.7c-3.6-8.8-9-16.8-15.7-23.5c-6.7-6.7-14.7-12.1-23.5-15.7
		c-8.8-3.6-18.2-5.5-27.8-5.5h-43.5v29h87v86.9h-87v29h43.5c9.5,0,19-1.9,27.8-5.5c8.8-3.6,16.8-9,23.5-15.7
		c6.7-6.7,12.1-14.7,15.7-23.5C223.2,1240.9,225.1,1231.5,225.1,1222z"/>
</g>
<g>
	<g>
		<path class="st1" d="M58.9,648.3v-42.7h7v17.9H73L86,605.6H94l-15.1,20.6l16,22.1h-8.5l-13.4-18.5h-7.2v18.5H58.9z"/>
		<path class="st1" d="M116,648.7c-12.3,0-20.7-9.2-20.7-21.7s8.5-21.7,20.7-21.7c12.3,0,20.7,9.2,20.7,21.7S128.3,648.7,116,648.7z
			 M116,642.5c8.1,0,13.5-6.5,13.5-15.6s-5.4-15.6-13.5-15.6c-8.1,0-13.5,6.5-13.5,15.6S107.9,642.5,116,642.5z"/>
		<path class="st1" d="M142.9,605.6h9.1l13.7,33.6l13.4-33.6h8.9v42.7h-6.8v-31.4l-12.8,31.4h-5.9l-12.8-31.4v31.4h-6.8V605.6z"/>
		<path class="st1" d="M195.8,648.3v-42.7h33.6v42.7h-7v-36.5h-19.6v36.5H195.8z"/>
		<path class="st1" d="M233.8,648.3v-6.2h1.1c4.4,0,6.3-2.8,6.3-15.4v-21h30.9v42.7h-7v-36.5H248v15.4c0,15.9-3.8,21.1-12.2,21.1
			H233.8z"/>
		<path class="st1" d="M279.9,605.6h27.9v6.2h-20.9v11.8h17.2v6h-17.2v12.4h21.6v6.2h-28.6V605.6z"/>
		<path class="st1" d="M314.3,648.3v-42.7h7v17.9h7.1l12.9-17.9h8.1l-15.1,20.6l16,22.1h-8.5l-13.4-18.5h-7.2v18.5H314.3z"/>
		<path class="st1" d="M350.7,626.9c0-13,8-21.7,20.6-21.7c9.8,0,16.8,5.9,18.2,14.9h-7.3c-1.4-5.4-5.4-8.7-11.2-8.7
			c-8.1,0-13.1,6.4-13.1,15.6c0,9.1,4.9,15.6,12.9,15.6c5.9,0,10-3.3,11.3-8.7h7.3c-1.3,9-8.6,14.9-18.5,14.9
			C358.4,648.7,350.7,640,350.7,626.9z"/>
		<path class="st1" d="M395.2,605.6h7v17.9h19.8v-17.9h7v42.7h-7v-18.5h-19.8v18.5h-7V605.6z"/>
		<path class="st1" d="M456,648.7c-12.3,0-20.7-9.2-20.7-21.7s8.5-21.7,20.7-21.7c12.3,0,20.7,9.2,20.7,21.7S468.2,648.7,456,648.7z
			 M456,642.5c8.1,0,13.5-6.5,13.5-15.6s-5.4-15.6-13.5-15.6c-8.1,0-13.5,6.5-13.5,15.6S447.9,642.5,456,642.5z"/>
		<path class="st1" d="M482.9,605.6h27.9v6.2h-20.9v11.8h17.2v6h-17.2v12.4h21.6v6.2h-28.6V605.6z"/>
		<path class="st1" d="M532.8,648.3v-42.7h33.6v42.7h-7v-36.5h-19.6v36.5H532.8z"/>
		<path class="st1" d="M574.3,605.6h16.8c8.9,0,14.8,5.3,14.8,13.6c0,8.2-5.9,13.6-14.8,13.6h-9.8v15.5h-7V605.6z M581.3,611.7v15
			h9.2c5,0,8.2-2.9,8.2-7.5c0-4.6-3.2-7.5-8.2-7.5H581.3z"/>
		<path class="st1" d="M630.3,648.7c-12.3,0-20.7-9.2-20.7-21.7s8.5-21.7,20.7-21.7c12.3,0,20.7,9.2,20.7,21.7
			S642.6,648.7,630.3,648.7z M630.3,642.5c8.1,0,13.5-6.5,13.5-15.6s-5.4-15.6-13.5-15.6c-8.1,0-13.5,6.5-13.5,15.6
			S622.2,642.5,630.3,642.5z"/>
		<path class="st1" d="M657.2,605.6h27.9v6.2h-20.9v11.8h17.2v6h-17.2v12.4h21.6v6.2h-28.6V605.6z"/>
		<path class="st1" d="M691.6,648.3v-42.7h7v17.9h7.1l12.9-17.9h8.1l-15.1,20.6l16,22.1h-8.5l-13.4-18.5h-7.2v18.5H691.6z"/>
		<path class="st1" d="M728.5,605.6h33.4v6.2h-13.2v36.5h-7v-36.5h-13.2V605.6z"/>
		<path class="st1" d="M767,648.3v-42.7h7v31.2l20.9-31.2h6.5v42.7h-7v-31.2l-20.9,31.2H767z"/>
		<path class="st1" d="M809.2,605.6H826c8.9,0,14.8,5.3,14.8,13.6c0,8.2-5.9,13.6-14.8,13.6h-9.8v15.5h-7V605.6z M816.2,611.7v15
			h9.2c5,0,8.2-2.9,8.2-7.5c0-4.6-3.2-7.5-8.2-7.5H816.2z"/>
		<path class="st1" d="M865.2,648.7c-12.3,0-20.7-9.2-20.7-21.7s8.5-21.7,20.7-21.7c12.3,0,20.7,9.2,20.7,21.7
			S877.5,648.7,865.2,648.7z M865.2,642.5c8.1,0,13.5-6.5,13.5-15.6s-5.4-15.6-13.5-15.6c-8.1,0-13.5,6.5-13.5,15.6
			S857.1,642.5,865.2,642.5z"/>
		<path class="st1" d="M892.1,605.6h15.7c9.4,0,14.8,4.3,14.8,11.3c0,5.1-2.9,8.1-7.3,9.3c5.1,0.8,9,3.8,9,9.9
			c0,7.6-5.6,12.2-15.9,12.2h-16.2V605.6z M899.1,611.4v12.3h8.8c4.8,0,7.6-2.3,7.6-6.2c0-3.8-2.7-6.1-7.6-6.1H899.1z M899.1,629.5
			v12.9h9.3c5.6,0,8.6-2.4,8.6-6.3c0-4.2-3.2-6.5-8.6-6.5H899.1z"/>
		<path class="st1" d="M925.6,648.3l16-42.7h8.4l15.9,42.7h-7.5l-4-10.6h-17.5l-4,10.6H925.6z M938.7,631.8h13.6l-6.8-18.6
			L938.7,631.8z"/>
		<path class="st1" d="M970.2,605.6h7v17.9H997v-17.9h7v42.7h-7v-18.5h-19.8v18.5h-7V605.6z"/>
		<path class="st1" d="M1011.9,648.3v-42.7h7v31.2l20.9-31.2h6.5v42.7h-7v-31.2l-20.9,31.2H1011.9z"/>
		<path class="st1" d="M1054,605.6h27.9v6.2H1061v11.8h17.2v6H1061v12.4h21.6v6.2H1054V605.6z"/>
		<path class="st1" d="M1096.8,647.4c0,5.9-3.8,9.3-9.8,9.3v-3.5c3.8-0.1,5.4-2.4,5.4-4.6c0-0.2,0-0.5-0.1-0.8
			c-0.5,0.4-1.3,0.6-2,0.6c-2,0-3.6-1.3-3.6-3.9c0-2.3,1.8-4.1,4.6-4.1C1094.7,640.4,1096.8,643.5,1096.8,647.4z"/>
		<path class="st1" d="M58.9,671.6H68l13.7,33.6L95,671.6h8.9v42.7h-6.8v-31.4l-12.8,31.4h-5.9l-12.8-31.4v31.4h-6.8V671.6z"/>
		<path class="st1" d="M130.9,714.7c-12.3,0-20.7-9.2-20.7-21.7s8.5-21.7,20.7-21.7c12.3,0,20.7,9.2,20.7,21.7
			S143.1,714.7,130.9,714.7z M130.9,708.5c8.1,0,13.5-6.5,13.5-15.6s-5.4-15.6-13.5-15.6c-8.1,0-13.5,6.5-13.5,15.6
			S122.7,708.5,130.9,708.5z"/>
		<path class="st1" d="M157.8,671.6h7v17.9h19.8v-17.9h7v42.7h-7v-18.5h-19.8v18.5h-7V671.6z"/>
		<path class="st1" d="M196.7,671.6h33.4v6.2h-13.2v36.5h-7v-36.5h-13.2V671.6z"/>
		<path class="st1" d="M226.1,714.3l16-42.7h8.4l15.9,42.7h-7.5l-4-10.6h-17.5l-4,10.6H226.1z M239.2,697.8h13.6l-6.8-18.6
			L239.2,697.8z"/>
		<path class="st1" d="M267.7,714.3l15.1-22.1l-14.2-20.6h7.8l12.3,17.9h5.6v-17.9h7v17.9h5.6l12.3-17.9h7.8l-14.2,20.6l15,22.1
			h-8.3l-12.4-18.5h-5.8v18.5h-7v-18.5h-5.7L276,714.3H267.7z"/>
		<path class="st1" d="M348.1,714.3v-42.7h7v31.2l20.9-31.2h6.5v42.7h-7v-31.2l-20.9,31.2H348.1z"/>
		<path class="st1" d="M425,714.7c-12.3,0-20.7-9.2-20.7-21.7s8.5-21.7,20.7-21.7c12.3,0,20.7,9.2,20.7,21.7S437.3,714.7,425,714.7z
			 M425,708.5c8.1,0,13.5-6.5,13.5-15.6s-5.4-15.6-13.5-15.6c-8.1,0-13.5,6.5-13.5,15.6S416.9,708.5,425,708.5z"/>
		<path class="st1" d="M451.9,714.3v-42.7h27.4v6.1h-20.4v11H469c8.5,0,14.3,4.1,14.3,12.8c0,8.3-5.7,12.9-14.2,12.9H451.9z
			 M458.9,708.2h9.5c4.8,0,7.7-2.6,7.7-6.8s-3-6.8-7.7-6.8h-9.5V708.2z"/>
		<path class="st1" d="M486.9,692.9c0-13,8-21.7,20.6-21.7c9.8,0,16.8,5.9,18.2,14.9h-7.3c-1.4-5.4-5.4-8.7-11.2-8.7
			c-8.1,0-13.1,6.4-13.1,15.6c0,9.1,4.9,15.6,12.9,15.6c5.9,0,10-3.3,11.3-8.7h7.3c-1.3,9-8.6,14.9-18.5,14.9
			C494.7,714.7,486.9,706,486.9,692.9z"/>
		<path class="st1" d="M527.3,714.3v-6.2h1.1c4.4,0,6.3-2.8,6.3-15.4v-21h30.9v42.7h-7v-36.5h-17.1v15.4c0,15.9-3.8,21.1-12.2,21.1
			H527.3z"/>
		<path class="st1" d="M575,714.3v-6.2h3.9c3.5,0,4.8-0.6,6.2-3.7l1.1-2.4l-16.5-30.4h7.8l12.2,23.1l10.2-23.1h7.4l-16,34.7
			c-2.8,6.2-5.9,8.1-10.6,8.1H575z"/>
		<path class="st1" d="M608.3,714.3l15.1-22.1l-14.2-20.6h7.8l12.3,17.9h5.6v-17.9h7v17.9h5.6l12.3-17.9h7.8l-14.2,20.6l15,22.1
			h-8.3l-12.4-18.5h-5.8v18.5h-7v-18.5h-5.7l-12.5,18.5H608.3z"/>
		<path class="st1" d="M673.1,714.3v-42.7h7v31.2l20.9-31.2h6.5v42.7h-7v-31.2l-20.9,31.2H673.1z"/>
		<path class="st1" d="M715.2,671.6h15.7c9.4,0,14.8,4.3,14.8,11.3c0,5.1-2.9,8.1-7.3,9.3c5.1,0.8,9,3.8,9,9.9
			c0,7.6-5.6,12.2-15.9,12.2h-16.2V671.6z M722.2,677.4v12.3h8.8c4.8,0,7.6-2.3,7.6-6.2c0-3.8-2.7-6.1-7.6-6.1H722.2z M722.2,695.5
			v12.9h9.3c5.6,0,8.6-2.4,8.6-6.3c0-4.2-3.2-6.5-8.6-6.5H722.2z"/>
		<path class="st1" d="M748.7,714.3l16-42.7h8.4l15.9,42.7h-7.5l-4-10.6h-17.5l-4,10.6H748.7z M761.8,697.8h13.6l-6.8-18.6
			L761.8,697.8z"/>
		<path class="st1" d="M793.3,671.6h7v17.9h19.8v-17.9h7v42.7h-7v-18.5h-19.8v18.5h-7V671.6z"/>
		<path class="st1" d="M835,714.3v-42.7h7v31.2l20.9-31.2h6.5v42.7h-7v-31.2l-20.9,31.2H835z"/>
		<path class="st1" d="M877.1,671.6H905v6.2h-20.9v11.8h17.2v6h-17.2v12.4h21.6v6.2h-28.6V671.6z"/>
		<path class="st1" d="M58.9,780.3v-42.7h7v31.2l20.9-31.2h6.5v42.7h-7v-31.2l-20.9,31.2H58.9z"/>
		<path class="st1" d="M101,737.6h7v17.9h19.8v-17.9h7v42.7h-7v-18.5H108v18.5h-7V737.6z"/>
		<path class="st1" d="M139.6,780.3l15.1-22.1l-14.2-20.6h7.8l12.3,17.9h5.6v-17.9h7v17.9h5.6l12.3-17.9h7.8l-14.2,20.6l15,22.1
			h-8.3l-12.4-18.5h-5.8v18.5h-7v-18.5h-5.7l-12.5,18.5H139.6z"/>
		<path class="st1" d="M204.4,737.6h27.9v6.2h-20.9v11.8h17.2v6h-17.2v12.4H233v6.2h-28.6V737.6z"/>
		<path class="st1" d="M238.7,737.6h7v17.9h19.8v-17.9h7v42.7h-7v-18.5h-19.8v18.5h-7V737.6z"/>
		<path class="st1" d="M280.4,737.6h27.9v6.2h-20.9v11.8h17.2v6h-17.2v12.4H309v6.2h-28.6V737.6z"/>
		<path class="st1" d="M314.7,737.6h16.8c8.9,0,14.8,5.3,14.8,13.6c0,8.2-5.9,13.6-14.8,13.6h-9.8v15.5h-7V737.6z M321.7,743.7v15
			h9.2c5,0,8.2-2.9,8.2-7.5c0-4.6-3.2-7.5-8.2-7.5H321.7z"/>
		<path class="st1" d="M351.7,737.6h7v17.9h19.8v-17.9h7v42.7h-7v-18.5h-19.8v18.5h-7V737.6z"/>
		<path class="st1" d="M393.3,780.3v-42.7h7v15.6h9.5c8.9,0,14.8,5.6,14.8,13.6c0,7.9-5.9,13.5-14.8,13.5H393.3z M400.3,774.2h9
			c4.9,0,8.2-2.9,8.2-7.4c0-4.6-3.2-7.4-8.2-7.4h-8.9V774.2z M429.7,780.3v-42.7h7v42.7H429.7z"/>
		<path class="st1" d="M455.5,758.4l-13.4-20.9h8.3l9.6,15.2l9.8-15.2h7.9l-13.4,20.6l14.2,22.1h-8.4l-10.4-16.4l-10.5,16.4h-7.9
			L455.5,758.4z"/>
		<path class="st1" d="M497.2,758.9c0-13,8-21.7,20.6-21.7c9.8,0,16.8,5.9,18.2,14.9h-7.3c-1.4-5.4-5.4-8.7-11.2-8.7
			c-8.1,0-13.1,6.4-13.1,15.6c0,9.1,4.9,15.6,12.9,15.6c5.9,0,10-3.3,11.3-8.7h7.3c-1.3,9-8.6,14.9-18.5,14.9
			C505,780.7,497.2,772,497.2,758.9z"/>
		<path class="st1" d="M541.7,780.3v-42.7h7v31.2l20.9-31.2h6.5v42.7h-7v-31.2l-20.9,31.2H541.7z"/>
		<path class="st1" d="M582.2,758.9c0-13,8-21.7,20.6-21.7c9.8,0,16.8,5.9,18.2,14.9h-7.3c-1.4-5.4-5.4-8.7-11.2-8.7
			c-8.1,0-13.1,6.4-13.1,15.6c0,9.1,4.9,15.6,12.9,15.6c5.9,0,10-3.3,11.3-8.7h7.3c-1.3,9-8.6,14.9-18.5,14.9
			C590,780.7,582.2,772,582.2,758.9z"/>
		<path class="st1" d="M622.1,737.6h33.4v6.2h-13.2v36.5h-7v-36.5h-13.2V737.6z"/>
		<path class="st1" d="M660.6,737.6h27.9v6.2h-20.9v11.8h17.2v6h-17.2v12.4h21.6v6.2h-28.6V737.6z"/>
		<path class="st1" d="M695,737.6h9.1l13.7,33.6l13.4-33.6h8.9v42.7h-6.8v-31.4l-12.8,31.4h-5.9l-12.8-31.4v31.4H695V737.6z"/>
	</g>
</g>
<g>
	<g>
		<path class="st1" d="M116,104.8c0,19.8-12.2,33.1-31.4,33.1c-15,0-25.4-8.8-27.7-22.4H68c2.1,8,8,13.1,17.2,13.1
			c11,0,18.4-7.7,19.8-19.5H80V100h25C103.5,88.5,96.5,81,85.7,81c-9.3,0-15.1,5.1-17.3,13.1h-11c2.2-13.6,12.9-22.4,27.9-22.4
			C104.5,71.8,116,84.9,116,104.8z"/>
		<path class="st1" d="M117,137.3v-9.5h1.7c6.7,0,9.7-4.3,9.7-23.5v-32h47v65h-10.7V81.8h-26.1v23.4c0,24.2-5.8,32.1-18.6,32.1H117z
			"/>
		<path class="st1" d="M183.1,72.3h50.8v9.5h-20.1v55.5h-10.7V81.8h-20.1V72.3z"/>
		<path class="st1" d="M227.8,137.3l24.3-65h12.7l24.2,65h-11.4l-6.1-16.1h-26.6l-6,16.1H227.8z M247.8,112.1h20.7l-10.4-28.3
			L247.8,112.1z"/>
	</g>
</g>
<g>
	<g>
		<path class="st1" d="M1279.1,113.6V70.9h26.3v4.9h-21v12.6h11.4c8.2,0,13.7,4.1,13.7,12.6c0,8-5.5,12.7-13.7,12.7H1279.1z
			 M1284.5,108.8h11c5.4,0,8.7-3,8.7-7.7s-3.4-7.7-8.8-7.7h-10.9V108.8z"/>
		<path class="st1" d="M1344,109.1v4.6h-2.7c-4.1,0-5.6-1.8-5.6-4.8c-2,2.8-5.1,5.2-10.4,5.2c-6.8,0-11.5-3.4-11.5-9.1
			c0-6.2,4.3-9.7,12.5-9.7h9.2v-2.1c0-4-2.9-6.5-7.7-6.5c-4.4,0-7.3,2.1-7.9,5.2h-5c0.7-6.1,5.7-9.7,13.2-9.7
			c7.9,0,12.5,4,12.5,11.2V107c0,1.6,0.6,2.1,2,2.1H1344z M1335.4,99.4h-9.6c-4.5,0-7,1.6-7,5.2c0,3,2.6,5.1,6.8,5.1
			c6.2,0,9.8-3.6,9.8-8.8V99.4z"/>
		<path class="st1" d="M1378.5,98.1c0,9.5-6.3,15.9-14.9,15.9c-5.2,0-8.8-2.1-10.7-5.1v17h-5V82.5h4.3l0.7,5
			c2.1-2.9,5.4-5.4,10.7-5.4C1372.1,82.2,1378.5,88,1378.5,98.1z M1373.3,98.1c0-6.8-4.1-11.5-10.3-11.5c-6.1,0-10.2,4.7-10.2,11.3
			c0,6.8,4.1,11.6,10.2,11.6C1369.2,109.6,1373.3,104.9,1373.3,98.1z"/>
		<path class="st1" d="M1413.3,109.1v4.6h-2.7c-4.1,0-5.6-1.8-5.6-4.8c-2,2.8-5.1,5.2-10.4,5.2c-6.8,0-11.5-3.4-11.5-9.1
			c0-6.2,4.3-9.7,12.5-9.7h9.2v-2.1c0-4-2.9-6.5-7.7-6.5c-4.4,0-7.3,2.1-7.9,5.2h-5c0.7-6.1,5.7-9.7,13.2-9.7
			c7.9,0,12.5,4,12.5,11.2V107c0,1.6,0.6,2.1,2,2.1H1413.3z M1404.7,99.4h-9.6c-4.5,0-7,1.6-7,5.2c0,3,2.6,5.1,6.8,5.1
			c6.2,0,9.8-3.6,9.8-8.8V99.4z"/>
		<path class="st1" d="M1416,98.1c0-9.5,6-15.9,14.8-15.9c8.8,0,14.5,5.6,14.8,14.8c0,0.7-0.1,1.4-0.1,2.1h-24.2v0.4
			c0.2,5.9,3.9,10.1,9.8,10.1c4.4,0,7.8-2.3,8.8-6.3h5.1c-1.2,6.2-6.3,10.8-13.5,10.8C1422.1,114,1416,107.6,1416,98.1z
			 M1440.2,94.9c-0.5-5.4-4.1-8.4-9.3-8.4c-4.6,0-8.8,3.3-9.3,8.4H1440.2z"/>
		<path class="st1" d="M1451.3,113.6V82.5h13.2c7.7,0,11.4,3,11.4,8.4c0,3.9-2.6,6-5.1,6.6c3.6,0.5,6.3,2.8,6.3,7.1
			c0,6-4.3,9-12.4,9H1451.3z M1456.3,95.8h8.7c4.1,0,5.9-1.7,5.9-4.5c0-3-1.8-4.5-5.9-4.5h-8.7V95.8z M1456.3,109.4h9.2
			c4.3,0,6.6-1.5,6.6-4.7c0-3-2.3-4.8-6.6-4.8h-9.2V109.4z"/>
		<path class="st1" d="M1495.9,113.6l16.3-42.7h6.3l16.2,42.7h-5.7l-4.5-11.5h-18.6l-4.5,11.5H1495.9z M1507.5,97.3h15.4l-7.7-20.6
			L1507.5,97.3z"/>
		<path class="st1" d="M1536.4,113.6v-4.6h0.9c3.5,0,4.9-2.1,4.9-11.5V82.5h23.5v31.1h-5V87.1h-13.7v10.7c0,12.4-2.9,15.9-9,15.9
			H1536.4z"/>
		<path class="st1" d="M1571.5,98.1c0-9.5,6-15.9,14.8-15.9c8.8,0,14.5,5.6,14.8,14.8c0,0.7-0.1,1.4-0.1,2.1h-24.2v0.4
			c0.2,5.9,3.9,10.1,9.8,10.1c4.4,0,7.8-2.3,8.8-6.3h5.1c-1.2,6.2-6.3,10.8-13.5,10.8C1577.6,114,1571.5,107.6,1571.5,98.1z
			 M1595.6,94.9c-0.5-5.4-4.1-8.4-9.3-8.4c-4.6,0-8.8,3.3-9.3,8.4H1595.6z"/>
		<path class="st1" d="M1606.7,113.6V82.5h5v13h6.6l9.7-13h5.8l-11.3,14.9l12.3,16.2h-6l-10.4-13.5h-6.7v13.5H1606.7z"/>
		<path class="st1" d="M1635.9,98.2c0-9.5,6.2-16,15.2-16c7.6,0,12.4,4.3,13.7,11.1h-5.2c-0.9-4.1-4-6.6-8.5-6.6
			c-6,0-10,4.8-10,11.5s4,11.4,10,11.4c4.5,0,7.5-2.6,8.5-6.5h5.3c-1.2,6.7-6.3,11-13.8,11C1641.9,114,1635.9,107.9,1635.9,98.2z"/>
		<path class="st1" d="M1699.4,109.1v4.6h-2.7c-4.1,0-5.6-1.8-5.6-4.8c-2,2.8-5.1,5.2-10.4,5.2c-6.8,0-11.5-3.4-11.5-9.1
			c0-6.2,4.3-9.7,12.5-9.7h9.2v-2.1c0-4-2.9-6.5-7.7-6.5c-4.4,0-7.3,2.1-7.9,5.2h-5c0.7-6.1,5.7-9.7,13.2-9.7
			c7.9,0,12.5,4,12.5,11.2V107c0,1.6,0.6,2.1,2,2.1H1699.4z M1690.8,99.4h-9.6c-4.5,0-7,1.6-7,5.2c0,3,2.6,5.1,6.8,5.1
			c6.2,0,9.8-3.6,9.8-8.8V99.4z"/>
		<path class="st1" d="M1725.8,82.5h5v31.1h-5v-13.5h-17.5v13.5h-5V82.5h5v13h17.5V82.5z"/>
		<path class="st1" d="M1765.1,109.1h4.9v12.8h-5v-8.2h-25.4v8.2h-5v-12.8h3.2c2.3-1.7,3.5-3.9,3.5-13.5v-13h23.8V109.1z
			 M1760.1,109.1v-22h-13.9v9c0,7.1-0.8,10.6-2.3,13H1760.1z"/>
		<path class="st1" d="M1805.8,98.1c0,9.5-6.3,15.9-14.9,15.9c-5.2,0-8.8-2.1-10.7-5.1v17h-5V82.5h4.3l0.7,5
			c2.1-2.9,5.4-5.4,10.7-5.4C1799.4,82.2,1805.8,88,1805.8,98.1z M1800.6,98.1c0-6.8-4.1-11.5-10.3-11.5c-6.1,0-10.2,4.7-10.2,11.3
			c0,6.8,4.1,11.6,10.2,11.6C1796.5,109.6,1800.6,104.9,1800.6,98.1z"/>
		<path class="st1" d="M1824.7,113.6l16.3-42.7h6.3l16.2,42.7h-5.7l-4.5-11.5h-18.6l-4.5,11.5H1824.7z M1836.3,97.3h15.4l-7.7-20.6
			L1836.3,97.3z"/>
		<path class="st1" d="M1890.1,82.5h5v31.1h-5v-13.5h-17.5v13.5h-5V82.5h5v13h17.5V82.5z"/>
		<path class="st1" d="M1931,109.1v4.6h-2.7c-4.1,0-5.6-1.8-5.6-4.8c-2,2.8-5.1,5.2-10.4,5.2c-6.8,0-11.5-3.4-11.5-9.1
			c0-6.2,4.3-9.7,12.5-9.7h9.2v-2.1c0-4-2.9-6.5-7.7-6.5c-4.4,0-7.3,2.1-7.9,5.2h-5c0.7-6.1,5.7-9.7,13.2-9.7
			c7.9,0,12.5,4,12.5,11.2V107c0,1.6,0.6,2.1,2,2.1H1931z M1922.4,99.4h-9.6c-4.5,0-7,1.6-7,5.2c0,3,2.6,5.1,6.8,5.1
			c6.2,0,9.8-3.6,9.8-8.8V99.4z"/>
		<path class="st1" d="M1941.5,113.6V87.1h-11.2v-4.6h27.5v4.6h-11.2v26.5H1941.5z"/>
		<path class="st1" d="M1959,98.1c0-9.5,6.3-15.9,15.4-15.9c9.1,0,15.4,6.5,15.4,15.9c0,9.5-6.3,15.9-15.4,15.9
			C1965.4,114,1959,107.5,1959,98.1z M1984.8,98.1c0-6.6-4.1-11.5-10.3-11.5c-6.2,0-10.3,4.8-10.3,11.5c0,6.7,4.1,11.5,10.3,11.5
			C1980.6,109.6,1984.8,104.7,1984.8,98.1z"/>
		<path class="st1" d="M1991.4,113.6v-4.6h0.9c3.5,0,4.9-2.1,4.9-11.5V82.5h23.5v31.1h-5V87.1h-13.7v10.7c0,12.4-2.9,15.9-9,15.9
			H1991.4z"/>
		<path class="st1" d="M2027.6,113.6V82.5h5v10.1h8.4c7.7,0,12.2,3.8,12.2,10.5c0,6.6-4.5,10.5-12.2,10.5H2027.6z M2032.6,109.4h7.6
			c5.1,0,7.9-2.3,7.9-6.2c0-4.1-2.8-6.2-7.9-6.2h-7.6V109.4z"/>
		<path class="st1" d="M2057.5,98.1c0-9.5,6-15.9,14.8-15.9c8.8,0,14.5,5.6,14.8,14.8c0,0.7-0.1,1.4-0.1,2.1h-24.2v0.4
			c0.2,5.9,3.9,10.1,9.8,10.1c4.4,0,7.8-2.3,8.8-6.3h5.1c-1.2,6.2-6.3,10.8-13.5,10.8C2063.6,114,2057.5,107.6,2057.5,98.1z
			 M2081.7,94.9c-0.5-5.4-4.1-8.4-9.3-8.4c-4.6,0-8.8,3.3-9.3,8.4H2081.7z"/>
		<path class="st1" d="M2092.8,113.6V82.5h13.2c7.7,0,11.4,3,11.4,8.4c0,3.9-2.6,6-5.1,6.6c3.6,0.5,6.3,2.8,6.3,7.1
			c0,6-4.3,9-12.4,9H2092.8z M2097.8,95.8h8.7c4.1,0,5.9-1.7,5.9-4.5c0-3-1.8-4.5-5.9-4.5h-8.7V95.8z M2097.8,109.4h9.2
			c4.3,0,6.6-1.5,6.6-4.7c0-3-2.3-4.8-6.6-4.8h-9.2V109.4z"/>
		<path class="st1" d="M2124.1,113.6V82.5h4.9v23.5l18.5-23.5h4.4v31.1h-4.9V90l-18.5,23.6H2124.1z"/>
		<path class="st1" d="M2178.3,82.5h5v31.1h-5v-12.5c-2.4,1.6-5.6,2.4-8.7,2.4c-7.6,0-12.2-3.3-12.2-11.3v-9.7h5v8.8
			c0,5.7,2.7,7.6,8.2,7.6c3,0,5.6-0.7,7.7-2.5V82.5z"/>
		<path class="st1" d="M1279.1,178.6v-42.7h25v4.9h-19.7v37.8H1279.1z"/>
		<path class="st1" d="M1302.2,163.1c0-9.5,6-15.9,14.8-15.9c8.8,0,14.5,5.6,14.8,14.8c0,0.7-0.1,1.4-0.1,2.1h-24.2v0.4
			c0.2,5.9,3.9,10.1,9.8,10.1c4.4,0,7.8-2.3,8.8-6.3h5.1c-1.2,6.2-6.3,10.8-13.5,10.8C1308.3,179,1302.2,172.6,1302.2,163.1z
			 M1326.4,159.9c-0.5-5.4-4.1-8.4-9.3-8.4c-4.6,0-8.8,3.3-9.3,8.4H1326.4z"/>
		<path class="st1" d="M1360,147.5h5v31.1h-5v-13.5h-17.5v13.5h-5v-31.1h5v13h17.5V147.5z"/>
		<path class="st1" d="M1370.7,163.1c0-9.5,6-15.9,14.8-15.9c8.8,0,14.5,5.6,14.8,14.8c0,0.7-0.1,1.4-0.1,2.1H1376v0.4
			c0.2,5.9,3.9,10.1,9.8,10.1c4.4,0,7.8-2.3,8.8-6.3h5.1c-1.2,6.2-6.3,10.8-13.5,10.8C1376.8,179,1370.7,172.6,1370.7,163.1z
			 M1394.9,159.9c-0.5-5.4-4.1-8.4-9.3-8.4c-4.6,0-8.8,3.3-9.3,8.4H1394.9z"/>
		<path class="st1" d="M1436.6,163.1c0,9.5-6.3,15.9-14.9,15.9c-5.2,0-8.8-2.1-10.7-5.1v17h-5v-43.3h4.3l0.7,5
			c2.1-2.9,5.4-5.4,10.7-5.4C1430.2,147.2,1436.6,153,1436.6,163.1z M1431.5,163.1c0-6.8-4.1-11.5-10.3-11.5
			c-6.1,0-10.2,4.7-10.2,11.3c0,6.8,4.1,11.6,10.2,11.6C1427.3,174.6,1431.5,169.9,1431.5,163.1z"/>
		<path class="st1" d="M1471.4,174.1v4.6h-2.7c-4.1,0-5.6-1.8-5.6-4.8c-2,2.8-5.1,5.2-10.4,5.2c-6.8,0-11.5-3.4-11.5-9.1
			c0-6.2,4.3-9.7,12.5-9.7h9.2v-2.1c0-4-2.9-6.5-7.7-6.5c-4.4,0-7.3,2.1-7.9,5.2h-5c0.7-6.1,5.7-9.7,13.2-9.7
			c7.9,0,12.5,4,12.5,11.2V172c0,1.6,0.6,2.1,2,2.1H1471.4z M1462.8,164.4h-9.6c-4.5,0-7,1.6-7,5.2c0,3,2.6,5.1,6.8,5.1
			c6.2,0,9.8-3.6,9.8-8.8V164.4z"/>
		<path class="st1" d="M1473.7,178.6v-4.6h0.9c3.5,0,4.9-2.1,4.9-11.5v-15.1h23.5v31.1h-5v-26.5h-13.7v10.7c0,12.4-2.9,15.9-9,15.9
			H1473.7z"/>
		<path class="st1" d="M1509.8,178.6v-31.1h5v10.1h8.4c7.7,0,12.2,3.8,12.2,10.5c0,6.6-4.5,10.5-12.2,10.5H1509.8z M1514.8,174.4
			h7.6c5.1,0,7.9-2.3,7.9-6.2c0-4.1-2.8-6.2-7.9-6.2h-7.6V174.4z"/>
		<path class="st1" d="M1563.3,147.5h5v31.1h-5v-13.5h-17.5v13.5h-5v-31.1h5v13h17.5V147.5z"/>
		<path class="st1" d="M1575.2,178.6v-31.1h5v10.1h7.9c7.7,0,12.2,3.8,12.2,10.5c0,6.6-4.5,10.5-12.2,10.5H1575.2z M1580.2,174.4
			h7.1c5.1,0,7.9-2.3,7.9-6.2c0-4.1-2.8-6.2-7.9-6.2h-7.1V174.4z M1605.4,178.6v-31.1h5v31.1H1605.4z"/>
		<path class="st1" d="M1617.2,178.6v-31.1h4.9v23.5l18.5-23.5h4.4v31.1h-4.9V155l-18.5,23.6H1617.2z M1622.1,135.6h4.1
			c0,3,1.3,4.8,4.8,4.8c3.5,0,4.9-1.8,4.9-4.8h4.1c-0.1,5.1-3.2,8.4-9.2,8.4C1625.1,144,1622.2,140.8,1622.1,135.6z"/>
		<path class="st1" d="M1695.3,174.1h4.9v12.8h-5v-8.2h-25.4v8.2h-5v-12.8h3.2c2.3-1.7,3.5-3.9,3.5-13.5v-13h23.8V174.1z
			 M1690.3,174.1v-22h-13.9v9c0,7.1-0.8,10.6-2.3,13H1690.3z"/>
		<path class="st1" d="M1704.4,178.6v-31.1h4.9v23.5l18.5-23.5h4.4v31.1h-4.9V155l-18.5,23.6H1704.4z"/>
		<path class="st1" d="M1769.6,163.1c0,9.5-6.3,15.9-14.9,15.9c-5.2,0-8.8-2.1-10.7-5.1v17h-5v-43.3h4.3l0.7,5
			c2.1-2.9,5.4-5.4,10.7-5.4C1763.3,147.2,1769.6,153,1769.6,163.1z M1764.5,163.1c0-6.8-4.1-11.5-10.3-11.5
			c-6.1,0-10.2,4.7-10.2,11.3c0,6.8,4.1,11.6,10.2,11.6C1760.4,174.6,1764.5,169.9,1764.5,163.1z"/>
		<path class="st1" d="M1774.3,163.1c0-9.5,6-15.9,14.8-15.9c8.8,0,14.5,5.6,14.8,14.8c0,0.7-0.1,1.4-0.1,2.1h-24.2v0.4
			c0.2,5.9,3.9,10.1,9.8,10.1c4.4,0,7.8-2.3,8.8-6.3h5.1c-1.2,6.2-6.3,10.8-13.5,10.8C1780.4,179,1774.3,172.6,1774.3,163.1z
			 M1798.4,159.9c-0.5-5.4-4.1-8.4-9.3-8.4c-4.6,0-8.8,3.3-9.3,8.4H1798.4z"/>
		<path class="st1" d="M1809.5,178.6v-31.1h5v13h6.6l9.7-13h5.8l-11.3,14.9l12.3,16.2h-6l-10.4-13.5h-6.7v13.5H1809.5z"/>
		<path class="st1" d="M1849.9,178.6v-26.5h-11.2v-4.6h27.5v4.6h-11.2v26.5H1849.9z"/>
		<path class="st1" d="M1867.4,163.1c0-9.5,6.3-15.9,15.4-15.9c9.1,0,15.4,6.5,15.4,15.9c0,9.5-6.3,15.9-15.4,15.9
			C1873.7,179,1867.4,172.5,1867.4,163.1z M1893.1,163.1c0-6.6-4.1-11.5-10.3-11.5c-6.2,0-10.3,4.8-10.3,11.5
			c0,6.7,4.1,11.5,10.3,11.5C1889,174.6,1893.1,169.7,1893.1,163.1z"/>
		<path class="st1" d="M1934.6,163.1c0,9.5-6.3,15.9-14.9,15.9c-5.2,0-8.8-2.1-10.7-5.1v17h-5v-43.3h4.3l0.7,5
			c2.1-2.9,5.4-5.4,10.7-5.4C1928.2,147.2,1934.6,153,1934.6,163.1z M1929.5,163.1c0-6.8-4.1-11.5-10.3-11.5
			c-6.1,0-10.2,4.7-10.2,11.3c0,6.8,4.1,11.6,10.2,11.6C1925.3,174.6,1929.5,169.9,1929.5,163.1z"/>
	</g>
</g>
<g>
	<g>
		<path class="st1" d="M1288.7,293.4h4.6v10.7h10.2v4.2h-10.2V319h-4.6v-10.7h-10.1v-4.2h10.1V293.4z"/>
		<path class="st1" d="M1307.4,280.9h30.1v3.6l-21,39.1h-5.6l20.9-38h-24.5V280.9z"/>
		<path class="st1" d="M1365.9,331.6c-6.2-8.1-8.8-16.8-8.8-26.2c0-9.2,2.6-18.1,8.8-26.2h5.5c-6.8,9-9.4,17-9.4,26.2
			c0,9.3,2.6,17.3,9.4,26.2H1365.9z"/>
		<path class="st1" d="M1375.6,312.2h5.1c1,4.3,4,7.3,9.2,7.3c7.4,0,11.5-6.8,11.5-16.4c0-0.6,0-1-0.1-2.1c-0.1,0.2-0.1,0.6-0.4,1.2
			c-1.9,4.2-6.2,7-11.9,7c-8.4,0-14.3-5.6-14.3-14.3c0-8.2,6-14.3,14.8-14.3c5.9,0,10.2,2.7,12.9,7.1c2.1,3.7,3.4,8.8,3.4,14.5
			c0,13.4-6,21.9-16.2,21.9C1382,324,1376.7,319.4,1375.6,312.2z M1399.5,294.8c0-5.7-3.9-9.7-9.8-9.7c-5.9,0-9.8,4.1-9.8,9.8
			c0,5.7,3.7,9.8,9.6,9.8S1399.5,300.6,1399.5,294.8z"/>
		<path class="st1" d="M1411.2,301.3c0-12.1,6.6-20.7,16.2-20.7c9.6,0,16.2,8.6,16.2,20.7v2c0,12.8-6.6,20.7-16.2,20.7
			c-9.6,0-16.2-8-16.2-20.7V301.3z M1438.4,301.5c0-10.1-4.4-16.2-11-16.2c-6.6,0-11,6.1-11,16.2v1.6c0,10.1,4.4,16.2,11,16.2
			c6.6,0,11-6.1,11-16.2V301.5z"/>
		<path class="st1" d="M1479,309.4c0,9.5-7,14.6-14.9,14.6c-9.5,0-15-6.2-15.4-13.6h5.1c0.5,4.9,4.2,9,10.4,9c5,0,9.7-3.4,9.7-9.9
			c0-5.8-3.7-9.9-9.6-9.9c-2.6,0-7.9,0.7-9.7,5.8l-4.9-0.1l1.4-24.3h25.6v4.7h-20.9l-1,13.5c2.6-3.1,6.3-4.1,10.2-4.1
			C1473.2,295,1479,300.9,1479,309.4z"/>
		<path class="st1" d="M1487.5,279.1c6.2,8.1,8.8,16.8,8.8,26.2c0,9.2-2.6,18.1-8.8,26.2h-5.5c6.8-9,9.4-17,9.4-26.2
			c0-9.3-2.6-17.3-9.4-26.2H1487.5z"/>
		<path class="st1" d="M1516.5,319.3l16.6-14.4c4-3.4,7.3-6.7,7.3-11.3c0-5.4-3.7-8.4-9.3-8.4c-5.5,0-9.2,3.7-9.2,9.5v0.8h-5.1v-1.1
			c0-8.1,5.7-13.8,14.3-13.8c9.2,0,14.6,5.1,14.6,12.8c0,6.4-4.1,10.4-9.2,14.8l-12.8,10.9h22.3v4.7h-29.4V319.3z"/>
		<path class="st1" d="M1550.4,301.3c0-12.1,6.6-20.7,16.2-20.7c9.6,0,16.2,8.6,16.2,20.7v2c0,12.8-6.6,20.7-16.2,20.7
			c-9.6,0-16.2-8-16.2-20.7V301.3z M1577.6,301.5c0-10.1-4.4-16.2-11-16.2c-6.6,0-11,6.1-11,16.2v1.6c0,10.1,4.4,16.2,11,16.2
			c6.6,0,11-6.1,11-16.2V301.5z"/>
		<path class="st1" d="M1586.8,319.3l16.6-14.4c4-3.4,7.3-6.7,7.3-11.3c0-5.4-3.7-8.4-9.3-8.4c-5.5,0-9.2,3.7-9.2,9.5v0.8h-5.1v-1.1
			c0-8.1,5.7-13.8,14.3-13.8c9.2,0,14.6,5.1,14.6,12.8c0,6.4-4.1,10.4-9.2,14.8l-12.8,10.9h22.3v4.7h-29.4V319.3z"/>
		<path class="st1" d="M1619.6,308.4v-4.2h20.3v4.2H1619.6z"/>
		<path class="st1" d="M1645.7,302.5c0-13.4,6-21.9,16.2-21.9c7.7,0,13.1,4.6,14.1,11.8h-5.1c-1-4.3-4-7.3-9.2-7.3
			c-7.4,0-11.5,6.8-11.5,16.4c0,0.6,0,1,0.1,2.1c0.1-0.2,0.1-0.6,0.4-1.2c1.9-4.2,6.2-7,11.9-7c8.4,0,14.3,5.6,14.3,14.3
			c0,8.2-6,14.3-14.8,14.3c-5.9,0-10.2-2.7-12.9-7.1C1646.9,313.2,1645.7,308.1,1645.7,302.5z M1662.1,299.9c-5.9,0-9.9,4-9.9,9.9
			c0,5.7,3.9,9.7,9.8,9.7c5.9,0,9.8-4.1,9.8-9.8C1671.7,304,1668,299.9,1662.1,299.9z"/>
		<path class="st1" d="M1711.9,309.4c0,9.5-7,14.6-14.9,14.6c-9.5,0-15-6.2-15.4-13.6h5.1c0.5,4.9,4.2,9,10.4,9c5,0,9.7-3.4,9.7-9.9
			c0-5.8-3.7-9.9-9.6-9.9c-2.6,0-7.9,0.7-9.7,5.8l-4.9-0.1l1.4-24.3h25.6v4.7h-20.9l-1,13.5c2.6-3.1,6.3-4.1,10.2-4.1
			C1706.1,295,1711.9,300.9,1711.9,309.4z"/>
		<path class="st1" d="M1717,308.4v-4.2h20.3v4.2H1717z"/>
		<path class="st1" d="M1737.8,280.9h30.1v3.6l-21,39.1h-5.6l20.9-38h-24.5V280.9z"/>
		<path class="st1" d="M1771.5,312.2h5.1c1,4.3,4,7.3,9.2,7.3c7.4,0,11.5-6.8,11.5-16.4c0-0.6,0-1-0.1-2.1c-0.1,0.2-0.1,0.6-0.4,1.2
			c-1.9,4.2-6.2,7-11.9,7c-8.4,0-14.3-5.6-14.3-14.3c0-8.2,6-14.3,14.8-14.3c5.9,0,10.2,2.7,12.9,7.1c2.1,3.7,3.4,8.8,3.4,14.5
			c0,13.4-6,21.9-16.2,21.9C1777.9,324,1772.6,319.4,1771.5,312.2z M1795.4,294.8c0-5.7-3.9-9.7-9.8-9.7c-5.9,0-9.8,4.1-9.8,9.8
			c0,5.7,3.7,9.8,9.6,9.8C1791.4,304.7,1795.4,300.6,1795.4,294.8z"/>
		<path class="st1" d="M1309,373.1c0,9.5-6.3,15.9-14.9,15.9c-5.2,0-8.8-2.1-10.7-5.1l-0.7,4.8h-4.3v-42.7h5v16.6
			c2.1-2.9,5.4-5.4,10.7-5.4C1302.7,357.2,1309,363,1309,373.1z M1303.9,373.1c0-6.8-4.1-11.5-10.3-11.5c-6.1,0-10.3,4.7-10.3,11.3
			c0,6.8,4.1,11.6,10.3,11.6C1299.8,384.6,1303.9,379.9,1303.9,373.1z"/>
		<path class="st1" d="M1343.9,384.1v4.6h-2.7c-4.1,0-5.6-1.8-5.6-4.8c-2,2.8-5.1,5.2-10.4,5.2c-6.8,0-11.5-3.4-11.5-9.1
			c0-6.2,4.3-9.7,12.5-9.7h9.2v-2.1c0-4-2.9-6.5-7.7-6.5c-4.4,0-7.3,2.1-7.9,5.2h-5c0.7-6.1,5.7-9.7,13.2-9.7
			c7.9,0,12.5,4,12.5,11.2V382c0,1.6,0.6,2.1,2,2.1H1343.9z M1335.3,374.4h-9.6c-4.5,0-7,1.6-7,5.2c0,3,2.6,5.1,6.8,5.1
			c6.2,0,9.8-3.6,9.8-8.8V374.4z"/>
		<path class="st1" d="M1363.5,357.5v4.9h-2.5c-6.5,0-8.3,5.4-8.3,10.4v15.9h-5v-31.1h4.3l0.7,4.7c1.5-2.4,3.8-4.7,9.4-4.7H1363.5z"
			/>
		<path class="st1" d="M1395.8,384.1v4.6h-2.7c-4.1,0-5.6-1.8-5.6-4.8c-2,2.8-5.1,5.2-10.4,5.2c-6.8,0-11.5-3.4-11.5-9.1
			c0-6.2,4.3-9.7,12.5-9.7h9.2v-2.1c0-4-2.9-6.5-7.7-6.5c-4.4,0-7.3,2.1-7.9,5.2h-5c0.7-6.1,5.7-9.7,13.2-9.7
			c7.9,0,12.5,4,12.5,11.2V382c0,1.6,0.6,2.1,2,2.1H1395.8z M1387.2,374.4h-9.6c-4.5,0-7,1.6-7,5.2c0,3,2.6,5.1,6.8,5.1
			c6.2,0,9.8-3.6,9.8-8.8V374.4z"/>
		<path class="st1" d="M1398.2,373.1c0-9.5,6-15.9,14.8-15.9c8.8,0,14.5,5.6,14.8,14.8c0,0.7-0.1,1.4-0.1,2.1h-24.2v0.4
			c0.2,5.9,3.9,10.1,9.8,10.1c4.4,0,7.8-2.3,8.8-6.3h5.1c-1.2,6.2-6.3,10.8-13.5,10.8C1404.3,389,1398.2,382.6,1398.2,373.1z
			 M1422.4,369.9c-0.5-5.4-4.1-8.4-9.3-8.4c-4.6,0-8.8,3.3-9.3,8.4H1422.4z"/>
		<path class="st1" d="M1429,357.5h5.4l9.4,25.4l9.3-25.4h5.2l-11.7,31.1h-6L1429,357.5z"/>
		<path class="st1" d="M1489.9,347.2c15.1,0,25.6,9.2,25.6,22.1c0,9.6-5.5,16.3-13,16.3c-3.8,0-6.2-2.1-6.5-4.6l-0.1-0.9
			c-1.4,3.3-5.1,5.4-9.4,5.4c-6.1,0-11-4.7-11-11.7c0-7.7,5.9-14,12.7-14c4.8,0,7.6,2,8.5,4.6l0.9-4.1h3.9l-1.8,17.4
			c-0.3,2.9,1.1,4.1,3.5,4.1c4,0,7.5-5.4,7.5-12.8c0-10.7-8.4-17.9-20.9-17.9c-14,0-23.3,9.8-23.3,22.3c0,12.7,8.1,20.5,22.5,20.5
			c5.3,0,10.2-1.3,14-3.8l-0.1,4.5c-3.1,2.1-8.5,3.5-14.3,3.5c-15.7,0-26.8-9.6-26.8-24.6C1461.8,358.5,1474.3,347.2,1489.9,347.2z
			 M1489.1,363.6c-5.1,0-9,4.6-9,10.2c0,4.9,2.9,8.2,7.1,8.2c4.9,0,8.8-4.4,8.8-11C1496,366.3,1493.1,363.6,1489.1,363.6z"/>
		<path class="st1" d="M1520.9,373.1c0-9.5,6-15.9,14.8-15.9c8.8,0,14.5,5.6,14.8,14.8c0,0.7-0.1,1.4-0.1,2.1h-24.2v0.4
			c0.2,5.9,3.9,10.1,9.8,10.1c4.4,0,7.8-2.3,8.8-6.3h5.1c-1.2,6.2-6.3,10.8-13.5,10.8C1527,389,1520.9,382.6,1520.9,373.1z
			 M1545,369.9c-0.5-5.4-4.1-8.4-9.3-8.4c-4.6,0-8.8,3.3-9.3,8.4H1545z"/>
		<path class="st1" d="M1556.1,345.9h5v42.7h-5V345.9z"/>
		<path class="st1" d="M1570.3,362.1h-5.6v-4.6h5.6v-8.7h5v8.7h8.1v4.6h-8.1v18.4c0,2.6,0.9,3.6,3.6,3.6h4.9v4.6h-5.4
			c-6,0-8.1-2.6-8.1-8.1V362.1z"/>
		<path class="st1" d="M1616.8,384.1v4.6h-2.7c-4.1,0-5.6-1.8-5.6-4.8c-2,2.8-5.1,5.2-10.4,5.2c-6.8,0-11.5-3.4-11.5-9.1
			c0-6.2,4.3-9.7,12.5-9.7h9.2v-2.1c0-4-2.9-6.5-7.7-6.5c-4.4,0-7.3,2.1-7.9,5.2h-5c0.7-6.1,5.7-9.7,13.2-9.7
			c7.9,0,12.5,4,12.5,11.2V382c0,1.6,0.6,2.1,2,2.1H1616.8z M1608.2,374.4h-9.6c-4.5,0-7,1.6-7,5.2c0,3,2.6,5.1,6.8,5.1
			c6.2,0,9.8-3.6,9.8-8.8V374.4z"/>
		<path class="st1" d="M1620.4,373.4v-4.2h20.3v4.2H1620.4z"/>
		<path class="st1" d="M1650.1,378.4c0.2,3.7,3.4,6.3,8.6,6.3c4.4,0,7.5-1.9,7.5-4.8c0-3.9-3.4-4.2-8.1-4.8
			c-7-0.9-12.5-2.3-12.5-8.7c0-5.7,5.2-9.4,12.2-9.3c7.1,0.1,12.2,3.4,12.7,9.8h-5.1c-0.4-3.2-3.3-5.6-7.6-5.6
			c-4.3,0-7.3,1.8-7.3,4.7c0,3.4,3.3,3.8,7.8,4.4c7.1,0.9,12.8,2.2,12.8,9.1c0,5.8-5.6,9.4-12.4,9.4c-8.1,0-13.6-3.8-13.7-10.6
			H1650.1z"/>
		<path class="st1" d="M1707.4,373.1c0,9.5-6.3,15.9-14.9,15.9c-5.2,0-8.8-2.1-10.7-5.1v17h-5v-43.3h4.3l0.7,5
			c2.1-2.9,5.4-5.4,10.7-5.4C1701,357.2,1707.4,363,1707.4,373.1z M1702.2,373.1c0-6.8-4.1-11.5-10.3-11.5
			c-6.1,0-10.2,4.7-10.2,11.3c0,6.8,4.1,11.6,10.2,11.6C1698.1,384.6,1702.2,379.9,1702.2,373.1z"/>
		<path class="st1" d="M1743.7,373.1c0,9.5-6.3,15.9-14.9,15.9c-5.2,0-8.8-2.1-10.7-5.1l-0.7,4.8h-4.3v-42.7h5v16.6
			c2.1-2.9,5.4-5.4,10.7-5.4C1737.4,357.2,1743.7,363,1743.7,373.1z M1738.6,373.1c0-6.8-4.1-11.5-10.3-11.5
			c-6.1,0-10.2,4.7-10.2,11.3c0,6.8,4.1,11.6,10.2,11.6C1734.5,384.6,1738.6,379.9,1738.6,373.1z"/>
		<path class="st1" d="M1750.3,382.2c2,0,3.5,1.3,3.5,3.4c0,2.1-1.5,3.4-3.5,3.4c-2,0-3.5-1.3-3.5-3.4
			C1746.8,383.5,1748.3,382.2,1750.3,382.2z"/>
		<path class="st1" d="M1756.9,373.2c0-9.5,6.2-16,15.2-16c7.6,0,12.4,4.3,13.7,11.1h-5.2c-0.9-4.1-4-6.6-8.5-6.6
			c-6,0-10,4.8-10,11.5s4,11.4,10,11.4c4.5,0,7.5-2.6,8.5-6.5h5.3c-1.2,6.7-6.3,11-13.8,11C1762.9,389,1756.9,382.9,1756.9,373.2z"
			/>
		<path class="st1" d="M1790.2,373.1c0-9.5,6.3-15.9,15.4-15.9c9.1,0,15.4,6.5,15.4,15.9c0,9.5-6.3,15.9-15.4,15.9
			C1796.5,389,1790.2,382.5,1790.2,373.1z M1815.9,373.1c0-6.6-4.1-11.5-10.3-11.5c-6.2,0-10.3,4.8-10.3,11.5
			c0,6.7,4.1,11.5,10.3,11.5C1811.8,384.6,1815.9,379.7,1815.9,373.1z"/>
		<path class="st1" d="M1873.3,370.7v17.9h-5V371c0-6.1-2.7-9.3-7.4-9.3c-5.2,0-8.4,3.9-8.4,10.2v16.7h-5V371c0-6.1-2.7-9.3-7.5-9.3
			c-5.1,0-8.2,4.3-8.2,10.5v16.4h-5v-31.1h4.3l0.7,4.3c1.6-2.3,4.3-4.6,9.1-4.6c4.3,0,8.1,2,9.8,5.9c1.9-3.4,5.2-5.9,10.8-5.9
			C1868,357.2,1873.3,360.9,1873.3,370.7z"/>
	</g>
</g>
</svg>
