<?xml version="1.0" encoding="utf-8"?>
<!-- Generator: Adobe Illustrator 22.0.0, SVG Export Plug-In . SVG Version: 6.00 Build 0)  -->
<svg version="1.1" id="Layer_1" xmlns="http://www.w3.org/2000/svg" xmlns:xlink="http://www.w3.org/1999/xlink" x="0px" y="0px"
	 viewBox="0 0 2200 1600" style="enable-background:new 0 0 2200 1600;" xml:space="preserve">
<style type="text/css">
	.st0{fill:#FFFFFF;}
	.st1{fill:#242435;}
	.st2{fill:#3B3B4B;}
	.st3{fill:#52525F;}
	.st4{fill:#696975;}
	.st5{fill:#868690;}
	.st6{fill:#A4A4AB;}
	.st7{fill:#D1D1D5;}
	.st8{fill:#E8E8EA;}
	.st9{fill:#F2F2F3;}
	.st10{fill:#738CEA;}
	.st11{fill:#4159A3;}
	.st12{fill:#1B1B2D;}
	.st13{fill:#9B3123;}
	.st14{fill:#D63318;}
</style>
<rect y="1000" class="st0" width="1000" height="600"/>
<rect x="700" y="1000" width="300" height="600"/>
<rect x="1000" y="1000" class="st1" width="300" height="300"/>
<rect x="1300" y="1000" class="st2" width="300" height="300"/>
<rect x="1600" y="1000" class="st3" width="300" height="300"/>
<rect x="1900" y="1000" class="st4" width="300" height="300"/>
<rect x="1000" y="1300" class="st5" width="300" height="300"/>
<rect x="1300" y="1300" class="st6" width="300" height="300"/>
<rect x="1600" y="1300" class="st7" width="300" height="300"/>
<rect x="1900" y="1300" class="st8" width="300" height="300"/>
<rect class="st9" width="1000" height="1000"/>
<g>
	<rect x="1000" class="st10" width="300" height="100"/>
	<rect x="1300" class="st11" width="300" height="100"/>
</g>
<rect x="1600" class="st12" width="600" height="500"/>
<g>
	<path class="st12" d="M17.6,21.9h2.1v16.8h-2.1V21.9z"/>
	<path class="st12" d="M23,38.7V21.9h1.9l9,13v-13h2v16.8H34l-9-13v13H23z"/>
	<path class="st12" d="M39.2,21.9h10.4v1.9h-8.4v5.6h6.9v1.9h-6.9v7.3h-2.1V21.9z"/>
	<path class="st12" d="M58.6,38.8c-4.7,0-8-3.6-8-8.5s3.3-8.5,8-8.5s8,3.6,8,8.5S63.4,38.8,58.6,38.8z M58.6,36.9
		c3.5,0,5.9-2.8,5.9-6.6s-2.4-6.6-5.9-6.6s-5.9,2.8-5.9,6.6S55.1,36.9,58.6,36.9z"/>
	<path class="st12" d="M69.3,21.9H80v1.9h-8.6v5.4h7.2v1.9h-7.2v5.7h8.9v1.9h-11V21.9z"/>
	<path class="st12" d="M82,29.9c0-4.8,2.6-8.2,6.4-8.2c3.8,0,6.4,3.4,6.4,8.2v0.8c0,5-2.6,8.2-6.4,8.2c-3.8,0-6.4-3.1-6.4-8.2V29.9z
		 M92.8,30c0-4-1.7-6.4-4.3-6.4c-2.6,0-4.3,2.4-4.3,6.4v0.6c0,4,1.7,6.4,4.3,6.4c2.6,0,4.3-2.4,4.3-6.4V30z"/>
	<path class="st12" d="M96.4,37l6.5-5.7c1.6-1.3,2.9-2.6,2.9-4.5c0-2.1-1.4-3.3-3.7-3.3c-2.2,0-3.6,1.4-3.6,3.7v0.3h-2v-0.4
		c0-3.2,2.2-5.4,5.6-5.4c3.6,0,5.7,2,5.7,5c0,2.5-1.6,4.1-3.6,5.8l-5,4.3h8.8v1.8H96.4V37z"/>
</g>
<g>
	<path class="st12" d="M17.6,1018.6h2.1v16.8h-2.1V1018.6z"/>
	<path class="st12" d="M23,1035.4v-16.8h1.9l9,13v-13h2v16.8H34l-9-13v13H23z"/>
	<path class="st12" d="M39.2,1018.6h10.4v1.9h-8.4v5.6h6.9v1.9h-6.9v7.3h-2.1V1018.6z"/>
	<path class="st12" d="M58.6,1035.5c-4.7,0-8-3.6-8-8.5s3.3-8.5,8-8.5s8,3.6,8,8.5S63.4,1035.5,58.6,1035.5z M58.6,1033.6
		c3.5,0,5.9-2.8,5.9-6.6s-2.4-6.6-5.9-6.6s-5.9,2.8-5.9,6.6S55.1,1033.6,58.6,1033.6z"/>
	<path class="st12" d="M69.3,1018.6H80v1.9h-8.6v5.4h7.2v1.9h-7.2v5.7h8.9v1.9h-11V1018.6z"/>
	<path class="st12" d="M82,1026.6c0-4.8,2.6-8.2,6.4-8.2c3.8,0,6.4,3.4,6.4,8.2v0.8c0,5-2.6,8.2-6.4,8.2c-3.8,0-6.4-3.1-6.4-8.2
		V1026.6z M92.8,1026.7c0-4-1.7-6.4-4.3-6.4c-2.6,0-4.3,2.4-4.3,6.4v0.6c0,4,1.7,6.4,4.3,6.4c2.6,0,4.3-2.4,4.3-6.4V1026.7z"/>
	<path class="st12" d="M99.8,1018.6h2v16.8h-2v-12c-0.2,0.2-0.6,0.3-1.2,0.3h-2.7v-1.8h2.7c0.8,0,1.2-0.6,1.2-1.4V1018.6z"/>
</g>
<g>
	<path class="st12" d="M1018.3,226.2h2.1V243h-2.1V226.2z"/>
	<path class="st12" d="M1023.6,243v-16.8h1.9l9,13v-13h2V243h-1.9l-9-13v13H1023.6z"/>
	<path class="st12" d="M1039.9,226.2h10.4v1.9h-8.4v5.6h6.9v1.9h-6.9v7.3h-2.1V226.2z"/>
	<path class="st12" d="M1059.3,243.1c-4.7,0-8-3.6-8-8.5s3.3-8.5,8-8.5s8,3.6,8,8.5S1064,243.1,1059.3,243.1z M1059.3,241.2
		c3.5,0,5.9-2.8,5.9-6.6s-2.4-6.6-5.9-6.6s-5.9,2.8-5.9,6.6S1055.8,241.2,1059.3,241.2z"/>
	<path class="st12" d="M1069.9,226.2h10.7v1.9h-8.6v5.4h7.2v1.9h-7.2v5.7h8.9v1.9h-11V226.2z"/>
	<path class="st12" d="M1082.7,234.2c0-4.8,2.6-8.2,6.4-8.2c3.8,0,6.4,3.4,6.4,8.2v0.8c0,5-2.6,8.2-6.4,8.2c-3.8,0-6.4-3.1-6.4-8.2
		V234.2z M1093.4,234.3c0-4-1.7-6.4-4.3-6.4c-2.6,0-4.3,2.4-4.3,6.4v0.6c0,4,1.7,6.4,4.3,6.4c2.6,0,4.3-2.4,4.3-6.4V234.3z"/>
	<path class="st12" d="M1100.5,226.2h2V243h-2v-12c-0.2,0.2-0.6,0.3-1.2,0.3h-2.7v-1.8h2.7c0.8,0,1.2-0.6,1.2-1.4V226.2z"/>
</g>
<g>
	<path class="st0" d="M716.6,1018.6h2.1v16.8h-2.1V1018.6z"/>
	<path class="st0" d="M722,1035.4v-16.8h1.9l9,13v-13h2v16.8H733l-9-13v13H722z"/>
	<path class="st0" d="M738.2,1018.6h10.4v1.9h-8.4v5.6h6.9v1.9h-6.9v7.3h-2.1V1018.6z"/>
	<path class="st0" d="M757.6,1035.5c-4.7,0-8-3.6-8-8.5s3.3-8.5,8-8.5s8,3.6,8,8.5S762.4,1035.5,757.6,1035.5z M757.6,1033.6
		c3.5,0,5.9-2.8,5.9-6.6s-2.4-6.6-5.9-6.6s-5.9,2.8-5.9,6.6S754.1,1033.6,757.6,1033.6z"/>
	<path class="st0" d="M768.3,1018.6H779v1.9h-8.6v5.4h7.2v1.9h-7.2v5.7h8.9v1.9h-11V1018.6z"/>
	<path class="st0" d="M781,1026.6c0-4.8,2.6-8.2,6.4-8.2c3.8,0,6.4,3.4,6.4,8.2v0.8c0,5-2.6,8.2-6.4,8.2c-3.8,0-6.4-3.1-6.4-8.2
		V1026.6z M791.8,1026.7c0-4-1.7-6.4-4.3-6.4c-2.6,0-4.3,2.4-4.3,6.4v0.6c0,4,1.7,6.4,4.3,6.4c2.6,0,4.3-2.4,4.3-6.4V1026.7z"/>
	<path class="st0" d="M795.9,1026.6c0-4.8,2.6-8.2,6.4-8.2c3.8,0,6.4,3.4,6.4,8.2v0.8c0,5-2.6,8.2-6.4,8.2c-3.8,0-6.4-3.1-6.4-8.2
		V1026.6z M806.6,1026.7c0-4-1.7-6.4-4.3-6.4c-2.6,0-4.3,2.4-4.3,6.4v0.6c0,4,1.7,6.4,4.3,6.4c2.6,0,4.3-2.4,4.3-6.4V1026.7z"/>
</g>
<g>
	<path class="st0" d="M1020.3,1018.6h2.1v16.8h-2.1V1018.6z"/>
	<path class="st0" d="M1025.6,1035.4v-16.8h1.9l9,13v-13h2v16.8h-1.9l-9-13v13H1025.6z"/>
	<path class="st0" d="M1041.9,1018.6h10.4v1.9h-8.4v5.6h6.9v1.9h-6.9v7.3h-2.1V1018.6z"/>
	<path class="st0" d="M1061.3,1035.5c-4.7,0-8-3.6-8-8.5s3.3-8.5,8-8.5s8,3.6,8,8.5S1066,1035.5,1061.3,1035.5z M1061.3,1033.6
		c3.5,0,5.9-2.8,5.9-6.6s-2.4-6.6-5.9-6.6s-5.9,2.8-5.9,6.6S1057.8,1033.6,1061.3,1033.6z"/>
	<path class="st0" d="M1071.9,1018.6h10.7v1.9h-8.6v5.4h7.2v1.9h-7.2v5.7h8.9v1.9h-11V1018.6z"/>
	<path class="st0" d="M1084.7,1026.6c0-4.8,2.6-8.2,6.4-8.2c3.8,0,6.4,3.4,6.4,8.2v0.8c0,5-2.6,8.2-6.4,8.2c-3.8,0-6.4-3.1-6.4-8.2
		V1026.6z M1095.4,1026.7c0-4-1.7-6.4-4.3-6.4c-2.6,0-4.3,2.4-4.3,6.4v0.6c0,4,1.7,6.4,4.3,6.4c2.6,0,4.3-2.4,4.3-6.4V1026.7z"/>
	<path class="st0" d="M1111.1,1030.7c0,2.9-2.4,4.8-6,4.8c-3.6,0-6-2-6-5.3h2c0,2.2,1.8,3.5,4.1,3.5c2.2,0,3.9-1.2,3.9-3.1
		c0-1.8-1.4-2.9-4.1-2.9h-1.4v-1.8h1.3c2.5,0,3.7-1.2,3.7-3s-1.5-2.8-3.6-2.8c-2.1,0-3.6,1.3-3.7,3.2h-2c0-3,2.3-5,5.6-5
		c3.5,0,5.6,1.8,5.6,4.4c0,2.1-1.1,3.3-2.7,3.8C1109.5,1027,1111.1,1028.2,1111.1,1030.7z"/>
</g>
<g>
	<path class="st0" d="M1322.3,1018.6h2.1v16.8h-2.1V1018.6z"/>
	<path class="st0" d="M1327.6,1035.4v-16.8h1.9l9,13v-13h2v16.8h-1.9l-9-13v13H1327.6z"/>
	<path class="st0" d="M1343.9,1018.6h10.4v1.9h-8.4v5.6h6.9v1.9h-6.9v7.3h-2.1V1018.6z"/>
	<path class="st0" d="M1363.3,1035.5c-4.7,0-8-3.6-8-8.5s3.3-8.5,8-8.5s8,3.6,8,8.5S1368,1035.5,1363.3,1035.5z M1363.3,1033.6
		c3.5,0,5.9-2.8,5.9-6.6s-2.4-6.6-5.9-6.6c-3.5,0-5.9,2.8-5.9,6.6S1359.8,1033.6,1363.3,1033.6z"/>
	<path class="st0" d="M1373.9,1018.6h10.7v1.9h-8.6v5.4h7.2v1.9h-7.2v5.7h8.9v1.9h-11V1018.6z"/>
	<path class="st0" d="M1386.7,1026.6c0-4.8,2.6-8.2,6.4-8.2c3.8,0,6.4,3.4,6.4,8.2v0.8c0,5-2.6,8.2-6.4,8.2c-3.8,0-6.4-3.1-6.4-8.2
		V1026.6z M1397.4,1026.7c0-4-1.7-6.4-4.3-6.4c-2.6,0-4.3,2.4-4.3,6.4v0.6c0,4,1.7,6.4,4.3,6.4c2.6,0,4.3-2.4,4.3-6.4V1026.7z"/>
	<path class="st0" d="M1400.8,1029.5l8.6-10.9h2.3v10.8h2.7v1.8h-2.7v4.1h-2v-4.1h-8.8V1029.5z M1403,1029.4h6.6v-8.4L1403,1029.4z"
		/>
</g>
<g>
	<path class="st0" d="M1624.3,1018.6h2.1v16.8h-2.1V1018.6z"/>
	<path class="st0" d="M1629.6,1035.4v-16.8h1.9l9,13v-13h2v16.8h-1.9l-9-13v13H1629.6z"/>
	<path class="st0" d="M1645.9,1018.6h10.4v1.9h-8.4v5.6h6.9v1.9h-6.9v7.3h-2.1V1018.6z"/>
	<path class="st0" d="M1665.3,1035.5c-4.7,0-8-3.6-8-8.5s3.3-8.5,8-8.5s8,3.6,8,8.5S1670,1035.5,1665.3,1035.5z M1665.3,1033.6
		c3.5,0,5.9-2.8,5.9-6.6s-2.4-6.6-5.9-6.6c-3.5,0-5.9,2.8-5.9,6.6S1661.8,1033.6,1665.3,1033.6z"/>
	<path class="st0" d="M1675.9,1018.6h10.7v1.9h-8.6v5.4h7.2v1.9h-7.2v5.7h8.9v1.9h-11V1018.6z"/>
	<path class="st0" d="M1688.7,1026.6c0-4.8,2.6-8.2,6.4-8.2c3.8,0,6.4,3.4,6.4,8.2v0.8c0,5-2.6,8.2-6.4,8.2c-3.8,0-6.4-3.1-6.4-8.2
		V1026.6z M1699.4,1026.7c0-4-1.7-6.4-4.3-6.4c-2.6,0-4.3,2.4-4.3,6.4v0.6c0,4,1.7,6.4,4.3,6.4c2.6,0,4.3-2.4,4.3-6.4V1026.7z"/>
	<path class="st0" d="M1715.4,1029.8c0,3.7-2.7,5.7-5.9,5.7c-3.7,0-5.9-2.4-6.1-5.4h2c0.2,1.9,1.7,3.6,4.1,3.6c2,0,3.8-1.3,3.8-3.9
		c0-2.3-1.5-3.9-3.8-3.9c-1,0-3.1,0.3-3.8,2.3l-1.9,0l0.6-9.6h10.1v1.8h-8.2l-0.4,5.3c1-1.2,2.5-1.6,4-1.6
		C1713.1,1024.1,1715.4,1026.4,1715.4,1029.8z"/>
</g>
<g>
	<path class="st0" d="M1923.3,1018.6h2.1v16.8h-2.1V1018.6z"/>
	<path class="st0" d="M1928.6,1035.4v-16.8h1.9l9,13v-13h2v16.8h-1.9l-9-13v13H1928.6z"/>
	<path class="st0" d="M1944.9,1018.6h10.4v1.9h-8.4v5.6h6.9v1.9h-6.9v7.3h-2.1V1018.6z"/>
	<path class="st0" d="M1964.3,1035.5c-4.7,0-8-3.6-8-8.5s3.3-8.5,8-8.5s8,3.6,8,8.5S1969,1035.5,1964.3,1035.5z M1964.3,1033.6
		c3.5,0,5.9-2.8,5.9-6.6s-2.4-6.6-5.9-6.6c-3.5,0-5.9,2.8-5.9,6.6S1960.8,1033.6,1964.3,1033.6z"/>
	<path class="st0" d="M1974.9,1018.6h10.7v1.9h-8.6v5.4h7.2v1.9h-7.2v5.7h8.9v1.9h-11V1018.6z"/>
	<path class="st0" d="M1987.7,1026.6c0-4.8,2.6-8.2,6.4-8.2c3.8,0,6.4,3.4,6.4,8.2v0.8c0,5-2.6,8.2-6.4,8.2c-3.8,0-6.4-3.1-6.4-8.2
		V1026.6z M1998.4,1026.7c0-4-1.7-6.4-4.3-6.4c-2.6,0-4.3,2.4-4.3,6.4v0.6c0,4,1.7,6.4,4.3,6.4c2.6,0,4.3-2.4,4.3-6.4V1026.7z"/>
	<path class="st0" d="M2002.5,1027.1c0-5.3,2.4-8.6,6.4-8.6c3,0,5.1,1.8,5.5,4.6h-2c-0.4-1.7-1.6-2.9-3.6-2.9
		c-2.9,0-4.5,2.7-4.5,6.5c0,0.2,0,0.4,0,0.8c0-0.1,0-0.2,0.1-0.5c0.7-1.7,2.4-2.8,4.7-2.8c3.3,0,5.6,2.2,5.6,5.6
		c0,3.2-2.4,5.6-5.8,5.6c-2.3,0-4-1.1-5.1-2.8C2003,1031.3,2002.5,1029.3,2002.5,1027.1z M2008.9,1026.1c-2.3,0-3.9,1.6-3.9,3.9
		c0,2.3,1.5,3.8,3.8,3.8c2.3,0,3.8-1.6,3.8-3.9C2012.7,1027.7,2011.3,1026.1,2008.9,1026.1z"/>
</g>
<g>
	<path class="st0" d="M1020.3,1318.1h2.1v16.8h-2.1V1318.1z"/>
	<path class="st0" d="M1025.6,1334.9v-16.8h1.9l9,13v-13h2v16.8h-1.9l-9-13v13H1025.6z"/>
	<path class="st0" d="M1041.9,1318.1h10.4v1.9h-8.4v5.6h6.9v1.9h-6.9v7.3h-2.1V1318.1z"/>
	<path class="st0" d="M1061.3,1335c-4.7,0-8-3.6-8-8.5s3.3-8.5,8-8.5s8,3.6,8,8.5S1066,1335,1061.3,1335z M1061.3,1333.1
		c3.5,0,5.9-2.8,5.9-6.6s-2.4-6.6-5.9-6.6c-3.5,0-5.9,2.8-5.9,6.6S1057.8,1333.1,1061.3,1333.1z"/>
	<path class="st0" d="M1071.9,1318.1h10.7v1.9h-8.6v5.4h7.2v1.9h-7.2v5.7h8.9v1.9h-11V1318.1z"/>
	<path class="st0" d="M1084.7,1326.1c0-4.8,2.6-8.2,6.4-8.2c3.8,0,6.4,3.4,6.4,8.2v0.8c0,5-2.6,8.2-6.4,8.2c-3.8,0-6.4-3.1-6.4-8.2
		V1326.1z M1095.4,1326.2c0-4-1.7-6.4-4.3-6.4c-2.6,0-4.3,2.4-4.3,6.4v0.6c0,4,1.7,6.4,4.3,6.4c2.6,0,4.3-2.4,4.3-6.4V1326.2z"/>
	<path class="st0" d="M1098.2,1318.1h11.9v1.4l-8.3,15.4h-2.2l8.2-15h-9.6V1318.1z"/>
</g>
<g>
	<path class="st0" d="M1322.3,1318.1h2.1v16.8h-2.1V1318.1z"/>
	<path class="st0" d="M1327.6,1334.9v-16.8h1.9l9,13v-13h2v16.8h-1.9l-9-13v13H1327.6z"/>
	<path class="st0" d="M1343.9,1318.1h10.4v1.9h-8.4v5.6h6.9v1.9h-6.9v7.3h-2.1V1318.1z"/>
	<path class="st0" d="M1363.3,1335c-4.7,0-8-3.6-8-8.5s3.3-8.5,8-8.5s8,3.6,8,8.5S1368,1335,1363.3,1335z M1363.3,1333.1
		c3.5,0,5.9-2.8,5.9-6.6s-2.4-6.6-5.9-6.6c-3.5,0-5.9,2.8-5.9,6.6S1359.8,1333.1,1363.3,1333.1z"/>
	<path class="st0" d="M1373.9,1318.1h10.7v1.9h-8.6v5.4h7.2v1.9h-7.2v5.7h8.9v1.9h-11V1318.1z"/>
	<path class="st0" d="M1386.7,1326.1c0-4.8,2.6-8.2,6.4-8.2c3.8,0,6.4,3.4,6.4,8.2v0.8c0,5-2.6,8.2-6.4,8.2c-3.8,0-6.4-3.1-6.4-8.2
		V1326.1z M1397.4,1326.2c0-4-1.7-6.4-4.3-6.4c-2.6,0-4.3,2.4-4.3,6.4v0.6c0,4,1.7,6.4,4.3,6.4c2.6,0,4.3-2.4,4.3-6.4V1326.2z"/>
	<path class="st0" d="M1413.7,1330.4c0,2.7-2.3,4.7-6.1,4.7c-3.8,0-6.1-1.9-6.1-4.7c0-2.3,1.5-3.7,3.4-4.2c-1.6-0.4-2.9-1.8-2.9-3.8
		c0-2.6,2.2-4.5,5.6-4.5c3.4,0,5.6,1.8,5.6,4.5c0,1.9-1.2,3.4-2.9,3.8C1412.2,1326.6,1413.7,1328.1,1413.7,1330.4z M1411.6,1330.2
		c0-1.8-1.7-3-4.1-3s-4.1,1.3-4.1,3c0,1.8,1.7,3.1,4.1,3.1C1410,1333.3,1411.6,1332,1411.6,1330.2z M1407.6,1325.2
		c2.2,0,3.6-1.1,3.6-2.8c0-1.6-1.4-2.7-3.6-2.7s-3.6,1.1-3.6,2.7C1404,1324.1,1405.4,1325.2,1407.6,1325.2z"/>
</g>
<g>
	<path class="st12" d="M1624.3,1318.1h2.1v16.8h-2.1V1318.1z"/>
	<path class="st12" d="M1629.6,1334.9v-16.8h1.9l9,13v-13h2v16.8h-1.9l-9-13v13H1629.6z"/>
	<path class="st12" d="M1645.9,1318.1h10.4v1.9h-8.4v5.6h6.9v1.9h-6.9v7.3h-2.1V1318.1z"/>
	<path class="st12" d="M1665.3,1335c-4.7,0-8-3.6-8-8.5s3.3-8.5,8-8.5s8,3.6,8,8.5S1670,1335,1665.3,1335z M1665.3,1333.1
		c3.5,0,5.9-2.8,5.9-6.6s-2.4-6.6-5.9-6.6s-5.9,2.8-5.9,6.6S1661.8,1333.1,1665.3,1333.1z"/>
	<path class="st12" d="M1675.9,1318.1h10.7v1.9h-8.6v5.4h7.2v1.9h-7.2v5.7h8.9v1.9h-11V1318.1z"/>
	<path class="st12" d="M1688.7,1326.1c0-4.8,2.6-8.2,6.4-8.2c3.8,0,6.4,3.4,6.4,8.2v0.8c0,5-2.6,8.2-6.4,8.2c-3.8,0-6.4-3.1-6.4-8.2
		V1326.1z M1699.4,1326.2c0-4-1.7-6.4-4.3-6.4c-2.6,0-4.3,2.4-4.3,6.4v0.6c0,4,1.7,6.4,4.3,6.4c2.6,0,4.3-2.4,4.3-6.4V1326.2z"/>
	<path class="st12" d="M1703.7,1330.4h2c0.4,1.7,1.6,2.9,3.6,2.9c2.9,0,4.5-2.7,4.5-6.5c0-0.2,0-0.4,0-0.8c0,0.1,0,0.2-0.1,0.5
		c-0.7,1.7-2.4,2.8-4.7,2.8c-3.3,0-5.6-2.2-5.6-5.6c0-3.2,2.4-5.6,5.8-5.6c2.3,0,4,1.1,5.1,2.8c0.8,1.5,1.3,3.5,1.3,5.7
		c0,5.3-2.4,8.6-6.4,8.6C1706.2,1335,1704.1,1333.2,1703.7,1330.4z M1713.1,1323.5c0-2.3-1.5-3.8-3.8-3.8c-2.3,0-3.8,1.6-3.8,3.9
		c0,2.2,1.4,3.8,3.8,3.8S1713.1,1325.8,1713.1,1323.5z"/>
</g>
<g>
	<path class="st12" d="M1923.3,1318.1h2.1v16.8h-2.1V1318.1z"/>
	<path class="st12" d="M1928.6,1334.9v-16.8h1.9l9,13v-13h2v16.8h-1.9l-9-13v13H1928.6z"/>
	<path class="st12" d="M1944.9,1318.1h10.4v1.9h-8.4v5.6h6.9v1.9h-6.9v7.3h-2.1V1318.1z"/>
	<path class="st12" d="M1964.3,1335c-4.7,0-8-3.6-8-8.5s3.3-8.5,8-8.5s8,3.6,8,8.5S1969,1335,1964.3,1335z M1964.3,1333.1
		c3.5,0,5.9-2.8,5.9-6.6s-2.4-6.6-5.9-6.6c-3.5,0-5.9,2.8-5.9,6.6S1960.8,1333.1,1964.3,1333.1z"/>
	<path class="st12" d="M1974.9,1318.1h10.7v1.9h-8.6v5.4h7.2v1.9h-7.2v5.7h8.9v1.9h-11V1318.1z"/>
	<path class="st12" d="M1990.7,1318.1h2v16.8h-2v-12c-0.2,0.2-0.6,0.3-1.2,0.3h-2.7v-1.8h2.7c0.8,0,1.2-0.6,1.2-1.4V1318.1z"/>
	<path class="st12" d="M1995.3,1326.1c0-4.8,2.6-8.2,6.4-8.2c3.8,0,6.4,3.4,6.4,8.2v0.8c0,5-2.6,8.2-6.4,8.2c-3.8,0-6.4-3.1-6.4-8.2
		V1326.1z M2006,1326.2c0-4-1.7-6.4-4.3-6.4c-2.6,0-4.3,2.4-4.3,6.4v0.6c0,4,1.7,6.4,4.3,6.4c2.6,0,4.3-2.4,4.3-6.4V1326.2z"/>
</g>
<g>
	<path class="st0" d="M1019.7,30.3c0-5.1,3.1-8.5,8-8.5c3.7,0,6.4,2.2,7.1,5.6h-2.2c-0.6-2.3-2.4-3.7-4.9-3.7
		c-3.5,0-5.8,2.7-5.8,6.6c0,3.9,2.2,6.6,5.7,6.6c2.6,0,4.4-1.4,5-3.7h2.2c-0.6,3.5-3.4,5.6-7.2,5.6
		C1022.7,38.8,1019.7,35.4,1019.7,30.3z"/>
	<path class="st0" d="M1037.2,38.7V21.9h2.1v13.3l9-13.3h1.9v16.8h-2.1V25.4l-9,13.3H1037.2z"/>
	<path class="st0" d="M1053.5,21.9h2.1v7.3h8.7v-7.3h2.1v16.8h-2.1v-7.6h-8.7v7.6h-2.1V21.9z"/>
	<path class="st0" d="M1069.6,38.7V21.9h2.1v13.3l9-13.3h1.9v16.8h-2.1V25.4l-9,13.3H1069.6z"/>
	<path class="st0" d="M1085.9,38.7V21.9h2.1v13.3l9-13.3h1.9v16.8h-2.1V25.4l-9,13.3H1085.9z M1088.9,17.2h1.6
		c0,1.2,0.5,1.9,1.9,1.9s1.9-0.7,1.9-1.9h1.6c0,2-1.3,3.3-3.6,3.3C1090.1,20.5,1089,19.2,1088.9,17.2z"/>
	<path class="st0" d="M1108.5,21.9h6c3.6,0,5.6,1.7,5.6,4.4c0,1.9-1.1,3.1-2.6,3.6c1.8,0.3,3.3,1.5,3.3,3.9c0,3-2.1,4.8-6.1,4.8
		h-6.1V21.9z M1110.6,23.8v5.4h4c2.2,0,3.4-1,3.4-2.7c0-1.7-1.2-2.7-3.4-2.7H1110.6z M1110.6,31v5.7h4c2.6,0,4-1.1,4-2.8
		c0-1.9-1.5-2.9-4-2.9H1110.6z"/>
	<path class="st0" d="M1123.4,21.9h10.7v1.9h-8.6v5.4h7.2v1.9h-7.2v5.7h8.9v1.9h-11V21.9z"/>
	<path class="st0" d="M1136.1,29.9c0-4.8,2.6-8.2,6.4-8.2c3.8,0,6.4,3.4,6.4,8.2v0.8c0,5-2.6,8.2-6.4,8.2c-3.8,0-6.4-3.1-6.4-8.2
		V29.9z M1146.8,30c0-4-1.7-6.4-4.3-6.4c-2.6,0-4.3,2.4-4.3,6.4v0.6c0,4,1.7,6.4,4.3,6.4c2.6,0,4.3-2.4,4.3-6.4V30z"/>
	<path class="st0" d="M1150.4,37l6.5-5.7c1.6-1.3,2.9-2.6,2.9-4.5c0-2.1-1.4-3.3-3.7-3.3c-2.2,0-3.6,1.4-3.6,3.7v0.3h-2v-0.4
		c0-3.2,2.2-5.4,5.6-5.4c3.6,0,5.7,2,5.7,5c0,2.5-1.6,4.1-3.6,5.8l-5,4.3h8.8v1.8h-11.6V37z"/>
</g>
<g>
	<path class="st0" d="M1321.7,30.3c0-5.1,3.1-8.5,8-8.5c3.7,0,6.4,2.2,7.1,5.6h-2.2c-0.6-2.3-2.4-3.7-4.9-3.7
		c-3.5,0-5.8,2.7-5.8,6.6c0,3.9,2.2,6.6,5.7,6.6c2.6,0,4.4-1.4,5-3.7h2.2c-0.6,3.5-3.4,5.6-7.2,5.6
		C1324.7,38.8,1321.7,35.4,1321.7,30.3z"/>
	<path class="st0" d="M1339.2,38.7V21.9h2.1v13.3l9-13.3h1.9v16.8h-2.1V25.4l-9,13.3H1339.2z"/>
	<path class="st0" d="M1355.5,21.9h2.1v7.3h8.7v-7.3h2.1v16.8h-2.1v-7.6h-8.7v7.6h-2.1V21.9z"/>
	<path class="st0" d="M1371.7,38.7V21.9h2.1v13.3l9-13.3h1.9v16.8h-2.1V25.4l-9,13.3H1371.7z"/>
	<path class="st0" d="M1387.9,38.7V21.9h2.1v13.3l9-13.3h1.9v16.8h-2.1V25.4l-9,13.3H1387.9z M1390.9,17.2h1.6
		c0,1.2,0.5,1.9,1.9,1.9s1.9-0.7,1.9-1.9h1.6c0,2-1.3,3.3-3.6,3.3C1392.1,20.5,1391,19.2,1390.9,17.2z"/>
	<path class="st0" d="M1410.5,21.9h6c3.6,0,5.6,1.7,5.6,4.4c0,1.9-1.1,3.1-2.6,3.6c1.8,0.3,3.3,1.5,3.3,3.9c0,3-2.1,4.8-6.1,4.8
		h-6.1V21.9z M1412.6,23.8v5.4h4c2.2,0,3.4-1,3.4-2.7c0-1.7-1.2-2.7-3.4-2.7H1412.6z M1412.6,31v5.7h4c2.6,0,4-1.1,4-2.8
		c0-1.9-1.5-2.9-4-2.9H1412.6z"/>
	<path class="st0" d="M1425.4,21.9h10.7v1.9h-8.6v5.4h7.2v1.9h-7.2v5.7h8.9v1.9h-11V21.9z"/>
	<path class="st0" d="M1438.1,29.9c0-4.8,2.6-8.2,6.4-8.2c3.8,0,6.4,3.4,6.4,8.2v0.8c0,5-2.6,8.2-6.4,8.2c-3.8,0-6.4-3.1-6.4-8.2
		V29.9z M1448.8,30c0-4-1.7-6.4-4.3-6.4c-2.6,0-4.3,2.4-4.3,6.4v0.6c0,4,1.7,6.4,4.3,6.4c2.6,0,4.3-2.4,4.3-6.4V30z"/>
	<path class="st0" d="M1464.5,34c0,2.9-2.4,4.8-6,4.8s-6-2-6-5.3h2c0,2.2,1.8,3.5,4.1,3.5c2.2,0,3.9-1.2,3.9-3.1
		c0-1.8-1.4-2.9-4.1-2.9h-1.4v-1.8h1.3c2.5,0,3.7-1.2,3.7-3s-1.5-2.8-3.6-2.8c-2.1,0-3.6,1.3-3.7,3.2h-2c0-3,2.3-5,5.6-5
		c3.5,0,5.6,1.8,5.6,4.4c0,2.1-1.1,3.3-2.7,3.8C1462.9,30.2,1464.5,31.4,1464.5,34z"/>
</g>
<g>
	<path class="st0" d="M1623.1,21.9h13v1.9h-5.4v14.9h-2.1V23.8h-5.4V21.9z"/>
	<path class="st0" d="M1638.2,21.9h10.7v1.9h-8.6v5.4h7.2v1.9h-7.2v5.7h8.9v1.9h-11V21.9z"/>
	<path class="st0" d="M1651.6,21.9h2.6l6,13.9l5.9-13.9h2.6v16.8h-2V25.4l-5.6,13.2h-1.8l-5.6-13.2v13.2h-2V21.9z"/>
	<path class="st0" d="M1671.9,21.9h2.1v7.3h8.7v-7.3h2.1v16.8h-2.1v-7.6h-8.7v7.6h-2.1V21.9z"/>
	<path class="st0" d="M1695.4,38.8c-4.7,0-8-3.6-8-8.5s3.3-8.5,8-8.5s8,3.6,8,8.5S1700.2,38.8,1695.4,38.8z M1695.4,36.9
		c3.5,0,5.9-2.8,5.9-6.6s-2.4-6.6-5.9-6.6c-3.5,0-5.9,2.8-5.9,6.6S1691.9,36.9,1695.4,36.9z"/>
	<path class="st0" d="M1706.1,31v-1.8h8V31H1706.1z"/>
	<path class="st0" d="M1716.7,30.3c0-5.1,3.1-8.5,8-8.5c3.7,0,6.4,2.2,7.1,5.6h-2.2c-0.6-2.3-2.4-3.7-4.9-3.7
		c-3.5,0-5.8,2.7-5.8,6.6c0,3.9,2.2,6.6,5.7,6.6c2.6,0,4.4-1.4,5-3.7h2.2c-0.6,3.5-3.4,5.6-7.2,5.6
		C1719.7,38.8,1716.7,35.4,1716.7,30.3z"/>
	<path class="st0" d="M1734.2,38.7V21.9h2.1v13.3l9-13.3h1.9v16.8h-2.1V25.4l-9,13.3H1734.2z"/>
	<path class="st0" d="M1750.5,21.9h2.1v7.3h8.7v-7.3h2.1v16.8h-2.1v-7.6h-8.7v7.6h-2.1V21.9z"/>
	<path class="st0" d="M1766.7,38.7V21.9h2.1v13.3l9-13.3h1.9v16.8h-2.1V25.4l-9,13.3H1766.7z"/>
	<path class="st0" d="M1783,38.7V21.9h2.1v13.3l9-13.3h1.9v16.8h-2.1V25.4l-9,13.3H1783z M1786,17.2h1.6c0,1.2,0.5,1.9,1.9,1.9
		s1.9-0.7,1.9-1.9h1.6c0,2-1.3,3.3-3.6,3.3C1787.2,20.5,1786,19.2,1786,17.2z"/>
	<path class="st0" d="M1805.6,38.7V21.9h5.4c5.3,0,8.4,3.4,8.4,8.4c0,5-3.2,8.4-8.4,8.4H1805.6z M1807.6,36.8h3.3
		c4.1,0,6.3-2.6,6.3-6.5c0-3.9-2.2-6.5-6.3-6.5h-3.3V36.8z"/>
	<path class="st0" d="M1822,21.9h6c3.6,0,5.6,1.7,5.6,4.4c0,1.9-1.1,3.1-2.6,3.6c1.8,0.3,3.3,1.5,3.3,3.9c0,3-2.1,4.8-6.1,4.8h-6.1
		V21.9z M1824.1,23.8v5.4h4c2.2,0,3.4-1,3.4-2.7c0-1.7-1.2-2.7-3.4-2.7H1824.1z M1824.1,31v5.7h4c2.6,0,4-1.1,4-2.8
		c0-1.9-1.5-2.9-4-2.9H1824.1z"/>
	<path class="st0" d="M1836.2,29.9c0-4.8,2.6-8.2,6.4-8.2c3.8,0,6.4,3.4,6.4,8.2v0.8c0,5-2.6,8.2-6.4,8.2c-3.8,0-6.4-3.1-6.4-8.2
		V29.9z M1847,30c0-4-1.7-6.4-4.3-6.4c-2.6,0-4.3,2.4-4.3,6.4v0.6c0,4,1.7,6.4,4.3,6.4c2.6,0,4.3-2.4,4.3-6.4V30z"/>
	<path class="st0" d="M1854,21.9h2v16.8h-2v-12c-0.2,0.2-0.6,0.3-1.2,0.3h-2.7v-1.8h2.7c0.8,0,1.2-0.6,1.2-1.4V21.9z"/>
</g>
<rect x="1600" y="500" class="st12" width="600" height="500"/>
<g>
	<rect x="1300" y="100" class="st13" width="300" height="100"/>
	<g>
		<rect x="1000" y="100" class="st14" width="300" height="100"/>
		<g>
			<path class="st0" d="M1020.3,138.7v-16.8h2.1v7.3h3.1l5.5-7.3h2.4l-6.2,8.1l6.6,8.7h-2.5l-5.8-7.6h-3.1v7.6H1020.3z"/>
			<path class="st0" d="M1035.8,121.9h6.5c3.4,0,5.6,2,5.6,5.2c0,3.1-2.2,5.2-5.6,5.2h-4.4v6.5h-2.1V121.9z M1037.9,123.8v6.5h4.2
				c2.2,0,3.6-1.3,3.6-3.3s-1.4-3.2-3.6-3.2H1037.9z"/>
			<path class="st0" d="M1046.8,138.7l6.4-16.8h2.5l6.4,16.8h-2.2l-1.8-4.5h-7.3l-1.8,4.5H1046.8z M1051.4,132.2h6.1l-3-8.1
				L1051.4,132.2z"/>
			<path class="st0" d="M1062.6,130.3c0-5.1,3.1-8.5,8-8.5c3.7,0,6.4,2.2,7.1,5.6h-2.2c-0.6-2.3-2.4-3.7-4.9-3.7
				c-3.5,0-5.8,2.7-5.8,6.6c0,3.9,2.2,6.6,5.7,6.6c2.6,0,4.4-1.4,5-3.7h2.2c-0.6,3.5-3.4,5.6-7.2,5.6
				C1065.7,138.8,1062.6,135.4,1062.6,130.3z"/>
			<path class="st0" d="M1080.2,121.9h2.1v7.3h8.7v-7.3h2.1v16.8h-2.1v-7.6h-8.7v7.6h-2.1V121.9z"/>
			<path class="st0" d="M1096.3,138.7v-16.8h2.1v6.4h4.2c3.3,0,5.5,2.2,5.5,5.2c0,3-2.2,5.2-5.5,5.2H1096.3z M1098.4,136.8h4
				c2.2,0,3.6-1.3,3.6-3.3c0-2-1.4-3.3-3.6-3.3h-4V136.8z M1110.3,138.7v-16.8h2.1v16.8H1110.3z"/>
			<path class="st0" d="M1115.7,138.7v-16.8h2.1v13.3l9-13.3h1.9v16.8h-2.1v-13.3l-9,13.3H1115.7z M1118.7,117.2h1.6
				c0,1.2,0.5,1.9,1.9,1.9s1.9-0.7,1.9-1.9h1.6c0,2-1.3,3.3-3.6,3.3C1119.9,120.5,1118.7,119.2,1118.7,117.2z"/>
			<path class="st0" d="M1138.3,121.9h6.4c3.4,0,5.6,2,5.6,5.2c0,2.4-1.4,4.2-3.6,4.8l3.8,6.9h-2.4l-3.6-6.5h-4.2v6.5h-2.1V121.9z
				 M1140.4,123.8v6.5h4.2c2.2,0,3.6-1.3,3.6-3.3c0-2-1.4-3.2-3.6-3.2H1140.4z"/>
			<path class="st0" d="M1152.9,121.9h10.7v1.9h-8.6v5.4h7.2v1.9h-7.2v5.7h8.9v1.9h-11V121.9z"/>
			<path class="st0" d="M1165.7,129.9c0-4.8,2.6-8.2,6.4-8.2c3.8,0,6.4,3.4,6.4,8.2v0.8c0,5-2.6,8.2-6.4,8.2c-3.8,0-6.4-3.1-6.4-8.2
				V129.9z M1176.4,130c0-4-1.7-6.4-4.3-6.4c-2.6,0-4.3,2.4-4.3,6.4v0.6c0,4,1.7,6.4,4.3,6.4c2.6,0,4.3-2.4,4.3-6.4V130z"/>
			<path class="st0" d="M1183.5,121.9h2v16.8h-2v-12c-0.2,0.2-0.6,0.3-1.2,0.3h-2.7v-1.8h2.7c0.8,0,1.2-0.6,1.2-1.4V121.9z"/>
		</g>
	</g>
	<g>
		<path class="st0" d="M1322.3,138.7v-16.8h2.1v7.3h3.1l5.5-7.3h2.4l-6.2,8.1l6.6,8.7h-2.5l-5.8-7.6h-3.1v7.6H1322.3z"/>
		<path class="st0" d="M1337.8,121.9h6.5c3.4,0,5.6,2,5.6,5.2c0,3.1-2.2,5.2-5.6,5.2h-4.4v6.5h-2.1V121.9z M1339.9,123.8v6.5h4.2
			c2.2,0,3.6-1.3,3.6-3.3s-1.4-3.2-3.6-3.2H1339.9z"/>
		<path class="st0" d="M1348.8,138.7l6.4-16.8h2.5l6.4,16.8h-2.2l-1.8-4.5h-7.3l-1.8,4.5H1348.8z M1353.4,132.2h6.1l-3-8.1
			L1353.4,132.2z"/>
		<path class="st0" d="M1364.6,130.3c0-5.1,3.1-8.5,8-8.5c3.7,0,6.4,2.2,7.1,5.6h-2.2c-0.6-2.3-2.4-3.7-4.9-3.7
			c-3.5,0-5.8,2.7-5.8,6.6c0,3.9,2.2,6.6,5.7,6.6c2.6,0,4.4-1.4,5-3.7h2.2c-0.6,3.5-3.4,5.6-7.2,5.6
			C1367.7,138.8,1364.6,135.4,1364.6,130.3z"/>
		<path class="st0" d="M1382.2,121.9h2.1v7.3h8.7v-7.3h2.1v16.8h-2.1v-7.6h-8.7v7.6h-2.1V121.9z"/>
		<path class="st0" d="M1398.3,138.7v-16.8h2.1v6.4h4.2c3.3,0,5.5,2.2,5.5,5.2c0,3-2.2,5.2-5.5,5.2H1398.3z M1400.4,136.8h4
			c2.2,0,3.6-1.3,3.6-3.3c0-2-1.4-3.3-3.6-3.3h-4V136.8z M1412.3,138.7v-16.8h2.1v16.8H1412.3z"/>
		<path class="st0" d="M1417.7,138.7v-16.8h2.1v13.3l9-13.3h1.9v16.8h-2.1v-13.3l-9,13.3H1417.7z M1420.7,117.2h1.6
			c0,1.2,0.5,1.9,1.9,1.9s1.9-0.7,1.9-1.9h1.6c0,2-1.3,3.3-3.6,3.3C1421.9,120.5,1420.7,119.2,1420.7,117.2z"/>
		<path class="st0" d="M1440.3,121.9h6.4c3.4,0,5.6,2,5.6,5.2c0,2.4-1.4,4.2-3.6,4.8l3.8,6.9h-2.4l-3.6-6.5h-4.2v6.5h-2.1V121.9z
			 M1442.4,123.8v6.5h4.2c2.2,0,3.6-1.3,3.6-3.3c0-2-1.4-3.2-3.6-3.2H1442.4z"/>
		<path class="st0" d="M1454.9,121.9h10.7v1.9h-8.6v5.4h7.2v1.9h-7.2v5.7h8.9v1.9h-11V121.9z"/>
		<path class="st0" d="M1467.7,129.9c0-4.8,2.6-8.2,6.4-8.2c3.8,0,6.4,3.4,6.4,8.2v0.8c0,5-2.6,8.2-6.4,8.2c-3.8,0-6.4-3.1-6.4-8.2
			V129.9z M1478.4,130c0-4-1.7-6.4-4.3-6.4c-2.6,0-4.3,2.4-4.3,6.4v0.6c0,4,1.7,6.4,4.3,6.4c2.6,0,4.3-2.4,4.3-6.4V130z"/>
		<path class="st0" d="M1482,137l6.5-5.7c1.6-1.3,2.9-2.6,2.9-4.5c0-2.1-1.4-3.3-3.7-3.3c-2.2,0-3.6,1.4-3.6,3.7v0.3h-2v-0.4
			c0-3.2,2.2-5.4,5.6-5.4c3.6,0,5.7,2,5.7,5c0,2.5-1.6,4.1-3.6,5.8l-5,4.3h8.8v1.8H1482V137z"/>
	</g>
</g>
</svg>
