<?xml version="1.0" encoding="utf-8"?>
<!-- Generator: Adobe Illustrator 22.0.0, SVG Export Plug-In . SVG Version: 6.00 Build 0)  -->
<svg version="1.1" id="Layer_1" xmlns="http://www.w3.org/2000/svg" xmlns:xlink="http://www.w3.org/1999/xlink" x="0px" y="0px"
	 viewBox="0 0 2551.2 1417.5" style="enable-background:new 0 0 2551.2 1417.5;" xml:space="preserve">
<style type="text/css">
	.st0{fill:#F2F2F3;}
	.st1{opacity:0.7;fill:none;stroke:#000000;stroke-miterlimit:10;}
</style>
<rect x="1.1" y="0.1" class="st0" width="2551.2" height="1417.3"/>
<g>
	<g>
		<path d="M1305.3,114.2v5.2h-5.1v-5.2c-13.2-0.4-21.5-7.3-21.5-18.6c0-11.2,8.3-18.2,21.5-18.6v-5.2h5.1V77
			c13.2,0.4,21.5,7.3,21.5,18.6C1326.8,106.9,1318.5,113.7,1305.3,114.2z M1300.2,109.5V81.7c-10.4,0.4-16.2,5.5-16.2,13.9
			C1284,104,1289.7,109.1,1300.2,109.5z M1305.3,109.5c10.4-0.4,16.2-5.6,16.2-13.9s-5.7-13.5-16.2-13.9V109.5z"/>
		<path d="M1361.9,112.4v4.6h-2.7c-4.1,0-5.6-1.8-5.6-4.8c-2,2.8-5.1,5.2-10.4,5.2c-6.8,0-11.5-3.4-11.5-9.1c0-6.2,4.3-9.7,12.5-9.7
			h9.2v-2.1c0-4-2.9-6.5-7.7-6.5c-4.4,0-7.3,2.1-7.9,5.2h-5c0.7-6.1,5.7-9.7,13.2-9.7c7.9,0,12.5,4,12.5,11.2v13.6
			c0,1.6,0.6,2.1,2,2.1H1361.9z M1353.3,102.8h-9.6c-4.5,0-7,1.6-7,5.2c0,3,2.6,5.1,6.8,5.1c6.2,0,9.8-3.6,9.8-8.8V102.8z"/>
		<path d="M1365.8,117V85.9h6.2l12,25l11.8-25h6l0.1,31.1h-4.8V93.5l-11.2,23.5h-4l-11.2-23.5V117H1365.8z"/>
		<path d="M1408.6,117V85.9h4.9v23.5l18.5-23.5h4.4V117h-4.9V93.4L1413,117H1408.6z"/>
		<path d="M1440,117v-4.6h0.9c3.5,0,4.9-2.1,4.9-11.5V85.9h23.5V117h-5V90.5h-13.7v10.7c0,12.4-2.9,15.9-9,15.9H1440z"/>
		<path d="M1476.2,117V85.9h4.9v23.5l18.5-23.5h4.4V117h-4.9V93.4l-18.5,23.6H1476.2z"/>
		<path d="M1535.4,85.9V117h-5v-10.7h-8.3l-7.6,10.7h-5.9l8.5-11.3c-5-1.1-7.7-4.5-7.7-9.5c0-6.4,4.5-10.2,12.3-10.2H1535.4z
			 M1530.4,102V90.1h-8.5c-4.7,0-7.4,2-7.4,5.9c0,4,2.7,6,7.4,6H1530.4z"/>
		<path d="M1558.9,117V74.3h5.3v33.9l22.9-33.9h4.9V117h-5.3V83.1l-22.9,33.9H1558.9z"/>
		<path d="M1599.6,117V85.9h6.2l12,25l11.8-25h6l0.1,31.1h-4.8V93.5l-11.2,23.5h-4l-11.2-23.5V117H1599.6z"/>
		<path d="M1667,85.9V117h-5v-10.7h-8.3l-7.6,10.7h-5.9l8.5-11.3c-5-1.1-7.7-4.5-7.7-9.5c0-6.4,4.5-10.2,12.3-10.2H1667z M1662,102
			V90.1h-8.5c-4.7,0-7.4,2-7.4,5.9c0,4,2.7,6,7.4,6H1662z"/>
		<path d="M1709.4,117.4c-12,0-20.4-9.2-20.4-21.7s8.4-21.7,20.4-21.7c12,0,20.4,9.2,20.4,21.7S1721.4,117.4,1709.4,117.4z
			 M1709.4,112.5c8.9,0,14.9-7,14.9-16.8s-6-16.8-14.9-16.8c-8.9,0-14.9,7-14.9,16.8S1700.5,112.5,1709.4,112.5z"/>
		<path d="M1743.8,117V90.5h-11.2v-4.6h27.5v4.6h-11.2V117H1743.8z"/>
		<path d="M1784.3,85.9h5V117h-5v-12.5c-2.4,1.6-5.6,2.4-8.7,2.4c-7.6,0-12.2-3.3-12.2-11.3v-9.7h5v8.8c0,5.7,2.7,7.6,8.2,7.6
			c3,0,5.6-0.7,7.7-2.5V85.9z"/>
		<path d="M1795,101.4c0-9.5,6-15.9,14.8-15.9c8.8,0,14.5,5.6,14.8,14.8c0,0.7-0.1,1.4-0.1,2.1h-24.2v0.4c0.2,5.9,3.9,10.1,9.8,10.1
			c4.4,0,7.8-2.3,8.8-6.3h5.1c-1.2,6.2-6.3,10.8-13.5,10.8C1801.1,117.4,1795,111,1795,101.4z M1819.2,98.3
			c-0.5-5.4-4.1-8.4-9.3-8.4c-4.6,0-8.8,3.3-9.3,8.4H1819.2z"/>
		<path d="M1829.2,101.5c0-9.5,6.2-16,15.2-16c7.6,0,12.4,4.3,13.7,11.1h-5.2c-0.9-4.1-4-6.6-8.5-6.6c-6,0-10,4.8-10,11.5
			s4,11.4,10,11.4c4.5,0,7.5-2.6,8.5-6.5h5.3c-1.2,6.7-6.3,11-13.8,11C1835.2,117.4,1829.2,111.2,1829.2,101.5z"/>
		<path d="M1871,117V90.5h-11.2v-4.6h27.5v4.6H1876V117H1871z"/>
		<path d="M1891.3,117V85.9h13.2c7.7,0,11.4,3,11.4,8.4c0,3.9-2.6,6-5.1,6.6c3.6,0.5,6.3,2.8,6.3,7.1c0,6-4.3,9-12.4,9H1891.3z
			 M1896.3,99.1h8.7c4.1,0,5.9-1.7,5.9-4.5c0-3-1.8-4.5-5.9-4.5h-8.7V99.1z M1896.3,112.7h9.2c4.3,0,6.6-1.5,6.6-4.7
			c0-3-2.3-4.8-6.6-4.8h-9.2V112.7z"/>
		<path d="M1921.6,101.4c0-9.5,6.3-15.9,15.4-15.9c9.1,0,15.4,6.5,15.4,15.9c0,9.5-6.3,15.9-15.4,15.9
			C1927.9,117.4,1921.6,110.9,1921.6,101.4z M1947.3,101.4c0-6.6-4.1-11.5-10.3-11.5c-6.2,0-10.3,4.8-10.3,11.5
			c0,6.7,4.1,11.5,10.3,11.5C1943.2,112.9,1947.3,108.1,1947.3,101.4z"/>
		<path d="M1315.1,176.1h5.2v13.6h-5.3V181h-32.6v8.7h-5.3v-13.6h4c2.9-2.6,4.5-6.5,4.5-19v-18.8h29.5V176.1z M1309.8,176.1v-33.3
			h-19.2v14.9c0,9.9-1,14.9-3.4,18.4H1309.8z"/>
		<path d="M1323,165.4c0-9.5,6.3-15.9,15.4-15.9s15.4,6.5,15.4,15.9c0,9.5-6.3,15.9-15.4,15.9S1323,174.9,1323,165.4z M1348.7,165.4
			c0-6.6-4.1-11.5-10.3-11.5c-6.2,0-10.3,4.8-10.3,11.5c0,6.7,4.1,11.5,10.3,11.5C1344.6,176.9,1348.7,172.1,1348.7,165.4z"/>
		<path d="M1355.4,181v-4.6h0.9c3.5,0,4.9-2.1,4.9-11.5v-15.1h23.5V181h-5v-26.5h-13.7v10.7c0,12.4-2.9,15.9-9,15.9H1355.4z"/>
		<path d="M1388.3,181l11.8-16.1l-10.9-15h5.6l9.4,13h4.8v-13h4.9v13h4.8l9.4-13h5.6l-10.9,15l11.8,16.1h-5.7l-9.9-13.5h-5V181h-4.9
			v-13.5h-5L1394,181H1388.3z"/>
		<path d="M1460.6,149.9h5V181h-5v-13.5H1443V181h-5v-31.1h5v13h17.5V149.9z"/>
		<path d="M1471.3,165.4c0-9.5,6.3-15.9,15.4-15.9s15.4,6.5,15.4,15.9c0,9.5-6.3,15.9-15.4,15.9S1471.3,174.9,1471.3,165.4z
			 M1497,165.4c0-6.6-4.1-11.5-10.3-11.5c-6.2,0-10.3,4.8-10.3,11.5c0,6.7,4.1,11.5,10.3,11.5C1492.9,176.9,1497,172.1,1497,165.4z"
			/>
		<path d="M1506.8,165.5c0-9.5,6.2-16,15.2-16c7.6,0,12.4,4.3,13.7,11.1h-5.2c-0.9-4.1-4-6.6-8.5-6.6c-6,0-10,4.8-10,11.5
			s4,11.4,10,11.4c4.5,0,7.5-2.6,8.5-6.5h5.3c-1.2,6.7-6.3,11-13.8,11C1512.8,181.4,1506.8,175.2,1506.8,165.5z"/>
		<path d="M1548.6,181v-26.5h-11.2v-4.6h27.5v4.6h-11.2V181H1548.6z"/>
		<path d="M1568.9,181v-31.1h5V160h8.4c7.7,0,12.2,3.8,12.2,10.5c0,6.6-4.5,10.5-12.2,10.5H1568.9z M1574,176.7h7.6
			c5.1,0,7.9-2.3,7.9-6.2c0-4.1-2.8-6.2-7.9-6.2h-7.6V176.7z"/>
	</g>
</g>
<g>
	<g>
		<path d="M1277.3,281h33v4.9h-13.8v37.8h-5.3v-37.8h-13.8V281z"/>
		<path d="M1308.4,308.2c0-9.5,6-15.9,14.8-15.9c8.8,0,14.5,5.6,14.8,14.8c0,0.7-0.1,1.4-0.1,2.1h-24.2v0.4
			c0.2,5.9,3.9,10.1,9.8,10.1c4.4,0,7.8-2.3,8.8-6.3h5.1c-1.2,6.2-6.3,10.8-13.5,10.8C1314.5,324.1,1308.4,317.7,1308.4,308.2z
			 M1332.5,305c-0.5-5.4-4.1-8.4-9.3-8.4c-4.6,0-8.8,3.3-9.3,8.4H1332.5z"/>
		<path d="M1339.4,323.7v-4.6h0.9c3.5,0,4.9-2.1,4.9-11.5v-15.1h23.5v31.1h-5v-26.5h-13.7v10.7c0,12.4-2.9,15.9-9,15.9H1339.4z"/>
		<path d="M1374.5,308.2c0-9.5,6-15.9,14.8-15.9c8.8,0,14.5,5.6,14.8,14.8c0,0.7-0.1,1.4-0.1,2.1h-24.2v0.4
			c0.2,5.9,3.9,10.1,9.8,10.1c4.4,0,7.8-2.3,8.8-6.3h5.1c-1.2,6.2-6.3,10.8-13.5,10.8C1380.6,324.1,1374.5,317.7,1374.5,308.2z
			 M1398.6,305c-0.5-5.4-4.1-8.4-9.3-8.4c-4.6,0-8.8,3.3-9.3,8.4H1398.6z"/>
		<path d="M1426.3,335.9v-12c-10.7-0.2-17.7-6.3-17.7-15.8c0-9.3,7.1-15.5,17.7-15.8V282h4.9v10.4c10.6,0.3,17.6,6.3,17.6,15.8
			c0,9.3-7,15.6-17.6,15.8v12H1426.3z M1426.3,296.8c-7.6,0.2-12.6,4.4-12.6,11.4s4.9,11.2,12.6,11.4V296.8z M1431.2,319.6
			c7.7-0.2,12.6-4.4,12.6-11.4s-4.9-11.2-12.6-11.4V319.6z"/>
		<path d="M1453.5,308.2c0-9.5,6.3-15.9,15.4-15.9s15.4,6.5,15.4,15.9s-6.3,15.9-15.4,15.9S1453.5,317.6,1453.5,308.2z
			 M1479.2,308.2c0-6.7-4.1-11.5-10.3-11.5c-6.2,0-10.3,4.8-10.3,11.5s4.1,11.5,10.3,11.5C1475.1,319.6,1479.2,314.8,1479.2,308.2z"
			/>
		<path d="M1512.6,292.6h5v31.1h-5v-13.5h-17.5v13.5h-5v-31.1h5v13h17.5V292.6z"/>
		<path d="M1280.2,345h27.2v4.9h-21.9v13.7h18.2v4.9h-18.2v14.4h22.7v4.9h-28V345z"/>
		<path d="M1360,369.8v17.9h-5v-17.6c0-6.1-2.7-9.3-7.4-9.3c-5.2,0-8.4,3.9-8.4,10.3v16.7h-5v-17.6c0-6.1-2.7-9.3-7.5-9.3
			c-5.1,0-8.2,4.3-8.2,10.5v16.4h-5v-31.1h4.3l0.7,4.3c1.6-2.3,4.3-4.6,9.1-4.6c4.3,0,8.1,2,9.8,5.9c1.9-3.4,5.2-5.9,10.8-5.9
			C1354.7,356.3,1360,360,1360,369.8z"/>
		<path d="M1395.5,383.2v4.6h-2.7c-4.1,0-5.6-1.8-5.6-4.8c-2,2.8-5.1,5.2-10.4,5.2c-6.8,0-11.5-3.4-11.5-9.1c0-6.2,4.3-9.7,12.5-9.7
			h9.2v-2.1c0-4-2.9-6.5-7.7-6.5c-4.4,0-7.3,2.1-7.9,5.2h-5c0.7-6.1,5.7-9.7,13.2-9.7c7.9,0,12.5,4,12.5,11.2v13.6
			c0,1.6,0.6,2.1,2,2.1H1395.5z M1386.9,373.5h-9.6c-4.5,0-7,1.6-7,5.2c0,3.1,2.6,5.1,6.8,5.1c6.2,0,9.8-3.6,9.8-8.8V373.5z"/>
		<path d="M1398.6,348.1c0-1.9,1.4-3.2,3.2-3.2s3.2,1.3,3.2,3.2c0,1.9-1.4,3.2-3.2,3.2S1398.6,350,1398.6,348.1z M1399.3,356.6h5
			v31.1h-5V356.6z"/>
		<path d="M1411.1,345h5v42.7h-5V345z"/>
	</g>
</g>
<g>
	<path d="M1278.7,1120.8c0-12.9,8-21.7,20.4-21.7c9.5,0,16.3,5.5,17.9,14.3h-5.6c-1.6-5.9-6.2-9.5-12.6-9.5c-9,0-14.7,7-14.7,16.8
		c0,9.8,5.5,16.8,14.5,16.8c6.6,0,11.2-3.5,12.8-9.5h5.6c-1.6,8.8-8.7,14.3-18.3,14.3C1286.3,1142.5,1278.7,1133.9,1278.7,1120.8z"
		/>
	<path d="M1351.7,1137.6v4.6h-2.7c-4.1,0-5.6-1.8-5.6-4.8c-2,2.8-5.1,5.2-10.4,5.2c-6.8,0-11.5-3.4-11.5-9.1c0-6.2,4.3-9.7,12.5-9.7
		h9.2v-2.1c0-4-2.9-6.5-7.7-6.5c-4.4,0-7.3,2.1-7.9,5.2h-5c0.7-6.1,5.7-9.7,13.2-9.7c7.9,0,12.5,4,12.5,11.2v13.6
		c0,1.6,0.6,2.1,2,2.1H1351.7z M1343.1,1127.9h-9.6c-4.5,0-7,1.6-7,5.2c0,3.1,2.6,5.1,6.8,5.1c6.2,0,9.8-3.6,9.8-8.8V1127.9z"/>
	<path d="M1378,1111h5v31.1h-5v-13.5h-17.5v13.5h-5V1111h5v13h17.5V1111z"/>
	<path d="M1389.9,1142.2V1111h5v13h6.7l9.7-13h5.8l-11.3,14.9l12.3,16.2h-6l-10.4-13.5h-6.7v13.5H1389.9z"/>
	<path d="M1430.2,1142.2v-26.5H1419v-4.6h27.5v4.6h-11.2v26.5H1430.2z"/>
	<path d="M1448.5,1126.9v-4.2h20.3v4.2H1448.5z"/>
	<path d="M1476.2,1142.2v-42.7h32.4v42.7h-5.3v-37.8h-21.8v37.8H1476.2z"/>
	<path d="M1515,1126.6c0-9.5,6-15.9,14.8-15.9c8.8,0,14.5,5.6,14.8,14.8c0,0.7-0.1,1.4-0.1,2.1h-24.2v0.4c0.2,5.9,3.9,10.1,9.8,10.1
		c4.4,0,7.8-2.3,8.8-6.3h5.1c-1.2,6.2-6.3,10.8-13.5,10.8C1521.1,1142.5,1515,1136.1,1515,1126.6z M1539.2,1123.4
		c-0.5-5.4-4.1-8.4-9.3-8.4c-4.6,0-8.8,3.3-9.3,8.4H1539.2z"/>
	<path d="M1556.9,1142.2v-26.5h-11.2v-4.6h27.5v4.6h-11.2v26.5H1556.9z"/>
	<path d="M1574.4,1126.6c0-9.5,6-15.9,14.8-15.9c8.8,0,14.5,5.6,14.8,14.8c0,0.7-0.1,1.4-0.1,2.1h-24.2v0.4
		c0.2,5.9,3.9,10.1,9.8,10.1c4.4,0,7.8-2.3,8.8-6.3h5.1c-1.2,6.2-6.3,10.8-13.5,10.8C1580.5,1142.5,1574.4,1136.1,1574.4,1126.6z
		 M1598.5,1123.4c-0.5-5.4-4.1-8.4-9.3-8.4c-4.6,0-8.8,3.3-9.3,8.4H1598.5z"/>
	<path d="M1640.3,1126.6c0,9.5-6.3,15.9-14.9,15.9c-5.2,0-8.8-2.1-10.7-5.1v17h-5V1111h4.3l0.7,5c2.1-2.9,5.4-5.4,10.7-5.4
		C1633.9,1110.7,1640.3,1116.5,1640.3,1126.6z M1635.1,1126.6c0-6.8-4.1-11.5-10.3-11.5c-6.1,0-10.2,4.7-10.2,11.3
		c0,6.8,4.1,11.6,10.2,11.6C1631,1138.1,1635.1,1133.4,1635.1,1126.6z"/>
	<path d="M1675.6,1127.6c0,8.6-6,14.9-15.2,14.9c-9.3,0-15.2-5.6-15.2-17.4c0-16.7,4-22.9,17.4-24.6l10.6-1.3v4.7l-9.5,1.2
		c-9.8,1.3-12.6,3.8-13.5,13.1c2.2-3,6.1-4.9,11.4-4.9C1669.6,1113.1,1675.6,1118.8,1675.6,1127.6z M1670.5,1127.8
		c0-6-4.1-10.3-10-10.3c-6.1,0-10.3,4.3-10.3,9.7c0,7,4.3,11,10.1,11C1666.3,1138.2,1670.5,1133.9,1670.5,1127.8z"/>
	<path d="M1677,1111h5.3l9.6,24.8l9.3-24.8h5.3l-14.3,36.4c-2,5-3.1,7-7.5,7h-6v-4.6h4.5c2.9,0,3.4-0.7,4.5-3.7l1.5-3.8L1677,1111z"
		/>
	<path d="M1740.8,1126.6c0,9.5-6.3,15.9-14.9,15.9c-5.2,0-8.8-2.1-10.7-5.1v17h-5V1111h4.3l0.7,5c2.1-2.9,5.4-5.4,10.7-5.4
		C1734.4,1110.7,1740.8,1116.5,1740.8,1126.6z M1735.7,1126.6c0-6.8-4.1-11.5-10.3-11.5c-6.1,0-10.2,4.7-10.2,11.3
		c0,6.8,4.1,11.6,10.2,11.6C1731.5,1138.1,1735.7,1133.4,1735.7,1126.6z"/>
	<path d="M1746.5,1142.2V1111h19.9v4.6h-14.9v26.5H1746.5z"/>
	<path d="M1773.8,1142c0,5.2-3.2,8.3-8.6,8.4v-2.9c3.9-0.1,5.1-2.8,5.1-4.9c0-0.3,0-0.5-0.1-0.8c-0.5,0.5-1.3,0.7-2.1,0.7
		c-1.8,0-3.2-1.1-3.2-3.3c0-2,1.5-3.5,4-3.5C1772,1135.8,1773.8,1138.6,1773.8,1142z"/>
	<path d="M1279.5,1206.2V1175h26.9v31.1h-5v-26.5h-16.9v26.5H1279.5z"/>
	<path d="M1343.9,1190.6c0,9.5-6.3,15.9-14.9,15.9c-5.2,0-8.8-2.1-10.7-5.1v17h-5V1175h4.3l0.7,5c2.1-2.9,5.4-5.4,10.7-5.4
		C1337.5,1174.7,1343.9,1180.5,1343.9,1190.6z M1338.7,1190.6c0-6.8-4.1-11.5-10.3-11.5c-6.1,0-10.2,4.7-10.2,11.3
		c0,6.8,4.1,11.6,10.2,11.6C1334.6,1202.1,1338.7,1197.4,1338.7,1190.6z"/>
	<path d="M1348.5,1190.6c0-9.5,6.3-15.9,15.4-15.9c9.1,0,15.4,6.5,15.4,15.9c0,9.5-6.3,15.9-15.4,15.9
		C1354.8,1206.5,1348.5,1200.1,1348.5,1190.6z M1374.2,1190.6c0-6.6-4.1-11.5-10.3-11.5s-10.3,4.8-10.3,11.5
		c0,6.7,4.1,11.5,10.3,11.5S1374.2,1197.3,1374.2,1190.6z"/>
	<path d="M1384,1190.7c0-9.5,6.2-16,15.2-16c7.6,0,12.4,4.3,13.7,11.1h-5.2c-0.9-4.1-4-6.7-8.5-6.7c-6,0-10,4.8-10,11.5
		s4,11.4,10,11.4c4.5,0,7.5-2.6,8.5-6.5h5.3c-1.2,6.7-6.3,11-13.8,11C1390,1206.5,1384,1200.4,1384,1190.7z"/>
	<path d="M1418.4,1206.2V1175h26.9v31.1h-5v-26.5h-16.9v26.5H1418.4z"/>
	<path d="M1451,1190.6c0-9.5,6-15.9,14.8-15.9s14.5,5.6,14.8,14.8c0,0.7-0.1,1.4-0.1,2.1h-24.2v0.4c0.2,5.9,3.9,10.1,9.8,10.1
		c4.4,0,7.8-2.3,8.8-6.3h5.1c-1.2,6.2-6.3,10.8-13.5,10.8C1457.1,1206.5,1451,1200.1,1451,1190.6z M1475.2,1187.4
		c-0.5-5.4-4.1-8.4-9.3-8.4c-4.6,0-8.8,3.3-9.3,8.4H1475.2z"/>
	<path d="M1486.3,1206.2V1175h5v13h6.7l9.7-13h5.8l-11.3,14.9l12.3,16.2h-6l-10.4-13.5h-6.7v13.5H1486.3z"/>
	<path d="M1526.6,1206.2v-26.5h-11.2v-4.6h27.5v4.6h-11.2v26.5H1526.6z"/>
	<path d="M1560.1,1206.2v-4.9h1c4.7,0,6.8-2.9,6.8-16.8v-21h29.6v42.7h-5.3v-37.8H1573v16.5c0,16.4-3.5,21.3-11.3,21.3H1560.1z"/>
	<path d="M1602,1175h5.3l9.6,24.8l9.3-24.8h5.3l-14.3,36.4c-2,5-3.1,7-7.5,7h-6v-4.6h4.5c2.9,0,3.4-0.7,4.5-3.7l1.5-3.8L1602,1175z"
		/>
	<path d="M1657.7,1175h5v31.1h-5v-13.5h-17.5v13.5h-5V1175h5v13h17.5V1175z"/>
	<path d="M1698.6,1201.6v4.6h-2.7c-4.1,0-5.6-1.8-5.6-4.8c-2,2.8-5.1,5.2-10.4,5.2c-6.8,0-11.5-3.4-11.5-9.1c0-6.2,4.3-9.7,12.5-9.7
		h9.2v-2.1c0-4-2.9-6.5-7.7-6.5c-4.4,0-7.3,2.1-7.9,5.2h-5c0.7-6.1,5.7-9.7,13.2-9.7c7.9,0,12.5,4,12.5,11.2v13.6
		c0,1.6,0.6,2.1,2,2.1H1698.6z M1690,1191.9h-9.6c-4.5,0-7,1.6-7,5.2c0,3.1,2.6,5.1,6.8,5.1c6.2,0,9.8-3.6,9.8-8.8V1191.9z"/>
	<path d="M1721.5,1175h5v31.1h-5v-12.5c-2.4,1.6-5.6,2.4-8.7,2.4c-7.6,0-12.2-3.3-12.2-11.3v-9.7h5v8.8c0,5.7,2.7,7.6,8.2,7.6
		c3,0,5.6-0.7,7.7-2.5V1175z"/>
	<path d="M1762.4,1201.6v4.6h-2.7c-4.1,0-5.6-1.8-5.6-4.8c-2,2.8-5.1,5.2-10.4,5.2c-6.8,0-11.5-3.4-11.5-9.1c0-6.2,4.3-9.7,12.5-9.7
		h9.2v-2.1c0-4-2.9-6.5-7.7-6.5c-4.4,0-7.3,2.1-7.9,5.2h-5c0.7-6.1,5.7-9.7,13.2-9.7c7.9,0,12.5,4,12.5,11.2v13.6
		c0,1.6,0.6,2.1,2,2.1H1762.4z M1753.8,1191.9h-9.6c-4.5,0-7,1.6-7,5.2c0,3.1,2.6,5.1,6.8,5.1c6.2,0,9.8-3.6,9.8-8.8V1191.9z"/>
	<path d="M1796.9,1190.6c0,9.5-6.3,15.9-14.9,15.9c-5.2,0-8.8-2.1-10.7-5.1v17h-5V1175h4.3l0.7,5c2.1-2.9,5.4-5.4,10.7-5.4
		C1790.6,1174.7,1796.9,1180.5,1796.9,1190.6z M1791.8,1190.6c0-6.8-4.1-11.5-10.3-11.5c-6.1,0-10.3,4.7-10.3,11.3
		c0,6.8,4.1,11.6,10.3,11.6C1787.6,1202.1,1791.8,1197.4,1791.8,1190.6z"/>
	<path d="M1801.5,1190.7c0-9.5,6.2-16,15.2-16c7.6,0,12.4,4.3,13.7,11.1h-5.2c-0.9-4.1-4-6.7-8.5-6.7c-6,0-10,4.8-10,11.5
		s4,11.4,10,11.4c4.5,0,7.5-2.6,8.5-6.5h5.3c-1.2,6.7-6.3,11-13.8,11C1807.5,1206.5,1801.5,1200.4,1801.5,1190.7z"/>
	<path d="M1835.9,1206.2V1175h5v13h6.7l9.7-13h5.8l-11.3,14.9l12.3,16.2h-6l-10.4-13.5h-6.7v13.5H1835.9z"/>
	<path d="M1865.2,1190.6c0-9.5,6.3-15.9,15.4-15.9c9.1,0,15.4,6.5,15.4,15.9c0,9.5-6.3,15.9-15.4,15.9
		C1871.5,1206.5,1865.2,1200.1,1865.2,1190.6z M1890.9,1190.6c0-6.6-4.1-11.5-10.3-11.5s-10.3,4.8-10.3,11.5
		c0,6.7,4.1,11.5,10.3,11.5S1890.9,1197.3,1890.9,1190.6z"/>
	<path d="M1901.8,1206.2V1175h19.9v4.6h-14.9v26.5H1901.8z"/>
	<path d="M1923,1190.6c0-9.5,6.3-15.9,15.4-15.9s15.4,6.5,15.4,15.9c0,9.5-6.3,15.9-15.4,15.9S1923,1200.1,1923,1190.6z
		 M1948.7,1190.6c0-6.6-4.1-11.5-10.3-11.5s-10.3,4.8-10.3,11.5c0,6.7,4.1,11.5,10.3,11.5S1948.7,1197.3,1948.7,1190.6z"/>
	<path d="M1964.7,1206c0,5.2-3.2,8.3-8.6,8.4v-2.9c3.9-0.1,5.1-2.8,5.1-4.9c0-0.3,0-0.5-0.1-0.8c-0.5,0.5-1.3,0.7-2.1,0.7
		c-1.8,0-3.2-1.1-3.2-3.3c0-2,1.5-3.5,4-3.5C1962.8,1199.8,1964.7,1202.6,1964.7,1206z"/>
	<path d="M2013.6,1201.6h4.9v12.8h-5v-8.2h-25.4v8.2h-5v-12.8h3.2c2.3-1.7,3.5-3.9,3.5-13.5v-13h23.8V1201.6z M2008.6,1201.6v-22
		h-13.9v9c0,7.1-0.8,10.6-2.3,13H2008.6z"/>
	<path d="M2020.8,1190.6c0-9.5,6.3-15.9,15.4-15.9s15.4,6.5,15.4,15.9c0,9.5-6.3,15.9-15.4,15.9S2020.8,1200.1,2020.8,1190.6z
		 M2046.5,1190.6c0-6.6-4.1-11.5-10.3-11.5c-6.2,0-10.3,4.8-10.3,11.5c0,6.7,4.1,11.5,10.3,11.5
		C2042.4,1202.1,2046.5,1197.3,2046.5,1190.6z"/>
	<path d="M2057.4,1206.2V1175h6.2l12,25l11.8-25h6l0.1,31.1h-4.8v-23.5l-11.2,23.5h-4l-11.2-23.5v23.5H2057.4z"/>
	<path d="M2114.1,1201.8l16.6-14.4c4-3.4,7.3-6.7,7.3-11.3c0-5.4-3.7-8.4-9.3-8.4c-5.5,0-9.2,3.7-9.2,9.5v0.8h-5.1v-1.1
		c0-8.1,5.7-13.8,14.3-13.8c9.2,0,14.6,5.1,14.6,12.8c0,6.4-4.1,10.4-9.2,14.8l-12.8,10.9h22.3v4.7h-29.4V1201.8z"/>
	<path d="M2155.6,1163.5h5v42.7h-5.1v-30.6c-0.6,0.5-1.6,0.8-2.9,0.8h-6.9v-4.6h7c2,0,3-1.5,3-3.7V1163.5z"/>
	<path d="M2175.3,1206c0,5.2-3.2,8.3-8.6,8.4v-2.9c3.9-0.1,5.1-2.8,5.1-4.9c0-0.3,0-0.5-0.1-0.8c-0.5,0.5-1.3,0.7-2.1,0.7
		c-1.8,0-3.2-1.1-3.2-3.3c0-2,1.5-3.5,4-3.5C2173.5,1199.8,2175.3,1202.6,2175.3,1206z"/>
	<path d="M2196.8,1206.2V1175h5v13h6.7l9.7-13h5.8l-11.3,14.9l12.3,16.2h-6l-10.4-13.5h-6.7v13.5H2196.8z"/>
	<path d="M2226,1190.6c0-9.5,6.3-15.9,15.4-15.9s15.4,6.5,15.4,15.9c0,9.5-6.3,15.9-15.4,15.9S2226,1200.1,2226,1190.6z
		 M2251.7,1190.6c0-6.6-4.1-11.5-10.3-11.5s-10.3,4.8-10.3,11.5c0,6.7,4.1,11.5,10.3,11.5S2251.7,1197.3,2251.7,1190.6z"/>
	<path d="M2293.2,1190.6c0,9.5-6.3,15.9-14.9,15.9c-5.2,0-8.8-2.1-10.7-5.1v17h-5V1175h4.3l0.7,5c2.1-2.9,5.4-5.4,10.7-5.4
		C2286.9,1174.7,2293.2,1180.5,2293.2,1190.6z M2288.1,1190.6c0-6.8-4.1-11.5-10.3-11.5c-6.1,0-10.3,4.7-10.3,11.3
		c0,6.8,4.1,11.6,10.3,11.6C2283.9,1202.1,2288.1,1197.4,2288.1,1190.6z"/>
	<path d="M2298.9,1206.2V1175h26.9v31.1h-5v-26.5h-16.9v26.5H2298.9z"/>
	<path d="M2329.5,1175h5.3l9.6,24.8l9.3-24.8h5.3l-14.3,36.4c-2,5-3.1,7-7.5,7h-6v-4.6h4.5c2.9,0,3.4-0.7,4.5-3.7l1.5-3.8
		L2329.5,1175z"/>
	<path d="M2360.4,1190.7c0-9.5,6.2-16,15.2-16c7.6,0,12.4,4.3,13.7,11.1h-5.2c-0.9-4.1-4-6.7-8.5-6.7c-6,0-10,4.8-10,11.5
		s4,11.4,10,11.4c4.5,0,7.5-2.6,8.5-6.5h5.3c-1.2,6.7-6.3,11-13.8,11C2366.4,1206.5,2360.4,1200.4,2360.4,1190.7z"/>
	<path d="M2417.6,1163.5h5v42.7h-5.1v-30.6c-0.6,0.5-1.6,0.8-2.9,0.8h-6.9v-4.6h7c2,0,3-1.5,3-3.7V1163.5z"/>
</g>
<g>
	<path d="M1276.6,1312.7h5.2l7.7,25.3l8.2-25.3h4.6l7.7,25.3l8.1-25.3h5.1l-10.4,31.1h-5.5l-7.5-23.1l-7.8,23.1h-5.5L1276.6,1312.7z
		"/>
	<path d="M1324.3,1312.7h5.2l7.7,25.3l8.2-25.3h4.6l7.7,25.3l8.1-25.3h5.1l-10.4,31.1h-5.5l-7.5-23.1l-7.8,23.1h-5.5L1324.3,1312.7z
		"/>
	<path d="M1372.1,1312.7h5.2l7.7,25.3l8.2-25.3h4.6l7.7,25.3l8.1-25.3h5.1l-10.4,31.1h-5.5l-7.5-23.1l-7.8,23.1h-5.5L1372.1,1312.7z
		"/>
	<path d="M1423.2,1337.3c2,0,3.5,1.3,3.5,3.4s-1.5,3.4-3.5,3.4c-2,0-3.5-1.3-3.5-3.4S1421.2,1337.3,1423.2,1337.3z"/>
	<path d="M1429.8,1328.2c0-9.5,6-15.9,14.8-15.9c8.8,0,14.5,5.6,14.8,14.8c0,0.7-0.1,1.4-0.1,2.1h-24.2v0.4
		c0.2,5.9,3.9,10.1,9.8,10.1c4.4,0,7.8-2.3,8.8-6.3h5.1c-1.2,6.2-6.3,10.8-13.5,10.8C1435.9,1344.2,1429.8,1337.8,1429.8,1328.2z
		 M1454,1325.1c-0.5-5.4-4.1-8.4-9.3-8.4c-4.6,0-8.8,3.3-9.3,8.4H1454z"/>
	<path d="M1465.1,1301.1h5v42.7h-5V1301.1z"/>
	<path d="M1479.2,1317.3h-5.6v-4.6h5.6v-8.7h5v8.7h8.1v4.6h-8.1v18.4c0,2.6,0.9,3.6,3.6,3.6h4.9v4.6h-5.4c-6,0-8.1-2.6-8.1-8.1
		V1317.3z"/>
	<path d="M1525.7,1339.2v4.6h-2.7c-4.1,0-5.6-1.8-5.6-4.8c-2,2.8-5.1,5.2-10.4,5.2c-6.8,0-11.5-3.4-11.5-9.1c0-6.2,4.3-9.7,12.5-9.7
		h9.2v-2.1c0-4-2.9-6.5-7.7-6.5c-4.4,0-7.3,2.1-7.9,5.2h-5c0.7-6.1,5.7-9.7,13.2-9.7c7.9,0,12.5,4,12.5,11.2v13.6
		c0,1.6,0.6,2.1,2,2.1H1525.7z M1517.1,1329.6h-9.6c-4.5,0-7,1.6-7,5.2c0,3.1,2.6,5.1,6.8,5.1c6.2,0,9.8-3.6,9.8-8.8V1329.6z"/>
	<path d="M1533.4,1333.5c0.2,3.7,3.4,6.3,8.6,6.3c4.4,0,7.5-1.9,7.5-4.8c0-3.9-3.4-4.2-8.1-4.8c-7-0.9-12.5-2.3-12.5-8.7
		c0-5.7,5.2-9.4,12.2-9.3c7.1,0.1,12.2,3.4,12.7,9.8h-5.1c-0.4-3.2-3.3-5.6-7.6-5.6c-4.3,0-7.3,1.8-7.3,4.7c0,3.4,3.3,3.8,7.8,4.4
		c7.1,0.9,12.8,2.2,12.8,9.1c0,5.8-5.6,9.4-12.4,9.4c-8.1,0-13.6-3.8-13.7-10.6H1533.4z"/>
	<path d="M1590.6,1328.2c0,9.5-6.3,15.9-14.9,15.9c-5.2,0-8.8-2.1-10.7-5.1v17h-5v-43.3h4.3l0.7,5c2.1-2.9,5.4-5.4,10.7-5.4
		C1584.3,1312.3,1590.6,1318.1,1590.6,1328.2z M1585.5,1328.2c0-6.8-4.1-11.5-10.3-11.5c-6.1,0-10.2,4.7-10.2,11.3
		c0,6.8,4.1,11.6,10.2,11.6C1581.3,1339.7,1585.5,1335,1585.5,1328.2z"/>
	<path d="M1627,1328.2c0,9.5-6.3,15.9-14.9,15.9c-5.2,0-8.8-2.1-10.7-5.1l-0.7,4.8h-4.3v-42.7h5v16.6c2.1-2.9,5.4-5.4,10.7-5.4
		C1620.6,1312.3,1627,1318.1,1627,1328.2z M1621.8,1328.2c0-6.8-4.1-11.5-10.3-11.5c-6.1,0-10.2,4.7-10.2,11.3
		c0,6.8,4.1,11.6,10.2,11.6C1617.7,1339.7,1621.8,1335,1621.8,1328.2z"/>
	<path d="M1633.5,1337.3c2,0,3.5,1.3,3.5,3.4s-1.5,3.4-3.5,3.4s-3.5-1.3-3.5-3.4S1631.5,1337.3,1633.5,1337.3z"/>
	<path d="M1659,1312.7v4.9h-2.5c-6.5,0-8.3,5.4-8.3,10.4v15.9h-5v-31.1h4.3l0.7,4.7c1.5-2.4,3.8-4.7,9.4-4.7H1659z"/>
	<path d="M1685.2,1312.7h5v31.1h-4.3l-0.7-4.1c-1.8,2.3-4.8,4.5-9.9,4.5c-6.8,0-12.3-3.8-12.3-14.2v-17.3h5v17
		c0,6.5,2.9,9.9,8.1,9.9c5.7,0,9.1-4.3,9.1-11.3V1312.7z"/>
</g>
<g>
	<path d="M290.2,1222c0,27-8.4,53.2-23.9,75.3c-15.6,22-37.6,38.7-63,47.7v-31.3c17.4-8.2,32.1-21.2,42.3-37.5
		c10.3-16.2,15.7-35.1,15.7-54.3c0-19.2-5.5-38-15.8-54.2c-10.3-16.2-25-29.2-42.4-37.4v-31.3c25.5,9,47.5,25.6,63.1,47.7
		C281.8,1168.8,290.2,1195.1,290.2,1222z"/>
	<rect x="58" y="1207.6" width="116.1" height="29"/>
	<path d="M232.1,1222c0-9.5-1.9-18.9-5.5-27.7c-3.6-8.8-9-16.8-15.7-23.5c-6.7-6.7-14.7-12.1-23.5-15.7c-8.8-3.6-18.2-5.5-27.8-5.5
		h-43.5v29h87v86.9h-87v29h43.5c9.5,0,19-1.9,27.8-5.5c8.8-3.6,16.8-9,23.5-15.7c6.7-6.7,12.1-14.7,15.7-23.5
		C230.2,1241,232.1,1231.6,232.1,1222z"/>
</g>
<g>
	<g>
		<path d="M58,648.4v-42.7h7v17.9h7.1l12.9-17.9h8.1l-15.1,20.6l16,22.1h-8.5l-13.4-18.5h-7.2v18.5H58z"/>
		<path d="M115.2,648.7c-12.3,0-20.7-9.2-20.7-21.7s8.5-21.7,20.7-21.7c12.3,0,20.7,9.2,20.7,21.7S127.5,648.7,115.2,648.7z
			 M115.2,642.6c8.1,0,13.5-6.5,13.5-15.6s-5.4-15.6-13.5-15.6c-8.1,0-13.5,6.5-13.5,15.6S107.1,642.6,115.2,642.6z"/>
		<path d="M142.1,605.7h9.1l13.7,33.6l13.4-33.6h8.9v42.7h-6.8V617l-12.8,31.4h-5.9L148.9,617v31.4h-6.8V605.7z"/>
		<path d="M195,648.4v-42.7h33.6v42.7h-7v-36.5H202v36.5H195z"/>
		<path d="M233,648.4v-6.2h1.1c4.4,0,6.3-2.8,6.3-15.4v-21h30.9v42.7h-7v-36.5h-17.1v15.4c0,15.9-3.8,21.1-12.2,21.1H233z"/>
		<path d="M279.1,605.7H307v6.2h-20.9v11.8h17.2v6h-17.2v12.4h21.6v6.2h-28.6V605.7z"/>
		<path d="M313.4,648.4v-42.7h7v17.9h7.1l12.9-17.9h8.1l-15.1,20.6l16,22.1H341l-13.4-18.5h-7.2v18.5H313.4z"/>
		<path d="M349.9,627c0-13,8-21.7,20.6-21.7c9.8,0,16.8,5.9,18.2,14.9h-7.3c-1.4-5.4-5.4-8.7-11.2-8.7c-8.1,0-13.1,6.4-13.1,15.6
			c0,9.1,4.9,15.6,12.9,15.6c5.9,0,10-3.3,11.3-8.7h7.3c-1.3,9-8.6,14.9-18.5,14.9C357.6,648.7,349.9,640.1,349.9,627z"/>
		<path d="M394.4,605.7h7v17.9h19.8v-17.9h7v42.7h-7v-18.5h-19.8v18.5h-7V605.7z"/>
		<path d="M455.1,648.7c-12.3,0-20.7-9.2-20.7-21.7s8.5-21.7,20.7-21.7c12.3,0,20.7,9.2,20.7,21.7S467.4,648.7,455.1,648.7z
			 M455.1,642.6c8.1,0,13.5-6.5,13.5-15.6s-5.4-15.6-13.5-15.6c-8.1,0-13.5,6.5-13.5,15.6S447,642.6,455.1,642.6z"/>
		<path d="M482,605.7h27.9v6.2h-20.9v11.8h17.2v6h-17.2v12.4h21.6v6.2H482V605.7z"/>
		<path d="M532,648.4v-42.7h33.6v42.7h-7v-36.5H539v36.5H532z"/>
		<path d="M573.4,605.7h16.8c8.9,0,14.8,5.3,14.8,13.6c0,8.2-5.9,13.6-14.8,13.6h-9.8v15.5h-7V605.7z M580.4,611.8v15h9.2
			c5,0,8.2-2.9,8.2-7.5c0-4.6-3.2-7.5-8.2-7.5H580.4z"/>
		<path d="M629.5,648.7c-12.3,0-20.7-9.2-20.7-21.7s8.5-21.7,20.7-21.7c12.3,0,20.7,9.2,20.7,21.7S641.7,648.7,629.5,648.7z
			 M629.5,642.6c8.1,0,13.5-6.5,13.5-15.6s-5.4-15.6-13.5-15.6c-8.1,0-13.5,6.5-13.5,15.6S621.4,642.6,629.5,642.6z"/>
		<path d="M656.4,605.7h27.9v6.2h-20.9v11.8h17.2v6h-17.2v12.4H685v6.2h-28.6V605.7z"/>
		<path d="M690.7,648.4v-42.7h7v17.9h7.1l12.9-17.9h8.1l-15.1,20.6l16,22.1h-8.5l-13.4-18.5h-7.2v18.5H690.7z"/>
		<path d="M727.7,605.7h33.4v6.2h-13.2v36.5h-7v-36.5h-13.2V605.7z"/>
		<path d="M766.2,648.4v-42.7h7v31.2l20.9-31.2h6.5v42.7h-7v-31.2l-20.9,31.2H766.2z"/>
		<path d="M808.3,605.7h16.8c8.9,0,14.8,5.3,14.8,13.6c0,8.2-5.9,13.6-14.8,13.6h-9.8v15.5h-7V605.7z M815.3,611.8v15h9.2
			c5,0,8.2-2.9,8.2-7.5c0-4.6-3.2-7.5-8.2-7.5H815.3z"/>
		<path d="M864.4,648.7c-12.3,0-20.7-9.2-20.7-21.7s8.5-21.7,20.7-21.7c12.3,0,20.7,9.2,20.7,21.7S876.7,648.7,864.4,648.7z
			 M864.4,642.6c8.1,0,13.5-6.5,13.5-15.6s-5.4-15.6-13.5-15.6c-8.1,0-13.5,6.5-13.5,15.6S856.3,642.6,864.4,642.6z"/>
		<path d="M891.3,605.7H907c9.4,0,14.8,4.3,14.8,11.3c0,5.1-2.9,8.1-7.3,9.3c5.1,0.8,9,3.8,9,9.9c0,7.6-5.6,12.2-15.9,12.2h-16.2
			V605.7z M898.3,611.5v12.3h8.8c4.8,0,7.6-2.3,7.6-6.2c0-3.8-2.7-6.1-7.6-6.1H898.3z M898.3,629.6v12.9h9.3c5.6,0,8.6-2.4,8.6-6.3
			c0-4.2-3.2-6.5-8.6-6.5H898.3z"/>
		<path d="M924.7,648.4l16-42.7h8.4l15.9,42.7h-7.5l-4-10.6h-17.5l-4,10.6H924.7z M937.9,631.8h13.6l-6.8-18.6L937.9,631.8z"/>
		<path d="M969.4,605.7h7v17.9h19.8v-17.9h7v42.7h-7v-18.5h-19.8v18.5h-7V605.7z"/>
		<path d="M1011,648.4v-42.7h7v31.2l20.9-31.2h6.5v42.7h-7v-31.2l-20.9,31.2H1011z"/>
		<path d="M1053.2,605.7h27.9v6.2h-20.9v11.8h17.2v6h-17.2v12.4h21.6v6.2h-28.6V605.7z"/>
		<path d="M1096,647.5c0,5.9-3.8,9.3-9.8,9.3v-3.5c3.8-0.1,5.4-2.4,5.4-4.6c0-0.2,0-0.5-0.1-0.8c-0.5,0.4-1.3,0.6-2,0.6
			c-2,0-3.6-1.3-3.6-3.9c0-2.3,1.8-4.1,4.6-4.1C1093.9,640.5,1096,643.6,1096,647.5z"/>
		<path d="M58,671.7h9.1l13.7,33.6l13.4-33.6h8.9v42.7h-6.8V683l-12.8,31.4h-5.9L64.8,683v31.4H58V671.7z"/>
		<path d="M130,714.7c-12.3,0-20.7-9.2-20.7-21.7s8.5-21.7,20.7-21.7c12.3,0,20.7,9.2,20.7,21.7S142.3,714.7,130,714.7z M130,708.6
			c8.1,0,13.5-6.5,13.5-15.6s-5.4-15.6-13.5-15.6c-8.1,0-13.5,6.5-13.5,15.6S121.9,708.6,130,708.6z"/>
		<path d="M156.9,671.7h7v17.9h19.8v-17.9h7v42.7h-7v-18.5h-19.8v18.5h-7V671.7z"/>
		<path d="M195.9,671.7h33.4v6.2h-13.2v36.5h-7v-36.5h-13.2V671.7z"/>
		<path d="M225.2,714.4l16-42.7h8.4l15.9,42.7H258l-4-10.6h-17.5l-4,10.6H225.2z M238.4,697.8H252l-6.8-18.6L238.4,697.8z"/>
		<path d="M266.9,714.4l15.1-22.1l-14.2-20.6h7.8l12.3,17.9h5.6v-17.9h7v17.9h5.6l12.3-17.9h7.8L312,692.3l15,22.1h-8.3l-12.4-18.5
			h-5.8v18.5h-7v-18.5h-5.7l-12.5,18.5H266.9z"/>
		<path d="M347.3,714.4v-42.7h7v31.2l20.9-31.2h6.5v42.7h-7v-31.2l-20.9,31.2H347.3z"/>
		<path d="M424.2,714.7c-12.3,0-20.7-9.2-20.7-21.7s8.5-21.7,20.7-21.7c12.3,0,20.7,9.2,20.7,21.7S436.4,714.7,424.2,714.7z
			 M424.2,708.6c8.1,0,13.5-6.5,13.5-15.6s-5.4-15.6-13.5-15.6c-8.1,0-13.5,6.5-13.5,15.6S416,708.6,424.2,708.6z"/>
		<path d="M451.1,714.4v-42.7h27.4v6.1h-20.4v11h10.1c8.5,0,14.3,4.1,14.3,12.8c0,8.3-5.7,12.9-14.2,12.9H451.1z M458.1,708.3h9.5
			c4.8,0,7.7-2.6,7.7-6.8s-3-6.8-7.7-6.8h-9.5V708.3z"/>
		<path d="M486.1,693c0-13,8-21.7,20.6-21.7c9.8,0,16.8,5.9,18.2,14.9h-7.3c-1.4-5.4-5.4-8.7-11.2-8.7c-8.1,0-13.1,6.4-13.1,15.6
			c0,9.1,4.9,15.6,12.9,15.6c5.9,0,10-3.3,11.3-8.7h7.3c-1.3,9-8.6,14.9-18.5,14.9C493.8,714.7,486.1,706.1,486.1,693z"/>
		<path d="M526.5,714.4v-6.2h1.1c4.4,0,6.3-2.8,6.3-15.4v-21h30.9v42.7h-7v-36.5h-17.1v15.4c0,15.9-3.8,21.1-12.2,21.1H526.5z"/>
		<path d="M574.2,714.4v-6.2h3.9c3.5,0,4.8-0.6,6.2-3.7l1.1-2.4L569,671.7h7.8l12.2,23.1l10.2-23.1h7.4l-16,34.7
			c-2.8,6.2-5.9,8.1-10.6,8.1H574.2z"/>
		<path d="M607.5,714.4l15.1-22.1l-14.2-20.6h7.8l12.3,17.9h5.6v-17.9h7v17.9h5.6l12.3-17.9h7.8l-14.2,20.6l15,22.1h-8.3l-12.4-18.5
			H641v18.5h-7v-18.5h-5.7l-12.5,18.5H607.5z"/>
		<path d="M672.2,714.4v-42.7h7v31.2l20.9-31.2h6.5v42.7h-7v-31.2l-20.9,31.2H672.2z"/>
		<path d="M714.4,671.7h15.7c9.4,0,14.8,4.3,14.8,11.3c0,5.1-2.9,8.1-7.3,9.3c5.1,0.8,9,3.8,9,9.9c0,7.6-5.6,12.2-15.9,12.2h-16.2
			V671.7z M721.4,677.5v12.3h8.8c4.8,0,7.6-2.3,7.6-6.2c0-3.8-2.7-6.1-7.6-6.1H721.4z M721.4,695.6v12.9h9.3c5.6,0,8.6-2.4,8.6-6.3
			c0-4.2-3.2-6.5-8.6-6.5H721.4z"/>
		<path d="M747.8,714.4l16-42.7h8.4l15.9,42.7h-7.5l-4-10.6H759l-4,10.6H747.8z M761,697.8h13.6l-6.8-18.6L761,697.8z"/>
		<path d="M792.5,671.7h7v17.9h19.8v-17.9h7v42.7h-7v-18.5h-19.8v18.5h-7V671.7z"/>
		<path d="M834.1,714.4v-42.7h7v31.2l20.9-31.2h6.5v42.7h-7v-31.2l-20.9,31.2H834.1z"/>
		<path d="M876.3,671.7h27.9v6.2h-20.9v11.8h17.2v6h-17.2v12.4h21.6v6.2h-28.6V671.7z"/>
		<path d="M58,780.4v-42.7h7v31.2l20.9-31.2h6.5v42.7h-7v-31.2l-20.9,31.2H58z"/>
		<path d="M100.2,737.7h7v17.9H127v-17.9h7v42.7h-7v-18.5h-19.8v18.5h-7V737.7z"/>
		<path d="M138.7,780.4l15.1-22.1l-14.2-20.6h7.8l12.3,17.9h5.6v-17.9h7v17.9h5.6l12.3-17.9h7.8l-14.2,20.6l15,22.1h-8.3l-12.4-18.5
			h-5.8v18.5h-7v-18.5h-5.7L147,780.4H138.7z"/>
		<path d="M203.5,737.7h27.9v6.2h-20.9v11.8h17.2v6h-17.2v12.4h21.6v6.2h-28.6V737.7z"/>
		<path d="M237.9,737.7h7v17.9h19.8v-17.9h7v42.7h-7v-18.5h-19.8v18.5h-7V737.7z"/>
		<path d="M279.5,737.7h27.9v6.2h-20.9v11.8h17.2v6h-17.2v12.4h21.6v6.2h-28.6V737.7z"/>
		<path d="M313.9,737.7h16.8c8.9,0,14.8,5.3,14.8,13.6c0,8.2-5.9,13.6-14.8,13.6h-9.8v15.5h-7V737.7z M320.9,743.8v15h9.2
			c5,0,8.2-2.9,8.2-7.5c0-4.6-3.2-7.5-8.2-7.5H320.9z"/>
		<path d="M350.8,737.7h7v17.9h19.8v-17.9h7v42.7h-7v-18.5h-19.8v18.5h-7V737.7z"/>
		<path d="M392.5,780.4v-42.7h7v15.6h9.5c8.9,0,14.8,5.6,14.8,13.6c0,7.9-5.9,13.5-14.8,13.5H392.5z M399.5,774.3h9
			c4.9,0,8.2-2.9,8.2-7.4c0-4.6-3.2-7.4-8.2-7.4h-8.9V774.3z M428.9,780.4v-42.7h7v42.7H428.9z"/>
		<path d="M454.7,758.5l-13.4-20.9h8.3l9.6,15.2l9.8-15.2h7.9l-13.4,20.6l14.2,22.1h-8.4L459,764l-10.5,16.4h-7.9L454.7,758.5z"/>
		<path d="M496.4,759c0-13,8-21.7,20.6-21.7c9.8,0,16.8,5.9,18.2,14.9h-7.3c-1.4-5.4-5.4-8.7-11.2-8.7c-8.1,0-13.1,6.4-13.1,15.6
			c0,9.1,4.9,15.6,12.9,15.6c5.9,0,10-3.3,11.3-8.7h7.3c-1.3,9-8.6,14.9-18.5,14.9C504.1,780.7,496.4,772.1,496.4,759z"/>
		<path d="M540.9,780.4v-42.7h7v31.2l20.9-31.2h6.5v42.7h-7v-31.2l-20.9,31.2H540.9z"/>
		<path d="M581.4,759c0-13,8-21.7,20.6-21.7c9.8,0,16.8,5.9,18.2,14.9H613c-1.4-5.4-5.4-8.7-11.2-8.7c-8.1,0-13.1,6.4-13.1,15.6
			c0,9.1,4.9,15.6,12.9,15.6c5.9,0,10-3.3,11.3-8.7h7.3c-1.3,9-8.6,14.9-18.5,14.9C589.2,780.7,581.4,772.1,581.4,759z"/>
		<path d="M621.3,737.7h33.4v6.2h-13.2v36.5h-7v-36.5h-13.2V737.7z"/>
		<path d="M659.8,737.7h27.9v6.2h-20.9v11.8H684v6h-17.2v12.4h21.6v6.2h-28.6V737.7z"/>
		<path d="M694.1,737.7h9.1l13.7,33.6l13.4-33.6h8.9v42.7h-6.8V749l-12.8,31.4h-5.9L700.9,749v31.4h-6.8V737.7z"/>
	</g>
</g>
<g>
	<g>
		<path d="M117.1,104.9c0,19.8-12.2,33.1-31.4,33.1c-15,0-25.4-8.8-27.7-22.4h11.1c2.1,8,8,13.1,17.2,13.1c11,0,18.4-7.7,19.8-19.5
			h-25v-9.1h25c-1.5-11.5-8.5-18.9-19.2-18.9c-9.3,0-15.1,5.1-17.3,13.1h-11c2.2-13.6,12.9-22.4,27.9-22.4
			C105.6,71.8,117.1,84.9,117.1,104.9z"/>
		<path d="M118.1,137.4v-9.5h1.7c6.7,0,9.7-4.3,9.7-23.5v-32h47v65h-10.7V81.9h-26.1v23.4c0,24.2-5.8,32.1-18.6,32.1H118.1z"/>
		<path d="M184.2,72.4H235v9.5H215v55.5h-10.7V81.9h-20.1V72.4z"/>
		<path d="M228.9,137.4l24.3-65h12.7l24.2,65h-11.4l-6.1-16.1H246l-6,16.1H228.9z M248.9,112.2h20.7l-10.4-28.3L248.9,112.2z"/>
	</g>
</g>
<line class="st1" x1="58" y1="0" x2="58" y2="1417.5"/>
<line class="st1" x1="290.2" y1="0" x2="290.2" y2="1417.5"/>
<line class="st1" x1="2552.3" y1="71.8" x2="0" y2="71.8"/>
<line class="st1" x1="2552.8" y1="281" x2="0.5" y2="281"/>
<line class="st1" x1="2552.8" y1="605.3" x2="0.5" y2="605.3"/>
<line class="st1" x1="2552.8" y1="780.7" x2="0.5" y2="780.7"/>
<line class="st1" x1="2552.8" y1="1099.1" x2="0.5" y2="1099.1"/>
<line class="st1" x1="2552.3" y1="1345" x2="0" y2="1345"/>
<line class="st1" x1="1096" y1="0" x2="1096" y2="1417.5"/>
<line class="st1" x1="1277.1" y1="0" x2="1277.1" y2="1417.5"/>
<line class="st1" x1="2422.6" y1="0" x2="2422.6" y2="1417.5"/>
</svg>
