<?xml version="1.0" encoding="utf-8"?>
<!-- Generator: Adobe Illustrator 22.0.0, SVG Export Plug-In . SVG Version: 6.00 Build 0)  -->
<svg version="1.1" id="Бараев_Александр_Анатольевич"
	 xmlns="http://www.w3.org/2000/svg" xmlns:xlink="http://www.w3.org/1999/xlink" x="0px" y="0px" viewBox="0 0 2551.2 1417.3"
	 style="enable-background:new 0 0 2551.2 1417.3;" xml:space="preserve">
<style type="text/css">
	.st0{fill:#868690;}
	.st1{fill:#FFFFFF;}
</style>
<rect class="st0" width="2551.2" height="1417.3"/>
<g>
	<path class="st1" d="M1488.2,708.7c0,49.4-15.3,97.5-43.8,137.9c-28.5,40.3-68.9,70.8-115.5,87.3v-57.3
		c31.8-15.1,58.7-38.9,77.6-68.6c18.8-29.7,28.8-64.2,28.8-99.4s-10-69.6-28.9-99.4c-18.9-29.7-45.8-53.5-77.6-68.5v-57.3
		c46.6,16.5,87,47,115.6,87.3C1472.8,611.1,1488.2,659.3,1488.2,708.7z"/>
	<rect x="1063" y="682.1" class="st1" width="212.6" height="53.1"/>
	<path class="st1" d="M1381.9,708.7c0-17.4-3.4-34.7-10.1-50.8s-16.5-30.7-28.8-43.1c-12.3-12.3-27-22.1-43.1-28.8
		s-33.4-10.1-50.9-10.1h-79.6V629h159.4v159.2h-159.4v53.1h79.6c17.5,0,34.7-3.4,50.9-10.1c16.1-6.7,30.8-16.4,43.1-28.8
		c12.3-12.3,22.1-27,28.8-43.1C1378.4,743.4,1381.9,726.1,1381.9,708.7z"/>
</g>
</svg>
