<?xml version="1.0" encoding="utf-8"?>
<!-- Generator: Adobe Illustrator 22.0.0, SVG Export Plug-In . SVG Version: 6.00 Build 0)  -->
<svg version="1.1" id="Layer_1" xmlns="http://www.w3.org/2000/svg" xmlns:xlink="http://www.w3.org/1999/xlink" x="0px" y="0px"
	 viewBox="0 0 2000 1400" style="enable-background:new 0 0 2000 1400;" xml:space="preserve">
<style type="text/css">
	.st0{fill:#FFFFFF;}
	.st1{fill:#D1D1D5;}
	.st2{fill:#A4A4AB;}
	.st3{opacity:0.3;}
	.st4{fill:none;stroke:#1B1B2D;stroke-miterlimit:10;}
	.st5{fill:#1B1B2D;}
	.st6{fill:none;stroke:#242435;stroke-miterlimit:10;}
</style>
<rect class="st0" width="2000" height="1400"/>
<rect x="1212.5" y="250.1" class="st1" width="225" height="225"/>
<rect x="1212.3" y="475.1" class="st2" width="225.2" height="449.8"/>
<g class="st3">
	<line class="st4" x1="787.7" y1="0" x2="787.7" y2="1400"/>
	<line class="st4" x1="1212.5" y1="0" x2="1212.5" y2="1400"/>
	<line class="st4" x1="1437.5" y1="0" x2="1437.5" y2="1400"/>
	<line class="st4" x1="2000" y1="475.1" x2="0" y2="475.1"/>
	<line class="st4" x1="2000" y1="924.9" x2="0" y2="924.9"/>
</g>
<rect x="562.7" y="924.9" class="st1" width="225" height="225"/>
<g>
	<path class="st5" d="M1212.3,700c0,49.3-15.3,97.4-43.8,137.7s-68.8,70.7-115.3,87.2v-57.2c31.8-15,58.7-38.8,77.5-68.5
		s28.8-64.1,28.8-99.3c0-35.1-10-69.6-28.9-99.2c-18.8-29.7-45.7-53.4-77.5-68.4v-57.2c46.6,16.5,86.9,46.9,115.4,87.2
		S1212.3,650.7,1212.3,700z"/>
	<rect x="787.7" y="673.5" class="st5" width="212.3" height="53"/>
	<path class="st5" d="M1106.1,700c0-17.4-3.4-34.6-10.1-50.7c-6.7-16.1-16.4-30.7-28.8-43c-12.3-12.3-27-22.1-43.1-28.7
		c-16.1-6.7-33.4-10.1-50.8-10.1h-79.5v53H1053v159H893.9v53h79.5c17.4,0,34.7-3.4,50.8-10.1c16.1-6.7,30.7-16.4,43.1-28.7
		c12.3-12.3,22.1-26.9,28.8-43C1102.7,734.7,1106.1,717.4,1106.1,700z"/>
</g>
<rect x="562.5" y="250.5" class="st6" width="875" height="899"/>
<g>
	<g>
		<path class="st1" d="M1497.2,330.7v-31.4l-30.2-51.5h10.1l23.7,40.9h2.4l23.7-40.9h10.1l-30.2,51.5v31.4H1497.2z"/>
		<path class="st1" d="M1564.1,290.4v-30.8H1554v-6.5h6.5c1.2,0,2.1-0.3,2.7-0.9c0.6-0.6,0.9-1.5,0.9-2.7v-1.8h7.1v42.6
			L1564.1,290.4L1564.1,290.4z M1555.2,330.7l51.5-82.9h8.3l-51.5,82.9H1555.2z M1596.7,330.7v-5.9l16.6-17.2
			c1.3-1.3,2.2-2.4,2.7-3.4c0.6-1,0.8-2.3,0.8-3.7c0-1.8-0.6-3.4-1.8-4.6c-1.2-1.3-2.8-1.9-4.7-1.9c-2.1,0-3.8,0.6-5.2,1.8
			c-1.3,1.2-2,3-2,5.3h-7.1c0-3.9,1.3-7.1,4-9.7s6.1-3.9,10.2-3.9s7.4,1.2,9.9,3.6s3.7,5.5,3.7,9.4c0,2.4-0.5,4.5-1.4,6.1
			s-2.4,3.5-4.6,5.7l-10.7,11.3v0.6h17.2v6.5L1596.7,330.7L1596.7,330.7z"/>
	</g>
</g>
<g>
	<g>
		<path class="st1" d="M1488.5,576.6v-31.4l-30.2-51.5h10.1l23.7,40.9h2.4l23.7-40.9h10.1l-30.2,51.5v31.4H1488.5z"/>
	</g>
</g>
</svg>
