<?xml version="1.0" encoding="utf-8"?>
<!-- Generator: Adobe Illustrator 22.0.0, SVG Export Plug-In . SVG Version: 6.00 Build 0)  -->
<svg version="1.1" id="Бараев_Александр_Анатольевич"
	 xmlns="http://www.w3.org/2000/svg" xmlns:xlink="http://www.w3.org/1999/xlink" x="0px" y="0px" viewBox="0 0 2551.2 1417.3"
	 style="enable-background:new 0 0 2551.2 1417.3;" xml:space="preserve">
<style type="text/css">
	.st0{fill:none;stroke:#000000;stroke-miterlimit:10;}
	.st1{opacity:0;fill:#F2F2F3;}
	.st2{fill:#1B1B2D;}
</style>
<rect class="st0" width="2551.2" height="1417.3"/>
<rect class="st1" width="2551.2" height="1417.3"/>
<g>
	<g>
		<path class="st2" d="M71.8,132.8c-3.9-2-7.1-4.6-9.7-8c-2.5-3.3-4.3-7.1-5.2-11.2h9.7c1.2,3.9,3.5,7.1,6.7,9.5
			c3.2,2.4,7.1,3.6,11.6,3.6c3.5,0,6.7-0.8,9.6-2.5c2.9-1.7,5.3-3.9,7.2-6.8c1.8-2.9,2.9-6.1,3.2-9.7H77.4v-8.4h27.5
			c-0.3-3.5-1.4-6.7-3.2-9.5c-1.8-2.8-4.2-5.1-7.2-6.8c-2.9-1.7-6.1-2.5-9.6-2.5c-4.4,0-8.2,1.2-11.4,3.6c-3.2,2.4-5.5,5.4-6.8,9.1
			h-9.7c1.1-4,2.9-7.6,5.5-10.8c2.6-3.3,5.8-5.9,9.7-7.8c3.9-1.9,8.1-2.9,12.8-2.9c5.5,0,10.5,1.4,15.1,4.1
			c4.5,2.7,8.1,6.5,10.8,11.4c2.7,4.9,4,10.4,4,16.5c0,6.2-1.3,11.7-4,16.5c-2.7,4.9-6.3,8.7-10.8,11.4c-4.5,2.7-9.6,4.1-15.1,4.1
			C80.1,135.8,75.7,134.8,71.8,132.8z"/>
		<path class="st2" d="M115.6,135.3v-9.2h2.8c4.1,0,6.3-2.4,6.8-7.2l3.9-46.3h40.2v62.2h-9.3V81.5h-22.2l-3.3,38.5
			c-0.4,5.2-1.9,9.1-4.4,11.6c-2.5,2.5-6.1,3.7-10.8,3.7H115.6z"/>
		<path class="st2" d="M204.8,134.9h-9.3V81.5h-19.6v-8.9h48.4v8.9h-19.5V134.9z"/>
		<path class="st2" d="M278,134.9h-10l-5.3-14.9H234l-5.3,14.9h-10.1l22.9-62.2h13.7L278,134.9z M247.4,82.6L237,111.5h22.6
			l-10.4-28.9H247.4z"/>
	</g>
</g>
<g>
	<g>
		<path class="st2" d="M1288.2,111.5c-3.1-1.9-5.6-4.4-7.4-7.8c-1.8-3.3-2.7-7.1-2.7-11.4c0-4.3,0.9-8.1,2.7-11.4
			c1.8-3.3,4.3-5.9,7.4-7.8c3.1-1.8,6.6-2.8,10.3-2.8c4.6,0,8.6,1.3,12,3.8c3.4,2.6,5.7,6.1,6.9,10.5h-5.2c-1.1-3-2.8-5.4-5.2-7.2
			c-2.4-1.7-5.3-2.6-8.5-2.6c-2.8,0-5.5,0.7-7.8,2.2s-4.3,3.5-5.6,6.2c-1.4,2.6-2.1,5.7-2.1,9c0,3.4,0.7,6.4,2.1,9
			c1.4,2.6,3.3,4.7,5.6,6.2s5,2.2,7.8,2.2c3.2,0,6-0.9,8.5-2.7c2.4-1.8,4.2-4.2,5.2-7.4h5.2c-1.2,4.6-3.5,8.1-6.9,10.7
			c-3.4,2.6-7.4,3.9-12,3.9C1294.7,114.3,1291.3,113.3,1288.2,111.5z"/>
		<path class="st2" d="M1328.4,113.6h-4.6V83.1h8.5l8.2,25.3h1.2l8.2-25.3h8.5v30.5h-4.6v-25h-1.2l-8.2,25h-6.7l-8.2-25h-1.2V113.6z
			"/>
		<path class="st2" d="M1375,113.6h-7.9V83.1h4.6v25h1.2l11.6-25h7.9v30.5h-4.6v-25h-1.2L1375,113.6z"/>
		<path class="st2" d="M1401,125.8V83.1h4l0.6,4.3h0.3c1.3-1.6,2.7-2.8,4.3-3.6c1.6-0.8,3.4-1.3,5.5-1.3c2.6,0,5,0.7,7.2,2
			c2.1,1.3,3.8,3.2,5,5.6c1.2,2.4,1.8,5.1,1.8,8.2c0,3.1-0.6,5.8-1.8,8.2c-1.2,2.4-2.9,4.3-5,5.6c-2.1,1.3-4.5,2-7.2,2
			c-2.1,0-3.9-0.4-5.5-1.3s-3-2-4.3-3.6h-0.3v16.5H1401z M1420.1,108.5c1.5-1,2.7-2.3,3.6-4.1c0.9-1.7,1.3-3.8,1.3-6
			c0-2.3-0.4-4.3-1.3-6c-0.9-1.7-2.1-3.1-3.6-4.1s-3.1-1.5-4.8-1.5s-3.4,0.5-4.8,1.5s-2.7,2.3-3.6,4.1c-0.9,1.7-1.3,3.8-1.3,6
			c0,2.3,0.4,4.3,1.3,6c0.9,1.7,2.1,3.1,3.6,4.1s3.1,1.5,4.8,1.5S1418.7,109.5,1420.1,108.5z"/>
		<path class="st2" d="M1440.9,113.6h-4.6V83.1h4.6v13.1h16.2V83.1h4.6v30.5h-4.6v-13.1h-16.2V113.6z"/>
		<path class="st2" d="M1475.6,112.2c-2.2-1.3-4-3.2-5.3-5.6c-1.3-2.4-1.9-5.1-1.9-8.2c0-3.1,0.6-5.8,1.9-8.2c1.3-2.4,3-4.3,5.3-5.6
			c2.2-1.3,4.7-2,7.4-2s5.2,0.7,7.4,2c2.2,1.3,4,3.2,5.3,5.6c1.3,2.4,1.9,5.1,1.9,8.2c0,3.1-0.6,5.8-1.9,8.2s-3,4.3-5.3,5.6
			c-2.2,1.3-4.7,2-7.4,2S1477.8,113.6,1475.6,112.2z M1488.1,108.6c1.5-1,2.8-2.3,3.7-4.1c0.9-1.8,1.3-3.8,1.3-6.1
			c0-2.3-0.4-4.3-1.3-6.1c-0.9-1.8-2.1-3.1-3.7-4.1c-1.5-1-3.2-1.4-5.1-1.4s-3.5,0.5-5.1,1.4c-1.5,1-2.8,2.3-3.7,4.1
			c-0.9,1.8-1.3,3.8-1.3,6.1c0,2.3,0.4,4.3,1.3,6.1c0.9,1.8,2.1,3.1,3.7,4.1c1.5,1,3.2,1.4,5.1,1.4S1486.5,109.5,1488.1,108.6z"/>
		<path class="st2" d="M1504.4,113.6V83.1h15.9c2.6,0,4.7,0.8,6.2,2.3c1.5,1.5,2.3,3.6,2.3,6.2c0,1.5-0.4,2.9-1.1,4
			c-0.8,1.1-1.6,1.9-2.5,2.4v0.3c1.1,0.4,2.1,1.2,3,2.3c0.9,1.1,1.3,2.6,1.3,4.3c0,2.5-0.8,4.5-2.4,6.2c-1.6,1.6-3.7,2.5-6.1,2.5
			H1504.4z M1519.6,96.3c1.3,0,2.3-0.4,3.2-1.3c0.9-0.9,1.3-2,1.3-3.3s-0.4-2.4-1.3-3.3s-2-1.3-3.2-1.3h-10.7v9.2H1519.6z
			 M1520.2,109.7c1.3,0,2.3-0.4,3.2-1.3c0.9-0.9,1.3-2,1.3-3.4c0-1.4-0.4-2.6-1.3-3.4c-0.9-0.9-2-1.3-3.2-1.3h-11.3v9.5H1520.2z"/>
		<path class="st2" d="M1559,113.6h-8.2V70.9h4.9v36.9h1.2l19.2-36.9h8.2v42.7h-4.9V76.7h-1.2L1559,113.6z"/>
		<path class="st2" d="M1589.8,114v-4.6h1.8c1.1,0,2.1-0.3,2.7-1s1.1-1.8,1.2-3.2l1.8-22h20.4v30.5h-4.6V87.4h-11.6l-1.5,17.7
			c-0.3,3-1.1,5.2-2.5,6.7c-1.4,1.4-3.4,2.2-6,2.2H1589.8z"/>
		<path class="st2" d="M1626.4,113.6V83.1h4.6v10.4h9.5c2,0,3.8,0.4,5.4,1.3c1.6,0.9,2.8,2.1,3.7,3.6c0.9,1.5,1.3,3.2,1.3,5.2
			c0,1.9-0.4,3.6-1.3,5.2c-0.9,1.5-2.1,2.7-3.7,3.6c-1.6,0.9-3.4,1.3-5.4,1.3H1626.4z M1640.4,109.4c1.7,0,3-0.5,4.1-1.6
			c1.1-1.1,1.6-2.5,1.6-4.1c0-1.7-0.5-3-1.6-4.1c-1.1-1.1-2.5-1.6-4.1-1.6h-9.5v11.6H1640.4z"/>
		<path class="st2" d="M1679.4,83.1v30.5h-4.6v-11h-3.7l-11,11h-5.8l11-11h-0.3c-2.9,0-5.3-0.9-7.2-2.7c-1.9-1.8-2.8-4.2-2.8-7
			c0-2.9,0.9-5.2,2.8-7c1.9-1.8,4.3-2.7,7.2-2.7H1679.4z M1674.9,98.4v-11h-9.8c-1.5,0-2.8,0.5-3.9,1.5c-1.1,1-1.6,2.3-1.6,4
			c0,1.6,0.5,2.9,1.6,4c1.1,1,2.4,1.5,3.9,1.5H1674.9z"/>
		<path class="st2" d="M1710.9,111.5c-3.1-1.9-5.6-4.4-7.4-7.8c-1.8-3.3-2.7-7.1-2.7-11.4c0-4.3,0.9-8.1,2.7-11.4
			c1.8-3.3,4.3-5.9,7.4-7.8c3.1-1.8,6.6-2.8,10.3-2.8c4.6,0,8.6,1.3,12,3.8c3.4,2.6,5.7,6.1,6.9,10.5h-5.2c-1.1-3-2.8-5.4-5.2-7.2
			c-2.4-1.7-5.3-2.6-8.5-2.6c-2.8,0-5.5,0.7-7.8,2.2s-4.3,3.5-5.6,6.2c-1.4,2.6-2.1,5.7-2.1,9c0,3.4,0.7,6.4,2.1,9
			c1.4,2.6,3.3,4.7,5.6,6.2s5,2.2,7.8,2.2c3.2,0,6-0.9,8.5-2.7c2.4-1.8,4.2-4.2,5.2-7.4h5.2c-1.2,4.6-3.5,8.1-6.9,10.7
			c-3.4,2.6-7.4,3.9-12,3.9C1717.5,114.3,1714,113.3,1710.9,111.5z"/>
		<path class="st2" d="M1751.9,112.2c-2.2-1.3-4-3.2-5.3-5.6s-1.9-5.1-1.9-8.2c0-3.1,0.6-5.8,1.9-8.2c1.3-2.4,3-4.3,5.3-5.6
			c2.2-1.3,4.7-2,7.4-2c2.6,0,5,0.6,7.1,1.9c2.2,1.3,3.8,3,5.1,5.2c1.2,2.2,1.8,4.7,1.8,7.5c0,1.6-0.1,2.7-0.3,3.4h-23.8
			c0.3,2.8,1.4,5.1,3.3,6.9c1.9,1.7,4.2,2.6,6.8,2.6c1.8,0,3.5-0.4,4.9-1.3c1.4-0.9,2.6-2.1,3.3-3.6h4.9c-1.1,2.9-2.7,5.2-5,6.8
			c-2.3,1.6-5,2.4-8.1,2.4C1756.6,114.3,1754.1,113.6,1751.9,112.2z M1768.8,96.3c-0.2-2.8-1.1-5-2.9-6.8c-1.8-1.8-4-2.7-6.6-2.7
			c-2.7,0-5,0.9-6.8,2.7c-1.8,1.8-2.9,4-3.2,6.8H1768.8z"/>
		<path class="st2" d="M1780.1,125.8V83.1h4l0.6,4.3h0.3c1.3-1.6,2.7-2.8,4.3-3.6c1.6-0.8,3.4-1.3,5.5-1.3c2.6,0,5,0.7,7.2,2
			c2.1,1.3,3.8,3.2,5,5.6c1.2,2.4,1.8,5.1,1.8,8.2c0,3.1-0.6,5.8-1.8,8.2c-1.2,2.4-2.9,4.3-5,5.6c-2.1,1.3-4.5,2-7.2,2
			c-2.1,0-3.9-0.4-5.5-1.3s-3-2-4.3-3.6h-0.3v16.5H1780.1z M1799.3,108.5c1.5-1,2.7-2.3,3.6-4.1c0.9-1.7,1.3-3.8,1.3-6
			c0-2.3-0.4-4.3-1.3-6c-0.9-1.7-2.1-3.1-3.6-4.1s-3.1-1.5-4.8-1.5c-1.7,0-3.4,0.5-4.8,1.5c-1.5,1-2.7,2.3-3.6,4.1
			c-0.9,1.7-1.3,3.8-1.3,6c0,2.3,0.4,4.3,1.3,6c0.9,1.7,2.1,3.1,3.6,4.1c1.5,1,3.1,1.5,4.8,1.5
			C1796.2,110,1797.8,109.5,1799.3,108.5z"/>
		<path class="st2" d="M1820,113.6h-4.6V83.1h19.5v4.3H1820V113.6z"/>
		<path class="st2" d="M1844.6,112.2c-2.2-1.3-4-3.2-5.3-5.6s-1.9-5.1-1.9-8.2c0-3.1,0.6-5.8,1.9-8.2c1.3-2.4,3-4.3,5.3-5.6
			c2.2-1.3,4.7-2,7.4-2c2.6,0,5,0.6,7.1,1.9c2.2,1.3,3.8,3,5.1,5.2c1.2,2.2,1.8,4.7,1.8,7.5c0,1.6-0.1,2.7-0.3,3.4H1842
			c0.3,2.8,1.4,5.1,3.3,6.9c1.9,1.7,4.2,2.6,6.8,2.6c1.8,0,3.5-0.4,4.9-1.3c1.4-0.9,2.6-2.1,3.3-3.6h4.9c-1.1,2.9-2.7,5.2-5,6.8
			c-2.3,1.6-5,2.4-8.1,2.4C1849.3,114.3,1846.8,113.6,1844.6,112.2z M1861.5,96.3c-0.2-2.8-1.1-5-2.9-6.8c-1.8-1.8-4-2.7-6.6-2.7
			c-2.7,0-5,0.9-6.8,2.7c-1.8,1.8-2.9,4-3.2,6.8H1861.5z"/>
		<path class="st2" d="M1878.2,112.2c-2.2-1.3-4-3.2-5.3-5.6s-1.9-5.1-1.9-8.2c0-3.1,0.6-5.8,1.9-8.2c1.3-2.4,3-4.3,5.3-5.6
			c2.2-1.3,4.7-2,7.4-2c2.6,0,5,0.6,7.1,1.9c2.2,1.3,3.8,3,5.1,5.2c1.2,2.2,1.8,4.7,1.8,7.5c0,1.6-0.1,2.7-0.3,3.4h-23.8
			c0.3,2.8,1.4,5.1,3.3,6.9c1.9,1.7,4.2,2.6,6.8,2.6c1.8,0,3.5-0.4,4.9-1.3c1.4-0.9,2.6-2.1,3.3-3.6h4.9c-1.1,2.9-2.7,5.2-5,6.8
			c-2.3,1.6-5,2.4-8.1,2.4C1882.9,114.3,1880.4,113.6,1878.2,112.2z M1895.1,96.3c-0.2-2.8-1.1-5-2.9-6.8c-1.8-1.8-4-2.7-6.6-2.7
			c-2.7,0-5,0.9-6.8,2.7c-1.8,1.8-2.9,4-3.2,6.8H1895.1z"/>
		<path class="st2" d="M1906.3,113.6V83.1h15.9c2.6,0,4.7,0.8,6.2,2.3c1.5,1.5,2.3,3.6,2.3,6.2c0,1.5-0.4,2.9-1.1,4
			c-0.8,1.1-1.6,1.9-2.5,2.4v0.3c1.1,0.4,2.1,1.2,3,2.3c0.9,1.1,1.3,2.6,1.3,4.3c0,2.5-0.8,4.5-2.4,6.2c-1.6,1.6-3.7,2.5-6.1,2.5
			H1906.3z M1921.6,96.3c1.3,0,2.3-0.4,3.2-1.3c0.9-0.9,1.3-2,1.3-3.3s-0.4-2.4-1.3-3.3s-2-1.3-3.2-1.3h-10.7v9.2H1921.6z
			 M1922.2,109.7c1.3,0,2.3-0.4,3.2-1.3c0.9-0.9,1.3-2,1.3-3.4c0-1.4-0.4-2.6-1.3-3.4c-0.9-0.9-2-1.3-3.2-1.3h-11.3v9.5H1922.2z"/>
		<path class="st2" d="M1946,113.6h-7.9V83.1h4.6v25h1.2l11.6-25h7.9v30.5h-4.6v-25h-1.2L1946,113.6z"/>
		<path class="st2" d="M1990.5,101.8c-1.3,0.9-2.7,1.5-4.1,1.9c-1.4,0.4-3,0.5-4.7,0.5c-3.7,0-6.4-1-8.2-2.9s-2.7-4.8-2.7-8.7v-9.5
			h4.6v9.5c0,2.4,0.6,4.3,1.8,5.5c1.2,1.2,2.9,1.8,5.2,1.8c1.6,0,3.1-0.2,4.4-0.7c1.3-0.4,2.6-1.1,3.8-2.1v-14h4.6v30.5h-4.6V101.8z
			"/>
		<path class="st2" d="M1279.9,177.6v-42.7h18.6c2.2,0,4.3,0.6,6.1,1.7c1.8,1.1,3.3,2.7,4.4,4.7c1.1,2,1.6,4.2,1.6,6.7
			s-0.5,4.7-1.6,6.7c-1.1,2-2.6,3.6-4.4,4.7c-1.9,1.1-3.9,1.7-6.1,1.7h-13.7v16.5H1279.9z M1298.5,156.6c2,0,3.8-0.8,5.2-2.4
			s2.1-3.6,2.1-6.2s-0.7-4.6-2.1-6.2s-3.2-2.4-5.2-2.4h-13.7v17.1H1298.5z"/>
		<path class="st2" d="M1338.4,147.1h4.9l-13.7,38.4c-0.5,1.5-1.2,2.5-2.1,3.2c-0.9,0.7-2.1,1-3.7,1h-6.1v-4.3h5.8
			c1,0,1.7-0.6,2.1-1.8l1.2-3.7l-12.5-32.9h4.9l9.5,25.3h1.2L1338.4,147.1z"/>
		<path class="st2" d="M1352.8,177.6h-4.6v-30.5h4.6v14l13.7-14h5.9l-14.6,14.9l15.3,15.6h-5.9l-14.3-14.6V177.6z"/>
		<path class="st2" d="M1381.3,176.2c-2.2-1.3-4-3.2-5.3-5.6s-1.9-5.1-1.9-8.2c0-3.1,0.6-5.8,1.9-8.2c1.3-2.4,3-4.3,5.3-5.6
			c2.2-1.3,4.7-2,7.4-2c2.7,0,5.2,0.7,7.4,2c2.2,1.3,4,3.2,5.3,5.6c1.3,2.4,1.9,5.1,1.9,8.2c0,3.1-0.6,5.8-1.9,8.2
			c-1.3,2.4-3,4.3-5.3,5.6c-2.2,1.3-4.7,2-7.4,2C1386,178.3,1383.6,177.6,1381.3,176.2z M1393.8,172.6c1.5-1,2.8-2.3,3.7-4.1
			c0.9-1.8,1.3-3.8,1.3-6.1c0-2.3-0.4-4.3-1.3-6.1c-0.9-1.8-2.1-3.1-3.7-4.1c-1.5-1-3.2-1.4-5.1-1.4s-3.5,0.5-5.1,1.4
			c-1.5,1-2.8,2.3-3.7,4.1c-0.9,1.8-1.3,3.8-1.3,6.1c0,2.3,0.4,4.3,1.3,6.1c0.9,1.8,2.1,3.1,3.7,4.1c1.5,1,3.2,1.4,5.1,1.4
			S1392.3,173.5,1393.8,172.6z"/>
		<path class="st2" d="M1410.1,177.6v-30.5h15.9c2.6,0,4.7,0.8,6.2,2.3c1.5,1.5,2.3,3.6,2.3,6.2c0,1.5-0.4,2.9-1.1,4
			c-0.8,1.1-1.6,1.9-2.5,2.4v0.3c1.1,0.4,2.1,1.2,3,2.3c0.9,1.1,1.3,2.6,1.3,4.3c0,2.5-0.8,4.5-2.4,6.2c-1.6,1.6-3.7,2.5-6.1,2.5
			H1410.1z M1425.4,160.3c1.3,0,2.3-0.4,3.2-1.3c0.9-0.9,1.3-2,1.3-3.3s-0.4-2.4-1.3-3.3c-0.9-0.9-2-1.3-3.2-1.3h-10.7v9.2H1425.4z
			 M1426,173.7c1.3,0,2.3-0.4,3.2-1.3c0.9-0.9,1.3-2,1.3-3.4c0-1.4-0.4-2.6-1.3-3.4c-0.9-0.9-2-1.3-3.2-1.3h-11.3v9.5H1426z"/>
		<path class="st2" d="M1447.2,176.2c-2.2-1.3-4-3.2-5.3-5.6s-1.9-5.1-1.9-8.2c0-3.1,0.6-5.8,1.9-8.2c1.3-2.4,3-4.3,5.3-5.6
			c2.2-1.3,4.7-2,7.4-2c2.7,0,5.2,0.7,7.4,2c2.2,1.3,4,3.2,5.3,5.6c1.3,2.4,1.9,5.1,1.9,8.2c0,3.1-0.6,5.8-1.9,8.2
			c-1.3,2.4-3,4.3-5.3,5.6c-2.2,1.3-4.7,2-7.4,2C1451.9,178.3,1449.4,177.6,1447.2,176.2z M1459.7,172.6c1.5-1,2.8-2.3,3.7-4.1
			c0.9-1.8,1.3-3.8,1.3-6.1c0-2.3-0.4-4.3-1.3-6.1c-0.9-1.8-2.1-3.1-3.7-4.1c-1.5-1-3.2-1.4-5.1-1.4s-3.5,0.5-5.1,1.4
			c-1.5,1-2.8,2.3-3.7,4.1c-0.9,1.8-1.3,3.8-1.3,6.1c0,2.3,0.4,4.3,1.3,6.1c0.9,1.8,2.1,3.1,3.7,4.1c1.5,1,3.2,1.4,5.1,1.4
			S1458.2,173.5,1459.7,172.6z"/>
		<path class="st2" d="M1471.1,185v-11.6h0.6c1.4,0,2.4-0.3,3.1-1s1.1-1.8,1.2-3.3l1.8-22h20.4v26.2h4.3V185h-4.6v-7.3h-22.3v7.3
			H1471.1z M1493.7,173.4v-22h-11.6l-1.5,17.7c-0.1,1.1-0.3,2-0.6,2.8c-0.3,0.8-0.6,1.3-0.9,1.5H1493.7z"/>
		<path class="st2" d="M1515.9,177.6h-7.9v-30.5h4.6v25h1.2l11.6-25h7.9v30.5h-4.6v-25h-1.2L1515.9,177.6z"/>
		<path class="st2" d="M1553.5,177.6h-4.6v-26.2h-10.4v-4.3h25.3v4.3h-10.4V177.6z"/>
		<path class="st2" d="M1573.2,176.2c-2.2-1.3-4-3.2-5.3-5.6s-1.9-5.1-1.9-8.2c0-3.1,0.6-5.8,1.9-8.2c1.3-2.4,3-4.3,5.3-5.6
			c2.2-1.3,4.7-2,7.4-2c2.6,0,5,0.6,7.1,1.9c2.2,1.3,3.8,3,5.1,5.2c1.2,2.2,1.8,4.7,1.8,7.5c0,1.6-0.1,2.7-0.3,3.4h-23.8
			c0.3,2.8,1.4,5.1,3.3,6.9c1.9,1.7,4.2,2.6,6.8,2.6c1.8,0,3.5-0.4,4.9-1.3c1.4-0.9,2.6-2.1,3.3-3.6h4.9c-1.1,2.9-2.7,5.2-5,6.8
			c-2.3,1.6-5,2.4-8.1,2.4C1577.9,178.3,1575.4,177.6,1573.2,176.2z M1590.1,160.3c-0.2-2.8-1.1-5-2.9-6.8c-1.8-1.8-4-2.7-6.6-2.7
			c-2.7,0-5,0.9-6.8,2.7s-2.9,4-3.2,6.8H1590.1z"/>
		<path class="st2" d="M1597.1,178v-4.6h1.8c1.1,0,2.1-0.3,2.7-1s1.1-1.8,1.2-3.2l1.8-22h20.4v30.5h-4.6v-26.2H1609l-1.5,17.7
			c-0.3,3-1.1,5.2-2.5,6.7c-1.4,1.4-3.4,2.2-6,2.2H1597.1z"/>
		<path class="st2" d="M1633.7,177.6v-30.5h4.6v10.4h9.5c2,0,3.8,0.4,5.4,1.3c1.6,0.9,2.8,2.1,3.7,3.6c0.9,1.5,1.3,3.2,1.3,5.2
			c0,1.9-0.4,3.6-1.3,5.2c-0.9,1.5-2.1,2.7-3.7,3.6c-1.6,0.9-3.4,1.3-5.4,1.3H1633.7z M1647.7,173.4c1.7,0,3-0.5,4.1-1.6
			c1.1-1.1,1.6-2.5,1.6-4.1c0-1.7-0.5-3-1.6-4.1c-1.1-1.1-2.5-1.6-4.1-1.6h-9.5v11.6H1647.7z"/>
		<path class="st2" d="M1683.6,176.2c-2.2-1.3-4-3.2-5.3-5.6s-1.9-5.1-1.9-8.2c0-3.1,0.6-5.8,1.9-8.2c1.3-2.4,3-4.3,5.3-5.6
			c2.2-1.3,4.7-2,7.4-2c2.7,0,5.2,0.7,7.4,2c2.2,1.3,4,3.2,5.3,5.6c1.3,2.4,1.9,5.1,1.9,8.2c0,3.1-0.6,5.8-1.9,8.2
			c-1.3,2.4-3,4.3-5.3,5.6c-2.2,1.3-4.7,2-7.4,2C1688.3,178.3,1685.8,177.6,1683.6,176.2z M1696.1,172.6c1.5-1,2.8-2.3,3.7-4.1
			c0.9-1.8,1.3-3.8,1.3-6.1c0-2.3-0.4-4.3-1.3-6.1c-0.9-1.8-2.1-3.1-3.7-4.1c-1.5-1-3.2-1.4-5.1-1.4s-3.5,0.5-5.1,1.4
			c-1.5,1-2.8,2.3-3.7,4.1c-0.9,1.8-1.3,3.8-1.3,6.1c0,2.3,0.4,4.3,1.3,6.1c0.9,1.8,2.1,3.1,3.7,4.1c1.5,1,3.2,1.4,5.1,1.4
			S1694.5,173.5,1696.1,172.6z"/>
		<path class="st2" d="M1722.7,177.6h-4.6v-26.2h-10.4v-4.3h25.3v4.3h-10.4V177.6z"/>
		<path class="st2" d="M1732.8,185v-11.6h0.6c1.4,0,2.4-0.3,3.1-1s1.1-1.8,1.2-3.3l1.8-22h20.4v26.2h4.3V185h-4.6v-7.3h-22.3v7.3
			H1732.8z M1755.4,173.4v-22h-11.6l-1.5,17.7c-0.1,1.1-0.3,2-0.6,2.8c-0.3,0.8-0.6,1.3-0.9,1.5H1755.4z"/>
		<path class="st2" d="M1775.1,176.2c-2.2-1.3-4-3.2-5.3-5.6s-1.9-5.1-1.9-8.2c0-3.1,0.6-5.8,1.9-8.2c1.3-2.4,3-4.3,5.3-5.6
			c2.2-1.3,4.7-2,7.4-2c2.6,0,5,0.6,7.1,1.9c2.2,1.3,3.8,3,5.1,5.2c1.2,2.2,1.8,4.7,1.8,7.5c0,1.6-0.1,2.7-0.3,3.4h-23.8
			c0.3,2.8,1.4,5.1,3.3,6.9c1.9,1.7,4.2,2.6,6.8,2.6c1.8,0,3.5-0.4,4.9-1.3c1.4-0.9,2.6-2.1,3.3-3.6h4.9c-1.1,2.9-2.7,5.2-5,6.8
			c-2.3,1.6-5,2.4-8.1,2.4C1779.8,178.3,1777.3,177.6,1775.1,176.2z M1792,160.3c-0.2-2.8-1.1-5-2.9-6.8c-1.8-1.8-4-2.7-6.6-2.7
			c-2.7,0-5,0.9-6.8,2.7s-2.9,4-3.2,6.8H1792z"/>
		<path class="st2" d="M1799,178v-4.6h1.8c1.1,0,2.1-0.3,2.7-1s1.1-1.8,1.2-3.2l1.8-22h20.4v30.5h-4.6v-26.2h-11.6l-1.5,17.7
			c-0.3,3-1.1,5.2-2.5,6.7c-1.4,1.4-3.4,2.2-6,2.2H1799z"/>
		<path class="st2" d="M1837.3,175.6c-2-1.8-3-4-3-6.8c0-3,1-5.4,3-7.2c2-1.7,5.1-2.6,9.2-2.6h8.2v-0.9c0-2.3-0.7-4.1-2-5.4
			c-1.3-1.3-3.1-2-5.4-2c-2.2,0-4,0.5-5.3,1.5c-1.4,1-2.1,2.2-2.3,3.7h-4.6c0.1-1.7,0.7-3.2,1.6-4.7c1-1.4,2.4-2.6,4.2-3.5
			c1.8-0.9,3.9-1.3,6.4-1.3c3.7,0,6.6,1,8.7,3.1s3.2,4.9,3.2,8.5v19.5h-4l-0.6-3.7h-0.3c-0.7,1.1-1.9,2.1-3.6,3s-3.7,1.3-5.9,1.3
			C1841.9,178.3,1839.3,177.4,1837.3,175.6z M1852.2,171.5c1.7-1.7,2.6-4,2.6-6.9v-1.2h-8.2c-2.6,0-4.5,0.5-5.8,1.5
			c-1.2,1-1.9,2.3-1.9,4c0,1.5,0.5,2.8,1.6,3.8c1.1,1,2.6,1.4,4.5,1.4C1848.1,174,1850.5,173.1,1852.2,171.5z"/>
		<path class="st2" d="M1887.3,176.2c-2.2-1.3-4-3.2-5.3-5.6s-1.9-5.1-1.9-8.2c0-3.1,0.6-5.8,1.9-8.2c1.3-2.4,3-4.3,5.3-5.6
			c2.2-1.3,4.7-2,7.4-2c3.4,0,6.3,0.9,8.7,2.8c2.4,1.9,4,4.4,4.8,7.6h-4.6c-0.6-2-1.7-3.5-3.3-4.5c-1.6-1.1-3.4-1.6-5.6-1.6
			c-1.8,0-3.5,0.5-5.1,1.4c-1.5,1-2.8,2.3-3.7,4.1c-0.9,1.8-1.3,3.8-1.3,6.1c0,2.3,0.4,4.3,1.3,6.1c0.9,1.8,2.1,3.1,3.7,4.1
			c1.5,1,3.2,1.4,5.1,1.4c2.2,0,4.1-0.5,5.6-1.6c1.5-1.1,2.6-2.7,3.2-4.8h4.6c-0.8,3.3-2.4,5.9-4.8,7.8c-2.4,1.9-5.3,2.8-8.7,2.8
			C1892,178.3,1889.5,177.6,1887.3,176.2z"/>
		<path class="st2" d="M1919.2,177.6h-4.6v-30.5h4.6v13.1h16.2v-13.1h4.6v30.5h-4.6v-13.1h-16.2V177.6z"/>
		<path class="st2" d="M1950.2,175.6c-2-1.8-3-4-3-6.8c0-3,1-5.4,3-7.2c2-1.7,5.1-2.6,9.2-2.6h8.2v-0.9c0-2.3-0.7-4.1-2-5.4
			c-1.3-1.3-3.1-2-5.4-2c-2.2,0-4,0.5-5.3,1.5c-1.4,1-2.1,2.2-2.3,3.7h-4.6c0.1-1.7,0.7-3.2,1.6-4.7c1-1.4,2.4-2.6,4.2-3.5
			c1.8-0.9,3.9-1.3,6.4-1.3c3.7,0,6.6,1,8.7,3.1s3.2,4.9,3.2,8.5v19.5h-4l-0.6-3.7h-0.3c-0.7,1.1-1.9,2.1-3.6,3s-3.7,1.3-5.9,1.3
			C1954.7,178.3,1952.1,177.4,1950.2,175.6z M1965.1,171.5c1.7-1.7,2.6-4,2.6-6.9v-1.2h-8.2c-2.6,0-4.5,0.5-5.8,1.5
			c-1.2,1-1.9,2.3-1.9,4c0,1.5,0.5,2.8,1.6,3.8c1.1,1,2.6,1.4,4.5,1.4C1960.9,174,1963.3,173.1,1965.1,171.5z"/>
		<path class="st2" d="M1986.2,176.3c-2.2-1.3-3.9-3.2-5.1-5.6c-1.2-2.4-1.9-5.2-1.9-8.4v-1.8c0-5.3,0.7-9.5,2-12.7
			c1.3-3.2,3.5-5.7,6.6-7.4c1.4-0.8,2.8-1.3,4.4-1.7c1.5-0.4,3.5-0.7,5.9-0.9c1.4-0.2,2.4-0.6,3.1-1.3c0.6-0.7,1-1.7,1-3.1h4
			c0,2.6-0.7,4.5-1.9,5.9s-3.2,2.2-5.8,2.5c-1.8,0.2-3.4,0.4-4.8,0.8c-1.4,0.3-2.6,0.8-3.7,1.5c-3.5,2.1-5.6,5.5-6.1,10.1h0.3
			c2.4-3.3,5.8-4.9,10.1-4.9c2.5,0,4.8,0.6,6.9,1.9c2.1,1.2,3.8,3,5,5.2c1.2,2.2,1.8,4.6,1.8,7.3c0,2.8-0.6,5.3-1.9,7.5
			c-1.2,2.2-2.9,4-5.1,5.2c-2.2,1.3-4.6,1.9-7.4,1.9C1990.9,178.3,1988.4,177.6,1986.2,176.3z M1998.5,172.7
			c1.5-0.9,2.7-2.1,3.5-3.7c0.9-1.6,1.3-3.4,1.3-5.4c0-2-0.4-3.8-1.3-5.4c-0.9-1.6-2-2.8-3.5-3.7c-1.5-0.9-3.1-1.3-5-1.3
			s-3.5,0.4-5,1.3c-1.5,0.9-2.7,2.1-3.5,3.7c-0.9,1.6-1.3,3.4-1.3,5.4c0,2,0.4,3.8,1.3,5.4c0.9,1.6,2,2.8,3.5,3.7
			c1.5,0.9,3.1,1.3,5,1.3S1997.1,173.6,1998.5,172.7z"/>
		<path class="st2" d="M2014.6,177.6h-5.5l12.5-15.6l-11.6-14.9h5.5l11,14.3v-14.3h4.6v14.3l11-14.3h5.5l-11.6,14.9l12.5,15.6h-5.5
			l-11.9-14.9v14.9h-4.6v-14.9L2014.6,177.6z"/>
		<path class="st2" d="M2056.9,176.2c-2.2-1.3-4-3.2-5.3-5.6s-1.9-5.1-1.9-8.2c0-3.1,0.6-5.8,1.9-8.2c1.3-2.4,3-4.3,5.3-5.6
			c2.2-1.3,4.7-2,7.4-2c2.6,0,5,0.6,7.1,1.9c2.2,1.3,3.8,3,5.1,5.2c1.2,2.2,1.8,4.7,1.8,7.5c0,1.6-0.1,2.7-0.3,3.4h-23.8
			c0.3,2.8,1.4,5.1,3.3,6.9c1.9,1.7,4.2,2.6,6.8,2.6c1.8,0,3.5-0.4,4.9-1.3c1.4-0.9,2.6-2.1,3.3-3.6h4.9c-1.1,2.9-2.7,5.2-5,6.8
			c-2.3,1.6-5,2.4-8.1,2.4C2061.6,178.3,2059.1,177.6,2056.9,176.2z M2073.8,160.3c-0.2-2.8-1.1-5-2.9-6.8c-1.8-1.8-4-2.7-6.6-2.7
			c-2.7,0-5,0.9-6.8,2.7s-2.9,4-3.2,6.8H2073.8z"/>
		<path class="st2" d="M2089.6,177.6h-4.6v-30.5h4.6v13.1h16.2v-13.1h4.6v30.5h-4.6v-13.1h-16.2V177.6z"/>
		<path class="st2" d="M2126.9,177.6h-7.9v-30.5h4.6v25h1.2l11.6-25h7.9v30.5h-4.6v-25h-1.2L2126.9,177.6z"/>
		<path class="st2" d="M2175.4,147.1v30.5h-4.6v-11h-3.7l-11,11h-5.8l11-11h-0.3c-2.9,0-5.3-0.9-7.2-2.7c-1.9-1.8-2.8-4.2-2.8-7
			c0-2.9,0.9-5.2,2.8-7c1.9-1.8,4.3-2.7,7.2-2.7H2175.4z M2170.8,162.4v-11h-9.8c-1.5,0-2.8,0.5-3.9,1.5c-1.1,1-1.6,2.3-1.6,4
			c0,1.6,0.5,2.9,1.6,4c1.1,1,2.4,1.5,3.9,1.5H2170.8z"/>
	</g>
</g>
<g>
	<g>
		<path class="st2" d="M1293.6,320h-4.6v-11.9h-11v-4.3h11v-11.9h4.6v11.9h11v4.3h-11V320z"/>
		<path class="st2" d="M1320.8,323.6h-5.2l15-38.1h-21.4v-4.6h26.8v4L1320.8,323.6z"/>
		<path class="st2" d="M1363.4,335.8c-2.8-4.2-5-8.7-6.4-13.5c-1.4-4.8-2.1-9.8-2.1-14.9s0.7-10.1,2.1-14.9
			c1.4-4.8,3.6-9.3,6.4-13.5h4.9c-3,4.2-5.2,8.7-6.6,13.5c-1.5,4.8-2.2,9.8-2.2,14.9c0,5.2,0.7,10.1,2.2,14.9
			c1.5,4.8,3.7,9.3,6.6,13.5H1363.4z"/>
		<path class="st2" d="M1380.2,323.6l10.1-15.9h-0.3c-1.3,0.4-2.6,0.6-4,0.6c-2.5,0-4.8-0.6-6.9-1.8c-2.1-1.2-3.8-2.8-5-4.9
			c-1.2-2.1-1.8-4.4-1.8-7c0-2.6,0.6-5,2-7.2c1.3-2.2,3.1-3.9,5.3-5.2c2.2-1.3,4.7-1.9,7.4-1.9c2.7,0,5.1,0.6,7.4,1.9
			c2.2,1.3,4,3,5.3,5.2c1.3,2.2,2,4.6,2,7.2c0,1.4-0.2,2.9-0.7,4.5c-0.5,1.5-1.1,2.8-1.7,3.8l-13.4,20.7H1380.2z M1391.9,303.2
			c1.5-0.9,2.7-2,3.5-3.5c0.9-1.5,1.3-3.2,1.3-4.9c0-1.8-0.4-3.4-1.3-4.9c-0.9-1.5-2-2.7-3.5-3.5c-1.5-0.9-3.2-1.3-4.9-1.3
			s-3.4,0.4-4.9,1.3c-1.5,0.9-2.7,2-3.5,3.5c-0.9,1.5-1.3,3.2-1.3,4.9c0,1.8,0.4,3.4,1.3,4.9c0.9,1.5,2,2.7,3.5,3.5
			c1.5,0.9,3.2,1.3,4.9,1.3S1390.4,304,1391.9,303.2z"/>
		<path class="st2" d="M1414.2,322.9c-2-0.9-3.7-2.3-5-4.1c-1.3-1.8-2.1-3.9-2.4-6.4h4.9c0.4,2.3,1.5,4.1,3.2,5.4c1.7,1.3,3.7,2,6,2
			c1.8,0,3.4-0.4,4.9-1.3c1.5-0.9,2.7-2.1,3.5-3.6c0.9-1.5,1.3-3.2,1.3-5.1c0-2.9-0.9-5.3-2.7-7.1s-4-2.7-6.8-2.7
			c-1.7,0-3.3,0.3-4.7,0.9c-1.4,0.6-2.6,1.5-3.5,2.7h-5.2l2.4-22.6h22.9v4.6h-18.8l-1.3,12.5h0.3c1.1-0.9,2.3-1.6,3.8-2
			c1.5-0.5,3-0.7,4.8-0.7c2.4,0,4.7,0.6,6.8,1.9c2.1,1.3,3.8,3,5,5.2c1.3,2.2,1.9,4.7,1.9,7.4c0,2.8-0.6,5.3-1.9,7.5
			c-1.3,2.2-3,3.9-5.2,5.2c-2.2,1.2-4.7,1.9-7.5,1.9C1418.4,324.3,1416.2,323.8,1414.2,322.9z"/>
		<path class="st2" d="M1448.8,321.7c-2.5-1.7-4.5-4.2-6-7.5s-2.2-7.3-2.2-11.9c0-4.6,0.7-8.5,2.2-11.9c1.5-3.3,3.5-5.8,6-7.5
			s5.3-2.6,8.3-2.6c3,0,5.8,0.9,8.3,2.6c2.5,1.7,4.5,4.2,6,7.5c1.5,3.3,2.2,7.3,2.2,11.9c0,4.6-0.7,8.5-2.2,11.9
			c-1.5,3.3-3.5,5.8-6,7.5c-2.5,1.7-5.3,2.6-8.3,2.6C1454.1,324.3,1451.3,323.4,1448.8,321.7z M1462.8,317.7
			c1.8-1.3,3.2-3.3,4.2-5.9c1.1-2.6,1.6-5.8,1.6-9.5s-0.5-6.9-1.6-9.5c-1.1-2.6-2.5-4.6-4.2-5.9c-1.8-1.3-3.7-2-5.8-2s-4,0.7-5.8,2
			c-1.8,1.3-3.2,3.3-4.2,5.9c-1.1,2.6-1.6,5.8-1.6,9.5s0.5,6.9,1.6,9.5c1.1,2.6,2.5,4.6,4.2,5.9s3.7,2,5.8,2
			S1461.1,319,1462.8,317.7z"/>
		<path class="st2" d="M1478.4,335.8c3-4.2,5.2-8.7,6.6-13.5c1.5-4.8,2.2-9.7,2.2-14.9c0-5.2-0.7-10.1-2.2-14.9
			c-1.5-4.8-3.7-9.3-6.6-13.5h4.9c2.8,4.2,5,8.7,6.4,13.5c1.4,4.8,2.1,9.8,2.1,14.9s-0.7,10.1-2.1,14.9c-1.4,4.8-3.6,9.3-6.4,13.5
			H1478.4z"/>
		<path class="st2" d="M1521.7,321.7c-2.5-1.7-4.5-4.2-6-7.5c-1.5-3.3-2.2-7.3-2.2-11.9c0-4.6,0.7-8.5,2.2-11.9
			c1.5-3.3,3.5-5.8,6-7.5s5.3-2.6,8.3-2.6c3,0,5.8,0.9,8.3,2.6s4.5,4.2,6,7.5c1.5,3.3,2.2,7.3,2.2,11.9c0,4.6-0.7,8.5-2.2,11.9
			s-3.5,5.8-6,7.5s-5.3,2.6-8.3,2.6C1527,324.3,1524.2,323.4,1521.7,321.7z M1535.7,317.7c1.8-1.3,3.2-3.3,4.2-5.9
			c1.1-2.6,1.6-5.8,1.6-9.5s-0.5-6.9-1.6-9.5c-1.1-2.6-2.5-4.6-4.2-5.9c-1.8-1.3-3.7-2-5.8-2s-4,0.7-5.8,2c-1.8,1.3-3.2,3.3-4.2,5.9
			c-1.1,2.6-1.6,5.8-1.6,9.5s0.5,6.9,1.6,9.5c1.1,2.6,2.5,4.6,4.2,5.9c1.8,1.3,3.7,2,5.8,2S1534,319,1535.7,317.7z"/>
		<path class="st2" d="M1560.5,323.6v-33.5h-9.1v-4.3h7.3c1.2,0,1.8-0.6,1.8-1.8v-3.1h4.9v42.7H1560.5z"/>
		<path class="st2" d="M1581.8,321.7c-2.5-1.7-4.5-4.2-6-7.5s-2.2-7.3-2.2-11.9c0-4.6,0.7-8.5,2.2-11.9c1.5-3.3,3.5-5.8,6-7.5
			s5.3-2.6,8.3-2.6c3,0,5.8,0.9,8.3,2.6s4.5,4.2,6,7.5c1.5,3.3,2.2,7.3,2.2,11.9c0,4.6-0.7,8.5-2.2,11.9s-3.5,5.8-6,7.5
			s-5.3,2.6-8.3,2.6C1587.1,324.3,1584.3,323.4,1581.8,321.7z M1595.8,317.7c1.8-1.3,3.2-3.3,4.2-5.9c1.1-2.6,1.6-5.8,1.6-9.5
			s-0.5-6.9-1.6-9.5c-1.1-2.6-2.5-4.6-4.2-5.9c-1.8-1.3-3.7-2-5.8-2s-4,0.7-5.8,2c-1.8,1.3-3.2,3.3-4.2,5.9
			c-1.1,2.6-1.6,5.8-1.6,9.5s0.5,6.9,1.6,9.5c1.1,2.6,2.5,4.6,4.2,5.9c1.8,1.3,3.7,2,5.8,2S1594.1,319,1595.8,317.7z"/>
		<path class="st2" d="M1632.2,308.4h-19.5v-4.3h19.5V308.4z"/>
		<path class="st2" d="M1637,323.6v-4l17.4-18.6c1.3-1.4,2.2-2.7,2.8-3.8c0.6-1.2,0.9-2.5,0.9-4.1c0-2.4-0.8-4.4-2.3-5.9
			c-1.5-1.5-3.5-2.3-5.9-2.3c-1.5,0-2.9,0.4-4.1,1.2c-1.3,0.8-2.3,1.9-3,3.2c-0.7,1.4-1.1,3-1.1,4.8h-4.9c0-2.6,0.6-5,1.7-7
			c1.1-2.1,2.7-3.7,4.7-4.9c2-1.2,4.2-1.8,6.8-1.8c2.5,0,4.8,0.5,6.8,1.6c2,1.1,3.5,2.6,4.7,4.5c1.1,1.9,1.7,4.2,1.7,6.7
			c0,2.4-0.4,4.4-1.3,6.1c-0.9,1.7-2.2,3.4-3.9,5.2l-13.7,14.3v0.3h19.8v4.6H1637z"/>
		<path class="st2" d="M1676.5,322.9c-2-0.9-3.7-2.3-5-4.1c-1.3-1.8-2.1-3.9-2.4-6.4h4.9c0.4,2.3,1.5,4.1,3.2,5.4c1.7,1.3,3.7,2,6,2
			c1.8,0,3.4-0.4,4.9-1.3c1.5-0.9,2.7-2.1,3.5-3.6c0.9-1.5,1.3-3.2,1.3-5.1c0-2.9-0.9-5.3-2.7-7.1c-1.8-1.8-4-2.7-6.8-2.7
			c-1.7,0-3.3,0.3-4.7,0.9c-1.4,0.6-2.6,1.5-3.5,2.7h-5.2l2.4-22.6h22.9v4.6h-18.8l-1.3,12.5h0.3c1.1-0.9,2.3-1.6,3.8-2
			c1.5-0.5,3.1-0.7,4.8-0.7c2.4,0,4.7,0.6,6.8,1.9c2.1,1.3,3.8,3,5,5.2c1.3,2.2,1.9,4.7,1.9,7.4c0,2.8-0.6,5.3-1.9,7.5
			c-1.3,2.2-3,3.9-5.2,5.2c-2.2,1.2-4.7,1.9-7.5,1.9C1680.7,324.3,1678.5,323.8,1676.5,322.9z"/>
		<path class="st2" d="M1723,308.4h-19.5v-4.3h19.5V308.4z"/>
		<path class="st2" d="M1736.2,323.6l10.1-15.9h-0.3c-1.3,0.4-2.6,0.6-4,0.6c-2.5,0-4.8-0.6-6.9-1.8s-3.8-2.8-5-4.9
			c-1.2-2.1-1.8-4.4-1.8-7c0-2.6,0.6-5,2-7.2c1.3-2.2,3.1-3.9,5.3-5.2c2.2-1.3,4.7-1.9,7.4-1.9s5.1,0.6,7.4,1.9c2.2,1.3,4,3,5.3,5.2
			c1.3,2.2,2,4.6,2,7.2c0,1.4-0.2,2.9-0.7,4.5c-0.5,1.5-1.1,2.8-1.7,3.8l-13.4,20.7H1736.2z M1747.8,303.2c1.5-0.9,2.7-2,3.5-3.5
			c0.9-1.5,1.3-3.2,1.3-4.9c0-1.8-0.4-3.4-1.3-4.9c-0.9-1.5-2-2.7-3.5-3.5c-1.5-0.9-3.2-1.3-4.9-1.3c-1.8,0-3.4,0.4-4.9,1.3
			c-1.5,0.9-2.7,2-3.5,3.5c-0.9,1.5-1.3,3.2-1.3,4.9c0,1.8,0.4,3.4,1.3,4.9c0.9,1.5,2,2.7,3.5,3.5c1.5,0.9,3.2,1.3,4.9,1.3
			C1744.7,304.4,1746.3,304,1747.8,303.2z"/>
		<path class="st2" d="M1771.8,323.6h-5.2l15-38.1h-21.4v-4.6h26.8v4L1771.8,323.6z"/>
		<path class="st2" d="M1282.6,386.9c-1.9-0.9-3.3-2-4.3-3.5c-1-1.4-1.5-3-1.5-4.7h4.6c0,1.4,0.7,2.6,2,3.7c1.4,1,3.2,1.5,5.6,1.5
			c2.3,0,4.1-0.4,5.4-1.3c1.3-0.9,1.9-2,1.9-3.3c0-1.2-0.4-2.2-1.3-3c-0.8-0.8-2.1-1.3-3.9-1.6l-5.2-0.9c-5.7-1-8.5-3.8-8.5-8.5
			c0-2.6,1-4.7,2.9-6.3c1.9-1.7,4.7-2.5,8.4-2.5c2.4,0,4.4,0.4,6.3,1.3c1.8,0.9,3.2,2,4.2,3.5c1,1.5,1.5,3,1.5,4.6h-4.6
			c0-1.4-0.7-2.6-2-3.7c-1.3-1-3.1-1.5-5.3-1.5c-2.2,0-3.8,0.4-5,1.3c-1.2,0.9-1.7,2-1.7,3.3c0,1.1,0.4,2.1,1.1,2.7
			c0.8,0.7,2,1.2,3.8,1.5l5.2,0.9c3.1,0.5,5.3,1.5,6.7,3c1.4,1.5,2.1,3.4,2.1,5.9c0,2.6-1,4.7-3.1,6.3c-2.1,1.7-5,2.5-8.8,2.5
			C1286.6,388.3,1284.4,387.8,1282.6,386.9z"/>
		<path class="st2" d="M1307.3,387.6v-30.5h4l0.6,3.4h0.3c0.8-1,1.9-1.9,3.4-2.7s2.9-1.2,4.6-1.2c2.2,0,4,0.5,5.6,1.6
			c1.6,1.1,2.7,2.3,3.3,3.6h0.3c0.9-1.3,2.2-2.5,4-3.6c1.8-1.1,3.8-1.6,6.1-1.6c2.1,0,4,0.5,5.7,1.5c1.7,1,3,2.4,3.9,4.2
			c0.9,1.8,1.4,3.8,1.4,6.2v19.2h-4.6v-19.2c0-2.3-0.6-4.1-1.9-5.5c-1.3-1.4-3-2.1-5.1-2.1c-1.3,0-2.5,0.3-3.7,1
			c-1.2,0.7-2.1,1.6-2.8,2.8c-0.7,1.2-1.1,2.5-1.1,3.8v19.2h-4.6v-19.2c0-2.3-0.6-4.1-1.9-5.5c-1.3-1.4-3-2.1-5.1-2.1
			c-1.3,0-2.5,0.3-3.7,1c-1.2,0.7-2.1,1.6-2.8,2.8c-0.7,1.2-1.1,2.5-1.1,3.8v19.2H1307.3z"/>
		<path class="st2" d="M1363.8,350.7h-5.2v-5.2h5.2V350.7z M1363.4,387.6h-4.6v-30.5h4.6V387.6z"/>
		<path class="st2" d="M1372,387.6v-30.5h4l0.6,3h0.3c0.7-1.1,1.4-1.8,2.3-2.3c0.8-0.5,2-0.7,3.5-0.7h5.2v4.3h-4.6
			c-2.1,0-3.8,0.6-4.9,1.7s-1.8,2.8-1.8,5v19.5H1372z"/>
		<path class="st2" d="M1392.7,387.6v-30.5h4l0.6,3.4h0.3c0.8-1,2-1.9,3.7-2.7c1.6-0.8,3.5-1.2,5.5-1.2c2.3,0,4.4,0.5,6.3,1.6
			c1.8,1.1,3.3,2.6,4.4,4.5c1.1,2,1.6,4.2,1.6,6.6v18.3h-4.6v-18.3c0-1.6-0.4-3-1.1-4.3c-0.7-1.3-1.7-2.3-3-3.1
			c-1.3-0.8-2.6-1.1-4.1-1.1c-1.6,0-3.1,0.4-4.4,1.2c-1.4,0.8-2.4,1.8-3.2,3.1c-0.8,1.3-1.2,2.7-1.2,4.2v18.3H1392.7z"/>
		<path class="st2" d="M1432.9,386.2c-2.2-1.3-4-3.2-5.3-5.6s-1.9-5.1-1.9-8.2c0-3.1,0.6-5.8,1.9-8.2c1.3-2.4,3-4.3,5.3-5.6
			c2.2-1.3,4.7-2,7.4-2c2.7,0,5.2,0.7,7.4,2c2.2,1.3,4,3.2,5.3,5.6c1.3,2.4,1.9,5.1,1.9,8.2c0,3.1-0.6,5.8-1.9,8.2
			c-1.3,2.4-3,4.3-5.3,5.6c-2.2,1.3-4.7,2-7.4,2C1437.6,388.3,1435.1,387.6,1432.9,386.2z M1445.4,382.6c1.5-1,2.8-2.3,3.7-4.1
			c0.9-1.8,1.3-3.8,1.3-6.1c0-2.3-0.4-4.3-1.3-6.1c-0.9-1.8-2.1-3.1-3.7-4.1c-1.5-1-3.2-1.4-5.1-1.4s-3.5,0.5-5.1,1.4
			c-1.5,1-2.8,2.3-3.7,4.1c-0.9,1.8-1.3,3.8-1.3,6.1c0,2.3,0.4,4.3,1.3,6.1c0.9,1.8,2.1,3.1,3.7,4.1c1.5,1,3.2,1.4,5.1,1.4
			S1443.8,383.5,1445.4,382.6z"/>
		<path class="st2" d="M1475.7,387.6h-7.3l-11-30.5h4.9l9.1,25.6h1.2l9.1-25.6h4.9L1475.7,387.6z"/>
		<path class="st2" d="M1515.3,393.1c-4.8,0-9-1-12.7-3c-3.7-2-6.6-4.8-8.6-8.4s-3-7.6-3-12c0-4.6,1.1-8.7,3.2-12.4
			c2.1-3.7,5-6.5,8.7-8.6c3.7-2.1,7.9-3.1,12.5-3.1c5,0,9.4,1,13.2,3.1c3.8,2.1,6.8,4.9,8.9,8.5c2.1,3.6,3.2,7.5,3.2,11.9
			c0,4.5-1,7.9-2.9,10.2c-1.9,2.3-4.4,3.5-7.5,3.5c-1.7,0-3.2-0.4-4.3-1.2c-1.2-0.8-2-1.7-2.4-2.7h-0.3c-0.8,1-2,1.9-3.6,2.7
			c-1.6,0.8-3.4,1.2-5.3,1.2c-2.3,0-4.4-0.5-6.2-1.6s-3.3-2.6-4.3-4.5c-1.1-2-1.6-4.2-1.6-6.6c0-2.5,0.5-4.7,1.6-6.6
			c1.1-2,2.5-3.5,4.4-4.5c1.9-1.1,3.9-1.6,6.3-1.6c1.9,0,3.6,0.4,5,1.1c1.4,0.8,2.4,1.6,2.9,2.5h0.3l0.6-3h4v17.4
			c0,1.1,0.3,1.9,0.8,2.5c0.5,0.6,1.3,0.9,2.2,0.9c3.9,0,5.8-3.2,5.8-9.5c0-3.7-0.9-6.9-2.6-9.9s-4.2-5.2-7.3-6.9
			c-3.1-1.7-6.8-2.5-10.9-2.5c-3.8,0-7.2,0.8-10.2,2.5s-5.4,4-7,7c-1.7,3-2.5,6.4-2.5,10.2c0,3.7,0.8,7.1,2.5,10
			c1.6,2.9,4,5.2,7,6.8c3,1.6,6.5,2.4,10.4,2.4h12.5v4.3H1515.3z M1520.4,376.1c1.5-1.6,2.2-3.6,2.2-6.2c0-2.6-0.7-4.6-2.2-6.2
			c-1.5-1.6-3.4-2.3-5.7-2.3s-4.2,0.8-5.7,2.3c-1.5,1.6-2.2,3.6-2.2,6.2c0,2.6,0.7,4.6,2.2,6.2c1.5,1.6,3.4,2.3,5.7,2.3
			S1518.9,377.7,1520.4,376.1z"/>
		<path class="st2" d="M1553.3,386.2c-2.2-1.3-4-3.2-5.3-5.6s-1.9-5.1-1.9-8.2c0-3.1,0.6-5.8,1.9-8.2c1.3-2.4,3-4.3,5.3-5.6
			c2.2-1.3,4.7-2,7.4-2c2.6,0,5,0.6,7.1,1.9c2.2,1.3,3.8,3,5.1,5.2c1.2,2.2,1.8,4.7,1.8,7.5c0,1.6-0.1,2.7-0.3,3.4h-23.8
			c0.3,2.8,1.4,5.1,3.3,6.9c1.9,1.7,4.2,2.6,6.8,2.6c1.8,0,3.5-0.4,4.9-1.3c1.4-0.9,2.6-2.1,3.3-3.6h4.9c-1.1,2.9-2.7,5.2-5,6.8
			c-2.3,1.6-5,2.4-8.1,2.4C1558.1,388.3,1555.6,387.6,1553.3,386.2z M1570.2,370.3c-0.2-2.8-1.1-5-2.9-6.8c-1.8-1.8-4-2.7-6.6-2.7
			c-2.7,0-5,0.9-6.8,2.7s-2.9,4-3.2,6.8H1570.2z"/>
		<path class="st2" d="M1586.4,387.6h-4.6v-42.7h4.6V387.6z"/>
		<path class="st2" d="M1602.9,387.6c-1.7,0-3-0.5-4-1.4c-1-1-1.5-2.2-1.5-3.8v-21h-4.9v-4.3h4.9v-8.5h4.6v8.5h7v4.3h-7v20.1
			c0,1.2,0.6,1.8,1.8,1.8h5.2v4.3H1602.9z"/>
		<path class="st2" d="M1616.5,385.6c-2-1.8-3-4-3-6.8c0-3,1-5.4,3-7.2c2-1.7,5.1-2.6,9.2-2.6h8.2v-0.9c0-2.3-0.7-4.1-2-5.4
			c-1.3-1.3-3.1-2-5.4-2c-2.2,0-4,0.5-5.3,1.5c-1.4,1-2.1,2.2-2.3,3.7h-4.6c0.1-1.7,0.7-3.2,1.6-4.7c1-1.4,2.4-2.6,4.2-3.5
			c1.8-0.9,3.9-1.3,6.4-1.3c3.7,0,6.6,1,8.7,3.1s3.2,4.9,3.2,8.5v19.5h-4l-0.6-3.7h-0.3c-0.7,1.1-1.9,2.1-3.6,3s-3.7,1.3-5.9,1.3
			C1621,388.3,1618.5,387.4,1616.5,385.6z M1631.4,381.5c1.7-1.7,2.6-4,2.6-6.9v-1.2h-8.2c-2.6,0-4.5,0.5-5.8,1.5
			c-1.2,1-1.9,2.3-1.9,4c0,1.5,0.5,2.8,1.6,3.8c1.1,1,2.6,1.4,4.5,1.4C1627.3,384,1629.7,383.1,1631.4,381.5z"/>
		<path class="st2" d="M1665.1,372.4h-19.5v-4.3h19.5V372.4z"/>
		<path class="st2" d="M1675.4,386.9c-1.9-0.9-3.3-2-4.3-3.5c-1-1.4-1.5-3-1.5-4.7h4.6c0,1.4,0.7,2.6,2,3.7s3.2,1.5,5.6,1.5
			c2.3,0,4.1-0.4,5.4-1.3c1.3-0.9,1.9-2,1.9-3.3c0-1.2-0.4-2.2-1.3-3c-0.8-0.8-2.1-1.3-3.9-1.6l-5.2-0.9c-5.7-1-8.5-3.8-8.5-8.5
			c0-2.6,1-4.7,2.9-6.3c1.9-1.7,4.7-2.5,8.4-2.5c2.4,0,4.4,0.4,6.3,1.3c1.8,0.9,3.2,2,4.2,3.5c1,1.5,1.5,3,1.5,4.6h-4.6
			c0-1.4-0.7-2.6-2-3.7c-1.3-1-3.1-1.5-5.3-1.5c-2.2,0-3.8,0.4-5,1.3c-1.2,0.9-1.7,2-1.7,3.3c0,1.1,0.4,2.1,1.1,2.7
			c0.8,0.7,2,1.2,3.8,1.5l5.2,0.9c3,0.5,5.3,1.5,6.7,3c1.4,1.5,2.1,3.4,2.1,5.9c0,2.6-1,4.7-3.1,6.3c-2.1,1.7-5,2.5-8.8,2.5
			C1679.4,388.3,1677.3,387.8,1675.4,386.9z"/>
		<path class="st2" d="M1700.2,399.8v-42.7h4l0.6,4.3h0.3c1.3-1.6,2.7-2.8,4.3-3.6c1.6-0.8,3.4-1.3,5.5-1.3c2.6,0,5,0.7,7.2,2
			c2.1,1.3,3.8,3.2,5,5.6c1.2,2.4,1.8,5.1,1.8,8.2c0,3.1-0.6,5.8-1.8,8.2c-1.2,2.4-2.9,4.3-5,5.6c-2.1,1.3-4.5,2-7.2,2
			c-2.1,0-3.9-0.4-5.5-1.3s-3-2-4.3-3.6h-0.3v16.5H1700.2z M1719.3,382.5c1.5-1,2.7-2.3,3.6-4.1c0.9-1.7,1.3-3.8,1.3-6
			c0-2.3-0.4-4.3-1.3-6c-0.9-1.7-2.1-3.1-3.6-4.1s-3.1-1.5-4.8-1.5c-1.7,0-3.4,0.5-4.8,1.5c-1.5,1-2.7,2.3-3.6,4.1
			c-0.9,1.7-1.3,3.8-1.3,6c0,2.3,0.4,4.3,1.3,6c0.9,1.7,2.1,3.1,3.6,4.1c1.5,1,3.1,1.5,4.8,1.5
			C1716.2,384,1717.9,383.5,1719.3,382.5z"/>
		<path class="st2" d="M1745,387c-1.6-0.8-3-2-4.3-3.6h-0.3l-0.6,4.3h-4v-42.7h4.6v16.5h0.3c1.3-1.6,2.7-2.8,4.3-3.6
			c1.6-0.8,3.4-1.3,5.5-1.3c2.6,0,5,0.7,7.2,2c2.1,1.3,3.8,3.2,5,5.6c1.2,2.4,1.8,5.1,1.8,8.2c0,3.1-0.6,5.8-1.8,8.2s-2.9,4.3-5,5.6
			c-2.1,1.3-4.5,2-7.2,2C1748.4,388.3,1746.6,387.8,1745,387z M1755,382.5c1.5-1,2.7-2.3,3.6-4.1c0.9-1.7,1.3-3.8,1.3-6
			c0-2.3-0.4-4.3-1.3-6c-0.9-1.7-2.1-3.1-3.6-4.1c-1.5-1-3.1-1.5-4.8-1.5c-1.7,0-3.4,0.5-4.8,1.5c-1.5,1-2.7,2.3-3.6,4.1
			c-0.9,1.7-1.3,3.8-1.3,6c0,2.3,0.4,4.3,1.3,6c0.9,1.7,2.1,3.1,3.6,4.1c1.5,1,3.1,1.5,4.8,1.5C1751.9,384,1753.5,383.5,1755,382.5z
			"/>
		<path class="st2" d="M1776.1,387.6h-5.5v-5.5h5.5V387.6z"/>
		<path class="st2" d="M1789.4,386.2c-2.2-1.3-4-3.2-5.3-5.6s-1.9-5.1-1.9-8.2c0-3.1,0.6-5.8,1.9-8.2c1.3-2.4,3-4.3,5.3-5.6
			c2.2-1.3,4.7-2,7.4-2c3.4,0,6.3,0.9,8.7,2.8c2.4,1.9,4,4.4,4.8,7.6h-4.6c-0.6-2-1.7-3.5-3.3-4.5c-1.6-1.1-3.4-1.6-5.6-1.6
			c-1.8,0-3.5,0.5-5.1,1.4c-1.5,1-2.8,2.3-3.7,4.1c-0.9,1.8-1.3,3.8-1.3,6.1c0,2.3,0.4,4.3,1.3,6.1c0.9,1.8,2.1,3.1,3.7,4.1
			c1.5,1,3.2,1.4,5.1,1.4c2.2,0,4.1-0.5,5.6-1.6c1.5-1.1,2.6-2.7,3.2-4.8h4.6c-0.8,3.3-2.4,5.9-4.8,7.8c-2.4,1.9-5.3,2.8-8.7,2.8
			C1794.1,388.3,1791.6,387.6,1789.4,386.2z"/>
		<path class="st2" d="M1822,386.2c-2.2-1.3-4-3.2-5.3-5.6s-1.9-5.1-1.9-8.2c0-3.1,0.6-5.8,1.9-8.2c1.3-2.4,3-4.3,5.3-5.6
			c2.2-1.3,4.7-2,7.4-2c2.7,0,5.2,0.7,7.4,2c2.2,1.3,4,3.2,5.3,5.6c1.3,2.4,1.9,5.1,1.9,8.2c0,3.1-0.6,5.8-1.9,8.2
			c-1.3,2.4-3,4.3-5.3,5.6c-2.2,1.3-4.7,2-7.4,2C1826.8,388.3,1824.3,387.6,1822,386.2z M1834.5,382.6c1.5-1,2.8-2.3,3.7-4.1
			c0.9-1.8,1.3-3.8,1.3-6.1c0-2.3-0.4-4.3-1.3-6.1c-0.9-1.8-2.1-3.1-3.7-4.1c-1.5-1-3.2-1.4-5.1-1.4s-3.5,0.5-5.1,1.4
			c-1.5,1-2.8,2.3-3.7,4.1c-0.9,1.8-1.3,3.8-1.3,6.1c0,2.3,0.4,4.3,1.3,6.1c0.9,1.8,2.1,3.1,3.7,4.1c1.5,1,3.2,1.4,5.1,1.4
			S1833,383.5,1834.5,382.6z"/>
		<path class="st2" d="M1850.8,387.6v-30.5h4l0.6,3.4h0.3c0.8-1,1.9-1.9,3.4-2.7c1.4-0.8,2.9-1.2,4.6-1.2c2.2,0,4,0.5,5.6,1.6
			c1.6,1.1,2.7,2.3,3.3,3.6h0.3c0.9-1.3,2.2-2.5,4-3.6c1.8-1.1,3.8-1.6,6.1-1.6c2.1,0,4,0.5,5.7,1.5c1.7,1,3,2.4,3.9,4.2
			c0.9,1.8,1.4,3.8,1.4,6.2v19.2h-4.6v-19.2c0-2.3-0.6-4.1-1.9-5.5s-3-2.1-5.1-2.1c-1.3,0-2.5,0.3-3.7,1c-1.2,0.7-2.1,1.6-2.8,2.8
			c-0.7,1.2-1.1,2.5-1.1,3.8v19.2h-4.6v-19.2c0-2.3-0.6-4.1-1.9-5.5s-3-2.1-5.1-2.1c-1.3,0-2.5,0.3-3.7,1c-1.2,0.7-2.1,1.6-2.8,2.8
			c-0.7,1.2-1.1,2.5-1.1,3.8v19.2H1850.8z"/>
	</g>
</g>
<g>
	<g>
		<path class="st2" d="M1288.2,1151c-3.1-1.8-5.6-4.4-7.4-7.8c-1.8-3.3-2.7-7.1-2.7-11.4c0-4.3,0.9-8.1,2.7-11.4
			c1.8-3.3,4.3-5.9,7.4-7.8c3.1-1.8,6.6-2.8,10.3-2.8c4.6,0,8.6,1.3,12,3.8s5.7,6.1,6.9,10.5h-5.2c-1.1-3.1-2.8-5.4-5.2-7.2
			s-5.3-2.6-8.5-2.6c-2.8,0-5.5,0.7-7.8,2.2s-4.3,3.5-5.6,6.2s-2.1,5.7-2.1,9s0.7,6.4,2.1,9c1.4,2.6,3.3,4.7,5.6,6.2s5,2.2,7.8,2.2
			c3.2,0,6-0.9,8.5-2.7c2.4-1.8,4.2-4.2,5.2-7.4h5.2c-1.2,4.6-3.5,8.1-6.9,10.7s-7.4,3.9-12,3.9
			C1294.7,1153.7,1291.3,1152.8,1288.2,1151z"/>
		<path class="st2" d="M1325.5,1151.1c-2-1.8-3-4-3-6.8c0-3,1-5.4,3-7.2c2-1.7,5.1-2.6,9.2-2.6h8.2v-0.9c0-2.3-0.7-4.1-2-5.4
			c-1.3-1.3-3.1-2-5.4-2c-2.2,0-4,0.5-5.3,1.5c-1.4,1-2.1,2.2-2.3,3.7h-4.6c0.1-1.7,0.7-3.2,1.6-4.7c1-1.4,2.4-2.6,4.2-3.5
			c1.8-0.9,3.9-1.3,6.4-1.3c3.7,0,6.6,1,8.7,3.1c2.1,2.1,3.2,4.9,3.2,8.5v19.5h-4l-0.6-3.7h-0.3c-0.7,1.1-1.9,2.1-3.6,3
			c-1.7,0.9-3.7,1.3-5.9,1.3C1330.1,1153.7,1327.5,1152.9,1325.5,1151.1z M1340.4,1146.9c1.7-1.7,2.6-4,2.6-6.9v-1.2h-8.2
			c-2.6,0-4.5,0.5-5.8,1.5c-1.2,1-1.9,2.3-1.9,4c0,1.5,0.5,2.8,1.6,3.8c1.1,1,2.6,1.4,4.5,1.4
			C1336.3,1149.5,1338.7,1148.6,1340.4,1146.9z"/>
		<path class="st2" d="M1360.7,1153.1h-4.6v-30.5h4.6v13.1h16.2v-13.1h4.6v30.5h-4.6V1140h-16.2V1153.1z"/>
		<path class="st2" d="M1394.6,1153.1h-4.6v-30.5h4.6v14l13.7-14h5.9l-14.6,14.9l15.3,15.6h-5.9l-14.3-14.6V1153.1z"/>
		<path class="st2" d="M1430.5,1153.1h-4.6v-26.2h-10.4v-4.3h25.3v4.3h-10.4V1153.1z"/>
		<path class="st2" d="M1462.9,1137.9h-19.5v-4.3h19.5V1137.9z"/>
		<path class="st2" d="M1475.4,1153.1h-4.9v-42.7h33.5v42.7h-4.9V1115h-23.8V1153.1z"/>
		<path class="st2" d="M1518.6,1151.7c-2.2-1.3-4-3.2-5.3-5.6c-1.3-2.4-1.9-5.1-1.9-8.2c0-3.1,0.6-5.8,1.9-8.2
			c1.3-2.4,3-4.3,5.3-5.6c2.2-1.3,4.7-2,7.4-2c2.6,0,5,0.6,7.1,1.9c2.2,1.3,3.8,3,5.1,5.2c1.2,2.2,1.8,4.7,1.8,7.5
			c0,1.6-0.1,2.7-0.3,3.4h-23.8c0.3,2.8,1.4,5.1,3.3,6.9c1.9,1.7,4.2,2.6,6.8,2.6c1.8,0,3.5-0.4,4.9-1.3c1.4-0.9,2.6-2.1,3.3-3.6
			h4.9c-1.1,2.9-2.7,5.2-5,6.8c-2.3,1.6-5,2.4-8.1,2.4C1523.3,1153.7,1520.8,1153.1,1518.6,1151.7z M1535.5,1135.7
			c-0.2-2.8-1.1-5-2.9-6.8s-4-2.7-6.6-2.7c-2.7,0-5,0.9-6.8,2.7s-2.9,4-3.2,6.8H1535.5z"/>
		<path class="st2" d="M1557.1,1153.1h-4.6v-26.2h-10.4v-4.3h25.3v4.3h-10.4V1153.1z"/>
		<path class="st2" d="M1576.8,1151.7c-2.2-1.3-4-3.2-5.3-5.6c-1.3-2.4-1.9-5.1-1.9-8.2c0-3.1,0.6-5.8,1.9-8.2s3-4.3,5.3-5.6
			c2.2-1.3,4.7-2,7.4-2c2.6,0,5,0.6,7.1,1.9c2.2,1.3,3.8,3,5.1,5.2c1.2,2.2,1.8,4.7,1.8,7.5c0,1.6-0.1,2.7-0.3,3.4h-23.8
			c0.3,2.8,1.4,5.1,3.3,6.9s4.2,2.6,6.8,2.6c1.8,0,3.5-0.4,4.9-1.3c1.4-0.9,2.6-2.1,3.3-3.6h4.9c-1.1,2.9-2.7,5.2-5,6.8
			s-5,2.4-8.1,2.4C1581.5,1153.7,1579.1,1153.1,1576.8,1151.7z M1593.7,1135.7c-0.2-2.8-1.1-5-2.9-6.8s-4-2.7-6.6-2.7
			c-2.7,0-5,0.9-6.8,2.7s-2.9,4-3.2,6.8H1593.7z"/>
		<path class="st2" d="M1605,1165.3v-42.7h4l0.6,4.3h0.3c1.3-1.6,2.7-2.8,4.3-3.6c1.6-0.8,3.4-1.3,5.5-1.3c2.6,0,5,0.7,7.2,2
			c2.1,1.3,3.8,3.2,5,5.6s1.8,5.1,1.8,8.2c0,3.1-0.6,5.8-1.8,8.2c-1.2,2.4-2.9,4.3-5,5.6c-2.1,1.3-4.5,2-7.2,2
			c-2.1,0-3.9-0.4-5.5-1.3s-3-2-4.3-3.6h-0.3v16.5H1605z M1624.2,1148c1.5-1,2.7-2.3,3.6-4.1c0.9-1.7,1.3-3.8,1.3-6s-0.4-4.3-1.3-6
			c-0.9-1.7-2.1-3.1-3.6-4.1s-3.1-1.5-4.8-1.5c-1.7,0-3.4,0.5-4.8,1.5s-2.7,2.3-3.6,4.1c-0.9,1.7-1.3,3.8-1.3,6s0.4,4.3,1.3,6
			c0.9,1.7,2.1,3.1,3.6,4.1s3.1,1.5,4.8,1.5C1621.1,1149.5,1622.7,1149,1624.2,1148z"/>
		<path class="st2" d="M1645.8,1151.8c-2.2-1.3-3.9-3.2-5.1-5.6c-1.2-2.4-1.9-5.2-1.9-8.4v-1.8c0-5.3,0.7-9.5,2-12.7
			c1.3-3.2,3.5-5.7,6.6-7.4c1.4-0.8,2.8-1.3,4.4-1.7c1.5-0.4,3.5-0.7,5.9-0.9c1.4-0.2,2.4-0.6,3.1-1.3c0.6-0.7,1-1.7,1-3.1h4
			c0,2.6-0.7,4.5-1.9,5.9c-1.2,1.4-3.2,2.2-5.8,2.5c-1.8,0.2-3.4,0.4-4.8,0.8c-1.4,0.3-2.6,0.8-3.7,1.5c-3.5,2.1-5.6,5.5-6.1,10.1
			h0.3c2.4-3.3,5.8-4.9,10.1-4.9c2.5,0,4.8,0.6,6.9,1.9s3.8,3,5,5.2c1.2,2.2,1.8,4.6,1.8,7.3c0,2.8-0.6,5.3-1.9,7.5
			c-1.2,2.2-2.9,4-5.1,5.2c-2.2,1.3-4.6,1.9-7.4,1.9C1650.5,1153.7,1648,1153.1,1645.8,1151.8z M1658.2,1148.2
			c1.5-0.9,2.7-2.1,3.5-3.7c0.9-1.6,1.3-3.4,1.3-5.4s-0.4-3.8-1.3-5.4c-0.9-1.6-2-2.8-3.5-3.7c-1.5-0.9-3.1-1.3-5-1.3
			s-3.5,0.4-5,1.3s-2.7,2.1-3.5,3.7c-0.9,1.6-1.3,3.4-1.3,5.4s0.4,3.8,1.3,5.4c0.9,1.6,2,2.8,3.5,3.7c1.5,0.9,3.1,1.3,5,1.3
			S1656.7,1149,1658.2,1148.2z"/>
		<path class="st2" d="M1694.1,1122.6h4.9l-13.7,38.4c-0.5,1.5-1.2,2.5-2.1,3.2c-0.9,0.7-2.1,1-3.7,1h-6.1v-4.3h5.8
			c1,0,1.7-0.6,2.1-1.8l1.2-3.7l-12.5-32.9h4.9l9.5,25.3h1.2L1694.1,1122.6z"/>
		<path class="st2" d="M1703.8,1165.3v-42.7h4l0.6,4.3h0.3c1.3-1.6,2.7-2.8,4.3-3.6c1.6-0.8,3.4-1.3,5.5-1.3c2.6,0,5,0.7,7.2,2
			c2.1,1.3,3.8,3.2,5,5.6c1.2,2.4,1.8,5.1,1.8,8.2c0,3.1-0.6,5.8-1.8,8.2c-1.2,2.4-2.9,4.3-5,5.6c-2.1,1.3-4.5,2-7.2,2
			c-2.1,0-3.9-0.4-5.5-1.3s-3-2-4.3-3.6h-0.3v16.5H1703.8z M1723,1148c1.5-1,2.7-2.3,3.6-4.1c0.9-1.7,1.3-3.8,1.3-6s-0.4-4.3-1.3-6
			c-0.9-1.7-2.1-3.1-3.6-4.1s-3.1-1.5-4.8-1.5s-3.4,0.5-4.8,1.5s-2.7,2.3-3.6,4.1c-0.9,1.7-1.3,3.8-1.3,6s0.4,4.3,1.3,6
			c0.9,1.7,2.1,3.1,3.6,4.1s3.1,1.5,4.8,1.5S1721.5,1149,1723,1148z"/>
		<path class="st2" d="M1743.8,1153.1h-4.6v-30.5h19.5v4.3h-14.9V1153.1z"/>
		<path class="st2" d="M1763,1158h-4l1.2-10.4h5.5L1763,1158z"/>
		<path class="st2" d="M1283.8,1217.1h-4.6v-30.5h25.3v30.5h-4.6v-26.2h-16.2V1217.1z"/>
		<path class="st2" d="M1313.1,1229.3v-42.7h4l0.6,4.3h0.3c1.3-1.6,2.7-2.8,4.3-3.6c1.6-0.8,3.4-1.3,5.5-1.3c2.6,0,5,0.7,7.2,2
			c2.1,1.3,3.8,3.2,5,5.6c1.2,2.4,1.8,5.1,1.8,8.2c0,3.1-0.6,5.8-1.8,8.2c-1.2,2.4-2.9,4.3-5,5.6c-2.1,1.3-4.5,2-7.2,2
			c-2.1,0-3.9-0.4-5.5-1.3s-3-2-4.3-3.6h-0.3v16.5H1313.1z M1332.3,1212c1.5-1,2.7-2.3,3.6-4.1c0.9-1.7,1.3-3.8,1.3-6
			s-0.4-4.3-1.3-6c-0.9-1.7-2.1-3.1-3.6-4.1s-3.1-1.5-4.8-1.5s-3.4,0.5-4.8,1.5s-2.7,2.3-3.6,4.1c-0.9,1.7-1.3,3.8-1.3,6
			s0.4,4.3,1.3,6c0.9,1.7,2.1,3.1,3.6,4.1s3.1,1.5,4.8,1.5S1330.8,1213,1332.3,1212z"/>
		<path class="st2" d="M1353.9,1215.7c-2.2-1.3-4-3.2-5.3-5.6c-1.3-2.4-1.9-5.1-1.9-8.2c0-3.1,0.6-5.8,1.9-8.2s3-4.3,5.3-5.6
			c2.2-1.3,4.7-2,7.4-2c2.7,0,5.2,0.7,7.4,2c2.2,1.3,4,3.2,5.3,5.6c1.3,2.4,1.9,5.1,1.9,8.2c0,3.1-0.6,5.8-1.9,8.2
			c-1.3,2.4-3,4.3-5.3,5.6c-2.2,1.3-4.7,2-7.4,2C1358.6,1217.7,1356.1,1217.1,1353.9,1215.7z M1366.4,1212c1.5-1,2.8-2.3,3.7-4.1
			s1.3-3.8,1.3-6.1s-0.4-4.3-1.3-6.1s-2.1-3.1-3.7-4.1c-1.5-1-3.2-1.4-5.1-1.4s-3.5,0.5-5.1,1.4c-1.5,1-2.8,2.3-3.7,4.1
			c-0.9,1.8-1.3,3.8-1.3,6.1s0.4,4.3,1.3,6.1c0.9,1.8,2.1,3.1,3.7,4.1c1.5,1,3.2,1.4,5.1,1.4S1364.8,1213,1366.4,1212z"/>
		<path class="st2" d="M1388,1215.7c-2.2-1.3-4-3.2-5.3-5.6c-1.3-2.4-1.9-5.1-1.9-8.2c0-3.1,0.6-5.8,1.9-8.2c1.3-2.4,3-4.3,5.3-5.6
			c2.2-1.3,4.7-2,7.4-2c3.4,0,6.3,0.9,8.7,2.8c2.4,1.9,4,4.4,4.8,7.6h-4.6c-0.6-2-1.7-3.5-3.3-4.5c-1.6-1.1-3.4-1.6-5.6-1.6
			c-1.8,0-3.5,0.5-5.1,1.4s-2.8,2.3-3.7,4.1s-1.3,3.8-1.3,6.1s0.4,4.3,1.3,6.1s2.1,3.1,3.7,4.1c1.5,1,3.2,1.4,5.1,1.4
			c2.2,0,4.1-0.5,5.6-1.6c1.5-1.1,2.6-2.7,3.2-4.8h4.6c-0.8,3.3-2.4,5.9-4.8,7.8c-2.4,1.9-5.3,2.8-8.7,2.8
			C1392.7,1217.7,1390.3,1217.1,1388,1215.7z"/>
		<path class="st2" d="M1419.9,1217.1h-4.6v-30.5h25.3v30.5h-4.6v-26.2h-16.2V1217.1z"/>
		<path class="st2" d="M1454.5,1215.7c-2.2-1.3-4-3.2-5.3-5.6c-1.3-2.4-1.9-5.1-1.9-8.2c0-3.1,0.6-5.8,1.9-8.2s3-4.3,5.3-5.6
			c2.2-1.3,4.7-2,7.4-2c2.6,0,5,0.6,7.1,1.9c2.2,1.3,3.8,3,5.1,5.2c1.2,2.2,1.8,4.7,1.8,7.5c0,1.6-0.1,2.7-0.3,3.4h-23.8
			c0.3,2.8,1.4,5.1,3.3,6.9c1.9,1.7,4.2,2.6,6.8,2.6c1.8,0,3.5-0.4,4.9-1.3c1.4-0.9,2.6-2.1,3.3-3.6h4.9c-1.1,2.9-2.7,5.2-5,6.8
			c-2.3,1.6-5,2.4-8.1,2.4C1459.2,1217.7,1456.8,1217.1,1454.5,1215.7z M1471.4,1199.7c-0.2-2.8-1.1-5-2.9-6.8
			c-1.8-1.8-4-2.7-6.6-2.7c-2.7,0-5,0.9-6.8,2.7s-2.9,4-3.2,6.8H1471.4z"/>
		<path class="st2" d="M1487.3,1217.1h-4.6v-30.5h4.6v14l13.7-14h5.9l-14.6,14.9l15.3,15.6h-5.9l-14.3-14.6V1217.1z"/>
		<path class="st2" d="M1523.3,1217.1h-4.6v-26.2h-10.4v-4.3h25.3v4.3h-10.4V1217.1z"/>
		<path class="st2" d="M1548,1217.4v-4.9h2.1c1.3,0,2.3-0.4,3.1-1.2c0.8-0.8,1.3-2,1.5-3.7l2.7-33.2h26.5v42.7h-4.9V1179H1562
			l-2.4,28.7c-0.3,3.3-1.2,5.8-2.7,7.4c-1.5,1.6-3.8,2.4-6.7,2.4H1548z"/>
		<path class="st2" d="M1613.5,1186.6h4.9l-13.7,38.4c-0.5,1.5-1.2,2.5-2.1,3.2c-0.9,0.7-2.1,1-3.7,1h-6.1v-4.3h5.8
			c1,0,1.7-0.6,2.1-1.8l1.2-3.7l-12.5-32.9h4.9l9.5,25.3h1.2L1613.5,1186.6z"/>
		<path class="st2" d="M1627.9,1217.1h-4.6v-30.5h4.6v13.1h16.2v-13.1h4.6v30.5h-4.6V1204h-16.2V1217.1z"/>
		<path class="st2" d="M1658.9,1215.1c-2-1.8-3-4-3-6.8c0-3,1-5.4,3-7.2c2-1.7,5.1-2.6,9.2-2.6h8.2v-0.9c0-2.3-0.7-4.1-2-5.4
			c-1.3-1.3-3.1-2-5.4-2c-2.2,0-4,0.5-5.3,1.5c-1.4,1-2.1,2.2-2.3,3.7h-4.6c0.1-1.7,0.7-3.2,1.6-4.7c1-1.4,2.4-2.6,4.2-3.5
			c1.8-0.9,3.9-1.3,6.4-1.3c3.7,0,6.6,1,8.7,3.1c2.1,2.1,3.2,4.9,3.2,8.5v19.5h-4l-0.6-3.7h-0.3c-0.7,1.1-1.9,2.1-3.6,3
			c-1.7,0.9-3.7,1.3-5.9,1.3C1663.4,1217.7,1660.9,1216.9,1658.9,1215.1z M1673.8,1210.9c1.7-1.7,2.6-4,2.6-6.9v-1.2h-8.2
			c-2.6,0-4.5,0.5-5.8,1.5c-1.2,1-1.9,2.3-1.9,4c0,1.5,0.5,2.8,1.6,3.8c1.1,1,2.6,1.4,4.5,1.4
			C1669.7,1213.5,1672.1,1212.6,1673.8,1210.9z"/>
		<path class="st2" d="M1707.5,1205.2c-1.3,0.9-2.7,1.5-4.1,1.9c-1.4,0.4-3,0.5-4.7,0.5c-3.7,0-6.4-1-8.2-2.9
			c-1.8-2-2.7-4.8-2.7-8.7v-9.5h4.6v9.5c0,2.4,0.6,4.3,1.8,5.5c1.2,1.2,2.9,1.8,5.2,1.8c1.6,0,3.1-0.2,4.4-0.7
			c1.3-0.4,2.6-1.1,3.8-2.1v-14h4.6v30.5h-4.6V1205.2z"/>
		<path class="st2" d="M1722.3,1215.1c-2-1.8-3-4-3-6.8c0-3,1-5.4,3-7.2c2-1.7,5.1-2.6,9.2-2.6h8.2v-0.9c0-2.3-0.7-4.1-2-5.4
			c-1.3-1.3-3.1-2-5.4-2c-2.2,0-4,0.5-5.3,1.5c-1.4,1-2.1,2.2-2.3,3.7h-4.6c0.1-1.7,0.7-3.2,1.6-4.7c1-1.4,2.4-2.6,4.2-3.5
			c1.8-0.9,3.9-1.3,6.4-1.3c3.7,0,6.6,1,8.7,3.1c2.1,2.1,3.2,4.9,3.2,8.5v19.5h-4l-0.6-3.7h-0.3c-0.7,1.1-1.9,2.1-3.6,3
			c-1.7,0.9-3.7,1.3-5.9,1.3C1726.9,1217.7,1724.3,1216.9,1722.3,1215.1z M1737.2,1210.9c1.7-1.7,2.6-4,2.6-6.9v-1.2h-8.2
			c-2.6,0-4.5,0.5-5.8,1.5c-1.2,1-1.9,2.3-1.9,4c0,1.5,0.5,2.8,1.6,3.8c1.1,1,2.6,1.4,4.5,1.4
			C1733.1,1213.5,1735.5,1212.6,1737.2,1210.9z"/>
		<path class="st2" d="M1752.9,1229.3v-42.7h4l0.6,4.3h0.3c1.3-1.6,2.7-2.8,4.3-3.6c1.6-0.8,3.4-1.3,5.5-1.3c2.6,0,5,0.7,7.2,2
			c2.1,1.3,3.8,3.2,5,5.6c1.2,2.4,1.8,5.1,1.8,8.2c0,3.1-0.6,5.8-1.8,8.2c-1.2,2.4-2.9,4.3-5,5.6c-2.1,1.3-4.5,2-7.2,2
			c-2.1,0-3.9-0.4-5.5-1.3s-3-2-4.3-3.6h-0.3v16.5H1752.9z M1772.1,1212c1.5-1,2.7-2.3,3.6-4.1c0.9-1.7,1.3-3.8,1.3-6
			s-0.4-4.3-1.3-6c-0.9-1.7-2.1-3.1-3.6-4.1c-1.5-1-3.1-1.5-4.8-1.5c-1.7,0-3.4,0.5-4.8,1.5c-1.5,1-2.7,2.3-3.6,4.1
			c-0.9,1.7-1.3,3.8-1.3,6s0.4,4.3,1.3,6c0.9,1.7,2.1,3.1,3.6,4.1c1.5,1,3.1,1.5,4.8,1.5C1769,1213.5,1770.6,1213,1772.1,1212z"/>
		<path class="st2" d="M1793.7,1215.7c-2.2-1.3-4-3.2-5.3-5.6c-1.3-2.4-1.9-5.1-1.9-8.2c0-3.1,0.6-5.8,1.9-8.2s3-4.3,5.3-5.6
			c2.2-1.3,4.7-2,7.4-2c3.4,0,6.3,0.9,8.7,2.8c2.4,1.9,4,4.4,4.8,7.6h-4.6c-0.6-2-1.7-3.5-3.3-4.5c-1.6-1.1-3.4-1.6-5.6-1.6
			c-1.8,0-3.5,0.5-5.1,1.4c-1.5,1-2.8,2.3-3.7,4.1c-0.9,1.8-1.3,3.8-1.3,6.1s0.4,4.3,1.3,6.1c0.9,1.8,2.1,3.1,3.7,4.1
			c1.5,1,3.2,1.4,5.1,1.4c2.2,0,4.1-0.5,5.6-1.6c1.5-1.1,2.6-2.7,3.2-4.8h4.6c-0.8,3.3-2.4,5.9-4.8,7.8c-2.4,1.9-5.3,2.8-8.7,2.8
			C1798.4,1217.7,1795.9,1217.1,1793.7,1215.7z"/>
		<path class="st2" d="M1825.5,1217.1h-4.6v-30.5h4.6v14l13.7-14h5.9l-14.6,14.9l15.3,15.6h-5.9l-14.3-14.6V1217.1z"/>
		<path class="st2" d="M1854.1,1215.7c-2.2-1.3-4-3.2-5.3-5.6c-1.3-2.4-1.9-5.1-1.9-8.2c0-3.1,0.6-5.8,1.9-8.2s3-4.3,5.3-5.6
			c2.2-1.3,4.7-2,7.4-2s5.2,0.7,7.4,2c2.2,1.3,4,3.2,5.3,5.6s1.9,5.1,1.9,8.2c0,3.1-0.6,5.8-1.9,8.2c-1.3,2.4-3,4.3-5.3,5.6
			c-2.2,1.3-4.7,2-7.4,2S1856.3,1217.1,1854.1,1215.7z M1866.6,1212c1.5-1,2.8-2.3,3.7-4.1s1.3-3.8,1.3-6.1s-0.4-4.3-1.3-6.1
			s-2.1-3.1-3.7-4.1s-3.2-1.4-5.1-1.4s-3.5,0.5-5.1,1.4c-1.5,1-2.8,2.3-3.7,4.1c-0.9,1.8-1.3,3.8-1.3,6.1s0.4,4.3,1.3,6.1
			c0.9,1.8,2.1,3.1,3.7,4.1c1.5,1,3.2,1.4,5.1,1.4S1865,1213,1866.6,1212z"/>
		<path class="st2" d="M1887.4,1217.1h-4.6v-30.5h19.5v4.3h-14.9V1217.1z"/>
		<path class="st2" d="M1912,1215.7c-2.2-1.3-4-3.2-5.3-5.6c-1.3-2.4-1.9-5.1-1.9-8.2c0-3.1,0.6-5.8,1.9-8.2c1.3-2.4,3-4.3,5.3-5.6
			c2.2-1.3,4.7-2,7.4-2c2.7,0,5.2,0.7,7.4,2c2.2,1.3,4,3.2,5.3,5.6c1.3,2.4,1.9,5.1,1.9,8.2c0,3.1-0.6,5.8-1.9,8.2
			c-1.3,2.4-3,4.3-5.3,5.6c-2.2,1.3-4.7,2-7.4,2C1916.7,1217.7,1914.3,1217.1,1912,1215.7z M1924.5,1212c1.5-1,2.8-2.3,3.7-4.1
			c0.9-1.8,1.3-3.8,1.3-6.1s-0.4-4.3-1.3-6.1c-0.9-1.8-2.1-3.1-3.7-4.1c-1.5-1-3.2-1.4-5.1-1.4s-3.5,0.5-5.1,1.4s-2.8,2.3-3.7,4.1
			s-1.3,3.8-1.3,6.1s0.4,4.3,1.3,6.1s2.1,3.1,3.7,4.1c1.5,1,3.2,1.4,5.1,1.4S1923,1213,1924.5,1212z"/>
		<path class="st2" d="M1943.2,1222h-4l1.2-10.4h5.5L1943.2,1222z"/>
		<path class="st2" d="M1963.4,1224.4v-11.6h0.6c1.4,0,2.4-0.3,3.1-1s1.1-1.8,1.2-3.3l1.8-22h20.4v26.2h4.3v11.6h-4.6v-7.3H1968v7.3
			H1963.4z M1985.9,1212.9v-22h-11.6l-1.5,17.7c-0.1,1.1-0.3,2-0.6,2.8c-0.3,0.8-0.6,1.3-0.9,1.5H1985.9z"/>
		<path class="st2" d="M2005.6,1215.7c-2.2-1.3-4-3.2-5.3-5.6c-1.3-2.4-1.9-5.1-1.9-8.2c0-3.1,0.6-5.8,1.9-8.2s3-4.3,5.3-5.6
			c2.2-1.3,4.7-2,7.4-2c2.7,0,5.2,0.7,7.4,2c2.2,1.3,4,3.2,5.3,5.6c1.3,2.4,1.9,5.1,1.9,8.2c0,3.1-0.6,5.8-1.9,8.2
			c-1.3,2.4-3,4.3-5.3,5.6c-2.2,1.3-4.7,2-7.4,2C2010.4,1217.7,2007.9,1217.1,2005.6,1215.7z M2018.2,1212c1.5-1,2.8-2.3,3.7-4.1
			s1.3-3.8,1.3-6.1s-0.4-4.3-1.3-6.1s-2.1-3.1-3.7-4.1c-1.5-1-3.2-1.4-5.1-1.4s-3.5,0.5-5.1,1.4c-1.5,1-2.8,2.3-3.7,4.1
			c-0.9,1.8-1.3,3.8-1.3,6.1s0.4,4.3,1.3,6.1c0.9,1.8,2.1,3.1,3.7,4.1c1.5,1,3.2,1.4,5.1,1.4S2016.6,1213,2018.2,1212z"/>
		<path class="st2" d="M2039,1217.1h-4.6v-30.5h8.5l8.2,25.3h1.2l8.2-25.3h8.5v30.5h-4.6v-25h-1.2l-8.2,25h-6.7l-8.2-25h-1.2V1217.1
			z"/>
		<path class="st2" d="M2090.9,1217.1v-4l17.4-18.6c1.3-1.4,2.2-2.7,2.8-3.8c0.6-1.2,0.9-2.5,0.9-4.1c0-2.4-0.8-4.4-2.3-5.9
			s-3.5-2.3-5.9-2.3c-1.5,0-2.9,0.4-4.1,1.2c-1.3,0.8-2.3,1.9-3,3.2c-0.7,1.4-1.1,3-1.1,4.8h-4.9c0-2.6,0.6-5,1.7-7
			c1.1-2.1,2.7-3.7,4.7-4.9c2-1.2,4.2-1.8,6.8-1.8c2.5,0,4.8,0.5,6.8,1.6c2,1.1,3.5,2.6,4.7,4.5c1.1,1.9,1.7,4.2,1.7,6.7
			c0,2.4-0.4,4.4-1.3,6.1c-0.9,1.7-2.2,3.4-3.9,5.2l-13.7,14.3v0.3h19.8v4.6H2090.9z"/>
		<path class="st2" d="M2130.8,1217.1v-33.5h-9.1v-4.3h7.3c1.2,0,1.8-0.6,1.8-1.8v-3h4.9v42.7H2130.8z"/>
		<path class="st2" d="M2147.3,1222h-4l1.2-10.4h5.5L2147.3,1222z"/>
		<path class="st2" d="M2176.3,1217.1h-4.6v-30.5h4.6v14l13.7-14h5.9l-14.6,14.9l15.3,15.6h-5.9l-14.3-14.6V1217.1z"/>
		<path class="st2" d="M2204.8,1215.7c-2.2-1.3-4-3.2-5.3-5.6c-1.3-2.4-1.9-5.1-1.9-8.2c0-3.1,0.6-5.8,1.9-8.2s3-4.3,5.3-5.6
			c2.2-1.3,4.7-2,7.4-2c2.7,0,5.2,0.7,7.4,2c2.2,1.3,4,3.2,5.3,5.6c1.3,2.4,1.9,5.1,1.9,8.2c0,3.1-0.6,5.8-1.9,8.2
			c-1.3,2.4-3,4.3-5.3,5.6c-2.2,1.3-4.7,2-7.4,2C2209.5,1217.7,2207,1217.1,2204.8,1215.7z M2217.3,1212c1.5-1,2.8-2.3,3.7-4.1
			s1.3-3.8,1.3-6.1s-0.4-4.3-1.3-6.1s-2.1-3.1-3.7-4.1c-1.5-1-3.2-1.4-5.1-1.4s-3.5,0.5-5.1,1.4c-1.5,1-2.8,2.3-3.7,4.1
			c-0.9,1.8-1.3,3.8-1.3,6.1s0.4,4.3,1.3,6.1c0.9,1.8,2.1,3.1,3.7,4.1c1.5,1,3.2,1.4,5.1,1.4S2215.8,1213,2217.3,1212z"/>
		<path class="st2" d="M2233.6,1229.3v-42.7h4l0.6,4.3h0.3c1.3-1.6,2.7-2.8,4.3-3.6c1.6-0.8,3.4-1.3,5.5-1.3c2.6,0,5,0.7,7.2,2
			c2.1,1.3,3.8,3.2,5,5.6s1.8,5.1,1.8,8.2c0,3.1-0.6,5.8-1.8,8.2c-1.2,2.4-2.9,4.3-5,5.6c-2.1,1.3-4.5,2-7.2,2
			c-2.1,0-3.9-0.4-5.5-1.3s-3-2-4.3-3.6h-0.3v16.5H2233.6z M2252.8,1212c1.5-1,2.7-2.3,3.6-4.1c0.9-1.7,1.3-3.8,1.3-6
			s-0.4-4.3-1.3-6c-0.9-1.7-2.1-3.1-3.6-4.1s-3.1-1.5-4.8-1.5c-1.8,0-3.4,0.5-4.8,1.5c-1.5,1-2.7,2.3-3.6,4.1
			c-0.9,1.7-1.3,3.8-1.3,6s0.4,4.3,1.3,6c0.9,1.7,2.1,3.1,3.6,4.1c1.5,1,3.1,1.5,4.8,1.5C2249.7,1213.5,2251.3,1213,2252.8,1212z"/>
		<path class="st2" d="M2273.6,1217.1h-4.6v-30.5h25.3v30.5h-4.6v-26.2h-16.2V1217.1z"/>
		<path class="st2" d="M2323.3,1186.6h4.9l-13.7,38.4c-0.5,1.5-1.2,2.5-2.1,3.2c-0.9,0.7-2.1,1-3.7,1h-6.1v-4.3h5.8
			c1,0,1.7-0.6,2.1-1.8l1.2-3.7l-12.5-32.9h4.9l9.5,25.3h1.2L2323.3,1186.6z"/>
		<path class="st2" d="M2337.8,1215.7c-2.2-1.3-4-3.2-5.3-5.6c-1.3-2.4-1.9-5.1-1.9-8.2c0-3.1,0.6-5.8,1.9-8.2s3-4.3,5.3-5.6
			c2.2-1.3,4.7-2,7.4-2c3.4,0,6.3,0.9,8.7,2.8c2.4,1.9,4,4.4,4.8,7.6h-4.6c-0.6-2-1.7-3.5-3.3-4.5c-1.6-1.1-3.4-1.6-5.6-1.6
			c-1.8,0-3.5,0.5-5.1,1.4c-1.5,1-2.8,2.3-3.7,4.1c-0.9,1.8-1.3,3.8-1.3,6.1s0.4,4.3,1.3,6.1c0.9,1.8,2.1,3.1,3.7,4.1
			c1.5,1,3.2,1.4,5.1,1.4c2.2,0,4.1-0.5,5.6-1.6s2.6-2.7,3.2-4.8h4.6c-0.8,3.3-2.4,5.9-4.8,7.8c-2.4,1.9-5.3,2.8-8.7,2.8
			C2342.5,1217.7,2340,1217.1,2337.8,1215.7z"/>
		<path class="st2" d="M2384.3,1217.1v-33.5h-9.2v-4.3h7.3c1.2,0,1.8-0.6,1.8-1.8v-3h4.9v42.7H2384.3z"/>
		<path class="st2" d="M1292.1,1345.1h-7.9l-8.2-30.5h4.9l6.7,25.6h1.2l6.7-25.6h7.3l6.7,25.6h1.2l6.7-25.6h4.9l-8.2,30.5h-7.9
			l-6.4-24.7h-1.2L1292.1,1345.1z"/>
		<path class="st2" d="M1340.3,1345.1h-7.9l-8.2-30.5h4.9l6.7,25.6h1.2l6.7-25.6h7.3l6.7,25.6h1.2l6.7-25.6h4.9l-8.2,30.5h-7.9
			l-6.4-24.7h-1.2L1340.3,1345.1z"/>
		<path class="st2" d="M1388.5,1345.1h-7.9l-8.2-30.5h4.9l6.7,25.6h1.2l6.7-25.6h7.3l6.7,25.6h1.2l6.7-25.6h4.9l-8.2,30.5h-7.9
			l-6.4-24.7h-1.2L1388.5,1345.1z"/>
		<path class="st2" d="M1427.5,1345.1h-5.5v-5.5h5.5V1345.1z"/>
		<path class="st2" d="M1440.8,1343.7c-2.2-1.3-4-3.2-5.3-5.6c-1.3-2.4-1.9-5.1-1.9-8.2c0-3.1,0.6-5.8,1.9-8.2
			c1.3-2.4,3-4.3,5.3-5.6c2.2-1.3,4.7-2,7.4-2c2.6,0,5,0.6,7.1,1.9c2.2,1.3,3.8,3,5.1,5.2c1.2,2.2,1.8,4.7,1.8,7.5
			c0,1.6-0.1,2.7-0.3,3.4h-23.8c0.3,2.8,1.4,5.1,3.3,6.9c1.9,1.7,4.2,2.6,6.8,2.6c1.8,0,3.5-0.4,4.9-1.3c1.4-0.9,2.6-2.1,3.3-3.6
			h4.9c-1.1,2.9-2.7,5.2-5,6.8c-2.3,1.6-5,2.4-8.1,2.4C1445.5,1345.7,1443,1345.1,1440.8,1343.7z M1457.7,1327.7
			c-0.2-2.8-1.1-5-2.9-6.8c-1.8-1.8-4-2.7-6.6-2.7c-2.7,0-5,0.9-6.8,2.7s-2.9,4-3.2,6.8H1457.7z"/>
		<path class="st2" d="M1473.9,1345.1h-4.6v-42.7h4.6V1345.1z"/>
		<path class="st2" d="M1490.3,1345.1c-1.7,0-3-0.5-4-1.4c-1-1-1.5-2.2-1.5-3.8v-21h-4.9v-4.3h4.9v-8.5h4.6v8.5h7v4.3h-7v20.1
			c0,1.2,0.6,1.8,1.8,1.8h5.2v4.3H1490.3z"/>
		<path class="st2" d="M1504,1343.1c-2-1.8-3-4-3-6.8c0-3,1-5.4,3-7.2c2-1.7,5.1-2.6,9.2-2.6h8.2v-0.9c0-2.3-0.7-4.1-2-5.4
			c-1.3-1.3-3.1-2-5.4-2c-2.2,0-4,0.5-5.3,1.5c-1.4,1-2.1,2.2-2.3,3.7h-4.6c0.1-1.7,0.7-3.2,1.6-4.7c1-1.4,2.4-2.6,4.2-3.5
			c1.8-0.9,3.9-1.3,6.4-1.3c3.7,0,6.6,1,8.7,3.1c2.1,2.1,3.2,4.9,3.2,8.5v19.5h-4l-0.6-3.7h-0.3c-0.7,1.1-1.9,2.1-3.6,3
			c-1.7,0.9-3.7,1.3-5.9,1.3C1508.5,1345.7,1505.9,1344.9,1504,1343.1z M1518.8,1338.9c1.7-1.7,2.6-4,2.6-6.9v-1.2h-8.2
			c-2.6,0-4.5,0.5-5.8,1.5c-1.2,1-1.9,2.3-1.9,4c0,1.5,0.5,2.8,1.6,3.8c1.1,1,2.6,1.4,4.5,1.4
			C1514.7,1341.5,1517.1,1340.6,1518.8,1338.9z"/>
		<path class="st2" d="M1537.9,1344.4c-1.9-0.9-3.3-2-4.3-3.5c-1-1.4-1.5-3-1.5-4.7h4.6c0,1.4,0.7,2.6,2,3.7c1.4,1,3.2,1.5,5.6,1.5
			c2.3,0,4.1-0.4,5.4-1.3c1.3-0.9,1.9-2,1.9-3.3c0-1.2-0.4-2.2-1.3-3c-0.8-0.8-2.1-1.3-3.9-1.6l-5.2-0.9c-5.7-1-8.5-3.8-8.5-8.5
			c0-2.6,1-4.7,2.9-6.3c1.9-1.7,4.7-2.5,8.4-2.5c2.4,0,4.4,0.4,6.3,1.3c1.8,0.9,3.2,2,4.2,3.5c1,1.5,1.5,3,1.5,4.6h-4.6
			c0-1.4-0.7-2.6-2-3.7c-1.3-1-3.1-1.5-5.3-1.5c-2.2,0-3.8,0.4-5,1.3c-1.2,0.9-1.7,2-1.7,3.3c0,1.1,0.4,2.1,1.1,2.7
			c0.8,0.7,2,1.2,3.8,1.5l5.2,0.9c3,0.5,5.3,1.5,6.7,3c1.4,1.5,2.1,3.4,2.1,5.9c0,2.6-1,4.7-3.1,6.3c-2.1,1.7-5,2.5-8.8,2.5
			C1541.9,1345.7,1539.7,1345.3,1537.9,1344.4z"/>
		<path class="st2" d="M1562.6,1357.3v-42.7h4l0.6,4.3h0.3c1.3-1.6,2.7-2.8,4.3-3.6c1.6-0.8,3.4-1.3,5.5-1.3c2.6,0,5,0.7,7.2,2
			c2.1,1.3,3.8,3.2,5,5.6s1.8,5.1,1.8,8.2c0,3.1-0.6,5.8-1.8,8.2c-1.2,2.4-2.9,4.3-5,5.6c-2.1,1.3-4.5,2-7.2,2
			c-2.1,0-3.9-0.4-5.5-1.3s-3-2-4.3-3.6h-0.3v16.5H1562.6z M1581.8,1340c1.5-1,2.7-2.3,3.6-4.1c0.9-1.7,1.3-3.8,1.3-6
			s-0.4-4.3-1.3-6c-0.9-1.7-2.1-3.1-3.6-4.1s-3.1-1.5-4.8-1.5c-1.7,0-3.4,0.5-4.8,1.5s-2.7,2.3-3.6,4.1c-0.9,1.7-1.3,3.8-1.3,6
			s0.4,4.3,1.3,6c0.9,1.7,2.1,3.1,3.6,4.1s3.1,1.5,4.8,1.5C1578.7,1341.5,1580.3,1341,1581.8,1340z"/>
		<path class="st2" d="M1607.4,1344.5c-1.6-0.8-3-2-4.3-3.6h-0.3l-0.6,4.3h-4v-42.7h4.6v16.5h0.3c1.3-1.6,2.7-2.8,4.3-3.6
			c1.6-0.8,3.4-1.3,5.5-1.3c2.6,0,5,0.7,7.2,2c2.1,1.3,3.8,3.2,5,5.6c1.2,2.4,1.8,5.1,1.8,8.2c0,3.1-0.6,5.8-1.8,8.2
			c-1.2,2.4-2.9,4.3-5,5.6c-2.1,1.3-4.5,2-7.2,2C1610.9,1345.7,1609,1345.3,1607.4,1344.5z M1617.5,1340c1.5-1,2.7-2.3,3.6-4.1
			c0.9-1.7,1.3-3.8,1.3-6s-0.4-4.3-1.3-6c-0.9-1.7-2.1-3.1-3.6-4.1s-3.1-1.5-4.8-1.5c-1.7,0-3.4,0.5-4.8,1.5c-1.5,1-2.7,2.3-3.6,4.1
			c-0.9,1.7-1.3,3.8-1.3,6s0.4,4.3,1.3,6c0.9,1.7,2.1,3.1,3.6,4.1c1.5,1,3.1,1.5,4.8,1.5C1614.4,1341.5,1616,1341,1617.5,1340z"/>
		<path class="st2" d="M1638.6,1345.1h-5.5v-5.5h5.5V1345.1z"/>
		<path class="st2" d="M1646.5,1345.1v-30.5h4l0.6,3h0.3c0.7-1.1,1.4-1.8,2.3-2.3c0.8-0.5,2-0.7,3.5-0.7h5.2v4.3h-4.6
			c-2.1,0-3.8,0.6-4.9,1.7c-1.2,1.2-1.8,2.8-1.8,5v19.5H1646.5z"/>
		<path class="st2" d="M1673.2,1344.1c-1.9-1.1-3.3-2.6-4.4-4.5c-1.1-2-1.6-4.2-1.6-6.6v-18.3h4.6v18.3c0,1.6,0.4,3,1.1,4.3
			c0.7,1.3,1.7,2.3,3,3.1c1.3,0.8,2.6,1.1,4.1,1.1c1.6,0,3.1-0.4,4.4-1.2s2.4-1.8,3.2-3.1c0.8-1.3,1.2-2.7,1.2-4.2v-18.3h4.6v30.5
			h-4l-0.6-3.4h-0.3c-0.9,1.1-2.1,2-3.7,2.8s-3.4,1.2-5.5,1.2C1677.1,1345.7,1675,1345.2,1673.2,1344.1z"/>
	</g>
</g>
<g>
	<path class="st2" d="M283.1,1222c0,27-8.4,53.2-23.9,75.3c-15.6,22-37.6,38.7-63,47.7v-31.3c17.4-8.2,32.1-21.2,42.3-37.4
		c10.3-16.2,15.7-35.1,15.7-54.3c0-19.2-5.5-38-15.8-54.2c-10.3-16.2-25-29.2-42.4-37.4V1099c25.5,9,47.5,25.6,63.1,47.7
		C274.7,1168.7,283.1,1195,283.1,1222z"/>
	<rect x="51" y="1207.5" class="st2" width="116.1" height="29"/>
	<path class="st2" d="M225.1,1222c0-9.5-1.9-18.9-5.5-27.7c-3.6-8.8-9-16.8-15.7-23.5c-6.7-6.7-14.7-12.1-23.5-15.7
		c-8.8-3.6-18.2-5.5-27.8-5.5h-43.5v29h87v86.9h-87v29h43.5c9.5,0,19-1.9,27.8-5.5c8.8-3.6,16.8-9,23.5-15.7
		c6.7-6.7,12.1-14.7,15.7-23.5C223.2,1240.9,225.1,1231.5,225.1,1222z"/>
</g>
<g>
	<g>
		<path class="st2" d="M66.1,648.3h-6.4v-42.7h6.4v19.6l16.3-19.6h7.9l-17.6,21l18.8,21.7h-7.9L66.1,628V648.3z"/>
		<path class="st2" d="M102,646.1c-3.1-1.9-5.6-4.5-7.4-7.8c-1.8-3.3-2.7-7.1-2.7-11.3c0-4.2,0.9-8,2.7-11.3
			c1.8-3.3,4.3-5.9,7.4-7.8c3.1-1.9,6.6-2.8,10.3-2.8c3.8,0,7.2,0.9,10.4,2.8c3.1,1.9,5.6,4.5,7.4,7.8c1.8,3.3,2.7,7.1,2.7,11.3
			c0,4.2-0.9,8-2.7,11.3c-1.8,3.3-4.3,5.9-7.4,7.8c-3.1,1.9-6.6,2.8-10.4,2.8C108.6,648.9,105.1,648,102,646.1z M119.5,640.8
			c2.2-1.3,3.9-3.2,5.1-5.6c1.3-2.4,1.9-5.2,1.9-8.3c0-3.1-0.6-5.8-1.9-8.3c-1.3-2.4-3-4.3-5.1-5.6c-2.2-1.3-4.5-2-7.1-2
			c-2.6,0-4.9,0.7-7.1,2c-2.2,1.3-3.9,3.2-5.1,5.6c-1.3,2.4-1.9,5.2-1.9,8.3c0,3.1,0.6,5.8,1.9,8.3c1.3,2.4,3,4.3,5.1,5.6
			c2.2,1.3,4.5,2,7.1,2C115,642.8,117.3,642.1,119.5,640.8z"/>
		<path class="st2" d="M146.9,648.3h-6.4v-42.7h10.7l11.7,33.9h1.2l11.7-33.9h10.8v42.7h-6.4v-33.1H179l-11.5,33.1h-7.9l-11.5-33.1
			h-1.2V648.3z"/>
		<path class="st2" d="M202.4,648.3H196v-42.7h34.1v42.7h-6.4v-36.6h-21.3V648.3z"/>
		<path class="st2" d="M235.3,648.6v-6.3h1.9c2.8,0,4.4-1.6,4.6-4.9l2.7-31.8h27.6v42.7h-6.4v-36.6h-15.3l-2.3,26.4
			c-0.3,3.6-1.3,6.2-3,7.9c-1.7,1.7-4.2,2.6-7.4,2.6H235.3z"/>
		<path class="st2" d="M309.5,648.3h-28v-42.7h28v5.9h-21.6v12.4h20.4v5.8h-20.4v12.6h21.6V648.3z"/>
		<path class="st2" d="M323.9,648.3h-6.4v-42.7h6.4v19.6l16.3-19.6h7.9l-17.6,21l18.8,21.7h-7.9L323.9,628V648.3z"/>
		<path class="st2" d="M359.8,646.1c-3.1-1.9-5.6-4.5-7.4-7.8c-1.8-3.3-2.7-7.1-2.7-11.3c0-4.2,0.9-8,2.7-11.3
			c1.8-3.3,4.3-5.9,7.4-7.8c3.1-1.9,6.6-2.8,10.3-2.8c3.3,0,6.2,0.7,8.8,2c2.6,1.3,4.8,3.1,6.6,5.4c1.8,2.3,3,4.8,3.7,7.6h-6.6
			c-0.9-2.6-2.5-4.8-4.7-6.4c-2.2-1.6-4.8-2.5-7.8-2.5c-2.6,0-4.9,0.7-7.1,2c-2.2,1.3-3.9,3.2-5.1,5.6c-1.3,2.4-1.9,5.2-1.9,8.3
			c0,3.1,0.6,5.8,1.9,8.3c1.3,2.4,3,4.3,5.1,5.6c2.2,1.3,4.5,2,7.1,2c3.1,0,5.7-0.8,7.9-2.5c2.2-1.7,3.7-3.9,4.6-6.7h6.6
			c-0.7,2.9-1.9,5.5-3.7,7.8c-1.7,2.3-3.9,4.1-6.6,5.5c-2.6,1.3-5.6,2-8.9,2C366.4,648.9,362.9,648,359.8,646.1z"/>
		<path class="st2" d="M402.4,648.3H396v-42.7h6.4v18.1h21.5v-18.1h6.4v42.7h-6.4v-18.4h-21.5V648.3z"/>
		<path class="st2" d="M448,646.1c-3.1-1.9-5.6-4.5-7.4-7.8c-1.8-3.3-2.7-7.1-2.7-11.3c0-4.2,0.9-8,2.7-11.3
			c1.8-3.3,4.3-5.9,7.4-7.8c3.1-1.9,6.6-2.8,10.3-2.8c3.8,0,7.2,0.9,10.4,2.8c3.1,1.9,5.6,4.5,7.4,7.8c1.8,3.3,2.7,7.1,2.7,11.3
			c0,4.2-0.9,8-2.7,11.3c-1.8,3.3-4.3,5.9-7.4,7.8c-3.1,1.9-6.6,2.8-10.4,2.8C454.6,648.9,451.1,648,448,646.1z M465.5,640.8
			c2.2-1.3,3.9-3.2,5.1-5.6c1.3-2.4,1.9-5.2,1.9-8.3c0-3.1-0.6-5.8-1.9-8.3c-1.3-2.4-3-4.3-5.1-5.6c-2.2-1.3-4.5-2-7.1-2
			c-2.6,0-4.9,0.7-7.1,2c-2.2,1.3-3.9,3.2-5.1,5.6c-1.3,2.4-1.9,5.2-1.9,8.3c0,3.1,0.6,5.8,1.9,8.3c1.3,2.4,3,4.3,5.1,5.6
			c2.2,1.3,4.5,2,7.1,2C461,642.8,463.3,642.1,465.5,640.8z"/>
		<path class="st2" d="M514.5,648.3h-28v-42.7h28v5.9h-21.6v12.4h20.4v5.8h-20.4v12.6h21.6V648.3z"/>
		<path class="st2" d="M543.7,648.3h-6.4v-42.7h34.1v42.7H565v-36.6h-21.3V648.3z"/>
		<path class="st2" d="M580.8,648.3v-42.7h19c2.4,0,4.6,0.6,6.5,1.7c2,1.2,3.5,2.8,4.6,4.8c1.1,2.1,1.7,4.4,1.7,7.1
			c0,2.6-0.6,5-1.7,7.1c-1.1,2.1-2.7,3.7-4.6,4.9c-2,1.2-4.1,1.7-6.5,1.7h-12.6v15.3H580.8z M599.6,626.9c1.8,0,3.4-0.7,4.7-2.1
			c1.3-1.4,1.9-3.2,1.9-5.5c0-2.3-0.6-4.1-1.9-5.5c-1.3-1.4-2.8-2.1-4.7-2.1h-12.4v15.2H599.6z"/>
		<path class="st2" d="M628.3,646.1c-3.1-1.9-5.6-4.5-7.4-7.8c-1.8-3.3-2.7-7.1-2.7-11.3c0-4.2,0.9-8,2.7-11.3
			c1.8-3.3,4.3-5.9,7.4-7.8c3.1-1.9,6.6-2.8,10.3-2.8c3.8,0,7.2,0.9,10.4,2.8c3.1,1.9,5.6,4.5,7.4,7.8c1.8,3.3,2.7,7.1,2.7,11.3
			c0,4.2-0.9,8-2.7,11.3c-1.8,3.3-4.3,5.9-7.4,7.8c-3.1,1.9-6.6,2.8-10.4,2.8C634.9,648.9,631.4,648,628.3,646.1z M645.8,640.8
			c2.2-1.3,3.9-3.2,5.1-5.6c1.3-2.4,1.9-5.2,1.9-8.3c0-3.1-0.6-5.8-1.9-8.3c-1.3-2.4-3-4.3-5.1-5.6c-2.2-1.3-4.5-2-7.1-2
			c-2.6,0-4.9,0.7-7.1,2c-2.2,1.3-3.9,3.2-5.1,5.6c-1.3,2.4-1.9,5.2-1.9,8.3c0,3.1,0.6,5.8,1.9,8.3c1.3,2.4,3,4.3,5.1,5.6
			c2.2,1.3,4.5,2,7.1,2C641.3,642.8,643.7,642.1,645.8,640.8z"/>
		<path class="st2" d="M694.8,648.3h-28v-42.7h28v5.9h-21.6v12.4h20.4v5.8h-20.4v12.6h21.6V648.3z"/>
		<path class="st2" d="M709.2,648.3h-6.4v-42.7h6.4v19.6l16.3-19.6h7.9l-17.6,21l18.8,21.7h-7.9L709.2,628V648.3z"/>
		<path class="st2" d="M754.6,648.3h-6.4v-36.6h-13.4v-6.1h33.2v6.1h-13.4V648.3z"/>
		<path class="st2" d="M783.3,648.3H774v-42.7h6.4V639h1.2l17.4-33.4h9.3v42.7h-6.4v-33.4h-1.2L783.3,648.3z"/>
		<path class="st2" d="M817.7,648.3v-42.7h19c2.4,0,4.6,0.6,6.5,1.7c2,1.2,3.5,2.8,4.6,4.8c1.1,2.1,1.7,4.4,1.7,7.1
			c0,2.6-0.6,5-1.7,7.1c-1.1,2.1-2.7,3.7-4.6,4.9c-2,1.2-4.1,1.7-6.5,1.7h-12.6v15.3H817.7z M836.5,626.9c1.8,0,3.4-0.7,4.7-2.1
			c1.3-1.4,1.9-3.2,1.9-5.5c0-2.3-0.6-4.1-1.9-5.5c-1.3-1.4-2.8-2.1-4.7-2.1h-12.4v15.2H836.5z"/>
		<path class="st2" d="M865.3,646.1c-3.1-1.9-5.6-4.5-7.4-7.8c-1.8-3.3-2.7-7.1-2.7-11.3c0-4.2,0.9-8,2.7-11.3
			c1.8-3.3,4.3-5.9,7.4-7.8c3.1-1.9,6.6-2.8,10.3-2.8c3.8,0,7.2,0.9,10.4,2.8c3.1,1.9,5.6,4.5,7.4,7.8c1.8,3.3,2.7,7.1,2.7,11.3
			c0,4.2-0.9,8-2.7,11.3c-1.8,3.3-4.3,5.9-7.4,7.8c-3.1,1.9-6.6,2.8-10.4,2.8C871.8,648.9,868.4,648,865.3,646.1z M882.7,640.8
			c2.2-1.3,3.9-3.2,5.1-5.6c1.3-2.4,1.9-5.2,1.9-8.3c0-3.1-0.6-5.8-1.9-8.3c-1.3-2.4-3-4.3-5.1-5.6c-2.2-1.3-4.5-2-7.1-2
			c-2.6,0-4.9,0.7-7.1,2c-2.2,1.3-3.9,3.2-5.1,5.6c-1.3,2.4-1.9,5.2-1.9,8.3c0,3.1,0.6,5.8,1.9,8.3c1.3,2.4,3,4.3,5.1,5.6
			c2.2,1.3,4.5,2,7.1,2C878.2,642.8,880.6,642.1,882.7,640.8z"/>
		<path class="st2" d="M903.7,648.3v-42.7h19c2.2,0,4.3,0.5,6.1,1.6c1.8,1,3.2,2.5,4.3,4.3c1,1.8,1.6,3.8,1.6,6.1
			c0,2.1-0.5,4-1.4,5.6c-0.9,1.6-2,2.8-3.2,3.5v0.3c1.3,0.7,2.5,1.8,3.6,3.5c1.1,1.7,1.6,3.7,1.6,5.9c0,2.2-0.5,4.3-1.6,6.1
			c-1,1.8-2.5,3.2-4.3,4.3c-1.8,1-3.8,1.6-6.1,1.6H903.7z M922.3,624.1c1.6,0,3-0.6,4.2-1.8c1.2-1.2,1.7-2.7,1.7-4.5
			c0-1.8-0.6-3.4-1.7-4.6c-1.2-1.2-2.6-1.8-4.2-1.8h-12.2v12.7H922.3z M922.9,642.5c1.6,0,3-0.6,4.2-1.8c1.2-1.2,1.7-2.7,1.7-4.6
			c0-1.8-0.6-3.3-1.7-4.5c-1.2-1.2-2.6-1.8-4.2-1.8h-12.8v12.7H922.9z"/>
		<path class="st2" d="M978.1,648.3h-6.9l-3.7-10.2h-19.6l-3.7,10.2h-7l15.7-42.7h9.4L978.1,648.3z M957.1,612.4l-7.1,19.8h15.5
			l-7.1-19.8H957.1z"/>
		<path class="st2" d="M989.1,648.3h-6.4v-42.7h6.4v18.1h21.5v-18.1h6.4v42.7h-6.4v-18.4h-21.5V648.3z"/>
		<path class="st2" d="M1035.7,648.3h-9.3v-42.7h6.4V639h1.2l17.4-33.4h9.3v42.7h-6.4v-33.4h-1.2L1035.7,648.3z"/>
		<path class="st2" d="M1098.1,648.3h-28v-42.7h28v5.9h-21.6v12.4h20.4v5.8h-20.4v12.6h21.6V648.3z"/>
		<path class="st2" d="M1109,653.4h-5.1l1.3-12h7L1109,653.4z"/>
		<path class="st2" d="M66.1,714.3h-6.4v-42.7h10.7l11.7,33.9h1.2L95,671.6h10.8v42.7h-6.4v-33.1h-1.2l-11.5,33.1h-7.9l-11.5-33.1
			h-1.2V714.3z"/>
		<path class="st2" d="M123.5,712.1c-3.1-1.9-5.6-4.5-7.4-7.8c-1.8-3.3-2.7-7.1-2.7-11.3c0-4.2,0.9-8,2.7-11.3
			c1.8-3.3,4.3-5.9,7.4-7.8c3.1-1.9,6.6-2.8,10.3-2.8c3.8,0,7.2,0.9,10.4,2.8c3.1,1.9,5.6,4.5,7.4,7.8c1.8,3.3,2.7,7.1,2.7,11.3
			c0,4.2-0.9,8-2.7,11.3c-1.8,3.3-4.3,5.9-7.4,7.8c-3.1,1.9-6.6,2.8-10.4,2.8C130.1,714.9,126.6,714,123.5,712.1z M141,706.8
			c2.2-1.3,3.9-3.2,5.1-5.6c1.3-2.4,1.9-5.2,1.9-8.3c0-3.1-0.6-5.8-1.9-8.3c-1.3-2.4-3-4.3-5.1-5.6c-2.2-1.3-4.5-2-7.1-2
			c-2.6,0-4.9,0.7-7.1,2c-2.2,1.3-3.9,3.2-5.1,5.6c-1.3,2.4-1.9,5.2-1.9,8.3c0,3.1,0.6,5.8,1.9,8.3c1.3,2.4,3,4.3,5.1,5.6
			c2.2,1.3,4.5,2,7.1,2C136.4,708.8,138.8,708.1,141,706.8z"/>
		<path class="st2" d="M168.4,714.3H162v-42.7h6.4v18.1h21.5v-18.1h6.4v42.7h-6.4v-18.4h-21.5V714.3z"/>
		<path class="st2" d="M222.2,714.3h-6.4v-36.6h-13.4v-6.1h33.2v6.1h-13.4V714.3z"/>
		<path class="st2" d="M274,714.3h-6.9l-3.7-10.2h-19.6l-3.7,10.2h-7l15.7-42.7h9.4L274,714.3z M253,678.4l-7.1,19.8h15.5l-7.1-19.8
			H253z"/>
		<path class="st2" d="M281.3,714.3h-7.6l15.6-21.7l-14.3-21h7.6l13.3,19.6v-19.6h6.4v19.6l13.3-19.6h7.6l-14.3,21l15.6,21.7h-7.6
			l-14.5-20.6v20.6h-6.4v-20.6L281.3,714.3z"/>
		<path class="st2" d="M351.8,714.3h-9.3v-42.7h6.4V705h1.2l17.4-33.4h9.3v42.7h-6.4v-33.4h-1.2L351.8,714.3z"/>
		<path class="st2" d="M409.3,712.1c-3.1-1.9-5.6-4.5-7.4-7.8c-1.8-3.3-2.7-7.1-2.7-11.3c0-4.2,0.9-8,2.7-11.3
			c1.8-3.3,4.3-5.9,7.4-7.8c3.1-1.9,6.6-2.8,10.3-2.8c3.8,0,7.2,0.9,10.4,2.8c3.1,1.9,5.6,4.5,7.4,7.8c1.8,3.3,2.7,7.1,2.7,11.3
			c0,4.2-0.9,8-2.7,11.3c-1.8,3.3-4.3,5.9-7.4,7.8c-3.1,1.9-6.6,2.8-10.4,2.8C415.9,714.9,412.5,714,409.3,712.1z M426.8,706.8
			c2.2-1.3,3.9-3.2,5.1-5.6c1.3-2.4,1.9-5.2,1.9-8.3c0-3.1-0.6-5.8-1.9-8.3c-1.3-2.4-3-4.3-5.1-5.6c-2.2-1.3-4.5-2-7.1-2
			c-2.6,0-4.9,0.7-7.1,2c-2.2,1.3-3.9,3.2-5.1,5.6c-1.3,2.4-1.9,5.2-1.9,8.3c0,3.1,0.6,5.8,1.9,8.3c1.3,2.4,3,4.3,5.1,5.6
			c2.2,1.3,4.5,2,7.1,2C422.3,708.8,424.7,708.1,426.8,706.8z"/>
		<path class="st2" d="M447.8,714.3v-42.7h29.5v5.8h-23.1v12h13.3c2.3,0,4.3,0.5,6.2,1.6c1.9,1.1,3.3,2.5,4.4,4.4
			c1.1,1.9,1.6,4,1.6,6.4c0,2.4-0.5,4.6-1.6,6.5c-1.1,1.9-2.5,3.4-4.4,4.4c-1.9,1.1-3.9,1.6-6.2,1.6H447.8z M467.3,708.5
			c1.7,0,3.2-0.6,4.3-1.9c1.1-1.2,1.6-2.9,1.6-4.8c0-2-0.5-3.6-1.6-4.8c-1.1-1.2-2.5-1.8-4.3-1.8h-13.1v13.4H467.3z"/>
		<path class="st2" d="M495.4,712.1c-3.1-1.9-5.6-4.5-7.4-7.8c-1.8-3.3-2.7-7.1-2.7-11.3c0-4.2,0.9-8,2.7-11.3
			c1.8-3.3,4.3-5.9,7.4-7.8c3.1-1.9,6.6-2.8,10.3-2.8c3.3,0,6.2,0.7,8.8,2c2.6,1.3,4.8,3.1,6.6,5.4c1.8,2.3,3,4.8,3.7,7.6h-6.6
			c-0.9-2.6-2.5-4.8-4.7-6.4c-2.2-1.6-4.8-2.5-7.8-2.5c-2.6,0-4.9,0.7-7.1,2c-2.2,1.3-3.9,3.2-5.1,5.6c-1.3,2.4-1.9,5.2-1.9,8.3
			c0,3.1,0.6,5.8,1.9,8.3c1.3,2.4,3,4.3,5.1,5.6c2.2,1.3,4.5,2,7.1,2c3.1,0,5.7-0.8,7.9-2.5c2.2-1.7,3.7-3.9,4.6-6.7h6.6
			c-0.7,2.9-1.9,5.5-3.7,7.8c-1.7,2.3-3.9,4.1-6.6,5.5c-2.6,1.3-5.6,2-8.9,2C502,714.9,498.5,714,495.4,712.1z"/>
		<path class="st2" d="M526.2,714.6v-6.3h1.9c2.8,0,4.4-1.6,4.6-4.9l2.7-31.8H563v42.7h-6.4v-36.6h-15.3l-2.3,26.4
			c-0.3,3.6-1.3,6.2-3,7.9c-1.7,1.7-4.2,2.6-7.4,2.6H526.2z"/>
		<path class="st2" d="M598.4,671.6h6.9l-17.1,37.6c-0.8,1.7-1.8,3-3.1,3.8c-1.3,0.9-3,1.3-5.3,1.3h-6.1v-5.9h5.8
			c0.9,0,1.5-0.2,2-0.5c0.5-0.3,0.9-0.8,1.2-1.6l1-2.2l-15.9-32.6h7l11.5,24.2h1.2L598.4,671.6z"/>
		<path class="st2" d="M612.8,714.3h-7.6l15.6-21.7l-14.3-21h7.6l13.3,19.6v-19.6h6.4v19.6l13.3-19.6h7.6l-14.3,21l15.6,21.7h-7.6
			l-14.5-20.6v20.6h-6.4v-20.6L612.8,714.3z"/>
		<path class="st2" d="M669.7,714.3h-9.3v-42.7h6.4V705h1.2l17.4-33.4h9.3v42.7h-6.4v-33.4H687L669.7,714.3z"/>
		<path class="st2" d="M704.1,714.3v-42.7h19c2.2,0,4.3,0.5,6.1,1.6c1.8,1,3.2,2.5,4.3,4.3c1,1.8,1.6,3.8,1.6,6.1
			c0,2.1-0.5,4-1.4,5.6c-0.9,1.6-2,2.8-3.2,3.5v0.3c1.3,0.7,2.5,1.8,3.6,3.5c1.1,1.7,1.6,3.7,1.6,5.9c0,2.2-0.5,4.3-1.6,6.1
			c-1,1.8-2.5,3.2-4.3,4.3c-1.8,1-3.8,1.6-6.1,1.6H704.1z M722.7,690.1c1.6,0,3-0.6,4.2-1.8c1.2-1.2,1.7-2.7,1.7-4.5
			c0-1.8-0.6-3.4-1.7-4.6c-1.2-1.2-2.6-1.8-4.2-1.8h-12.2v12.7H722.7z M723.3,708.5c1.6,0,3-0.6,4.2-1.8c1.2-1.2,1.7-2.7,1.7-4.6
			c0-1.8-0.6-3.3-1.7-4.5c-1.2-1.2-2.6-1.8-4.2-1.8h-12.8v12.7H723.3z"/>
		<path class="st2" d="M778.4,714.3h-6.9l-3.7-10.2h-19.6l-3.7,10.2h-7l15.7-42.7h9.4L778.4,714.3z M757.4,678.4l-7.1,19.8h15.5
			l-7.1-19.8H757.4z"/>
		<path class="st2" d="M789.5,714.3h-6.4v-42.7h6.4v18.1h21.5v-18.1h6.4v42.7h-6.4v-18.4h-21.5V714.3z"/>
		<path class="st2" d="M836,714.3h-9.3v-42.7h6.4V705h1.2l17.4-33.4h9.3v42.7h-6.4v-33.4h-1.2L836,714.3z"/>
		<path class="st2" d="M898.4,714.3h-28v-42.7h28v5.9h-21.6v12.4h20.4v5.8h-20.4v12.6h21.6V714.3z"/>
		<path class="st2" d="M68.9,780.3h-9.3v-42.7h6.4V771h1.2l17.4-33.4h9.3v42.7h-6.4v-33.4h-1.2L68.9,780.3z"/>
		<path class="st2" d="M109.7,780.3h-6.4v-42.7h6.4v18.1h21.5v-18.1h6.4v42.7h-6.4v-18.4h-21.5V780.3z"/>
		<path class="st2" d="M149.8,780.3h-7.6l15.6-21.7l-14.3-21h7.6l13.3,19.6v-19.6h6.4v19.6l13.3-19.6h7.6l-14.3,21l15.6,21.7h-7.6
			l-14.5-20.6v20.6h-6.4v-20.6L149.8,780.3z"/>
		<path class="st2" d="M225.3,780.3h-28v-42.7h28v5.9h-21.6v12.4h20.4v5.8h-20.4v12.6h21.6V780.3z"/>
		<path class="st2" d="M239.7,780.3h-6.4v-42.7h6.4v18.1h21.5v-18.1h6.4v42.7h-6.4v-18.4h-21.5V780.3z"/>
		<path class="st2" d="M305,780.3h-28v-42.7h28v5.9h-21.6v12.4h20.4v5.8h-20.4v12.6H305V780.3z"/>
		<path class="st2" d="M313,780.3v-42.7h19c2.4,0,4.6,0.6,6.5,1.7c2,1.2,3.5,2.8,4.6,4.8c1.1,2.1,1.7,4.4,1.7,7.1
			c0,2.6-0.6,5-1.7,7.1c-1.1,2.1-2.7,3.7-4.6,4.9c-2,1.2-4.1,1.7-6.5,1.7h-12.6v15.3H313z M331.8,758.9c1.8,0,3.4-0.7,4.7-2.1
			c1.3-1.4,1.9-3.2,1.9-5.5c0-2.3-0.6-4.1-1.9-5.5c-1.3-1.4-2.8-2.1-4.7-2.1h-12.4v15.2H331.8z"/>
		<path class="st2" d="M358.6,780.3h-6.4v-42.7h6.4v18.1h21.5v-18.1h6.4v42.7h-6.4v-18.4h-21.5V780.3z"/>
		<path class="st2" d="M395.9,780.3v-42.7h6.4v15.1H413c2.4,0,4.7,0.6,6.6,1.8c2,1.2,3.5,2.8,4.7,4.9c1.1,2.1,1.7,4.5,1.7,7.1
			c0,2.6-0.6,5-1.7,7.1c-1.1,2.1-2.7,3.7-4.7,4.9c-2,1.2-4.2,1.8-6.6,1.8H395.9z M412.8,774.2c2,0,3.6-0.7,4.8-2.2
			c1.3-1.4,1.9-3.3,1.9-5.5c0-2.2-0.6-4.1-1.9-5.6c-1.3-1.5-2.9-2.2-4.8-2.2h-10.6v15.4H412.8z M437,780.3h-6.4v-42.7h6.4V780.3z"/>
		<path class="st2" d="M449.3,780.3h-7.4l14.8-22l-13.8-20.7h7.4l10.2,15.6h1.2l10.1-15.6h7.4l-13.8,20.7l14.8,22h-7.4l-11-16.7
			h-1.2L449.3,780.3z"/>
		<path class="st2" d="M506.7,778.1c-3.1-1.9-5.6-4.5-7.4-7.8c-1.8-3.3-2.7-7.1-2.7-11.3s0.9-8,2.7-11.3c1.8-3.3,4.3-5.9,7.4-7.8
			c3.1-1.9,6.6-2.8,10.3-2.8c3.3,0,6.2,0.7,8.8,2c2.6,1.3,4.8,3.1,6.6,5.4s3,4.8,3.7,7.6h-6.6c-0.9-2.6-2.5-4.8-4.7-6.4
			c-2.2-1.6-4.8-2.5-7.8-2.5c-2.6,0-4.9,0.7-7.1,2c-2.2,1.3-3.9,3.2-5.1,5.6c-1.3,2.4-1.9,5.2-1.9,8.3s0.6,5.8,1.9,8.3
			c1.3,2.4,3,4.3,5.1,5.6c2.2,1.3,4.5,2,7.1,2c3.1,0,5.7-0.8,7.9-2.5s3.7-3.9,4.6-6.7h6.6c-0.7,2.9-1.9,5.5-3.7,7.8
			c-1.7,2.3-3.9,4.1-6.6,5.5c-2.6,1.3-5.6,2-8.9,2C513.3,780.9,509.8,780,506.7,778.1z"/>
		<path class="st2" d="M552.2,780.3h-9.3v-42.7h6.4V771h1.2l17.4-33.4h9.3v42.7h-6.4v-33.4h-1.2L552.2,780.3z"/>
		<path class="st2" d="M594.9,778.1c-3.1-1.9-5.6-4.5-7.4-7.8c-1.8-3.3-2.7-7.1-2.7-11.3s0.9-8,2.7-11.3c1.8-3.3,4.3-5.9,7.4-7.8
			c3.1-1.9,6.6-2.8,10.3-2.8c3.3,0,6.2,0.7,8.8,2c2.6,1.3,4.8,3.1,6.6,5.4s3,4.8,3.7,7.6h-6.6c-0.9-2.6-2.5-4.8-4.7-6.4
			c-2.2-1.6-4.8-2.5-7.8-2.5c-2.6,0-4.9,0.7-7.1,2c-2.2,1.3-3.9,3.2-5.1,5.6c-1.3,2.4-1.9,5.2-1.9,8.3s0.6,5.8,1.9,8.3
			c1.3,2.4,3,4.3,5.1,5.6c2.2,1.3,4.5,2,7.1,2c3.1,0,5.7-0.8,7.9-2.5s3.7-3.9,4.6-6.7h6.6c-0.7,2.9-1.9,5.5-3.7,7.8
			c-1.7,2.3-3.9,4.1-6.6,5.5c-2.6,1.3-5.6,2-8.9,2C601.5,780.9,598,780,594.9,778.1z"/>
		<path class="st2" d="M646.4,780.3H640v-36.6h-13.4v-6.1h33.2v6.1h-13.4V780.3z"/>
		<path class="st2" d="M693.9,780.3h-28v-42.7h28v5.9h-21.6v12.4h20.4v5.8h-20.4v12.6h21.6V780.3z"/>
		<path class="st2" d="M708.3,780.3h-6.4v-42.7h10.7l11.7,33.9h1.2l11.7-33.9H748v42.7h-6.4v-33.1h-1.2l-11.5,33.1H721l-11.5-33.1
			h-1.2V780.3z"/>
	</g>
</g>
</svg>
