<?xml version="1.0" encoding="utf-8"?>
<!-- Generator: Adobe Illustrator 22.0.0, SVG Export Plug-In . SVG Version: 6.00 Build 0)  -->
<svg version="1.1" id="Layer_1" xmlns="http://www.w3.org/2000/svg" xmlns:xlink="http://www.w3.org/1999/xlink" x="0px" y="0px"
	 viewBox="0 0 1600 1163.6" style="enable-background:new 0 0 1600 1163.6;" xml:space="preserve">
<style type="text/css">
	.st0{fill:#D1D1D5;}
	.st1{fill:#1B1B2D;}
	.st2{fill:#FFFFFF;}
</style>
<rect class="st0" width="1600" height="1163.6"/>
<g>
	<path class="st1" d="M457.2,385.6l27.8-74.2h14.5l27.7,74.2h-13l-7-18.3h-30.4l-6.9,18.3H457.2z M480.1,356.8h23.6l-11.9-32.3
		L480.1,356.8z"/>
	<path class="st1" d="M534.8,385.6v-74.2h47.6V322H547V341h17.6c14.7,0,24.8,7.1,24.8,22.2c0,14.4-10,22.4-24.7,22.4H534.8z
		 M547,375.1h16.5c8.4,0,13.5-4.6,13.5-11.8c0-7.2-5.2-11.8-13.5-11.8H547V375.1z"/>
	<path class="st1" d="M598.9,311.4h27.2c16.3,0,25.7,7.4,25.7,19.6c0,8.8-5,14.1-12.7,16.2c8.8,1.4,15.6,6.6,15.6,17.2
		c0,13.1-9.6,21.2-27.6,21.2h-28.2V311.4z M611.1,321.5v21.3h15.4c8.4,0,13.1-4,13.1-10.7c0-6.6-4.7-10.6-13.1-10.6H611.1z
		 M611.1,352.9v22.4h16.1c9.8,0,14.9-4.1,14.9-11c0-7.3-5.5-11.3-14.9-11.3H611.1z"/>
	<path class="st1" d="M665.4,385.6v-74.2H710v10.8h-32.4v63.4H665.4z"/>
	<path class="st1" d="M775.8,374.8h9.2v26h-12v-15.2h-53.3v15.2h-12v-26h6.9c4.9-4,7.6-10.8,7.6-31.6v-31.8h53.5V374.8z
		 M763.6,374.8v-53h-29.9v22.9c0,16-1.7,24.3-5.6,30.1H763.6z"/>
	<path class="st1" d="M793.8,311.4h48.4v10.8H806v20.6h29.9v10.5H806v21.5h37.5v10.8h-49.7V311.4z"/>
	<path class="st1" d="M853.5,311.4H902v10.8h-36.3v20.6h29.9v10.5h-29.9v21.5h37.5v10.8h-49.7V311.4z M868,290.8
		c3.9,0,6.7,2.8,6.7,6.5s-2.8,6.5-6.7,6.5c-3.7,0-6.6-2.8-6.6-6.5S864.3,290.8,868,290.8z M888.6,290.8c3.8,0,6.6,2.8,6.6,6.5
		s-2.8,6.5-6.6,6.5c-3.7,0-6.7-2.8-6.7-6.5S884.9,290.8,888.6,290.8z"/>
	<path class="st1" d="M907.8,385.6l26.2-38.4l-24.6-35.8H923l21.3,31.2h9.6v-31.2h12.2v31.2h9.8l21.3-31.2h13.6l-24.6,35.8
		l26.1,38.4h-14.4l-21.6-32.2h-10.1v32.2h-12.2v-32.2h-10l-21.7,32.2H907.8z"/>
	<path class="st1" d="M1014.2,362.6h12.2c0.6,9.1,6.9,13.4,16.9,13.4c9.6,0,15.6-4.3,15.6-11.9c0-7.6-5.2-11.2-15.6-11.2h-8V343h7.3
		c10,0,14.5-4,14.5-11.2c0-6.9-5.6-10.7-14.3-10.7c-9.4,0-15.2,4.8-15.9,12.5h-12c0.7-13.5,11.6-22.8,28-22.8
		c16.6,0,26.6,7.7,26.6,19.9c0,9.4-5.1,14.6-12.4,16.6c7.3,1.7,14.1,6.7,14.1,17.5c0,13-11.2,21.4-28.5,21.4
		C1024.8,386.2,1014.9,378,1014.2,362.6z"/>
	<path class="st1" d="M1082,385.6v-74.2h12.1v54.2l36.3-54.2h11.2v74.2h-12.1v-54.2l-36.3,54.2H1082z"/>
	<path class="st1" d="M1155.2,385.6v-74.2h12.1v54.2l36.3-54.2h11.2v74.2h-12.1v-54.2l-36.3,54.2H1155.2z M1168.7,290.6h8.8
		c0,4.9,2.1,7.8,7.6,7.8c5.6,0,7.8-3,7.8-7.8h8.8c-0.2,9.8-6.4,14.9-16.7,14.9S1168.9,300.3,1168.7,290.6z"/>
	<path class="st1" d="M1228.5,385.6v-74.2h12.2v31.2h12.4l22.5-31.2h14l-26.2,35.7l27.8,38.5h-14.7l-23.2-32.2h-12.5v32.2H1228.5z"
		/>
	<path class="st1" d="M1294,385.6v-10.8h1.9c7.6,0,11-4.9,11-26.8v-36.6h53.6v74.2h-12.2v-63.4h-29.8v26.7
		c0,27.7-6.7,36.7-21.2,36.7H1294z"/>
	<path class="st1" d="M1374.1,311.4h15.8l23.7,58.4l23.3-58.4h15.5v74.2h-11.8V331l-22.3,54.6h-10.3l-22.3-54.6v54.6h-11.8V311.4z"
		/>
	<path class="st1" d="M463.1,414.6h12.2v31.2h34.5v-31.2h12.2v74.2h-12.2v-32.2h-34.5v32.2h-12.2V414.6z"/>
	<path class="st1" d="M568.7,489.4c-21.3,0-36-16-36-37.7s14.7-37.7,36-37.7c21.3,0,36,16,36,37.7S590,489.4,568.7,489.4z
		 M568.7,478.7c14.1,0,23.5-11.3,23.5-27s-9.4-27-23.5-27c-14.1,0-23.5,11.3-23.5,27S554.6,478.7,568.7,478.7z"/>
	<path class="st1" d="M615.4,488.8v-74.2h58.4v74.2h-12.2v-63.4h-34v63.4H615.4z"/>
	<path class="st1" d="M687.4,414.6h29.3c15.5,0,25.7,9.2,25.7,23.6c0,14.3-10.2,23.6-25.7,23.6h-17.1v26.9h-12.2V414.6z
		 M699.6,425.2v26.1h16c8.7,0,14.3-5.1,14.3-13c0-8.1-5.5-13-14.2-13H699.6z"/>
	<path class="st1" d="M748.8,451.7c0-22.6,13.9-37.7,35.8-37.7c17,0,29.2,10.2,31.6,25.9h-12.6c-2.4-9.3-9.4-15.2-19.5-15.2
		c-14.1,0-22.8,11.1-22.8,27c0,15.8,8.5,27,22.5,27c10.3,0,17.4-5.7,19.7-15.2h12.6c-2.3,15.7-14.9,25.9-32.2,25.9
		C762.3,489.4,748.8,474.5,748.8,451.7z"/>
	<path class="st1" d="M818.1,414.6h58v10.8h-22.9v63.4H841v-63.4h-22.9V414.6z"/>
	<path class="st1" d="M887.9,488.8V478h6.8c6.1,0,8.4-1.1,10.8-6.4l1.9-4.2l-28.6-52.8h13.6l21.2,40.1l17.8-40.1h12.8l-27.9,60.2
		c-4.9,10.8-10.3,14-18.3,14H887.9z"/>
	<path class="st1" d="M993.8,484v9h-11.7v-9c-22.8-1.1-37.1-12.9-37.1-32.3s14.2-31.3,37.1-32.3v-9h11.7v8.9c22.8,1.2,37,13,37,32.4
		C1030.8,471,1016.7,482.9,993.8,484z M982.1,474v-44.5c-16.4,1-24.9,9-24.9,22.3C957.2,464.8,965.5,472.9,982.1,474z M993.8,474
		c16.4-1,24.9-9.1,24.9-22.3c0-13.1-8.4-21.2-24.9-22.2V474z"/>
	<path class="st1" d="M1055.7,450.9l-23.2-36.3h14.4l16.6,26.4l17-26.4h13.8l-23.2,35.7l24.7,38.5h-14.5l-18.1-28.5l-18.2,28.5
		h-13.8L1055.7,450.9z"/>
	<path class="st1" d="M1161.9,478h9.2v26h-11.9v-15.2h-55.4v-74.2h12.2V478h33.7v-63.4h12.2V478z"/>
	<path class="st1" d="M1219.4,414.6h12.2v74.2h-12.2v-30.2c-4.7,2.5-10.9,4-18.2,4c-15.5,0-26.3-7.5-26.3-23.9v-24.2h12.2v22.3
		c0,10.5,6.3,15.2,15.9,15.2c6.6,0,12.1-1.6,16.4-4.5V414.6z"/>
	<path class="st1" d="M1245.1,488.8v-74.2h12.2V478h27.9v-63.4h12.2V478h27.9v-63.4h12.2v74.2H1245.1z"/>
	<path class="st1" d="M1443.3,478h9.1v26h-11.9v-15.2H1351v-74.2h12.2V478h27.9v-63.4h12.2V478h27.9v-63.4h12.2V478z"/>
	<path class="st1" d="M479,592v-63.8h-20.6v-10.4h32.8v27h17.5c15.4,0,25.5,9.6,25.5,23.6c0,13.8-10.2,23.5-25.5,23.5H479z
		 M491.2,581.4h16.4c8.7,0,14.2-5.1,14.2-12.9c0-8-5.6-12.9-14.2-12.9h-16.4V581.4z"/>
	<path class="st1" d="M544.1,592v-74.2h12.2v27h16.5c15.5,0,25.7,9.6,25.7,23.6c0,13.8-10.2,23.5-25.7,23.5H544.1z M556.3,581.4
		h15.6c8.6,0,14.2-5.1,14.2-12.9c0-8-5.6-12.9-14.3-12.9h-15.5V581.4z M607.3,592v-74.2h12.2V592H607.3z"/>
	<path class="st1" d="M633,592v-74.2h12.2v27h17.5c15.4,0,25.5,9.6,25.5,23.6c0,13.8-10.2,23.5-25.5,23.5H633z M645.2,581.4h16.4
		c8.7,0,14.2-5.1,14.2-12.9c0-8-5.6-12.9-14.2-12.9h-16.4V581.4z"/>
	<path class="st1" d="M762.1,554.9c0,22.6-13.9,37.7-35.8,37.7c-17.2,0-29-10.1-31.6-25.5h12.6c2.4,9.1,9.1,14.9,19.6,14.9
		c12.5,0,21-8.8,22.6-22.3H721v-10.4h28.5c-1.7-13.1-9.6-21.6-21.9-21.6c-10.6,0-17.3,5.8-19.7,14.9h-12.6
		c2.5-15.5,14.7-25.5,31.9-25.5C749,517.2,762.1,532.1,762.1,554.9z"/>
	<path class="st1" d="M868.3,554.9c0,21.7-14.4,37.7-35.5,37.7c-19.4,0-33.2-13.6-35.3-32.8h-12.3V592H773v-74.2h12.2v31.4h12.4
		c2.3-18.8,16-32,35.2-32C853.8,517.2,868.3,533.2,868.3,554.9z M855.9,554.9c0-15.7-9.1-27-23.1-27c-13.9,0-23,11.3-23,27
		s9.1,27,23,27C846.7,582,855.9,570.6,855.9,554.9z"/>
	<path class="st1" d="M932,517.8V592h-12.2v-27h-15.1l-16,27h-14.1l17.4-28.6c-10.3-3.1-16.1-11.2-16.1-22.2
		c0-14,10.5-23.4,26.1-23.4H932z M919.8,554.4v-26h-17c-8.8,0-14.5,5-14.5,12.9s5.6,13,14.5,13H919.8z"/>
</g>
<g>
	<path class="st2" d="M87.2,95h35.1v7.8H96.1v14.9h21.6v7.6H96.1v15.6h27.2v7.8h-36V95z"/>
	<path class="st2" d="M128.5,148.7V95h8.8v45.9h23.1v7.8H128.5z"/>
	<path class="st2" d="M153.8,95h42v7.8h-16.6v45.9h-8.8v-45.9h-16.6V95z"/>
	<path class="st2" d="M188.7,148.7L208.8,95h10.5l20,53.7h-9.4l-5.1-13.3h-22l-5,13.3H188.7z M205.2,127.9h17.1l-8.6-23.4
		L205.2,127.9z"/>
	<path class="st2" d="M267.4,131.2c0.5,6.3,5.4,10.5,12.9,10.5c6.4,0,11-2.8,11-8c0-5.7-5.6-6.9-14.1-8.4c-8.9-1.5-17.3-4.4-17.3-15
		c0-9.4,7.7-15.7,19.1-15.7c12.3,0,20,6.7,20.3,16.6h-8.8c-0.7-5.5-5-9.1-11.5-9.1c-6.1,0-10.3,2.6-10.3,7.7c0,5.5,5.5,6.7,14,8.1
		c8.9,1.6,17.6,4.5,17.5,15c0,9.7-8.1,16.4-19.9,16.4c-13.4,0-21.4-7.4-21.7-18.1L267.4,131.2z"/>
	<path class="st2" d="M299.7,148.7L319.9,95h10.5l20,53.7H341l-5.1-13.3h-22l-5,13.3H299.7z M316.3,127.9h17.1l-8.6-23.4
		L316.3,127.9z"/>
	<path class="st2" d="M354,148.7V95h8.1l26.2,38.1V95h8.7v53.7h-8.1l-26.2-38.1v38.1H354z"/>
	<path class="st2" d="M411.6,131.2c0.5,6.3,5.4,10.5,12.9,10.5c6.4,0,11-2.8,11-8c0-5.7-5.6-6.9-14.1-8.4c-8.9-1.5-17.3-4.4-17.3-15
		c0-9.4,7.7-15.7,19.1-15.7c12.3,0,20,6.7,20.3,16.6h-8.8c-0.7-5.5-5-9.1-11.5-9.1c-6.1,0-10.3,2.6-10.3,7.7c0,5.5,5.5,6.7,14,8.1
		c8.9,1.6,17.6,4.5,17.5,15c0,9.7-8.1,16.4-19.9,16.4c-13.4,0-21.4-7.4-21.7-18.1L411.6,131.2z"/>
	<path class="st1" d="M87.2,163.8h11.4l17.2,42.3l16.9-42.3H144v53.7h-8.5V178l-16.1,39.5h-7.4L95.8,178v39.5h-8.5V163.8z"/>
	<path class="st1" d="M151.9,163.8H187v7.8h-26.3v14.9h21.6v7.6h-21.6v15.6h27.2v7.8h-36V163.8z"/>
	<path class="st1" d="M193.2,217.5v-53.7h18.3c16.8,0,27.4,10.8,27.4,26.8c0,16-10.6,26.9-27.4,26.9H193.2z M202,209.8h9.4
		c11.8,0,18.3-7.8,18.3-19.3s-6.5-19.1-18.3-19.1H202V209.8z"/>
	<path class="st1" d="M244.7,163.8h8.8v53.7h-8.8V163.8z"/>
	<path class="st1" d="M261.1,163.8h8.8V195c0,10,3.8,15.2,12.3,15.2c8.6,0,12.4-5.2,12.4-15.2v-31.2h8.8v30.7
		c0,15.3-7.3,23.5-21.3,23.5c-13.9,0-21.1-8.2-21.1-23.5V163.8z"/>
	<path class="st1" d="M311.1,163.8h11.4l17.2,42.3l16.9-42.3h11.2v53.7h-8.5V178l-16.1,39.5h-7.4L319.6,178v39.5h-8.5V163.8z"/>
</g>
<g>
	<path class="st1" d="M508.8,733.9v9.1h-5.5c-6.8,0-9.1-3-9.1-7.9c-3.3,5-8.3,8.5-16.3,8.5c-10.8,0-18.4-5.3-18.4-14.5
		c0-10.1,7.3-15.8,21.2-15.8h12.5v-3c0-5.5-4-8.9-10.8-8.9c-6.2,0-10.3,2.9-11.1,7.2H461c1.1-9.7,9.4-15.7,21.8-15.7
		c13.1,0,20.7,6.3,20.7,18v19.8c0,2.5,1.1,3.2,3.2,3.2H508.8z M493.1,720.9h-12.9c-6.5,0-10,2.4-10,7.4c0,4.2,3.5,7.1,9.2,7.1
		c8.7,0,13.7-5.1,13.8-12.8V720.9z"/>
	<path class="st1" d="M561.8,719.9c0,13.6-9.6,23.7-25,23.7c-15.2,0-24.6-9-24.6-28.5c0-25.4,6.6-35.5,28.3-38.2l17.2-2.1v9.4
		l-14.8,1.8c-15.2,1.9-19.5,5.6-21.2,18.7c3.5-4.5,9.6-7.5,17.8-7.5C552.4,697.2,561.8,705.8,561.8,719.9z M551.2,720.3
		c0-8.5-5.7-14.7-14-14.7c-8.7,0-14.4,6.1-14.4,13.9c0,9.7,5.9,15.6,14.2,15.6C545.4,735.1,551.2,728.9,551.2,720.3z"/>
	<path class="st1" d="M569.3,743v-49.5h21.5c12.8,0,19.2,4.7,19.2,13.1c0,6.6-4.1,9.8-8.7,10.7c6.3,1,10.4,4.4,10.4,11.4
		c0,9.6-7,14.2-20.6,14.2H569.3z M579.5,714.2h11.6c5.8,0,8.4-2.4,8.4-6.4c0-4.3-2.6-6.4-8.4-6.4h-11.6V714.2z M579.5,735h12.6
		c5.9,0,9.2-2.1,9.2-6.6c0-4.3-3.3-6.8-9.2-6.8h-12.6V735z"/>
	<path class="st1" d="M619.1,743v-49.5H652v9.2h-22.4V743H619.1z"/>
	<path class="st1" d="M699.3,733.8h8V756h-10.2v-13h-37.8v13h-10.2v-22.2h5.1c3.5-2.3,5.3-5.7,5.3-19.9v-20.4h39.8V733.8z
		 M688.9,733.8v-31.1h-19.5V715c0,9.9-1.2,15.2-3.4,18.7H688.9z"/>
	<path class="st1" d="M709.5,718.3c0-15.3,9.8-25.4,24.3-25.4c14.3,0,23.9,9.1,24.2,23.6c0,1.3-0.1,2.6-0.3,4h-37.3v0.7
		c0.3,8.4,5.6,13.9,13.8,13.9c6.4,0,11-3.2,12.5-8.7h10.4c-1.7,9.8-10,17.2-22.3,17.2C719.3,743.5,709.5,733.5,709.5,718.3z
		 M747.2,712.8c-0.9-7.3-6-11.5-13.2-11.5c-6.7,0-12.4,4.4-13.1,11.5H747.2z"/>
	<path class="st1" d="M763.6,718.3c0-15.3,9.8-25.4,24.3-25.4c14.3,0,23.9,9.1,24.2,23.6c0,1.3-0.1,2.6-0.3,4h-37.3v0.7
		c0.3,8.4,5.6,13.9,13.8,13.9c6.4,0,11-3.2,12.5-8.7h10.4c-1.7,9.8-10,17.2-22.3,17.2C773.4,743.5,763.6,733.5,763.6,718.3z
		 M778.8,674.8c3.6,0,6.1,2.5,6.1,5.9c0,3.4-2.5,5.9-6.1,5.9c-3.4,0-6-2.5-6-5.9C772.8,677.4,775.4,674.8,778.8,674.8z M801.3,712.8
		c-0.9-7.3-6-11.5-13.2-11.5c-6.7,0-12.4,4.4-13.1,11.5H801.3z M797.6,674.8c3.5,0,6,2.5,6,5.9c0,3.4-2.5,5.9-6,5.9
		c-3.4,0-6.1-2.5-6.1-5.9C791.5,677.4,794.2,674.8,797.6,674.8z"/>
	<path class="st1" d="M812.2,743l17.7-25.8l-16.4-23.7h11.3l13.6,19.8h6.6v-19.8h10.2v19.8h6.5l13.7-19.8h11.3l-16.4,23.7L888,743
		h-11.9L862,722.5h-6.8V743H845v-20.5h-6.8L824,743H812.2z"/>
	<path class="st1" d="M932.2,728.7c0,9.1-8.6,14.9-22.6,14.9c-14.9,0-21-6-21.4-16.5h10.5c0.9,5.5,3.8,8.5,11,8.5
		c7.3,0,11.9-2.7,11.9-7.2s-3.2-6.3-8.9-6.3H905v-8h7.1c5.4,0,8.5-2,8.5-6.6c0-4-3.8-6.4-10.3-6.4c-7.1,0-10.3,3-11.2,7.9h-10.5
		c0.6-9.6,8.4-16,22-16c13.2,0,20.7,5.5,20.7,13.9c0,6-3.8,9.6-9.3,10.6C928.4,718.5,932.2,722.1,932.2,728.7z"/>
	<path class="st1" d="M939.6,743v-49.5h10.1v34.3l26.7-34.3h9.2V743h-10.1v-34.4L948.6,743H939.6z"/>
	<path class="st1" d="M994.8,743v-49.5h10.1v34.3l26.7-34.3h9.2V743h-10.1v-34.4l-26.8,34.4H994.8z M1002.7,674.7h8
		c0,4.4,1.9,7.1,7,7.1c5.1,0,7.1-2.7,7.1-7.1h8c-0.2,8.9-5.8,13.6-15.3,13.6C1008.2,688.3,1002.9,683.5,1002.7,674.7z"/>
	<path class="st1" d="M1050.1,743v-49.5h10.4v19.8h9.3l14.2-19.8h11.7l-17.1,23.6l18.5,25.9h-12.4l-14.9-20.5h-9.4V743H1050.1z"/>
	<path class="st1" d="M1097.7,743v-9.2h1.7c5.1,0,7.1-3.2,7.1-16.5v-23.8h39.3V743h-10.4v-40.3h-19v15c0,19.6-5,25.3-15.4,25.3
		H1097.7z"/>
	<path class="st1" d="M1155.2,743v-49.5h12.6l17.2,37.4l16.8-37.4h12.3l0.1,49.5h-9.8v-34l-15.6,34h-8.1l-15.6-34v34H1155.2z"/>
	<path class="st1" d="M1258.5,693.5h10.4V743h-10.4v-20.5h-24.6V743h-10.4v-49.5h10.4v19.8h24.6V693.5z"/>
	<path class="st1" d="M459.6,795c0-15.1,10.1-25.3,25.2-25.3S510,780,510,795c0,15.2-10.1,25.3-25.2,25.3S459.6,810.2,459.6,795z
		 M499.4,795c0-9.6-5.8-16.4-14.6-16.4s-14.5,6.9-14.5,16.4s5.7,16.4,14.5,16.4S499.4,804.6,499.4,795z"/>
	<path class="st1" d="M517.5,819.8v-49.5H562v49.5h-10.4v-40.3h-23.7v40.3H517.5z"/>
	<path class="st1" d="M621.1,795c0,15.3-9.9,25.3-23.4,25.3c-7.6,0-12.9-3.1-16-7.5v26.3h-10.4v-68.8h9.1l1.3,7.3
		c3.3-4.3,8.4-7.9,16.1-7.9C611.3,769.7,621.1,779.2,621.1,795z M610.5,795c0-9.8-5.8-16.4-14.5-16.4s-14.4,6.7-14.4,16.2
		c0,9.9,5.7,16.7,14.4,16.7S610.5,804.7,610.5,795z"/>
	<path class="st1" d="M626.8,795.1c0-15.3,9.9-25.4,24.8-25.4c12.8,0,20.7,7.1,22.7,18.3h-10.9c-1.4-5.8-5.5-9.4-12-9.4
		c-8.4,0-13.9,6.8-13.9,16.5c0,9.7,5.5,16.3,13.9,16.3c6.4,0,10.6-3.7,11.9-9.4h11c-1.9,11.2-10.3,18.3-23,18.3
		C636.3,820.4,626.8,810.6,626.8,795.1z"/>
	<path class="st1" d="M692.6,819.8v-40.3h-16.8v-9.2h44.1v9.2h-16.8v40.3H692.6z"/>
	<path class="st1" d="M721.1,770.3h11.1l13.8,37.6l13.4-37.6h11.1l-22.4,57.2c-3.1,8-5.2,11.6-12.5,11.6h-11.2v-9.2h7.3
		c4.1,0,5-1,6.6-5l1.9-4.8L721.1,770.3z"/>
	<path class="st1" d="M799.1,839.1v-18.9c-17.1-0.6-27.9-10.1-27.9-25.1c0-14.8,10.9-24.4,27.9-25.1v-16.2h10.2v16.2
		c17.1,0.7,27.9,10.1,27.9,25.1c0,14.8-10.9,24.5-27.9,25.1v18.9H799.1z M799.2,778.7c-10.8,0.4-17.5,6.5-17.5,16.3
		c0,10,6.7,15.9,17.5,16.3V778.7z M809.2,811.4c10.9-0.4,17.4-6.4,17.4-16.3c0-9.9-6.5-15.9-17.4-16.3V811.4z"/>
	<path class="st1" d="M855.9,794.5l-17.5-24.2h12.2l11.8,16.7l12.1-16.7h11.5l-17.6,24.2l18.6,25.3h-12.2l-12.9-18l-13,18h-11.5
		L855.9,794.5z"/>
	<path class="st1" d="M934.8,810.6h8.3v22.2h-10.2v-13h-41.7v-49.5h10.4v40.3h22.8v-40.3h10.4V810.6z"/>
	<path class="st1" d="M976.2,770.3h10.5v49.5h-10.5v-18.6c-3.6,2-8.3,3.1-12.9,3.1c-12.3,0-19.6-5.2-19.6-18.6v-15.3h10.4v13.9
		c0,8.1,3.7,11,11.6,11c4.1,0,7.6-0.9,10.5-2.9V770.3z"/>
	<path class="st1" d="M995.9,819.8v-49.5h10.4v40.3h18.6v-40.3h10.4v40.3h18.6v-40.3h10.4v49.5H995.9z"/>
	<path class="st1" d="M1142.3,810.6h8.3v22.2h-10.2v-13h-66.7v-49.5h10.4v40.3h18.6v-40.3h10.4v40.3h18.6v-40.3h10.4V810.6z"/>
	<path class="st1" d="M494.2,862.5c12.5,0,19.8,6.4,19.8,17.1c0,10.6-7.3,17-19.8,17h-22.7v-40.3h-14.2v-9.2H482v15.4H494.2z
		 M492.5,888.3c7.1,0,10.9-3.2,10.9-8.7c0-5.8-3.9-8.8-10.9-8.8H482v17.5H492.5z"/>
	<path class="st1" d="M521,896.6v-49.5h10.4v15.4h11.5c12.5,0,19.8,6.4,19.8,17.1c0,10.6-7.3,17-19.8,17H521z M531.4,888.3h9.8
		c7.1,0,10.9-3.2,10.9-8.7c0-5.8-3.9-8.8-10.9-8.8h-9.8V888.3z M569.9,896.6v-49.5h10.4v49.5H569.9z"/>
	<path class="st1" d="M589.7,896.6v-49.5h10.4v15.4h12.3c12.5,0,19.7,6.4,19.7,17.1c0,10.6-7.2,17-19.7,17H589.7z M600.1,888.3h10.5
		c7.1,0,10.8-3.2,10.8-8.7c0-5.8-3.8-8.8-10.8-8.8h-10.5V888.3z"/>
	<path class="st1" d="M684.5,871.8c0,15.5-9.9,25.4-24.9,25.4c-12.9,0-20.9-7.1-22.8-18.3h10.7c1.3,6.1,5.6,9.6,12.3,9.6
		c7.4,0,12.7-4.9,13.9-12.8h-18.9v-8.1h18.8c-1.4-7.5-6.5-12.4-13.8-12.4c-6.3,0-10.8,3.7-12.2,9.4h-10.8
		c1.9-11.1,10.8-18.1,23.1-18.1C675,846.5,684.5,856.3,684.5,871.8z"/>
	<path class="st1" d="M762.3,871.8c0,15.3-9.9,25.4-25,25.4c-13.5,0-22.9-8.3-24.5-21.3h-10.3v20.7H692v-49.5h10.4v20.3h10.3
		c1.7-12.7,11.1-20.8,24.5-20.8C752.4,846.6,762.3,856.7,762.3,871.8z M751.7,871.8c0-10-5.6-16.7-14.4-16.7
		c-8.6,0-14.2,6.8-14.2,16.7c0,10,5.6,17,14.2,17C746.1,888.8,751.7,881.8,751.7,871.8z"/>
	<path class="st1" d="M810.5,847.1v49.5h-10.4v-16.2h-11.3l-10.9,16.2h-12l12.7-17.8c-7.2-1.8-11.2-7.2-11.2-15
		c0-10.3,7.3-16.7,20.5-16.7H810.5z M800.1,872v-16.5H788c-6.5,0-10,3-10,8.2c0,5.6,3.6,8.3,10,8.3H800.1z"/>
	<path class="st1" d="M460.1,1014.9c0-19.6,10.9-32.8,26.7-32.8c15.7,0,26.7,13.2,26.7,32.8v3.1c0,20.4-10.9,32.8-26.7,32.8
		c-15.7,0-26.7-12.5-26.7-32.8V1014.9z M502.6,1015.2c0-15.1-6.4-23.9-15.8-23.9c-9.5,0-15.8,8.8-15.8,23.9v2.3
		c0,15.2,6.4,23.9,15.8,23.9c9.5,0,15.8-8.7,15.8-23.9V1015.2z"/>
	<path class="st1" d="M532.3,982.6h10.5v67.6h-10.7v-46.4c-1,0.6-2.4,0.9-4.3,0.9h-11v-9.2h10.5c3.5,0,4.9-2.5,4.9-6.1V982.6z"/>
	<path class="st1" d="M550.2,1041.6l26-22.1c6.1-5.1,10.6-9.9,10.6-16.3c0-7.7-5.1-12-12.8-12c-7.7,0-12.9,5.2-12.9,13.6v1.2h-10.7
		v-1.7c0-12.8,9.3-22.2,23.7-22.2c15.2,0,23.7,8.3,23.7,20.7c0,10-6.1,16.3-14.3,23.2l-18,15h32.7v9.4h-47.9V1041.6z"/>
	<path class="st1" d="M652.3,1031.3c0,11.6-9.8,19.5-25,19.5s-25-8-25-21.9h10.5c0.2,8.3,6.5,13,15.1,13c7.6,0,13.5-4.3,13.5-11.3
		c0-6.3-4.9-10.3-14.3-10.3h-6.2v-8.9h5.6c8.9,0,13.3-4.4,13.3-10.6s-5.5-9.9-12.6-9.9c-7.6,0-13.1,4.6-13.3,11.7h-10.4
		c0.1-12.2,9.9-20.6,23.8-20.6c14.6,0,23.5,7.2,23.5,18.1c0,8.3-4.8,13.2-11.3,15C646.1,1016.4,652.3,1021.1,652.3,1031.3z"/>
	<path class="st1" d="M656.1,1025.5l32.5-42.9h12.6v42.7h10.2v9.3h-10.2v15.6h-10.5v-15.6h-34.5V1025.5z M667.1,1025.3h23.5v-31
		L667.1,1025.3z"/>
	<path class="st1" d="M764.6,1027.5c0,15.2-11.3,23.2-24.5,23.2c-15.4,0-24.4-9.8-25.1-21.8h10.6c0.8,7.1,5.9,12.8,14.6,12.8
		c7,0,13.6-4.8,13.6-14.2c0-8.2-5.3-14.1-13.6-14.1c-4.1,0-10.9,1.4-13.6,8.3l-10.3-0.2l2.1-38.9h42.2v9.4h-32.5l-1.2,18.4
		c3.8-4.1,8.9-5.7,15.1-5.7C755.4,1004.6,764.6,1013.9,764.6,1027.5z"/>
	<path class="st1" d="M770.1,1016.9c0-21.9,10.1-34.9,26.7-34.9c12.5,0,21.5,7.2,23.2,19.1h-10.6c-1.4-6.3-6-10.2-13.2-10.2
		c-10.4,0-16.2,9.1-16.2,23.1c0,0.8,0,1.4,0.1,2.6c0.2-0.4,0.3-1,0.7-1.6c3.1-5.9,9.5-9.8,17.6-9.8c13.4,0,22.8,9.1,22.8,22.8
		c0,13.3-9.9,22.8-24.2,22.8c-9.4,0-16.4-4.1-21-10.9C772.2,1034,770.1,1026,770.1,1016.9z M796.9,1014c-8.2,0-13.9,5.7-13.9,14.1
		c0,8.2,5.5,13.9,13.7,13.9s13.6-5.8,13.6-14S805.2,1014,796.9,1014z"/>
	<path class="st1" d="M822.6,982.6h48.5v7.1l-31.7,60.5h-11.5l31.5-58.3h-36.8V982.6z"/>
	<path class="st1" d="M923.8,1031.8c0,11.2-9.5,19-25.4,19s-25.3-7.8-25.3-19c0-9.4,6.2-15,13.4-16.6c-6.2-1.5-11.6-7-11.6-15.2
		c0-10.5,9.1-18,23.5-18c14.5,0,23.6,7.4,23.6,18c0,7.9-5.4,13.6-11.7,15.1C917.5,1016.6,923.8,1022.2,923.8,1031.8z M912.9,1031.2
		c0-6.6-5.9-11.3-14.5-11.3c-8.5,0-14.4,4.7-14.4,11.3c0,6.6,5.9,11.4,14.4,11.4C907,1042.6,912.9,1037.8,912.9,1031.2z
		 M885.8,1000.3c0,6,5,10,12.7,10c7.7,0,12.8-4.1,12.8-10c0-5.9-5-10-12.8-10C890.8,990.3,885.8,994.4,885.8,1000.3z"/>
	<path class="st1" d="M930.6,1031.7h10.5c1.4,6.2,6,10.2,13.2,10.2c10.6,0,16.3-9.3,16.3-23.1c0-0.8,0-1.4-0.1-2.7
		c-0.3,0.6-0.5,1.2-1,2c-3.1,5.7-9.3,9.3-17.2,9.3c-13.4,0-22.8-8.8-22.8-22.6c0-13.2,9.9-22.8,24.2-22.8c9.3,0,16.1,4,20.7,10.6
		c3.8,5.8,6,14,6,23.3c0,21.7-9.8,34.9-26.7,34.9C940.8,1050.8,932.1,1043.6,930.6,1031.7z M967.7,1004.6c0-8.2-5.5-13.8-13.7-13.8
		c-8.2,0-13.6,5.8-13.6,14c0,8.1,5.1,13.9,13.4,13.9C962,1018.7,967.7,1013,967.7,1004.6z"/>
	<path class="st1" d="M989.5,1050.2v-67.6h9.7l29,46.2v-46.2h10.9v67.6h-9.6l-29.1-46.2v46.2H989.5z M1045.4,1004.8
		c0-13.7,9-22.8,22.8-22.8c13.6,0,22.7,9.1,22.7,22.8s-9.1,22.9-22.7,22.9C1054.4,1027.7,1045.4,1018.5,1045.4,1004.8z
		 M1080.4,1004.8c0-8.5-4.7-14.1-12.2-14.1c-7.5,0-12.3,5.6-12.3,14.1c0,8.6,4.7,14.2,12.3,14.2
		C1075.7,1019,1080.4,1013.4,1080.4,1004.8z"/>
	<path class="st1" d="M1117.3,982c10,0,17.3,7,17.3,16.5s-7.3,16.4-17.3,16.4s-17.3-6.9-17.3-16.4S1107.4,982,1117.3,982z
		 M1117.3,989.9c-4.8,0-8.4,3.7-8.4,8.6s3.6,8.6,8.4,8.6c4.9,0,8.5-3.7,8.5-8.6S1122.2,989.9,1117.3,989.9z M1111.2,1050.2
		l46.2-67.6h10.3l-46.3,67.6H1111.2z M1161.5,1017.9c10,0,17.3,6.9,17.3,16.5c0,9.5-7.3,16.4-17.3,16.4s-17.3-7-17.3-16.4
		C1144.2,1024.7,1151.5,1017.9,1161.5,1017.9z M1161.5,1025.7c-4.8,0-8.5,3.8-8.5,8.7s3.7,8.5,8.5,8.5s8.5-3.6,8.5-8.5
		S1166.3,1025.7,1161.5,1025.7z"/>
	<path class="st1" d="M1185.1,1004.7c0-12.6,8.4-22.7,22.8-22.7c13.4,0,21.7,7.4,21.7,17.6c0,8.9-4.6,13.1-9.7,16.7
		c-5.2,3.6-8.5,6.1-8.5,10.9v1.9h-9.9v-3.1c0-7.8,4.5-11,10.3-14.8c4.3-2.9,6.9-6,6.9-10.6c0-5.5-4.3-9.4-10.8-9.4
		c-7.4,0-12.3,5.4-12.3,13.4H1185.1z M1206.9,1037.9c3.8,0,6.6,2.6,6.6,6.5s-2.8,6.5-6.6,6.5s-6.7-2.6-6.7-6.5
		S1203.1,1037.9,1206.9,1037.9z"/>
	<path class="st1" d="M1244.7,1037.7c3.9,0,6.7,2.7,6.7,6.6s-2.8,6.6-6.7,6.6c-3.9,0-6.8-2.7-6.8-6.6S1240.9,1037.7,1244.7,1037.7z
		 M1240.8,1029.6l-1.6-47h11.2l-1.6,47H1240.8z"/>
	<path class="st1" d="M1294.1,996.1l-11.5,4.3l7.9,9l-5.6,4.8l-7.7-10.1l-7.6,10l-5.5-4.8l7.9-9l-11.4-4.3l2.9-6.8l10.5,5l-0.3-11.8
		h7.1l-0.3,11.9l10.6-5.1L1294.1,996.1z"/>
</g>
</svg>
