<?xml version="1.0" encoding="utf-8"?>
<!-- Generator: Adobe Illustrator 22.0.0, SVG Export Plug-In . SVG Version: 6.00 Build 0)  -->
<svg version="1.1" id="Layer_1" xmlns="http://www.w3.org/2000/svg" xmlns:xlink="http://www.w3.org/1999/xlink" x="0px" y="0px"
	 viewBox="0 0 829 531.9" style="enable-background:new 0 0 829 531.9;" xml:space="preserve">
<style type="text/css">
	.st0{opacity:0.5;fill:none;stroke:#1B1B2D;stroke-miterlimit:10;}
	.st1{fill:#1B1B2D;}
	.st2{fill:#738CEA;}
	.st3{fill:#FFFFFF;}
	.st4{opacity:0.7;}
	.st5{fill:#D63318;}
	.st6{fill:#31772D;}
	.st7{fill:#FFFFFF;stroke:#1B1B2D;stroke-miterlimit:10;}
	.st8{fill:none;stroke:#1B1B2D;stroke-width:2;stroke-miterlimit:10;}
	.st9{fill:#FFFFFF;stroke:#1B1B2D;stroke-width:2;stroke-miterlimit:10;}
</style>
<line class="st0" x1="90" y1="10.6" x2="90" y2="446.9"/>
<line class="st0" x1="221.2" y1="10.6" x2="221.2" y2="446.9"/>
<line class="st0" x1="352.4" y1="10.6" x2="352.4" y2="446.9"/>
<line class="st0" x1="483.6" y1="10.6" x2="483.6" y2="446.9"/>
<line class="st0" x1="614.8" y1="10.6" x2="614.8" y2="446.9"/>
<line class="st0" x1="746" y1="10.6" x2="746" y2="446.9"/>
<g>
	<path class="st1" d="M230.3,26l3.3-2.8c0.8-0.7,1.4-1.3,1.4-2.2c0-1.1-0.7-1.7-1.8-1.7c-1.1,0-1.8,0.7-1.8,1.9v0.2h-1v-0.2
		c0-1.6,1.1-2.7,2.8-2.7c1.8,0,2.9,1,2.9,2.5c0,1.3-0.8,2.1-1.8,2.9l-2.5,2.1h4.4v0.9h-5.8V26z"/>
	<path class="st1" d="M236.9,22.5c0-2.4,1.3-4.1,3.2-4.1c1.9,0,3.2,1.7,3.2,4.1v0.4c0,2.5-1.3,4.1-3.2,4.1c-1.9,0-3.2-1.6-3.2-4.1
		V22.5z M242.3,22.5c0-2-0.9-3.2-2.2-3.2c-1.3,0-2.2,1.2-2.2,3.2v0.3c0,2,0.9,3.2,2.2,3.2c1.3,0,2.2-1.2,2.2-3.2V22.5z"/>
	<path class="st1" d="M244.1,26l3.3-2.8c0.8-0.7,1.4-1.3,1.4-2.2c0-1.1-0.7-1.7-1.8-1.7c-1.1,0-1.8,0.7-1.8,1.9v0.2h-1v-0.2
		c0-1.6,1.1-2.7,2.8-2.7c1.8,0,2.9,1,2.9,2.5c0,1.3-0.8,2.1-1.8,2.9l-2.5,2.1h4.4v0.9h-5.8V26z"/>
	<path class="st1" d="M250.8,22.5c0-2.4,1.3-4.1,3.2-4.1c1.9,0,3.2,1.7,3.2,4.1v0.4c0,2.5-1.3,4.1-3.2,4.1c-1.9,0-3.2-1.6-3.2-4.1
		V22.5z M256.1,22.5c0-2-0.9-3.2-2.2-3.2c-1.3,0-2.2,1.2-2.2,3.2v0.3c0,2,0.9,3.2,2.2,3.2c1.3,0,2.2-1.2,2.2-3.2V22.5z"/>
</g>
<g>
	<path class="st1" d="M99.3,26l3.3-2.8c0.8-0.7,1.4-1.3,1.4-2.2c0-1.1-0.7-1.7-1.8-1.7c-1.1,0-1.8,0.7-1.8,1.9v0.2h-1v-0.2
		c0-1.6,1.1-2.7,2.8-2.7c1.8,0,2.9,1,2.9,2.5c0,1.3-0.8,2.1-1.8,2.9l-2.5,2.1h4.4v0.9h-5.8V26z"/>
	<path class="st1" d="M105.9,22.5c0-2.4,1.3-4.1,3.2-4.1c1.9,0,3.2,1.7,3.2,4.1v0.4c0,2.5-1.3,4.1-3.2,4.1c-1.9,0-3.2-1.6-3.2-4.1
		V22.5z M111.3,22.5c0-2-0.9-3.2-2.2-3.2c-1.3,0-2.2,1.2-2.2,3.2v0.3c0,2,0.9,3.2,2.2,3.2c1.3,0,2.2-1.2,2.2-3.2V22.5z"/>
	<path class="st1" d="M114.8,18.5h1v8.4h-1v-6c-0.1,0.1-0.3,0.2-0.6,0.2h-1.4v-0.9h1.4c0.4,0,0.6-0.3,0.6-0.7V18.5z"/>
	<path class="st1" d="M117.3,24.6h1c0.2,0.9,0.8,1.4,1.8,1.4c1.5,0,2.3-1.3,2.3-3.2c0-0.1,0-0.2,0-0.4c0,0,0,0.1-0.1,0.2
		c-0.4,0.8-1.2,1.4-2.3,1.4c-1.7,0-2.8-1.1-2.8-2.8c0-1.6,1.2-2.8,2.9-2.8c1.2,0,2,0.5,2.5,1.4c0.4,0.7,0.7,1.7,0.7,2.8
		c0,2.6-1.2,4.3-3.2,4.3C118.5,27,117.5,26.1,117.3,24.6z M122,21.2c0-1.1-0.8-1.9-1.9-1.9c-1.2,0-1.9,0.8-1.9,1.9
		c0,1.1,0.7,1.9,1.9,1.9C121.2,23.2,122,22.4,122,21.2z"/>
</g>
<g>
	<path class="st1" d="M493.3,26l3.3-2.8c0.8-0.7,1.4-1.3,1.4-2.2c0-1.1-0.7-1.7-1.8-1.7c-1.1,0-1.8,0.7-1.8,1.9v0.2h-1v-0.2
		c0-1.6,1.1-2.7,2.8-2.7c1.8,0,2.9,1,2.9,2.5c0,1.3-0.8,2.1-1.8,2.9l-2.5,2.1h4.4v0.9h-5.8V26z"/>
	<path class="st1" d="M499.9,22.5c0-2.4,1.3-4.1,3.2-4.1c1.9,0,3.2,1.7,3.2,4.1v0.4c0,2.5-1.3,4.1-3.2,4.1c-1.9,0-3.2-1.6-3.2-4.1
		V22.5z M505.3,22.5c0-2-0.9-3.2-2.2-3.2c-1.3,0-2.2,1.2-2.2,3.2v0.3c0,2,0.9,3.2,2.2,3.2c1.3,0,2.2-1.2,2.2-3.2V22.5z"/>
	<path class="st1" d="M507.1,26l3.3-2.8c0.8-0.7,1.4-1.3,1.4-2.2c0-1.1-0.7-1.7-1.8-1.7c-1.1,0-1.8,0.7-1.8,1.9v0.2h-1v-0.2
		c0-1.6,1.1-2.7,2.8-2.7c1.8,0,2.9,1,2.9,2.5c0,1.3-0.8,2.1-1.8,2.9l-2.5,2.1h4.4v0.9h-5.8V26z"/>
	<path class="st1" d="M513.5,26l3.3-2.8c0.8-0.7,1.4-1.3,1.4-2.2c0-1.1-0.7-1.7-1.8-1.7c-1.1,0-1.8,0.7-1.8,1.9v0.2h-1v-0.2
		c0-1.6,1.1-2.7,2.8-2.7c1.8,0,2.9,1,2.9,2.5c0,1.3-0.8,2.1-1.8,2.9l-2.5,2.1h4.4v0.9h-5.8V26z"/>
</g>
<g>
	<path class="st1" d="M624.3,26l3.3-2.8c0.8-0.7,1.4-1.3,1.4-2.2c0-1.1-0.7-1.7-1.8-1.7c-1.1,0-1.8,0.7-1.8,1.9v0.2h-1v-0.2
		c0-1.6,1.1-2.7,2.8-2.7c1.8,0,2.9,1,2.9,2.5c0,1.3-0.8,2.1-1.8,2.9l-2.5,2.1h4.4v0.9h-5.8V26z"/>
	<path class="st1" d="M630.9,22.5c0-2.4,1.3-4.1,3.2-4.1c1.9,0,3.2,1.7,3.2,4.1v0.4c0,2.5-1.3,4.1-3.2,4.1c-1.9,0-3.2-1.6-3.2-4.1
		V22.5z M636.3,22.5c0-2-0.9-3.2-2.2-3.2c-1.3,0-2.2,1.2-2.2,3.2v0.3c0,2,0.9,3.2,2.2,3.2c1.3,0,2.2-1.2,2.2-3.2V22.5z"/>
	<path class="st1" d="M638.1,26l3.3-2.8c0.8-0.7,1.4-1.3,1.4-2.2c0-1.1-0.7-1.7-1.8-1.7c-1.1,0-1.8,0.7-1.8,1.9v0.2h-1v-0.2
		c0-1.6,1.1-2.7,2.8-2.7c1.8,0,2.9,1,2.9,2.5c0,1.3-0.8,2.1-1.8,2.9l-2.5,2.1h4.4v0.9h-5.8V26z"/>
	<path class="st1" d="M650.6,24.6c0,1.4-1.2,2.4-3,2.4c-1.8,0-3-1-3-2.7h1c0,1.1,0.9,1.8,2.1,1.8c1.1,0,1.9-0.6,1.9-1.6
		c0-0.9-0.7-1.4-2-1.4h-0.7v-0.9h0.7c1.2,0,1.9-0.6,1.9-1.5s-0.8-1.4-1.8-1.4c-1.1,0-1.8,0.6-1.8,1.6h-1c0-1.5,1.2-2.5,2.8-2.5
		c1.7,0,2.8,0.9,2.8,2.2c0,1.1-0.6,1.7-1.4,1.9C649.8,22.7,650.6,23.3,650.6,24.6z"/>
</g>
<g>
	<path class="st1" d="M361.3,26l3.3-2.8c0.8-0.7,1.4-1.3,1.4-2.2c0-1.1-0.7-1.7-1.8-1.7c-1.1,0-1.8,0.7-1.8,1.9v0.2h-1v-0.2
		c0-1.6,1.1-2.7,2.8-2.7c1.8,0,2.9,1,2.9,2.5c0,1.3-0.8,2.1-1.8,2.9l-2.5,2.1h4.4v0.9h-5.8V26z"/>
	<path class="st1" d="M367.9,22.5c0-2.4,1.3-4.1,3.2-4.1c1.9,0,3.2,1.7,3.2,4.1v0.4c0,2.5-1.3,4.1-3.2,4.1c-1.9,0-3.2-1.6-3.2-4.1
		V22.5z M373.3,22.5c0-2-0.9-3.2-2.2-3.2c-1.3,0-2.2,1.2-2.2,3.2v0.3c0,2,0.9,3.2,2.2,3.2c1.3,0,2.2-1.2,2.2-3.2V22.5z"/>
	<path class="st1" d="M375.1,26l3.3-2.8c0.8-0.7,1.4-1.3,1.4-2.2c0-1.1-0.7-1.7-1.8-1.7c-1.1,0-1.8,0.7-1.8,1.9v0.2h-1v-0.2
		c0-1.6,1.1-2.7,2.8-2.7c1.8,0,2.9,1,2.9,2.5c0,1.3-0.8,2.1-1.8,2.9l-2.5,2.1h4.4v0.9h-5.8V26z"/>
	<path class="st1" d="M383.2,18.5h1v8.4h-1v-6c-0.1,0.1-0.3,0.2-0.6,0.2h-1.4v-0.9h1.4c0.4,0,0.6-0.3,0.6-0.7V18.5z"/>
</g>
<polygon class="st2" points="696,112.9 202,112.9 202,54.9 696,54.9 718,83.9 "/>
<g>
	<path class="st3" d="M216.3,91.6h1v2.7h-1v-1.7h-6.4v1.7h-1v-2.7h0.8c0.6-0.5,0.9-1.3,0.9-3.7v-3.7h5.8V91.6z M215.3,91.6V85h-3.8
		V88c0,2-0.2,2.9-0.7,3.6H215.3z"/>
	<path class="st3" d="M217.9,92.6l3.2-8.4h1.2l3.2,8.4h-1.1l-0.9-2.3h-3.7l-0.9,2.3H217.9z M220.2,89.3h3l-1.5-4L220.2,89.3z"/>
	<path class="st3" d="M226.5,84.2h1v3.6h4.3v-3.6h1v8.4h-1v-3.8h-4.3v3.8h-1V84.2z"/>
	<path class="st3" d="M234.5,84.2h1v3.6h4.3v-3.6h1v8.4h-1v-3.8h-4.3v3.8h-1V84.2z"/>
	<path class="st3" d="M242.6,92.6v-8.4h1v3.2h2.1c1.7,0,2.8,1.1,2.8,2.6c0,1.5-1.1,2.6-2.8,2.6H242.6z M243.6,91.6h2
		c1.1,0,1.8-0.6,1.8-1.6c0-1-0.7-1.6-1.8-1.6h-2V91.6z M249.6,92.6v-8.4h1v8.4H249.6z"/>
	<path class="st3" d="M252.3,84.2h5.3v1h-4.3v2.7h3.6v1h-3.6v2.8h4.5v1h-5.5V84.2z"/>
	<path class="st3" d="M261.8,88.2c0-2.4,1.3-4.1,3.2-4.1c1.9,0,3.2,1.7,3.2,4.1v0.4c0,2.5-1.3,4.1-3.2,4.1c-1.9,0-3.2-1.6-3.2-4.1
		V88.2z M267.2,88.2c0-2-0.9-3.2-2.2-3.2c-1.3,0-2.2,1.2-2.2,3.2v0.3c0,2,0.9,3.2,2.2,3.2c1.3,0,2.2-1.2,2.2-3.2V88.2z"/>
	<path class="st3" d="M270.7,84.2h1v8.4h-1v-6c-0.1,0.1-0.3,0.2-0.6,0.2h-1.4v-0.9h1.4c0.4,0,0.6-0.3,0.6-0.7V84.2z"/>
</g>
<g class="st4">
	<path class="st3" d="M209.5,105.2v-8.4h6.4v8.4h-1v-7.4h-4.3v7.4H209.5z"/>
	<path class="st3" d="M217.1,102.2c0-1.9,1.2-3.1,3-3.1s3,1.3,3,3.1c0,1.9-1.2,3.1-3,3.1S217.1,104,217.1,102.2z M222.2,102.2
		c0-1.3-0.8-2.3-2-2.3c-1.2,0-2,0.9-2,2.3c0,1.3,0.8,2.3,2,2.3C221.4,104.4,222.2,103.5,222.2,102.2z"/>
	<path class="st3" d="M224.3,105.2v-6.1h1v2.6h1.3l1.9-2.6h1.1l-2.2,2.9l2.4,3.2h-1.2l-2-2.7h-1.3v2.7H224.3z"/>
	<path class="st3" d="M236.1,104.3v0.9h-0.5c-0.8,0-1.1-0.3-1.1-0.9c-0.4,0.6-1,1-2.1,1c-1.3,0-2.3-0.7-2.3-1.8
		c0-1.2,0.9-1.9,2.5-1.9h1.8v-0.4c0-0.8-0.6-1.3-1.5-1.3c-0.9,0-1.4,0.4-1.6,1h-1c0.1-1.2,1.1-1.9,2.6-1.9c1.6,0,2.5,0.8,2.5,2.2
		v2.7c0,0.3,0.1,0.4,0.4,0.4H236.1z M234.4,102.4h-1.9c-0.9,0-1.4,0.3-1.4,1c0,0.6,0.5,1,1.3,1c1.2,0,1.9-0.7,1.9-1.7V102.4z"/>
	<path class="st3" d="M241.7,103.5c0,1.1-1,1.8-2.7,1.8c-1.7,0-2.5-0.7-2.5-2h1c0.1,0.7,0.5,1.1,1.5,1.1c1,0,1.7-0.4,1.7-1
		c0-0.6-0.5-0.9-1.2-0.9h-1v-0.9h1c0.7,0,1.2-0.3,1.2-0.9c0-0.6-0.5-0.9-1.5-0.9c-1,0-1.4,0.4-1.6,1.1h-1c0.1-1.1,1-1.9,2.6-1.9
		c1.5,0,2.4,0.7,2.4,1.7c0,0.8-0.4,1.2-1.1,1.3C241.3,102.2,241.7,102.7,241.7,103.5z"/>
	<path class="st3" d="M248.6,104.3v0.9H248c-0.8,0-1.1-0.3-1.1-0.9c-0.4,0.6-1,1-2.1,1c-1.3,0-2.3-0.7-2.3-1.8
		c0-1.2,0.9-1.9,2.5-1.9h1.8v-0.4c0-0.8-0.6-1.3-1.5-1.3c-0.9,0-1.4,0.4-1.6,1h-1c0.1-1.2,1.1-1.9,2.6-1.9c1.6,0,2.5,0.8,2.5,2.2
		v2.7c0,0.3,0.1,0.4,0.4,0.4H248.6z M246.9,102.4H245c-0.9,0-1.4,0.3-1.4,1c0,0.6,0.5,1,1.3,1c1.2,0,1.9-0.7,1.9-1.7V102.4z"/>
	<path class="st3" d="M250.6,105.2V100h-2.2v-0.9h5.4v0.9h-2.2v5.2H250.6z"/>
	<path class="st3" d="M254.1,102.2c0-1.9,1.2-3.1,2.9-3.1c1.7,0,2.9,1.1,2.9,2.9c0,0.1,0,0.3,0,0.4h-4.7v0.1c0,1.2,0.8,2,1.9,2
		c0.9,0,1.5-0.5,1.7-1.2h1c-0.2,1.2-1.2,2.1-2.7,2.1C255.3,105.3,254.1,104,254.1,102.2z M258.8,101.5c-0.1-1.1-0.8-1.6-1.8-1.6
		c-0.9,0-1.7,0.6-1.8,1.6H258.8z"/>
	<path class="st3" d="M260.2,105.2v-0.9h0.2c0.7,0,1-0.4,1-2.3v-3h4.6v6.1h-1V100h-2.7v2.1c0,2.4-0.6,3.1-1.8,3.1H260.2z"/>
	<path class="st3" d="M267.3,105.2v-6.1h1v2h1.6c1.5,0,2.4,0.8,2.4,2.1c0,1.3-0.9,2.1-2.4,2.1H267.3z M268.3,104.4h1.5
		c1,0,1.6-0.4,1.6-1.2c0-0.8-0.6-1.2-1.6-1.2h-1.5V104.4z"/>
	<path class="st3" d="M276.7,96.8h3c1.8,0,2.8,0.9,2.8,2.2c0,1-0.5,1.5-1.3,1.8c0.9,0.2,1.7,0.7,1.7,2c0,1.5-1.1,2.4-3,2.4h-3.1
		V96.8z M277.7,97.8v2.7h2c1.1,0,1.7-0.5,1.7-1.4c0-0.8-0.6-1.3-1.7-1.3H277.7z M277.7,101.4v2.9h2c1.3,0,2-0.5,2-1.4
		c0-0.9-0.7-1.5-2-1.5H277.7z"/>
	<path class="st3" d="M284.1,96.8h5.3v1h-4.3v2.7h3.6v1h-3.6v2.8h4.5v1h-5.5V96.8z"/>
	<path class="st3" d="M290.5,100.8c0-2.4,1.3-4.1,3.2-4.1c1.9,0,3.2,1.7,3.2,4.1v0.4c0,2.5-1.3,4.1-3.2,4.1c-1.9,0-3.2-1.6-3.2-4.1
		V100.8z M295.8,100.9c0-2-0.9-3.2-2.2-3.2c-1.3,0-2.2,1.2-2.2,3.2v0.3c0,2,0.9,3.2,2.2,3.2c1.3,0,2.2-1.2,2.2-3.2V100.9z"/>
	<path class="st3" d="M297.6,104.4l3.3-2.8c0.8-0.7,1.4-1.3,1.4-2.2c0-1.1-0.7-1.7-1.8-1.7c-1.1,0-1.8,0.7-1.8,1.9v0.2h-1v-0.2
		c0-1.6,1.1-2.7,2.8-2.7c1.8,0,2.9,1,2.9,2.5c0,1.3-0.8,2.1-1.8,2.9l-2.5,2.1h4.4v0.9h-5.8V104.4z"/>
</g>
<polygon class="st5" points="424,181.1 103,181.1 103,123.1 424,123.1 446,152.1 "/>
<g>
	<path class="st3" d="M117.3,159.8h1v2.7h-1v-1.7h-6.4v1.7h-1v-2.7h0.8c0.6-0.5,0.9-1.3,0.9-3.7v-3.7h5.8V159.8z M116.3,159.8v-6.5
		h-3.8v2.9c0,2-0.2,2.9-0.7,3.6H116.3z"/>
	<path class="st3" d="M118.9,160.7l3.2-8.4h1.2l3.2,8.4h-1.1l-0.9-2.3h-3.7l-0.9,2.3H118.9z M121.2,157.5h3l-1.5-4L121.2,157.5z"/>
	<path class="st3" d="M127.5,152.3h1v3.6h4.3v-3.6h1v8.4h-1v-3.8h-4.3v3.8h-1V152.3z"/>
	<path class="st3" d="M135.5,152.3h1v3.6h4.3v-3.6h1v8.4h-1v-3.8h-4.3v3.8h-1V152.3z"/>
	<path class="st3" d="M143.6,160.7v-8.4h1v3.2h2.1c1.7,0,2.8,1.1,2.8,2.6c0,1.5-1.1,2.6-2.8,2.6H143.6z M144.6,159.8h2
		c1.1,0,1.8-0.6,1.8-1.6c0-1-0.7-1.6-1.8-1.6h-2V159.8z M150.6,160.7v-8.4h1v8.4H150.6z"/>
	<path class="st3" d="M153.3,152.3h5.3v1h-4.3v2.7h3.6v1h-3.6v2.8h4.5v1h-5.5V152.3z"/>
	<path class="st3" d="M162.8,156.3c0-2.4,1.3-4.1,3.2-4.1c1.9,0,3.2,1.7,3.2,4.1v0.4c0,2.5-1.3,4.1-3.2,4.1c-1.9,0-3.2-1.6-3.2-4.1
		V156.3z M168.2,156.4c0-2-0.9-3.2-2.2-3.2c-1.3,0-2.2,1.2-2.2,3.2v0.3c0,2,0.9,3.2,2.2,3.2c1.3,0,2.2-1.2,2.2-3.2V156.4z"/>
	<path class="st3" d="M170,159.9l3.3-2.8c0.8-0.7,1.4-1.3,1.4-2.2c0-1.1-0.7-1.7-1.8-1.7c-1.1,0-1.8,0.7-1.8,1.9v0.2h-1V155
		c0-1.6,1.1-2.7,2.8-2.7c1.8,0,2.9,1,2.9,2.5c0,1.3-0.8,2.1-1.8,2.9l-2.5,2.1h4.4v0.9H170V159.9z"/>
</g>
<g class="st4">
	<path class="st3" d="M110.5,173.4V165h6.4v8.4h-1V166h-4.3v7.4H110.5z"/>
	<path class="st3" d="M118.1,170.3c0-1.9,1.2-3.1,3-3.1s3,1.3,3,3.1s-1.2,3.1-3,3.1S118.1,172.2,118.1,170.3z M123.2,170.3
		c0-1.3-0.8-2.3-2-2.3c-1.2,0-2,0.9-2,2.3c0,1.3,0.8,2.3,2,2.3C122.4,172.6,123.2,171.6,123.2,170.3z"/>
	<path class="st3" d="M125.3,173.4v-6.1h1v2.6h1.3l1.9-2.6h1.1l-2.2,2.9l2.4,3.2h-1.2l-2-2.7h-1.3v2.7H125.3z"/>
	<path class="st3" d="M137.1,172.5v0.9h-0.5c-0.8,0-1.1-0.3-1.1-0.9c-0.4,0.6-1,1-2.1,1c-1.3,0-2.3-0.7-2.3-1.8
		c0-1.2,0.9-1.9,2.5-1.9h1.8v-0.4c0-0.8-0.6-1.3-1.5-1.3c-0.9,0-1.4,0.4-1.6,1h-1c0.1-1.2,1.1-1.9,2.6-1.9c1.6,0,2.5,0.8,2.5,2.2
		v2.7c0,0.3,0.1,0.4,0.4,0.4H137.1z M135.4,170.6h-1.9c-0.9,0-1.4,0.3-1.4,1c0,0.6,0.5,1,1.3,1c1.2,0,1.9-0.7,1.9-1.7V170.6z"/>
	<path class="st3" d="M142.7,171.6c0,1.1-1,1.8-2.7,1.8c-1.7,0-2.5-0.7-2.5-2h1c0.1,0.7,0.5,1.1,1.5,1.1c1,0,1.7-0.4,1.7-1
		c0-0.6-0.5-0.9-1.2-0.9h-1v-0.9h1c0.7,0,1.2-0.3,1.2-0.9c0-0.6-0.5-0.9-1.5-0.9c-1,0-1.4,0.4-1.6,1.1h-1c0.1-1.1,1-1.9,2.6-1.9
		c1.5,0,2.4,0.7,2.4,1.7c0,0.8-0.4,1.2-1.1,1.3C142.3,170.4,142.7,170.8,142.7,171.6z"/>
	<path class="st3" d="M149.6,172.5v0.9H149c-0.8,0-1.1-0.3-1.1-0.9c-0.4,0.6-1,1-2.1,1c-1.3,0-2.3-0.7-2.3-1.8
		c0-1.2,0.9-1.9,2.5-1.9h1.8v-0.4c0-0.8-0.6-1.3-1.5-1.3c-0.9,0-1.4,0.4-1.6,1h-1c0.1-1.2,1.1-1.9,2.6-1.9c1.6,0,2.5,0.8,2.5,2.2
		v2.7c0,0.3,0.1,0.4,0.4,0.4H149.6z M147.9,170.6H146c-0.9,0-1.4,0.3-1.4,1c0,0.6,0.5,1,1.3,1c1.2,0,1.9-0.7,1.9-1.7V170.6z"/>
	<path class="st3" d="M151.6,173.4v-5.2h-2.2v-0.9h5.4v0.9h-2.2v5.2H151.6z"/>
	<path class="st3" d="M155.1,170.3c0-1.9,1.2-3.1,2.9-3.1c1.7,0,2.9,1.1,2.9,2.9c0,0.1,0,0.3,0,0.4h-4.7v0.1c0,1.2,0.8,2,1.9,2
		c0.9,0,1.5-0.5,1.7-1.2h1c-0.2,1.2-1.2,2.1-2.7,2.1C156.3,173.5,155.1,172.2,155.1,170.3z M159.8,169.7c-0.1-1.1-0.8-1.6-1.8-1.6
		c-0.9,0-1.7,0.6-1.8,1.6H159.8z"/>
	<path class="st3" d="M161.2,173.4v-0.9h0.2c0.7,0,1-0.4,1-2.3v-3h4.6v6.1h-1v-5.2h-2.7v2.1c0,2.4-0.6,3.1-1.8,3.1H161.2z"/>
	<path class="st3" d="M168.3,173.4v-6.1h1v2h1.6c1.5,0,2.4,0.8,2.4,2.1c0,1.3-0.9,2.1-2.4,2.1H168.3z M169.3,172.6h1.5
		c1,0,1.6-0.4,1.6-1.2c0-0.8-0.6-1.2-1.6-1.2h-1.5V172.6z"/>
	<path class="st3" d="M177.7,165h3.2c1.7,0,2.8,1,2.8,2.6c0,1.2-0.7,2.1-1.8,2.4l1.9,3.4h-1.2l-1.8-3.2h-2.1v3.2h-1V165z M178.7,166
		v3.3h2.1c1.1,0,1.8-0.6,1.8-1.6c0-1-0.7-1.6-1.8-1.6H178.7z"/>
	<path class="st3" d="M185,165h5.3v1h-4.3v2.7h3.6v1h-3.6v2.8h4.5v1H185V165z"/>
	<path class="st3" d="M191.4,169c0-2.4,1.3-4.1,3.2-4.1c1.9,0,3.2,1.7,3.2,4.1v0.4c0,2.5-1.3,4.1-3.2,4.1c-1.9,0-3.2-1.6-3.2-4.1
		V169z M196.7,169c0-2-0.9-3.2-2.2-3.2c-1.3,0-2.2,1.2-2.2,3.2v0.3c0,2,0.9,3.2,2.2,3.2c1.3,0,2.2-1.2,2.2-3.2V169z"/>
	<path class="st3" d="M198.5,172.5l3.3-2.8c0.8-0.7,1.4-1.3,1.4-2.2c0-1.1-0.7-1.7-1.8-1.7c-1.1,0-1.8,0.7-1.8,1.9v0.2h-1v-0.2
		c0-1.6,1.1-2.7,2.8-2.7c1.8,0,2.9,1,2.9,2.5c0,1.3-0.8,2.1-1.8,2.9l-2.5,2.1h4.4v0.9h-5.8V172.5z"/>
</g>
<polygon class="st6" points="504,247.1 333,247.1 333,189.1 504,189.1 526,218.1 "/>
<g>
	<path class="st3" d="M347.3,225.8h1v2.7h-1v-1.7h-6.4v1.7h-1v-2.7h0.8c0.6-0.5,0.9-1.3,0.9-3.7v-3.7h5.8V225.8z M346.3,225.8v-6.5
		h-3.8v2.9c0,2-0.2,2.9-0.7,3.6H346.3z"/>
	<path class="st3" d="M348.9,226.7l3.2-8.4h1.2l3.2,8.4h-1.1l-0.9-2.3h-3.7l-0.9,2.3H348.9z M351.2,223.5h3l-1.5-4L351.2,223.5z"/>
	<path class="st3" d="M357.5,218.3h1v3.6h4.3v-3.6h1v8.4h-1v-3.8h-4.3v3.8h-1V218.3z"/>
	<path class="st3" d="M365.5,218.3h1v3.6h4.3v-3.6h1v8.4h-1v-3.8h-4.3v3.8h-1V218.3z"/>
	<path class="st3" d="M373.6,226.7v-8.4h1v3.2h2.1c1.7,0,2.8,1.1,2.8,2.6c0,1.5-1.1,2.6-2.8,2.6H373.6z M374.6,225.8h2
		c1.1,0,1.8-0.6,1.8-1.6c0-1-0.7-1.6-1.8-1.6h-2V225.8z M380.6,226.7v-8.4h1v8.4H380.6z"/>
	<path class="st3" d="M383.3,218.3h5.3v1h-4.3v2.7h3.6v1h-3.6v2.8h4.5v1h-5.5V218.3z"/>
	<path class="st3" d="M392.8,222.3c0-2.4,1.3-4.1,3.2-4.1c1.9,0,3.2,1.7,3.2,4.1v0.4c0,2.5-1.3,4.1-3.2,4.1c-1.9,0-3.2-1.6-3.2-4.1
		V222.3z M398.2,222.4c0-2-0.9-3.2-2.2-3.2c-1.3,0-2.2,1.2-2.2,3.2v0.3c0,2,0.9,3.2,2.2,3.2c1.3,0,2.2-1.2,2.2-3.2V222.4z"/>
	<path class="st3" d="M406,224.4c0,1.4-1.2,2.4-3,2.4c-1.8,0-3-1-3-2.7h1c0,1.1,0.9,1.8,2.1,1.8c1.1,0,1.9-0.6,1.9-1.6
		c0-0.9-0.7-1.4-2-1.4h-0.7V222h0.7c1.2,0,1.9-0.6,1.9-1.5s-0.8-1.4-1.8-1.4c-1.1,0-1.8,0.6-1.8,1.6h-1c0-1.5,1.2-2.5,2.8-2.5
		c1.7,0,2.8,0.9,2.8,2.2c0,1.1-0.6,1.7-1.4,1.9C405.2,222.5,406,223.1,406,224.4z"/>
</g>
<g class="st4">
	<path class="st3" d="M340.5,239.4V231h6.4v8.4h-1V232h-4.3v7.4H340.5z"/>
	<path class="st3" d="M348.1,236.3c0-1.9,1.2-3.1,3-3.1s3,1.3,3,3.1s-1.2,3.1-3,3.1S348.1,238.2,348.1,236.3z M353.2,236.3
		c0-1.3-0.8-2.3-2-2.3c-1.2,0-2,0.9-2,2.3c0,1.3,0.8,2.3,2,2.3C352.4,238.6,353.2,237.6,353.2,236.3z"/>
	<path class="st3" d="M355.3,239.4v-6.1h1v2.6h1.3l1.9-2.6h1.1l-2.2,2.9l2.4,3.2h-1.2l-2-2.7h-1.3v2.7H355.3z"/>
	<path class="st3" d="M367.1,238.5v0.9h-0.5c-0.8,0-1.1-0.3-1.1-0.9c-0.4,0.6-1,1-2.1,1c-1.3,0-2.3-0.7-2.3-1.8
		c0-1.2,0.9-1.9,2.5-1.9h1.8v-0.4c0-0.8-0.6-1.3-1.5-1.3c-0.9,0-1.4,0.4-1.6,1h-1c0.1-1.2,1.1-1.9,2.6-1.9c1.6,0,2.5,0.8,2.5,2.2
		v2.7c0,0.3,0.1,0.4,0.4,0.4H367.1z M365.4,236.6h-1.9c-0.9,0-1.4,0.3-1.4,1c0,0.6,0.5,1,1.3,1c1.2,0,1.9-0.7,1.9-1.7V236.6z"/>
	<path class="st3" d="M372.7,237.6c0,1.1-1,1.8-2.7,1.8c-1.7,0-2.5-0.7-2.5-2h1c0.1,0.7,0.5,1.1,1.5,1.1c1,0,1.7-0.4,1.7-1
		c0-0.6-0.5-0.9-1.2-0.9h-1v-0.9h1c0.7,0,1.2-0.3,1.2-0.9c0-0.6-0.5-0.9-1.5-0.9c-1,0-1.4,0.4-1.6,1.1h-1c0.1-1.1,1-1.9,2.6-1.9
		c1.5,0,2.4,0.7,2.4,1.7c0,0.8-0.4,1.2-1.1,1.3C372.3,236.4,372.7,236.8,372.7,237.6z"/>
	<path class="st3" d="M379.6,238.5v0.9H379c-0.8,0-1.1-0.3-1.1-0.9c-0.4,0.6-1,1-2.1,1c-1.3,0-2.3-0.7-2.3-1.8
		c0-1.2,0.9-1.9,2.5-1.9h1.8v-0.4c0-0.8-0.6-1.3-1.5-1.3c-0.9,0-1.4,0.4-1.6,1h-1c0.1-1.2,1.1-1.9,2.6-1.9c1.6,0,2.5,0.8,2.5,2.2
		v2.7c0,0.3,0.1,0.4,0.4,0.4H379.6z M377.9,236.6H376c-0.9,0-1.4,0.3-1.4,1c0,0.6,0.5,1,1.3,1c1.2,0,1.9-0.7,1.9-1.7V236.6z"/>
	<path class="st3" d="M381.6,239.4v-5.2h-2.2v-0.9h5.4v0.9h-2.2v5.2H381.6z"/>
	<path class="st3" d="M385.1,236.3c0-1.9,1.2-3.1,2.9-3.1c1.7,0,2.9,1.1,2.9,2.9c0,0.1,0,0.3,0,0.4h-4.7v0.1c0,1.2,0.8,2,1.9,2
		c0.9,0,1.5-0.5,1.7-1.2h1c-0.2,1.2-1.2,2.1-2.7,2.1C386.3,239.5,385.1,238.2,385.1,236.3z M389.8,235.7c-0.1-1.1-0.8-1.6-1.8-1.6
		c-0.9,0-1.7,0.6-1.8,1.6H389.8z"/>
	<path class="st3" d="M391.2,239.4v-0.9h0.2c0.7,0,1-0.4,1-2.3v-3h4.6v6.1h-1v-5.2h-2.7v2.1c0,2.4-0.6,3.1-1.8,3.1H391.2z"/>
	<path class="st3" d="M398.3,239.4v-6.1h1v2h1.6c1.5,0,2.4,0.8,2.4,2.1c0,1.3-0.9,2.1-2.4,2.1H398.3z M399.3,238.6h1.5
		c1,0,1.6-0.4,1.6-1.2c0-0.8-0.6-1.2-1.6-1.2h-1.5V238.6z"/>
	<path class="st3" d="M407.4,235.2c0-2.5,1.6-4.3,4-4.3c1.9,0,3.3,1.1,3.6,2.8h-1.1c-0.3-1.2-1.2-1.8-2.5-1.8
		c-1.8,0-2.9,1.4-2.9,3.3c0,1.9,1.2,3.3,2.9,3.3c1.5,0,2.7-0.9,2.7-2.4v-0.3h-2.5v-1h3.5v4.5h-0.9l-0.1-1.2
		c-0.4,0.6-1.3,1.3-2.7,1.3C409,239.5,407.4,237.7,407.4,235.2z"/>
	<path class="st3" d="M416.6,231h5.3v1h-4.3v2.7h3.6v1h-3.6v2.8h4.5v1h-5.5V231z"/>
	<path class="st3" d="M423,235c0-2.4,1.3-4.1,3.2-4.1c1.9,0,3.2,1.7,3.2,4.1v0.4c0,2.5-1.3,4.1-3.2,4.1c-1.9,0-3.2-1.6-3.2-4.1V235z
		 M428.4,235c0-2-0.9-3.2-2.2-3.2c-1.3,0-2.2,1.2-2.2,3.2v0.3c0,2,0.9,3.2,2.2,3.2c1.3,0,2.2-1.2,2.2-3.2V235z"/>
	<path class="st3" d="M430.2,238.5l3.3-2.8c0.8-0.7,1.4-1.3,1.4-2.2c0-1.1-0.7-1.7-1.8-1.7c-1.1,0-1.8,0.7-1.8,1.9v0.2h-1v-0.2
		c0-1.6,1.1-2.7,2.8-2.7c1.8,0,2.9,1,2.9,2.5c0,1.3-0.8,2.1-1.8,2.9l-2.5,2.1h4.4v0.9h-5.8V238.5z"/>
</g>
<polygon class="st7" points="304.5,311.4 133.5,311.4 133.5,253.4 304.5,253.4 326.5,282.4 "/>
<g>
	<g>
		<path class="st1" d="M147.8,290.1h1v2.7h-1v-1.7h-6.4v1.7h-1v-2.7h0.8c0.6-0.5,0.9-1.3,0.9-3.7v-3.7h5.8V290.1z M146.8,290.1v-6.5
			H143v2.9c0,2-0.2,2.9-0.7,3.6H146.8z"/>
		<path class="st1" d="M149.4,291.1l3.2-8.4h1.2l3.2,8.4h-1.1l-0.9-2.3h-3.7l-0.9,2.3H149.4z M151.7,287.8h3l-1.5-4L151.7,287.8z"/>
		<path class="st1" d="M158,282.7h1v3.6h4.3v-3.6h1v8.4h-1v-3.8H159v3.8h-1V282.7z"/>
		<path class="st1" d="M166,282.7h1v3.6h4.3v-3.6h1v8.4h-1v-3.8h-4.3v3.8h-1V282.7z"/>
		<path class="st1" d="M174.1,291.1v-8.4h1v3.2h2.1c1.7,0,2.8,1.1,2.8,2.6c0,1.5-1.1,2.6-2.8,2.6H174.1z M175.1,290.1h2
			c1.1,0,1.8-0.6,1.8-1.6s-0.7-1.6-1.8-1.6h-2V290.1z M181.1,291.1v-8.4h1v8.4H181.1z"/>
		<path class="st1" d="M183.8,282.7h5.3v1h-4.3v2.7h3.6v1h-3.6v2.8h4.5v1h-5.5V282.7z"/>
		<path class="st1" d="M193.3,286.7c0-2.4,1.3-4.1,3.2-4.1c1.9,0,3.2,1.7,3.2,4.1v0.4c0,2.5-1.3,4.1-3.2,4.1c-1.9,0-3.2-1.6-3.2-4.1
			V286.7z M198.7,286.7c0-2-0.9-3.2-2.2-3.2c-1.3,0-2.2,1.2-2.2,3.2v0.3c0,2,0.9,3.2,2.2,3.2c1.3,0,2.2-1.2,2.2-3.2V286.7z"/>
		<path class="st1" d="M200.3,288.1l4.3-5.4h1.1v5.4h1.4v0.9h-1.4v2.1h-1V289h-4.4V288.1z M201.5,288.1h3.3v-4.2L201.5,288.1z"/>
	</g>
</g>
<g>
	<g>
		<path class="st1" d="M141,303.7v-8.4h6.4v8.4h-1v-7.4H142v7.4H141z"/>
		<path class="st1" d="M148.6,300.7c0-1.9,1.2-3.1,3-3.1s3,1.3,3,3.1c0,1.9-1.2,3.1-3,3.1S148.6,302.5,148.6,300.7z M153.7,300.7
			c0-1.3-0.8-2.3-2-2.3c-1.2,0-2,0.9-2,2.3c0,1.3,0.8,2.3,2,2.3C152.9,302.9,153.7,302,153.7,300.7z"/>
		<path class="st1" d="M155.8,303.7v-6.1h1v2.6h1.3l1.9-2.6h1.1l-2.2,2.9l2.4,3.2h-1.2l-2-2.7h-1.3v2.7H155.8z"/>
		<path class="st1" d="M167.6,302.8v0.9H167c-0.8,0-1.1-0.3-1.1-0.9c-0.4,0.6-1,1-2.1,1c-1.3,0-2.3-0.7-2.3-1.8
			c0-1.2,0.9-1.9,2.5-1.9h1.8v-0.4c0-0.8-0.6-1.3-1.5-1.3c-0.9,0-1.4,0.4-1.6,1h-1c0.1-1.2,1.1-1.9,2.6-1.9c1.6,0,2.5,0.8,2.5,2.2
			v2.7c0,0.3,0.1,0.4,0.4,0.4H167.6z M165.9,300.9H164c-0.9,0-1.4,0.3-1.4,1c0,0.6,0.5,1,1.3,1c1.2,0,1.9-0.7,1.9-1.7V300.9z"/>
		<path class="st1" d="M173.2,302c0,1.1-1,1.8-2.7,1.8c-1.7,0-2.5-0.7-2.5-2h1c0.1,0.7,0.5,1.1,1.5,1.1c1,0,1.7-0.4,1.7-1
			c0-0.6-0.5-0.9-1.2-0.9h-1v-0.9h1c0.7,0,1.2-0.3,1.2-0.9c0-0.6-0.5-0.9-1.5-0.9c-1,0-1.4,0.4-1.6,1.1h-1c0.1-1.1,1-1.9,2.6-1.9
			c1.5,0,2.4,0.7,2.4,1.7c0,0.8-0.4,1.2-1.1,1.3C172.8,300.7,173.2,301.2,173.2,302z"/>
		<path class="st1" d="M180.1,302.8v0.9h-0.5c-0.8,0-1.1-0.3-1.1-0.9c-0.4,0.6-1,1-2.1,1c-1.3,0-2.3-0.7-2.3-1.8
			c0-1.2,0.9-1.9,2.5-1.9h1.8v-0.4c0-0.8-0.6-1.3-1.5-1.3c-0.9,0-1.4,0.4-1.6,1h-1c0.1-1.2,1.1-1.9,2.6-1.9c1.6,0,2.5,0.8,2.5,2.2
			v2.7c0,0.3,0.1,0.4,0.4,0.4H180.1z M178.4,300.9h-1.9c-0.9,0-1.4,0.3-1.4,1c0,0.6,0.5,1,1.3,1c1.2,0,1.9-0.7,1.9-1.7V300.9z"/>
		<path class="st1" d="M182.1,303.7v-5.2h-2.2v-0.9h5.4v0.9h-2.2v5.2H182.1z"/>
		<path class="st1" d="M185.6,300.7c0-1.9,1.2-3.1,2.9-3.1c1.7,0,2.9,1.1,2.9,2.9c0,0.1,0,0.3,0,0.4h-4.7v0.1c0,1.2,0.8,2,1.9,2
			c0.9,0,1.5-0.5,1.7-1.2h1c-0.2,1.2-1.2,2.1-2.7,2.1C186.8,303.8,185.6,302.5,185.6,300.7z M190.3,300c-0.1-1.1-0.8-1.6-1.8-1.6
			c-0.9,0-1.7,0.6-1.8,1.6H190.3z"/>
		<path class="st1" d="M191.7,303.7v-0.9h0.2c0.7,0,1-0.4,1-2.3v-3h4.6v6.1h-1v-5.2h-2.7v2.1c0,2.4-0.6,3.1-1.8,3.1H191.7z"/>
		<path class="st1" d="M198.8,303.7v-6.1h1v2h1.6c1.5,0,2.4,0.8,2.4,2.1c0,1.3-0.9,2.1-2.4,2.1H198.8z M199.8,302.9h1.5
			c1,0,1.6-0.4,1.6-1.2c0-0.8-0.6-1.2-1.6-1.2h-1.5V302.9z"/>
		<path class="st1" d="M208.2,303.7v-8.4h2.7c2.6,0,4.2,1.7,4.2,4.2c0,2.5-1.6,4.2-4.2,4.2H208.2z M209.2,302.8h1.6
			c2,0,3.2-1.3,3.2-3.2c0-2-1.1-3.2-3.2-3.2h-1.6V302.8z"/>
		<path class="st1" d="M216.4,295.3h3c1.8,0,2.8,0.9,2.8,2.2c0,1-0.5,1.5-1.3,1.8c0.9,0.2,1.7,0.7,1.7,2c0,1.5-1.1,2.4-3,2.4h-3.1
			V295.3z M217.5,296.3v2.7h2c1.1,0,1.7-0.5,1.7-1.4c0-0.8-0.6-1.3-1.7-1.3H217.5z M217.5,299.9v2.9h2c1.3,0,2-0.5,2-1.4
			c0-0.9-0.7-1.5-2-1.5H217.5z"/>
		<path class="st1" d="M223.5,299.3c0-2.4,1.3-4.1,3.2-4.1c1.9,0,3.2,1.7,3.2,4.1v0.4c0,2.5-1.3,4.1-3.2,4.1c-1.9,0-3.2-1.6-3.2-4.1
			V299.3z M228.9,299.4c0-2-0.9-3.2-2.2-3.2c-1.3,0-2.2,1.2-2.2,3.2v0.3c0,2,0.9,3.2,2.2,3.2c1.3,0,2.2-1.2,2.2-3.2V299.4z"/>
		<path class="st1" d="M232.4,295.3h1v8.4h-1v-6c-0.1,0.1-0.3,0.2-0.6,0.2h-1.4V297h1.4c0.4,0,0.6-0.3,0.6-0.7V295.3z"/>
	</g>
</g>
<polygon class="st1" points="742.5,313.1 437.5,313.1 437.5,255.1 742.5,255.1 764.5,284.1 "/>
<g>
	<g>
		<path class="st3" d="M451.8,291.8h1v2.7h-1v-1.7h-6.4v1.7h-1v-2.7h0.8c0.6-0.5,0.9-1.3,0.9-3.7v-3.7h5.8V291.8z M450.8,291.8v-6.5
			H447v2.9c0,2-0.2,2.9-0.7,3.6H450.8z"/>
		<path class="st3" d="M453.4,292.7l3.2-8.4h1.2l3.2,8.4h-1.1l-0.9-2.3h-3.7l-0.9,2.3H453.4z M455.7,289.5h3l-1.5-4L455.7,289.5z"/>
		<path class="st3" d="M462,284.3h1v3.6h4.3v-3.6h1v8.4h-1v-3.8H463v3.8h-1V284.3z"/>
		<path class="st3" d="M470,284.3h1v3.6h4.3v-3.6h1v8.4h-1v-3.8h-4.3v3.8h-1V284.3z"/>
		<path class="st3" d="M478.1,292.7v-8.4h1v3.2h2.1c1.7,0,2.8,1.1,2.8,2.6c0,1.5-1.1,2.6-2.8,2.6H478.1z M479.1,291.8h2
			c1.1,0,1.8-0.6,1.8-1.6c0-1-0.7-1.6-1.8-1.6h-2V291.8z M485.1,292.7v-8.4h1v8.4H485.1z"/>
		<path class="st3" d="M487.8,284.3h5.3v1h-4.3v2.7h3.6v1h-3.6v2.8h4.5v1h-5.5V284.3z"/>
		<path class="st3" d="M497.3,288.3c0-2.4,1.3-4.1,3.2-4.1c1.9,0,3.2,1.7,3.2,4.1v0.4c0,2.5-1.3,4.1-3.2,4.1c-1.9,0-3.2-1.6-3.2-4.1
			V288.3z M502.7,288.4c0-2-0.9-3.2-2.2-3.2c-1.3,0-2.2,1.2-2.2,3.2v0.3c0,2,0.9,3.2,2.2,3.2c1.3,0,2.2-1.2,2.2-3.2V288.4z"/>
		<path class="st3" d="M510.6,289.9c0,1.9-1.4,2.9-2.9,2.9c-1.9,0-3-1.2-3-2.7h1c0.1,1,0.8,1.8,2,1.8c1,0,1.9-0.7,1.9-2
			c0-1.1-0.7-1.9-1.9-1.9c-0.5,0-1.5,0.1-1.9,1.1l-1,0l0.3-4.8h5v0.9H506l-0.2,2.7c0.5-0.6,1.2-0.8,2-0.8
			C509.5,287.1,510.6,288.2,510.6,289.9z"/>
	</g>
</g>
<g>
	<g>
		<path class="st3" d="M445,305.4V297h6.4v8.4h-1V298H446v7.4H445z"/>
		<path class="st3" d="M452.6,302.3c0-1.9,1.2-3.1,3-3.1s3,1.3,3,3.1s-1.2,3.1-3,3.1S452.6,304.2,452.6,302.3z M457.7,302.3
			c0-1.3-0.8-2.3-2-2.3c-1.2,0-2,0.9-2,2.3c0,1.3,0.8,2.3,2,2.3C456.9,304.6,457.7,303.6,457.7,302.3z"/>
		<path class="st3" d="M459.8,305.4v-6.1h1v2.6h1.3l1.9-2.6h1.1l-2.2,2.9l2.4,3.2h-1.2l-2-2.7h-1.3v2.7H459.8z"/>
		<path class="st3" d="M471.6,304.5v0.9H471c-0.8,0-1.1-0.3-1.1-0.9c-0.4,0.6-1,1-2.1,1c-1.3,0-2.3-0.7-2.3-1.8
			c0-1.2,0.9-1.9,2.5-1.9h1.8v-0.4c0-0.8-0.6-1.3-1.5-1.3c-0.9,0-1.4,0.4-1.6,1h-1c0.1-1.2,1.1-1.9,2.6-1.9c1.6,0,2.5,0.8,2.5,2.2
			v2.7c0,0.3,0.1,0.4,0.4,0.4H471.6z M469.9,302.6H468c-0.9,0-1.4,0.3-1.4,1c0,0.6,0.5,1,1.3,1c1.2,0,1.9-0.7,1.9-1.7V302.6z"/>
		<path class="st3" d="M477.2,303.6c0,1.1-1,1.8-2.7,1.8c-1.7,0-2.5-0.7-2.5-2h1c0.1,0.7,0.5,1.1,1.5,1.1c1,0,1.7-0.4,1.7-1
			c0-0.6-0.5-0.9-1.2-0.9h-1v-0.9h1c0.7,0,1.2-0.3,1.2-0.9c0-0.6-0.5-0.9-1.5-0.9c-1,0-1.4,0.4-1.6,1.1h-1c0.1-1.1,1-1.9,2.6-1.9
			c1.5,0,2.4,0.7,2.4,1.7c0,0.8-0.4,1.2-1.1,1.3C476.8,302.4,477.2,302.8,477.2,303.6z"/>
		<path class="st3" d="M484.1,304.5v0.9h-0.5c-0.8,0-1.1-0.3-1.1-0.9c-0.4,0.6-1,1-2.1,1c-1.3,0-2.3-0.7-2.3-1.8
			c0-1.2,0.9-1.9,2.5-1.9h1.8v-0.4c0-0.8-0.6-1.3-1.5-1.3c-0.9,0-1.4,0.4-1.6,1h-1c0.1-1.2,1.1-1.9,2.6-1.9c1.6,0,2.5,0.8,2.5,2.2
			v2.7c0,0.3,0.1,0.4,0.4,0.4H484.1z M482.4,302.6h-1.9c-0.9,0-1.4,0.3-1.4,1c0,0.6,0.5,1,1.3,1c1.2,0,1.9-0.7,1.9-1.7V302.6z"/>
		<path class="st3" d="M486.1,305.4v-5.2h-2.2v-0.9h5.4v0.9h-2.2v5.2H486.1z"/>
		<path class="st3" d="M489.6,302.3c0-1.9,1.2-3.1,2.9-3.1c1.7,0,2.9,1.1,2.9,2.9c0,0.1,0,0.3,0,0.4h-4.8v0.1c0,1.2,0.8,2,1.9,2
			c0.9,0,1.5-0.5,1.7-1.2h1c-0.2,1.2-1.2,2.1-2.7,2.1C490.8,305.5,489.6,304.2,489.6,302.3z M494.3,301.7c-0.1-1.1-0.8-1.6-1.8-1.6
			c-0.9,0-1.7,0.6-1.8,1.6H494.3z"/>
		<path class="st3" d="M495.7,305.4v-0.9h0.2c0.7,0,1-0.4,1-2.3v-3h4.6v6.1h-1v-5.2h-2.7v2.1c0,2.4-0.6,3.1-1.8,3.1H495.7z"/>
		<path class="st3" d="M502.8,305.4v-6.1h1v2h1.6c1.5,0,2.4,0.8,2.4,2.1c0,1.3-0.9,2.1-2.4,2.1H502.8z M503.8,304.6h1.5
			c1,0,1.6-0.4,1.6-1.2c0-0.8-0.6-1.2-1.6-1.2h-1.5V304.6z"/>
		<path class="st3" d="M512.2,305.4V297h2.7c2.6,0,4.2,1.7,4.2,4.2c0,2.5-1.6,4.2-4.2,4.2H512.2z M513.2,304.4h1.6
			c2,0,3.2-1.3,3.2-3.2c0-2-1.1-3.2-3.2-3.2h-1.6V304.4z"/>
		<path class="st3" d="M520.4,297h3c1.8,0,2.8,0.9,2.8,2.2c0,1-0.5,1.5-1.3,1.8c0.9,0.2,1.7,0.7,1.7,2c0,1.5-1.1,2.4-3,2.4h-3.1V297
			z M521.5,297.9v2.7h2c1.1,0,1.7-0.5,1.7-1.4c0-0.8-0.6-1.3-1.7-1.3H521.5z M521.5,301.6v2.9h2c1.3,0,2-0.5,2-1.4
			c0-0.9-0.7-1.5-2-1.5H521.5z"/>
		<path class="st3" d="M527.5,301c0-2.4,1.3-4.1,3.2-4.1c1.9,0,3.2,1.7,3.2,4.1v0.4c0,2.5-1.3,4.1-3.2,4.1c-1.9,0-3.2-1.6-3.2-4.1
			V301z M532.9,301c0-2-0.9-3.2-2.2-3.2c-1.3,0-2.2,1.2-2.2,3.2v0.3c0,2,0.9,3.2,2.2,3.2c1.3,0,2.2-1.2,2.2-3.2V301z"/>
		<path class="st3" d="M536.4,297h1v8.4h-1v-6c-0.1,0.1-0.3,0.2-0.6,0.2h-1.4v-0.9h1.4c0.4,0,0.6-0.3,0.6-0.7V297z"/>
	</g>
</g>
<circle class="st7" cx="365.5" cy="282.4" r="29.5"/>
<g>
	<g>
		<path class="st1" d="M346.1,282.5c0-6.4,2.9-10.4,7.7-10.4c3.7,0,6.2,2.2,6.7,5.6h-2.4c-0.5-2.1-1.9-3.5-4.4-3.5
			c-3.5,0-5.5,3.2-5.5,7.8c0,0.3,0,0.5,0,1c0-0.1,0.1-0.3,0.2-0.6c0.9-2,2.9-3.3,5.7-3.3c4,0,6.8,2.6,6.8,6.8c0,3.9-2.9,6.8-7,6.8
			c-2.8,0-4.9-1.3-6.1-3.4C346.7,287.6,346.1,285.1,346.1,282.5z M353.9,281.2c-2.8,0-4.7,1.9-4.7,4.7c0,2.7,1.9,4.6,4.6,4.6
			c2.8,0,4.6-1.9,4.6-4.7C358.5,283.2,356.7,281.2,353.9,281.2z"/>
		<path class="st1" d="M368.7,272c2.9,0,5.1,2.1,5.1,4.9c0,2.8-2.2,4.9-5.1,4.9s-5.1-2.1-5.1-4.9C363.6,274.1,365.8,272,368.7,272z
			 M368.7,274c-1.7,0-3,1.3-3,3c0,1.7,1.2,3,3,3s3-1.2,3-3C371.7,275.2,370.4,274,368.7,274z M367,292.5l13.8-20.3h2.3l-13.8,20.3
			H367z M381.5,282.9c2.9,0,5.1,2.1,5.1,4.9c0,2.8-2.2,4.9-5.1,4.9s-5.1-2.1-5.1-4.9C376.4,285,378.5,282.9,381.5,282.9z
			 M381.5,284.8c-1.7,0-3,1.3-3,3c0,1.7,1.2,3,3,3s3-1.2,3-3C384.4,286.1,383.2,284.8,381.5,284.8z"/>
	</g>
</g>
<circle class="st1" cx="141.8" cy="381.8" r="37.8"/>
<g>
	<g>
		<path class="st3" d="M122.5,371.4h0.9v3h3.6v-3h0.9v7H127v-3.2h-3.6v3.2h-0.9V371.4z"/>
		<path class="st3" d="M128.7,378.4l2.7-7h1l2.7,7h-0.9l-0.7-1.9h-3l-0.7,1.9H128.7z M130.6,375.7h2.5l-1.3-3.4L130.6,375.7z"/>
		<path class="st3" d="M139.1,371.4h0.9v7h-0.9v-3c-0.5,0.3-1.1,0.5-1.9,0.5c-1.4,0-2.4-0.7-2.4-2.2v-2.3h0.9v2.1
			c0,1.1,0.6,1.5,1.6,1.5c0.7,0,1.3-0.2,1.8-0.5V371.4z"/>
		<path class="st3" d="M140.8,378.4l2.7-7h1l2.7,7h-0.9l-0.7-1.9h-3l-0.7,1.9H140.8z M142.7,375.7h2.5l-1.3-3.4L142.7,375.7z"/>
		<path class="st3" d="M147.5,378.4v-0.8h0.2c0.8,0,1.1-0.5,1.1-2.8v-3.4h4.9v7h-0.9v-6.2h-3.1v2.7c0,2.7-0.6,3.5-1.8,3.5H147.5z"/>
		<path class="st3" d="M158.1,378.4c-2,0-3.3-1.5-3.3-3.6s1.4-3.6,3.3-3.6c2,0,3.3,1.5,3.3,3.6S160,378.4,158.1,378.4z M158.1,377.6
			c1.5,0,2.4-1.1,2.4-2.8s-1-2.8-2.4-2.8c-1.5,0-2.4,1.1-2.4,2.8S156.6,377.6,158.1,377.6z"/>
		<path class="st3" d="M120.8,390.4v-7h5.3v7h-0.9v-6.2h-3.6v6.2H120.8z"/>
		<path class="st3" d="M127.5,383.4h2.7c1.4,0,2.3,0.8,2.3,2.1c0,1.3-0.9,2.2-2.3,2.2h-1.8v2.7h-0.9V383.4z M128.3,384.2v2.7h1.7
			c0.9,0,1.5-0.5,1.5-1.4c0-0.8-0.6-1.3-1.5-1.3H128.3z"/>
		<path class="st3" d="M136.5,390.4c-2,0-3.3-1.5-3.3-3.6s1.4-3.6,3.3-3.6c2,0,3.3,1.5,3.3,3.6S138.5,390.4,136.5,390.4z
			 M136.5,389.6c1.5,0,2.4-1.1,2.4-2.8s-1-2.8-2.4-2.8c-1.5,0-2.4,1.1-2.4,2.8S135,389.6,136.5,389.6z"/>
		<path class="st3" d="M140.9,383.4h4.5v0.8h-3.6v2.2h3v0.8h-3v2.4h3.7v0.8h-4.6V383.4z"/>
		<path class="st3" d="M146.5,390.4v-7h0.9v3h1.3l2.3-3h1l-2.6,3.4l2.7,3.6h-1.1l-2.4-3.2h-1.3v3.2H146.5z"/>
		<path class="st3" d="M152.3,383.4h5.4v0.8h-2.3v6.2h-0.9v-6.2h-2.3V383.4z"/>
		<path class="st3" d="M157.1,390.4l2.7-7h1l2.7,7h-0.9l-0.7-1.9h-3l-0.7,1.9H157.1z M159,387.7h2.5l-1.3-3.4L159,387.7z"/>
	</g>
</g>
<circle class="st1" cx="777.2" cy="381.8" r="37.8"/>
<g>
	<g>
		<path class="st3" d="M751.1,378.4c-2,0-3.3-1.5-3.3-3.6s1.4-3.6,3.3-3.6s3.3,1.5,3.3,3.6S753,378.4,751.1,378.4z M751.1,377.6
			c1.5,0,2.4-1.1,2.4-2.8s-1-2.8-2.4-2.8s-2.4,1.1-2.4,2.8S749.6,377.6,751.1,377.6z"/>
		<path class="st3" d="M755.5,378.4v-7h0.9v3h1.3l2.3-3h1l-2.6,3.4l2.7,3.6h-1.1l-2.4-3.2h-1.3v3.2H755.5z"/>
		<path class="st3" d="M764.6,378.4c-2,0-3.3-1.5-3.3-3.6s1.4-3.6,3.3-3.6c2,0,3.3,1.5,3.3,3.6S766.6,378.4,764.6,378.4z
			 M764.6,377.6c1.5,0,2.4-1.1,2.4-2.8s-1-2.8-2.4-2.8c-1.5,0-2.4,1.1-2.4,2.8S763.2,377.6,764.6,377.6z"/>
		<path class="st3" d="M769.1,371.4h0.9v3h3.6v-3h0.9v7h-0.9v-3.2h-3.6v3.2h-0.9V371.4z"/>
		<path class="st3" d="M779.8,371.4h0.9v7h-0.9v-3c-0.5,0.3-1.1,0.5-1.9,0.5c-1.4,0-2.4-0.7-2.4-2.2v-2.3h0.9v2.1
			c0,1.1,0.6,1.5,1.6,1.5c0.7,0,1.3-0.2,1.8-0.5V371.4z"/>
		<path class="st3" d="M781.5,378.4l2.7-7h1l2.7,7h-0.9l-0.7-1.9h-3l-0.7,1.9H781.5z M783.4,375.7h2.5l-1.3-3.4L783.4,375.7z"/>
		<path class="st3" d="M788.6,371.4h0.9v3h3.6v-3h0.9v7h-0.9v-3.2h-3.6v3.2h-0.9V371.4z"/>
		<path class="st3" d="M795.3,378.4v-7h0.9v5.5l3.7-5.5h0.8v7h-0.9v-5.5l-3.7,5.5H795.3z"/>
		<path class="st3" d="M802.1,371.4h4.5v0.8H803v2.2h3v0.8h-3v2.4h3.7v0.8h-4.6V371.4z"/>
		<path class="st3" d="M756.1,390.4v-7h5.3v7h-0.9v-6.2H757v6.2H756.1z"/>
		<path class="st3" d="M762.8,383.4h2.7c1.4,0,2.3,0.8,2.3,2.1c0,1.3-0.9,2.2-2.3,2.2h-1.8v2.7h-0.9V383.4z M763.7,384.2v2.7h1.7
			c0.9,0,1.5-0.5,1.5-1.4c0-0.8-0.6-1.3-1.5-1.3H763.7z"/>
		<path class="st3" d="M771.8,390.4c-2,0-3.3-1.5-3.3-3.6s1.4-3.6,3.3-3.6c2,0,3.3,1.5,3.3,3.6S773.8,390.4,771.8,390.4z
			 M771.8,389.6c1.5,0,2.4-1.1,2.4-2.8s-1-2.8-2.4-2.8c-1.5,0-2.4,1.1-2.4,2.8S770.4,389.6,771.8,389.6z"/>
		<path class="st3" d="M776.3,383.4h4.5v0.8h-3.6v2.2h3v0.8h-3v2.4h3.7v0.8h-4.6V383.4z"/>
		<path class="st3" d="M781.8,390.4v-7h0.9v3h1.3l2.3-3h1l-2.6,3.4l2.7,3.6h-1.1l-2.4-3.2h-1.3v3.2H781.8z"/>
		<path class="st3" d="M787.6,383.4h5.4v0.8h-2.3v6.2h-0.9v-6.2h-2.3V383.4z"/>
		<path class="st3" d="M792.4,390.4l2.7-7h1l2.7,7h-0.9l-0.7-1.9h-3l-0.7,1.9H792.4z M794.3,387.7h2.5l-1.3-3.4L794.3,387.7z"/>
	</g>
</g>
<g>
	<g>
		<path class="st1" d="M416.2,275.7l6.8,6.7l-6.7,6.7l-0.8-0.8l5.4-5.3h-13.1v-1.1h13.1l-5.4-5.4L416.2,275.7z"/>
	</g>
</g>
<line class="st8" x1="179.7" y1="381.8" x2="739.3" y2="381.8"/>
<circle class="st9" cx="248" cy="381.8" r="9.7"/>
<circle class="st9" cx="646" cy="381.8" r="9.7"/>
<circle class="st9" cx="389" cy="381.8" r="9.7"/>
<circle class="st9" cx="501.8" cy="381.8" r="9.7"/>
<g>
	<g>
		<path class="st1" d="M253.7,414.3c0-1.9,1.2-3.2,3-3.2c1.4,0,2.4,0.8,2.6,2.1h-0.8c-0.2-0.9-0.9-1.4-1.8-1.4c-1.3,0-2.1,1-2.1,2.5
			c0,1.4,0.8,2.5,2.1,2.5c1,0,1.6-0.5,1.9-1.4h0.8c-0.2,1.3-1.3,2.1-2.7,2.1C254.8,417.5,253.7,416.2,253.7,414.3z"/>
		<path class="st1" d="M259.5,411.2h4.8v0.7h-2v5.5h-0.8v-5.5h-2V411.2z"/>
		<path class="st1" d="M263.7,417.4l2.4-6.2h0.9l2.4,6.2h-0.8l-0.7-1.7h-2.7l-0.7,1.7H263.7z M265.4,415h2.3l-1.1-3L265.4,415z"/>
		<path class="st1" d="M275.3,416.7h0.8v2h-0.8v-1.3h-4.8v1.3h-0.8v-2h0.6c0.4-0.4,0.7-1,0.7-2.8v-2.7h4.3V416.7z M274.5,416.7v-4.9
			h-2.8v2.2c0,1.5-0.2,2.2-0.5,2.7H274.5z"/>
		<path class="st1" d="M276.8,417.4v-6.2h0.8v4.9l3.3-4.9h0.7v6.2h-0.8v-4.9l-3.3,4.9H276.8z"/>
		<path class="st1" d="M287.2,411.2v6.2h-0.8V415H285l-1.5,2.4h-0.9l1.5-2.5c-1-0.2-1.5-0.9-1.5-1.8c0-1.1,0.8-1.9,2.1-1.9H287.2z
			 M286.5,414.3v-2.4h-1.6c-0.8,0-1.4,0.5-1.4,1.2s0.5,1.2,1.4,1.2H286.5z"/>
		<path class="st1" d="M253.9,428.1v-6.2h4.7v6.2h-0.8v-5.5h-3.2v5.5H253.9z"/>
		<path class="st1" d="M259.9,421.9h2.4c1.2,0,2.1,0.7,2.1,1.9s-0.8,1.9-2.1,1.9h-1.6v2.4h-0.8V421.9z M260.6,422.6v2.4h1.5
			c0.8,0,1.3-0.5,1.3-1.2s-0.5-1.2-1.3-1.2H260.6z"/>
		<path class="st1" d="M267.9,428.1c-1.8,0-3-1.3-3-3.2c0-1.8,1.2-3.2,3-3.2s3,1.3,3,3.2C270.9,426.8,269.6,428.1,267.9,428.1z
			 M267.9,427.4c1.3,0,2.2-1,2.2-2.5c0-1.4-0.9-2.5-2.2-2.5s-2.2,1-2.2,2.5C265.7,426.4,266.6,427.4,267.9,427.4z"/>
		<path class="st1" d="M271.8,421.9h4v0.7h-3.2v2h2.7v0.7h-2.7v2.1h3.3v0.7h-4.1V421.9z"/>
		<path class="st1" d="M276.8,428.1v-6.2h0.8v2.7h1.1l2-2.7h0.9l-2.3,3l2.4,3.2h-0.9l-2.1-2.8h-1.1v2.8H276.8z"/>
		<path class="st1" d="M282,421.9h4.8v0.7h-2v5.5H284v-5.5h-2V421.9z"/>
		<path class="st1" d="M286.2,428.1l2.4-6.2h0.9l2.4,6.2H291l-0.7-1.7h-2.7l-0.7,1.7H286.2z M287.9,425.7h2.3l-1.1-3L287.9,425.7z"
			/>
	</g>
</g>
<line class="st8" x1="248" y1="391.4" x2="248" y2="429.2"/>
<g>
	<g>
		<path class="st1" d="M394.7,414.3c0-1.9,1.2-3.2,3-3.2c1.4,0,2.4,0.8,2.6,2.1h-0.8c-0.2-0.9-0.9-1.4-1.8-1.4c-1.3,0-2.1,1-2.1,2.5
			c0,1.4,0.8,2.5,2.1,2.5c1,0,1.6-0.5,1.9-1.4h0.8c-0.2,1.3-1.3,2.1-2.7,2.1C395.8,417.5,394.7,416.2,394.7,414.3z"/>
		<path class="st1" d="M400.5,411.2h4.8v0.7h-2v5.5h-0.8v-5.5h-2V411.2z"/>
		<path class="st1" d="M404.7,417.4l2.4-6.2h0.9l2.4,6.2h-0.8l-0.7-1.7h-2.7l-0.7,1.7H404.7z M406.4,415h2.3l-1.1-3L406.4,415z"/>
		<path class="st1" d="M416.3,416.7h0.8v2h-0.8v-1.3h-4.8v1.3h-0.8v-2h0.6c0.4-0.4,0.7-1,0.7-2.8v-2.7h4.3V416.7z M415.5,416.7v-4.9
			h-2.8v2.2c0,1.5-0.2,2.2-0.5,2.7H415.5z"/>
		<path class="st1" d="M417.8,417.4v-6.2h0.8v4.9l3.3-4.9h0.7v6.2h-0.8v-4.9l-3.3,4.9H417.8z"/>
		<path class="st1" d="M428.2,411.2v6.2h-0.8V415H426l-1.5,2.4h-0.9l1.5-2.5c-1-0.2-1.5-0.9-1.5-1.8c0-1.1,0.8-1.9,2.1-1.9H428.2z
			 M427.5,414.3v-2.4h-1.6c-0.8,0-1.4,0.5-1.4,1.2s0.5,1.2,1.4,1.2H427.5z"/>
		<path class="st1" d="M394.9,428.1v-6.2h4.7v6.2h-0.8v-5.5h-3.2v5.5H394.9z"/>
		<path class="st1" d="M400.9,421.9h2.4c1.2,0,2.1,0.7,2.1,1.9s-0.8,1.9-2.1,1.9h-1.6v2.4h-0.8V421.9z M401.6,422.6v2.4h1.5
			c0.8,0,1.3-0.5,1.3-1.2s-0.5-1.2-1.3-1.2H401.6z"/>
		<path class="st1" d="M408.9,428.1c-1.8,0-3-1.3-3-3.2c0-1.8,1.2-3.2,3-3.2s3,1.3,3,3.2C411.9,426.8,410.6,428.1,408.9,428.1z
			 M408.9,427.4c1.3,0,2.2-1,2.2-2.5c0-1.4-0.9-2.5-2.2-2.5s-2.2,1-2.2,2.5C406.7,426.4,407.6,427.4,408.9,427.4z"/>
		<path class="st1" d="M412.8,421.9h4v0.7h-3.2v2h2.7v0.7h-2.7v2.1h3.3v0.7h-4.1V421.9z"/>
		<path class="st1" d="M417.8,428.1v-6.2h0.8v2.7h1.1l2-2.7h0.9l-2.3,3l2.4,3.2h-0.9l-2.1-2.8h-1.1v2.8H417.8z"/>
		<path class="st1" d="M423,421.9h4.8v0.7h-2v5.5H425v-5.5h-2V421.9z"/>
		<path class="st1" d="M427.2,428.1l2.4-6.2h0.9l2.4,6.2H432l-0.7-1.7h-2.7l-0.7,1.7H427.2z M428.9,425.7h2.3l-1.1-3L428.9,425.7z"
			/>
	</g>
</g>
<line class="st8" x1="389" y1="391.4" x2="389" y2="429.2"/>
<g>
	<g>
		<path class="st1" d="M507.5,414.3c0-1.9,1.2-3.2,3-3.2c1.4,0,2.4,0.8,2.6,2.1h-0.8c-0.2-0.9-0.9-1.4-1.8-1.4c-1.3,0-2.1,1-2.1,2.5
			c0,1.4,0.8,2.5,2.1,2.5c1,0,1.6-0.5,1.9-1.4h0.8c-0.2,1.3-1.3,2.1-2.7,2.1C508.7,417.5,507.5,416.2,507.5,414.3z"/>
		<path class="st1" d="M513.3,411.2h4.8v0.7h-2v5.5h-0.8v-5.5h-2V411.2z"/>
		<path class="st1" d="M517.5,417.4l2.4-6.2h0.9l2.4,6.2h-0.8l-0.7-1.7H519l-0.7,1.7H517.5z M519.2,415h2.3l-1.1-3L519.2,415z"/>
		<path class="st1" d="M529.1,416.7h0.8v2h-0.8v-1.3h-4.8v1.3h-0.8v-2h0.6c0.4-0.4,0.7-1,0.7-2.8v-2.7h4.3V416.7z M528.3,416.7v-4.9
			h-2.8v2.2c0,1.5-0.2,2.2-0.5,2.7H528.3z"/>
		<path class="st1" d="M530.7,417.4v-6.2h0.8v4.9l3.3-4.9h0.7v6.2h-0.8v-4.9l-3.3,4.9H530.7z"/>
		<path class="st1" d="M541.1,411.2v6.2h-0.8V415h-1.5l-1.5,2.4h-0.9l1.5-2.5c-1-0.2-1.5-0.9-1.5-1.8c0-1.1,0.8-1.9,2.1-1.9H541.1z
			 M540.3,414.3v-2.4h-1.6c-0.8,0-1.4,0.5-1.4,1.2s0.5,1.2,1.4,1.2H540.3z"/>
		<path class="st1" d="M507.8,428.1v-6.2h4.7v6.2h-0.8v-5.5h-3.2v5.5H507.8z"/>
		<path class="st1" d="M513.7,421.9h2.4c1.2,0,2.1,0.7,2.1,1.9s-0.8,1.9-2.1,1.9h-1.6v2.4h-0.8V421.9z M514.5,422.6v2.4h1.5
			c0.8,0,1.3-0.5,1.3-1.2s-0.5-1.2-1.3-1.2H514.5z"/>
		<path class="st1" d="M521.7,428.1c-1.8,0-3-1.3-3-3.2c0-1.8,1.2-3.2,3-3.2c1.8,0,3,1.3,3,3.2C524.7,426.8,523.5,428.1,521.7,428.1
			z M521.7,427.4c1.3,0,2.2-1,2.2-2.5c0-1.4-0.9-2.5-2.2-2.5s-2.2,1-2.2,2.5C519.5,426.4,520.4,427.4,521.7,427.4z"/>
		<path class="st1" d="M525.7,421.9h4v0.7h-3.2v2h2.7v0.7h-2.7v2.1h3.3v0.7h-4.1V421.9z"/>
		<path class="st1" d="M530.6,428.1v-6.2h0.8v2.7h1.1l2-2.7h0.9l-2.3,3l2.4,3.2h-0.9l-2.1-2.8h-1.1v2.8H530.6z"/>
		<path class="st1" d="M535.8,421.9h4.8v0.7h-2v5.5h-0.8v-5.5h-2V421.9z"/>
		<path class="st1" d="M540,428.1l2.4-6.2h0.9l2.4,6.2h-0.8l-0.7-1.7h-2.7l-0.7,1.7H540z M541.7,425.7h2.3l-1.1-3L541.7,425.7z"/>
	</g>
</g>
<line class="st8" x1="501.8" y1="391.4" x2="501.8" y2="429.2"/>
<g>
	<g>
		<path class="st1" d="M651.7,414.3c0-1.9,1.2-3.2,3-3.2c1.4,0,2.4,0.8,2.6,2.1h-0.8c-0.2-0.9-0.9-1.4-1.8-1.4c-1.3,0-2.1,1-2.1,2.5
			c0,1.4,0.8,2.5,2.1,2.5c1,0,1.6-0.5,1.9-1.4h0.8c-0.2,1.3-1.3,2.1-2.7,2.1C652.8,417.5,651.7,416.2,651.7,414.3z"/>
		<path class="st1" d="M657.5,411.2h4.8v0.7h-2v5.5h-0.8v-5.5h-2V411.2z"/>
		<path class="st1" d="M661.7,417.4l2.4-6.2h0.9l2.4,6.2h-0.8l-0.7-1.7h-2.7l-0.7,1.7H661.7z M663.4,415h2.3l-1.1-3L663.4,415z"/>
		<path class="st1" d="M673.3,416.7h0.8v2h-0.8v-1.3h-4.8v1.3h-0.8v-2h0.6c0.4-0.4,0.7-1,0.7-2.8v-2.7h4.3V416.7z M672.5,416.7v-4.9
			h-2.8v2.2c0,1.5-0.2,2.2-0.5,2.7H672.5z"/>
		<path class="st1" d="M674.8,417.4v-6.2h0.8v4.9l3.3-4.9h0.7v6.2h-0.8v-4.9l-3.3,4.9H674.8z"/>
		<path class="st1" d="M685.2,411.2v6.2h-0.8V415H683l-1.5,2.4h-0.9l1.5-2.5c-1-0.2-1.5-0.9-1.5-1.8c0-1.1,0.8-1.9,2.1-1.9H685.2z
			 M684.5,414.3v-2.4h-1.6c-0.8,0-1.4,0.5-1.4,1.2s0.5,1.2,1.4,1.2H684.5z"/>
		<path class="st1" d="M651.9,428.1v-6.2h4.7v6.2h-0.8v-5.5h-3.2v5.5H651.9z"/>
		<path class="st1" d="M657.9,421.9h2.4c1.2,0,2.1,0.7,2.1,1.9s-0.8,1.9-2.1,1.9h-1.6v2.4h-0.8V421.9z M658.6,422.6v2.4h1.5
			c0.8,0,1.3-0.5,1.3-1.2s-0.5-1.2-1.3-1.2H658.6z"/>
		<path class="st1" d="M665.9,428.1c-1.8,0-3-1.3-3-3.2c0-1.8,1.2-3.2,3-3.2c1.8,0,3,1.3,3,3.2C668.9,426.8,667.6,428.1,665.9,428.1
			z M665.9,427.4c1.3,0,2.2-1,2.2-2.5c0-1.4-0.9-2.5-2.2-2.5s-2.2,1-2.2,2.5C663.7,426.4,664.6,427.4,665.9,427.4z"/>
		<path class="st1" d="M669.8,421.9h4v0.7h-3.2v2h2.7v0.7h-2.7v2.1h3.3v0.7h-4.1V421.9z"/>
		<path class="st1" d="M674.8,428.1v-6.2h0.8v2.7h1.1l2-2.7h0.9l-2.3,3l2.4,3.2h-0.9l-2.1-2.8h-1.1v2.8H674.8z"/>
		<path class="st1" d="M680,421.9h4.8v0.7h-2v5.5H682v-5.5h-2V421.9z"/>
		<path class="st1" d="M684.2,428.1l2.4-6.2h0.9l2.4,6.2H689l-0.7-1.7h-2.7l-0.7,1.7H684.2z M685.9,425.7h2.3l-1.1-3L685.9,425.7z"
			/>
	</g>
</g>
<line class="st8" x1="646" y1="391.4" x2="646" y2="429.2"/>
</svg>
