<?xml version="1.0" encoding="utf-8"?>
<!-- Generator: Adobe Illustrator 22.0.0, SVG Export Plug-In . SVG Version: 6.00 Build 0)  -->
<svg version="1.1" id="Layer_1" xmlns="http://www.w3.org/2000/svg" xmlns:xlink="http://www.w3.org/1999/xlink" x="0px" y="0px"
	 viewBox="0 0 1602 1163.6" style="enable-background:new 0 0 1602 1163.6;" xml:space="preserve">
<style type="text/css">
	.st0{fill:#D1D1D5;}
	.st1{fill:none;stroke:#FFFFFF;stroke-miterlimit:10;}
	.st2{fill:#1B1B2D;}
	.st3{fill:#FFFFFF;}
</style>
<rect x="2" class="st0" width="1600" height="1163.6"/>
<line class="st1" x1="1602" y1="139" x2="2" y2="139"/>
<line class="st1" x1="1602" y1="1010.6" x2="2" y2="1010.6"/>
<line class="st1" x1="1602" y1="918.3" x2="2" y2="918.3"/>
<line class="st1" x1="1602" y1="824.5" x2="2" y2="824.5"/>
<line class="st1" x1="1602" y1="732.3" x2="2" y2="732.3"/>
<line class="st1" x1="1600" y1="550.5" x2="0" y2="550.5"/>
<line class="st1" x1="1600" y1="356.5" x2="0" y2="356.5"/>
<line class="st1" x1="1602" y1="331.2" x2="2" y2="331.2"/>
<line class="st1" x1="1602" y1="265.3" x2="2" y2="265.3"/>
<line class="st1" x1="89.6" y1="0" x2="89.6" y2="1163.6"/>
<line class="st1" x1="1514.4" y1="0" x2="1514.4" y2="1163.6"/>
<line class="st1" x1="1330.4" y1="0" x2="1330.4" y2="1163.6"/>
<line class="st1" x1="802" y1="0" x2="802" y2="1163.6"/>
<line class="st1" x1="1276" y1="0" x2="1276" y2="1163.6"/>
<line class="st1" x1="530.7" y1="0" x2="530.7" y2="1163.6"/>
<line class="st1" x1="609.7" y1="0" x2="609.7" y2="1163.6"/>
<g>
	<path class="st2" d="M90,732.1v-78.4h50.4v8.4H98.9v26.3h39.2v8.4H98.9v26.9h41.4v8.4H90z"/>
	<path class="st2" d="M152.6,732.1v-78.4h9v70h39.2v8.4H152.6z"/>
	<path class="st2" d="M217.6,732.1v-70h-25.7v-8.4h60.4v8.4h-25.7v70H217.6z"/>
	<path class="st2" d="M245.5,732.1l29.7-78.4h13.4l29.7,78.4h-9.5L283,663.3h-2.2l-25.7,68.8H245.5z M261.2,712v-8.4h42v8.4H261.2z"
		/>
	<path class="st2" d="M370.9,733.3c-6,0-11.2-1.1-15.7-3.3c-4.5-2.2-7.9-5.1-10.4-8.8c-2.4-3.7-3.6-7.6-3.6-12h9
		c0,2.8,0.8,5.4,2.4,7.8c1.6,2.4,4,4.3,7.1,5.7c3.1,1.4,6.9,2.1,11.2,2.1c6.6,0,11.6-1.3,14.8-3.9c3.2-2.6,4.8-5.9,4.8-10.1
		c0-3.4-1.1-6.1-3.4-8.3c-2.2-2.2-5.6-3.7-10.1-4.5l-15.1-2.8c-6.3-1.2-11-3.5-14.2-6.8c-3.2-3.4-4.8-7.8-4.8-13.3
		c0-4.3,1.1-8.2,3.2-11.5c2.2-3.4,5.3-6,9.3-7.9c4.1-1.9,8.8-2.9,14.3-2.9c5.8,0,10.9,1.1,15.3,3.2c4.4,2.1,7.8,5,10.2,8.7
		c2.4,3.7,3.6,7.7,3.6,12.2h-9c0-2.8-0.8-5.4-2.4-7.8c-1.6-2.4-3.9-4.3-6.9-5.7c-3-1.4-6.6-2.1-10.8-2.1c-5.7,0-10.1,1.3-13.2,3.9
		c-3.1,2.6-4.7,6-4.7,10.1c0,3.1,1.1,5.8,3.2,7.9c2.1,2.2,5.4,3.6,9.7,4.4l12.3,2.2c7.8,1.4,13.4,3.8,17,7.3c3.6,3.4,5.4,8.1,5.4,14
		c0,4.3-1.1,8.2-3.3,11.6c-2.2,3.4-5.5,6-9.8,7.9C382,732.3,376.9,733.3,370.9,733.3z"/>
	<path class="st2" d="M400,732.1l29.7-78.4h13.4l29.7,78.4h-9.5l-25.7-68.8h-2.2l-25.7,68.8H400z M415.7,712v-8.4h42v8.4H415.7z"/>
	<path class="st2" d="M478.9,732.1v-78.4H494l35.3,67.7h2.2v-67.7h9v78.4h-15.1l-35.3-67.7h-2.2v67.7H478.9z"/>
	<path class="st2" d="M581.3,733.3c-6,0-11.2-1.1-15.7-3.3c-4.5-2.2-7.9-5.1-10.4-8.8c-2.4-3.7-3.6-7.6-3.6-12h9
		c0,2.8,0.8,5.4,2.4,7.8c1.6,2.4,4,4.3,7.1,5.7c3.1,1.4,6.9,2.1,11.2,2.1c6.6,0,11.6-1.3,14.8-3.9c3.2-2.6,4.8-5.9,4.8-10.1
		c0-3.4-1.1-6.1-3.4-8.3c-2.2-2.2-5.6-3.7-10.1-4.5l-15.1-2.8c-6.3-1.2-11-3.5-14.2-6.8c-3.2-3.4-4.8-7.8-4.8-13.3
		c0-4.3,1.1-8.2,3.2-11.5c2.2-3.4,5.3-6,9.3-7.9c4.1-1.9,8.8-2.9,14.3-2.9c5.8,0,10.9,1.1,15.3,3.2c4.4,2.1,7.8,5,10.2,8.7
		c2.4,3.7,3.6,7.7,3.6,12.2h-9c0-2.8-0.8-5.4-2.4-7.8c-1.6-2.4-3.9-4.3-6.9-5.7c-3-1.4-6.6-2.1-10.8-2.1c-5.7,0-10.1,1.3-13.2,3.9
		c-3.1,2.6-4.7,6-4.7,10.1c0,3.1,1.1,5.8,3.2,7.9c2.1,2.2,5.4,3.6,9.7,4.4l12.3,2.2c7.8,1.4,13.4,3.8,17,7.3c3.6,3.4,5.4,8.1,5.4,14
		c0,4.3-1.1,8.2-3.3,11.6c-2.2,3.4-5.5,6-9.8,7.9C592.5,732.3,587.3,733.3,581.3,733.3z"/>
</g>
<g>
	<path class="st2" d="M802.2,732v-78.4h7.1v71.7h40.1v6.6H802.2z"/>
	<path class="st2" d="M858.7,732v-78.4h7.1V732H858.7z"/>
	<path class="st2" d="M916.1,733.1c-6.8,0-13-1.7-18.6-5.1c-5.6-3.4-10.1-8.2-13.4-14.3c-3.3-6.1-4.9-13.1-4.9-20.9
		c0-7.8,1.6-14.8,4.9-20.9c3.3-6.1,7.7-10.9,13.4-14.3c5.6-3.4,11.8-5.1,18.6-5.1c5.1,0,9.9,1,14.5,3c4.6,2,8.6,4.8,12,8.6
		c3.4,3.7,5.9,8.1,7.6,13.1h-7.5c-2.2-5.6-5.8-10-10.7-13.2c-4.9-3.2-10.2-4.8-15.8-4.8c-5.5,0-10.6,1.4-15.1,4.3
		c-4.6,2.8-8.2,6.8-10.8,11.9c-2.6,5.1-4,11-4,17.5c0,6.6,1.3,12.4,4,17.5c2.6,5.1,6.2,9.1,10.8,11.9c4.6,2.8,9.6,4.3,15.1,4.3
		c4.7,0,9.2-1.2,13.4-3.6c4.3-2.4,7.7-5.5,10.2-9.5c2.6-3.9,3.9-8,3.9-12.4v-5.1l2.5,2.5h-27.2v-6.3h31.8V732H945l-0.9-13h-0.6
		c-1.8,2.7-4.1,5.1-6.9,7.2c-2.8,2.1-6,3.8-9.6,5C923.5,732.5,919.9,733.1,916.1,733.1z"/>
	<path class="st2" d="M966.2,732v-78.4h7.1V689h46.1v-35.4h7.1V732h-7.1v-36.4h-46.1V732H966.2z"/>
	<path class="st2" d="M1062.5,732v-71.7H1036v-6.6h60.1v6.6h-26.5V732H1062.5z"/>
</g>
<g>
	<path class="st2" d="M802.2,825v-78.4h34.1c4.1,0,7.9,1,11.2,3.1c3.4,2.1,6.1,5,8.1,8.6c2,3.7,3,7.8,3,12.3c0,4.6-1,8.7-3,12.3
		c-2,3.7-4.7,6.5-8.1,8.6c-3.4,2.1-7.1,3.1-11.2,3.1h-9.6v-2.1l33.7,32.3h-11.2l-31.3-30.2h-6.7V825H802.2z M836.3,786.4
		c2.5,0,4.7-0.7,6.8-2c2.1-1.3,3.7-3.2,4.9-5.5c1.2-2.4,1.8-5.1,1.8-8.2c0-4.6-1.3-8.4-3.9-11.3c-2.6-2.9-5.8-4.4-9.5-4.4h-25.2
		v31.3H836.3z"/>
	<path class="st2" d="M871,825v-78.4h50.4v8.4H880v26.3h39.2v8.4H880v26.9h41.4v8.4H871z"/>
	<path class="st2" d="M967.8,826.1c-6.9,0-13.2-1.7-18.9-5.1c-5.7-3.4-10.3-8.2-13.6-14.3c-3.3-6.1-5-13.1-5-20.9
		c0-7.8,1.7-14.8,5-20.9c3.3-6.1,7.9-10.9,13.6-14.3c5.7-3.4,12-5.1,18.9-5.1c5.2,0,10.2,1,14.8,3c4.7,2,8.7,4.9,12.2,8.6
		c3.5,3.7,6,8.1,7.7,13H993c-2.2-5-5.7-9-10.2-11.9c-4.6-2.9-9.6-4.4-14.9-4.4c-5.2,0-10,1.3-14.4,4s-7.8,6.5-10.4,11.3
		c-2.5,4.9-3.8,10.4-3.8,16.6c0,6.2,1.3,11.7,3.8,16.6c2.5,4.9,6,8.6,10.4,11.3c4.4,2.7,9.2,4,14.4,4c4.6,0,8.9-1.1,12.9-3.4
		c4.1-2.3,7.3-5.3,9.7-9c2.4-3.7,3.6-7.6,3.6-11.6v-4.1l3,3h-26.5v-7.8h32.5V825h-7.3l-1.1-11.2h-0.6c-1.5,1.9-3.5,3.8-6.2,5.7
		c-2.6,1.9-5.7,3.4-9.2,4.7C975.3,825.5,971.6,826.1,967.8,826.1z"/>
	<path class="st2" d="M1046.7,826.1c-5.7,0-11-1.3-15.7-4s-8.4-6.5-11.1-11.3c-2.7-4.8-4-10.4-4-16.6v-47.6h9v47.6
		c0,4.6,1,8.6,2.9,12.2c1.9,3.6,4.5,6.4,7.8,8.3c3.3,2,7,3,11.1,3c4.1,0,7.8-1,11.1-3c3.3-2,5.9-4.8,7.8-8.3
		c1.9-3.6,2.9-7.6,2.9-12.2v-47.6h9v47.6c0,6.2-1.3,11.7-4,16.6c-2.7,4.9-6.4,8.6-11.1,11.3S1052.5,826.1,1046.7,826.1z"/>
	<path class="st2" d="M1091.5,825v-78.4h9v70h39.2v8.4H1091.5z"/>
	<path class="st2" d="M1139.1,825l29.7-78.4h13.4l29.7,78.4h-9.5l-25.7-68.8h-2.2l-25.7,68.8H1139.1z M1154.8,804.8v-8.4h42v8.4
		H1154.8z"/>
	<path class="st2" d="M1218,825v-78.4h34.1c4.1,0,7.9,1,11.2,3.1c3.4,2.1,6.1,5,8.1,8.6c2,3.7,3,7.8,3,12.3c0,4.6-1,8.7-3,12.3
		c-2,3.7-4.7,6.5-8.1,8.6c-3.4,2.1-7.1,3.1-11.2,3.1h-9.6v-2.1l33.7,32.3H1265l-31.3-30.2h-6.7V825H1218z M1252.1,786.4
		c2.5,0,4.7-0.7,6.8-2c2.1-1.3,3.7-3.2,4.9-5.5c1.2-2.4,1.8-5.1,1.8-8.2c0-4.6-1.3-8.4-3.9-11.3c-2.6-2.9-5.8-4.4-9.5-4.4H1227v31.3
		H1252.1z"/>
</g>
<g>
	<path class="st2" d="M802.2,918v-78.4h19.9l21.3,61.8h2.2l21.3-61.8h19.9V918h-11.9v-60.4h-2.2L851.8,918h-14.6l-20.9-60.4H814V918
		H802.2z"/>
	<path class="st2" d="M900.1,918v-78.4h51.5v11H912v22.6h37.4v10.9H912V907h39.6v11H900.1z"/>
	<path class="st2" d="M962.8,918v-78.4H990c7.1,0,13.5,1.7,19.3,5c5.7,3.4,10.3,8,13.5,14c3.3,6,4.9,12.7,4.9,20.1
		c0,7.5-1.6,14.2-4.9,20.1c-3.3,6-7.8,10.6-13.5,14c-5.7,3.4-12.2,5-19.3,5H962.8z M990,906.6c4.8,0,9.2-1.2,13.1-3.5
		c3.9-2.3,7-5.6,9.2-9.8c2.3-4.2,3.4-9,3.4-14.5c0-5.4-1.1-10.3-3.4-14.5c-2.3-4.2-5.4-7.5-9.2-9.8c-3.9-2.3-8.2-3.5-13.1-3.5h-15.3
		v55.5H990z"/>
	<path class="st2" d="M1038.3,918v-78.4h11.9V918H1038.3z"/>
	<path class="st2" d="M1093,919.1c-6,0-11.5-1.3-16.3-4c-4.8-2.7-8.6-6.5-11.3-11.4c-2.7-4.9-4-10.6-4-17v-47h12v47
		c0,4.1,0.9,7.8,2.6,11c1.7,3.2,4.1,5.7,7.1,7.4c3,1.8,6.3,2.6,10,2.6c3.7,0,7-0.9,10-2.6c3-1.8,5.3-4.2,7.1-7.4
		c1.7-3.2,2.6-6.9,2.6-11v-47h12v47c0,6.4-1.3,12.1-4,17s-6.4,8.7-11.2,11.4C1104.4,917.8,1099,919.1,1093,919.1z"/>
	<path class="st2" d="M1136.8,918v-78.4h19.9l21.3,61.8h2.2l21.3-61.8h19.9V918h-11.9v-60.4h-2.2l-20.9,60.4h-14.6l-20.9-60.4h-2.2
		V918H1136.8z"/>
</g>
<g>
	<path class="st2" d="M802.2,1011v-78.4h38.1c4.6,0,8.7,0.9,12.1,2.7c3.5,1.8,6.1,4.4,8,7.7c1.9,3.3,2.8,7.1,2.8,11.4
		c0,2.6-0.4,5-1.3,7.3c-0.9,2.2-1.9,4.2-3.2,5.8c-1.3,1.6-2.6,2.9-3.9,3.7v0.6c2.5,1.3,4.7,3.6,6.6,6.7c1.9,3.1,2.9,6.7,2.9,10.6
		c0,4.3-0.9,8-2.8,11.4c-1.9,3.3-4.5,5.9-8,7.7c-3.5,1.8-7.5,2.7-12.1,2.7H802.2z M837.4,964c1.5,0,2.8-0.3,4-1
		c1.2-0.7,2.1-1.6,2.8-2.8c0.7-1.2,1-2.5,1-4c0-1.5-0.3-2.8-1-4c-0.7-1.2-1.6-2.1-2.8-2.8c-1.2-0.7-2.5-1-4-1h-17.3V964H837.4z
		 M838.6,995.3c1.5,0,2.8-0.3,4-1c1.2-0.7,2.1-1.6,2.8-2.8c0.7-1.2,1-2.5,1-4c0-2.2-0.7-4.1-2.2-5.6c-1.5-1.5-3.4-2.2-5.6-2.2h-18.5
		v15.7H838.6z"/>
	<path class="st2" d="M905.7,1012.1c-7,0-13.4-1.7-19.3-5.2c-5.8-3.5-10.4-8.3-13.8-14.4c-3.4-6.1-5-13-5-20.7
		c0-7.7,1.7-14.6,5-20.7c3.4-6.1,7.9-10.9,13.8-14.4c5.8-3.5,12.2-5.2,19.3-5.2c7,0,13.4,1.7,19.3,5.2c5.8,3.5,10.4,8.3,13.8,14.4
		c3.4,6.1,5,13,5,20.7c0,7.7-1.7,14.6-5,20.7c-3.4,6.1-7.9,10.9-13.8,14.4C919.1,1010.4,912.7,1012.1,905.7,1012.1z M905.7,994.8
		c3.7,0,7.1-1,10.2-2.9c3.1-1.9,5.5-4.6,7.3-8.1s2.7-7.5,2.7-12c0-4.6-0.9-8.6-2.7-12s-4.2-6.2-7.3-8.1c-3.1-1.9-6.5-2.9-10.2-2.9
		c-3.7,0-7.1,1-10.2,2.9c-3.1,1.9-5.5,4.6-7.3,8.1s-2.7,7.5-2.7,12c0,4.6,0.9,8.6,2.7,12s4.2,6.2,7.3,8.1
		C898.6,993.8,902,994.8,905.7,994.8z"/>
	<path class="st2" d="M951.4,1011v-78.4h17.9v61h35.3v17.3H951.4z"/>
	<path class="st2" d="M1010.9,1011v-78.4h29.1c7,0,13.4,1.7,19.3,5.1c5.8,3.4,10.4,8.1,13.8,14.1c3.4,6,5,12.6,5,19.9
		c0,7.3-1.7,14-5,19.9c-3.4,6-7.9,10.7-13.8,14.1c-5.8,3.4-12.2,5.1-19.3,5.1H1010.9z M1040,993.6c3.7,0,7.1-0.9,10.2-2.8
		c3.1-1.9,5.5-4.5,7.3-7.8c1.8-3.3,2.7-7.1,2.7-11.3c0-4.2-0.9-7.9-2.7-11.2c-1.8-3.3-4.2-5.9-7.3-7.8c-3.1-1.9-6.5-2.8-10.2-2.8
		h-11.2v43.7H1040z"/>
</g>
<g>
	<g>
		<path class="st2" d="M89.6,868.6l12.9-34.1h5.9l12.9,34.1h-4.1l-11.2-30h-1l-11.2,30H89.6z M96.4,859.9v-3.7h18.3v3.7H96.4z"/>
		<path class="st2" d="M124,868.6v-34.1h22.9v3.7h-19v11h11.5c1.7,0,3.2,0.4,4.7,1.2c1.4,0.8,2.5,2,3.4,3.4c0.8,1.5,1.2,3.2,1.2,5.1
			c0,1.9-0.4,3.6-1.2,5.1c-0.8,1.5-2,2.6-3.4,3.4s-3,1.2-4.7,1.2H124z M139.3,865c1,0,2-0.3,2.8-0.8c0.8-0.5,1.4-1.2,1.9-2.1
			c0.5-0.9,0.7-2,0.7-3.2c0-1.8-0.5-3.3-1.5-4.4c-1-1.1-2.3-1.7-3.9-1.7h-11.5V865H139.3z"/>
		<path class="st2" d="M153.7,868.6v-34.1h14.6c1.7,0,3.2,0.4,4.7,1.3c1.4,0.8,2.5,2,3.4,3.4c0.8,1.4,1.2,3,1.2,4.8
			c0,1.2-0.2,2.3-0.6,3.2c-0.4,1-0.8,1.8-1.4,2.5c-0.6,0.7-1.1,1.2-1.7,1.5v0.2c1.1,0.5,2,1.4,2.9,2.7c0.8,1.3,1.3,2.9,1.3,4.8
			c0,1.8-0.4,3.4-1.2,4.8c-0.8,1.4-2,2.6-3.4,3.4c-1.4,0.8-3,1.3-4.7,1.3H153.7z M168.4,849.9c1,0,1.9-0.3,2.7-0.8
			c0.8-0.5,1.5-1.2,2-2.1c0.5-0.9,0.7-1.9,0.7-3c0-1.1-0.2-2.1-0.7-3c-0.5-0.9-1.1-1.6-2-2.1c-0.8-0.5-1.7-0.8-2.7-0.8h-10.7v11.7
			H168.4z M168.8,865c1,0,1.9-0.3,2.7-0.8c0.8-0.5,1.5-1.2,2-2.1c0.5-0.9,0.7-1.9,0.7-3c0-1.7-0.5-3.1-1.6-4.2
			c-1-1.1-2.3-1.7-3.8-1.7h-11.2V865H168.8z"/>
		<path class="st2" d="M183.7,868.6v-34.1h21.5v3.7h-17.6v30.5H183.7z"/>
		<path class="st2" d="M203,875.5V865h0.7c1.2,0,2.2-0.3,2.8-1c0.6-0.6,1-1.6,1.1-3l2.2-26.6H231V865h3.7v10.5h-3.9v-6.8h-23.9v6.8
			H203z M210.1,865h17.1v-26.8h-13.7l-2,22.9c-0.1,0.7-0.2,1.3-0.3,1.9c-0.2,0.6-0.3,1-0.5,1.3C210.4,864.7,210.3,864.9,210.1,865z"
			/>
		<path class="st2" d="M238.8,868.6v-34.1h21.9v3.7h-18v11.5h17.1v3.7h-17.1V865h18v3.7H238.8z"/>
		<path class="st2" d="M266.1,868.6v-34.1h21.9v3.7h-18v11.5h17.1v3.7h-17.1V865h18v3.7H266.1z M271,829.6v-4.1h4.1v4.1H271z
			 M279.6,829.6v-4.1h4.1v4.1H279.6z"/>
		<path class="st2" d="M289.6,868.6l13.4-17.3l-12.4-16.8h4.7l11.9,16.1v-16.1h3.9v16.1l11.9-16.1h4.7l-12.4,16.8l13.4,17.3h-4.6
			L311,851.8v16.8h-3.9v-16.8l-12.9,16.8H289.6z"/>
		<path class="st2" d="M341.5,869.1c-2.5,0-4.7-0.4-6.6-1.3c-1.9-0.9-3.3-2-4.3-3.5c-1-1.5-1.5-3.1-1.5-4.9h3.9c0,1.1,0.3,2.1,1,3
			c0.7,0.9,1.6,1.7,2.9,2.2c1.3,0.6,2.8,0.9,4.6,0.9c1.7,0,3.2-0.3,4.5-0.9c1.3-0.6,2.3-1.3,3-2.2c0.7-0.9,1-1.9,1-3
			c0-1.1-0.3-2.1-0.9-3c-0.6-0.9-1.5-1.7-2.6-2.2c-1.1-0.6-2.4-0.9-3.8-0.9h-3.4v-3.7h3.4c1.3,0,2.4-0.3,3.4-0.8
			c1-0.5,1.8-1.3,2.3-2.1c0.6-0.9,0.8-1.9,0.8-2.9c0-1.1-0.3-2.2-1-3.1c-0.6-0.9-1.5-1.7-2.7-2.2s-2.6-0.8-4.1-0.8
			c-1.6,0-2.9,0.3-4.1,0.9c-1.2,0.6-2.1,1.3-2.7,2.2c-0.6,0.9-1,1.9-1,3h-3.9c0-1.8,0.5-3.4,1.4-4.9c0.9-1.5,2.3-2.7,4.1-3.5
			c1.8-0.9,3.8-1.3,6.2-1.3c2.3,0,4.4,0.4,6.2,1.3c1.8,0.9,3.2,2.1,4.1,3.6c0.9,1.5,1.4,3.1,1.4,4.8c0,2-0.6,3.6-1.7,4.9
			c-1.1,1.3-2.3,2.2-3.7,2.6v0.2c1.6,0.4,3,1.3,4.2,2.7c1.3,1.4,1.9,3.1,1.9,5.1c0,1.8-0.5,3.4-1.5,4.9c-1,1.5-2.4,2.7-4.3,3.5
			C346.2,868.7,344,869.1,341.5,869.1z"/>
		<path class="st2" d="M359.1,868.6v-34.1h3.9V864h1l15.4-29.5h6.6v34.1H382v-29.5h-1l-15.4,29.5H359.1z"/>
		<path class="st2" d="M392.5,868.6v-34.1h3.9V864h1l15.4-29.5h6.6v34.1h-3.9v-29.5h-1l-15.4,29.5H392.5z M405.9,830.6
			c-1.9,0-3.4-0.6-4.7-1.7c-1.3-1.1-2-2.6-2.1-4.4h3.2c0.1,1.1,0.5,1.9,1.2,2.5c0.7,0.6,1.5,0.9,2.5,0.9c1,0,1.8-0.3,2.5-0.9
			c0.7-0.6,1-1.4,1.2-2.5h3.2c-0.1,1.8-0.8,3.3-2.1,4.4C409.3,830,407.7,830.6,405.9,830.6z"/>
		<path class="st2" d="M425.9,868.6v-34.1h3.9v16.1l14.4-16.1h4.9l-15.1,16.8l16.1,17.3h-4.9l-15.3-16.6v16.6H425.9z"/>
		<path class="st2" d="M450.5,868.9V865h1.7c1,0,1.8-0.3,2.5-1c0.7-0.6,1-1.6,1.2-2.9l2.2-26.6h21.2v34.1h-3.9v-30.5h-13.7l-2,22.9
			c-0.2,2.7-1,4.6-2.2,5.9c-1.2,1.3-3,1.9-5.4,1.9H450.5z"/>
		<path class="st2" d="M485.8,868.6v-34.1h7.1l10.5,29.8h1l10.5-29.8h7.1v34.1H518v-29h-1l-10.2,29H501l-10.2-29h-1v29H485.8z"/>
		<path class="st2" d="M93.5,918.1V884h3.9v15.1h19V884h3.9v34.1h-3.9v-15.4h-19v15.4H93.5z"/>
		<path class="st2" d="M141.8,918.6c-3,0-5.7-0.7-8.2-2.2c-2.5-1.5-4.5-3.6-5.9-6.2c-1.4-2.7-2.2-5.7-2.2-9.1c0-3.4,0.7-6.5,2.2-9.1
			c1.4-2.7,3.4-4.7,5.9-6.2c2.5-1.5,5.3-2.2,8.2-2.2c3,0,5.7,0.7,8.2,2.2c2.5,1.5,4.5,3.6,5.9,6.2c1.4,2.7,2.2,5.7,2.2,9.1
			c0,3.4-0.7,6.5-2.2,9.1c-1.4,2.7-3.4,4.7-5.9,6.2C147.5,917.9,144.8,918.6,141.8,918.6z M141.8,915c2.3,0,4.4-0.6,6.3-1.8
			c1.9-1.2,3.4-2.8,4.5-4.9c1.1-2.1,1.7-4.5,1.7-7.2c0-2.7-0.6-5.1-1.7-7.2c-1.1-2.1-2.6-3.8-4.5-4.9c-1.9-1.2-4-1.8-6.3-1.8
			c-2.3,0-4.4,0.6-6.3,1.8c-1.9,1.2-3.4,2.8-4.5,4.9c-1.1,2.1-1.7,4.5-1.7,7.2c0,2.7,0.6,5.1,1.7,7.2c1.1,2.1,2.6,3.8,4.5,4.9
			C137.4,914.4,139.5,915,141.8,915z"/>
		<path class="st2" d="M163.2,918.1V884h26.8v34.1h-3.9v-30.5h-19v30.5H163.2z"/>
		<path class="st2" d="M196.6,918.1V884h14.9c1.8,0,3.4,0.5,4.9,1.4c1.5,0.9,2.7,2.2,3.5,3.8c0.9,1.6,1.3,3.4,1.3,5.4
			c0,2-0.4,3.8-1.3,5.4c-0.9,1.6-2.1,2.8-3.5,3.8c-1.5,0.9-3.1,1.4-4.9,1.4h-11v13.2H196.6z M211.5,901.3c1.1,0,2.1-0.3,3-0.9
			c0.9-0.6,1.6-1.4,2.1-2.4c0.5-1,0.8-2.2,0.8-3.6c0-2-0.6-3.7-1.7-4.9c-1.1-1.3-2.5-1.9-4.1-1.9h-11v13.7H211.5z"/>
		<path class="st2" d="M241.3,918.6c-3,0-5.7-0.7-8.2-2.2c-2.5-1.5-4.5-3.6-5.9-6.2c-1.4-2.7-2.2-5.7-2.2-9.1c0-3.4,0.7-6.5,2.2-9.1
			c1.4-2.7,3.4-4.7,5.9-6.2c2.5-1.5,5.3-2.2,8.2-2.2c2.4,0,4.6,0.5,6.7,1.4c2.1,0.9,3.8,2.3,5.3,4c1.4,1.7,2.5,3.8,3.1,6.1h-4.1
			c-0.6-1.6-1.4-3-2.4-4.2c-1.1-1.2-2.3-2.1-3.8-2.7c-1.5-0.6-3-0.9-4.7-0.9c-2.3,0-4.4,0.6-6.3,1.8c-1.9,1.2-3.4,2.8-4.5,4.9
			c-1.1,2.1-1.7,4.5-1.7,7.2c0,2.7,0.6,5.1,1.7,7.2c1.1,2.1,2.6,3.8,4.5,4.9c1.9,1.2,4,1.8,6.3,1.8c2.6,0,4.8-0.7,6.8-2.1
			c2-1.4,3.3-3.4,4.2-5.9h4.1c-0.7,2.4-1.7,4.5-3.1,6.2c-1.4,1.8-3.2,3.1-5.2,4C246,918.2,243.7,918.6,241.3,918.6z"/>
		<path class="st2" d="M268.3,918.1v-30.5h-11.2V884h26.3v3.7h-11.2v30.5H268.3z"/>
		<path class="st2" d="M288.3,918.1v-3.7h4.6c0.7,0,1.3-0.1,1.7-0.4c0.4-0.2,0.7-0.7,1-1.3l1.5-3.4v2.3L284,884h4.1l10,21.2h1
			l9.5-21.2h4.1l-13.9,30.7c-0.3,0.7-0.7,1.3-1.2,1.8c-0.5,0.5-1.1,0.9-1.8,1.2c-0.7,0.3-1.6,0.4-2.6,0.4H288.3z"/>
		<path class="st2" d="M328.6,919.1v-6.7l1.3,1.3h-2c-3,0-5.7-0.6-7.9-1.7c-2.2-1.1-4-2.7-5.2-4.7c-1.2-2-1.8-4.2-1.8-6.8
			s0.6-4.8,1.8-6.8c1.2-2,2.9-3.5,5.2-4.7c2.2-1.1,4.9-1.7,7.9-1.7h2l-1.3,1.3V883h3.9v5.7l-1.3-1.3h2c3,0,5.7,0.6,7.9,1.7
			c2.2,1.1,4,2.7,5.2,4.7c1.2,2,1.8,4.2,1.8,6.8s-0.6,4.8-1.8,6.8c-1.2,2-2.9,3.5-5.2,4.7c-2.2,1.1-4.9,1.7-7.9,1.7h-2l1.3-1.3v6.7
			H328.6z M328.6,911.7v-22.1l1.3,1.3h-2c-2.2,0-4.2,0.4-5.8,1.3c-1.6,0.8-2.9,2-3.8,3.5c-0.9,1.5-1.3,3.1-1.3,5
			c0,1.9,0.4,3.6,1.3,5c0.9,1.5,2.2,2.6,3.8,3.5c1.6,0.8,3.6,1.3,5.8,1.3h2L328.6,911.7z M332.5,911.7l-1.3-1.3h2
			c2.2,0,4.2-0.4,5.8-1.3c1.6-0.8,2.9-2,3.8-3.5c0.9-1.5,1.3-3.1,1.3-5c0-1.9-0.4-3.6-1.3-5c-0.9-1.5-2.2-2.6-3.8-3.5
			c-1.6-0.8-3.6-1.3-5.8-1.3h-2l1.3-1.3V911.7z"/>
		<path class="st2" d="M347.4,918.1l12-17.6L348.1,884h4.4l9,13.4h1l9-13.4h4.4l-11.2,16.6l11.9,17.6h-4.4l-9.7-14.4h-1l-9.7,14.4
			H347.4z"/>
		<path class="st2" d="M405.4,925v-6.8h-25.6V884h3.9v30.5h18V884h3.9v30.5h3.7V925H405.4z"/>
		<path class="st2" d="M433.2,903.5c-1,0.8-2.3,1.5-4.1,2.2c-1.7,0.7-3.6,1-5.4,1c-4,0-7-1-9-3c-2-2-3-5.1-3-9.2V884h3.9v10.5
			c0,2.9,0.7,5,2,6.4c1.3,1.4,3.3,2.1,6,2.1c2,0,3.9-0.3,5.6-1c1.7-0.7,3-1.5,3.9-2.4V884h3.9v34.1h-3.9V903.5z"/>
		<path class="st2" d="M443.7,918.1V884h3.9v30.5H461V884h3.9v30.5h13.4V884h3.9v34.1H443.7z"/>
		<path class="st2" d="M527.1,925v-6.8h-38.3V884h3.9v30.5h13.4V884h3.9v30.5h13.4V884h3.9v30.5h3.7V925H527.1z"/>
		<path class="st2" d="M97.6,964.6v-30.5h-7.6v-3.7h11.5v12.7h9.8c1.9,0,3.5,0.5,5.1,1.4c1.5,0.9,2.7,2.2,3.6,3.9
			c0.9,1.6,1.3,3.5,1.3,5.4c0,2-0.4,3.8-1.3,5.4c-0.9,1.6-2.1,2.9-3.6,3.9c-1.5,0.9-3.2,1.4-5.1,1.4H97.6z M111.3,961
			c1.1,0,2.2-0.3,3.1-0.9c0.9-0.6,1.7-1.4,2.2-2.5c0.5-1.1,0.8-2.3,0.8-3.7s-0.3-2.6-0.8-3.7c-0.5-1.1-1.3-1.9-2.2-2.5
			c-0.9-0.6-2-0.9-3.1-0.9h-9.8V961H111.3z"/>
		<path class="st2" d="M126.2,964.6v-34.1h3.9v12.7h9.3c1.9,0,3.5,0.5,5.1,1.4c1.5,0.9,2.7,2.2,3.6,3.9c0.9,1.6,1.3,3.5,1.3,5.4
			c0,2-0.4,3.8-1.3,5.4c-0.9,1.6-2.1,2.9-3.6,3.9c-1.5,0.9-3.2,1.4-5.1,1.4H126.2z M139.3,961c1.1,0,2.2-0.3,3.1-0.9
			c0.9-0.6,1.7-1.4,2.2-2.5c0.5-1.1,0.8-2.3,0.8-3.7s-0.3-2.6-0.8-3.7c-0.5-1.1-1.3-1.9-2.2-2.5c-0.9-0.6-2-0.9-3.1-0.9h-9.3V961
			H139.3z M153.2,964.6v-34.1h3.9v34.1H153.2z"/>
		<path class="st2" d="M163.7,964.6v-34.1h3.9v12.7h10.2c1.9,0,3.5,0.5,5.1,1.4c1.5,0.9,2.7,2.2,3.6,3.9c0.9,1.6,1.3,3.5,1.3,5.4
			c0,2-0.4,3.8-1.3,5.4c-0.9,1.6-2.1,2.9-3.6,3.9c-1.5,0.9-3.2,1.4-5.1,1.4H163.7z M177.9,961c1.1,0,2.2-0.3,3.1-0.9
			c0.9-0.6,1.7-1.4,2.2-2.5c0.5-1.1,0.8-2.3,0.8-3.7s-0.3-2.6-0.8-3.7c-0.5-1.1-1.3-1.9-2.2-2.5c-0.9-0.6-2-0.9-3.1-0.9h-10.2V961
			H177.9z"/>
		<path class="st2" d="M205.7,965.1c-2.4,0-4.7-0.5-6.8-1.4c-2.1-0.9-3.9-2.3-5.3-4c-1.5-1.7-2.5-3.8-3-6.1h4.1
			c0.6,1.6,1.4,3,2.4,4.2c1.1,1.2,2.3,2.1,3.8,2.7c1.5,0.6,3,0.9,4.7,0.9c2.1,0,4.1-0.5,5.9-1.5s3.3-2.5,4.4-4.3
			c1.1-1.9,1.8-4,1.9-6.3h-16.6v-3.7h16.6c-0.2-2.3-0.8-4.4-1.9-6.2c-1.1-1.8-2.6-3.2-4.4-4.2c-1.8-1-3.8-1.5-5.9-1.5
			c-2.5,0-4.8,0.7-6.8,2c-2,1.3-3.4,3.2-4.2,5.5h-4.1c0.6-2.2,1.7-4.2,3.2-5.9c1.5-1.7,3.3-3,5.3-3.9c2.1-0.9,4.3-1.4,6.6-1.4
			c3,0,5.7,0.7,8.2,2.2c2.5,1.5,4.5,3.6,5.9,6.2c1.4,2.7,2.2,5.7,2.2,9.1c0,3.4-0.7,6.5-2.2,9.1c-1.4,2.7-3.4,4.7-5.9,6.2
			C211.4,964.4,208.7,965.1,205.7,965.1z"/>
		<path class="st2" d="M251.8,965.1c-2.7,0-5.1-0.7-7.4-2c-2.3-1.3-4.1-3.2-5.5-5.6c-1.4-2.4-2.2-5.1-2.5-8.3H231v15.4h-3.9v-34.1
			h3.9v15.1h5.4c0.3-3.1,1.2-5.9,2.6-8.2c1.4-2.4,3.2-4.2,5.4-5.5c2.2-1.3,4.6-1.9,7.3-1.9c2.8,0,5.4,0.7,7.8,2.2
			c2.3,1.5,4.2,3.6,5.6,6.2c1.4,2.7,2,5.7,2,9.1c0,3.4-0.7,6.5-2,9.1c-1.4,2.7-3.2,4.7-5.6,6.2C257.2,964.4,254.6,965.1,251.8,965.1
			z M251.8,961.5c2.1,0,4-0.6,5.8-1.7c1.8-1.1,3.1-2.8,4.1-4.9c1-2.1,1.5-4.6,1.5-7.3c0-2.8-0.5-5.2-1.5-7.3c-1-2.1-2.4-3.7-4.1-4.9
			c-1.8-1.1-3.7-1.7-5.8-1.7c-2.1,0-4,0.6-5.8,1.7c-1.8,1.1-3.1,2.8-4.1,4.9c-1,2.1-1.5,4.6-1.5,7.3c0,2.8,0.5,5.2,1.5,7.3
			c1,2.1,2.4,3.7,4.1,4.9C247.7,960.9,249.6,961.5,251.8,961.5z"/>
		<path class="st2" d="M270.3,964.6l14.1-14.1l0.4,0.9h-4c-1.8,0-3.4-0.5-4.9-1.4c-1.5-0.9-2.7-2.2-3.5-3.8
			c-0.9-1.6-1.3-3.4-1.3-5.4c0-2,0.4-3.8,1.3-5.4c0.9-1.6,2.1-2.8,3.5-3.8c1.5-0.9,3.1-1.4,4.9-1.4h14.9v34.1h-3.9v-13.2h-3.4
			l-13.2,13.2H270.3z M280.8,947.8h11v-13.7h-11c-1.1,0-2.1,0.3-3,0.9c-0.9,0.6-1.6,1.4-2.1,2.4c-0.5,1-0.8,2.2-0.8,3.6
			c0,1.3,0.3,2.5,0.8,3.6c0.5,1,1.2,1.8,2.1,2.4C278.7,947.5,279.7,947.8,280.8,947.8z"/>
	</g>
	<g>
		<path class="st3" d="M100.1,1010.6c-1.7,0-3.2-0.3-4.5-1c-1.3-0.7-2.3-1.5-3-2.7c-0.7-1.1-1.1-2.4-1.1-3.9c0-1.6,0.3-3,1-4.1
			c0.7-1.2,1.8-2.1,3.2-2.7c1.4-0.7,3.3-1,5.5-1h6.6v-0.7c0-1.8-0.5-3.3-1.6-4.3c-1-1-2.5-1.6-4.3-1.6c-1.8,0-3.2,0.4-4.3,1.2
			c-1.1,0.8-1.7,1.8-1.8,3h-3.7c0.1-1.3,0.5-2.6,1.3-3.7c0.8-1.2,1.9-2.1,3.3-2.8c1.4-0.7,3.1-1,5.1-1c2,0,3.6,0.4,5.1,1.1
			c1.4,0.7,2.5,1.8,3.3,3.2c0.8,1.4,1.1,3.1,1.1,5v15.6h-3.2l-0.5-2.9h-0.2c-0.6,0.9-1.5,1.7-2.9,2.4
			C103.4,1010.2,101.9,1010.6,100.1,1010.6z M100.1,1007.2c1.6,0,3-0.3,4.2-0.9c1.2-0.6,2.1-1.5,2.7-2.6c0.6-1.1,0.9-2.5,0.9-4v-1
			h-6.6c-2.1,0-3.6,0.4-4.6,1.2c-1,0.8-1.5,1.9-1.5,3.2c0,1.2,0.4,2.2,1.3,3C97.3,1006.8,98.5,1007.2,100.1,1007.2z"/>
		<path class="st3" d="M127.4,1010.6c-2.2,0-4.1-0.5-5.9-1.6c-1.7-1-3.1-2.5-4.1-4.4c-1-1.9-1.5-4.1-1.5-6.7c0-0.3,0-0.5,0-0.8
			s0-0.5,0-0.7c0-2.8,0.2-5.3,0.7-7.3c0.4-2,1.2-3.8,2.2-5.2c1-1.4,2.3-2.6,4-3.6c1.1-0.6,2.3-1.1,3.5-1.4c1.2-0.3,2.8-0.5,4.7-0.7
			c1.1-0.1,2-0.5,2.5-1c0.5-0.6,0.8-1.4,0.8-2.5h3.2c0,1.4-0.3,2.5-0.7,3.5c-0.4,0.9-1.1,1.7-2,2.2c-0.9,0.6-2.1,0.9-3.5,1
			c-1.5,0.1-2.7,0.3-3.8,0.6c-1.1,0.3-2.1,0.7-3,1.2c-1.3,0.8-2.4,1.8-3.3,3.1c-0.8,1.3-1.4,3-1.6,4.9h0.2c1-1.4,2.2-2.4,3.6-3
			c1.4-0.6,2.8-0.9,4.4-0.9c2,0,3.9,0.5,5.5,1.5c1.7,1,3,2.4,4,4.1c1,1.8,1.5,3.7,1.5,5.9c0,2.2-0.5,4.3-1.5,6
			c-1,1.8-2.4,3.2-4.1,4.2C131.5,1010.1,129.6,1010.6,127.4,1010.6z M127.4,1007.2c1.5,0,2.8-0.3,4-1c1.2-0.7,2.1-1.7,2.8-3
			c0.7-1.3,1-2.7,1-4.3c0-1.6-0.3-3-1-4.3c-0.7-1.3-1.6-2.3-2.8-3c-1.2-0.7-2.5-1-4-1c-1.5,0-2.8,0.4-4,1c-1.2,0.7-2.1,1.7-2.8,3
			c-0.7,1.3-1,2.7-1,4.3c0,1.6,0.3,3,1,4.3c0.7,1.3,1.6,2.3,2.8,3C124.6,1006.8,125.9,1007.2,127.4,1007.2z"/>
		<path class="st3" d="M143,1010.1v-24.4h12.7c1.4,0,2.6,0.3,3.6,0.9c1,0.6,1.8,1.4,2.4,2.4c0.6,1,0.9,2.2,0.9,3.6
			c0,1.2-0.3,2.3-0.9,3.2c-0.6,0.9-1.3,1.5-2,1.9v0.2c0.9,0.3,1.7,0.9,2.4,1.9c0.7,0.9,1,2,1,3.4c0,1.3-0.3,2.5-0.9,3.5
			c-0.6,1.1-1.4,1.9-2.4,2.5c-1,0.6-2.2,0.9-3.5,0.9H143z M155.2,996.2c1,0,1.9-0.3,2.6-1c0.7-0.7,1.1-1.6,1.1-2.6
			c0-1.1-0.4-2-1.1-2.6c-0.7-0.7-1.6-1-2.6-1h-8.5v7.3H155.2z M155.7,1006.9c0.7,0,1.3-0.2,1.8-0.5c0.6-0.3,1-0.7,1.3-1.3
			c0.3-0.6,0.5-1.2,0.5-2c0-1.1-0.4-2.1-1.1-2.8c-0.7-0.7-1.6-1-2.6-1h-9v7.6H155.7z"/>
		<path class="st3" d="M167.1,1010.1v-24.4h15.6v3.4h-11.9v21H167.1z"/>
		<path class="st3" d="M181.5,1015.9v-9.3h0.5c1.1,0,1.9-0.3,2.5-0.8c0.5-0.5,0.9-1.4,1-2.6l1.5-17.6h16.3v21h3.4v9.3H203v-5.9
			h-17.8v5.9H181.5z M187.9,1006.7h11.7v-17.6h-9.3l-1.2,14.1c-0.1,0.9-0.2,1.6-0.5,2.2C188.4,1006.1,188.1,1006.5,187.9,1006.7z"/>
		<path class="st3" d="M220.1,1010.6c-2.2,0-4.2-0.5-6-1.6c-1.8-1.1-3.2-2.6-4.2-4.5c-1-1.9-1.5-4.1-1.5-6.6c0-2.5,0.5-4.7,1.5-6.6
			c1-1.9,2.4-3.4,4.2-4.5c1.8-1.1,3.8-1.6,6-1.6c2.1,0,4,0.5,5.7,1.5c1.7,1,3.1,2.4,4,4.2c1,1.8,1.5,3.8,1.5,6c0,0.7,0,1.2-0.1,1.7
			c0,0.5-0.1,0.8-0.2,1h-19c0.2,1.5,0.6,2.8,1.4,4c0.7,1.2,1.7,2,2.9,2.7c1.2,0.6,2.4,0.9,3.8,0.9c1.5,0,2.8-0.3,3.9-1
			c1.2-0.7,2-1.6,2.7-2.9h3.9c-0.6,1.6-1.4,2.9-2.4,4c-1,1.1-2.2,1.9-3.5,2.5C223.3,1010.3,221.7,1010.6,220.1,1010.6z M227.6,996.2
			c-0.1-1.4-0.4-2.7-1.1-3.9c-0.7-1.2-1.6-2.1-2.7-2.7c-1.1-0.7-2.4-1-3.7-1c-1.4,0-2.7,0.3-3.9,1c-1.2,0.7-2.1,1.5-2.8,2.7
			c-0.7,1.1-1.2,2.4-1.3,3.9H227.6z"/>
		<path class="st3" d="M245.7,1010.6c-2.2,0-4.2-0.5-6-1.6c-1.8-1.1-3.2-2.6-4.2-4.5c-1-1.9-1.5-4.1-1.5-6.6c0-2.5,0.5-4.7,1.5-6.6
			c1-1.9,2.4-3.4,4.2-4.5c1.8-1.1,3.8-1.6,6-1.6c2.1,0,4,0.5,5.7,1.5c1.7,1,3.1,2.4,4,4.2c1,1.8,1.5,3.8,1.5,6c0,0.7,0,1.2-0.1,1.7
			c0,0.5-0.1,0.8-0.2,1h-19c0.2,1.5,0.6,2.8,1.4,4c0.7,1.2,1.7,2,2.9,2.7c1.2,0.6,2.4,0.9,3.8,0.9c1.5,0,2.8-0.3,3.9-1
			c1.2-0.7,2-1.6,2.7-2.9h3.9c-0.6,1.6-1.4,2.9-2.4,4c-1,1.1-2.2,1.9-3.5,2.5C248.9,1010.3,247.4,1010.6,245.7,1010.6z M253.2,996.2
			c-0.1-1.4-0.4-2.7-1.1-3.9c-0.7-1.2-1.6-2.1-2.7-2.7c-1.1-0.7-2.4-1-3.7-1c-1.4,0-2.7,0.3-3.9,1c-1.2,0.7-2.1,1.5-2.8,2.7
			c-0.7,1.1-1.2,2.4-1.3,3.9H253.2z M239.1,980.6v-4.1h4.1v4.1H239.1z M247.6,980.6v-4.1h4.1v4.1H247.6z"/>
		<path class="st3" d="M257.1,1010.1l10-12.4l-9.3-11.9h4.4l8.8,11.5v-11.5h3.7v11.5l8.8-11.5h4.4l-9.3,11.9l10,12.4h-4.4l-9.5-12
			v12H271v-12l-9.5,12H257.1z"/>
		<path class="st3" d="M298.3,1010.6c-1.9,0-3.6-0.4-5-1.1c-1.4-0.7-2.6-1.7-3.3-2.9c-0.8-1.2-1.2-2.6-1.2-4h3.7
			c0,0.8,0.2,1.6,0.7,2.3c0.5,0.7,1.2,1.3,2,1.7c0.9,0.4,1.9,0.6,3.1,0.6c2,0,3.5-0.4,4.4-1.1c1-0.7,1.4-1.7,1.4-2.8
			c0-1.1-0.5-2.1-1.5-2.8c-1-0.7-2.4-1.1-4.1-1.1h-2.2v-3.2h2.2c1.7,0,2.9-0.4,3.8-1.1c0.9-0.7,1.3-1.7,1.3-2.8c0-1-0.5-1.9-1.4-2.6
			c-0.9-0.7-2.3-1-4-1c-1.7,0-3,0.4-3.9,1.2c-1,0.8-1.4,1.9-1.4,3.1h-3.7c0-1.5,0.4-2.8,1.1-4c0.8-1.2,1.8-2.1,3.2-2.8
			c1.4-0.7,2.9-1,4.7-1c1.9,0,3.5,0.3,4.9,1c1.4,0.6,2.4,1.5,3.1,2.6c0.7,1.1,1,2.3,1,3.6c0,1.4-0.4,2.5-1.2,3.4
			c-0.8,0.9-1.7,1.6-2.7,1.9v0.2c1.2,0.3,2.2,0.9,3.1,1.9c0.9,1,1.3,2.2,1.3,3.6c0,1.4-0.4,2.6-1.1,3.7c-0.7,1.1-1.8,2-3.3,2.6
			C302,1010.3,300.3,1010.6,298.3,1010.6z"/>
		<path class="st3" d="M312,1010.1v-24.4h3.7v20h1l9.3-20h6.3v24.4h-3.7v-20h-1l-9.3,20H312z"/>
		<path class="st3" d="M337.8,1010.1v-24.4h3.7v20h1l9.3-20h6.3v24.4h-3.7v-20h-1l-9.3,20H337.8z M348.1,981.6
			c-1.9,0-3.4-0.6-4.7-1.7c-1.3-1.1-2-2.6-2.1-4.4h3.2c0.1,1.1,0.5,1.9,1.2,2.5c0.6,0.6,1.5,0.9,2.5,0.9c1,0,1.8-0.3,2.5-0.9
			c0.6-0.6,1-1.4,1.2-2.5h3.2c-0.1,1.8-0.8,3.3-2.1,4.4C351.5,981,349.9,981.6,348.1,981.6z"/>
		<path class="st3" d="M363.7,1010.1v-24.4h3.7v11.2l10.9-11.2h4.7l-11.7,11.9l12.2,12.4h-4.7l-11.4-11.7v11.7H363.7z"/>
		<path class="st3" d="M384.9,1010.3v-3.7h1.5c0.9,0,1.6-0.3,2.2-0.8c0.6-0.6,0.9-1.4,1-2.6l1.5-17.6h16.3v24.4h-3.7v-21h-9.3
			l-1.2,14.1c-0.2,2.4-0.9,4.2-2,5.3c-1.1,1.2-2.7,1.7-4.8,1.7H384.9z"/>
		<path class="st3" d="M412.9,1010.1v-24.4h6.8l6.6,20.2h1l6.6-20.2h6.8v24.4h-3.7v-20h-1l-6.6,20h-5.4l-6.6-20h-1v20H412.9z"/>
		<path class="st3" d="M446.3,1010.1v-24.4h3.7v10.5h12.9v-10.5h3.7v24.4h-3.7v-10.5H450v10.5H446.3z"/>
		<path class="st3" d="M102.8,1050.7c-2.2,0-4.2-0.5-6-1.6c-1.8-1.1-3.2-2.6-4.2-4.5c-1-1.9-1.5-4.1-1.5-6.6c0-2.5,0.5-4.7,1.5-6.6
			c1-1.9,2.4-3.4,4.2-4.5c1.8-1.1,3.8-1.6,6-1.6c2.2,0,4.2,0.5,6,1.6c1.8,1.1,3.2,2.6,4.2,4.5c1,1.9,1.5,4.1,1.5,6.6
			c0,2.5-0.5,4.7-1.5,6.6c-1,1.9-2.4,3.4-4.2,4.5C106.9,1050.1,104.9,1050.7,102.8,1050.7z M102.8,1047.2c1.5,0,2.8-0.4,4-1.1
			c1.2-0.8,2.2-1.9,2.9-3.3c0.7-1.4,1.1-3,1.1-4.9c0-1.8-0.4-3.4-1.1-4.9c-0.7-1.4-1.7-2.5-2.9-3.3c-1.2-0.8-2.6-1.1-4-1.1
			c-1.5,0-2.8,0.4-4,1.1c-1.2,0.8-2.2,1.9-2.9,3.3c-0.7,1.4-1.1,3-1.1,4.9c0,1.8,0.4,3.4,1.1,4.9c0.7,1.4,1.7,2.5,2.9,3.3
			C99.9,1046.9,101.3,1047.2,102.8,1047.2z"/>
		<path class="st3" d="M118.6,1050.2v-24.4h20.2v24.4h-3.7v-21h-12.9v21H118.6z"/>
		<path class="st3" d="M144.5,1059.9v-34.1h3.2l0.5,3.4h0.2c1-1.3,2.1-2.2,3.4-2.9c1.3-0.7,2.7-1,4.4-1c2.1,0,4,0.5,5.7,1.6
			c1.7,1.1,3,2.6,4,4.5c1,1.9,1.5,4.1,1.5,6.6c0,2.5-0.5,4.7-1.5,6.6c-1,1.9-2.3,3.4-4,4.5c-1.7,1.1-3.6,1.6-5.7,1.6
			c-1.7,0-3.1-0.3-4.4-1c-1.3-0.7-2.4-1.6-3.4-2.9h-0.2v13.2H144.5z M155.9,1047.2c1.4,0,2.7-0.4,3.9-1.2c1.2-0.8,2.1-1.9,2.9-3.3
			c0.7-1.4,1.1-3,1.1-4.8c0-1.8-0.4-3.4-1.1-4.8c-0.7-1.4-1.7-2.5-2.9-3.3c-1.2-0.8-2.5-1.2-3.9-1.2c-1.4,0-2.7,0.4-3.9,1.2
			c-1.2,0.8-2.1,1.9-2.9,3.3c-0.7,1.4-1.1,3-1.1,4.8c0,1.8,0.4,3.4,1.1,4.8c0.7,1.4,1.7,2.5,2.9,3.3
			C153.2,1046.9,154.5,1047.2,155.9,1047.2z"/>
		<path class="st3" d="M181.8,1050.7c-2.2,0-4.2-0.5-6-1.6c-1.8-1.1-3.2-2.6-4.2-4.5c-1-1.9-1.5-4.1-1.5-6.6c0-2.5,0.5-4.7,1.5-6.6
			c1-1.9,2.4-3.4,4.2-4.5c1.8-1.1,3.8-1.6,6-1.6c1.8,0,3.4,0.3,4.9,1c1.5,0.7,2.7,1.6,3.7,2.9c1,1.3,1.7,2.7,2.1,4.4h-3.7
			c-0.5-1.6-1.4-2.8-2.6-3.6c-1.3-0.8-2.7-1.3-4.5-1.3c-1.5,0-2.8,0.4-4,1.1c-1.2,0.8-2.2,1.9-2.9,3.3c-0.7,1.4-1.1,3-1.1,4.9
			c0,1.8,0.4,3.4,1.1,4.9c0.7,1.4,1.7,2.5,2.9,3.3c1.2,0.8,2.6,1.1,4,1.1c1.8,0,3.3-0.4,4.5-1.3c1.2-0.9,2.1-2.1,2.6-3.8h3.7
			c-0.4,1.8-1.1,3.3-2.1,4.6c-1,1.3-2.3,2.3-3.7,3C185.2,1050.3,183.6,1050.7,181.8,1050.7z"/>
		<path class="st3" d="M201,1050.2v-21h-8.3v-3.4H213v3.4h-8.3v21H201z"/>
		<path class="st3" d="M215.7,1059.9v-3.4h4.6c0.5,0,0.8-0.1,1.1-0.4c0.3-0.3,0.5-0.6,0.6-1l1.4-4.2l0,2.5l-10.5-27.6h3.9l7.6,20.2
			h1l6.8-20.2h3.9l-11,30.7c-0.4,1.2-1,2-1.7,2.6c-0.7,0.6-1.7,0.8-3,0.8H215.7z"/>
		<path class="st3" d="M249.8,1059.9v-11.1l1.3,1.3h-2c-2.5,0-4.7-0.5-6.6-1.5c-1.9-1-3.3-2.4-4.3-4.3c-1-1.9-1.5-4-1.5-6.4
			c0-2.4,0.5-4.5,1.5-6.4c1-1.9,2.5-3.3,4.3-4.3c1.9-1,4.1-1.5,6.6-1.5h2l-1.3,1.3V1016h3.7v11.1l-1.3-1.3h2c2.5,0,4.7,0.5,6.6,1.5
			c1.9,1,3.3,2.4,4.3,4.3c1,1.9,1.5,4,1.5,6.4c0,2.4-0.5,4.5-1.5,6.4c-1,1.9-2.5,3.3-4.3,4.3c-1.9,1-4.1,1.5-6.6,1.5h-2l1.3-1.3
			v11.1H249.8z M249.8,1048.1v-20.2l1.3,1.3h-2c-1.9,0-3.4,0.4-4.8,1.1c-1.3,0.7-2.3,1.7-3,3c-0.7,1.3-1,2.9-1,4.7
			c0,1.8,0.3,3.3,1,4.7c0.7,1.3,1.7,2.3,3,3c1.3,0.7,2.9,1.1,4.8,1.1h2L249.8,1048.1z M253.5,1048.1l-1.3-1.3h2
			c1.9,0,3.4-0.4,4.8-1.1c1.3-0.7,2.3-1.7,3-3c0.7-1.3,1-2.9,1-4.7c0-1.8-0.3-3.3-1-4.7c-0.7-1.3-1.7-2.3-3-3
			c-1.3-0.7-2.9-1.1-4.8-1.1h-2l1.3-1.3V1048.1z"/>
		<path class="st3" d="M266.6,1050.2l8.3-12.4l-8-11.9h4.4l6.1,9.3h1l6.1-9.3h4.4l-8,11.9l8.3,12.4h-4.4l-6.3-9.8h-1l-6.3,9.8H266.6
			z"/>
		<path class="st3" d="M311.3,1056v-5.9h-19.5v-24.4h3.7v21h12.4v-21h3.7v21h3.4v9.3H311.3z"/>
		<path class="st3" d="M332.5,1040.7c-1.1,0.7-2.2,1.2-3.3,1.5c-1.1,0.3-2.4,0.4-3.8,0.4c-2.9,0-5.1-0.8-6.6-2.3
			c-1.5-1.6-2.2-3.9-2.2-6.9v-7.6h3.7v7.6c0,2,0.5,3.4,1.4,4.4c0.9,1,2.3,1.5,4.2,1.5c1.3,0,2.5-0.2,3.5-0.5c1-0.4,2.1-0.9,3.1-1.7
			v-11.2h3.7v24.4h-3.7V1040.7z"/>
		<path class="st3" d="M341.7,1050.2v-24.4h3.7v21h10v-21h3.7v21h10v-21h3.7v24.4H341.7z"/>
		<path class="st3" d="M409.1,1056v-5.9h-30.7v-24.4h3.7v21h10v-21h3.7v21h10v-21h3.7v21h3.4v9.3H409.1z"/>
		<path class="st3" d="M95.7,1091.1v-21h-6.1v-3.4h9.8v8.3h7.3c1.6,0,3,0.3,4.3,1c1.3,0.7,2.3,1.7,3,2.9c0.7,1.2,1,2.6,1,4.1
			c0,1.5-0.3,2.9-1,4.1c-0.7,1.2-1.7,2.2-3,2.9c-1.3,0.7-2.7,1-4.3,1H95.7z M106.7,1087.7c1.3,0,2.4-0.4,3.3-1.3
			c0.9-0.9,1.3-2,1.3-3.3c0-1.3-0.4-2.4-1.3-3.3c-0.9-0.9-2-1.3-3.3-1.3h-7.3v9.3H106.7z"/>
		<path class="st3" d="M118.6,1091.1v-24.4h3.7v8.3h6.6c1.6,0,3,0.3,4.3,1c1.3,0.7,2.3,1.7,3,2.9c0.7,1.2,1,2.6,1,4.1
			c0,1.5-0.3,2.9-1,4.1c-0.7,1.2-1.7,2.2-3,2.9c-1.3,0.7-2.7,1-4.3,1H118.6z M128.8,1087.7c1.3,0,2.4-0.4,3.3-1.3
			c0.9-0.9,1.3-2,1.3-3.3c0-1.3-0.4-2.4-1.3-3.3c-0.9-0.9-2-1.3-3.3-1.3h-6.6v9.3H128.8z M140.8,1091.1v-24.4h3.7v24.4H140.8z"/>
		<path class="st3" d="M150.1,1091.1v-24.4h3.7v8.3h7.6c1.6,0,3,0.3,4.3,1c1.3,0.7,2.3,1.7,3,2.9c0.7,1.2,1,2.6,1,4.1
			c0,1.5-0.3,2.9-1,4.1c-0.7,1.2-1.7,2.2-3,2.9c-1.3,0.7-2.7,1-4.3,1H150.1z M161.3,1087.7c1.3,0,2.4-0.4,3.3-1.3
			c0.9-0.9,1.3-2,1.3-3.3c0-1.3-0.4-2.4-1.3-3.3c-0.9-0.9-2-1.3-3.3-1.3h-7.6v9.3H161.3z"/>
		<path class="st3" d="M182.3,1091.6c-1.8,0-3.4-0.3-4.9-1c-1.5-0.7-2.7-1.6-3.7-2.9c-1-1.3-1.7-2.7-2.1-4.4h3.7
			c0.5,1.5,1.4,2.7,2.7,3.6c1.3,0.9,2.8,1.3,4.4,1.3c1.4,0,2.6-0.3,3.8-0.9c1.2-0.6,2.1-1.5,2.9-2.6c0.7-1.1,1.2-2.5,1.4-4h-11v-3.4
			h11c-0.2-1.5-0.6-2.9-1.4-4c-0.7-1.1-1.7-2-2.9-2.6c-1.2-0.6-2.4-0.9-3.8-0.9c-1.6,0-3.1,0.4-4.4,1.2c-1.3,0.8-2.2,2-2.7,3.4h-3.7
			c0.4-1.6,1.1-3,2.1-4.2c1-1.2,2.3-2.1,3.8-2.8c1.5-0.7,3.1-1,4.9-1c2.2,0,4.2,0.5,6,1.6c1.8,1.1,3.2,2.6,4.2,4.5
			c1,1.9,1.5,4.1,1.5,6.6c0,2.5-0.5,4.7-1.5,6.6c-1,1.9-2.4,3.4-4.2,4.5C186.4,1091.1,184.4,1091.6,182.3,1091.6z"/>
		<path class="st3" d="M216.6,1091.6c-2,0-3.7-0.5-5.3-1.4c-1.6-0.9-2.9-2.2-4-3.9c-1-1.7-1.7-3.6-1.9-5.8h-3.7v10.5h-3.7v-24.4h3.7
			v10.5h3.7c0.2-2.2,0.9-4.1,1.9-5.8c1-1.7,2.4-2.9,4-3.9c1.6-0.9,3.4-1.4,5.3-1.4c2.1,0,4,0.5,5.7,1.6c1.7,1.1,3,2.6,4,4.5
			c1,1.9,1.5,4.1,1.5,6.6c0,2.5-0.5,4.7-1.5,6.6c-1,1.9-2.3,3.4-4,4.5C220.7,1091.1,218.8,1091.6,216.6,1091.6z M216.6,1088.2
			c1.4,0,2.7-0.4,3.8-1.1c1.1-0.8,2-1.9,2.7-3.3c0.7-1.4,1-3,1-4.9c0-1.8-0.3-3.4-1-4.9c-0.7-1.4-1.6-2.5-2.7-3.3
			c-1.1-0.8-2.4-1.1-3.8-1.1c-1.4,0-2.7,0.4-3.8,1.1c-1.1,0.8-2,1.9-2.7,3.3c-0.7,1.4-1,3-1,4.9c0,1.8,0.3,3.4,1,4.9
			c0.7,1.4,1.6,2.5,2.7,3.3C214,1087.8,215.2,1088.2,216.6,1088.2z"/>
		<path class="st3" d="M230.1,1091.1l10.1-10.1v1.3h-1.6c-1.5,0-2.9-0.3-4.1-1c-1.2-0.6-2.2-1.6-2.9-2.8c-0.7-1.2-1-2.5-1-4.1
			c0-1.5,0.3-2.9,1-4.1c0.7-1.2,1.7-2.1,2.9-2.8c1.2-0.7,2.6-1,4.1-1h11.5v24.4h-3.7v-8.8h-2.9l-8.8,8.8H230.1z M238.6,1078.9h7.8
			v-8.8h-7.8c-1.2,0-2.3,0.4-3.1,1.2c-0.8,0.8-1.3,1.9-1.3,3.2c0,1.3,0.4,2.4,1.3,3.2C236.3,1078.5,237.4,1078.9,238.6,1078.9z"/>
	</g>
</g>
<g>
	<path class="st3" d="M1337.2,674.1c-1.3,0-2.5-0.3-3.5-0.8c-1-0.5-1.8-1.2-2.4-2.1c-0.6-0.9-0.8-1.9-0.8-3h1.9
		c0,0.8,0.2,1.5,0.6,2.1c0.4,0.6,1,1.1,1.7,1.5c0.7,0.4,1.6,0.5,2.6,0.5c0.9,0,1.8-0.2,2.5-0.5c0.7-0.4,1.3-0.9,1.7-1.5
		s0.6-1.4,0.6-2.2c0-1.2-0.4-2.2-1.3-3c-0.9-0.8-2.1-1.2-3.5-1.2h-1.4v-1.8h1.4c0.9,0,1.8-0.2,2.4-0.5s1.2-0.8,1.6-1.5
		c0.4-0.6,0.5-1.3,0.5-2c0-0.7-0.2-1.4-0.6-2c-0.4-0.6-0.9-1.1-1.6-1.4s-1.5-0.5-2.4-0.5c-0.9,0-1.6,0.2-2.3,0.6
		c-0.7,0.4-1.2,0.9-1.6,1.5c-0.4,0.6-0.6,1.2-0.6,1.9h-1.9c0-1,0.3-1.9,0.8-2.8c0.5-0.9,1.3-1.6,2.3-2.1c1-0.5,2.1-0.8,3.3-0.8
		c1.2,0,2.3,0.3,3.3,0.8c1,0.5,1.7,1.2,2.3,2.1c0.5,0.9,0.8,1.9,0.8,2.9c0,0.8-0.2,1.6-0.5,2.2c-0.3,0.7-0.8,1.2-1.3,1.6
		c-0.5,0.4-1.1,0.8-1.6,1v0.1c1,0.3,1.9,0.9,2.6,1.8c0.7,0.9,1.1,1.9,1.1,3.2c0,1.1-0.3,2.1-0.9,3c-0.6,0.9-1.4,1.6-2.4,2.1
		C1339.6,673.8,1338.4,674.1,1337.2,674.1z"/>
	<path class="st3" d="M1355.2,674.1c-1.5,0-2.9-0.4-4.1-1.3c-1.2-0.9-2.2-2.1-2.8-3.7c-0.7-1.6-1.1-3.6-1.1-5.8
		c0-2.2,0.3-4.2,1.1-5.8c0.7-1.6,1.7-2.9,2.8-3.7c1.2-0.8,2.6-1.3,4.1-1.3c1.5,0,2.8,0.4,4,1.3c1.2,0.9,2.1,2.1,2.8,3.7
		s1.1,3.6,1.1,5.8c0,2.2-0.4,4.2-1.1,5.8c-0.7,1.6-1.7,2.9-2.8,3.7C1358,673.7,1356.6,674.1,1355.2,674.1z M1355.2,672.3
		c1.1,0,2.1-0.3,3-1s1.7-1.7,2.2-3.1c0.5-1.4,0.8-3,0.8-4.9s-0.3-3.5-0.8-4.9c-0.5-1.4-1.3-2.4-2.2-3.1c-0.9-0.7-1.9-1-3-1
		c-1.1,0-2.1,0.4-3.1,1c-0.9,0.7-1.7,1.7-2.2,3.1c-0.5,1.4-0.8,3-0.8,4.9s0.3,3.5,0.8,4.9c0.5,1.4,1.3,2.4,2.2,3.1
		S1354,672.3,1355.2,672.3z"/>
	<path class="st3" d="M1374.4,674.1c-1.5,0-2.8-0.4-4.1-1.3c-1.2-0.9-2.1-2.1-2.8-3.7c-0.7-1.6-1-3.6-1-5.8c0-2.2,0.3-4.2,1-5.8
		s1.7-2.9,2.8-3.7c1.2-0.8,2.6-1.3,4.1-1.3c1.5,0,2.8,0.4,4,1.3c1.2,0.9,2.2,2.1,2.8,3.7c0.7,1.6,1.1,3.6,1.1,5.8
		c0,2.2-0.3,4.2-1.1,5.8c-0.7,1.6-1.6,2.9-2.8,3.7C1377.2,673.7,1375.8,674.1,1374.4,674.1z M1374.4,672.3c1.1,0,2.1-0.3,3-1
		s1.7-1.7,2.2-3.1s0.8-3,0.8-4.9s-0.3-3.5-0.8-4.9s-1.3-2.4-2.2-3.1c-0.9-0.7-1.9-1-3-1c-1.1,0-2.1,0.4-3.1,1
		c-0.9,0.7-1.7,1.7-2.2,3.1c-0.5,1.4-0.8,3-0.8,4.9s0.3,3.5,0.8,4.9c0.5,1.4,1.3,2.4,2.2,3.1S1373.2,672.3,1374.4,672.3z"/>
</g>
<g>
	<path class="st3" d="M1340.2,766.8V762h-9.8v-1.8l8.3-14.4h3.9v14.1h2.7v2.1h-2.7v4.8H1340.2z M1333.4,759.9h6.8V749h-0.6
		l-6.2,10.8V759.9z"/>
	<path class="st3" d="M1355.5,767.1c-1.5,0-2.8-0.4-4.1-1.3c-1.2-0.8-2.2-2.1-2.9-3.7c-0.7-1.6-1.1-3.6-1.1-5.8
		c0-2.3,0.4-4.2,1.1-5.8c0.7-1.6,1.7-2.9,2.9-3.7c1.2-0.8,2.6-1.3,4.1-1.3c1.5,0,2.8,0.4,4.1,1.3c1.2,0.8,2.2,2.1,2.9,3.7
		s1.1,3.6,1.1,5.8c0,2.3-0.4,4.2-1.1,5.8s-1.7,2.9-2.9,3.7C1358.3,766.7,1356.9,767.1,1355.5,767.1z M1355.5,764.9c1,0,2-0.3,2.8-1
		c0.9-0.6,1.6-1.6,2.1-2.9s0.8-2.8,0.8-4.7c0-1.8-0.3-3.4-0.8-4.7s-1.2-2.3-2.1-2.9c-0.9-0.6-1.8-1-2.8-1s-2,0.3-2.8,1
		c-0.9,0.7-1.6,1.6-2.1,2.9c-0.5,1.3-0.8,2.8-0.8,4.7c0,1.8,0.3,3.4,0.8,4.7c0.5,1.3,1.2,2.3,2.1,2.9
		C1353.5,764.5,1354.4,764.9,1355.5,764.9z"/>
	<path class="st3" d="M1374.7,767.1c-1.5,0-2.8-0.4-4.1-1.3s-2.2-2.1-2.9-3.7s-1.1-3.6-1.1-5.8c0-2.3,0.4-4.2,1.1-5.8
		s1.7-2.9,2.9-3.7s2.6-1.3,4.1-1.3c1.5,0,2.8,0.4,4.1,1.3s2.2,2.1,2.9,3.7c0.7,1.6,1.1,3.6,1.1,5.8c0,2.3-0.4,4.2-1.1,5.8
		c-0.7,1.6-1.7,2.9-2.9,3.7S1376.1,767.1,1374.7,767.1z M1374.7,764.9c1,0,2-0.3,2.8-1c0.9-0.6,1.6-1.6,2.1-2.9
		c0.5-1.3,0.8-2.8,0.8-4.7c0-1.8-0.3-3.4-0.8-4.7c-0.5-1.3-1.2-2.3-2.1-2.9c-0.9-0.6-1.8-1-2.8-1c-1,0-2,0.3-2.8,1
		c-0.9,0.7-1.6,1.6-2.1,2.9c-0.5,1.3-0.8,2.8-0.8,4.7c0,1.8,0.3,3.4,0.8,4.7c0.5,1.3,1.2,2.3,2.1,2.9
		C1372.7,764.5,1373.6,764.9,1374.7,764.9z"/>
</g>
<g>
	<path class="st3" d="M1337.6,861.2c-1.3,0-2.5-0.3-3.5-0.8c-1-0.5-1.9-1.2-2.5-2.1s-1-2-1.1-3.1h3.2c0.1,0.6,0.3,1.1,0.7,1.6
		s0.8,0.8,1.4,1.1c0.6,0.3,1.2,0.4,1.9,0.4c0.8,0,1.5-0.2,2.1-0.6s1.1-0.9,1.5-1.5s0.5-1.3,0.5-2.1c0-0.8-0.2-1.5-0.5-2.2
		s-0.8-1.1-1.4-1.5c-0.6-0.3-1.3-0.5-2.1-0.5c-0.8,0-1.5,0.1-2.1,0.4c-0.6,0.3-1.1,0.7-1.5,1.2h-3.3l1.2-11.5h11.8v3h-9l-0.6,5.1
		h0.2c0.4-0.3,1-0.6,1.6-0.8c0.6-0.2,1.3-0.3,2.1-0.3c1.3,0,2.4,0.3,3.5,0.9c1,0.6,1.9,1.5,2.5,2.5c0.6,1.1,0.9,2.3,0.9,3.6
		c0,1.4-0.3,2.6-0.9,3.7c-0.6,1.1-1.5,2-2.6,2.6C1340.3,860.9,1339,861.2,1337.6,861.2z"/>
	<path class="st3" d="M1355,861.2c-1.5,0-2.9-0.4-4.2-1.3c-1.3-0.9-2.3-2.1-3-3.7c-0.8-1.6-1.1-3.6-1.1-5.8c0-2.2,0.4-4.2,1.1-5.8
		s1.8-2.9,3-3.7c1.3-0.8,2.7-1.3,4.2-1.3c1.6,0,3,0.4,4.2,1.3c1.3,0.9,2.3,2.1,3,3.7c0.7,1.6,1.1,3.6,1.1,5.8c0,2.2-0.4,4.2-1.1,5.8
		c-0.7,1.6-1.7,2.9-3,3.7C1358,860.8,1356.5,861.2,1355,861.2z M1355,858.2c0.9,0,1.8-0.3,2.6-0.9c0.8-0.6,1.4-1.5,1.9-2.6
		c0.5-1.2,0.7-2.6,0.7-4.2s-0.2-3.1-0.7-4.2c-0.5-1.2-1.1-2-1.9-2.6c-0.8-0.6-1.7-0.9-2.6-0.9c-0.9,0-1.8,0.3-2.6,0.9
		s-1.4,1.5-1.9,2.6c-0.5,1.2-0.7,2.6-0.7,4.2s0.2,3.1,0.7,4.2c0.5,1.2,1.1,2,1.9,2.6S1354.1,858.2,1355,858.2z"/>
	<path class="st3" d="M1374.2,861.2c-1.5,0-2.9-0.4-4.2-1.3c-1.3-0.9-2.3-2.1-3-3.7c-0.8-1.6-1.1-3.6-1.1-5.8c0-2.2,0.4-4.2,1.1-5.8
		s1.8-2.9,3-3.7c1.3-0.8,2.7-1.3,4.2-1.3c1.6,0,3,0.4,4.2,1.3c1.3,0.9,2.3,2.1,3,3.7s1.1,3.6,1.1,5.8c0,2.2-0.4,4.2-1.1,5.8
		c-0.7,1.6-1.7,2.9-3,3.7C1377.2,860.8,1375.7,861.2,1374.2,861.2z M1374.2,858.2c0.9,0,1.8-0.3,2.6-0.9c0.8-0.6,1.4-1.5,1.9-2.6
		s0.7-2.6,0.7-4.2s-0.2-3.1-0.7-4.2s-1.1-2-1.9-2.6c-0.8-0.6-1.7-0.9-2.6-0.9c-0.9,0-1.8,0.3-2.6,0.9c-0.8,0.6-1.4,1.5-1.9,2.6
		c-0.5,1.2-0.7,2.6-0.7,4.2s0.2,3.1,0.7,4.2c0.5,1.2,1.1,2,1.9,2.6C1372.4,857.9,1373.3,858.2,1374.2,858.2z"/>
</g>
<g>
	<path class="st3" d="M1332.2,952.8l7-16.3h-8.9v-4.7h14.4v4.2l-7.2,16.8H1332.2z"/>
	<path class="st3" d="M1354.6,953.1c-1.7,0-3.2-0.4-4.5-1.3c-1.3-0.9-2.4-2.1-3.2-3.7c-0.8-1.6-1.2-3.6-1.2-5.8s0.4-4.1,1.2-5.8
		c0.8-1.6,1.9-2.9,3.2-3.7s2.9-1.3,4.5-1.3s3.2,0.4,4.5,1.3s2.4,2.1,3.2,3.7c0.8,1.6,1.2,3.6,1.2,5.8s-0.4,4.1-1.2,5.8
		c-0.8,1.6-1.8,2.9-3.2,3.7C1357.8,952.7,1356.3,953.1,1354.6,953.1z M1354.6,948.5c0.7,0,1.4-0.2,2.1-0.7c0.6-0.5,1.1-1.1,1.5-2.1
		c0.4-0.9,0.6-2,0.6-3.4s-0.2-2.5-0.6-3.4s-0.9-1.6-1.5-2.1c-0.6-0.5-1.3-0.7-2.1-0.7s-1.4,0.2-2.1,0.7c-0.6,0.5-1.1,1.2-1.5,2.1
		s-0.6,2-0.6,3.4s0.2,2.5,0.6,3.4c0.4,0.9,0.9,1.6,1.5,2.1C1353.2,948.2,1353.9,948.5,1354.6,948.5z"/>
	<path class="st3" d="M1373.8,953.1c-1.7,0-3.2-0.4-4.5-1.3c-1.3-0.9-2.4-2.1-3.2-3.7s-1.2-3.6-1.2-5.8s0.4-4.1,1.2-5.8
		c0.8-1.6,1.9-2.9,3.2-3.7s2.9-1.3,4.5-1.3s3.2,0.4,4.5,1.3c1.4,0.9,2.4,2.1,3.2,3.7c0.8,1.6,1.2,3.6,1.2,5.8s-0.4,4.1-1.2,5.8
		c-0.8,1.6-1.8,2.9-3.2,3.7C1377,952.7,1375.5,953.1,1373.8,953.1z M1373.8,948.5c0.7,0,1.4-0.2,2.1-0.7c0.6-0.5,1.1-1.1,1.5-2.1
		c0.4-0.9,0.6-2,0.6-3.4s-0.2-2.5-0.6-3.4c-0.4-0.9-0.9-1.6-1.5-2.1c-0.6-0.5-1.3-0.7-2.1-0.7s-1.4,0.2-2.1,0.7s-1.1,1.2-1.5,2.1
		c-0.4,0.9-0.6,2-0.6,3.4s0.2,2.5,0.6,3.4c0.4,0.9,0.9,1.6,1.5,2.1S1373.1,948.5,1373.8,948.5z"/>
</g>
<g>
	<path class="st2" d="M146.1,267.2c-9.8,0-18.7-2-26.6-5.9c-7.9-4-14.4-9.3-19.5-16.1c-5.2-6.8-8.6-14.3-10.4-22.6h19.8
		c1.7,5.2,4.2,9.7,7.7,13.7c3.4,4,7.6,7.1,12.6,9.3c5,2.2,10.5,3.3,16.5,3.3c7.1,0,13.6-1.6,19.5-5c5.9-3.3,10.6-7.9,14.2-13.7
		c3.6-5.8,5.8-12.3,6.5-19.4H131v-17.5h55.3c-0.7-7-2.9-13.3-6.5-19c-3.6-5.7-8.3-10.2-14.2-13.5c-5.9-3.3-12.4-5-19.5-5
		c-8.9,0-16.6,2.4-23.1,7.1c-6.5,4.7-11.1,10.8-13.7,18.3H89.6c2.2-8,5.9-15.4,11.1-22.1c5.2-6.7,11.7-11.9,19.5-15.9
		c7.8-3.9,16.5-5.9,25.9-5.9c11,0,21.2,2.8,30.5,8.3c9.3,5.5,16.6,13.2,22,23.1c5.3,9.8,8,21,8,33.5c0,12.5-2.7,23.7-8,33.5
		c-5.3,9.8-12.7,17.5-22,23.1C167.4,264.4,157.2,267.2,146.1,267.2z"/>
	<path class="st2" d="M204.6,266.3v-18.9h5.6c4,0,7.1-1.2,9.5-3.6c2.3-2.4,3.8-6.1,4.2-11l7.7-93.5h81.8v126.1h-19.3V157.7h-44.7
		l-6.7,77.6c-0.8,10.4-3.8,18.2-9,23.3c-5.2,5.1-12.4,7.7-21.8,7.7H204.6z"/>
	<path class="st2" d="M363.8,265.4V157.7h-39.5v-18.4h98v18.4h-39.5v107.7H363.8z"/>
	<path class="st2" d="M410,265.4l46.3-126.1h28.3l46.1,126.1h-20.7l-37.8-105.8h-3.6l-37.8,105.8H410z M437.9,235.3V218h65.6v17.3
		H437.9z"/>
</g>
<g>
	<g>
		<path class="st2" d="M898.7,333.7c-13.4,0-25.7-3.8-36.9-11.4c-11.2-7.6-20.1-18.8-26.7-33.6c-6.6-14.8-9.9-32.5-9.9-53
			c0-20.5,3.3-38.2,9.9-53c6.6-14.8,15.5-26,26.7-33.6c11.2-7.6,23.5-11.4,36.9-11.4c13.4,0,25.7,3.8,36.9,11.4
			c11.2,7.6,20.1,18.8,26.7,33.6c6.6,14.8,9.9,32.5,9.9,53c0,20.5-3.3,38.2-9.9,53c-6.6,14.8-15.5,26-26.7,33.6
			C924.5,329.9,912.2,333.7,898.7,333.7z M898.7,313.2c9.3,0,17.8-3,25.7-8.9c7.9-5.9,14.2-14.7,18.9-26.4
			c4.7-11.7,7.1-25.8,7.1-42.4c0-16.5-2.4-30.6-7.1-42.4c-4.7-11.7-11-20.5-18.9-26.4c-7.9-5.9-16.5-8.9-25.7-8.9
			c-9.3,0-17.8,3-25.7,8.9c-7.9,5.9-14.2,14.7-18.9,26.4c-4.7,11.7-7.1,25.8-7.1,42.4c0,16.5,2.4,30.6,7.1,42.4
			c4.7,11.7,11,20.5,18.9,26.4C880.9,310.3,889.5,313.2,898.7,313.2z"/>
		<path class="st2" d="M1034.9,330.9V181.1h-40.9V162h32.7c2.7,0,4.8-0.7,6.1-2s2-3.4,2-6.1v-13.6h21.8v190.7H1034.9z"/>
		<path class="st2" d="M1093.5,330.9v-17.7l77.6-83.1c5.8-6.2,10-11.9,12.5-17c2.5-5.2,3.8-11.3,3.8-18.4c0-7.3-1.5-13.7-4.6-19.2
			c-3.1-5.5-7.4-9.9-12.9-12.9c-5.5-3.1-11.9-4.6-19.2-4.6c-6.7,0-12.9,1.7-18.5,5.2c-5.6,3.5-10.1,8.3-13.3,14.4
			c-3.3,6.2-4.9,13.3-4.9,21.3h-21.8c0-11.6,2.5-22.1,7.5-31.5c5-9.4,11.9-16.7,20.8-21.9c8.9-5.3,19-7.9,30.2-7.9
			c11.3,0,21.3,2.4,30.2,7.2c8.9,4.8,15.8,11.5,20.8,20.2c5,8.6,7.5,18.6,7.5,29.8c0,7.4-1,14.1-2.9,19.9c-1.9,5.8-4.5,11-7.8,15.7
			c-3.3,4.6-7.5,9.6-12.5,14.8l-61.3,64v1.4h88.5v20.4H1093.5z"/>
		<path class="st2" d="M1296.5,333.7c-12.4,0-23.3-2.4-32.8-7.2c-9.5-4.8-16.9-11.3-22.1-19.3c-5.2-8.1-7.8-16.9-7.8-26.6h21.8
			c0,6,1.6,11.5,4.9,16.5c3.3,5,8,8.9,14.2,11.9c6.2,2.9,13.4,4.4,21.8,4.4c8,0,15.1-1.5,21.2-4.5c6.2-3,11-7.1,14.4-12.3
			c3.4-5.2,5.2-10.9,5.2-17.3c0-10.4-3.8-18.8-11.3-25.5c-7.5-6.6-17.4-9.9-29.6-9.9h-12.3v-20.4h12.3c8,0,14.8-1.5,20.6-4.5
			c5.7-3,10.1-7,13.1-12.1c3-5.1,4.5-10.7,4.5-16.9c0-5.6-1.6-10.9-4.8-15.8c-3.2-4.9-7.7-8.8-13.5-11.7c-5.8-2.9-12.4-4.4-19.9-4.4
			c-7.1,0-13.5,1.5-19.3,4.4c-5.8,2.9-10.4,6.8-13.8,11.6c-3.4,4.8-5,9.9-5,15.4h-21.8c0-9.1,2.5-17.6,7.6-25.5
			c5.1-7.9,12.2-14.3,21.4-19.1c9.2-4.8,19.5-7.2,30.9-7.2c11.6,0,22,2.3,31.1,6.9c9.1,4.6,16.2,11,21.3,19.1
			c5.1,8.1,7.6,17,7.6,26.8c0,7.3-1.5,13.8-4.6,19.6c-3.1,5.8-6.9,10.7-11.4,14.6c-4.5,3.9-9.2,6.7-13.9,8.3v1.4
			c8.4,2.7,15.9,8.1,22.6,16.1c6.7,8,10.1,17.6,10.1,28.9c0,10-2.7,19.1-8,27.4c-5.4,8.3-12.8,14.8-22.3,19.8
			C1319.2,331.2,1308.5,333.7,1296.5,333.7z"/>
		<path class="st2" d="M1468.1,330.9v-43.6h-88.5V271l74.9-130.8h35.4v128h24.5v19.1h-24.5v43.6H1468.1z M1406.8,268.3h61.3v-99.4
			h-5.4l-55.9,98.1V268.3z"/>
	</g>
	<g>
		<path class="st3" d="M864.7,549.9c-10.5,0-20.3-2.1-29.4-6.3c-9.1-4.2-16.6-10.3-22.5-18.3c-5.9-8-9.5-17.5-10.8-28.6h21.8
			c1.3,6.7,3.9,12.5,7.8,17.4c3.9,4.9,8.7,8.7,14.4,11.3c5.7,2.6,11.9,4,18.7,4c8,0,15.3-1.9,22.1-5.9c6.7-3.9,12-9.2,15.8-15.9
			c3.8-6.7,5.7-14.3,5.7-22.6c0-8.7-1.8-16.4-5.4-23c-3.6-6.6-8.6-11.8-15-15.5c-6.4-3.7-13.6-5.6-21.8-5.6
			c-7.6,0-14.7,1.4-21.1,4.2c-6.4,2.8-11.7,6.9-15.7,12.1h-23.2L817,356.5h102.2v20.4h-83.9l-6,55.8h1.4c4.7-4,10.4-7,16.9-9.1
			c6.5-2.1,13.6-3.1,21.2-3.1c10.9,0,21,2.8,30.4,8.4c9.4,5.6,16.8,13.3,22.5,23.2c5.6,9.8,8.4,20.8,8.4,33
			c0,12.4-2.8,23.5-8.4,33.4c-5.6,9.9-13.4,17.6-23.3,23.2C888.4,547.2,877.2,549.9,864.7,549.9z"/>
		<path class="st3" d="M1019.9,549.9c-12,0-23-2.9-33-8.6c-10-5.7-17.9-13.5-23.7-23.3c-5.8-9.8-8.7-20.5-8.7-32.1
			c0-6.4,1.1-13,3.3-19.9c2.2-6.9,4.7-12.5,7.6-16.9l59.9-92.6h24.5l-45,70.8h1.4c2.2-0.7,4.9-1.4,8.2-1.9c3.3-0.5,6.4-0.8,9.5-0.8
			c11.3,0,21.6,2.6,30.9,7.9c9.4,5.3,16.8,12.6,22.2,21.9c5.4,9.4,8.2,19.8,8.2,31.5c0,11.6-2.9,22.3-8.7,32.1
			c-5.8,9.8-13.7,17.6-23.7,23.3C1042.9,547.1,1031.9,549.9,1019.9,549.9z M1019.9,529.5c8,0,15.3-1.9,22.1-5.7
			c6.7-3.8,12-9.1,15.8-15.8c3.8-6.7,5.7-14.1,5.7-22.1c0-8-1.9-15.3-5.7-22.1c-3.8-6.7-9.1-12-15.8-15.8
			c-6.7-3.8-14.1-5.7-22.1-5.7c-8,0-15.3,1.9-22.1,5.7c-6.7,3.8-12,9.1-15.8,15.8c-3.8,6.7-5.7,14.1-5.7,22.1c0,8,1.9,15.3,5.7,22.1
			c3.8,6.7,9.1,12,15.8,15.8C1004.6,527.6,1012,529.5,1019.9,529.5z"/>
		<path class="st3" d="M1120.8,547.2l67-170.3h-95.6v-20.4H1212v17.7l-68.1,173H1120.8z"/>
		<path class="st3" d="M1296.5,549.9c-12.4,0-23.3-2.5-32.8-7.5c-9.5-5-16.9-11.7-22.1-20c-5.2-8.4-7.8-17.3-7.8-27
			c0-7.8,1.5-14.9,4.6-21.2c3.1-6.4,6.9-11.7,11.4-15.9c4.5-4.3,9.2-7.3,13.9-9.1v-1.4c-6.5-3.1-12.5-8.3-17.8-15.5
			c-5.4-7.3-8-15.7-8-25.3c0-9.8,2.5-18.8,7.5-27c5-8.2,12-14.6,21-19.2c9-4.6,19-6.9,30.1-6.9c11.1,0,21.1,2.3,30.1,6.9
			c9,4.6,16,11,21,19.2c5,8.2,7.5,17.2,7.5,27c0,9.6-2.7,18.1-8,25.3c-5.4,7.3-11.3,12.4-17.8,15.5v1.4c7.6,3.1,14.5,8.8,20.7,17
			c6.2,8.3,9.3,18,9.3,29.3c0,9.4-2.6,18.3-7.8,26.7c-5.2,8.4-12.5,15.1-22.1,20.2C1319.8,547.4,1308.8,549.9,1296.5,549.9z
			 M1296.5,529.5c7.6,0,14.6-1.5,20.8-4.6c6.3-3.1,11.2-7.3,14.7-12.7c3.5-5.4,5.3-11.4,5.3-18.1c0-6.7-1.8-12.8-5.3-18.1
			c-3.5-5.4-8.4-9.6-14.7-12.7c-6.3-3.1-13.2-4.6-20.8-4.6s-14.6,1.5-20.8,4.6c-6.3,3.1-11.2,7.3-14.7,12.7
			c-3.5,5.4-5.3,11.4-5.3,18.1c0,6.7,1.8,12.8,5.3,18.1c3.5,5.4,8.4,9.6,14.7,12.7C1281.9,528,1288.8,529.5,1296.5,529.5z
			 M1296.5,439.6c7.4,0,13.9-1.5,19.5-4.4c5.5-2.9,9.8-6.9,12.8-11.9c3-5,4.5-10.5,4.5-16.5c0-6-1.5-11.5-4.5-16.5
			c-3-5-7.3-8.9-12.8-11.9c-5.5-2.9-12-4.4-19.5-4.4c-7.4,0-13.9,1.5-19.5,4.4c-5.5,2.9-9.8,6.9-12.8,11.9c-3,5-4.5,10.5-4.5,16.5
			c0,6,1.5,11.5,4.5,16.5c3,5,7.3,8.9,12.8,11.9C1282.5,438.1,1289,439.6,1296.5,439.6z"/>
		<path class="st3" d="M1419.1,547.2l45-70.8h-1.4c-2.2,0.7-4.9,1.4-8.2,1.9c-3.3,0.5-6.4,0.8-9.5,0.8c-11.3,0-21.6-2.6-30.9-7.9
			c-9.4-5.3-16.8-12.6-22.2-21.9c-5.4-9.4-8.2-19.8-8.2-31.5c0-11.6,2.9-22.3,8.7-32.1c5.8-9.8,13.7-17.6,23.7-23.3
			c10-5.7,21-8.6,33-8.6s23,2.9,33,8.6c10,5.7,17.9,13.5,23.7,23.3c5.8,9.8,8.7,20.5,8.7,32.1c0,6.4-1.1,13-3.3,19.9
			c-2.2,6.9-4.7,12.5-7.6,16.9l-59.9,92.6H1419.1z M1449,461.4c8,0,15.3-1.9,22.1-5.7c6.7-3.8,12-9.1,15.8-15.8
			c3.8-6.7,5.7-14.1,5.7-22.1c0-8-1.9-15.3-5.7-22.1c-3.8-6.7-9.1-12-15.8-15.8c-6.7-3.8-14.1-5.7-22.1-5.7c-8,0-15.4,1.9-22.1,5.7
			c-6.7,3.8-12,9.1-15.8,15.8c-3.8,6.7-5.7,14.1-5.7,22.1c0,8,1.9,15.3,5.7,22.1c3.8,6.7,9.1,12,15.8,15.8
			C1433.7,459.5,1441,461.4,1449,461.4z"/>
	</g>
</g>
</svg>
