<?xml version="1.0" encoding="utf-8"?>
<!-- Generator: Adobe Illustrator 22.0.0, SVG Export Plug-In . SVG Version: 6.00 Build 0)  -->
<svg version="1.1" id="Layer_1" xmlns="http://www.w3.org/2000/svg" xmlns:xlink="http://www.w3.org/1999/xlink" x="0px" y="0px"
	 viewBox="0 0 1600 1163.6" style="enable-background:new 0 0 1600 1163.6;" xml:space="preserve">
<style type="text/css">
	.st0{fill:#1B1B2D;}
	.st1{fill:none;stroke:#FFFFFF;stroke-miterlimit:10;}
	.st2{fill:none;stroke:#FFFFFF;stroke-miterlimit:10;stroke-dasharray:6.0027,6.0027;}
	.st3{fill:none;stroke:#FFFFFF;stroke-miterlimit:10;stroke-dasharray:5.9846,5.9846;}
	.st4{fill:none;stroke:#FFFFFF;stroke-miterlimit:10;stroke-dasharray:6.0176,6.0176;}
	.st5{fill:#FFFFFF;}
	.st6{fill:#1B1B2D;stroke:#FFFFFF;stroke-miterlimit:10;}
</style>
<rect y="0" class="st0" width="1600" height="1163.6"/>
<g>
	<line class="st1" x1="1600" y1="158.1" x2="0" y2="158.1"/>
	<line class="st1" x1="1600" y1="1005.6" x2="0" y2="1005.6"/>
	<line class="st1" x1="1600" y1="897.3" x2="0" y2="897.3"/>
	<line class="st1" x1="1600" y1="831.5" x2="0" y2="831.5"/>
	<line class="st1" x1="1600" y1="732.3" x2="0" y2="732.3"/>
	<line class="st1" x1="1600" y1="631.3" x2="0" y2="631.3"/>
	<line class="st1" x1="1600" y1="532.3" x2="0" y2="532.3"/>
	<line class="st1" x1="1600" y1="431.3" x2="0" y2="431.3"/>
	<line class="st1" x1="1600" y1="332.2" x2="0" y2="332.2"/>
	<line class="st1" x1="1600" y1="265.3" x2="0" y2="265.3"/>
</g>
<line class="st1" x1="400" y1="0" x2="400" y2="1163.6"/>
<line class="st1" x1="301" y1="0" x2="301" y2="1163.6"/>
<line class="st1" x1="1200" y1="0" x2="1200" y2="1163.6"/>
<line class="st1" x1="900" y1="0" x2="900" y2="1163.6"/>
<line class="st1" x1="600" y1="0" x2="600" y2="1163.6"/>
<line class="st1" x1="800" y1="0" x2="800" y2="1163.6"/>
<g>
	<circle class="st2" cx="750" cy="581.8" r="449"/>
</g>
<g>
	<circle class="st3" cx="750" cy="581.8" r="351"/>
</g>
<g>
	<circle class="st4" cx="750" cy="581.8" r="249"/>
</g>
<line class="st1" x1="501" y1="0" x2="501" y2="1163.6"/>
<g>
	<path class="st5" d="M1200,581.8c0,92.9-28.8,183.5-82.5,259.4S988,974.5,900.3,1005.6V897.8c59.9-28.4,110.5-73.1,145.9-129.1
		c35.4-56,54.2-120.8,54.2-187s-18.9-131-54.4-187c-35.5-55.9-86.1-100.6-146.1-128.9V158.1c87.7,31,163.7,88.4,217.4,164.3
		C1171.1,398.3,1200,488.9,1200,581.8z"/>
	<rect x="400" y="531.9" class="st5" width="400" height="99.9"/>
	<path class="st5" d="M1000,581.8c0-32.8-6.5-65.3-19-95.6c-12.6-30.3-31-57.8-54.2-81s-50.8-41.6-81.1-54.1s-62.8-19-95.7-19H600.1
		V432H900v299.6H600v99.9h149.8c32.8,0,65.4-6.4,95.7-19c30.3-12.5,57.9-30.9,81.1-54.1c23.2-23.2,41.7-50.7,54.2-81
		C993.5,647.1,1000,614.6,1000,581.8z"/>
</g>
<rect x="288.8" y="145.8" class="st6" width="97.3" height="24.5"/>
<g>
	<path class="st5" d="M294.7,163.5l3.8-5.5l-3.5-5.2h1.4l2.8,4.2h0.3l2.8-4.2h1.4l-3.5,5.2l3.8,5.5h-1.4l-3-4.5h-0.3l-3,4.5H294.7z"
		/>
	<path class="st5" d="M309.7,163.7c-0.7,0-1.3-0.1-1.8-0.4c-0.5-0.3-0.9-0.6-1.2-1.1c-0.3-0.5-0.4-1-0.4-1.5h1.2
		c0,0.3,0.1,0.6,0.3,0.9c0.2,0.3,0.4,0.5,0.8,0.7c0.3,0.2,0.8,0.2,1.2,0.2c0.4,0,0.8-0.1,1.2-0.3c0.3-0.2,0.6-0.4,0.8-0.7
		c0.2-0.3,0.3-0.6,0.3-1c0-0.6-0.2-1.1-0.6-1.4c-0.4-0.4-1-0.6-1.7-0.6H309v-1.1h0.7c0.4,0,0.8-0.1,1.2-0.3c0.3-0.2,0.6-0.4,0.7-0.7
		s0.3-0.6,0.3-0.9c0-0.3-0.1-0.6-0.3-0.9c-0.2-0.3-0.4-0.5-0.8-0.7c-0.3-0.2-0.7-0.2-1.1-0.2c-0.4,0-0.8,0.1-1.1,0.2
		c-0.3,0.2-0.6,0.4-0.8,0.7c-0.2,0.3-0.3,0.6-0.3,0.9h-1.2c0-0.5,0.1-1,0.4-1.4s0.7-0.8,1.2-1.1c0.5-0.3,1.1-0.4,1.7-0.4
		c0.7,0,1.2,0.1,1.7,0.4s0.9,0.6,1.2,1.1c0.3,0.5,0.4,1,0.4,1.5c0,0.4-0.1,0.8-0.3,1.1s-0.4,0.6-0.6,0.8c-0.3,0.2-0.5,0.4-0.8,0.5
		v0.1c0.5,0.2,0.9,0.5,1.3,0.9c0.4,0.4,0.6,1,0.6,1.6c0,0.6-0.2,1.1-0.5,1.5c-0.3,0.5-0.7,0.8-1.3,1.1
		C311,163.5,310.4,163.7,309.7,163.7z"/>
	<path class="st5" d="M318.3,163.7c-0.8,0-1.4-0.2-2.1-0.6s-1.1-1.1-1.5-1.9s-0.6-1.8-0.6-3c0-1.2,0.2-2.1,0.6-3s0.9-1.5,1.5-1.9
		c0.6-0.4,1.3-0.6,2.1-0.6c0.8,0,1.4,0.2,2.1,0.6c0.6,0.4,1.1,1.1,1.5,1.9s0.6,1.8,0.6,3c0,1.2-0.2,2.1-0.6,3s-0.9,1.5-1.5,1.9
		S319.1,163.7,318.3,163.7z M318.3,162.5c0.5,0,1-0.2,1.4-0.5s0.8-0.8,1.1-1.5c0.3-0.7,0.4-1.5,0.4-2.4c0-0.9-0.1-1.7-0.4-2.4
		c-0.3-0.7-0.6-1.2-1.1-1.5s-0.9-0.5-1.4-0.5s-1,0.2-1.4,0.5c-0.4,0.3-0.8,0.8-1.1,1.5c-0.3,0.7-0.4,1.5-0.4,2.4
		c0,0.9,0.1,1.7,0.4,2.4c0.3,0.7,0.6,1.2,1.1,1.5C317.3,162.3,317.8,162.5,318.3,162.5z"/>
	<path class="st5" d="M327.5,163.7c-0.8,0-1.4-0.2-2.1-0.6s-1.1-1.1-1.5-1.9s-0.6-1.8-0.6-3c0-1.2,0.2-2.1,0.6-3s0.9-1.5,1.5-1.9
		c0.6-0.4,1.3-0.6,2.1-0.6c0.8,0,1.4,0.2,2.1,0.6c0.6,0.4,1.1,1.1,1.5,1.9s0.6,1.8,0.6,3c0,1.2-0.2,2.1-0.6,3s-0.9,1.5-1.5,1.9
		S328.2,163.7,327.5,163.7z M327.5,162.5c0.5,0,1-0.2,1.4-0.5s0.8-0.8,1.1-1.5c0.3-0.7,0.4-1.5,0.4-2.4c0-0.9-0.1-1.7-0.4-2.4
		c-0.3-0.7-0.6-1.2-1.1-1.5s-0.9-0.5-1.4-0.5s-1,0.2-1.4,0.5c-0.4,0.3-0.8,0.8-1.1,1.5c-0.3,0.7-0.4,1.5-0.4,2.4
		c0,0.9,0.1,1.7,0.4,2.4c0.3,0.7,0.6,1.2,1.1,1.5C326.5,162.3,327,162.5,327.5,162.5z"/>
	<path class="st5" d="M332.6,163.5v-1.4h1.4v1.4H332.6z"/>
	<path class="st5" d="M339.1,163.7c-0.8,0-1.4-0.2-2.1-0.6s-1.1-1.1-1.5-1.9s-0.6-1.8-0.6-3c0-1.2,0.2-2.1,0.6-3s0.9-1.5,1.5-1.9
		c0.6-0.4,1.3-0.6,2.1-0.6c0.8,0,1.4,0.2,2.1,0.6c0.6,0.4,1.1,1.1,1.5,1.9s0.6,1.8,0.6,3c0,1.2-0.2,2.1-0.6,3s-0.9,1.5-1.5,1.9
		S339.9,163.7,339.1,163.7z M339.1,162.5c0.5,0,1-0.2,1.4-0.5s0.8-0.8,1.1-1.5c0.3-0.7,0.4-1.5,0.4-2.4c0-0.9-0.1-1.7-0.4-2.4
		c-0.3-0.7-0.6-1.2-1.1-1.5s-0.9-0.5-1.4-0.5s-1,0.2-1.4,0.5c-0.4,0.3-0.8,0.8-1.1,1.5c-0.3,0.7-0.4,1.5-0.4,2.4
		c0,0.9,0.1,1.7,0.4,2.4c0.3,0.7,0.6,1.2,1.1,1.5C338.1,162.3,338.6,162.5,339.1,162.5z"/>
	<path class="st5" d="M348.3,163.7c-0.8,0-1.4-0.2-2.1-0.6s-1.1-1.1-1.5-1.9s-0.6-1.8-0.6-3c0-1.2,0.2-2.1,0.6-3s0.9-1.5,1.5-1.9
		c0.6-0.4,1.3-0.6,2.1-0.6c0.8,0,1.4,0.2,2.1,0.6c0.6,0.4,1.1,1.1,1.5,1.9s0.6,1.8,0.6,3c0,1.2-0.2,2.1-0.6,3s-0.9,1.5-1.5,1.9
		S349.1,163.7,348.3,163.7z M348.3,162.5c0.5,0,1-0.2,1.4-0.5s0.8-0.8,1.1-1.5c0.3-0.7,0.4-1.5,0.4-2.4c0-0.9-0.1-1.7-0.4-2.4
		c-0.3-0.7-0.6-1.2-1.1-1.5s-0.9-0.5-1.4-0.5s-1,0.2-1.4,0.5c-0.4,0.3-0.8,0.8-1.1,1.5c-0.3,0.7-0.4,1.5-0.4,2.4
		c0,0.9,0.1,1.7,0.4,2.4c0.3,0.7,0.6,1.2,1.1,1.5C347.3,162.3,347.8,162.5,348.3,162.5z"/>
</g>
<rect x="489.3" y="145.8" class="st6" width="97.3" height="24.5"/>
<g>
	<path class="st5" d="M495.2,163.5l3.8-5.5l-3.5-5.2h1.4l2.8,4.2h0.3l2.8-4.2h1.4l-3.5,5.2l3.8,5.5h-1.4l-3-4.5h-0.3l-3,4.5H495.2z"
		/>
	<path class="st5" d="M510.4,163.7c-0.6,0-1.1-0.1-1.7-0.4c-0.5-0.2-0.9-0.6-1.3-1c-0.3-0.4-0.5-1-0.6-1.6h1.2
		c0.1,0.4,0.2,0.7,0.4,1c0.2,0.3,0.5,0.5,0.8,0.6s0.7,0.2,1,0.2c0.4,0,0.9-0.1,1.2-0.3c0.4-0.2,0.7-0.5,0.9-0.9
		c0.2-0.4,0.3-0.8,0.3-1.3c0-0.5-0.1-0.9-0.3-1.3s-0.5-0.7-0.8-0.9c-0.4-0.2-0.8-0.3-1.2-0.3c-0.4,0-0.8,0.1-1.2,0.2
		c-0.4,0.2-0.7,0.4-0.9,0.7h-1.3l0.6-5.7h5.7v1.1h-4.7l-0.3,3.1h0.1c0.3-0.2,0.6-0.4,0.9-0.5c0.4-0.1,0.8-0.2,1.2-0.2
		c0.6,0,1.2,0.2,1.7,0.5c0.5,0.3,0.9,0.8,1.3,1.3c0.3,0.6,0.5,1.2,0.5,1.9c0,0.7-0.2,1.3-0.5,1.9c-0.3,0.6-0.8,1-1.3,1.3
		C511.7,163.5,511.1,163.7,510.4,163.7z"/>
	<path class="st5" d="M518.7,163.7c-0.8,0-1.4-0.2-2.1-0.6s-1.1-1.1-1.5-1.9s-0.6-1.8-0.6-3c0-1.2,0.2-2.1,0.6-3s0.9-1.5,1.5-1.9
		c0.6-0.4,1.3-0.6,2.1-0.6c0.8,0,1.4,0.2,2.1,0.6c0.6,0.4,1.1,1.1,1.5,1.9s0.6,1.8,0.6,3c0,1.2-0.2,2.1-0.6,3s-0.9,1.5-1.5,1.9
		S519.5,163.7,518.7,163.7z M518.7,162.5c0.5,0,1-0.2,1.4-0.5s0.8-0.8,1.1-1.5c0.3-0.7,0.4-1.5,0.4-2.4c0-0.9-0.1-1.7-0.4-2.4
		c-0.3-0.7-0.6-1.2-1.1-1.5s-0.9-0.5-1.4-0.5s-1,0.2-1.4,0.5c-0.4,0.3-0.8,0.8-1.1,1.5c-0.3,0.7-0.4,1.5-0.4,2.4
		c0,0.9,0.1,1.7,0.4,2.4c0.3,0.7,0.6,1.2,1.1,1.5C517.7,162.3,518.2,162.5,518.7,162.5z"/>
	<path class="st5" d="M527.9,163.7c-0.8,0-1.4-0.2-2.1-0.6s-1.1-1.1-1.5-1.9s-0.6-1.8-0.6-3c0-1.2,0.2-2.1,0.6-3s0.9-1.5,1.5-1.9
		c0.6-0.4,1.3-0.6,2.1-0.6c0.8,0,1.4,0.2,2.1,0.6c0.6,0.4,1.1,1.1,1.5,1.9s0.6,1.8,0.6,3c0,1.2-0.2,2.1-0.6,3s-0.9,1.5-1.5,1.9
		S528.7,163.7,527.9,163.7z M527.9,162.5c0.5,0,1-0.2,1.4-0.5s0.8-0.8,1.1-1.5c0.3-0.7,0.4-1.5,0.4-2.4c0-0.9-0.1-1.7-0.4-2.4
		c-0.3-0.7-0.6-1.2-1.1-1.5s-0.9-0.5-1.4-0.5s-1,0.2-1.4,0.5c-0.4,0.3-0.8,0.8-1.1,1.5c-0.3,0.7-0.4,1.5-0.4,2.4
		c0,0.9,0.1,1.7,0.4,2.4c0.3,0.7,0.6,1.2,1.1,1.5C526.9,162.3,527.4,162.5,527.9,162.5z"/>
	<path class="st5" d="M533,163.5v-1.4h1.4v1.4H533z"/>
	<path class="st5" d="M539.5,163.7c-0.8,0-1.4-0.2-2.1-0.6s-1.1-1.1-1.5-1.9s-0.6-1.8-0.6-3c0-1.2,0.2-2.1,0.6-3s0.9-1.5,1.5-1.9
		c0.6-0.4,1.3-0.6,2.1-0.6c0.8,0,1.4,0.2,2.1,0.6c0.6,0.4,1.1,1.1,1.5,1.9s0.6,1.8,0.6,3c0,1.2-0.2,2.1-0.6,3s-0.9,1.5-1.5,1.9
		S540.3,163.7,539.5,163.7z M539.5,162.5c0.5,0,1-0.2,1.4-0.5s0.8-0.8,1.1-1.5c0.3-0.7,0.4-1.5,0.4-2.4c0-0.9-0.1-1.7-0.4-2.4
		c-0.3-0.7-0.6-1.2-1.1-1.5s-0.9-0.5-1.4-0.5s-1,0.2-1.4,0.5c-0.4,0.3-0.8,0.8-1.1,1.5c-0.3,0.7-0.4,1.5-0.4,2.4
		c0,0.9,0.1,1.7,0.4,2.4c0.3,0.7,0.6,1.2,1.1,1.5C538.5,162.3,539,162.5,539.5,162.5z"/>
	<path class="st5" d="M548.7,163.7c-0.8,0-1.4-0.2-2.1-0.6s-1.1-1.1-1.5-1.9s-0.6-1.8-0.6-3c0-1.2,0.2-2.1,0.6-3s0.9-1.5,1.5-1.9
		c0.6-0.4,1.3-0.6,2.1-0.6c0.8,0,1.4,0.2,2.1,0.6c0.6,0.4,1.1,1.1,1.5,1.9s0.6,1.8,0.6,3c0,1.2-0.2,2.1-0.6,3s-0.9,1.5-1.5,1.9
		S549.5,163.7,548.7,163.7z M548.7,162.5c0.5,0,1-0.2,1.4-0.5s0.8-0.8,1.1-1.5c0.3-0.7,0.4-1.5,0.4-2.4c0-0.9-0.1-1.7-0.4-2.4
		c-0.3-0.7-0.6-1.2-1.1-1.5s-0.9-0.5-1.4-0.5s-1,0.2-1.4,0.5c-0.4,0.3-0.8,0.8-1.1,1.5c-0.3,0.7-0.4,1.5-0.4,2.4
		c0,0.9,0.1,1.7,0.4,2.4c0.3,0.7,0.6,1.2,1.1,1.5C547.7,162.3,548.2,162.5,548.7,162.5z"/>
</g>
<path class="st6" d="M402.4,785.1h-72.8c-6.8,0-12.3-5.5-12.3-12.3l0,0c0-6.8,5.5-12.3,12.3-12.3h72.8c6.8,0,12.3,5.5,12.3,12.3l0,0
	C414.6,779.7,409.1,785.1,402.4,785.1z"/>
<g>
	<path class="st5" d="M328.4,778.3v-10.7h4.7c0.6,0,1.1,0.1,1.5,0.4c0.5,0.3,0.8,0.7,1.1,1.2c0.3,0.5,0.4,1.1,0.4,1.7
		c0,0.6-0.1,1.2-0.4,1.7c-0.3,0.5-0.6,0.9-1.1,1.2c-0.5,0.3-1,0.4-1.5,0.4h-1.3v-0.3l4.6,4.4h-1.5l-4.3-4.1h-0.9v4.1H328.4z
		 M333,773c0.3,0,0.6-0.1,0.9-0.3c0.3-0.2,0.5-0.4,0.7-0.8c0.2-0.3,0.2-0.7,0.2-1.1c0-0.6-0.2-1.1-0.5-1.5c-0.4-0.4-0.8-0.6-1.3-0.6
		h-3.4v4.3H333z"/>
	<path class="st5" d="M341.5,778.3l2.5-4H344c-0.1,0-0.3,0.1-0.5,0.1c-0.2,0-0.4,0-0.5,0c-0.6,0-1.2-0.1-1.7-0.4
		c-0.5-0.3-0.9-0.7-1.2-1.2s-0.5-1.1-0.5-1.8s0.2-1.3,0.5-1.8s0.8-1,1.3-1.3c0.6-0.3,1.2-0.5,1.9-0.5s1.3,0.2,1.9,0.5
		c0.6,0.3,1,0.8,1.3,1.3s0.5,1.2,0.5,1.8c0,0.4-0.1,0.7-0.2,1.1c-0.1,0.4-0.3,0.7-0.4,0.9l-3.4,5.2H341.5z M343.2,773.5
		c0.4,0,0.9-0.1,1.2-0.3c0.4-0.2,0.7-0.5,0.9-0.9c0.2-0.4,0.3-0.8,0.3-1.2c0-0.4-0.1-0.9-0.3-1.2c-0.2-0.4-0.5-0.7-0.9-0.9
		c-0.4-0.2-0.8-0.3-1.2-0.3c-0.4,0-0.9,0.1-1.2,0.3c-0.4,0.2-0.7,0.5-0.9,0.9c-0.2,0.4-0.3,0.8-0.3,1.2c0,0.4,0.1,0.9,0.3,1.2
		c0.2,0.4,0.5,0.7,0.9,0.9C342.3,773.4,342.7,773.5,343.2,773.5z"/>
	<path class="st5" d="M351.7,778.5c-0.8,0-1.4-0.2-2.1-0.6c-0.6-0.4-1.1-1.1-1.5-1.9s-0.6-1.8-0.6-3c0-1.2,0.2-2.1,0.6-3
		s0.9-1.5,1.5-1.9c0.6-0.4,1.3-0.6,2.1-0.6c0.8,0,1.4,0.2,2.1,0.6c0.6,0.4,1.1,1.1,1.5,1.9s0.6,1.8,0.6,3c0,1.2-0.2,2.1-0.6,3
		s-0.9,1.5-1.5,1.9C353.1,778.2,352.4,778.5,351.7,778.5z M351.7,777.3c0.5,0,1-0.2,1.4-0.5s0.8-0.8,1.1-1.5
		c0.3-0.7,0.4-1.5,0.4-2.4c0-0.9-0.1-1.7-0.4-2.4c-0.3-0.7-0.6-1.2-1.1-1.5s-0.9-0.5-1.4-0.5s-1,0.2-1.4,0.5
		c-0.4,0.3-0.8,0.8-1.1,1.5c-0.3,0.7-0.4,1.5-0.4,2.4c0,0.9,0.1,1.7,0.4,2.4c0.3,0.7,0.6,1.2,1.1,1.5
		C350.7,777.1,351.2,777.3,351.7,777.3z"/>
	<path class="st5" d="M360.9,778.5c-0.8,0-1.4-0.2-2.1-0.6c-0.6-0.4-1.1-1.1-1.5-1.9s-0.6-1.8-0.6-3c0-1.2,0.2-2.1,0.6-3
		s0.9-1.5,1.5-1.9c0.6-0.4,1.3-0.6,2.1-0.6c0.8,0,1.4,0.2,2.1,0.6c0.6,0.4,1.1,1.1,1.5,1.9s0.6,1.8,0.6,3c0,1.2-0.2,2.1-0.6,3
		s-0.9,1.5-1.5,1.9C362.3,778.2,361.6,778.5,360.9,778.5z M360.9,777.3c0.5,0,1-0.2,1.4-0.5s0.8-0.8,1.1-1.5
		c0.3-0.7,0.4-1.5,0.4-2.4c0-0.9-0.1-1.7-0.4-2.4c-0.3-0.7-0.6-1.2-1.1-1.5s-0.9-0.5-1.4-0.5s-1,0.2-1.4,0.5
		c-0.4,0.3-0.8,0.8-1.1,1.5c-0.3,0.7-0.4,1.5-0.4,2.4c0,0.9,0.1,1.7,0.4,2.4c0.3,0.7,0.6,1.2,1.1,1.5
		C359.9,777.1,360.4,777.3,360.9,777.3z"/>
	<path class="st5" d="M366,778.3v-1.4h1.4v1.4H366z"/>
	<path class="st5" d="M372.5,778.5c-0.8,0-1.4-0.2-2.1-0.6c-0.6-0.4-1.1-1.1-1.5-1.9s-0.6-1.8-0.6-3c0-1.2,0.2-2.1,0.6-3
		s0.9-1.5,1.5-1.9c0.6-0.4,1.3-0.6,2.1-0.6c0.8,0,1.4,0.2,2.1,0.6c0.6,0.4,1.1,1.1,1.5,1.9s0.6,1.8,0.6,3c0,1.2-0.2,2.1-0.6,3
		s-0.9,1.5-1.5,1.9C374,778.2,373.3,778.5,372.5,778.5z M372.5,777.3c0.5,0,1-0.2,1.4-0.5s0.8-0.8,1.1-1.5c0.3-0.7,0.4-1.5,0.4-2.4
		c0-0.9-0.1-1.7-0.4-2.4c-0.3-0.7-0.6-1.2-1.1-1.5s-0.9-0.5-1.4-0.5s-1,0.2-1.4,0.5c-0.4,0.3-0.8,0.8-1.1,1.5
		c-0.3,0.7-0.4,1.5-0.4,2.4c0,0.9,0.1,1.7,0.4,2.4c0.3,0.7,0.6,1.2,1.1,1.5C371.5,777.1,372,777.3,372.5,777.3z"/>
	<path class="st5" d="M381.7,778.5c-0.8,0-1.4-0.2-2.1-0.6c-0.6-0.4-1.1-1.1-1.5-1.9s-0.6-1.8-0.6-3c0-1.2,0.2-2.1,0.6-3
		s0.9-1.5,1.5-1.9c0.6-0.4,1.3-0.6,2.1-0.6c0.8,0,1.4,0.2,2.1,0.6c0.6,0.4,1.1,1.1,1.5,1.9s0.6,1.8,0.6,3c0,1.2-0.2,2.1-0.6,3
		s-0.9,1.5-1.5,1.9C383.1,778.2,382.4,778.5,381.7,778.5z M381.7,777.3c0.5,0,1-0.2,1.4-0.5s0.8-0.8,1.1-1.5
		c0.3-0.7,0.4-1.5,0.4-2.4c0-0.9-0.1-1.7-0.4-2.4c-0.3-0.7-0.6-1.2-1.1-1.5s-0.9-0.5-1.4-0.5s-1,0.2-1.4,0.5
		c-0.4,0.3-0.8,0.8-1.1,1.5c-0.3,0.7-0.4,1.5-0.4,2.4c0,0.9,0.1,1.7,0.4,2.4c0.3,0.7,0.6,1.2,1.1,1.5
		C380.7,777.1,381.2,777.3,381.7,777.3z"/>
</g>
<path class="st6" d="M596.4,872.1h-72.8c-6.8,0-12.3-5.5-12.3-12.3l0,0c0-6.8,5.5-12.3,12.3-12.3h72.8c6.8,0,12.3,5.5,12.3,12.3l0,0
	C608.6,866.7,603.1,872.1,596.4,872.1z"/>
<g>
	<path class="st5" d="M522.4,865.3v-10.7h4.7c0.6,0,1.1,0.1,1.5,0.4c0.5,0.3,0.8,0.7,1.1,1.2c0.3,0.5,0.4,1.1,0.4,1.7
		c0,0.6-0.1,1.2-0.4,1.7c-0.3,0.5-0.6,0.9-1.1,1.2c-0.5,0.3-1,0.4-1.5,0.4h-1.3v-0.3l4.6,4.4h-1.5l-4.3-4.1h-0.9v4.1H522.4z
		 M527,860c0.3,0,0.6-0.1,0.9-0.3c0.3-0.2,0.5-0.4,0.7-0.8c0.2-0.3,0.2-0.7,0.2-1.1c0-0.6-0.2-1.1-0.5-1.5c-0.4-0.4-0.8-0.6-1.3-0.6
		h-3.4v4.3H527z"/>
	<path class="st5" d="M534.6,865.3l3.8-9.6H533v-1.1h6.7v1l-3.8,9.7H534.6z"/>
	<path class="st5" d="M544.1,865.5c-0.8,0-1.4-0.2-2.1-0.6c-0.6-0.4-1.1-1.1-1.5-1.9s-0.6-1.8-0.6-3c0-1.2,0.2-2.1,0.6-3
		s0.9-1.5,1.5-1.9c0.6-0.4,1.3-0.6,2.1-0.6c0.8,0,1.4,0.2,2.1,0.6c0.6,0.4,1.1,1.1,1.5,1.9s0.6,1.8,0.6,3c0,1.2-0.2,2.1-0.6,3
		s-0.9,1.5-1.5,1.9C545.5,865.2,544.8,865.5,544.1,865.5z M544.1,864.3c0.5,0,1-0.2,1.4-0.5s0.8-0.8,1.1-1.5
		c0.3-0.7,0.4-1.5,0.4-2.4c0-0.9-0.1-1.7-0.4-2.4c-0.3-0.7-0.6-1.2-1.1-1.5s-0.9-0.5-1.4-0.5s-1,0.2-1.4,0.5
		c-0.4,0.3-0.8,0.8-1.1,1.5c-0.3,0.7-0.4,1.5-0.4,2.4c0,0.9,0.1,1.7,0.4,2.4c0.3,0.7,0.6,1.2,1.1,1.5
		C543.1,864.1,543.6,864.3,544.1,864.3z"/>
	<path class="st5" d="M553.3,865.5c-0.8,0-1.4-0.2-2.1-0.6c-0.6-0.4-1.1-1.1-1.5-1.9s-0.6-1.8-0.6-3c0-1.2,0.2-2.1,0.6-3
		s0.9-1.5,1.5-1.9c0.6-0.4,1.3-0.6,2.1-0.6c0.8,0,1.4,0.2,2.1,0.6c0.6,0.4,1.1,1.1,1.5,1.9s0.6,1.8,0.6,3c0,1.2-0.2,2.1-0.6,3
		s-0.9,1.5-1.5,1.9C554.7,865.2,554,865.5,553.3,865.5z M553.3,864.3c0.5,0,1-0.2,1.4-0.5s0.8-0.8,1.1-1.5c0.3-0.7,0.4-1.5,0.4-2.4
		c0-0.9-0.1-1.7-0.4-2.4c-0.3-0.7-0.6-1.2-1.1-1.5s-0.9-0.5-1.4-0.5s-1,0.2-1.4,0.5c-0.4,0.3-0.8,0.8-1.1,1.5
		c-0.3,0.7-0.4,1.5-0.4,2.4c0,0.9,0.1,1.7,0.4,2.4c0.3,0.7,0.6,1.2,1.1,1.5C552.3,864.1,552.7,864.3,553.3,864.3z"/>
	<path class="st5" d="M558.4,865.3v-1.4h1.4v1.4H558.4z"/>
	<path class="st5" d="M564.9,865.5c-0.8,0-1.4-0.2-2.1-0.6c-0.6-0.4-1.1-1.1-1.5-1.9s-0.6-1.8-0.6-3c0-1.2,0.2-2.1,0.6-3
		s0.9-1.5,1.5-1.9c0.6-0.4,1.3-0.6,2.1-0.6c0.8,0,1.4,0.2,2.1,0.6c0.6,0.4,1.1,1.1,1.5,1.9s0.6,1.8,0.6,3c0,1.2-0.2,2.1-0.6,3
		s-0.9,1.5-1.5,1.9C566.3,865.2,565.7,865.5,564.9,865.5z M564.9,864.3c0.5,0,1-0.2,1.4-0.5s0.8-0.8,1.1-1.5
		c0.3-0.7,0.4-1.5,0.4-2.4c0-0.9-0.1-1.7-0.4-2.4c-0.3-0.7-0.6-1.2-1.1-1.5s-0.9-0.5-1.4-0.5s-1,0.2-1.4,0.5
		c-0.4,0.3-0.8,0.8-1.1,1.5c-0.3,0.7-0.4,1.5-0.4,2.4c0,0.9,0.1,1.7,0.4,2.4c0.3,0.7,0.6,1.2,1.1,1.5
		C563.9,864.1,564.4,864.3,564.9,864.3z"/>
	<path class="st5" d="M574.1,865.5c-0.8,0-1.4-0.2-2.1-0.6c-0.6-0.4-1.1-1.1-1.5-1.9s-0.6-1.8-0.6-3c0-1.2,0.2-2.1,0.6-3
		s0.9-1.5,1.5-1.9c0.6-0.4,1.3-0.6,2.1-0.6c0.8,0,1.4,0.2,2.1,0.6c0.6,0.4,1.1,1.1,1.5,1.9s0.6,1.8,0.6,3c0,1.2-0.2,2.1-0.6,3
		s-0.9,1.5-1.5,1.9C575.5,865.2,574.8,865.5,574.1,865.5z M574.1,864.3c0.5,0,1-0.2,1.4-0.5s0.8-0.8,1.1-1.5
		c0.3-0.7,0.4-1.5,0.4-2.4c0-0.9-0.1-1.7-0.4-2.4c-0.3-0.7-0.6-1.2-1.1-1.5s-0.9-0.5-1.4-0.5s-1,0.2-1.4,0.5
		c-0.4,0.3-0.8,0.8-1.1,1.5c-0.3,0.7-0.4,1.5-0.4,2.4c0,0.9,0.1,1.7,0.4,2.4c0.3,0.7,0.6,1.2,1.1,1.5
		C573.1,864.1,573.6,864.3,574.1,864.3z"/>
</g>
<path class="st6" d="M596.4,707.1h-72.8c-6.8,0-12.3-5.5-12.3-12.3l0,0c0-6.8,5.5-12.3,12.3-12.3h72.8c6.8,0,12.3,5.5,12.3,12.3l0,0
	C608.6,701.7,603.1,707.1,596.4,707.1z"/>
<g>
	<path class="st5" d="M522.4,700.3v-10.7h4.7c0.6,0,1.1,0.1,1.5,0.4c0.5,0.3,0.8,0.7,1.1,1.2c0.3,0.5,0.4,1.1,0.4,1.7
		c0,0.6-0.1,1.2-0.4,1.7c-0.3,0.5-0.6,0.9-1.1,1.2c-0.5,0.3-1,0.4-1.5,0.4h-1.3v-0.3l4.6,4.4h-1.5l-4.3-4.1h-0.9v4.1H522.4z
		 M527,695c0.3,0,0.6-0.1,0.9-0.3c0.3-0.2,0.5-0.4,0.7-0.8c0.2-0.3,0.2-0.7,0.2-1.1c0-0.6-0.2-1.1-0.5-1.5c-0.4-0.4-0.8-0.6-1.3-0.6
		h-3.4v4.3H527z"/>
	<path class="st5" d="M537.1,700.5c-0.6,0-1.1-0.1-1.7-0.4s-0.9-0.6-1.3-1c-0.3-0.4-0.5-1-0.6-1.6h1.2c0.1,0.4,0.2,0.7,0.4,1
		c0.2,0.3,0.5,0.5,0.8,0.6s0.7,0.2,1,0.2c0.4,0,0.9-0.1,1.2-0.3c0.4-0.2,0.7-0.5,0.9-0.9c0.2-0.4,0.3-0.8,0.3-1.3
		c0-0.5-0.1-0.9-0.3-1.3s-0.5-0.7-0.8-0.9c-0.4-0.2-0.8-0.3-1.2-0.3c-0.4,0-0.8,0.1-1.2,0.2c-0.4,0.2-0.7,0.4-0.9,0.7h-1.3l0.6-5.7
		h5.7v1.1h-4.7l-0.3,3.1h0.1c0.3-0.2,0.6-0.4,0.9-0.5c0.4-0.1,0.8-0.2,1.2-0.2c0.6,0,1.2,0.2,1.7,0.5c0.5,0.3,0.9,0.8,1.3,1.3
		c0.3,0.6,0.5,1.2,0.5,1.9c0,0.7-0.2,1.3-0.5,1.9c-0.3,0.6-0.8,1-1.3,1.3C538.5,700.3,537.8,700.5,537.1,700.5z"/>
	<path class="st5" d="M545.5,700.5c-0.8,0-1.4-0.2-2.1-0.6c-0.6-0.4-1.1-1.1-1.5-1.9s-0.6-1.8-0.6-3c0-1.2,0.2-2.1,0.6-3
		s0.9-1.5,1.5-1.9c0.6-0.4,1.3-0.6,2.1-0.6c0.8,0,1.4,0.2,2.1,0.6c0.6,0.4,1.1,1.1,1.5,1.9s0.6,1.8,0.6,3c0,1.2-0.2,2.1-0.6,3
		s-0.9,1.5-1.5,1.9C546.9,700.2,546.2,700.5,545.5,700.5z M545.5,699.3c0.5,0,1-0.2,1.4-0.5s0.8-0.8,1.1-1.5
		c0.3-0.7,0.4-1.5,0.4-2.4c0-0.9-0.1-1.7-0.4-2.4c-0.3-0.7-0.6-1.2-1.1-1.5s-0.9-0.5-1.4-0.5s-1,0.2-1.4,0.5
		c-0.4,0.3-0.8,0.8-1.1,1.5c-0.3,0.7-0.4,1.5-0.4,2.4c0,0.9,0.1,1.7,0.4,2.4c0.3,0.7,0.6,1.2,1.1,1.5
		C544.5,699.1,544.9,699.3,545.5,699.3z"/>
	<path class="st5" d="M554.6,700.5c-0.8,0-1.4-0.2-2.1-0.6c-0.6-0.4-1.1-1.1-1.5-1.9s-0.6-1.8-0.6-3c0-1.2,0.2-2.1,0.6-3
		s0.9-1.5,1.5-1.9c0.6-0.4,1.3-0.6,2.1-0.6c0.8,0,1.4,0.2,2.1,0.6c0.6,0.4,1.1,1.1,1.5,1.9s0.6,1.8,0.6,3c0,1.2-0.2,2.1-0.6,3
		s-0.9,1.5-1.5,1.9C556.1,700.2,555.4,700.5,554.6,700.5z M554.6,699.3c0.5,0,1-0.2,1.4-0.5s0.8-0.8,1.1-1.5
		c0.3-0.7,0.4-1.5,0.4-2.4c0-0.9-0.1-1.7-0.4-2.4c-0.3-0.7-0.6-1.2-1.1-1.5s-0.9-0.5-1.4-0.5s-1,0.2-1.4,0.5
		c-0.4,0.3-0.8,0.8-1.1,1.5c-0.3,0.7-0.4,1.5-0.4,2.4c0,0.9,0.1,1.7,0.4,2.4c0.3,0.7,0.6,1.2,1.1,1.5
		C553.6,699.1,554.1,699.3,554.6,699.3z"/>
	<path class="st5" d="M559.8,700.3v-1.4h1.4v1.4H559.8z"/>
	<path class="st5" d="M566.3,700.5c-0.8,0-1.4-0.2-2.1-0.6c-0.6-0.4-1.1-1.1-1.5-1.9s-0.6-1.8-0.6-3c0-1.2,0.2-2.1,0.6-3
		s0.9-1.5,1.5-1.9c0.6-0.4,1.3-0.6,2.1-0.6c0.8,0,1.4,0.2,2.1,0.6c0.6,0.4,1.1,1.1,1.5,1.9s0.6,1.8,0.6,3c0,1.2-0.2,2.1-0.6,3
		s-0.9,1.5-1.5,1.9C567.7,700.2,567,700.5,566.3,700.5z M566.3,699.3c0.5,0,1-0.2,1.4-0.5s0.8-0.8,1.1-1.5c0.3-0.7,0.4-1.5,0.4-2.4
		c0-0.9-0.1-1.7-0.4-2.4c-0.3-0.7-0.6-1.2-1.1-1.5s-0.9-0.5-1.4-0.5s-1,0.2-1.4,0.5c-0.4,0.3-0.8,0.8-1.1,1.5
		c-0.3,0.7-0.4,1.5-0.4,2.4c0,0.9,0.1,1.7,0.4,2.4c0.3,0.7,0.6,1.2,1.1,1.5C565.3,699.1,565.8,699.3,566.3,699.3z"/>
	<path class="st5" d="M575.5,700.5c-0.8,0-1.4-0.2-2.1-0.6c-0.6-0.4-1.1-1.1-1.5-1.9s-0.6-1.8-0.6-3c0-1.2,0.2-2.1,0.6-3
		s0.9-1.5,1.5-1.9c0.6-0.4,1.3-0.6,2.1-0.6c0.8,0,1.4,0.2,2.1,0.6c0.6,0.4,1.1,1.1,1.5,1.9s0.6,1.8,0.6,3c0,1.2-0.2,2.1-0.6,3
		s-0.9,1.5-1.5,1.9C576.9,700.2,576.2,700.5,575.5,700.5z M575.5,699.3c0.5,0,1-0.2,1.4-0.5s0.8-0.8,1.1-1.5
		c0.3-0.7,0.4-1.5,0.4-2.4c0-0.9-0.1-1.7-0.4-2.4c-0.3-0.7-0.6-1.2-1.1-1.5s-0.9-0.5-1.4-0.5s-1,0.2-1.4,0.5
		c-0.4,0.3-0.8,0.8-1.1,1.5c-0.3,0.7-0.4,1.5-0.4,2.4c0,0.9,0.1,1.7,0.4,2.4c0.3,0.7,0.6,1.2,1.1,1.5
		C574.5,699.1,574.9,699.3,575.5,699.3z"/>
</g>
<rect x="788.8" y="145.8" class="st6" width="97.3" height="24.5"/>
<g>
	<path class="st5" d="M794.7,163.5l3.8-5.5l-3.5-5.2h1.4l2.8,4.2h0.3l2.8-4.2h1.4l-3.5,5.2l3.8,5.5h-1.4l-3-4.5h-0.3l-3,4.5H794.7z"
		/>
	<path class="st5" d="M810,163.7c-0.7,0-1.3-0.1-1.8-0.4c-0.5-0.3-0.9-0.7-1.2-1.1c-0.3-0.5-0.4-1-0.4-1.5c0-0.4,0.1-0.8,0.3-1.2
		c0.2-0.4,0.4-0.7,0.6-0.9c0.3-0.2,0.5-0.4,0.8-0.5v-0.1c-0.4-0.2-0.7-0.5-1-0.9s-0.5-0.9-0.5-1.4c0-0.6,0.1-1.1,0.4-1.5
		c0.3-0.5,0.7-0.8,1.2-1.1c0.5-0.3,1.1-0.4,1.7-0.4c0.6,0,1.2,0.1,1.7,0.4c0.5,0.3,0.9,0.6,1.2,1.1c0.3,0.5,0.4,1,0.4,1.5
		c0,0.5-0.2,1-0.5,1.4s-0.6,0.7-1,0.9v0.1c0.4,0.2,0.8,0.5,1.2,1c0.3,0.5,0.5,1,0.5,1.6c0,0.5-0.1,1-0.4,1.5
		c-0.3,0.5-0.7,0.8-1.2,1.1S810.7,163.7,810,163.7z M810,162.5c0.4,0,0.8-0.1,1.2-0.3c0.4-0.2,0.6-0.4,0.8-0.7
		c0.2-0.3,0.3-0.6,0.3-1c0-0.4-0.1-0.7-0.3-1s-0.5-0.5-0.8-0.7c-0.4-0.2-0.7-0.3-1.2-0.3c-0.4,0-0.8,0.1-1.2,0.3
		c-0.4,0.2-0.6,0.4-0.8,0.7c-0.2,0.3-0.3,0.6-0.3,1c0,0.4,0.1,0.7,0.3,1c0.2,0.3,0.5,0.5,0.8,0.7C809.1,162.4,809.5,162.5,810,162.5
		z M810,157.5c0.4,0,0.8-0.1,1.1-0.2c0.3-0.2,0.6-0.4,0.7-0.7s0.3-0.6,0.3-0.9c0-0.3-0.1-0.6-0.3-0.9s-0.4-0.5-0.7-0.7
		c-0.3-0.2-0.7-0.2-1.1-0.2c-0.4,0-0.8,0.1-1.1,0.2c-0.3,0.2-0.6,0.4-0.7,0.7c-0.2,0.3-0.3,0.6-0.3,0.9c0,0.3,0.1,0.6,0.3,0.9
		c0.2,0.3,0.4,0.5,0.7,0.7C809.2,157.4,809.5,157.5,810,157.5z"/>
	<path class="st5" d="M818.5,163.7c-0.8,0-1.4-0.2-2.1-0.6c-0.6-0.4-1.1-1.1-1.5-1.9c-0.4-0.8-0.6-1.8-0.6-3c0-1.2,0.2-2.1,0.6-3
		c0.4-0.8,0.9-1.5,1.5-1.9c0.6-0.4,1.3-0.6,2.1-0.6c0.8,0,1.4,0.2,2.1,0.6c0.6,0.4,1.1,1.1,1.5,1.9s0.6,1.8,0.6,3
		c0,1.2-0.2,2.1-0.6,3s-0.9,1.5-1.5,1.9S819.2,163.7,818.5,163.7z M818.5,162.5c0.5,0,1-0.2,1.4-0.5c0.4-0.3,0.8-0.8,1.1-1.5
		s0.4-1.5,0.4-2.4c0-0.9-0.1-1.7-0.4-2.4s-0.6-1.2-1.1-1.5c-0.4-0.3-0.9-0.5-1.4-0.5c-0.5,0-1,0.2-1.4,0.5c-0.4,0.3-0.8,0.8-1.1,1.5
		c-0.3,0.7-0.4,1.5-0.4,2.4c0,0.9,0.1,1.7,0.4,2.4c0.3,0.7,0.6,1.2,1.1,1.5C817.5,162.3,817.9,162.5,818.5,162.5z"/>
	<path class="st5" d="M827.6,163.7c-0.8,0-1.4-0.2-2.1-0.6c-0.6-0.4-1.1-1.1-1.5-1.9c-0.4-0.8-0.6-1.8-0.6-3c0-1.2,0.2-2.1,0.6-3
		c0.4-0.8,0.9-1.5,1.5-1.9c0.6-0.4,1.3-0.6,2.1-0.6c0.8,0,1.4,0.2,2.1,0.6c0.6,0.4,1.1,1.1,1.5,1.9s0.6,1.8,0.6,3
		c0,1.2-0.2,2.1-0.6,3s-0.9,1.5-1.5,1.9S828.4,163.7,827.6,163.7z M827.6,162.5c0.5,0,1-0.2,1.4-0.5c0.4-0.3,0.8-0.8,1.1-1.5
		s0.4-1.5,0.4-2.4c0-0.9-0.1-1.7-0.4-2.4s-0.6-1.2-1.1-1.5c-0.4-0.3-0.9-0.5-1.4-0.5c-0.5,0-1,0.2-1.4,0.5c-0.4,0.3-0.8,0.8-1.1,1.5
		c-0.3,0.7-0.4,1.5-0.4,2.4c0,0.9,0.1,1.7,0.4,2.4c0.3,0.7,0.6,1.2,1.1,1.5C826.6,162.3,827.1,162.5,827.6,162.5z"/>
	<path class="st5" d="M832.8,163.5v-1.4h1.4v1.4H832.8z"/>
	<path class="st5" d="M839.3,163.7c-0.8,0-1.4-0.2-2.1-0.6s-1.1-1.1-1.5-1.9s-0.6-1.8-0.6-3c0-1.2,0.2-2.1,0.6-3s0.9-1.5,1.5-1.9
		c0.6-0.4,1.3-0.6,2.1-0.6s1.4,0.2,2.1,0.6c0.6,0.4,1.1,1.1,1.5,1.9c0.4,0.8,0.6,1.8,0.6,3c0,1.2-0.2,2.1-0.6,3
		c-0.4,0.8-0.9,1.5-1.5,1.9C840.7,163.4,840,163.7,839.3,163.7z M839.3,162.5c0.5,0,1-0.2,1.4-0.5s0.8-0.8,1.1-1.5
		c0.3-0.7,0.4-1.5,0.4-2.4c0-0.9-0.1-1.7-0.4-2.4c-0.3-0.7-0.6-1.2-1.1-1.5s-0.9-0.5-1.4-0.5s-1,0.2-1.4,0.5
		c-0.4,0.3-0.8,0.8-1.1,1.5s-0.4,1.5-0.4,2.4c0,0.9,0.1,1.7,0.4,2.4s0.6,1.2,1.1,1.5C838.3,162.3,838.8,162.5,839.3,162.5z"/>
	<path class="st5" d="M848.5,163.7c-0.8,0-1.4-0.2-2.1-0.6s-1.1-1.1-1.5-1.9s-0.6-1.8-0.6-3c0-1.2,0.2-2.1,0.6-3s0.9-1.5,1.5-1.9
		c0.6-0.4,1.3-0.6,2.1-0.6s1.4,0.2,2.1,0.6c0.6,0.4,1.1,1.1,1.5,1.9c0.4,0.8,0.6,1.8,0.6,3c0,1.2-0.2,2.1-0.6,3
		c-0.4,0.8-0.9,1.5-1.5,1.9C849.9,163.4,849.2,163.7,848.5,163.7z M848.5,162.5c0.5,0,1-0.2,1.4-0.5s0.8-0.8,1.1-1.5
		c0.3-0.7,0.4-1.5,0.4-2.4c0-0.9-0.1-1.7-0.4-2.4c-0.3-0.7-0.6-1.2-1.1-1.5s-0.9-0.5-1.4-0.5s-1,0.2-1.4,0.5
		c-0.4,0.3-0.8,0.8-1.1,1.5s-0.4,1.5-0.4,2.4c0,0.9,0.1,1.7,0.4,2.4s0.6,1.2,1.1,1.5C847.5,162.3,847.9,162.5,848.5,162.5z"/>
</g>
<rect x="886" y="253" class="st6" width="97.3" height="24.5"/>
<g>
	<path class="st5" d="M891.9,270.7l3.8-5.5l-3.5-5.2h1.4l2.8,4.2h0.3l2.8-4.2h1.4l-3.5,5.2l3.8,5.5h-1.4l-3-4.5h-0.3l-3,4.5H891.9z"
		/>
	<path class="st5" d="M905.5,270.7l2.5-4H908c-0.1,0-0.3,0.1-0.5,0.1c-0.2,0-0.4,0-0.5,0c-0.6,0-1.2-0.1-1.7-0.4
		c-0.5-0.3-0.9-0.7-1.2-1.2s-0.5-1.1-0.5-1.8c0-0.7,0.2-1.3,0.5-1.8c0.3-0.6,0.8-1,1.3-1.3s1.2-0.5,1.9-0.5c0.7,0,1.3,0.2,1.9,0.5
		s1,0.8,1.3,1.3c0.3,0.6,0.5,1.2,0.5,1.8c0,0.4-0.1,0.7-0.2,1.1s-0.3,0.7-0.4,0.9l-3.4,5.2H905.5z M907.2,265.9
		c0.4,0,0.9-0.1,1.2-0.3c0.4-0.2,0.7-0.5,0.9-0.9c0.2-0.4,0.3-0.8,0.3-1.2c0-0.4-0.1-0.9-0.3-1.2c-0.2-0.4-0.5-0.7-0.9-0.9
		s-0.8-0.3-1.2-0.3s-0.9,0.1-1.2,0.3s-0.7,0.5-0.9,0.9c-0.2,0.4-0.3,0.8-0.3,1.2c0,0.4,0.1,0.9,0.3,1.2c0.2,0.4,0.5,0.7,0.9,0.9
		C906.3,265.8,906.8,265.9,907.2,265.9z"/>
	<path class="st5" d="M915.7,270.9c-0.8,0-1.4-0.2-2.1-0.6c-0.6-0.4-1.1-1.1-1.5-1.9c-0.4-0.8-0.6-1.8-0.6-3c0-1.2,0.2-2.1,0.6-3
		c0.4-0.8,0.9-1.5,1.5-1.9c0.6-0.4,1.3-0.6,2.1-0.6c0.8,0,1.4,0.2,2.1,0.6c0.6,0.4,1.1,1.1,1.5,1.9s0.6,1.8,0.6,3
		c0,1.2-0.2,2.1-0.6,3s-0.9,1.5-1.5,1.9S916.5,270.9,915.7,270.9z M915.7,269.7c0.5,0,1-0.2,1.4-0.5c0.4-0.3,0.8-0.8,1.1-1.5
		s0.4-1.5,0.4-2.4c0-0.9-0.1-1.7-0.4-2.4s-0.6-1.2-1.1-1.5c-0.4-0.3-0.9-0.5-1.4-0.5c-0.5,0-1,0.2-1.4,0.5c-0.4,0.3-0.8,0.8-1.1,1.5
		c-0.3,0.7-0.4,1.5-0.4,2.4c0,0.9,0.1,1.7,0.4,2.4c0.3,0.7,0.6,1.2,1.1,1.5C914.7,269.5,915.2,269.7,915.7,269.7z"/>
	<path class="st5" d="M924.9,270.9c-0.8,0-1.4-0.2-2.1-0.6c-0.6-0.4-1.1-1.1-1.5-1.9c-0.4-0.8-0.6-1.8-0.6-3c0-1.2,0.2-2.1,0.6-3
		c0.4-0.8,0.9-1.5,1.5-1.9c0.6-0.4,1.3-0.6,2.1-0.6c0.8,0,1.4,0.2,2.1,0.6c0.6,0.4,1.1,1.1,1.5,1.9s0.6,1.8,0.6,3
		c0,1.2-0.2,2.1-0.6,3s-0.9,1.5-1.5,1.9S925.6,270.9,924.9,270.9z M924.9,269.7c0.5,0,1-0.2,1.4-0.5c0.4-0.3,0.8-0.8,1.1-1.5
		s0.4-1.5,0.4-2.4c0-0.9-0.1-1.7-0.4-2.4s-0.6-1.2-1.1-1.5c-0.4-0.3-0.9-0.5-1.4-0.5c-0.5,0-1,0.2-1.4,0.5c-0.4,0.3-0.8,0.8-1.1,1.5
		c-0.3,0.7-0.4,1.5-0.4,2.4c0,0.9,0.1,1.7,0.4,2.4c0.3,0.7,0.6,1.2,1.1,1.5C923.9,269.5,924.4,269.7,924.9,269.7z"/>
	<path class="st5" d="M930,270.7v-1.4h1.4v1.4H930z"/>
	<path class="st5" d="M936.5,270.9c-0.8,0-1.4-0.2-2.1-0.6s-1.1-1.1-1.5-1.9s-0.6-1.8-0.6-3c0-1.2,0.2-2.1,0.6-3s0.9-1.5,1.5-1.9
		c0.6-0.4,1.3-0.6,2.1-0.6s1.4,0.2,2.1,0.6c0.6,0.4,1.1,1.1,1.5,1.9c0.4,0.8,0.6,1.8,0.6,3c0,1.2-0.2,2.1-0.6,3
		c-0.4,0.8-0.9,1.5-1.5,1.9C938,270.6,937.3,270.9,936.5,270.9z M936.5,269.7c0.5,0,1-0.2,1.4-0.5s0.8-0.8,1.1-1.5
		c0.3-0.7,0.4-1.5,0.4-2.4c0-0.9-0.1-1.7-0.4-2.4c-0.3-0.7-0.6-1.2-1.1-1.5s-0.9-0.5-1.4-0.5s-1,0.2-1.4,0.5
		c-0.4,0.3-0.8,0.8-1.1,1.5s-0.4,1.5-0.4,2.4c0,0.9,0.1,1.7,0.4,2.4s0.6,1.2,1.1,1.5C935.5,269.5,936,269.7,936.5,269.7z"/>
	<path class="st5" d="M945.7,270.9c-0.8,0-1.4-0.2-2.1-0.6s-1.1-1.1-1.5-1.9s-0.6-1.8-0.6-3c0-1.2,0.2-2.1,0.6-3s0.9-1.5,1.5-1.9
		c0.6-0.4,1.3-0.6,2.1-0.6s1.4,0.2,2.1,0.6c0.6,0.4,1.1,1.1,1.5,1.9c0.4,0.8,0.6,1.8,0.6,3c0,1.2-0.2,2.1-0.6,3
		c-0.4,0.8-0.9,1.5-1.5,1.9C947.2,270.6,946.5,270.9,945.7,270.9z M945.7,269.7c0.5,0,1-0.2,1.4-0.5s0.8-0.8,1.1-1.5
		c0.3-0.7,0.4-1.5,0.4-2.4c0-0.9-0.1-1.7-0.4-2.4c-0.3-0.7-0.6-1.2-1.1-1.5s-0.9-0.5-1.4-0.5s-1,0.2-1.4,0.5
		c-0.4,0.3-0.8,0.8-1.1,1.5s-0.4,1.5-0.4,2.4c0,0.9,0.1,1.7,0.4,2.4s0.6,1.2,1.1,1.5C944.7,269.5,945.2,269.7,945.7,269.7z"/>
</g>
<rect x="590" y="253" class="st6" width="97.3" height="24.5"/>
<g>
	<path class="st5" d="M595.9,270.7l3.8-5.5l-3.5-5.2h1.4l2.8,4.2h0.3l2.8-4.2h1.4l-3.5,5.2l3.8,5.5h-1.4l-3-4.5h-0.3l-3,4.5H595.9z"
		/>
	<path class="st5" d="M611.2,270.9c-0.7,0-1.3-0.2-1.9-0.5s-1-0.8-1.3-1.3c-0.3-0.6-0.5-1.2-0.5-1.8c0-0.4,0.1-0.7,0.2-1.1
		s0.3-0.7,0.4-0.9l3.4-5.2h1.4l-2.5,4h0.1c0.1,0,0.3-0.1,0.5-0.1s0.4,0,0.5,0c0.6,0,1.2,0.1,1.7,0.4s0.9,0.7,1.2,1.2
		c0.3,0.5,0.5,1.1,0.5,1.8c0,0.7-0.2,1.3-0.5,1.8c-0.3,0.6-0.8,1-1.3,1.3S611.9,270.9,611.2,270.9z M611.2,269.7
		c0.4,0,0.9-0.1,1.2-0.3s0.7-0.5,0.9-0.9s0.3-0.8,0.3-1.2c0-0.4-0.1-0.9-0.3-1.2s-0.5-0.7-0.9-0.9s-0.8-0.3-1.2-0.3
		c-0.4,0-0.9,0.1-1.2,0.3s-0.7,0.5-0.9,0.9s-0.3,0.8-0.3,1.2c0,0.4,0.1,0.9,0.3,1.2s0.5,0.7,0.9,0.9S610.8,269.7,611.2,269.7z"/>
	<path class="st5" d="M619.7,270.9c-0.8,0-1.4-0.2-2.1-0.6s-1.1-1.1-1.5-1.9s-0.6-1.8-0.6-3c0-1.2,0.2-2.1,0.6-3s0.9-1.5,1.5-1.9
		c0.6-0.4,1.3-0.6,2.1-0.6c0.8,0,1.4,0.2,2.1,0.6c0.6,0.4,1.1,1.1,1.5,1.9s0.6,1.8,0.6,3c0,1.2-0.2,2.1-0.6,3s-0.9,1.5-1.5,1.9
		S620.5,270.9,619.7,270.9z M619.7,269.7c0.5,0,1-0.2,1.4-0.5s0.8-0.8,1.1-1.5c0.3-0.7,0.4-1.5,0.4-2.4c0-0.9-0.1-1.7-0.4-2.4
		c-0.3-0.7-0.6-1.2-1.1-1.5s-0.9-0.5-1.4-0.5s-1,0.2-1.4,0.5c-0.4,0.3-0.8,0.8-1.1,1.5c-0.3,0.7-0.4,1.5-0.4,2.4
		c0,0.9,0.1,1.7,0.4,2.4c0.3,0.7,0.6,1.2,1.1,1.5C618.7,269.5,619.2,269.7,619.7,269.7z"/>
	<path class="st5" d="M628.9,270.9c-0.8,0-1.4-0.2-2.1-0.6s-1.1-1.1-1.5-1.9s-0.6-1.8-0.6-3c0-1.2,0.2-2.1,0.6-3s0.9-1.5,1.5-1.9
		c0.6-0.4,1.3-0.6,2.1-0.6c0.8,0,1.4,0.2,2.1,0.6c0.6,0.4,1.1,1.1,1.5,1.9s0.6,1.8,0.6,3c0,1.2-0.2,2.1-0.6,3s-0.9,1.5-1.5,1.9
		S629.6,270.9,628.9,270.9z M628.9,269.7c0.5,0,1-0.2,1.4-0.5s0.8-0.8,1.1-1.5c0.3-0.7,0.4-1.5,0.4-2.4c0-0.9-0.1-1.7-0.4-2.4
		c-0.3-0.7-0.6-1.2-1.1-1.5s-0.9-0.5-1.4-0.5s-1,0.2-1.4,0.5c-0.4,0.3-0.8,0.8-1.1,1.5c-0.3,0.7-0.4,1.5-0.4,2.4
		c0,0.9,0.1,1.7,0.4,2.4c0.3,0.7,0.6,1.2,1.1,1.5C627.9,269.5,628.4,269.7,628.9,269.7z"/>
	<path class="st5" d="M634,270.7v-1.4h1.4v1.4H634z"/>
	<path class="st5" d="M640.5,270.9c-0.8,0-1.4-0.2-2.1-0.6s-1.1-1.1-1.5-1.9s-0.6-1.8-0.6-3c0-1.2,0.2-2.1,0.6-3s0.9-1.5,1.5-1.9
		c0.6-0.4,1.3-0.6,2.1-0.6c0.8,0,1.4,0.2,2.1,0.6c0.6,0.4,1.1,1.1,1.5,1.9s0.6,1.8,0.6,3c0,1.2-0.2,2.1-0.6,3s-0.9,1.5-1.5,1.9
		S641.3,270.9,640.5,270.9z M640.5,269.7c0.5,0,1-0.2,1.4-0.5s0.8-0.8,1.1-1.5c0.3-0.7,0.4-1.5,0.4-2.4c0-0.9-0.1-1.7-0.4-2.4
		c-0.3-0.7-0.6-1.2-1.1-1.5s-0.9-0.5-1.4-0.5s-1,0.2-1.4,0.5c-0.4,0.3-0.8,0.8-1.1,1.5c-0.3,0.7-0.4,1.5-0.4,2.4
		c0,0.9,0.1,1.7,0.4,2.4c0.3,0.7,0.6,1.2,1.1,1.5C639.5,269.5,640,269.7,640.5,269.7z"/>
	<path class="st5" d="M649.7,270.9c-0.8,0-1.4-0.2-2.1-0.6s-1.1-1.1-1.5-1.9s-0.6-1.8-0.6-3c0-1.2,0.2-2.1,0.6-3s0.9-1.5,1.5-1.9
		c0.6-0.4,1.3-0.6,2.1-0.6c0.8,0,1.4,0.2,2.1,0.6c0.6,0.4,1.1,1.1,1.5,1.9s0.6,1.8,0.6,3c0,1.2-0.2,2.1-0.6,3s-0.9,1.5-1.5,1.9
		S650.5,270.9,649.7,270.9z M649.7,269.7c0.5,0,1-0.2,1.4-0.5s0.8-0.8,1.1-1.5c0.3-0.7,0.4-1.5,0.4-2.4c0-0.9-0.1-1.7-0.4-2.4
		c-0.3-0.7-0.6-1.2-1.1-1.5s-0.9-0.5-1.4-0.5s-1,0.2-1.4,0.5c-0.4,0.3-0.8,0.8-1.1,1.5c-0.3,0.7-0.4,1.5-0.4,2.4
		c0,0.9,0.1,1.7,0.4,2.4c0.3,0.7,0.6,1.2,1.1,1.5C648.7,269.5,649.2,269.7,649.7,269.7z"/>
</g>
<rect x="390" y="253" class="st6" width="97.3" height="24.5"/>
<g>
	<path class="st5" d="M395.9,270.7l3.8-5.5l-3.5-5.2h1.4l2.8,4.2h0.3l2.8-4.2h1.4l-3.5,5.2l3.8,5.5h-1.4l-3-4.5h-0.3l-3,4.5H395.9z"
		/>
	<path class="st5" d="M412.2,270.7v-2.4h-5v-0.9l4.2-7.3h2v7.2h1.4v1.1h-1.4v2.4H412.2z M408.8,267.2h3.4v-5.6h-0.3L408.8,267.2
		L408.8,267.2z"/>
	<path class="st5" d="M419.4,270.9c-0.8,0-1.4-0.2-2.1-0.6s-1.1-1.1-1.5-1.9s-0.6-1.8-0.6-3c0-1.2,0.2-2.1,0.6-3s0.9-1.5,1.5-1.9
		c0.6-0.4,1.3-0.6,2.1-0.6c0.8,0,1.4,0.2,2.1,0.6c0.6,0.4,1.1,1.1,1.5,1.9s0.6,1.8,0.6,3c0,1.2-0.2,2.1-0.6,3s-0.9,1.5-1.5,1.9
		S420.2,270.9,419.4,270.9z M419.4,269.7c0.5,0,1-0.2,1.4-0.5s0.8-0.8,1.1-1.5c0.3-0.7,0.4-1.5,0.4-2.4c0-0.9-0.1-1.7-0.4-2.4
		c-0.3-0.7-0.6-1.2-1.1-1.5s-0.9-0.5-1.4-0.5s-1,0.2-1.4,0.5c-0.4,0.3-0.8,0.8-1.1,1.5c-0.3,0.7-0.4,1.5-0.4,2.4
		c0,0.9,0.1,1.7,0.4,2.4c0.3,0.7,0.6,1.2,1.1,1.5C418.4,269.5,418.9,269.7,419.4,269.7z"/>
	<path class="st5" d="M428.6,270.9c-0.8,0-1.4-0.2-2.1-0.6s-1.1-1.1-1.5-1.9s-0.6-1.8-0.6-3c0-1.2,0.2-2.1,0.6-3s0.9-1.5,1.5-1.9
		c0.6-0.4,1.3-0.6,2.1-0.6c0.8,0,1.4,0.2,2.1,0.6c0.6,0.4,1.1,1.1,1.5,1.9s0.6,1.8,0.6,3c0,1.2-0.2,2.1-0.6,3s-0.9,1.5-1.5,1.9
		S429.3,270.9,428.6,270.9z M428.6,269.7c0.5,0,1-0.2,1.4-0.5s0.8-0.8,1.1-1.5c0.3-0.7,0.4-1.5,0.4-2.4c0-0.9-0.1-1.7-0.4-2.4
		c-0.3-0.7-0.6-1.2-1.1-1.5s-0.9-0.5-1.4-0.5s-1,0.2-1.4,0.5c-0.4,0.3-0.8,0.8-1.1,1.5c-0.3,0.7-0.4,1.5-0.4,2.4
		c0,0.9,0.1,1.7,0.4,2.4c0.3,0.7,0.6,1.2,1.1,1.5C427.6,269.5,428.1,269.7,428.6,269.7z"/>
	<path class="st5" d="M433.7,270.7v-1.4h1.4v1.4H433.7z"/>
	<path class="st5" d="M440.2,270.9c-0.8,0-1.4-0.2-2.1-0.6s-1.1-1.1-1.5-1.9s-0.6-1.8-0.6-3c0-1.2,0.2-2.1,0.6-3s0.9-1.5,1.5-1.9
		c0.6-0.4,1.3-0.6,2.1-0.6c0.8,0,1.4,0.2,2.1,0.6c0.6,0.4,1.1,1.1,1.5,1.9s0.6,1.8,0.6,3c0,1.2-0.2,2.1-0.6,3s-0.9,1.5-1.5,1.9
		S441,270.9,440.2,270.9z M440.2,269.7c0.5,0,1-0.2,1.4-0.5s0.8-0.8,1.1-1.5c0.3-0.7,0.4-1.5,0.4-2.4c0-0.9-0.1-1.7-0.4-2.4
		c-0.3-0.7-0.6-1.2-1.1-1.5s-0.9-0.5-1.4-0.5s-1,0.2-1.4,0.5c-0.4,0.3-0.8,0.8-1.1,1.5c-0.3,0.7-0.4,1.5-0.4,2.4
		c0,0.9,0.1,1.7,0.4,2.4c0.3,0.7,0.6,1.2,1.1,1.5C439.2,269.5,439.7,269.7,440.2,269.7z"/>
	<path class="st5" d="M449.4,270.9c-0.8,0-1.4-0.2-2.1-0.6s-1.1-1.1-1.5-1.9s-0.6-1.8-0.6-3c0-1.2,0.2-2.1,0.6-3s0.9-1.5,1.5-1.9
		c0.6-0.4,1.3-0.6,2.1-0.6c0.8,0,1.4,0.2,2.1,0.6c0.6,0.4,1.1,1.1,1.5,1.9s0.6,1.8,0.6,3c0,1.2-0.2,2.1-0.6,3s-0.9,1.5-1.5,1.9
		S450.2,270.9,449.4,270.9z M449.4,269.7c0.5,0,1-0.2,1.4-0.5s0.8-0.8,1.1-1.5c0.3-0.7,0.4-1.5,0.4-2.4c0-0.9-0.1-1.7-0.4-2.4
		c-0.3-0.7-0.6-1.2-1.1-1.5s-0.9-0.5-1.4-0.5s-1,0.2-1.4,0.5c-0.4,0.3-0.8,0.8-1.1,1.5c-0.3,0.7-0.4,1.5-0.4,2.4
		c0,0.9,0.1,1.7,0.4,2.4c0.3,0.7,0.6,1.2,1.1,1.5C448.4,269.5,448.9,269.7,449.4,269.7z"/>
</g>
</svg>
