<?xml version="1.0" encoding="utf-8"?>
<!-- Generator: Adobe Illustrator 22.0.0, SVG Export Plug-In . SVG Version: 6.00 Build 0)  -->
<svg version="1.1" id="Layer_1" xmlns="http://www.w3.org/2000/svg" xmlns:xlink="http://www.w3.org/1999/xlink" x="0px" y="0px"
	 viewBox="0 0 2000 1400" style="enable-background:new 0 0 2000 1400;" xml:space="preserve">
<style type="text/css">
	.st0{fill:#FFFFFF;}
	.st1{fill:#D1D1D5;}
	.st2{fill:#A4A4AB;}
	.st3{display:none;}
	.st4{display:inline;fill:#1B1B2D;}
	.st5{display:inline;}
	.st6{display:inline;fill:#FFFFFF;}
	.st7{fill:#1B1B2D;}
	.st8{opacity:0.3;fill:none;stroke:#1B1B2D;stroke-miterlimit:10;enable-background:new    ;}
	.st9{fill:none;stroke:#242435;stroke-miterlimit:10;}
	.st10{font-family:'AeonikPro-Regular';}
	.st11{font-size:24px;}
</style>
<rect class="st0" width="2000" height="1400"/>
<rect x="1826.9" y="509.9" class="st1" width="85.3" height="85.3"/>
<rect x="1826.9" y="595.2" class="st2" width="85.3" height="170.6"/>
<rect x="328.1" y="645.8" class="st2" width="69.3" height="69.3"/>
<g>
	<g>
		<g>
			<path class="st1" d="M415.8,670.8V661l-9.5-16.1h3.1l7.4,12.8h0.7l7.4-12.8h3.1l-9.5,16.1v9.8H415.8z"/>
		</g>
	</g>
</g>
<g id="Layer_2_1_" class="st3">
	<rect class="st4" width="2000" height="2000"/>
	<g class="st5">
		<g>
			<path class="st0" d="M584.8,976.5c0,35.9-11.1,70.9-31.9,100.3c-20.7,29.3-50.1,51.5-84,63.5v-41.7c23.2-11,42.7-28.3,56.4-49.9
				s21-46.7,20.9-72.3c0-25.6-7.3-50.7-21-72.3s-33.3-38.9-56.5-49.8v-41.7c33.9,12,63.3,34.2,84,63.5
				C573.6,905.6,584.7,940.6,584.8,976.5z"/>
			<rect x="275.5" y="957.2" class="st0" width="154.6" height="38.6"/>
			<path class="st0" d="M507.4,976.5c0-12.7-2.5-25.2-7.4-36.9s-12-22.4-20.9-31.3c-9-9-19.6-16.1-31.4-20.9
				c-11.7-4.8-24.3-7.3-37-7.3h-57.9v38.6h115.9v115.8h-116v38.6h57.9c12.7,0,25.3-2.5,37-7.3s22.4-12,31.4-20.9
				c9-9,16.1-19.6,21-31.3C504.9,1001.8,507.4,989.2,507.4,976.5z"/>
		</g>
		<g>
			<g>
				<path class="st0" d="M925.5,1125.6c-22,0-41.8-4.4-59.3-13.3c-17.6-8.8-32.1-20.8-43.6-36c-11.5-15.1-19.3-32-23.3-50.5h44.2
					c3.8,11.5,9.4,21.7,17.1,30.6c7.6,8.8,17,15.8,28.1,20.7c11.1,5,23.4,7.4,36.8,7.4c15.8,0,30.3-3.7,43.4-11.1
					c13.1-7.4,23.7-17.6,31.8-30.6c8-13,12.9-27.4,14.5-43.2H891.7v-39h123.4c-1.6-15.5-6.4-29.7-14.5-42.4
					c-8-12.7-18.6-22.8-31.8-30.2c-13.1-7.4-27.6-11.1-43.4-11.1c-19.8,0-37,5.3-51.5,15.9c-14.5,10.6-24.7,24.2-30.6,40.8h-44.2
					c4.8-18,13.1-34.4,24.7-49.3c11.7-14.9,26.2-26.7,43.6-35.4c17.4-8.7,36.7-13.1,57.9-13.1c24.7,0,47.4,6.2,68.2,18.5
					s37.1,29.5,49.1,51.5c11.9,22,17.9,46.9,17.9,74.8c0,27.9-6,52.8-17.9,74.8s-28.3,39.1-49.1,51.5
					C972.8,1119.5,950.1,1125.6,925.5,1125.6z"/>
				<path class="st0" d="M1082.7,1124v-39h10.9c7.8,0,14-2.3,18.7-6.8c4.7-4.6,7.4-11.9,8.2-22.1l11.3-136.7h143.9v202.2h-40.2
					V956.8h-66.3l-9.2,103.3c-1.9,21.4-7.8,37.5-17.9,48c-10.1,10.6-24.9,15.9-44.4,15.9H1082.7z"/>
				<path class="st0" d="M1368.9,1121.6V956.8h-66.3v-37.4h173.3v37.4h-66.3v164.8H1368.9z"/>
				<path class="st0" d="M1565.5,1125.6c-14.5,0-27.1-2.8-38-8.2c-10.9-5.5-19.2-12.9-25.1-22.3s-8.8-20.1-8.8-32.2
					c0-13.1,2.9-24.5,8.8-34.2c5.9-9.6,14.9-17.2,27.1-22.7s27.4-8.2,45.6-8.2h51.5v-5.2c0-13.1-3.8-23.5-11.5-31.2
					c-7.6-7.6-18-11.5-31.2-11.5c-12.3,0-22.3,2.8-30,8.4c-7.6,5.6-12.1,12.5-13.5,20.5h-40.2c1.1-11,5-21.4,11.7-31.2
					s16.2-17.6,28.5-23.5s26.8-8.8,43.4-8.8c16.9,0,31.6,3.2,44,9.4c12.5,6.3,22,15.3,28.7,26.9c6.7,11.7,10.1,25.3,10.1,40.8v129.1
					h-35l-4-22.1h-2c-4.6,6.7-12.2,12.7-22.9,18.1C1592.2,1123,1579.7,1125.6,1565.5,1125.6z M1570,1091.1c11.5,0,21.6-2.2,30.2-6.6
					s15.1-10.7,19.7-18.9c4.6-8.2,6.8-17.8,6.8-28.7v-6.8H1578c-15,0-26.1,2.9-33.2,8.6c-7.1,5.8-10.7,13.3-10.7,22.7
					c0,8.8,3.1,16,9.2,21.5C1549.6,1088.3,1558.4,1091.1,1570,1091.1z"/>
			</g>
		</g>
	</g>
</g>
<g id="м1_copy" class="st3">
	<rect class="st4" width="2000" height="1400"/>
	<g class="st5">
		<g>
			<path class="st0" d="M784.3,700c0,28.8-8.9,56.9-25.6,80.5c-16.7,23.5-40.2,41.4-67.4,51v-33.4c18.6-8.8,34.3-22.7,45.3-40.1
				c11-17.4,16.8-37.5,16.8-58s-5.9-40.7-16.9-58c-11-17.4-26.7-31.2-45.3-40v-33.4c27.2,9.6,50.8,27.4,67.5,51
				C775.3,643,784.3,671.2,784.3,700z"/>
			<rect x="536" y="684.5" class="st0" width="124.1" height="31"/>
			<path class="st0" d="M722.2,700c0-10.2-2-20.3-5.9-29.7s-9.6-17.9-16.8-25.1c-7.2-7.2-15.8-12.9-25.2-16.8
				c-9.4-3.9-19.5-5.9-29.7-5.9h-46.5v31h93.1v93h-93.1v31h46.5c10.2,0,20.3-2,29.7-5.9s18-9.6,25.2-16.8s12.9-15.7,16.8-25.1
				C720.2,720.3,722.2,710.2,722.2,700z"/>
		</g>
		<g>
			<path class="st0" d="M974.4,800.3c-14.9,0-28.3-3-40.2-9s-21.8-14.1-29.6-24.4c-7.8-10.3-13.1-21.7-15.8-34.2h30
				c2.5,7.8,6.4,14.7,11.6,20.7c5.2,6,11.5,10.7,19.1,14c7.5,3.4,15.9,5,24.9,5c10.7,0,20.5-2.5,29.4-7.5s16.1-11.9,21.5-20.7
				c5.5-8.8,8.7-18.6,9.8-29.3h-83.7v-26.4h83.7c-1.1-10.5-4.4-20.1-9.8-28.8c-5.5-8.6-12.6-15.4-21.5-20.4s-18.7-7.5-29.4-7.5
				c-13.5,0-25.1,3.6-34.9,10.8c-9.8,7.2-16.7,16.4-20.7,27.7h-30c3.3-12.2,8.9-23.3,16.8-33.4c7.9-10.1,17.8-18.1,29.6-24
				s24.9-8.9,39.3-8.9c16.7,0,32.1,4.2,46.2,12.5c14.1,8.4,25.2,20,33.3,34.9c8.1,14.9,12.1,31.8,12.1,50.7s-4,35.8-12.1,50.7
				s-19.2,26.5-33.3,34.9C1006.5,796.1,991.1,800.3,974.4,800.3z"/>
			<path class="st0" d="M1073.4,799.2v-26.4h7.4c5.3,0,9.5-1.5,12.7-4.6s5-8.1,5.6-15l7.6-92.7h97.6v137.1H1177V685.8h-45l-6.3,70.1
				c-1.3,14.5-5.3,25.4-12.1,32.6c-6.8,7.2-16.9,10.8-30.1,10.8L1073.4,799.2L1073.4,799.2z"/>
			<path class="st0" d="M1267.5,797.5V685.8h-45v-25.3H1340v25.3h-45v111.8L1267.5,797.5L1267.5,797.5z"/>
			<path class="st0" d="M1395.3,800.3c-9.8,0-18.4-1.9-25.8-5.6c-7.4-3.7-13-8.8-17-15.1c-4-6.4-6-13.6-6-21.8c0-8.9,2-16.6,6-23.2
				c4-6.5,10.1-11.7,18.4-15.4s18.6-5.6,30.9-5.6h34.9V710c0-8.9-2.6-15.9-7.8-21.1c-5.2-5.2-12.2-7.8-21.1-7.8
				c-8.4,0-15.1,1.9-20.3,5.7c-5.2,3.8-8.2,8.5-9.1,13.9h-27.3c0.7-7.4,3.4-14.5,7.9-21.1s11-11.9,19.4-15.9s18.2-6,29.4-6
				c11.4,0,21.4,2.1,29.8,6.4c8.4,4.3,14.9,10.4,19.5,18.3c4.5,7.9,6.8,17.1,6.8,27.7v87.5h-23.7l-2.7-15h-1.4
				c-3.1,4.5-8.3,8.6-15.5,12.3C1413.4,798.4,1404.9,800.3,1395.3,800.3z M1398.3,776.8c7.8,0,14.6-1.5,20.4-4.5s10.3-7.3,13.4-12.8
				s4.6-12,4.6-19.5v-4.6h-33c-10.2,0-17.7,2-22.5,5.9s-7.2,9-7.2,15.4c0,6,2.1,10.9,6.3,14.6C1384.5,775,1390.5,776.8,1398.3,776.8
				z"/>
		</g>
	</g>
</g>
<g id="м1_copy_2" class="st3">
	<rect class="st5" width="2000" height="1400"/>
	<g class="st5">
		<g>
			<path class="st0" d="M784.3,700c0,28.8-8.9,56.9-25.6,80.5c-16.7,23.5-40.2,41.4-67.4,51v-33.4c18.6-8.8,34.3-22.7,45.3-40.1
				c11-17.4,16.8-37.5,16.8-58s-5.9-40.7-16.9-58c-11-17.4-26.7-31.2-45.3-40v-33.4c27.2,9.6,50.8,27.4,67.5,51
				C775.3,643,784.3,671.2,784.3,700z"/>
			<rect x="536" y="684.5" class="st0" width="124.1" height="31"/>
			<path class="st0" d="M722.2,700c0-10.2-2-20.3-5.9-29.7s-9.6-17.9-16.8-25.1c-7.2-7.2-15.8-12.9-25.2-16.8
				c-9.4-3.9-19.5-5.9-29.7-5.9h-46.5v31h93.1v93h-93.1v31h46.5c10.2,0,20.3-2,29.7-5.9s18-9.6,25.2-16.8s12.9-15.7,16.8-25.1
				C720.2,720.3,722.2,710.2,722.2,700z"/>
		</g>
		<g>
			<path class="st0" d="M974.4,800.3c-14.9,0-28.3-3-40.2-9s-21.8-14.1-29.6-24.4c-7.8-10.3-13.1-21.7-15.8-34.2h30
				c2.5,7.8,6.4,14.7,11.6,20.7c5.2,6,11.5,10.7,19.1,14c7.5,3.4,15.9,5,24.9,5c10.7,0,20.5-2.5,29.4-7.5s16.1-11.9,21.5-20.7
				c5.5-8.8,8.7-18.6,9.8-29.3h-83.7v-26.4h83.7c-1.1-10.5-4.4-20.1-9.8-28.8c-5.5-8.6-12.6-15.4-21.5-20.4s-18.7-7.5-29.4-7.5
				c-13.5,0-25.1,3.6-34.9,10.8c-9.8,7.2-16.7,16.4-20.7,27.7h-30c3.3-12.2,8.9-23.3,16.8-33.4c7.9-10.1,17.8-18.1,29.6-24
				s24.9-8.9,39.3-8.9c16.7,0,32.1,4.2,46.2,12.5c14.1,8.4,25.2,20,33.3,34.9c8.1,14.9,12.1,31.8,12.1,50.7s-4,35.8-12.1,50.7
				s-19.2,26.5-33.3,34.9C1006.5,796.1,991.1,800.3,974.4,800.3z"/>
			<path class="st0" d="M1073.4,799.2v-26.4h7.4c5.3,0,9.5-1.5,12.7-4.6s5-8.1,5.6-15l7.6-92.7h97.6v137.1H1177V685.8h-45l-6.3,70.1
				c-1.3,14.5-5.3,25.4-12.1,32.6c-6.8,7.2-16.9,10.8-30.1,10.8L1073.4,799.2L1073.4,799.2z"/>
			<path class="st0" d="M1267.5,797.5V685.8h-45v-25.3H1340v25.3h-45v111.8L1267.5,797.5L1267.5,797.5z"/>
			<path class="st0" d="M1395.3,800.3c-9.8,0-18.4-1.9-25.8-5.6c-7.4-3.7-13-8.8-17-15.1c-4-6.4-6-13.6-6-21.8c0-8.9,2-16.6,6-23.2
				c4-6.5,10.1-11.7,18.4-15.4s18.6-5.6,30.9-5.6h34.9V710c0-8.9-2.6-15.9-7.8-21.1c-5.2-5.2-12.2-7.8-21.1-7.8
				c-8.4,0-15.1,1.9-20.3,5.7c-5.2,3.8-8.2,8.5-9.1,13.9h-27.3c0.7-7.4,3.4-14.5,7.9-21.1s11-11.9,19.4-15.9s18.2-6,29.4-6
				c11.4,0,21.4,2.1,29.8,6.4c8.4,4.3,14.9,10.4,19.5,18.3c4.5,7.9,6.8,17.1,6.8,27.7v87.5h-23.7l-2.7-15h-1.4
				c-3.1,4.5-8.3,8.6-15.5,12.3C1413.4,798.4,1404.9,800.3,1395.3,800.3z M1398.3,776.8c7.8,0,14.6-1.5,20.4-4.5s10.3-7.3,13.4-12.8
				s4.6-12,4.6-19.5v-4.6h-33c-10.2,0-17.7,2-22.5,5.9s-7.2,9-7.2,15.4c0,6,2.1,10.9,6.3,14.6C1384.5,775,1390.5,776.8,1398.3,776.8
				z"/>
		</g>
	</g>
</g>
<g id="м1_copy_3" class="st3">
	<rect class="st6" width="2000" height="1400"/>
	<g class="st5">
		<g>
			<path class="st7" d="M544.9,700c0,16.8-5.2,33.3-14.9,47s-23.5,24.2-39.4,29.8v-19.5c10.9-5.1,20-13.3,26.5-23.4
				c6.4-10.1,9.8-21.9,9.8-33.9s-3.4-23.8-9.9-33.9c-6.4-10.1-15.6-18.2-26.5-23.4v-19.5c15.9,5.6,29.7,16,39.4,29.8
				C539.7,666.7,544.9,683.2,544.9,700z"/>
			<rect x="399.9" y="691" class="st7" width="72.5" height="18.1"/>
			<path class="st7" d="M508.7,700c0-5.9-1.2-11.8-3.4-17.3c-2.3-5.5-5.6-10.5-9.8-14.7c-4.2-4.2-9.2-7.5-14.7-9.8
				s-11.4-3.4-17.3-3.4h-27.2v18.1h54.4v54.3h-54.4v18.1h27.2c6,0,11.8-1.2,17.3-3.4c5.5-2.3,10.5-5.6,14.7-9.8s7.5-9.2,9.8-14.7
				C507.5,711.8,508.7,706,508.7,700z"/>
		</g>
		<g>
			<g>
				<path class="st7" d="M623.8,733.2v-68.5h43.8v10h-33.4v58.5H623.8z"/>
				<path class="st7" d="M666.8,752.8v-68.7h8.4l1,6.2h0.5c1.8-2.3,3.9-4,6.5-5.3c2.5-1.2,5.5-1.9,8.8-1.9c4.2,0,8.1,1.1,11.5,3.2
					c3.5,2.2,6.2,5.2,8.2,9c2,3.9,3,8.3,3,13.2c0,5-1,9.5-3,13.3c-2,3.9-4.7,6.9-8.2,9c-3.5,2.2-7.3,3.2-11.5,3.2
					c-3.3,0-6.1-0.6-8.6-1.9c-2.5-1.2-4.6-2.9-6.3-5h-0.5v25.4h-9.8L666.8,752.8L666.8,752.8z M690.7,725.1c2.6,0,5-0.7,7.1-2.1
					c2.2-1.4,3.9-3.3,5.1-5.8c1.3-2.5,1.9-5.4,1.9-8.7s-0.6-6.1-1.9-8.6c-1.3-2.5-3-4.4-5.1-5.8c-2.2-1.4-4.5-2.1-7.1-2.1
					c-2.5,0-4.9,0.7-7,2.1c-2.2,1.4-3.9,3.3-5.1,5.8c-1.3,2.5-1.9,5.3-1.9,8.6s0.6,6.1,1.9,8.7c1.3,2.5,3,4.4,5.1,5.8
					C685.8,724.4,688.1,725.1,690.7,725.1z"/>
				<path class="st7" d="M721.2,752.8v-9.1h9.6c0.8,0,1.5-0.2,2.1-0.7s1-1.1,1.2-1.9l2.6-7.3v5.8l-21.2-55.4H726l13.9,37.3h2
					l12.5-37.3h10.5L743.2,745c-1,2.7-2.4,4.7-4,6s-4,1.9-7.2,1.9L721.2,752.8L721.2,752.8z"/>
				<path class="st7" d="M769,733.2V684h42.4v49.2h-9.8v-40h-22.9v40H769z"/>
				<path class="st7" d="M822.3,733.2V684h42.4v49.2H855v-40h-22.9v40H822.3z"/>
				<path class="st7" d="M890.9,734.2c-3.5,0-6.6-0.7-9.2-2c-2.6-1.3-4.7-3.1-6.1-5.4c-1.4-2.3-2.2-4.9-2.2-7.8c0-3.2,0.7-6,2.2-8.3
					c1.4-2.3,3.6-4.2,6.6-5.5s6.7-2,11.1-2h12.5v-1.3c0-3.2-0.9-5.7-2.8-7.6c-1.9-1.9-4.4-2.8-7.6-2.8c-3,0-5.4,0.7-7.3,2.1
					c-1.9,1.4-3,3-3.3,5H875c0.3-2.7,1.2-5.2,2.8-7.6c1.6-2.4,3.9-4.3,6.9-5.7s6.5-2.2,10.6-2.2s7.7,0.8,10.7,2.3s5.4,3.7,7,6.6
					c1.6,2.8,2.4,6.1,2.4,9.9v31.4h-8.5l-1-5.4h-0.5c-1.1,1.6-3,3.1-5.6,4.4C897.4,733.6,894.4,734.2,890.9,734.2z M892,725.8
					c2.8,0,5.2-0.5,7.3-1.6s3.7-2.6,4.8-4.6s1.7-4.3,1.7-7v-1.7H894c-3.7,0-6.3,0.7-8.1,2.1c-1.7,1.4-2.6,3.2-2.6,5.5
					c0,2.2,0.7,3.9,2.2,5.2C887.1,725.1,889.2,725.8,892,725.8z"/>
				<path class="st7" d="M947.9,733.2V684h9.8v22.5L978,684h11.7l-22,24.1l23,25.1H979l-21.3-23.5v23.5L947.9,733.2L947.9,733.2z"/>
				<path class="st7" d="M1013,734.2c-4.6,0-8.7-1.1-12.4-3.3s-6.6-5.2-8.8-9.1c-2.1-3.9-3.2-8.3-3.2-13.3c0-4.9,1.1-9.3,3.2-13.2
					c2.1-3.9,5-6.9,8.8-9.1c3.7-2.2,7.9-3.3,12.4-3.3c4.6,0,8.7,1.1,12.4,3.3c3.7,2.2,6.6,5.2,8.8,9.1c2.1,3.9,3.2,8.3,3.2,13.2
					c0,5-1.1,9.4-3.2,13.3c-2.1,3.9-5,6.9-8.8,9.1C1021.7,733.1,1017.5,734.2,1013,734.2z M1013,725.1c2.7,0,5.1-0.7,7.3-2.1
					c2.2-1.4,4-3.3,5.3-5.8c1.3-2.5,2-5.4,2-8.7c0-3.2-0.7-6-2-8.6c-1.3-2.5-3.1-4.4-5.3-5.8c-2.2-1.4-4.7-2.1-7.3-2.1
					s-5,0.7-7.3,2.1c-2.2,1.4-4,3.3-5.3,5.8s-1.9,5.4-1.9,8.6c0,3.3,0.6,6.1,1.9,8.7c1.3,2.5,3,4.4,5.3,5.8
					C1007.9,724.4,1010.4,725.1,1013,725.1z"/>
				<path class="st7" d="M1045.2,733.2V684h16.2l11.9,36.5h2l11.9-36.5h16.2v49.2h-9.8v-35.9h-2l-11.8,35.9h-11.1l-11.8-35.9h-2
					v35.9H1045.2z"/>
				<path class="st7" d="M1113.7,733.2V684h42.4v49.2h-9.8v-40h-22.9v40H1113.7z"/>
				<path class="st7" d="M1182.3,734.2c-3.5,0-6.6-0.7-9.2-2s-4.7-3.1-6.1-5.4c-1.4-2.3-2.2-4.9-2.2-7.8c0-3.2,0.7-6,2.2-8.3
					c1.4-2.3,3.6-4.2,6.6-5.5s6.7-2,11.1-2h12.5v-1.3c0-3.2-0.9-5.7-2.8-7.6s-4.4-2.8-7.6-2.8c-3,0-5.4,0.7-7.3,2.1
					c-1.9,1.4-3,3-3.3,5h-9.8c0.3-2.7,1.2-5.2,2.8-7.6c1.6-2.4,3.9-4.3,6.9-5.7s6.5-2.2,10.6-2.2s7.7,0.8,10.7,2.3s5.4,3.7,7,6.6
					c1.6,2.8,2.4,6.1,2.4,9.9v31.4h-8.5l-1-5.4h-0.5c-1.1,1.6-3,3.1-5.6,4.4C1188.8,733.6,1185.8,734.2,1182.3,734.2z M1183.4,725.8
					c2.8,0,5.2-0.5,7.3-1.6c2.1-1.1,3.7-2.6,4.8-4.6c1.1-2,1.7-4.3,1.7-7v-1.7h-11.8c-3.7,0-6.3,0.7-8.1,2.1
					c-1.7,1.4-2.6,3.2-2.6,5.5c0,2.2,0.7,3.9,2.2,5.2S1180.6,725.8,1183.4,725.8z"/>
				<path class="st7" d="M1217.8,733.2V684h9.8v20h22.9v-19.9h9.8v49.2h-9.8v-20h-22.9v20L1217.8,733.2L1217.8,733.2z"/>
				<path class="st7" d="M1271.1,733.2V684h9.8v35.3h2l16.6-35.3h14.3v49.2h-9.8v-35.4h-2l-16.6,35.4H1271.1z"/>
				<path class="st7" d="M1324.4,733.2V684h9.8v35.3h2l16.6-35.3h14.3v49.2h-9.8v-35.4h-2l-16.6,35.4H1324.4z M1345.8,675.7
					c-4.1,0-7.5-1.2-10.2-3.6c-2.7-2.4-4.1-5.5-4.4-9.4h7.8c0.3,2,1.1,3.6,2.2,4.6c1.2,1.1,2.7,1.6,4.5,1.6c1.9,0,3.4-0.5,4.6-1.6
					s1.9-2.6,2.2-4.6h7.8c-0.3,3.9-1.7,7.1-4.4,9.4C1353.3,674.6,1349.9,675.7,1345.8,675.7z"/>
				<path class="st7" d="M1426.6,734.2c-5.3,0-10.2-1.1-14.4-3.2c-4.3-2.2-7.8-5.1-10.6-8.8c-2.8-3.7-4.7-7.8-5.7-12.3h10.8
					c0.9,2.8,2.3,5.3,4.2,7.4c1.9,2.2,4.1,3.8,6.8,5c2.7,1.2,5.7,1.8,8.9,1.8c3.8,0,7.4-0.9,10.6-2.7s5.8-4.3,7.7-7.4
					c2-3.2,3.1-6.7,3.5-10.5h-30V694h30c-0.4-3.8-1.6-7.2-3.5-10.3c-2-3.1-4.5-5.5-7.7-7.3s-6.7-2.7-10.6-2.7c-4.8,0-9,1.3-12.5,3.9
					c-3.5,2.6-6,5.9-7.4,9.9h-10.8c1.2-4.4,3.2-8.4,6-12s6.4-6.5,10.6-8.6s8.9-3.2,14.1-3.2c6,0,11.5,1.5,16.6,4.5s9,7.2,11.9,12.5
					s4.4,11.4,4.4,18.2s-1.5,12.8-4.4,18.2c-2.9,5.3-6.9,9.5-11.9,12.5C1438.1,732.7,1432.6,734.2,1426.6,734.2z"/>
				<path class="st7" d="M1461.9,733.8v-9.5h2.6c1.9,0,3.4-0.6,4.5-1.7c1.1-1.1,1.8-2.9,2-5.4l2.7-33.2h35v49.2h-9.8v-40.1h-16.1
					l-2.2,25.1c-0.5,5.2-1.9,9.1-4.4,11.7c-2.4,2.6-6,3.9-10.8,3.9H1461.9z"/>
				<path class="st7" d="M1530.6,733.2v-40.1h-16.1V684h42.1v9.1h-16.1v40.1L1530.6,733.2L1530.6,733.2z"/>
				<path class="st7" d="M1575.4,734.2c-3.5,0-6.6-0.7-9.2-2s-4.7-3.1-6.1-5.4c-1.4-2.3-2.2-4.9-2.2-7.8c0-3.2,0.7-6,2.2-8.3
					c1.4-2.3,3.6-4.2,6.6-5.5s6.7-2,11.1-2h12.5v-1.3c0-3.2-0.9-5.7-2.8-7.6s-4.4-2.8-7.6-2.8c-3,0-5.4,0.7-7.3,2.1
					c-1.9,1.4-3,3-3.3,5h-9.8c0.3-2.7,1.2-5.2,2.8-7.6c1.6-2.4,3.9-4.3,6.9-5.7s6.5-2.2,10.6-2.2s7.7,0.8,10.7,2.3s5.4,3.7,7,6.6
					c1.6,2.8,2.4,6.1,2.4,9.9v31.4h-8.5l-1-5.4h-0.5c-1.1,1.6-3,3.1-5.6,4.4C1581.9,733.6,1578.9,734.2,1575.4,734.2z M1576.5,725.8
					c2.8,0,5.2-0.5,7.3-1.6c2.1-1.1,3.7-2.6,4.8-4.6c1.1-2,1.7-4.3,1.7-7v-1.7h-11.8c-3.7,0-6.3,0.7-8.1,2.1
					c-1.7,1.4-2.6,3.2-2.6,5.5c0,2.2,0.7,3.9,2.2,5.2S1573.7,725.8,1576.5,725.8z"/>
			</g>
		</g>
	</g>
</g>
<line class="st8" x1="1665.8" y1="0" x2="1665.8" y2="1400"/>
<line class="st8" x1="84.2" y1="0" x2="84.2" y2="1400"/>
<line class="st8" x1="328.1" y1="0" x2="328.1" y2="1400"/>
<line class="st8" x1="646.4" y1="0" x2="646.4" y2="1400"/>
<line class="st8" x1="1019.4" y1="0" x2="1019.4" y2="1400"/>
<line class="st8" x1="1826.9" y1="0" x2="1826.9" y2="1400"/>
<line class="st8" x1="1912.2" y1="0" x2="1912.2" y2="1400"/>
<line class="st8" x1="2003" y1="595.2" x2="0" y2="595.2"/>
<line class="st8" x1="2003" y1="765.8" x2="0" y2="765.8"/>
<rect x="1580.4" y="765.8" class="st1" width="85.3" height="85.3"/>
<g>
	<path class="st7" d="M1826.8,680.5c0,18.7-5.8,36.9-16.6,52.2c-10.8,15.3-26.1,26.8-43.7,33.1v-21.7c12.1-5.7,22.2-14.7,29.4-26
		c7.1-11.3,10.9-24.3,10.9-37.6s-3.8-26.4-10.9-37.6c-7.1-11.3-17.3-20.3-29.4-26v-21.7c17.7,6.2,33,17.8,43.8,33.1
		C1821,643.5,1826.8,661.8,1826.8,680.5z"/>
	<rect x="1665.8" y="670.5" class="st7" width="80.5" height="20.1"/>
	<path class="st7" d="M1786.5,680.5c0-6.6-1.3-13.1-3.8-19.2c-2.5-6.1-6.2-11.6-10.9-16.3c-4.7-4.7-10.2-8.4-16.3-10.9
		c-6.1-2.5-12.7-3.8-19.3-3.8H1706v20.1h60.4v60.3H1706v20.1h30.2c6.6,0,13.2-1.3,19.3-3.8c6.1-2.5,11.7-6.2,16.3-10.9
		c4.7-4.7,8.4-10.2,10.9-16.3C1785.2,693.6,1786.5,687.1,1786.5,680.5z"/>
</g>
<rect x="1580.3" y="510" class="st9" width="331.9" height="341"/>
<polyline class="st9" points="1579.5,851 84.2,851 84.2,510 1579.5,510 "/>
<g>
	<g>
		<g>
			<path class="st1" d="M1934.9,540.4v-11.9l-11.5-19.5h3.8l9,15.5h0.9l9-15.5h3.8l-11.5,19.5v11.9H1934.9z"/>
			<path class="st1" d="M1961.1,525.1v-11.7h-3.8V511h2.5c0.4,0,0.8-0.1,1-0.3s0.3-0.6,0.3-1V509h2.7v16.2h-2.7V525.1z
				 M1957.8,540.4l19.5-31.4h3.1l-19.5,31.4H1957.8z M1973.5,540.4v-2.2l6.3-6.5c0.5-0.5,0.8-0.9,1-1.3c0.2-0.4,0.3-0.9,0.3-1.4
				c0-0.7-0.2-1.3-0.7-1.8c-0.4-0.5-1-0.7-1.8-0.7s-1.5,0.2-2,0.7s-0.7,1.1-0.7,2h-2.7c0-1.5,0.5-2.7,1.5-3.7s2.3-1.5,3.9-1.5
				s2.8,0.5,3.8,1.4c0.9,0.9,1.4,2.1,1.4,3.6c0,0.9-0.2,1.7-0.5,2.3s-0.9,1.3-1.7,2.2l-4,4.3v0.2h6.5v2.5L1973.5,540.4L1973.5,540.4
				z"/>
		</g>
	</g>
</g>
<g>
	<g>
		<g>
			<path class="st1" d="M1931.1,634.9V623l-11.5-19.5h3.8l9,15.5h0.9l9-15.5h3.8l-11.5,19.5v11.9H1931.1z"/>
		</g>
	</g>
</g>
<g id="lockup" class="st3">
	<rect class="st6" width="2000" height="1400"/>
	<g class="st5">
		<g>
			<path class="st7" d="M1941.1,700c0,16.8-5.2,33.3-14.9,47c-9.7,13.8-23.5,24.2-39.4,29.8v-19.5c10.9-5.1,20-13.3,26.5-23.4
				c6.4-10.1,9.8-21.9,9.8-33.9s-3.4-23.8-9.9-33.9c-6.4-10.1-15.6-18.2-26.5-23.4v-19.5c15.9,5.6,29.7,16,39.4,29.8
				C1935.8,666.7,1941.1,683.2,1941.1,700z"/>
			<rect x="1796.1" y="691" class="st7" width="72.5" height="18.1"/>
			<path class="st7" d="M1904.8,700c0-5.9-1.2-11.8-3.4-17.3c-2.3-5.5-5.6-10.5-9.8-14.7c-4.2-4.2-9.2-7.5-14.7-9.8
				s-11.4-3.4-17.3-3.4h-27.2v18.1h54.4v54.3h-54.4v18.1h27.2c6,0,11.8-1.2,17.3-3.4c5.5-2.3,10.5-5.6,14.7-9.8s7.5-9.2,9.8-14.7
				C1903.6,711.8,1904.8,706,1904.8,700z"/>
		</g>
		<g>
			<g>
				<path class="st7" d="M58.9,733.2v-68.5h43.8v10H69.3v58.5H58.9z"/>
				<path class="st7" d="M102,752.8v-68.7h8.4l1,6.2h0.5c1.8-2.3,3.9-4,6.5-5.3c2.5-1.2,5.5-1.9,8.8-1.9c4.2,0,8.1,1.1,11.5,3.2
					c3.5,2.2,6.2,5.2,8.2,9c2,3.9,3,8.3,3,13.2c0,5-1,9.5-3,13.3c-2,3.9-4.7,6.9-8.2,9c-3.5,2.2-7.3,3.2-11.5,3.2
					c-3.3,0-6.1-0.6-8.6-1.9c-2.5-1.2-4.6-2.9-6.3-5h-0.5v25.4H102V752.8z M125.8,725.1c2.6,0,5-0.7,7.1-2.1
					c2.2-1.4,3.9-3.3,5.1-5.8c1.3-2.5,1.9-5.4,1.9-8.7s-0.6-6.1-1.9-8.6c-1.3-2.5-3-4.4-5.1-5.8c-2.2-1.4-4.5-2.1-7.1-2.1
					c-2.5,0-4.9,0.7-7,2.1c-2.2,1.4-3.9,3.3-5.1,5.8c-1.3,2.5-1.9,5.3-1.9,8.6s0.6,6.1,1.9,8.7c1.3,2.5,3,4.4,5.1,5.8
					C120.9,724.4,123.3,725.1,125.8,725.1z"/>
				<path class="st7" d="M156.3,752.8v-9.1h9.6c0.8,0,1.5-0.2,2.1-0.7s1-1.1,1.2-1.9l2.6-7.3v5.8l-21.2-55.4h10.5l13.9,37.3h2
					l12.5-37.3H200L178.3,745c-1,2.7-2.4,4.7-4,6s-4,1.9-7.2,1.9L156.3,752.8L156.3,752.8z"/>
				<path class="st7" d="M204.1,733.2V684h42.4v49.2h-9.8v-40h-22.9v40H204.1z"/>
				<path class="st7" d="M257.4,733.2V684h42.4v49.2H290v-40h-22.9v40H257.4z"/>
				<path class="st7" d="M326.1,734.2c-3.5,0-6.6-0.7-9.2-2s-4.7-3.1-6.1-5.4c-1.4-2.3-2.2-4.9-2.2-7.8c0-3.2,0.7-6,2.2-8.3
					c1.4-2.3,3.6-4.2,6.6-5.5s6.7-2,11.1-2H341v-1.3c0-3.2-0.9-5.7-2.8-7.6c-1.9-1.9-4.4-2.8-7.6-2.8c-3,0-5.4,0.7-7.3,2.1
					c-1.9,1.4-3,3-3.3,5h-9.8c0.3-2.7,1.2-5.2,2.8-7.6c1.6-2.4,3.9-4.3,6.9-5.7s6.5-2.2,10.6-2.2s7.7,0.8,10.7,2.3s5.4,3.7,7,6.6
					c1.6,2.8,2.4,6.1,2.4,9.9v31.4h-8.5l-1-5.4h-0.5c-1.1,1.6-3,3.1-5.6,4.4C332.6,733.6,329.5,734.2,326.1,734.2z M327.2,725.8
					c2.8,0,5.2-0.5,7.3-1.6c2.1-1.1,3.7-2.6,4.8-4.6c1.1-2,1.7-4.3,1.7-7v-1.7h-11.8c-3.7,0-6.3,0.7-8.1,2.1
					c-1.7,1.4-2.6,3.2-2.6,5.5c0,2.2,0.7,3.9,2.2,5.2C322.2,725.1,324.4,725.8,327.2,725.8z"/>
				<path class="st7" d="M383.1,733.2V684h9.8v22.5l20.3-22.5h11.7l-22,24.1l23,25.1h-11.7l-21.3-23.5v23.5L383.1,733.2L383.1,733.2
					z"/>
				<path class="st7" d="M448.1,734.2c-4.6,0-8.7-1.1-12.4-3.3c-3.7-2.2-6.6-5.2-8.8-9.1c-2.1-3.9-3.2-8.3-3.2-13.3
					c0-4.9,1.1-9.3,3.2-13.2s5-6.9,8.8-9.1c3.7-2.2,7.9-3.3,12.4-3.3c4.6,0,8.7,1.1,12.4,3.3c3.7,2.2,6.6,5.2,8.8,9.1
					c2.1,3.9,3.2,8.3,3.2,13.2c0,5-1.1,9.4-3.2,13.3c-2.1,3.9-5,6.9-8.8,9.1C456.8,733.1,452.7,734.2,448.1,734.2z M448.1,725.1
					c2.7,0,5.1-0.7,7.3-2.1c2.2-1.4,4-3.3,5.3-5.8s2-5.4,2-8.7c0-3.2-0.7-6-2-8.6c-1.3-2.5-3.1-4.4-5.3-5.8
					c-2.2-1.4-4.7-2.1-7.3-2.1c-2.6,0-5,0.7-7.3,2.1c-2.2,1.4-4,3.3-5.3,5.8s-1.9,5.4-1.9,8.6c0,3.3,0.6,6.1,1.9,8.7
					c1.3,2.5,3,4.4,5.3,5.8C443.1,724.4,445.5,725.1,448.1,725.1z"/>
				<path class="st7" d="M480.4,733.2V684h16.2l11.9,36.5h2l11.9-36.5h16.2v49.2h-9.8v-35.9h-2L515,733.2h-11l-11.8-35.9h-2v35.9
					H480.4z"/>
				<path class="st7" d="M548.8,733.2V684h42.4v49.2h-9.8v-40h-22.9v40H548.8z"/>
				<path class="st7" d="M617.5,734.2c-3.5,0-6.6-0.7-9.2-2c-2.6-1.3-4.7-3.1-6.1-5.4c-1.4-2.3-2.2-4.9-2.2-7.8c0-3.2,0.7-6,2.2-8.3
					c1.4-2.3,3.6-4.2,6.6-5.5s6.7-2,11.1-2h12.5v-1.3c0-3.2-0.9-5.7-2.8-7.6c-1.9-1.9-4.4-2.8-7.6-2.8c-3,0-5.4,0.7-7.3,2.1
					c-1.9,1.4-3,3-3.3,5h-9.8c0.3-2.7,1.2-5.2,2.8-7.6c1.6-2.4,3.9-4.3,6.9-5.7s6.5-2.2,10.6-2.2s7.7,0.8,10.7,2.3s5.4,3.7,7,6.6
					c1.6,2.8,2.4,6.1,2.4,9.9v31.4h-8.5l-1-5.4H632c-1.1,1.6-3,3.1-5.6,4.4C624,733.6,620.9,734.2,617.5,734.2z M618.6,725.8
					c2.8,0,5.2-0.5,7.3-1.6s3.7-2.6,4.8-4.6s1.7-4.3,1.7-7v-1.7h-11.8c-3.7,0-6.3,0.7-8.1,2.1c-1.7,1.4-2.6,3.2-2.6,5.5
					c0,2.2,0.7,3.9,2.2,5.2S615.8,725.8,618.6,725.8z"/>
				<path class="st7" d="M653,733.2V684h9.8v20h22.9v-19.9h9.8v49.2h-9.8v-20h-22.9v20L653,733.2L653,733.2z"/>
				<path class="st7" d="M706.3,733.2V684h9.8v35.3h2l16.6-35.3H749v49.2h-9.8v-35.4h-2l-16.6,35.4H706.3z"/>
				<path class="st7" d="M759.6,733.2V684h9.8v35.3h2L788,684h14.3v49.2h-9.8v-35.4h-2l-16.6,35.4H759.6z M781,675.7
					c-4.1,0-7.5-1.2-10.2-3.6c-2.7-2.4-4.1-5.5-4.4-9.4h7.8c0.3,2,1.1,3.6,2.2,4.6c1.2,1.1,2.7,1.6,4.5,1.6c1.9,0,3.4-0.5,4.6-1.6
					c1.2-1.1,1.9-2.6,2.2-4.6h7.8c-0.3,3.9-1.7,7.1-4.4,9.4C788.5,674.6,785.1,675.7,781,675.7z"/>
				<path class="st7" d="M861.8,734.2c-5.3,0-10.2-1.1-14.4-3.2c-4.3-2.2-7.8-5.1-10.6-8.8s-4.7-7.8-5.7-12.3h10.8
					c0.9,2.8,2.3,5.3,4.2,7.4c1.9,2.2,4.1,3.8,6.8,5s5.7,1.8,8.9,1.8c3.8,0,7.4-0.9,10.6-2.7c3.2-1.8,5.8-4.3,7.7-7.4
					c2-3.2,3.1-6.7,3.5-10.5h-30V694h30c-0.4-3.8-1.6-7.2-3.5-10.3c-2-3.1-4.5-5.5-7.7-7.3s-6.7-2.7-10.6-2.7c-4.8,0-9,1.3-12.5,3.9
					c-3.5,2.6-6,5.9-7.4,9.9H831c1.2-4.4,3.2-8.4,6-12s6.4-6.5,10.6-8.6c4.2-2.1,8.9-3.2,14.1-3.2c6,0,11.5,1.5,16.6,4.5
					s9,7.2,11.9,12.5s4.4,11.4,4.4,18.2s-1.5,12.8-4.4,18.2c-2.9,5.3-6.9,9.5-11.9,12.5C873.3,732.7,867.7,734.2,861.8,734.2z"/>
				<path class="st7" d="M897.1,733.8v-9.5h2.6c1.9,0,3.4-0.6,4.5-1.7c1.1-1.1,1.8-2.9,2-5.4l2.7-33.2h35v49.2h-9.8v-40.1H918
					l-2.2,25.1c-0.5,5.2-1.9,9.1-4.4,11.7c-2.4,2.6-6,3.9-10.8,3.9H897.1z"/>
				<path class="st7" d="M965.7,733.2v-40.1h-16.1V684h42.1v9.1h-16.1v40.1L965.7,733.2L965.7,733.2z"/>
				<path class="st7" d="M1010.6,734.2c-3.5,0-6.6-0.7-9.2-2s-4.7-3.1-6.1-5.4c-1.4-2.3-2.2-4.9-2.2-7.8c0-3.2,0.7-6,2.2-8.3
					c1.4-2.3,3.6-4.2,6.6-5.5s6.7-2,11.1-2h12.5v-1.3c0-3.2-0.9-5.7-2.8-7.6s-4.4-2.8-7.6-2.8c-3,0-5.4,0.7-7.3,2.1
					c-1.9,1.4-3,3-3.3,5h-9.8c0.3-2.7,1.2-5.2,2.8-7.6c1.6-2.4,3.9-4.3,6.9-5.7s6.5-2.2,10.6-2.2s7.7,0.8,10.7,2.3s5.4,3.7,7,6.6
					c1.6,2.8,2.4,6.1,2.4,9.9v31.4h-8.5l-1-5.4h-0.5c-1.1,1.6-3,3.1-5.6,4.4C1017.1,733.6,1014,734.2,1010.6,734.2z M1011.7,725.8
					c2.8,0,5.2-0.5,7.3-1.6s3.7-2.6,4.8-4.6c1.1-2,1.7-4.3,1.7-7v-1.7h-11.8c-3.7,0-6.3,0.7-8.1,2.1c-1.7,1.4-2.6,3.2-2.6,5.5
					c0,2.2,0.7,3.9,2.2,5.2C1006.7,725.1,1008.9,725.8,1011.7,725.8z"/>
			</g>
		</g>
	</g>
</g>
<text transform="matrix(1 0 0 1 877.65 1345.8845)" class="st0 st10 st11">INFOЕ08</text>
<g>
	<path class="st7" d="M146.2,680.6c0,20.8-12.8,34.7-33,34.7c-15.8,0-26.7-9.3-29.1-23.5h11.6c2.2,8.4,8.4,13.8,18.1,13.8
		c11.5,0,19.3-8.1,20.8-20.5h-26.3v-9.6h26.3c-1.6-12.1-8.9-19.9-20.2-19.9c-9.8,0-15.9,5.4-18.2,13.8H84.6
		c2.3-14.2,13.6-23.5,29.4-23.5C134.1,645.8,146.2,659.6,146.2,680.6z"/>
	<path class="st7" d="M147.2,714.7v-10h1.8c7,0,10.2-4.5,10.2-24.7v-33.7h49.4v68.3h-11.2v-58.4h-27.4v24.6
		c0,25.5-6.1,33.8-19.5,33.8H147.2z"/>
	<path class="st7" d="M216.7,646.4h53.4v10H249v58.4h-11.2v-58.4h-21.1V646.4z"/>
	<path class="st7" d="M263.7,714.7l25.6-68.3h13.4l25.5,68.3h-12l-6.4-16.9h-28l-6.3,16.9H263.7z M284.8,688.3h21.8l-10.9-29.8
		L284.8,688.3z"/>
</g>
<g>
	<path class="st7" d="M646.4,661.5v-15.6h1.9v6.8h2.9l5.1-6.8h2.3l-5.7,7.5l6.1,8.1h-2.4l-5.4-7h-2.9v7H646.4z"/>
	<path class="st7" d="M666.7,661.6c-4.4,0-7.4-3.3-7.4-7.9s3.1-7.9,7.4-7.9c4.4,0,7.4,3.3,7.4,7.9S671.1,661.6,666.7,661.6z
		 M666.7,659.9c3.3,0,5.4-2.6,5.4-6.1c0-3.6-2.2-6.1-5.4-6.1c-3.2,0-5.4,2.6-5.4,6.1C661.3,657.3,663.5,659.9,666.7,659.9z"/>
	<path class="st7" d="M676.6,645.9h2.5l5.5,12.9l5.4-12.9h2.4v15.6h-1.9v-12.3l-5.1,12.3h-1.7l-5.2-12.3v12.3h-1.9L676.6,645.9
		L676.6,645.9z"/>
	<path class="st7" d="M695.5,661.5v-15.6h11.8v15.6h-1.9v-13.8h-7.9v13.8H695.5z"/>
	<path class="st7" d="M709,661.5v-1.8h0.4c1.7,0,2.5-1.1,2.5-6.1v-7.7h10.8v15.6h-1.9v-13.8h-7v6c0,6-1.3,7.8-4.1,7.8L709,661.5
		L709,661.5z"/>
	<path class="st7" d="M725.7,645.9h9.9v1.8h-8v5h6.7v1.8h-6.7v5.2h8.3v1.8h-10.2L725.7,645.9L725.7,645.9z"/>
	<path class="st7" d="M738.1,661.5v-15.6h1.9v6.8h2.9l5.1-6.8h2.3l-5.7,7.5l6.1,8.1h-2.4l-5.4-7h-2.9v7H738.1z"/>
	<path class="st7" d="M751,653.7c0-4.7,2.9-7.9,7.4-7.9c3.4,0,6,2,6.6,5.2h-2c-0.6-2.2-2.3-3.4-4.6-3.4c-3.3,0-5.4,2.5-5.4,6.1
		c0,3.6,2,6.1,5.3,6.1c2.4,0,4.1-1.3,4.7-3.4h2c-0.6,3.2-3.2,5.2-6.7,5.2C753.8,661.6,751,658.5,751,653.7z"/>
	<path class="st7" d="M767.3,645.9h1.9v6.8h8.1v-6.8h1.9v15.6h-1.9v-7h-8.1v7h-1.9V645.9z"/>
	<path class="st7" d="M789.1,661.6c-4.4,0-7.4-3.3-7.4-7.9s3.1-7.9,7.4-7.9c4.4,0,7.4,3.3,7.4,7.9S793.5,661.6,789.1,661.6z
		 M789.1,659.9c3.3,0,5.4-2.6,5.4-6.1c0-3.6-2.2-6.1-5.4-6.1c-3.3,0-5.4,2.6-5.4,6.1C783.6,657.3,785.8,659.9,789.1,659.9z"/>
	<path class="st7" d="M799,645.9h9.9v1.8h-8v5h6.7v1.8h-6.7v5.2h8.3v1.8H799L799,645.9L799,645.9z"/>
	<path class="st7" d="M817.2,661.5v-15.6H829v15.6h-1.9v-13.8h-7.9v13.8H817.2z"/>
	<path class="st7" d="M832.1,645.9h6c3.1,0,5.2,1.9,5.2,4.8c0,2.9-2,4.8-5.2,4.8H834v6h-1.9L832.1,645.9L832.1,645.9z M834,647.7v6
		h3.9c2,0,3.4-1.2,3.4-3c0-1.8-1.3-3-3.3-3H834z"/>
	<path class="st7" d="M852.1,661.6c-4.4,0-7.4-3.3-7.4-7.9s3.1-7.9,7.4-7.9s7.4,3.3,7.4,7.9S856.5,661.6,852.1,661.6z M852.1,659.9
		c3.3,0,5.4-2.6,5.4-6.1c0-3.6-2.2-6.1-5.4-6.1c-3.2,0-5.4,2.6-5.4,6.1C846.7,657.3,848.9,659.9,852.1,659.9z"/>
	<path class="st7" d="M862,645.9h9.9v1.8h-8v5h6.7v1.8H864v5.2h8.3v1.8H862V645.9z"/>
	<path class="st7" d="M874.4,661.5v-15.6h1.9v6.8h2.9l5.1-6.8h2.3l-5.7,7.5l6.1,8.1h-2.4l-5.4-7h-2.9v7H874.4z"/>
	<path class="st7" d="M887.4,645.9h12v1.8h-5.1v13.8h-1.9v-13.8h-5V645.9z"/>
	<path class="st7" d="M901.4,661.5v-15.6h1.9v12.4l8.4-12.4h1.8v15.6h-1.9v-12.4l-8.4,12.4H901.4z"/>
	<path class="st7" d="M916.5,645.9h6c3.1,0,5.2,1.9,5.2,4.8c0,2.9-2,4.8-5.2,4.8h-4.1v6h-1.9V645.9L916.5,645.9z M918.4,647.7v6h3.9
		c2,0,3.4-1.2,3.4-3c0-1.8-1.3-3-3.3-3H918.4z"/>
	<path class="st7" d="M936.6,661.6c-4.4,0-7.4-3.3-7.4-7.9s3.1-7.9,7.4-7.9s7.4,3.3,7.4,7.9S941,661.6,936.6,661.6z M936.6,659.9
		c3.3,0,5.4-2.6,5.4-6.1c0-3.6-2.2-6.1-5.4-6.1c-3.3,0-5.4,2.6-5.4,6.1C931.1,657.3,933.3,659.9,936.6,659.9z"/>
	<path class="st7" d="M946.4,645.9h5.5c3.3,0,5.2,1.6,5.2,4.1c0,1.8-1,2.9-2.5,3.4c1.6,0.3,3.1,1.4,3.1,3.6c0,2.8-1.9,4.4-5.7,4.4
		h-5.7L946.4,645.9L946.4,645.9z M948.4,647.7v5h3.7c2,0,3.1-0.9,3.1-2.5s-1.1-2.5-3.1-2.5H948.4z M948.4,654.4v5.3h3.7
		c2.4,0,3.7-1,3.7-2.6c0-1.8-1.4-2.7-3.7-2.7H948.4z"/>
	<path class="st7" d="M958.4,661.5l5.9-15.6h2.3l5.9,15.6h-2.1l-1.6-4.2h-6.8l-1.6,4.2H958.4z M962.7,655.5h5.6l-2.8-7.5
		L962.7,655.5z"/>
	<path class="st7" d="M974.4,645.9h1.9v6.8h8.1v-6.8h1.9v15.6h-1.9v-7h-8.1v7h-1.9V645.9z"/>
	<path class="st7" d="M989.3,661.5v-15.6h1.9v12.4l8.4-12.4h1.8v15.6h-1.9v-12.4l-8.4,12.4H989.3z"/>
	<path class="st7" d="M1004.5,645.9h9.9v1.8h-8v5h6.7v1.8h-6.7v5.2h8.3v1.8h-10.2L1004.5,645.9L1004.5,645.9z"/>
	<path class="st7" d="M1019.4,661.4c0,1.9-1.2,3-3.1,3.1v-1c1.4,0,1.9-1,1.9-1.8c0-0.1,0-0.2,0-0.3c-0.2,0.2-0.5,0.3-0.8,0.3
		c-0.7,0-1.2-0.4-1.2-1.2c0-0.7,0.5-1.3,1.5-1.3C1018.7,659.2,1019.4,660.2,1019.4,661.4z"/>
	<path class="st7" d="M646.4,672.6h2.5l5.5,12.9l5.4-12.9h2.4v15.6h-1.9v-12.3l-5.1,12.3h-1.7l-5.2-12.3v12.3h-1.9L646.4,672.6
		L646.4,672.6z"/>
	<path class="st7" d="M672.1,688.3c-4.4,0-7.4-3.3-7.4-7.9s3.1-7.9,7.4-7.9c4.4,0,7.4,3.3,7.4,7.9S676.5,688.3,672.1,688.3z
		 M672.1,686.5c3.3,0,5.4-2.6,5.4-6.1c0-3.6-2.2-6.1-5.4-6.1c-3.2,0-5.4,2.6-5.4,6.1C666.7,684,668.9,686.5,672.1,686.5z"/>
	<path class="st7" d="M682,672.6h1.9v6.8h8.1v-6.8h1.9v15.6H692v-7H684v7H682V672.6z"/>
	<path class="st7" d="M695.9,672.6h12v1.8h-5.1v13.8H701v-13.8h-5.1L695.9,672.6L695.9,672.6z"/>
	<path class="st7" d="M706.5,688.2l6-15.6h2.3l5.9,15.6h-2.1L717,684h-6.8l-1.6,4.2H706.5z M710.7,682.2h5.6l-2.8-7.5L710.7,682.2z"
		/>
	<path class="st7" d="M721.3,688.2l5.7-8l-5.3-7.6h2.2l4.8,6.8h2.3v-6.8h1.9v6.8h2.3l4.8-6.8h2.2l-5.3,7.6l5.7,8h-2.3l-4.9-7h-2.5v7
		H731v-7h-2.4l-5,7L721.3,688.2L721.3,688.2z"/>
	<path class="st7" d="M750.3,688.2v-15.6h1.9V685l8.4-12.4h1.8v15.6h-1.9v-12.4l-8.4,12.4H750.3z"/>
	<path class="st7" d="M778.1,688.3c-4.4,0-7.4-3.3-7.4-7.9s3.1-7.9,7.4-7.9s7.4,3.3,7.4,7.9S782.5,688.3,778.1,688.3z M778.1,686.5
		c3.3,0,5.4-2.6,5.4-6.1c0-3.6-2.2-6.1-5.4-6.1c-3.2,0-5.4,2.6-5.4,6.1C772.6,684,774.8,686.5,778.1,686.5z"/>
	<path class="st7" d="M788,688.2v-15.6h9.6v1.8h-7.7v4.6h4.2c3,0,5,1.5,5,4.6c0,2.9-2,4.6-5,4.6L788,688.2L788,688.2z M789.9,686.4
		h4c1.9,0,3.2-1.1,3.2-2.8s-1.2-2.8-3.2-2.8h-4V686.4z"/>
	<path class="st7" d="M800.6,680.4c0-4.7,2.9-7.9,7.4-7.9c3.4,0,6,2,6.6,5.2h-2c-0.6-2.2-2.3-3.4-4.6-3.4c-3.3,0-5.4,2.5-5.4,6.1
		c0,3.6,2,6.1,5.3,6.1c2.4,0,4.1-1.3,4.7-3.4h2c-0.6,3.2-3.2,5.2-6.7,5.2C803.4,688.3,800.6,685.2,800.6,680.4z"/>
	<path class="st7" d="M815.2,688.2v-1.8h0.4c1.7,0,2.5-1.1,2.5-6.1v-7.7h10.8v15.6h-1.9v-13.8h-7v6c0,6-1.3,7.8-4.1,7.8H815.2
		L815.2,688.2z"/>
	<path class="st7" d="M832.4,688.2v-1.8h1.4c1.3,0,1.7-0.2,2.3-1.5l0.5-1.1l-6-11.3h2.2l4.8,9.2l4.1-9.2h2.1l-6,12.8
		c-1,2.2-2,2.7-3.6,2.7H832.4L832.4,688.2z"/>
	<path class="st7" d="M844.2,688.2l5.7-8l-5.3-7.6h2.2l4.8,6.8h2.3v-6.8h1.9v6.8h2.3l4.8-6.8h2.2l-5.3,7.6l5.7,8h-2.3l-4.9-7H856v7
		H854v-7h-2.4l-5,7L844.2,688.2L844.2,688.2z"/>
	<path class="st7" d="M867.3,688.2v-15.6h1.9V685l8.4-12.4h1.8v15.6h-1.9v-12.4l-8.4,12.4H867.3z"/>
	<path class="st7" d="M882.5,672.6h5.5c3.3,0,5.2,1.6,5.2,4.1c0,1.8-1,2.9-2.5,3.4c1.6,0.3,3.1,1.4,3.1,3.6c0,2.8-1.9,4.4-5.7,4.4
		h-5.7L882.5,672.6L882.5,672.6z M884.4,674.4v5h3.7c2,0,3.1-0.9,3.1-2.5s-1.1-2.5-3.1-2.5H884.4z M884.4,681.1v5.3h3.7
		c2.4,0,3.7-1,3.7-2.6c0-1.8-1.4-2.7-3.7-2.7H884.4z"/>
	<path class="st7" d="M894.5,688.2l5.9-15.6h2.3l5.9,15.6h-2.1l-1.6-4.2h-6.8l-1.6,4.2H894.5z M898.7,682.2h5.6l-2.8-7.5
		L898.7,682.2z"/>
	<path class="st7" d="M910.4,672.6h1.9v6.8h8.1v-6.8h1.9v15.6h-1.9v-7h-8.1v7h-1.9V672.6z"/>
	<path class="st7" d="M925.3,688.2v-15.6h1.9V685l8.4-12.4h1.8v15.6h-1.9v-12.4l-8.4,12.4H925.3z"/>
	<path class="st7" d="M940.5,672.6h9.9v1.8h-8v5h6.7v1.8h-6.7v5.2h8.3v1.8h-10.2V672.6z"/>
	<path class="st7" d="M646.4,714.9v-15.6h1.9v12.4l8.4-12.4h1.8v15.6h-1.9v-12.4l-8.4,12.4H646.4z"/>
	<path class="st7" d="M661.5,699.3h1.9v6.8h8.1v-6.8h1.9v15.6h-1.9v-7h-8.1v7h-1.9V699.3z"/>
	<path class="st7" d="M675.3,714.9l5.7-8l-5.3-7.6h2.2l4.8,6.8h2.3v-6.8h1.9v6.8h2.3l4.8-6.8h2.2l-5.3,7.6l5.7,8h-2.3l-4.9-7H687v7
		H685v-7h-2.4l-5,7L675.3,714.9L675.3,714.9z"/>
	<path class="st7" d="M698.5,699.3h9.9v1.8h-8v5h6.7v1.8h-6.7v5.2h8.3v1.8h-10.2L698.5,699.3L698.5,699.3z"/>
	<path class="st7" d="M710.8,699.3h1.9v6.8h8.1v-6.8h1.9v15.6h-1.9v-7h-8.1v7h-1.9V699.3z"/>
	<path class="st7" d="M725.8,699.3h9.9v1.8h-8v5h6.7v1.8h-6.7v5.2h8.3v1.8h-10.2V699.3z"/>
	<path class="st7" d="M738.2,699.3h6c3.1,0,5.2,1.9,5.2,4.8c0,2.9-2,4.8-5.2,4.8h-4.1v6h-1.9V699.3z M740.2,701.1v6h3.9
		c2,0,3.4-1.2,3.4-3c0-1.8-1.3-3-3.3-3H740.2z"/>
	<path class="st7" d="M751.4,699.3h1.9v6.8h8.1v-6.8h1.9v15.6h-1.9v-7h-8.1v7h-1.9V699.3z"/>
	<path class="st7" d="M766.4,714.9v-15.6h1.9v6h3.9c3.1,0,5.1,2,5.1,4.8c0,2.8-2,4.8-5.1,4.8L766.4,714.9L766.4,714.9z M768.3,713.1
		h3.7c2,0,3.3-1.2,3.3-3s-1.3-3-3.3-3h-3.7V713.1z M779.4,714.9v-15.6h1.9v15.6H779.4z"/>
	<path class="st7" d="M788.4,706.9l-4.9-7.6h2.3l3.9,6l3.9-6h2.2l-4.9,7.5l5.2,8.1h-2.3l-4.2-6.5l-4.2,6.5h-2.3L788.4,706.9z"/>
	<path class="st7" d="M803.2,707.1c0-4.7,2.9-7.9,7.4-7.9c3.4,0,6,2,6.6,5.2h-2c-0.6-2.2-2.3-3.4-4.6-3.4c-3.3,0-5.4,2.5-5.4,6.1
		c0,3.6,2,6.1,5.3,6.1c2.4,0,4.1-1.3,4.7-3.4h2c-0.6,3.2-3.2,5.2-6.7,5.2C806,715.1,803.2,711.9,803.2,707.1z"/>
	<path class="st7" d="M819.5,714.9v-15.6h1.9v12.4l8.4-12.4h1.8v15.6h-1.9v-12.4l-8.4,12.4H819.5z"/>
	<path class="st7" d="M834.1,707.1c0-4.7,2.9-7.9,7.4-7.9c3.4,0,6,2,6.6,5.2h-2c-0.6-2.2-2.3-3.4-4.6-3.4c-3.3,0-5.4,2.5-5.4,6.1
		c0,3.6,2,6.1,5.3,6.1c2.4,0,4.1-1.3,4.7-3.4h2c-0.6,3.2-3.2,5.2-6.7,5.2C836.9,715.1,834.1,711.9,834.1,707.1z"/>
	<path class="st7" d="M848.5,699.3h12v1.8h-5.1v13.8h-1.9v-13.8h-5V699.3z"/>
	<path class="st7" d="M862.5,699.3h9.9v1.8h-8v5h6.7v1.8h-6.7v5.2h8.3v1.8h-10.2L862.5,699.3L862.5,699.3z"/>
	<path class="st7" d="M874.9,699.3h2.5l5.5,12.9l5.4-12.9h2.4v15.6h-1.9v-12.3l-5.2,12.3H882l-5.2-12.3v12.3h-1.9L874.9,699.3
		L874.9,699.3z"/>
</g>
</svg>
