<?xml version="1.0" encoding="utf-8"?>
<!-- Generator: Adobe Illustrator 22.0.0, SVG Export Plug-In . SVG Version: 6.00 Build 0)  -->
<svg version="1.1" id="Layer_1" xmlns="http://www.w3.org/2000/svg" xmlns:xlink="http://www.w3.org/1999/xlink" x="0px" y="0px"
	 viewBox="0 0 2000 1400" style="enable-background:new 0 0 2000 1400;" xml:space="preserve">
<style type="text/css">
	.st0{display:none;}
	.st1{display:inline;fill:#1B1B2D;}
	.st2{display:inline;}
	.st3{fill:#FFFFFF;}
	.st4{fill:#1B1B2D;}
</style>
<g id="Layer_2_1_" class="st0">
	<rect class="st1" width="2000" height="2000"/>
	<g class="st2">
		<g>
			<path class="st3" d="M584.8,976.5c0,35.9-11.1,70.9-31.9,100.3c-20.7,29.3-50.1,51.5-84,63.5v-41.7c23.2-11,42.7-28.3,56.4-49.9
				s21-46.7,20.9-72.3c0-25.6-7.3-50.7-21-72.3s-33.3-38.9-56.5-49.8v-41.7c33.9,12,63.3,34.2,84,63.5
				C573.6,905.6,584.7,940.6,584.8,976.5z"/>
			<rect x="275.5" y="957.2" class="st3" width="154.6" height="38.6"/>
			<path class="st3" d="M507.4,976.5c0-12.7-2.5-25.2-7.4-36.9s-12-22.4-20.9-31.3c-9-9-19.6-16.1-31.4-20.9
				c-11.7-4.8-24.3-7.3-37-7.3h-57.9v38.6h115.9v115.8h-116v38.6h57.9c12.7,0,25.3-2.5,37-7.3s22.4-12,31.4-20.9
				c9-9,16.1-19.6,21-31.3C504.9,1001.8,507.4,989.2,507.4,976.5z"/>
		</g>
		<g>
			<g>
				<path class="st3" d="M925.5,1125.6c-22,0-41.8-4.4-59.3-13.3c-17.6-8.8-32.1-20.8-43.6-36c-11.5-15.1-19.3-32-23.3-50.5h44.2
					c3.8,11.5,9.4,21.7,17.1,30.6c7.6,8.8,17,15.8,28.1,20.7c11.1,5,23.4,7.4,36.8,7.4c15.8,0,30.3-3.7,43.4-11.1
					c13.1-7.4,23.7-17.6,31.8-30.6c8-13,12.9-27.4,14.5-43.2H891.7v-39h123.4c-1.6-15.5-6.4-29.7-14.5-42.4
					c-8-12.7-18.6-22.8-31.8-30.2c-13.1-7.4-27.6-11.1-43.4-11.1c-19.8,0-37,5.3-51.5,15.9c-14.5,10.6-24.7,24.2-30.6,40.8h-44.2
					c4.8-18,13.1-34.4,24.7-49.3c11.7-14.9,26.2-26.7,43.6-35.4c17.4-8.7,36.7-13.1,57.9-13.1c24.7,0,47.4,6.2,68.2,18.5
					s37.1,29.5,49.1,51.5c11.9,22,17.9,46.9,17.9,74.8c0,27.9-6,52.8-17.9,74.8s-28.3,39.1-49.1,51.5
					C972.8,1119.5,950.1,1125.6,925.5,1125.6z"/>
				<path class="st3" d="M1082.7,1124v-39h10.9c7.8,0,14-2.3,18.7-6.8c4.7-4.6,7.4-11.9,8.2-22.1l11.3-136.7h143.9v202.2h-40.2
					V956.8h-66.3l-9.2,103.3c-1.9,21.4-7.8,37.5-17.9,48c-10.1,10.6-24.9,15.9-44.4,15.9H1082.7z"/>
				<path class="st3" d="M1368.9,1121.6V956.8h-66.3v-37.4h173.3v37.4h-66.3v164.8H1368.9z"/>
				<path class="st3" d="M1565.5,1125.6c-14.5,0-27.1-2.8-38-8.2c-10.9-5.5-19.2-12.9-25.1-22.3s-8.8-20.1-8.8-32.2
					c0-13.1,2.9-24.5,8.8-34.2c5.9-9.6,14.9-17.2,27.1-22.7s27.4-8.2,45.6-8.2h51.5v-5.2c0-13.1-3.8-23.5-11.5-31.2
					c-7.6-7.6-18-11.5-31.2-11.5c-12.3,0-22.3,2.8-30,8.4c-7.6,5.6-12.1,12.5-13.5,20.5h-40.2c1.1-11,5-21.4,11.7-31.2
					s16.2-17.6,28.5-23.5s26.8-8.8,43.4-8.8c16.9,0,31.6,3.2,44,9.4c12.5,6.3,22,15.3,28.7,26.9c6.7,11.7,10.1,25.3,10.1,40.8v129.1
					h-35l-4-22.1h-2c-4.6,6.7-12.2,12.7-22.9,18.1C1592.2,1123,1579.7,1125.6,1565.5,1125.6z M1570,1091.1c11.5,0,21.6-2.2,30.2-6.6
					s15.1-10.7,19.7-18.9c4.6-8.2,6.8-17.8,6.8-28.7v-6.8H1578c-15,0-26.1,2.9-33.2,8.6c-7.1,5.8-10.7,13.3-10.7,22.7
					c0,8.8,3.1,16,9.2,21.5C1549.6,1088.3,1558.4,1091.1,1570,1091.1z"/>
			</g>
		</g>
	</g>
</g>
<rect class="st3" width="2000" height="1400"/>
<g>
	<g>
		<g>
			<path class="st4" d="M527.2,700c0,21.9-6.8,43.4-19.4,61.2c-12.6,17.8-30.6,31.5-51.3,38.8v-25.4c14.2-6.6,26-17.3,34.5-30.5
				c8.3-13.2,12.8-28.5,12.8-44.1s-4.4-31-12.9-44.1c-8.3-13.2-20.3-23.7-34.5-30.5V600c20.7,7.3,38.7,20.8,51.3,38.8
				C520.3,656.6,527.2,678.1,527.2,700z"/>
			<rect x="338.4" y="688.3" class="st4" width="94.4" height="23.6"/>
			<path class="st4" d="M479.8,700c0-7.7-1.6-15.4-4.4-22.5c-3-7.2-7.3-13.7-12.8-19.1s-12-9.8-19.1-12.8c-7.2-3-14.8-4.4-22.5-4.4
				h-35.4v23.6h70.8v70.7h-70.8V759H421c7.8,0,15.4-1.6,22.5-4.4c7.2-3,13.7-7.3,19.1-12.8s9.8-12,12.8-19.1
				C478.4,715.4,479.8,707.8,479.8,700z"/>
		</g>
	</g>
	<g>
		<path class="st4" d="M684.2,763c-10.7,0-20.6-2.7-29.6-8.1c-9-5.3-16.1-12.8-21.4-22.4c-5.2-9.5-7.8-20.3-7.8-32.6
			c0-12.1,2.6-22.9,7.8-32.6c5.2-9.5,12.2-17.1,21.4-22.4c9-5.3,18.9-8.1,29.6-8.1c10.8,0,20.7,2.7,29.8,8.1
			c9,5.3,16.1,12.8,21.4,22.4c5.2,9.5,7.8,20.4,7.8,32.6s-2.6,22.9-7.8,32.6c-5.2,9.5-12.2,17.1-21.4,22.4
			C704.9,760.4,695,763,684.2,763z M684.2,745.3c7.4,0,14.2-2,20.3-5.7c6.1-3.8,10.9-9.1,14.5-15.9c3.5-6.8,5.3-14.6,5.3-23.4
			c0-8.9-1.8-16.7-5.3-23.4c-3.5-6.8-8.3-12.1-14.5-15.9c-6.1-3.8-12.9-5.7-20.3-5.7c-7.3,0-14.1,2-20.2,5.7
			c-6.1,3.8-10.9,9.1-14.6,15.9c-3.6,6.8-5.5,14.6-5.5,23.4c0,8.9,1.8,16.7,5.5,23.4c3.6,6.8,8.5,12.1,14.6,15.9
			C670.2,743.4,676.8,745.3,684.2,745.3z"/>
		<path class="st4" d="M814.3,763c-10.7,0-20.6-2.7-29.6-8.1c-9-5.3-16.1-12.8-21.4-22.4c-5.2-9.5-7.8-20.3-7.8-32.6
			c0-12.1,2.6-22.9,7.8-32.6c5.2-9.5,12.2-17.1,21.4-22.4c9-5.3,18.9-8.1,29.6-8.1c10.8,0,20.7,2.7,29.8,8.1
			c9,5.3,16.1,12.8,21.4,22.4c5.2,9.5,7.8,20.4,7.8,32.6s-2.6,22.9-7.8,32.6c-5.2,9.5-12.2,17.1-21.4,22.4
			C835,760.4,825.1,763,814.3,763z M814.3,745.3c7.4,0,14.2-2,20.3-5.7c6.1-3.8,10.9-9.1,14.5-15.9c3.5-6.8,5.3-14.6,5.3-23.4
			c0-8.9-1.8-16.7-5.3-23.4c-3.5-6.8-8.3-12.1-14.5-15.9c-6.1-3.8-12.9-5.7-20.3-5.7c-7.3,0-14.1,2-20.2,5.7
			c-6.1,3.8-10.9,9.1-14.6,15.9c-3.6,6.8-5.5,14.6-5.5,23.4c0,8.9,1.8,16.7,5.5,23.4c3.6,6.8,8.5,12.1,14.6,15.9
			C800.3,743.4,807,745.3,814.3,745.3z"/>
		<path class="st4" d="M944.4,763c-10.7,0-20.6-2.7-29.6-8.1c-9-5.3-16.1-12.8-21.4-22.4c-5.2-9.5-7.8-20.3-7.8-32.6
			c0-12.1,2.6-22.9,7.8-32.6c5.2-9.5,12.2-17.1,21.4-22.4c9-5.3,18.9-8.1,29.6-8.1c10.8,0,20.7,2.7,29.8,8.1
			c9,5.3,16.1,12.8,21.4,22.4c5.2,9.5,7.8,20.4,7.8,32.6s-2.6,22.9-7.8,32.6c-5.2,9.5-12.2,17.1-21.4,22.4
			C965.2,760.4,955.3,763,944.4,763z M944.4,745.3c7.4,0,14.2-2,20.3-5.7c6.1-3.8,10.9-9.1,14.5-15.9c3.5-6.8,5.3-14.6,5.3-23.4
			c0-8.9-1.8-16.7-5.3-23.4c-3.5-6.8-8.3-12.1-14.5-15.9c-6.1-3.8-12.9-5.7-20.3-5.7c-7.3,0-14.1,2-20.2,5.7
			c-6.1,3.8-10.9,9.1-14.6,15.9c-3.6,6.8-5.5,14.6-5.5,23.4c0,8.9,1.8,16.7,5.5,23.4c3.6,6.8,8.5,12.1,14.6,15.9
			C930.3,743.4,937.1,745.3,944.4,745.3z"/>
		<path class="st4" d="M1075.6,734.9l-25-34.6l25-34.8h18.2l-24.7,34.8l24.7,34.8h-18.2V734.9z M1111.6,734.9l-25-34.6l25-34.8h18.2
			l-24.7,34.8l24.7,34.8h-18.2V734.9z"/>
		<path class="st4" d="M1197.9,763c-9.5,0-18.1-2-25.8-5.7c-7.7-3.9-13.9-9.1-19-15.6c-4.9-6.6-8.3-13.9-10.2-21.9h19.3
			c1.7,4.9,4.2,9.4,7.4,13.3c3.3,3.9,7.4,6.9,12.2,9c4.8,2.2,10.2,3.3,16,3.3c6.9,0,13.2-1.6,18.9-4.8c5.7-3.3,10.3-7.7,13.8-13.3
			c3.5-5.6,5.6-11.8,6.3-18.8h-53.6v-16.9h53.6c-0.7-6.8-2.7-12.9-6.3-18.5c-3.5-5.5-8.1-9.9-13.8-13.2c-5.7-3.3-12-4.8-18.9-4.8
			c-8.6,0-16,2.3-22.4,6.9c-6.3,4.6-10.7,10.5-13.3,17.7H1143c2.1-7.8,5.7-15,10.8-21.4c5.1-6.5,11.3-11.6,19-15.4
			c7.6-3.8,16-5.7,25.1-5.7c10.7,0,20.6,2.7,29.6,8.1c9,5.3,16.1,12.8,21.4,22.4c5.2,9.5,7.8,20.4,7.8,32.6
			c0,12.1-2.6,22.9-7.8,32.6c-5.2,9.5-12.2,17.1-21.4,22.4C1218.4,760.4,1208.6,763,1197.9,763z"/>
		<path class="st4" d="M1258.3,762.2v-18.4h5.5c3.9,0,6.9-1.2,9.1-3.5s3.6-5.9,4.2-10.7l7.6-90.6h79.3v122.3h-18.8V656.9h-43.4
			l-6.5,75.3c-0.8,10.2-3.8,17.7-8.7,22.7c-4.9,4.9-12.1,7.4-21.1,7.4L1258.3,762.2L1258.3,762.2z"/>
		<path class="st4" d="M1413.7,761.3V656.9h-38.3v-17.8h95.1v17.8h-38.3v104.4H1413.7z"/>
		<path class="st4" d="M1459.2,761.3l44.9-122.3h27.3l44.7,122.3h-19.9l-36.7-102.5h-3.5l-36.7,102.5H1459.2z M1486.3,732.2v-16.8
			h63.5v16.8H1486.3z"/>
		<path class="st4" d="M1582.3,734.9l25-34.8l-25-34.8h18.4l24.7,34.8l-24.7,34.8H1582.3z M1618.5,734.9l25-34.8l-25-34.8h18.4
			l24.7,34.8l-24.7,34.8H1618.5z"/>
	</g>
</g>
</svg>
