<?xml version="1.0" encoding="utf-8"?>
<!-- Generator: Adobe Illustrator 22.0.0, SVG Export Plug-In . SVG Version: 6.00 Build 0)  -->
<svg version="1.1" id="Бараев_Александр_Анатольевич"
	 xmlns="http://www.w3.org/2000/svg" xmlns:xlink="http://www.w3.org/1999/xlink" x="0px" y="0px" viewBox="0 0 2551.2 1417.3"
	 style="enable-background:new 0 0 2551.2 1417.3;" xml:space="preserve">
<style type="text/css">
	.st0{fill:#F2F2F3;}
	.st1{fill:#1B1B2D;}
</style>
<rect class="st0" width="2551.2" height="1417.3"/>
<g>
	<g>
		<path class="st1" d="M1277.6,1131.8c0-12.9,8-21.7,20.4-21.7c9.5,0,16.3,5.5,17.9,14.3h-5.6c-1.6-5.9-6.2-9.5-12.6-9.5
			c-9,0-14.7,7-14.7,16.8c0,9.8,5.5,16.8,14.5,16.8c6.6,0,11.2-3.5,12.8-9.5h5.6c-1.6,8.8-8.7,14.3-18.3,14.3
			C1285.2,1153.5,1277.6,1144.8,1277.6,1131.8z"/>
		<path class="st1" d="M1350.6,1148.5v4.6h-2.7c-4.1,0-5.6-1.8-5.6-4.8c-2,2.8-5.1,5.2-10.4,5.2c-6.8,0-11.5-3.4-11.5-9.1
			c0-6.2,4.3-9.7,12.5-9.7h9.2v-2.1c0-4-2.9-6.5-7.7-6.5c-4.4,0-7.3,2.1-7.9,5.2h-5c0.7-6.1,5.7-9.7,13.2-9.7
			c7.9,0,12.5,4,12.5,11.2v13.6c0,1.6,0.6,2.1,2,2.1H1350.6z M1342,1138.9h-9.6c-4.5,0-7,1.6-7,5.2c0,3.1,2.6,5.1,6.8,5.1
			c6.2,0,9.8-3.6,9.8-8.8V1138.9z"/>
		<path class="st1" d="M1376.9,1122h5v31.1h-5v-13.5h-17.5v13.5h-5V1122h5v13h17.5V1122z"/>
		<path class="st1" d="M1388.8,1153.1V1122h5v13h6.7l9.7-13h5.8l-11.3,14.9l12.3,16.2h-6l-10.4-13.5h-6.7v13.5H1388.8z"/>
		<path class="st1" d="M1429.1,1153.1v-26.5h-11.2v-4.6h27.5v4.6h-11.2v26.5H1429.1z"/>
		<path class="st1" d="M1447.4,1137.9v-4.2h20.3v4.2H1447.4z"/>
		<path class="st1" d="M1475.1,1153.1v-42.7h32.4v42.7h-5.3v-37.8h-21.8v37.8H1475.1z"/>
		<path class="st1" d="M1513.9,1137.6c0-9.5,6-15.9,14.8-15.9c8.8,0,14.5,5.6,14.8,14.8c0,0.7-0.1,1.4-0.1,2.1h-24.2v0.4
			c0.2,5.9,3.9,10.1,9.8,10.1c4.4,0,7.8-2.3,8.8-6.3h5.1c-1.2,6.2-6.3,10.8-13.5,10.8C1520,1153.5,1513.9,1147.1,1513.9,1137.6z
			 M1538.1,1134.4c-0.5-5.4-4.1-8.4-9.3-8.4c-4.6,0-8.8,3.3-9.3,8.4H1538.1z"/>
		<path class="st1" d="M1555.8,1153.1v-26.5h-11.2v-4.6h27.5v4.6h-11.2v26.5H1555.8z"/>
		<path class="st1" d="M1573.3,1137.6c0-9.5,6-15.9,14.8-15.9c8.8,0,14.5,5.6,14.8,14.8c0,0.7-0.1,1.4-0.1,2.1h-24.2v0.4
			c0.2,5.9,3.9,10.1,9.8,10.1c4.4,0,7.8-2.3,8.8-6.3h5.1c-1.2,6.2-6.3,10.8-13.5,10.8C1579.4,1153.5,1573.3,1147.1,1573.3,1137.6z
			 M1597.4,1134.4c-0.5-5.4-4.1-8.4-9.3-8.4c-4.6,0-8.8,3.3-9.3,8.4H1597.4z"/>
		<path class="st1" d="M1639.2,1137.6c0,9.5-6.3,15.9-14.9,15.9c-5.2,0-8.8-2.1-10.7-5.1v17h-5V1122h4.3l0.7,5
			c2.1-2.9,5.4-5.4,10.7-5.4C1632.8,1121.6,1639.2,1127.4,1639.2,1137.6z M1634,1137.6c0-6.8-4.1-11.5-10.3-11.5
			c-6.1,0-10.2,4.7-10.2,11.3c0,6.8,4.1,11.6,10.2,11.6C1629.9,1149,1634,1144.3,1634,1137.6z"/>
		<path class="st1" d="M1674.5,1138.6c0,8.6-6,14.9-15.2,14.9c-9.3,0-15.2-5.6-15.2-17.4c0-16.7,4-22.9,17.4-24.6l10.6-1.3v4.7
			l-9.5,1.2c-9.8,1.3-12.6,3.8-13.5,13.1c2.2-3,6.1-4.9,11.4-4.9C1668.5,1124.1,1674.5,1129.8,1674.5,1138.6z M1669.4,1138.8
			c0-6-4.1-10.3-10-10.3c-6.1,0-10.3,4.3-10.3,9.7c0,7,4.3,11,10.1,11C1665.2,1149.2,1669.4,1144.8,1669.4,1138.8z"/>
		<path class="st1" d="M1675.9,1122h5.3l9.6,24.8l9.3-24.8h5.3l-14.3,36.4c-2,5-3.1,7-7.5,7h-6v-4.6h4.5c2.9,0,3.4-0.7,4.5-3.7
			l1.5-3.8L1675.9,1122z"/>
		<path class="st1" d="M1739.7,1137.6c0,9.5-6.3,15.9-14.9,15.9c-5.2,0-8.8-2.1-10.7-5.1v17h-5V1122h4.3l0.7,5
			c2.1-2.9,5.4-5.4,10.7-5.4C1733.4,1121.6,1739.7,1127.4,1739.7,1137.6z M1734.6,1137.6c0-6.8-4.1-11.5-10.3-11.5
			c-6.1,0-10.2,4.7-10.2,11.3c0,6.8,4.1,11.6,10.2,11.6C1730.4,1149,1734.6,1144.3,1734.6,1137.6z"/>
		<path class="st1" d="M1745.4,1153.1V1122h19.9v4.6h-14.9v26.5H1745.4z"/>
		<path class="st1" d="M1772.7,1152.9c0,5.2-3.2,8.3-8.6,8.4v-2.9c3.9-0.1,5.1-2.8,5.1-4.9c0-0.3,0-0.5-0.1-0.8
			c-0.5,0.5-1.3,0.7-2.1,0.7c-1.8,0-3.2-1.1-3.2-3.3c0-2,1.5-3.5,4-3.5C1770.9,1146.7,1772.7,1149.6,1772.7,1152.9z"/>
		<path class="st1" d="M1278.4,1217.1V1186h26.9v31.1h-5v-26.5h-16.9v26.5H1278.4z"/>
		<path class="st1" d="M1342.8,1201.6c0,9.5-6.3,15.9-14.9,15.9c-5.2,0-8.8-2.1-10.7-5.1v17h-5V1186h4.3l0.7,5
			c2.1-2.9,5.4-5.4,10.7-5.4C1336.4,1185.6,1342.8,1191.4,1342.8,1201.6z M1337.6,1201.6c0-6.8-4.1-11.5-10.3-11.5
			c-6.1,0-10.2,4.7-10.2,11.3c0,6.8,4.1,11.6,10.2,11.6C1333.5,1213,1337.6,1208.3,1337.6,1201.6z"/>
		<path class="st1" d="M1347.4,1201.6c0-9.5,6.3-15.9,15.4-15.9c9.1,0,15.4,6.5,15.4,15.9c0,9.5-6.3,15.9-15.4,15.9
			C1353.8,1217.5,1347.4,1211,1347.4,1201.6z M1373.2,1201.6c0-6.6-4.1-11.5-10.3-11.5s-10.3,4.8-10.3,11.5
			c0,6.7,4.1,11.5,10.3,11.5S1373.2,1208.2,1373.2,1201.6z"/>
		<path class="st1" d="M1382.9,1201.6c0-9.5,6.2-16,15.2-16c7.6,0,12.4,4.3,13.7,11.1h-5.2c-0.9-4.1-4-6.7-8.5-6.7
			c-6,0-10,4.8-10,11.5s4,11.4,10,11.4c4.5,0,7.5-2.6,8.5-6.5h5.3c-1.2,6.7-6.3,11-13.8,11
			C1388.9,1217.5,1382.9,1211.3,1382.9,1201.6z"/>
		<path class="st1" d="M1417.3,1217.1V1186h26.9v31.1h-5v-26.5h-16.9v26.5H1417.3z"/>
		<path class="st1" d="M1449.9,1201.6c0-9.5,6-15.9,14.8-15.9s14.5,5.6,14.8,14.8c0,0.7-0.1,1.4-0.1,2.1h-24.2v0.4
			c0.2,5.9,3.9,10.1,9.8,10.1c4.4,0,7.8-2.3,8.8-6.3h5.1c-1.2,6.2-6.3,10.8-13.5,10.8C1456,1217.5,1449.9,1211.1,1449.9,1201.6z
			 M1474.1,1198.4c-0.5-5.4-4.1-8.4-9.3-8.4c-4.6,0-8.8,3.3-9.3,8.4H1474.1z"/>
		<path class="st1" d="M1485.2,1217.1V1186h5v13h6.7l9.7-13h5.8L1501,1201l12.3,16.2h-6l-10.4-13.5h-6.7v13.5H1485.2z"/>
		<path class="st1" d="M1525.5,1217.1v-26.5h-11.2v-4.6h27.5v4.6h-11.2v26.5H1525.5z"/>
		<path class="st1" d="M1559,1217.1v-4.9h1c4.7,0,6.8-2.9,6.8-16.8v-21h29.6v42.7h-5.3v-37.8h-19.2v16.5c0,16.4-3.5,21.3-11.3,21.3
			H1559z"/>
		<path class="st1" d="M1600.9,1186h5.3l9.6,24.8l9.3-24.8h5.3l-14.3,36.4c-2,5-3.1,7-7.5,7h-6v-4.6h4.5c2.9,0,3.4-0.7,4.5-3.7
			l1.5-3.8L1600.9,1186z"/>
		<path class="st1" d="M1656.6,1186h5v31.1h-5v-13.5h-17.5v13.5h-5V1186h5v13h17.5V1186z"/>
		<path class="st1" d="M1697.5,1212.5v4.6h-2.7c-4.1,0-5.6-1.8-5.6-4.8c-2,2.8-5.1,5.2-10.4,5.2c-6.8,0-11.5-3.4-11.5-9.1
			c0-6.2,4.3-9.7,12.5-9.7h9.2v-2.1c0-4-2.9-6.5-7.7-6.5c-4.4,0-7.3,2.1-7.9,5.2h-5c0.7-6.1,5.7-9.7,13.2-9.7
			c7.9,0,12.5,4,12.5,11.2v13.6c0,1.6,0.6,2.1,2,2.1H1697.5z M1688.9,1202.9h-9.6c-4.5,0-7,1.6-7,5.2c0,3.1,2.6,5.1,6.8,5.1
			c6.2,0,9.8-3.6,9.8-8.8V1202.9z"/>
		<path class="st1" d="M1720.4,1186h5v31.1h-5v-12.5c-2.4,1.6-5.6,2.4-8.7,2.4c-7.6,0-12.2-3.3-12.2-11.3v-9.7h5v8.8
			c0,5.7,2.7,7.6,8.2,7.6c3,0,5.6-0.7,7.7-2.5V1186z"/>
		<path class="st1" d="M1761.3,1212.5v4.6h-2.7c-4.1,0-5.6-1.8-5.6-4.8c-2,2.8-5.1,5.2-10.4,5.2c-6.8,0-11.5-3.4-11.5-9.1
			c0-6.2,4.3-9.7,12.5-9.7h9.2v-2.1c0-4-2.9-6.5-7.7-6.5c-4.4,0-7.3,2.1-7.9,5.2h-5c0.7-6.1,5.7-9.7,13.2-9.7
			c7.9,0,12.5,4,12.5,11.2v13.6c0,1.6,0.6,2.1,2,2.1H1761.3z M1752.7,1202.9h-9.6c-4.5,0-7,1.6-7,5.2c0,3.1,2.6,5.1,6.8,5.1
			c6.2,0,9.8-3.6,9.8-8.8V1202.9z"/>
		<path class="st1" d="M1795.8,1201.6c0,9.5-6.3,15.9-14.9,15.9c-5.2,0-8.8-2.1-10.7-5.1v17h-5V1186h4.3l0.7,5
			c2.1-2.9,5.4-5.4,10.7-5.4C1789.5,1185.6,1795.8,1191.4,1795.8,1201.6z M1790.7,1201.6c0-6.8-4.1-11.5-10.3-11.5
			c-6.1,0-10.3,4.7-10.3,11.3c0,6.8,4.1,11.6,10.3,11.6C1786.5,1213,1790.7,1208.3,1790.7,1201.6z"/>
		<path class="st1" d="M1800.4,1201.6c0-9.5,6.2-16,15.2-16c7.6,0,12.4,4.3,13.7,11.1h-5.2c-0.9-4.1-4-6.7-8.5-6.7
			c-6,0-10,4.8-10,11.5s4,11.4,10,11.4c4.5,0,7.5-2.6,8.5-6.5h5.3c-1.2,6.7-6.3,11-13.8,11
			C1806.4,1217.5,1800.4,1211.3,1800.4,1201.6z"/>
		<path class="st1" d="M1834.9,1217.1V1186h5v13h6.7l9.7-13h5.8l-11.3,14.9l12.3,16.2h-6l-10.4-13.5h-6.7v13.5H1834.9z"/>
		<path class="st1" d="M1864.1,1201.6c0-9.5,6.3-15.9,15.4-15.9c9.1,0,15.4,6.5,15.4,15.9c0,9.5-6.3,15.9-15.4,15.9
			C1870.4,1217.5,1864.1,1211,1864.1,1201.6z M1889.8,1201.6c0-6.6-4.1-11.5-10.3-11.5s-10.3,4.8-10.3,11.5
			c0,6.7,4.1,11.5,10.3,11.5S1889.8,1208.2,1889.8,1201.6z"/>
		<path class="st1" d="M1900.7,1217.1V1186h19.9v4.6h-14.9v26.5H1900.7z"/>
		<path class="st1" d="M1921.9,1201.6c0-9.5,6.3-15.9,15.4-15.9s15.4,6.5,15.4,15.9c0,9.5-6.3,15.9-15.4,15.9
			S1921.9,1211,1921.9,1201.6z M1947.6,1201.6c0-6.6-4.1-11.5-10.3-11.5s-10.3,4.8-10.3,11.5c0,6.7,4.1,11.5,10.3,11.5
			S1947.6,1208.2,1947.6,1201.6z"/>
		<path class="st1" d="M1963.6,1216.9c0,5.2-3.2,8.3-8.6,8.4v-2.9c3.9-0.1,5.1-2.8,5.1-4.9c0-0.3,0-0.5-0.1-0.8
			c-0.5,0.5-1.3,0.7-2.1,0.7c-1.8,0-3.2-1.1-3.2-3.3c0-2,1.5-3.5,4-3.5C1961.7,1210.7,1963.6,1213.6,1963.6,1216.9z"/>
		<path class="st1" d="M2012.5,1212.5h4.9v12.8h-5v-8.2h-25.4v8.2h-5v-12.8h3.2c2.3-1.7,3.5-3.9,3.5-13.5v-13h23.8V1212.5z
			 M2007.5,1212.5v-22h-13.9v9c0,7.1-0.8,10.6-2.3,13H2007.5z"/>
		<path class="st1" d="M2019.7,1201.6c0-9.5,6.3-15.9,15.4-15.9s15.4,6.5,15.4,15.9c0,9.5-6.3,15.9-15.4,15.9
			S2019.7,1211,2019.7,1201.6z M2045.4,1201.6c0-6.6-4.1-11.5-10.3-11.5c-6.2,0-10.3,4.8-10.3,11.5c0,6.7,4.1,11.5,10.3,11.5
			C2041.3,1213,2045.4,1208.2,2045.4,1201.6z"/>
		<path class="st1" d="M2056.3,1217.1V1186h6.2l12,25l11.8-25h6l0.1,31.1h-4.8v-23.5l-11.2,23.5h-4l-11.2-23.5v23.5H2056.3z"/>
		<path class="st1" d="M2113,1212.8l16.6-14.4c4-3.4,7.3-6.7,7.3-11.3c0-5.4-3.7-8.4-9.3-8.4c-5.5,0-9.2,3.7-9.2,9.5v0.8h-5.1v-1.1
			c0-8.1,5.7-13.8,14.3-13.8c9.2,0,14.6,5.1,14.6,12.8c0,6.4-4.1,10.4-9.2,14.8l-12.8,10.9h22.3v4.7H2113V1212.8z"/>
		<path class="st1" d="M2154.5,1174.4h5v42.7h-5.1v-30.6c-0.6,0.5-1.6,0.8-2.9,0.8h-6.9v-4.6h7c2,0,3-1.5,3-3.7V1174.4z"/>
		<path class="st1" d="M2174.2,1216.9c0,5.2-3.2,8.3-8.6,8.4v-2.9c3.9-0.1,5.1-2.8,5.1-4.9c0-0.3,0-0.5-0.1-0.8
			c-0.5,0.5-1.3,0.7-2.1,0.7c-1.8,0-3.2-1.1-3.2-3.3c0-2,1.5-3.5,4-3.5C2172.4,1210.7,2174.2,1213.6,2174.2,1216.9z"/>
		<path class="st1" d="M2195.7,1217.1V1186h5v13h6.7l9.7-13h5.8l-11.3,14.9l12.3,16.2h-6l-10.4-13.5h-6.7v13.5H2195.7z"/>
		<path class="st1" d="M2224.9,1201.6c0-9.5,6.3-15.9,15.4-15.9s15.4,6.5,15.4,15.9c0,9.5-6.3,15.9-15.4,15.9
			S2224.9,1211,2224.9,1201.6z M2250.6,1201.6c0-6.6-4.1-11.5-10.3-11.5s-10.3,4.8-10.3,11.5c0,6.7,4.1,11.5,10.3,11.5
			S2250.6,1208.2,2250.6,1201.6z"/>
		<path class="st1" d="M2292.1,1201.6c0,9.5-6.3,15.9-14.9,15.9c-5.2,0-8.8-2.1-10.7-5.1v17h-5V1186h4.3l0.7,5
			c2.1-2.9,5.4-5.4,10.7-5.4C2285.8,1185.6,2292.1,1191.4,2292.1,1201.6z M2287,1201.6c0-6.8-4.1-11.5-10.3-11.5
			c-6.1,0-10.3,4.7-10.3,11.3c0,6.8,4.1,11.6,10.3,11.6C2282.8,1213,2287,1208.3,2287,1201.6z"/>
		<path class="st1" d="M2297.8,1217.1V1186h26.9v31.1h-5v-26.5h-16.9v26.5H2297.8z"/>
		<path class="st1" d="M2328.5,1186h5.3l9.6,24.8l9.3-24.8h5.3l-14.3,36.4c-2,5-3.1,7-7.5,7h-6v-4.6h4.5c2.9,0,3.4-0.7,4.5-3.7
			l1.5-3.8L2328.5,1186z"/>
		<path class="st1" d="M2359.3,1201.6c0-9.5,6.2-16,15.2-16c7.6,0,12.4,4.3,13.7,11.1h-5.2c-0.9-4.1-4-6.7-8.5-6.7
			c-6,0-10,4.8-10,11.5s4,11.4,10,11.4c4.5,0,7.5-2.6,8.5-6.5h5.3c-1.2,6.7-6.3,11-13.8,11
			C2365.3,1217.5,2359.3,1211.3,2359.3,1201.6z"/>
		<path class="st1" d="M2416.5,1174.4h5v42.7h-5.1v-30.6c-0.6,0.5-1.6,0.8-2.9,0.8h-6.9v-4.6h7c2,0,3-1.5,3-3.7V1174.4z"/>
		<path class="st1" d="M1275.5,1314h5.2l7.7,25.3l8.2-25.3h4.6l7.7,25.3l8.1-25.3h5.1l-10.4,31.1h-5.5l-7.5-23.1l-7.8,23.1h-5.5
			L1275.5,1314z"/>
		<path class="st1" d="M1323.3,1314h5.2l7.7,25.3l8.2-25.3h4.6l7.7,25.3l8.1-25.3h5.1l-10.4,31.1h-5.5l-7.5-23.1l-7.8,23.1h-5.5
			L1323.3,1314z"/>
		<path class="st1" d="M1371,1314h5.2l7.7,25.3l8.2-25.3h4.6l7.7,25.3l8.1-25.3h5.1l-10.4,31.1h-5.5l-7.5-23.1l-7.8,23.1h-5.5
			L1371,1314z"/>
		<path class="st1" d="M1422.1,1338.7c2,0,3.5,1.3,3.5,3.4s-1.5,3.4-3.5,3.4c-2,0-3.5-1.3-3.5-3.4S1420.1,1338.7,1422.1,1338.7z"/>
		<path class="st1" d="M1428.7,1329.6c0-9.5,6-15.9,14.8-15.9c8.8,0,14.5,5.6,14.8,14.8c0,0.7-0.1,1.4-0.1,2.1H1434v0.4
			c0.2,5.9,3.9,10.1,9.8,10.1c4.4,0,7.8-2.3,8.8-6.3h5.1c-1.2,6.2-6.3,10.8-13.5,10.8C1434.8,1345.5,1428.7,1339.1,1428.7,1329.6z
			 M1452.9,1326.4c-0.5-5.4-4.1-8.4-9.3-8.4c-4.6,0-8.8,3.3-9.3,8.4H1452.9z"/>
		<path class="st1" d="M1464,1302.4h5v42.7h-5V1302.4z"/>
		<path class="st1" d="M1478.1,1318.6h-5.6v-4.6h5.6v-8.7h5v8.7h8.1v4.6h-8.1v18.4c0,2.6,0.9,3.6,3.6,3.6h4.9v4.6h-5.4
			c-6,0-8.1-2.6-8.1-8.1V1318.6z"/>
		<path class="st1" d="M1524.6,1340.5v4.6h-2.7c-4.1,0-5.6-1.8-5.6-4.8c-2,2.8-5.1,5.2-10.4,5.2c-6.8,0-11.5-3.4-11.5-9.1
			c0-6.2,4.3-9.7,12.5-9.7h9.2v-2.1c0-4-2.9-6.5-7.7-6.5c-4.4,0-7.3,2.1-7.9,5.2h-5c0.7-6.1,5.7-9.7,13.2-9.7
			c7.9,0,12.5,4,12.5,11.2v13.6c0,1.6,0.6,2.1,2,2.1H1524.6z M1516,1330.9h-9.6c-4.5,0-7,1.6-7,5.2c0,3.1,2.6,5.1,6.8,5.1
			c6.2,0,9.8-3.6,9.8-8.8V1330.9z"/>
		<path class="st1" d="M1532.3,1334.9c0.2,3.7,3.4,6.3,8.6,6.3c4.4,0,7.5-1.9,7.5-4.8c0-3.9-3.4-4.2-8.1-4.8
			c-7-0.9-12.5-2.3-12.5-8.7c0-5.7,5.2-9.4,12.2-9.3c7.1,0.1,12.2,3.4,12.7,9.8h-5.1c-0.4-3.2-3.3-5.6-7.6-5.6
			c-4.3,0-7.3,1.8-7.3,4.7c0,3.4,3.3,3.8,7.8,4.4c7.1,0.9,12.8,2.2,12.8,9.1c0,5.8-5.6,9.4-12.4,9.4c-8.1,0-13.6-3.8-13.7-10.6
			H1532.3z"/>
		<path class="st1" d="M1589.5,1329.6c0,9.5-6.3,15.9-14.9,15.9c-5.2,0-8.8-2.1-10.7-5.1v17h-5V1314h4.3l0.7,5
			c2.1-2.9,5.4-5.4,10.7-5.4C1583.2,1313.6,1589.5,1319.4,1589.5,1329.6z M1584.4,1329.6c0-6.8-4.1-11.5-10.3-11.5
			c-6.1,0-10.2,4.7-10.2,11.3c0,6.8,4.1,11.6,10.2,11.6C1580.2,1341,1584.4,1336.3,1584.4,1329.6z"/>
		<path class="st1" d="M1625.9,1329.6c0,9.5-6.3,15.9-14.9,15.9c-5.2,0-8.8-2.1-10.7-5.1l-0.7,4.8h-4.3v-42.7h5v16.6
			c2.1-2.9,5.4-5.4,10.7-5.4C1619.5,1313.6,1625.9,1319.4,1625.9,1329.6z M1620.7,1329.6c0-6.8-4.1-11.5-10.3-11.5
			c-6.1,0-10.2,4.7-10.2,11.3c0,6.8,4.1,11.6,10.2,11.6C1616.6,1341,1620.7,1336.3,1620.7,1329.6z"/>
		<path class="st1" d="M1632.5,1338.7c2,0,3.5,1.3,3.5,3.4s-1.5,3.4-3.5,3.4s-3.5-1.3-3.5-3.4S1630.4,1338.7,1632.5,1338.7z"/>
		<path class="st1" d="M1658,1314v4.9h-2.5c-6.5,0-8.3,5.4-8.3,10.4v15.9h-5V1314h4.3l0.7,4.7c1.5-2.4,3.8-4.7,9.4-4.7H1658z"/>
		<path class="st1" d="M1684.1,1314h5v31.1h-4.3l-0.7-4.1c-1.8,2.3-4.8,4.5-9.9,4.5c-6.8,0-12.3-3.8-12.3-14.2V1314h5v17
			c0,6.5,2.9,9.9,8.1,9.9c5.7,0,9.1-4.3,9.1-11.3V1314z"/>
	</g>
</g>
<g>
	<path class="st1" d="M283.1,1222c0,27-8.4,53.2-23.9,75.3c-15.6,22-37.6,38.7-63,47.7v-31.3c17.4-8.2,32.1-21.2,42.3-37.4
		c10.3-16.2,15.7-35.1,15.7-54.3c0-19.2-5.5-38-15.8-54.2c-10.3-16.2-25-29.2-42.4-37.4V1099c25.5,9,47.5,25.6,63.1,47.7
		C274.7,1168.7,283.1,1195,283.1,1222z"/>
	<rect x="51" y="1207.5" class="st1" width="116.1" height="29"/>
	<path class="st1" d="M225.1,1222c0-9.5-1.9-18.9-5.5-27.7c-3.6-8.8-9-16.8-15.7-23.5c-6.7-6.7-14.7-12.1-23.5-15.7
		c-8.8-3.6-18.2-5.5-27.8-5.5h-43.5v29h87v86.9h-87v29h43.5c9.5,0,19-1.9,27.8-5.5c8.8-3.6,16.8-9,23.5-15.7
		c6.7-6.7,12.1-14.7,15.7-23.5C223.2,1240.9,225.1,1231.5,225.1,1222z"/>
</g>
<g>
	<g>
		<path class="st1" d="M58.9,648.3v-42.7h7v17.9H73L86,605.6H94l-15.1,20.6l16,22.1h-8.5l-13.4-18.5h-7.2v18.5H58.9z"/>
		<path class="st1" d="M116,648.7c-12.3,0-20.7-9.2-20.7-21.7s8.5-21.7,20.7-21.7c12.3,0,20.7,9.2,20.7,21.7S128.3,648.7,116,648.7z
			 M116,642.5c8.1,0,13.5-6.5,13.5-15.6s-5.4-15.6-13.5-15.6c-8.1,0-13.5,6.5-13.5,15.6S107.9,642.5,116,642.5z"/>
		<path class="st1" d="M142.9,605.6h9.1l13.7,33.6l13.4-33.6h8.9v42.7h-6.8v-31.4l-12.8,31.4h-5.9l-12.8-31.4v31.4h-6.8V605.6z"/>
		<path class="st1" d="M195.8,648.3v-42.7h33.6v42.7h-7v-36.5h-19.6v36.5H195.8z"/>
		<path class="st1" d="M233.8,648.3v-6.2h1.1c4.4,0,6.3-2.8,6.3-15.4v-21h30.9v42.7h-7v-36.5H248v15.4c0,15.9-3.8,21.1-12.2,21.1
			H233.8z"/>
		<path class="st1" d="M279.9,605.6h27.9v6.2h-20.9v11.8h17.2v6h-17.2v12.4h21.6v6.2h-28.6V605.6z"/>
		<path class="st1" d="M314.3,648.3v-42.7h7v17.9h7.1l12.9-17.9h8.1l-15.1,20.6l16,22.1h-8.5l-13.4-18.5h-7.2v18.5H314.3z"/>
		<path class="st1" d="M350.7,626.9c0-13,8-21.7,20.6-21.7c9.8,0,16.8,5.9,18.2,14.9h-7.3c-1.4-5.4-5.4-8.7-11.2-8.7
			c-8.1,0-13.1,6.4-13.1,15.6c0,9.1,4.9,15.6,12.9,15.6c5.9,0,10-3.3,11.3-8.7h7.3c-1.3,9-8.6,14.9-18.5,14.9
			C358.4,648.7,350.7,640,350.7,626.9z"/>
		<path class="st1" d="M395.2,605.6h7v17.9h19.8v-17.9h7v42.7h-7v-18.5h-19.8v18.5h-7V605.6z"/>
		<path class="st1" d="M456,648.7c-12.3,0-20.7-9.2-20.7-21.7s8.5-21.7,20.7-21.7c12.3,0,20.7,9.2,20.7,21.7S468.2,648.7,456,648.7z
			 M456,642.5c8.1,0,13.5-6.5,13.5-15.6s-5.4-15.6-13.5-15.6c-8.1,0-13.5,6.5-13.5,15.6S447.9,642.5,456,642.5z"/>
		<path class="st1" d="M482.9,605.6h27.9v6.2h-20.9v11.8h17.2v6h-17.2v12.4h21.6v6.2h-28.6V605.6z"/>
		<path class="st1" d="M532.8,648.3v-42.7h33.6v42.7h-7v-36.5h-19.6v36.5H532.8z"/>
		<path class="st1" d="M574.3,605.6h16.8c8.9,0,14.8,5.3,14.8,13.6c0,8.2-5.9,13.6-14.8,13.6h-9.8v15.5h-7V605.6z M581.3,611.7v15
			h9.2c5,0,8.2-2.9,8.2-7.5c0-4.6-3.2-7.5-8.2-7.5H581.3z"/>
		<path class="st1" d="M630.3,648.7c-12.3,0-20.7-9.2-20.7-21.7s8.5-21.7,20.7-21.7c12.3,0,20.7,9.2,20.7,21.7
			S642.6,648.7,630.3,648.7z M630.3,642.5c8.1,0,13.5-6.5,13.5-15.6s-5.4-15.6-13.5-15.6c-8.1,0-13.5,6.5-13.5,15.6
			S622.2,642.5,630.3,642.5z"/>
		<path class="st1" d="M657.2,605.6h27.9v6.2h-20.9v11.8h17.2v6h-17.2v12.4h21.6v6.2h-28.6V605.6z"/>
		<path class="st1" d="M691.6,648.3v-42.7h7v17.9h7.1l12.9-17.9h8.1l-15.1,20.6l16,22.1h-8.5l-13.4-18.5h-7.2v18.5H691.6z"/>
		<path class="st1" d="M728.5,605.6h33.4v6.2h-13.2v36.5h-7v-36.5h-13.2V605.6z"/>
		<path class="st1" d="M767,648.3v-42.7h7v31.2l20.9-31.2h6.5v42.7h-7v-31.2l-20.9,31.2H767z"/>
		<path class="st1" d="M809.2,605.6H826c8.9,0,14.8,5.3,14.8,13.6c0,8.2-5.9,13.6-14.8,13.6h-9.8v15.5h-7V605.6z M816.2,611.7v15
			h9.2c5,0,8.2-2.9,8.2-7.5c0-4.6-3.2-7.5-8.2-7.5H816.2z"/>
		<path class="st1" d="M865.2,648.7c-12.3,0-20.7-9.2-20.7-21.7s8.5-21.7,20.7-21.7c12.3,0,20.7,9.2,20.7,21.7
			S877.5,648.7,865.2,648.7z M865.2,642.5c8.1,0,13.5-6.5,13.5-15.6s-5.4-15.6-13.5-15.6c-8.1,0-13.5,6.5-13.5,15.6
			S857.1,642.5,865.2,642.5z"/>
		<path class="st1" d="M892.1,605.6h15.7c9.4,0,14.8,4.3,14.8,11.3c0,5.1-2.9,8.1-7.3,9.3c5.1,0.8,9,3.8,9,9.9
			c0,7.6-5.6,12.2-15.9,12.2h-16.2V605.6z M899.1,611.4v12.3h8.8c4.8,0,7.6-2.3,7.6-6.2c0-3.8-2.7-6.1-7.6-6.1H899.1z M899.1,629.5
			v12.9h9.3c5.6,0,8.6-2.4,8.6-6.3c0-4.2-3.2-6.5-8.6-6.5H899.1z"/>
		<path class="st1" d="M925.6,648.3l16-42.7h8.4l15.9,42.7h-7.5l-4-10.6h-17.5l-4,10.6H925.6z M938.7,631.8h13.6l-6.8-18.6
			L938.7,631.8z"/>
		<path class="st1" d="M970.2,605.6h7v17.9H997v-17.9h7v42.7h-7v-18.5h-19.8v18.5h-7V605.6z"/>
		<path class="st1" d="M1011.9,648.3v-42.7h7v31.2l20.9-31.2h6.5v42.7h-7v-31.2l-20.9,31.2H1011.9z"/>
		<path class="st1" d="M1054,605.6h27.9v6.2H1061v11.8h17.2v6H1061v12.4h21.6v6.2H1054V605.6z"/>
		<path class="st1" d="M1096.8,647.4c0,5.9-3.8,9.3-9.8,9.3v-3.5c3.8-0.1,5.4-2.4,5.4-4.6c0-0.2,0-0.5-0.1-0.8
			c-0.5,0.4-1.3,0.6-2,0.6c-2,0-3.6-1.3-3.6-3.9c0-2.3,1.8-4.1,4.6-4.1C1094.7,640.4,1096.8,643.5,1096.8,647.4z"/>
		<path class="st1" d="M58.9,671.6H68l13.7,33.6L95,671.6h8.9v42.7h-6.8v-31.4l-12.8,31.4h-5.9l-12.8-31.4v31.4h-6.8V671.6z"/>
		<path class="st1" d="M130.9,714.7c-12.3,0-20.7-9.2-20.7-21.7s8.5-21.7,20.7-21.7c12.3,0,20.7,9.2,20.7,21.7
			S143.1,714.7,130.9,714.7z M130.9,708.5c8.1,0,13.5-6.5,13.5-15.6s-5.4-15.6-13.5-15.6c-8.1,0-13.5,6.5-13.5,15.6
			S122.7,708.5,130.9,708.5z"/>
		<path class="st1" d="M157.8,671.6h7v17.9h19.8v-17.9h7v42.7h-7v-18.5h-19.8v18.5h-7V671.6z"/>
		<path class="st1" d="M196.7,671.6h33.4v6.2h-13.2v36.5h-7v-36.5h-13.2V671.6z"/>
		<path class="st1" d="M226.1,714.3l16-42.7h8.4l15.9,42.7h-7.5l-4-10.6h-17.5l-4,10.6H226.1z M239.2,697.8h13.6l-6.8-18.6
			L239.2,697.8z"/>
		<path class="st1" d="M267.7,714.3l15.1-22.1l-14.2-20.6h7.8l12.3,17.9h5.6v-17.9h7v17.9h5.6l12.3-17.9h7.8l-14.2,20.6l15,22.1
			h-8.3l-12.4-18.5h-5.8v18.5h-7v-18.5h-5.7L276,714.3H267.7z"/>
		<path class="st1" d="M348.1,714.3v-42.7h7v31.2l20.9-31.2h6.5v42.7h-7v-31.2l-20.9,31.2H348.1z"/>
		<path class="st1" d="M425,714.7c-12.3,0-20.7-9.2-20.7-21.7s8.5-21.7,20.7-21.7c12.3,0,20.7,9.2,20.7,21.7S437.3,714.7,425,714.7z
			 M425,708.5c8.1,0,13.5-6.5,13.5-15.6s-5.4-15.6-13.5-15.6c-8.1,0-13.5,6.5-13.5,15.6S416.9,708.5,425,708.5z"/>
		<path class="st1" d="M451.9,714.3v-42.7h27.4v6.1h-20.4v11H469c8.5,0,14.3,4.1,14.3,12.8c0,8.3-5.7,12.9-14.2,12.9H451.9z
			 M458.9,708.2h9.5c4.8,0,7.7-2.6,7.7-6.8s-3-6.8-7.7-6.8h-9.5V708.2z"/>
		<path class="st1" d="M486.9,692.9c0-13,8-21.7,20.6-21.7c9.8,0,16.8,5.9,18.2,14.9h-7.3c-1.4-5.4-5.4-8.7-11.2-8.7
			c-8.1,0-13.1,6.4-13.1,15.6c0,9.1,4.9,15.6,12.9,15.6c5.9,0,10-3.3,11.3-8.7h7.3c-1.3,9-8.6,14.9-18.5,14.9
			C494.7,714.7,486.9,706,486.9,692.9z"/>
		<path class="st1" d="M527.3,714.3v-6.2h1.1c4.4,0,6.3-2.8,6.3-15.4v-21h30.9v42.7h-7v-36.5h-17.1v15.4c0,15.9-3.8,21.1-12.2,21.1
			H527.3z"/>
		<path class="st1" d="M575,714.3v-6.2h3.9c3.5,0,4.8-0.6,6.2-3.7l1.1-2.4l-16.5-30.4h7.8l12.2,23.1l10.2-23.1h7.4l-16,34.7
			c-2.8,6.2-5.9,8.1-10.6,8.1H575z"/>
		<path class="st1" d="M608.3,714.3l15.1-22.1l-14.2-20.6h7.8l12.3,17.9h5.6v-17.9h7v17.9h5.6l12.3-17.9h7.8l-14.2,20.6l15,22.1
			h-8.3l-12.4-18.5h-5.8v18.5h-7v-18.5h-5.7l-12.5,18.5H608.3z"/>
		<path class="st1" d="M673.1,714.3v-42.7h7v31.2l20.9-31.2h6.5v42.7h-7v-31.2l-20.9,31.2H673.1z"/>
		<path class="st1" d="M715.2,671.6h15.7c9.4,0,14.8,4.3,14.8,11.3c0,5.1-2.9,8.1-7.3,9.3c5.1,0.8,9,3.8,9,9.9
			c0,7.6-5.6,12.2-15.9,12.2h-16.2V671.6z M722.2,677.4v12.3h8.8c4.8,0,7.6-2.3,7.6-6.2c0-3.8-2.7-6.1-7.6-6.1H722.2z M722.2,695.5
			v12.9h9.3c5.6,0,8.6-2.4,8.6-6.3c0-4.2-3.2-6.5-8.6-6.5H722.2z"/>
		<path class="st1" d="M748.7,714.3l16-42.7h8.4l15.9,42.7h-7.5l-4-10.6h-17.5l-4,10.6H748.7z M761.8,697.8h13.6l-6.8-18.6
			L761.8,697.8z"/>
		<path class="st1" d="M793.3,671.6h7v17.9h19.8v-17.9h7v42.7h-7v-18.5h-19.8v18.5h-7V671.6z"/>
		<path class="st1" d="M835,714.3v-42.7h7v31.2l20.9-31.2h6.5v42.7h-7v-31.2l-20.9,31.2H835z"/>
		<path class="st1" d="M877.1,671.6H905v6.2h-20.9v11.8h17.2v6h-17.2v12.4h21.6v6.2h-28.6V671.6z"/>
		<path class="st1" d="M58.9,780.3v-42.7h7v31.2l20.9-31.2h6.5v42.7h-7v-31.2l-20.9,31.2H58.9z"/>
		<path class="st1" d="M101,737.6h7v17.9h19.8v-17.9h7v42.7h-7v-18.5H108v18.5h-7V737.6z"/>
		<path class="st1" d="M139.6,780.3l15.1-22.1l-14.2-20.6h7.8l12.3,17.9h5.6v-17.9h7v17.9h5.6l12.3-17.9h7.8l-14.2,20.6l15,22.1
			h-8.3l-12.4-18.5h-5.8v18.5h-7v-18.5h-5.7l-12.5,18.5H139.6z"/>
		<path class="st1" d="M204.4,737.6h27.9v6.2h-20.9v11.8h17.2v6h-17.2v12.4H233v6.2h-28.6V737.6z"/>
		<path class="st1" d="M238.7,737.6h7v17.9h19.8v-17.9h7v42.7h-7v-18.5h-19.8v18.5h-7V737.6z"/>
		<path class="st1" d="M280.4,737.6h27.9v6.2h-20.9v11.8h17.2v6h-17.2v12.4H309v6.2h-28.6V737.6z"/>
		<path class="st1" d="M314.7,737.6h16.8c8.9,0,14.8,5.3,14.8,13.6c0,8.2-5.9,13.6-14.8,13.6h-9.8v15.5h-7V737.6z M321.7,743.7v15
			h9.2c5,0,8.2-2.9,8.2-7.5c0-4.6-3.2-7.5-8.2-7.5H321.7z"/>
		<path class="st1" d="M351.7,737.6h7v17.9h19.8v-17.9h7v42.7h-7v-18.5h-19.8v18.5h-7V737.6z"/>
		<path class="st1" d="M393.3,780.3v-42.7h7v15.6h9.5c8.9,0,14.8,5.6,14.8,13.6c0,7.9-5.9,13.5-14.8,13.5H393.3z M400.3,774.2h9
			c4.9,0,8.2-2.9,8.2-7.4c0-4.6-3.2-7.4-8.2-7.4h-8.9V774.2z M429.7,780.3v-42.7h7v42.7H429.7z"/>
		<path class="st1" d="M455.5,758.4l-13.4-20.9h8.3l9.6,15.2l9.8-15.2h7.9l-13.4,20.6l14.2,22.1h-8.4l-10.4-16.4l-10.5,16.4h-7.9
			L455.5,758.4z"/>
		<path class="st1" d="M497.2,758.9c0-13,8-21.7,20.6-21.7c9.8,0,16.8,5.9,18.2,14.9h-7.3c-1.4-5.4-5.4-8.7-11.2-8.7
			c-8.1,0-13.1,6.4-13.1,15.6c0,9.1,4.9,15.6,12.9,15.6c5.9,0,10-3.3,11.3-8.7h7.3c-1.3,9-8.6,14.9-18.5,14.9
			C505,780.7,497.2,772,497.2,758.9z"/>
		<path class="st1" d="M541.7,780.3v-42.7h7v31.2l20.9-31.2h6.5v42.7h-7v-31.2l-20.9,31.2H541.7z"/>
		<path class="st1" d="M582.2,758.9c0-13,8-21.7,20.6-21.7c9.8,0,16.8,5.9,18.2,14.9h-7.3c-1.4-5.4-5.4-8.7-11.2-8.7
			c-8.1,0-13.1,6.4-13.1,15.6c0,9.1,4.9,15.6,12.9,15.6c5.9,0,10-3.3,11.3-8.7h7.3c-1.3,9-8.6,14.9-18.5,14.9
			C590,780.7,582.2,772,582.2,758.9z"/>
		<path class="st1" d="M622.1,737.6h33.4v6.2h-13.2v36.5h-7v-36.5h-13.2V737.6z"/>
		<path class="st1" d="M660.6,737.6h27.9v6.2h-20.9v11.8h17.2v6h-17.2v12.4h21.6v6.2h-28.6V737.6z"/>
		<path class="st1" d="M695,737.6h9.1l13.7,33.6l13.4-33.6h8.9v42.7h-6.8v-31.4l-12.8,31.4h-5.9l-12.8-31.4v31.4H695V737.6z"/>
	</g>
</g>
<g>
	<g>
		<path class="st1" d="M116,104.8c0,19.8-12.2,33.1-31.4,33.1c-15,0-25.4-8.8-27.7-22.4H68c2.1,8,8,13.1,17.2,13.1
			c11,0,18.4-7.7,19.8-19.5H80V100h25C103.5,88.5,96.5,81,85.7,81c-9.3,0-15.1,5.1-17.3,13.1h-11c2.2-13.6,12.9-22.4,27.9-22.4
			C104.5,71.8,116,84.9,116,104.8z"/>
		<path class="st1" d="M117,137.3v-9.5h1.7c6.7,0,9.7-4.3,9.7-23.5v-32h47v65h-10.7V81.8h-26.1v23.4c0,24.2-5.8,32.1-18.6,32.1H117z
			"/>
		<path class="st1" d="M183.1,72.3h50.8v9.5h-20.1v55.5h-10.7V81.8h-20.1V72.3z"/>
		<path class="st1" d="M227.8,137.3l24.3-65h12.7l24.2,65h-11.4l-6.1-16.1h-26.6l-6,16.1H227.8z M247.8,112.1h20.7l-10.4-28.3
			L247.8,112.1z"/>
	</g>
</g>
<g>
	<g>
		<path class="st1" d="M1277.6,92.3c0-12.9,8-21.7,20.4-21.7c9.5,0,16.3,5.5,17.9,14.3h-5.6c-1.6-5.9-6.2-9.5-12.6-9.5
			c-9,0-14.7,7-14.7,16.8c0,9.8,5.5,16.8,14.5,16.8c6.6,0,11.2-3.5,12.8-9.5h5.6c-1.6,8.8-8.7,14.3-18.3,14.3
			C1285.2,114,1277.6,105.4,1277.6,92.3z"/>
		<path class="st1" d="M1321.5,113.6V82.5h6.2l12,25l11.8-25h6l0.1,31.1h-4.8V90.2l-11.2,23.5h-4l-11.2-23.5v23.5H1321.5z"/>
		<path class="st1" d="M1364.3,113.6V82.5h4.9v23.5l18.5-23.5h4.4v31.1h-4.9V90l-18.5,23.6H1364.3z"/>
		<path class="st1" d="M1429.6,98.1c0,9.5-6.3,15.9-14.9,15.9c-5.2,0-8.8-2.1-10.7-5.1v17h-5V82.5h4.3l0.7,5
			c2.1-2.9,5.4-5.4,10.7-5.4C1423.2,82.2,1429.6,88,1429.6,98.1z M1424.5,98.1c0-6.8-4.1-11.5-10.3-11.5c-6.1,0-10.3,4.7-10.3,11.3
			c0,6.8,4.1,11.6,10.3,11.6C1420.3,109.6,1424.5,104.9,1424.5,98.1z"/>
		<path class="st1" d="M1457.8,82.5h5v31.1h-5v-13.5h-17.5v13.5h-5V82.5h5v13h17.5V82.5z"/>
		<path class="st1" d="M1468.6,98.1c0-9.5,6.3-15.9,15.4-15.9c9.1,0,15.4,6.5,15.4,15.9c0,9.5-6.3,15.9-15.4,15.9
			C1474.9,114,1468.6,107.5,1468.6,98.1z M1494.3,98.1c0-6.6-4.1-11.5-10.3-11.5c-6.2,0-10.3,4.8-10.3,11.5
			c0,6.7,4.1,11.5,10.3,11.5C1490.1,109.6,1494.3,104.7,1494.3,98.1z"/>
		<path class="st1" d="M1505.2,113.6V82.5h13.2c7.7,0,11.4,3,11.4,8.4c0,3.9-2.6,6-5.1,6.6c3.6,0.5,6.3,2.8,6.3,7.1
			c0,6-4.3,9-12.4,9H1505.2z M1510.2,95.8h8.7c4.1,0,5.9-1.7,5.9-4.5c0-3-1.8-4.5-5.9-4.5h-8.7V95.8z M1510.2,109.4h9.2
			c4.3,0,6.6-1.5,6.6-4.7c0-3-2.3-4.8-6.6-4.8h-9.2V109.4z"/>
		<path class="st1" d="M1553.2,113.6V70.9h5.3v33.9l22.9-33.9h4.9v42.7h-5.3V79.8l-22.9,33.9H1553.2z"/>
		<path class="st1" d="M1590.7,113.6v-4.6h0.9c3.5,0,4.9-2.1,4.9-11.5V82.5h23.5v31.1h-5V87.1h-13.7v10.7c0,12.4-2.9,15.9-9,15.9
			H1590.7z"/>
		<path class="st1" d="M1626.8,113.6V82.5h5v10.1h8.4c7.7,0,12.2,3.8,12.2,10.5c0,6.6-4.5,10.5-12.2,10.5H1626.8z M1631.8,109.4h7.6
			c5.1,0,7.9-2.3,7.9-6.2c0-4.1-2.8-6.2-7.9-6.2h-7.6V109.4z"/>
		<path class="st1" d="M1681.6,82.5v31.1h-5V103h-8.3l-7.6,10.7h-5.9l8.5-11.3c-5-1.1-7.7-4.5-7.7-9.5c0-6.4,4.5-10.2,12.3-10.2
			H1681.6z M1676.6,98.6V86.8h-8.5c-4.7,0-7.4,2-7.4,5.9c0,4,2.7,6,7.4,6H1676.6z"/>
		<path class="st1" d="M1703.6,92.3c0-12.9,8-21.7,20.4-21.7c9.5,0,16.3,5.5,17.9,14.3h-5.6c-1.6-5.9-6.2-9.5-12.6-9.5
			c-9,0-14.7,7-14.7,16.8c0,9.8,5.5,16.8,14.5,16.8c6.6,0,11.2-3.5,12.8-9.5h5.6c-1.6,8.8-8.7,14.3-18.3,14.3
			C1711.3,114,1703.6,105.4,1703.6,92.3z"/>
		<path class="st1" d="M1746.4,98.1c0-9.5,6-15.9,14.8-15.9c8.8,0,14.5,5.6,14.8,14.8c0,0.7-0.1,1.4-0.1,2.1h-24.2v0.4
			c0.2,5.9,3.9,10.1,9.8,10.1c4.4,0,7.8-2.3,8.8-6.3h5.1c-1.2,6.2-6.3,10.8-13.5,10.8C1752.5,114,1746.4,107.6,1746.4,98.1z
			 M1770.6,94.9c-0.5-5.4-4.1-8.4-9.3-8.4c-4.6,0-8.8,3.3-9.3,8.4H1770.6z"/>
		<path class="st1" d="M1812.3,98.1c0,9.5-6.3,15.9-14.9,15.9c-5.2,0-8.8-2.1-10.7-5.1v17h-5V82.5h4.3l0.7,5
			c2.1-2.9,5.4-5.4,10.7-5.4C1805.9,82.2,1812.3,88,1812.3,98.1z M1807.2,98.1c0-6.8-4.1-11.5-10.3-11.5c-6.1,0-10.2,4.7-10.2,11.3
			c0,6.8,4.1,11.6,10.2,11.6C1803,109.6,1807.2,104.9,1807.2,98.1z"/>
		<path class="st1" d="M1818,113.6V82.5h19.9v4.6H1823v26.5H1818z"/>
		<path class="st1" d="M1839.2,98.1c0-9.5,6-15.9,14.8-15.9c8.8,0,14.5,5.6,14.8,14.8c0,0.7-0.1,1.4-0.1,2.1h-24.2v0.4
			c0.2,5.9,3.9,10.1,9.8,10.1c4.4,0,7.8-2.3,8.8-6.3h5.1c-1.2,6.2-6.3,10.8-13.5,10.8C1845.3,114,1839.2,107.6,1839.2,98.1z
			 M1863.4,94.9c-0.5-5.4-4.1-8.4-9.3-8.4c-4.6,0-8.8,3.3-9.3,8.4H1863.4z"/>
		<path class="st1" d="M1873.4,98.1c0-9.5,6-15.9,14.8-15.9c8.8,0,14.5,5.6,14.8,14.8c0,0.7-0.1,1.4-0.1,2.1h-24.2v0.4
			c0.2,5.9,3.9,10.1,9.8,10.1c4.4,0,7.8-2.3,8.8-6.3h5.1c-1.2,6.2-6.3,10.8-13.5,10.8C1879.5,114,1873.4,107.6,1873.4,98.1z
			 M1897.6,94.9c-0.5-5.4-4.1-8.4-9.3-8.4c-4.6,0-8.8,3.3-9.3,8.4H1897.6z"/>
		<path class="st1" d="M1908.7,113.6V82.5h13.2c7.7,0,11.4,3,11.4,8.4c0,3.9-2.6,6-5.1,6.6c3.6,0.5,6.3,2.8,6.3,7.1
			c0,6-4.3,9-12.4,9H1908.7z M1913.7,95.8h8.7c4.1,0,5.9-1.7,5.9-4.5c0-3-1.8-4.5-5.9-4.5h-8.7V95.8z M1913.7,109.4h9.2
			c4.3,0,6.6-1.5,6.6-4.7c0-3-2.3-4.8-6.6-4.8h-9.2V109.4z"/>
		<path class="st1" d="M1940,113.6V82.5h4.9v23.5l18.5-23.5h4.4v31.1h-4.9V90l-18.5,23.6H1940z"/>
		<path class="st1" d="M1994.2,82.5h5v31.1h-5v-12.5c-2.4,1.6-5.6,2.4-8.7,2.4c-7.6,0-12.2-3.3-12.2-11.3v-9.7h5v8.8
			c0,5.7,2.7,7.6,8.2,7.6c3,0,5.6-0.7,7.7-2.5V82.5z"/>
		<path class="st1" d="M1279.1,134.9h16.4c8.5,0,14.2,5.1,14.2,13.1c0,8-5.6,13.2-14.2,13.2h-11.1v16.4h-5.3V134.9z M1284.5,139.8
			v16.5h10.6c5.6,0,9.2-3.2,9.2-8.3s-3.5-8.2-9.2-8.2H1284.5z"/>
		<path class="st1" d="M1311.5,146.5h5.3l9.6,24.8l9.3-24.8h5.3l-14.3,36.4c-2,5-3.1,7-7.5,7h-6v-4.6h4.5c2.9,0,3.4-0.7,4.5-3.7
			l1.5-3.8L1311.5,146.5z"/>
		<path class="st1" d="M1344.7,177.6v-31.1h5v13h6.6l9.7-13h5.8l-11.3,14.9l12.3,16.2h-6l-10.4-13.5h-6.7v13.5H1344.7z"/>
		<path class="st1" d="M1373.9,162.1c0-9.5,6.3-15.9,15.4-15.9s15.4,6.5,15.4,15.9c0,9.5-6.3,15.9-15.4,15.9
			S1373.9,171.5,1373.9,162.1z M1399.7,162.1c0-6.6-4.1-11.5-10.3-11.5c-6.2,0-10.3,4.8-10.3,11.5c0,6.7,4.1,11.5,10.3,11.5
			C1395.5,173.6,1399.7,168.7,1399.7,162.1z"/>
		<path class="st1" d="M1410.5,177.6v-31.1h13.2c7.7,0,11.4,3,11.4,8.4c0,3.9-2.6,6-5.1,6.6c3.6,0.5,6.3,2.8,6.3,7.1
			c0,6-4.3,9-12.4,9H1410.5z M1415.5,159.8h8.7c4.1,0,5.9-1.7,5.9-4.5c0-3-1.8-4.5-5.9-4.5h-8.7V159.8z M1415.5,173.4h9.2
			c4.3,0,6.6-1.5,6.6-4.7c0-3-2.3-4.8-6.6-4.8h-9.2V173.4z"/>
		<path class="st1" d="M1440.8,162.1c0-9.5,6.3-15.9,15.4-15.9s15.4,6.5,15.4,15.9c0,9.5-6.3,15.9-15.4,15.9
			S1440.8,171.5,1440.8,162.1z M1466.5,162.1c0-6.6-4.1-11.5-10.3-11.5s-10.3,4.8-10.3,11.5c0,6.7,4.1,11.5,10.3,11.5
			S1466.5,168.7,1466.5,162.1z"/>
		<path class="st1" d="M1503.9,173.1h4.9v12.8h-5v-8.2h-25.4v8.2h-5v-12.8h3.2c2.3-1.7,3.5-3.9,3.5-13.5v-13h23.8V173.1z
			 M1498.9,173.1v-22H1485v9c0,7.1-0.8,10.6-2.3,13H1498.9z"/>
		<path class="st1" d="M1513,177.6v-31.1h4.9v23.5l18.5-23.5h4.4v31.1h-4.9V154l-18.5,23.6H1513z"/>
		<path class="st1" d="M1556.3,177.6v-26.5H1545v-4.6h27.5v4.6h-11.2v26.5H1556.3z"/>
		<path class="st1" d="M1573.8,162.1c0-9.5,6-15.9,14.8-15.9c8.8,0,14.5,5.6,14.8,14.8c0,0.7-0.1,1.4-0.1,2.1H1579v0.4
			c0.2,5.9,3.9,10.1,9.8,10.1c4.4,0,7.8-2.3,8.8-6.3h5.1c-1.2,6.2-6.3,10.8-13.5,10.8C1579.9,178,1573.8,171.6,1573.8,162.1z
			 M1597.9,158.9c-0.5-5.4-4.1-8.4-9.3-8.4c-4.6,0-8.8,3.3-9.3,8.4H1597.9z"/>
		<path class="st1" d="M1604.8,177.6v-4.6h0.9c3.5,0,4.9-2.1,4.9-11.5v-15.1h23.5v31.1h-5v-26.5h-13.7v10.7c0,12.4-2.9,15.9-9,15.9
			H1604.8z"/>
		<path class="st1" d="M1641,177.6v-31.1h5v10.1h8.4c7.7,0,12.2,3.8,12.2,10.5c0,6.6-4.5,10.5-12.2,10.5H1641z M1646,173.4h7.6
			c5.1,0,7.9-2.3,7.9-6.2c0-4.1-2.8-6.2-7.9-6.2h-7.6V173.4z"/>
		<path class="st1" d="M1686.9,162.1c0-9.5,6.3-15.9,15.4-15.9c9.1,0,15.4,6.5,15.4,15.9c0,9.5-6.3,15.9-15.4,15.9
			C1693.2,178,1686.9,171.5,1686.9,162.1z M1712.6,162.1c0-6.6-4.1-11.5-10.3-11.5c-6.2,0-10.3,4.8-10.3,11.5
			c0,6.7,4.1,11.5,10.3,11.5C1708.5,173.6,1712.6,168.7,1712.6,162.1z"/>
		<path class="st1" d="M1730.1,177.6v-26.5h-11.2v-4.6h27.5v4.6h-11.2v26.5H1730.1z"/>
		<path class="st1" d="M1775.4,173.1h4.9v12.8h-5v-8.2H1750v8.2h-5v-12.8h3.2c2.3-1.7,3.5-3.9,3.5-13.5v-13h23.8V173.1z
			 M1770.4,173.1v-22h-13.9v9c0,7.1-0.8,10.6-2.3,13H1770.4z"/>
		<path class="st1" d="M1782.6,162.1c0-9.5,6-15.9,14.8-15.9c8.8,0,14.5,5.6,14.8,14.8c0,0.7-0.1,1.4-0.1,2.1h-24.2v0.4
			c0.2,5.9,3.9,10.1,9.8,10.1c4.4,0,7.8-2.3,8.8-6.3h5.1c-1.2,6.2-6.3,10.8-13.5,10.8C1788.7,178,1782.6,171.6,1782.6,162.1z
			 M1806.7,158.9c-0.5-5.4-4.1-8.4-9.3-8.4c-4.6,0-8.8,3.3-9.3,8.4H1806.7z"/>
		<path class="st1" d="M1813.6,177.6v-4.6h0.9c3.5,0,4.9-2.1,4.9-11.5v-15.1h23.5v31.1h-5v-26.5h-13.7v10.7c0,12.4-2.9,15.9-9,15.9
			H1813.6z"/>
		<path class="st1" d="M1878.9,173.1v4.6h-2.7c-4.1,0-5.6-1.8-5.6-4.8c-2,2.8-5.1,5.2-10.4,5.2c-6.8,0-11.5-3.4-11.5-9.1
			c0-6.2,4.3-9.7,12.5-9.7h9.2v-2.1c0-4-2.9-6.5-7.7-6.5c-4.4,0-7.3,2.1-7.9,5.2h-5c0.7-6.1,5.7-9.7,13.2-9.7
			c7.9,0,12.5,4,12.5,11.2V171c0,1.6,0.6,2.1,2,2.1H1878.9z M1870.3,163.4h-9.6c-4.5,0-7,1.6-7,5.2c0,3,2.6,5.1,6.8,5.1
			c6.2,0,9.8-3.6,9.8-8.8V163.4z"/>
		<path class="st1" d="M1897.6,162.2c0-9.5,6.2-16,15.2-16c7.6,0,12.4,4.3,13.7,11.1h-5.2c-0.9-4.1-4-6.6-8.5-6.6
			c-6,0-10,4.8-10,11.5s4,11.4,10,11.4c4.5,0,7.5-2.6,8.5-6.5h5.3c-1.2,6.7-6.3,11-13.8,11C1903.6,178,1897.6,171.9,1897.6,162.2z"
			/>
		<path class="st1" d="M1954.5,146.5h5v31.1h-5v-13.5H1937v13.5h-5v-31.1h5v13h17.5V146.5z"/>
		<path class="st1" d="M1995.5,173.1v4.6h-2.7c-4.1,0-5.6-1.8-5.6-4.8c-2,2.8-5.1,5.2-10.4,5.2c-6.8,0-11.5-3.4-11.5-9.1
			c0-6.2,4.3-9.7,12.5-9.7h9.2v-2.1c0-4-2.9-6.5-7.7-6.5c-4.4,0-7.3,2.1-7.9,5.2h-5c0.7-6.1,5.7-9.7,13.2-9.7
			c7.9,0,12.5,4,12.5,11.2V171c0,1.6,0.6,2.1,2,2.1H1995.5z M1986.9,163.4h-9.6c-4.5,0-7,1.6-7,5.2c0,3,2.6,5.1,6.8,5.1
			c6.2,0,9.8-3.6,9.8-8.8V163.4z"/>
		<path class="st1" d="M2028.9,163.1c0,8.6-6,14.9-15.2,14.9c-9.3,0-15.2-5.6-15.2-17.4c0-16.7,4-22.9,17.4-24.6l10.6-1.3v4.7
			l-9.5,1.2c-9.8,1.3-12.6,3.8-13.5,13.1c2.2-3,6.1-4.9,11.4-4.9C2022.9,148.6,2028.9,154.3,2028.9,163.1z M2023.8,163.3
			c0-6-4.1-10.3-10-10.3c-6.1,0-10.2,4.3-10.2,9.7c0,7,4.3,11,10.1,11C2019.6,173.7,2023.8,169.4,2023.8,163.3z"/>
		<path class="st1" d="M2029.4,177.6l11.8-16.1l-10.9-15h5.6l9.4,13h4.8v-13h4.9v13h4.8l9.4-13h5.6l-10.9,15l11.8,16.1h-5.7
			l-9.9-13.5h-5v13.5h-4.9v-13.5h-5l-9.9,13.5H2029.4z"/>
		<path class="st1" d="M2076.8,162.1c0-9.5,6-15.9,14.8-15.9c8.8,0,14.5,5.6,14.8,14.8c0,0.7-0.1,1.4-0.1,2.1H2082v0.4
			c0.2,5.9,3.9,10.1,9.8,10.1c4.4,0,7.8-2.3,8.8-6.3h5.1c-1.2,6.2-6.3,10.8-13.5,10.8C2082.9,178,2076.8,171.6,2076.8,162.1z
			 M2100.9,158.9c-0.5-5.4-4.1-8.4-9.3-8.4c-4.6,0-8.8,3.3-9.3,8.4H2100.9z"/>
		<path class="st1" d="M2134.5,146.5h5v31.1h-5v-13.5H2117v13.5h-5v-31.1h5v13h17.5V146.5z"/>
		<path class="st1" d="M2146.4,177.6v-31.1h4.9v23.5l18.5-23.5h4.4v31.1h-4.9V154l-18.5,23.6H2146.4z"/>
		<path class="st1" d="M2205.6,146.5v31.1h-5V167h-8.3l-7.6,10.7h-5.9l8.5-11.3c-5-1.1-7.7-4.5-7.7-9.5c0-6.4,4.5-10.2,12.3-10.2
			H2205.6z M2200.6,162.6v-11.8h-8.5c-4.7,0-7.4,2-7.4,5.9c0,4,2.7,6,7.4,6H2200.6z"/>
	</g>
</g>
<g>
	<g>
		<path class="st1" d="M1288.7,293.4h4.6v10.7h10.2v4.2h-10.2V319h-4.6v-10.7h-10.1v-4.2h10.1V293.4z"/>
		<path class="st1" d="M1307.4,280.9h30.1v3.6l-21,39.1h-5.6l20.9-38h-24.5V280.9z"/>
		<path class="st1" d="M1365.9,331.6c-6.2-8.1-8.8-16.8-8.8-26.2c0-9.2,2.6-18.1,8.8-26.2h5.5c-6.8,9-9.4,17-9.4,26.2
			c0,9.3,2.6,17.3,9.4,26.2H1365.9z"/>
		<path class="st1" d="M1375.6,312.2h5.1c1,4.3,4,7.3,9.2,7.3c7.4,0,11.5-6.8,11.5-16.4c0-0.6,0-1-0.1-2.1c-0.1,0.2-0.1,0.6-0.4,1.2
			c-1.9,4.2-6.2,7-11.9,7c-8.4,0-14.3-5.6-14.3-14.3c0-8.2,6-14.3,14.8-14.3c5.9,0,10.2,2.7,12.9,7.1c2.1,3.7,3.4,8.8,3.4,14.5
			c0,13.4-6,21.9-16.2,21.9C1382,324,1376.7,319.4,1375.6,312.2z M1399.5,294.8c0-5.7-3.9-9.7-9.8-9.7c-5.9,0-9.8,4.1-9.8,9.8
			c0,5.7,3.7,9.8,9.6,9.8S1399.5,300.6,1399.5,294.8z"/>
		<path class="st1" d="M1441.3,309.4c0,9.5-7,14.6-14.9,14.6c-9.5,0-15-6.2-15.4-13.6h5.1c0.5,4.9,4.2,9,10.4,9c5,0,9.7-3.4,9.7-9.9
			c0-5.8-3.7-9.9-9.6-9.9c-2.6,0-7.9,0.7-9.7,5.8l-4.9-0.1l1.4-24.3h25.6v4.7h-20.9l-1,13.5c2.6-3.1,6.3-4.1,10.2-4.1
			C1435.6,295,1441.3,300.9,1441.3,309.4z"/>
		<path class="st1" d="M1445.9,301.3c0-12.1,6.6-20.7,16.2-20.7c9.6,0,16.2,8.6,16.2,20.7v2c0,12.8-6.6,20.7-16.2,20.7
			c-9.6,0-16.2-8-16.2-20.7V301.3z M1473.1,301.5c0-10.1-4.4-16.2-11-16.2c-6.6,0-11,6.1-11,16.2v1.6c0,10.1,4.4,16.2,11,16.2
			c6.6,0,11-6.1,11-16.2V301.5z"/>
		<path class="st1" d="M1487.5,279.1c6.2,8.1,8.8,16.8,8.8,26.2c0,9.2-2.6,18.1-8.8,26.2h-5.5c6.8-9,9.4-17,9.4-26.2
			c0-9.3-2.6-17.3-9.4-26.2H1487.5z"/>
		<path class="st1" d="M1517.8,301.3c0-12.1,6.6-20.7,16.2-20.7c9.6,0,16.2,8.6,16.2,20.7v2c0,12.8-6.6,20.7-16.2,20.7
			c-9.6,0-16.2-8-16.2-20.7V301.3z M1545,301.5c0-10.1-4.4-16.2-11-16.2c-6.6,0-11,6.1-11,16.2v1.6c0,10.1,4.4,16.2,11,16.2
			c6.6,0,11-6.1,11-16.2V301.5z"/>
		<path class="st1" d="M1563,280.9h5v42.7h-5.1V293c-0.6,0.5-1.6,0.8-2.9,0.8h-6.9v-4.6h7c2,0,3-1.5,3-3.7V280.9z"/>
		<path class="st1" d="M1574.8,301.3c0-12.1,6.6-20.7,16.2-20.7c9.6,0,16.2,8.6,16.2,20.7v2c0,12.8-6.6,20.7-16.2,20.7
			c-9.6,0-16.2-8-16.2-20.7V301.3z M1602,301.5c0-10.1-4.4-16.2-11-16.2c-6.6,0-11,6.1-11,16.2v1.6c0,10.1,4.4,16.2,11,16.2
			c6.6,0,11-6.1,11-16.2V301.5z"/>
		<path class="st1" d="M1613.2,308.4v-4.2h20.3v4.2H1613.2z"/>
		<path class="st1" d="M1636.4,319.3l16.6-14.4c4-3.4,7.3-6.7,7.3-11.3c0-5.4-3.7-8.4-9.3-8.4c-5.5,0-9.2,3.7-9.2,9.5v0.8h-5.1v-1.1
			c0-8.1,5.7-13.8,14.3-13.8c9.2,0,14.6,5.1,14.6,12.8c0,6.4-4.1,10.4-9.2,14.8l-12.8,10.9h22.3v4.7h-29.4V319.3z"/>
		<path class="st1" d="M1700.5,309.4c0,9.5-7,14.6-14.9,14.6c-9.5,0-15-6.2-15.4-13.6h5.1c0.5,4.9,4.2,9,10.4,9c5,0,9.7-3.4,9.7-9.9
			c0-5.8-3.7-9.9-9.6-9.9c-2.6,0-7.9,0.7-9.7,5.8l-4.9-0.1l1.4-24.3h25.6v4.7H1677l-1,13.5c2.6-3.1,6.3-4.1,10.2-4.1
			C1694.7,295,1700.5,300.9,1700.5,309.4z"/>
		<path class="st1" d="M1705.5,308.4v-4.2h20.3v4.2H1705.5z"/>
		<path class="st1" d="M1732.4,312.2h5.1c1,4.3,4,7.3,9.2,7.3c7.4,0,11.5-6.8,11.5-16.4c0-0.6,0-1-0.1-2.1c-0.1,0.2-0.1,0.6-0.4,1.2
			c-1.9,4.2-6.2,7-11.9,7c-8.4,0-14.3-5.6-14.3-14.3c0-8.2,6-14.3,14.8-14.3c5.9,0,10.2,2.7,12.9,7.1c2.1,3.7,3.4,8.8,3.4,14.5
			c0,13.4-6,21.9-16.2,21.9C1738.8,324,1733.5,319.4,1732.4,312.2z M1756.3,294.8c0-5.7-3.9-9.7-9.8-9.7c-5.9,0-9.8,4.1-9.8,9.8
			c0,5.7,3.7,9.8,9.6,9.8C1752.3,304.7,1756.3,300.6,1756.3,294.8z"/>
		<path class="st1" d="M1764.4,280.9h30.1v3.6l-21,39.1h-5.6l20.9-38h-24.5V280.9z"/>
		<path class="st1" d="M1282.3,377.4c0.2,3.7,3.4,6.3,8.6,6.3c4.4,0,7.5-1.9,7.5-4.8c0-3.9-3.4-4.2-8.1-4.8
			c-7-0.9-12.5-2.3-12.5-8.7c0-5.7,5.2-9.4,12.2-9.3c7.1,0.1,12.2,3.4,12.7,9.8h-5.1c-0.4-3.2-3.3-5.6-7.6-5.6
			c-4.3,0-7.3,1.8-7.3,4.7c0,3.4,3.3,3.8,7.8,4.4c7.1,0.9,12.8,2.2,12.8,9.1c0,5.8-5.6,9.4-12.4,9.4c-8.1,0-13.6-3.8-13.7-10.6
			H1282.3z"/>
		<path class="st1" d="M1355.3,369.7v17.9h-5V370c0-6.1-2.7-9.3-7.4-9.3c-5.2,0-8.4,3.9-8.4,10.2v16.7h-5V370c0-6.1-2.7-9.3-7.5-9.3
			c-5.1,0-8.2,4.3-8.2,10.5v16.4h-5v-31.1h4.3l0.7,4.3c1.6-2.3,4.3-4.6,9.1-4.6c4.3,0,8.1,2,9.8,5.9c1.9-3.4,5.2-5.9,10.8-5.9
			C1350,356.2,1355.3,359.9,1355.3,369.7z"/>
		<path class="st1" d="M1361.1,348.1c0-1.9,1.4-3.2,3.2-3.2s3.2,1.3,3.2,3.2c0,1.9-1.4,3.2-3.2,3.2S1361.1,349.9,1361.1,348.1z
			 M1361.7,356.5h5v31.1h-5V356.5z"/>
		<path class="st1" d="M1389.4,356.5v4.9h-2.5c-6.5,0-8.3,5.4-8.3,10.4v15.9h-5v-31.1h4.3l0.7,4.7c1.5-2.4,3.8-4.7,9.4-4.7H1389.4z"
			/>
		<path class="st1" d="M1421.5,370.3v17.3h-5v-17c0-6.5-3-9.9-8.4-9.9c-5.9,0-9.4,4.3-9.4,11.3v15.6h-5v-31.1h4.3l0.7,4.2
			c1.8-2.4,5-4.6,10.2-4.6C1416,356.2,1421.5,360,1421.5,370.3z"/>
		<path class="st1" d="M1426.5,372.1c0-9.5,6.3-15.9,15.4-15.9s15.4,6.5,15.4,15.9c0,9.5-6.3,15.9-15.4,15.9
			S1426.5,381.5,1426.5,372.1z M1452.2,372.1c0-6.6-4.1-11.5-10.3-11.5c-6.2,0-10.3,4.8-10.3,11.5c0,6.7,4.1,11.5,10.3,11.5
			C1448.1,383.6,1452.2,378.7,1452.2,372.1z"/>
		<path class="st1" d="M1458.6,356.5h5.4l9.4,25.4l9.3-25.4h5.2l-11.7,31.1h-6L1458.6,356.5z"/>
		<path class="st1" d="M1519.5,346.2c15.1,0,25.6,9.2,25.6,22.1c0,9.6-5.5,16.3-13,16.3c-3.8,0-6.2-2.1-6.5-4.6l-0.1-0.9
			c-1.4,3.3-5.1,5.4-9.4,5.4c-6.1,0-11-4.7-11-11.7c0-7.7,5.9-14,12.7-14c4.8,0,7.6,2,8.5,4.6l0.9-4.1h3.9l-1.8,17.4
			c-0.3,2.9,1.1,4.1,3.5,4.1c4,0,7.5-5.4,7.5-12.8c0-10.7-8.4-17.9-20.9-17.9c-14,0-23.3,9.8-23.3,22.3c0,12.7,8.1,20.5,22.5,20.5
			c5.3,0,10.2-1.3,14-3.8l-0.1,4.5c-3.1,2.1-8.5,3.5-14.3,3.5c-15.7,0-26.8-9.6-26.8-24.6C1491.4,357.5,1503.9,346.2,1519.5,346.2z
			 M1518.6,362.6c-5.1,0-9,4.6-9,10.2c0,4.9,2.9,8.2,7.1,8.2c4.9,0,8.8-4.4,8.8-11C1525.6,365.3,1522.7,362.6,1518.6,362.6z"/>
		<path class="st1" d="M1550.5,372.1c0-9.5,6-15.9,14.8-15.9c8.8,0,14.5,5.6,14.8,14.8c0,0.7-0.1,1.4-0.1,2.1h-24.2v0.4
			c0.2,5.9,3.9,10.1,9.8,10.1c4.4,0,7.8-2.3,8.8-6.3h5.1c-1.2,6.2-6.3,10.8-13.5,10.8C1556.6,388,1550.5,381.6,1550.5,372.1z
			 M1574.6,368.9c-0.5-5.4-4.1-8.4-9.3-8.4c-4.6,0-8.8,3.3-9.3,8.4H1574.6z"/>
		<path class="st1" d="M1585.7,344.9h5v42.7h-5V344.9z"/>
		<path class="st1" d="M1599.9,361.1h-5.6v-4.6h5.6v-8.7h5v8.7h8.1v4.6h-8.1v18.4c0,2.6,0.9,3.6,3.6,3.6h4.9v4.6h-5.4
			c-6,0-8.1-2.6-8.1-8.1V361.1z"/>
		<path class="st1" d="M1646.4,383.1v4.6h-2.7c-4.1,0-5.6-1.8-5.6-4.8c-2,2.8-5.1,5.2-10.4,5.2c-6.8,0-11.5-3.4-11.5-9.1
			c0-6.2,4.3-9.7,12.5-9.7h9.2v-2.1c0-4-2.9-6.5-7.7-6.5c-4.4,0-7.3,2.1-7.9,5.2h-5c0.7-6.1,5.7-9.7,13.2-9.7
			c7.9,0,12.5,4,12.5,11.2V381c0,1.6,0.6,2.1,2,2.1H1646.4z M1637.8,373.4h-9.6c-4.5,0-7,1.6-7,5.2c0,3,2.6,5.1,6.8,5.1
			c6.2,0,9.8-3.6,9.8-8.8V373.4z"/>
		<path class="st1" d="M1650,372.4v-4.2h20.3v4.2H1650z"/>
		<path class="st1" d="M1679.7,377.4c0.2,3.7,3.4,6.3,8.6,6.3c4.4,0,7.5-1.9,7.5-4.8c0-3.9-3.4-4.2-8.1-4.8
			c-7-0.9-12.5-2.3-12.5-8.7c0-5.7,5.2-9.4,12.2-9.3c7.1,0.1,12.2,3.4,12.7,9.8h-5.1c-0.4-3.2-3.3-5.6-7.6-5.6
			c-4.3,0-7.3,1.8-7.3,4.7c0,3.4,3.3,3.8,7.8,4.4c7.1,0.9,12.7,2.2,12.7,9.1c0,5.8-5.6,9.4-12.4,9.4c-8.1,0-13.6-3.8-13.7-10.6
			H1679.7z"/>
		<path class="st1" d="M1737,372.1c0,9.5-6.3,15.9-14.9,15.9c-5.2,0-8.8-2.1-10.7-5.1v17h-5v-43.3h4.3l0.7,5
			c2.1-2.9,5.4-5.4,10.7-5.4C1730.6,356.2,1737,362,1737,372.1z M1731.8,372.1c0-6.8-4.1-11.5-10.3-11.5c-6.1,0-10.2,4.7-10.2,11.3
			c0,6.8,4.1,11.6,10.2,11.6C1727.7,383.6,1731.8,378.9,1731.8,372.1z"/>
		<path class="st1" d="M1773.3,372.1c0,9.5-6.3,15.9-14.9,15.9c-5.2,0-8.8-2.1-10.7-5.1l-0.7,4.8h-4.3v-42.7h5v16.6
			c2.1-2.9,5.4-5.4,10.7-5.4C1767,356.2,1773.3,362,1773.3,372.1z M1768.2,372.1c0-6.8-4.1-11.5-10.3-11.5
			c-6.1,0-10.2,4.7-10.2,11.3c0,6.8,4.1,11.6,10.2,11.6C1764,383.6,1768.2,378.9,1768.2,372.1z"/>
		<path class="st1" d="M1779.9,381.2c2,0,3.5,1.3,3.5,3.4c0,2.1-1.5,3.4-3.5,3.4c-2,0-3.5-1.3-3.5-3.4
			C1776.4,382.5,1777.9,381.2,1779.9,381.2z"/>
		<path class="st1" d="M1786.5,372.2c0-9.5,6.2-16,15.2-16c7.6,0,12.4,4.3,13.7,11.1h-5.2c-0.9-4.1-4-6.6-8.5-6.6
			c-6,0-10,4.8-10,11.5s4,11.4,10,11.4c4.5,0,7.5-2.6,8.5-6.5h5.3c-1.2,6.7-6.3,11-13.8,11C1792.5,388,1786.5,381.9,1786.5,372.2z"
			/>
		<path class="st1" d="M1819.8,372.1c0-9.5,6.3-15.9,15.4-15.9c9.1,0,15.4,6.5,15.4,15.9c0,9.5-6.3,15.9-15.4,15.9
			C1826.1,388,1819.8,381.5,1819.8,372.1z M1845.5,372.1c0-6.6-4.1-11.5-10.3-11.5c-6.2,0-10.3,4.8-10.3,11.5
			c0,6.7,4.1,11.5,10.3,11.5C1841.4,383.6,1845.5,378.7,1845.5,372.1z"/>
		<path class="st1" d="M1902.9,369.7v17.9h-5V370c0-6.1-2.7-9.3-7.4-9.3c-5.2,0-8.4,3.9-8.4,10.2v16.7h-5V370c0-6.1-2.7-9.3-7.5-9.3
			c-5.1,0-8.2,4.3-8.2,10.5v16.4h-5v-31.1h4.3l0.7,4.3c1.6-2.3,4.3-4.6,9.1-4.6c4.3,0,8.1,2,9.8,5.9c1.9-3.4,5.2-5.9,10.8-5.9
			C1897.6,356.2,1902.9,359.9,1902.9,369.7z"/>
	</g>
</g>
</svg>
