<?xml version="1.0" encoding="utf-8"?>
<!-- Generator: Adobe Illustrator 22.0.0, SVG Export Plug-In . SVG Version: 6.00 Build 0)  -->
<svg version="1.1" id="Layer_1" xmlns="http://www.w3.org/2000/svg" xmlns:xlink="http://www.w3.org/1999/xlink" x="0px" y="0px"
	 viewBox="0 0 2551.2 1417.5" style="enable-background:new 0 0 2551.2 1417.5;" xml:space="preserve">
<style type="text/css">
	.st0{fill:none;stroke:#52525F;stroke-miterlimit:10;}
	.st1{fill:#FFFFFF;}
</style>
<rect y="0.2" width="2551.2" height="1417.3"/>
<line class="st0" x1="1275.6" y1="0" x2="1275.6" y2="1417.3"/>
<line class="st0" x1="51" y1="0.2" x2="51" y2="1417.5"/>
<line class="st0" x1="283" y1="0.2" x2="283" y2="1417.5"/>
<line class="st0" x1="2551.2" y1="70.3" x2="0" y2="70.3"/>
<line class="st0" x1="2551.2" y1="605.1" x2="0" y2="605.1"/>
<line class="st0" x1="2551.2" y1="781.1" x2="0" y2="781.1"/>
<line class="st0" x1="2551.2" y1="1099.1" x2="0" y2="1099.1"/>
<line class="st0" x1="2551.2" y1="1118.1" x2="0" y2="1118.1"/>
<line class="st0" x1="2551.2" y1="281.1" x2="0" y2="281.1"/>
<line class="st0" x1="2551.2" y1="1345.1" x2="0" y2="1345.1"/>
<line class="st0" x1="1103.5" y1="0.2" x2="1103.5" y2="1417.5"/>
<g>
	<g>
		<path class="st1" d="M66.6,134.4c-4.1-2.1-7.5-4.8-10.2-8.4c-2.7-3.5-4.5-7.4-5.4-11.7h10.2c1.3,4.1,3.6,7.4,7,10
			c3.4,2.6,7.4,3.8,12.1,3.8c3.7,0,7-0.9,10.1-2.6c3.1-1.7,5.6-4.1,7.5-7.2c1.9-3,3-6.4,3.4-10.2H72.5v-8.9h28.8
			c-0.3-3.7-1.4-7-3.4-10c-1.9-3-4.4-5.4-7.5-7.1c-3.1-1.7-6.5-2.6-10.1-2.6c-4.6,0-8.6,1.2-12,3.7c-3.4,2.5-5.8,5.7-7.1,9.5H51
			c1.1-4.2,3-8,5.7-11.4c2.7-3.4,6.1-6.1,10.2-8.2c4.1-2,8.5-3,13.4-3c5.8,0,11.1,1.4,15.8,4.3c4.8,2.9,8.5,6.8,11.3,11.9
			c2.8,5.1,4.2,10.9,4.2,17.4c0,6.5-1.4,12.3-4.2,17.4c-2.8,5.1-6.6,9.1-11.3,11.9c-4.8,2.9-10,4.3-15.8,4.3
			C75.3,137.5,70.7,136.5,66.6,134.4z"/>
		<path class="st1" d="M112.6,137.1v-9.6h2.9c4.3,0,6.7-2.5,7.1-7.6l4.1-48.6h42.2v65.3h-9.8v-56h-23.3l-3.5,40.4
			c-0.4,5.5-2,9.5-4.7,12.1c-2.7,2.6-6.4,3.9-11.3,3.9H112.6z"/>
		<path class="st1" d="M206.2,136.6h-9.8v-56h-20.5v-9.3h50.8v9.3h-20.4V136.6z"/>
		<path class="st1" d="M283.1,136.6h-10.5l-5.6-15.7h-30.1l-5.6,15.7h-10.6l24.1-65.3h14.4L283.1,136.6z M251,81.7L240.1,112h23.7
			l-10.9-30.3H251z"/>
	</g>
</g>
<g>
	<g>
		<path class="st1" d="M1284.1,113.8h-8.2V71.1h4.9V108h1.2l19.2-36.9h8.2v42.7h-4.9V76.9h-1.2L1284.1,113.8z"/>
		<path class="st1" d="M1323.2,113.8h-4.6V83.3h8.5l8.2,25.3h1.2l8.2-25.3h8.5v30.5h-4.6v-25h-1.2l-8.2,25h-6.7l-8.2-25h-1.2V113.8z
			"/>
		<path class="st1" d="M1384.5,83.3v30.5h-4.6v-11h-3.7l-11,11h-5.8l11-11h-0.3c-2.9,0-5.3-0.9-7.2-2.7s-2.8-4.2-2.8-7
			c0-2.9,0.9-5.2,2.8-7c1.9-1.8,4.3-2.7,7.2-2.7H1384.5z M1379.9,98.6v-11h-9.8c-1.5,0-2.8,0.5-3.9,1.5c-1.1,1-1.6,2.3-1.6,4
			c0,1.6,0.5,2.9,1.6,4c1.1,1,2.4,1.5,3.9,1.5H1379.9z"/>
		<path class="st1" d="M1429.3,75.4c3.8,0,7.1,0.7,9.9,2.1c2.8,1.4,5,3.4,6.5,5.9c1.5,2.5,2.3,5.3,2.3,8.5s-0.8,6-2.3,8.5
			c-1.5,2.5-3.7,4.4-6.5,5.9c-2.8,1.4-6.1,2.1-9.9,2.1h-0.9v6.7h-4.9v-6.7h-0.9c-3.8,0-7.1-0.7-9.9-2.1c-2.8-1.4-5-3.4-6.5-5.9
			c-1.5-2.5-2.3-5.3-2.3-8.5s0.8-6,2.3-8.5c1.5-2.5,3.7-4.4,6.5-5.9c2.8-1.4,6.1-2.1,9.9-2.1h0.9v-5.5h4.9v5.5H1429.3z M1410.5,98.1
			c1.1,1.8,2.7,3.3,4.8,4.3c2.1,1.1,4.5,1.6,7.3,1.6h0.9V79.6h-0.9c-2.8,0-5.2,0.5-7.3,1.6c-2.1,1.1-3.6,2.5-4.8,4.3
			c-1.1,1.8-1.7,3.9-1.7,6.3C1408.9,94.2,1409.4,96.3,1410.5,98.1z M1429.3,104c2.8,0,5.2-0.5,7.3-1.6c2.1-1.1,3.6-2.5,4.8-4.3
			c1.1-1.8,1.7-3.9,1.7-6.3c0-2.4-0.6-4.5-1.7-6.3c-1.1-1.8-2.7-3.3-4.8-4.3c-2.1-1.1-4.5-1.6-7.3-1.6h-0.9V104H1429.3z"/>
		<path class="st1" d="M1456.3,111.8c-2-1.8-3-4-3-6.8c0-3,1-5.4,3-7.2c2-1.7,5.1-2.6,9.2-2.6h8.2v-0.9c0-2.3-0.7-4.1-2-5.4
			c-1.3-1.3-3.1-2-5.4-2c-2.2,0-4,0.5-5.3,1.5c-1.4,1-2.1,2.2-2.3,3.7h-4.6c0.1-1.7,0.7-3.2,1.6-4.7c1-1.4,2.4-2.6,4.2-3.5
			c1.8-0.9,3.9-1.3,6.4-1.3c3.7,0,6.6,1,8.7,3.1c2.1,2.1,3.2,4.9,3.2,8.5v19.5h-4l-0.6-3.7h-0.3c-0.7,1.1-1.9,2.1-3.6,3
			c-1.7,0.9-3.7,1.3-5.9,1.3C1460.9,114.4,1458.3,113.5,1456.3,111.8z M1471.2,107.6c1.7-1.7,2.6-4,2.6-6.9v-1.2h-8.2
			c-2.6,0-4.5,0.5-5.8,1.5s-1.9,2.3-1.9,4c0,1.5,0.5,2.8,1.6,3.8c1.1,1,2.6,1.4,4.5,1.4C1467.1,110.1,1469.5,109.3,1471.2,107.6z"/>
		<path class="st1" d="M1491.5,113.8h-4.6V83.3h8.5l8.2,25.3h1.2l8.2-25.3h8.5v30.5h-4.6v-25h-1.2l-8.2,25h-6.7l-8.2-25h-1.2V113.8z
			"/>
		<path class="st1" d="M1538.2,113.8h-7.9V83.3h4.6v25h1.2l11.6-25h7.9v30.5h-4.6v-25h-1.2L1538.2,113.8z"/>
		<path class="st1" d="M1560.4,114.1v-4.6h1.8c1.1,0,2.1-0.3,2.7-1s1.1-1.8,1.2-3.2l1.8-22h20.4v30.5h-4.6V87.6h-11.6l-1.5,17.7
			c-0.3,3-1.1,5.2-2.5,6.7c-1.4,1.4-3.4,2.2-6,2.2H1560.4z"/>
		<path class="st1" d="M1605,113.8h-7.9V83.3h4.6v25h1.2l11.6-25h7.9v30.5h-4.6v-25h-1.2L1605,113.8z"/>
		<path class="st1" d="M1653.5,83.3v30.5h-4.6v-11h-3.7l-11,11h-5.8l11-11h-0.3c-2.9,0-5.3-0.9-7.2-2.7c-1.9-1.8-2.8-4.2-2.8-7
			c0-2.9,0.9-5.2,2.8-7c1.9-1.8,4.3-2.7,7.2-2.7H1653.5z M1648.9,98.6v-11h-9.8c-1.5,0-2.8,0.5-3.9,1.5c-1.1,1-1.6,2.3-1.6,4
			c0,1.6,0.5,2.9,1.6,4c1.1,1,2.4,1.5,3.9,1.5H1648.9z"/>
		<path class="st1" d="M1684.9,111.6c-3.1-1.9-5.6-4.4-7.4-7.8c-1.8-3.3-2.7-7.1-2.7-11.4c0-4.3,0.9-8.1,2.7-11.4
			c1.8-3.3,4.3-5.9,7.4-7.8c3.1-1.8,6.6-2.8,10.3-2.8c3.7,0,7.2,0.9,10.3,2.8c3.1,1.9,5.6,4.4,7.4,7.8c1.8,3.3,2.7,7.1,2.7,11.4
			c0,4.3-0.9,8.1-2.7,11.4c-1.8,3.3-4.3,5.9-7.4,7.8c-3.1,1.9-6.6,2.8-10.3,2.8C1691.5,114.4,1688.1,113.5,1684.9,111.6z
			 M1703.1,107.6c2.4-1.5,4.3-3.5,5.6-6.2c1.4-2.6,2.1-5.7,2.1-9c0-3.4-0.7-6.4-2.1-9c-1.4-2.6-3.3-4.7-5.6-6.2s-5-2.2-7.8-2.2
			c-2.8,0-5.5,0.7-7.8,2.2s-4.3,3.5-5.6,6.2c-1.4,2.6-2.1,5.7-2.1,9c0,3.4,0.7,6.4,2.1,9c1.4,2.6,3.3,4.7,5.6,6.2s5,2.2,7.8,2.2
			C1698.1,109.8,1700.7,109.1,1703.1,107.6z"/>
		<path class="st1" d="M1734.6,113.8h-4.6V87.6h-10.4v-4.3h25.3v4.3h-10.4V113.8z"/>
		<path class="st1" d="M1768.8,101.9c-1.3,0.9-2.7,1.5-4.1,1.9c-1.4,0.4-3,0.5-4.7,0.5c-3.7,0-6.4-1-8.2-2.9s-2.7-4.8-2.7-8.7v-9.5
			h4.6v9.5c0,2.4,0.6,4.3,1.8,5.5c1.2,1.2,2.9,1.8,5.2,1.8c1.6,0,3.1-0.2,4.4-0.7c1.3-0.4,2.6-1.1,3.8-2.1v-14h4.6v30.5h-4.6V101.9z
			"/>
		<path class="st1" d="M1787.2,112.4c-2.2-1.3-4-3.2-5.3-5.6s-1.9-5.1-1.9-8.2c0-3.1,0.6-5.8,1.9-8.2c1.3-2.4,3-4.3,5.3-5.6
			c2.2-1.3,4.7-2,7.4-2c2.6,0,5,0.6,7.1,1.9c2.2,1.3,3.8,3,5.1,5.2c1.2,2.2,1.8,4.7,1.8,7.5c0,1.6-0.1,2.7-0.3,3.4h-23.8
			c0.3,2.8,1.4,5.1,3.3,6.9c1.9,1.7,4.2,2.6,6.8,2.6c1.8,0,3.5-0.4,4.9-1.3c1.4-0.9,2.6-2.1,3.3-3.6h4.9c-1.1,2.9-2.7,5.2-5,6.8
			c-2.3,1.6-5,2.4-8.1,2.4C1792,114.4,1789.5,113.7,1787.2,112.4z M1804.1,96.4c-0.2-2.8-1.1-5-2.9-6.8c-1.8-1.8-4-2.7-6.6-2.7
			c-2.7,0-5,0.9-6.8,2.7c-1.8,1.8-2.9,4-3.2,6.8H1804.1z"/>
		<path class="st1" d="M1820.8,112.4c-2.2-1.3-4-3.2-5.3-5.6s-1.9-5.1-1.9-8.2c0-3.1,0.6-5.8,1.9-8.2c1.3-2.4,3-4.3,5.3-5.6
			c2.2-1.3,4.7-2,7.4-2c3.4,0,6.3,0.9,8.7,2.8c2.4,1.9,4,4.4,4.8,7.6h-4.6c-0.6-2-1.7-3.5-3.3-4.5c-1.6-1.1-3.4-1.6-5.6-1.6
			c-1.8,0-3.5,0.5-5.1,1.4c-1.5,1-2.8,2.3-3.7,4.1c-0.9,1.8-1.3,3.8-1.3,6.1c0,2.3,0.4,4.3,1.3,6.1c0.9,1.8,2.1,3.1,3.7,4.1
			c1.5,1,3.2,1.4,5.1,1.4c2.2,0,4.1-0.5,5.6-1.6c1.5-1.1,2.6-2.7,3.2-4.8h4.6c-0.8,3.3-2.4,5.9-4.8,7.8c-2.4,1.9-5.3,2.8-8.7,2.8
			C1825.5,114.4,1823,113.7,1820.8,112.4z"/>
		<path class="st1" d="M1858.4,113.8h-4.6V87.6h-10.4v-4.3h25.3v4.3h-10.4V113.8z"/>
		<path class="st1" d="M1874,113.8V83.3h15.9c2.6,0,4.7,0.8,6.2,2.3c1.5,1.5,2.3,3.6,2.3,6.2c0,1.5-0.4,2.9-1.1,4
			c-0.8,1.1-1.6,1.9-2.5,2.4v0.3c1.1,0.4,2.1,1.2,3,2.3c0.9,1.1,1.3,2.6,1.3,4.3c0,2.5-0.8,4.5-2.4,6.2c-1.6,1.6-3.7,2.5-6.1,2.5
			H1874z M1889.2,96.4c1.3,0,2.3-0.4,3.2-1.3c0.9-0.9,1.3-2,1.3-3.3s-0.4-2.4-1.3-3.3s-2-1.3-3.2-1.3h-10.7v9.2H1889.2z
			 M1889.8,109.8c1.3,0,2.3-0.4,3.2-1.3c0.9-0.9,1.3-2,1.3-3.4c0-1.4-0.4-2.6-1.3-3.4c-0.9-0.9-2-1.3-3.2-1.3h-11.3v9.5H1889.8z"/>
		<path class="st1" d="M1911.1,112.4c-2.2-1.3-4-3.2-5.3-5.6s-1.9-5.1-1.9-8.2c0-3.1,0.6-5.8,1.9-8.2c1.3-2.4,3-4.3,5.3-5.6
			c2.2-1.3,4.7-2,7.4-2c2.7,0,5.2,0.7,7.4,2c2.2,1.3,4,3.2,5.3,5.6c1.3,2.4,1.9,5.1,1.9,8.2c0,3.1-0.6,5.8-1.9,8.2
			c-1.3,2.4-3,4.3-5.3,5.6c-2.2,1.3-4.7,2-7.4,2C1915.8,114.4,1913.3,113.7,1911.1,112.4z M1923.6,108.7c1.5-1,2.8-2.3,3.7-4.1
			c0.9-1.8,1.3-3.8,1.3-6.1c0-2.3-0.4-4.3-1.3-6.1c-0.9-1.8-2.1-3.1-3.7-4.1c-1.5-1-3.2-1.4-5.1-1.4s-3.5,0.5-5.1,1.4
			c-1.5,1-2.8,2.3-3.7,4.1c-0.9,1.8-1.3,3.8-1.3,6.1c0,2.3,0.4,4.3,1.3,6.1c0.9,1.8,2.1,3.1,3.7,4.1c1.5,1,3.2,1.4,5.1,1.4
			S1922,109.7,1923.6,108.7z"/>
		<path class="st1" d="M1276,183.3v-13.1h0.9c1.5,0,2.7-0.4,3.5-1.2c0.8-0.8,1.2-2,1.4-3.7l2.7-33.2h26.5v38.1h4.6v13.1h-4.9v-8.5
			h-29.9v8.5H1276z M1306.2,170.2v-33.5h-17.1l-2.4,28.7c-0.1,1.3-0.4,2.4-0.7,3.3c-0.4,0.9-0.7,1.4-1.1,1.6H1306.2z"/>
		<path class="st1" d="M1327.1,173.4c-2.2-1.3-4-3.2-5.3-5.6s-1.9-5.1-1.9-8.2c0-3.1,0.6-5.8,1.9-8.2c1.3-2.4,3-4.3,5.3-5.6
			c2.2-1.3,4.7-2,7.4-2c2.7,0,5.2,0.7,7.4,2c2.2,1.3,4,3.2,5.3,5.6c1.3,2.4,1.9,5.1,1.9,8.2c0,3.1-0.6,5.8-1.9,8.2
			c-1.3,2.4-3,4.3-5.3,5.6c-2.2,1.3-4.7,2-7.4,2C1331.8,175.4,1329.4,174.7,1327.1,173.4z M1339.6,169.7c1.5-1,2.8-2.3,3.7-4.1
			c0.9-1.8,1.3-3.8,1.3-6.1c0-2.3-0.4-4.3-1.3-6.1c-0.9-1.8-2.1-3.1-3.7-4.1c-1.5-1-3.2-1.4-5.1-1.4s-3.5,0.5-5.1,1.4
			c-1.5,1-2.8,2.3-3.7,4.1c-0.9,1.8-1.3,3.8-1.3,6.1c0,2.3,0.4,4.3,1.3,6.1c0.9,1.8,2.1,3.1,3.7,4.1c1.5,1,3.2,1.4,5.1,1.4
			S1338.1,170.7,1339.6,169.7z"/>
		<path class="st1" d="M1351,175.1v-4.6h1.8c1.1,0,2.1-0.3,2.7-1s1.1-1.8,1.2-3.2l1.8-22h20.4v30.5h-4.6v-26.2h-11.6l-1.5,17.7
			c-0.3,3-1.1,5.2-2.5,6.7c-1.4,1.4-3.4,2.2-6,2.2H1351z"/>
		<path class="st1" d="M1388.9,174.8h-5.5l12.5-15.6l-11.6-14.9h5.5l11,14.3v-14.3h4.6v14.3l11-14.3h5.5l-11.6,14.9l12.5,15.6h-5.5
			l-11.9-14.9v14.9h-4.6v-14.9L1388.9,174.8z"/>
		<path class="st1" d="M1431.5,174.8h-4.6v-30.5h4.6v13.1h16.2v-13.1h4.6v30.5h-4.6v-13.1h-16.2V174.8z"/>
		<path class="st1" d="M1466.2,173.4c-2.2-1.3-4-3.2-5.3-5.6c-1.3-2.4-1.9-5.1-1.9-8.2c0-3.1,0.6-5.8,1.9-8.2c1.3-2.4,3-4.3,5.3-5.6
			c2.2-1.3,4.7-2,7.4-2s5.2,0.7,7.4,2c2.2,1.3,4,3.2,5.3,5.6c1.3,2.4,1.9,5.1,1.9,8.2c0,3.1-0.6,5.8-1.9,8.2s-3,4.3-5.3,5.6
			c-2.2,1.3-4.7,2-7.4,2S1468.4,174.7,1466.2,173.4z M1478.7,169.7c1.5-1,2.8-2.3,3.7-4.1c0.9-1.8,1.3-3.8,1.3-6.1
			c0-2.3-0.4-4.3-1.3-6.1c-0.9-1.8-2.1-3.1-3.7-4.1c-1.5-1-3.2-1.4-5.1-1.4s-3.5,0.5-5.1,1.4c-1.5,1-2.8,2.3-3.7,4.1
			c-0.9,1.8-1.3,3.8-1.3,6.1c0,2.3,0.4,4.3,1.3,6.1c0.9,1.8,2.1,3.1,3.7,4.1c1.5,1,3.2,1.4,5.1,1.4S1477.2,170.7,1478.7,169.7z"/>
		<path class="st1" d="M1500.4,173.4c-2.2-1.3-4-3.2-5.3-5.6s-1.9-5.1-1.9-8.2c0-3.1,0.6-5.8,1.9-8.2c1.3-2.4,3-4.3,5.3-5.6
			c2.2-1.3,4.7-2,7.4-2c3.4,0,6.3,0.9,8.7,2.8c2.4,1.9,4,4.4,4.8,7.6h-4.6c-0.6-2-1.7-3.5-3.3-4.5c-1.6-1.1-3.4-1.6-5.6-1.6
			c-1.8,0-3.5,0.5-5.1,1.4c-1.5,1-2.8,2.3-3.7,4.1c-0.9,1.8-1.3,3.8-1.3,6.1c0,2.3,0.4,4.3,1.3,6.1c0.9,1.8,2.1,3.1,3.7,4.1
			c1.5,1,3.2,1.4,5.1,1.4c2.2,0,4.1-0.5,5.6-1.6c1.5-1.1,2.6-2.7,3.2-4.8h4.6c-0.8,3.3-2.4,5.9-4.8,7.8c-2.4,1.9-5.3,2.8-8.7,2.8
			C1505.1,175.4,1502.6,174.7,1500.4,173.4z"/>
		<path class="st1" d="M1538,174.8h-4.6v-26.2H1523v-4.3h25.3v4.3H1538V174.8z"/>
		<path class="st1" d="M1553.5,174.8v-30.5h4.6v10.4h9.5c2,0,3.8,0.4,5.4,1.3c1.6,0.9,2.8,2.1,3.7,3.6c0.9,1.5,1.3,3.2,1.3,5.2
			c0,1.9-0.4,3.6-1.3,5.2c-0.9,1.5-2.1,2.7-3.7,3.6c-1.6,0.9-3.4,1.3-5.4,1.3H1553.5z M1567.6,170.5c1.7,0,3-0.5,4.1-1.6
			c1.1-1.1,1.6-2.5,1.6-4.1c0-1.7-0.5-3-1.6-4.1c-1.1-1.1-2.5-1.6-4.1-1.6h-9.5v11.6H1567.6z"/>
	</g>
</g>
<g>
	<g>
		<path class="st1" d="M1279.8,323.8h-4.9v-42.7h4.9V300h23.8v-18.9h4.9v42.7h-4.9v-19.2h-23.8V323.8z"/>
		<path class="st1" d="M1322.9,322.4c-2.2-1.3-4-3.2-5.3-5.6s-1.9-5.1-1.9-8.2c0-3.1,0.6-5.8,1.9-8.2c1.3-2.4,3-4.3,5.3-5.6
			c2.2-1.3,4.7-2,7.4-2c2.7,0,5.2,0.7,7.4,2c2.2,1.3,4,3.2,5.3,5.6c1.3,2.4,1.9,5.1,1.9,8.2c0,3.1-0.6,5.8-1.9,8.2
			c-1.3,2.4-3,4.3-5.3,5.6c-2.2,1.3-4.7,2-7.4,2C1327.7,324.4,1325.2,323.7,1322.9,322.4z M1335.5,318.7c1.5-1,2.8-2.3,3.7-4.1
			c0.9-1.8,1.3-3.8,1.3-6.1c0-2.3-0.4-4.3-1.3-6.1c-0.9-1.8-2.1-3.1-3.7-4.1c-1.5-1-3.2-1.4-5.1-1.4s-3.5,0.5-5.1,1.4
			c-1.5,1-2.8,2.3-3.7,4.1c-0.9,1.8-1.3,3.8-1.3,6.1c0,2.3,0.4,4.3,1.3,6.1c0.9,1.8,2.1,3.1,3.7,4.1c1.5,1,3.2,1.4,5.1,1.4
			S1333.9,319.7,1335.5,318.7z"/>
		<path class="st1" d="M1356.3,323.8h-4.6v-30.5h8.5l8.2,25.3h1.2l8.2-25.3h8.5v30.5h-4.6v-25h-1.2l-8.2,25h-6.7l-8.2-25h-1.2V323.8
			z"/>
		<path class="st1" d="M1400.4,322.4c-2.2-1.3-4-3.2-5.3-5.6s-1.9-5.1-1.9-8.2c0-3.1,0.6-5.8,1.9-8.2c1.3-2.4,3-4.3,5.3-5.6
			c2.2-1.3,4.7-2,7.4-2c2.6,0,5,0.6,7.1,1.9c2.2,1.3,3.8,3,5.1,5.2c1.2,2.2,1.8,4.7,1.8,7.5c0,1.6-0.1,2.7-0.3,3.4h-23.8
			c0.3,2.8,1.4,5.1,3.3,6.9c1.9,1.7,4.2,2.6,6.8,2.6c1.8,0,3.5-0.4,4.9-1.3c1.4-0.9,2.6-2.1,3.3-3.6h4.9c-1.1,2.9-2.7,5.2-5,6.8
			c-2.3,1.6-5,2.4-8.1,2.4C1405.1,324.4,1402.7,323.7,1400.4,322.4z M1417.3,306.4c-0.2-2.8-1.1-5-2.9-6.8c-1.8-1.8-4-2.7-6.6-2.7
			c-2.7,0-5,0.9-6.8,2.7c-1.8,1.8-2.9,4-3.2,6.8H1417.3z"/>
		<path class="st1" d="M1428.6,336v-42.7h4l0.6,4.3h0.3c1.3-1.6,2.7-2.8,4.3-3.6c1.6-0.8,3.4-1.3,5.5-1.3c2.6,0,5,0.7,7.2,2
			c2.1,1.3,3.8,3.2,5,5.6c1.2,2.4,1.8,5.1,1.8,8.2c0,3.1-0.6,5.8-1.8,8.2s-2.9,4.3-5,5.6c-2.1,1.3-4.5,2-7.2,2
			c-2.1,0-3.9-0.4-5.5-1.3s-3-2-4.3-3.6h-0.3V336H1428.6z M1447.8,318.7c1.5-1,2.7-2.3,3.6-4.1c0.9-1.7,1.3-3.8,1.3-6
			c0-2.3-0.4-4.3-1.3-6c-0.9-1.7-2.1-3.1-3.6-4.1s-3.1-1.5-4.8-1.5c-1.7,0-3.4,0.5-4.8,1.5s-2.7,2.3-3.6,4.1c-0.9,1.7-1.3,3.8-1.3,6
			c0,2.3,0.4,4.3,1.3,6c0.9,1.7,2.1,3.1,3.6,4.1s3.1,1.5,4.8,1.5C1444.7,320.1,1446.3,319.7,1447.8,318.7z"/>
		<path class="st1" d="M1489.6,323.8h-4.6v-26.2h-10.4v-4.3h25.3v4.3h-10.4V323.8z"/>
		<path class="st1" d="M1509.3,322.4c-2.2-1.3-4-3.2-5.3-5.6c-1.3-2.4-1.9-5.1-1.9-8.2c0-3.1,0.6-5.8,1.9-8.2c1.3-2.4,3-4.3,5.3-5.6
			c2.2-1.3,4.7-2,7.4-2c2.6,0,5,0.6,7.1,1.9c2.2,1.3,3.8,3,5.1,5.2c1.2,2.2,1.8,4.7,1.8,7.5c0,1.6-0.1,2.7-0.3,3.4h-23.8
			c0.3,2.8,1.4,5.1,3.3,6.9c1.9,1.7,4.2,2.6,6.8,2.6c1.8,0,3.5-0.4,4.9-1.3c1.4-0.9,2.6-2.1,3.3-3.6h4.9c-1.1,2.9-2.7,5.2-5,6.8
			c-2.3,1.6-5,2.4-8.1,2.4C1514,324.4,1511.5,323.7,1509.3,322.4z M1526.2,306.4c-0.2-2.8-1.1-5-2.9-6.8c-1.8-1.8-4-2.7-6.6-2.7
			c-2.7,0-5,0.9-6.8,2.7c-1.8,1.8-2.9,4-3.2,6.8H1526.2z"/>
		<path class="st1" d="M1533.2,324.1v-4.6h1.8c1.1,0,2.1-0.3,2.7-1s1.1-1.8,1.2-3.2l1.8-22h20.4v30.5h-4.6v-26.2h-11.6l-1.5,17.7
			c-0.3,3-1.1,5.2-2.5,6.7c-1.4,1.4-3.4,2.2-6,2.2H1533.2z"/>
		<path class="st1" d="M1575.2,322.4c-2.2-1.3-4-3.2-5.3-5.6s-1.9-5.1-1.9-8.2c0-3.1,0.6-5.8,1.9-8.2c1.3-2.4,3-4.3,5.3-5.6
			c2.2-1.3,4.7-2,7.4-2c2.6,0,5,0.6,7.1,1.9c2.2,1.3,3.8,3,5.1,5.2c1.2,2.2,1.8,4.7,1.8,7.5c0,1.6-0.1,2.7-0.3,3.4h-23.8
			c0.3,2.8,1.4,5.1,3.3,6.9c1.9,1.7,4.2,2.6,6.8,2.6c1.8,0,3.5-0.4,4.9-1.3c1.4-0.9,2.6-2.1,3.3-3.6h4.9c-1.1,2.9-2.7,5.2-5,6.8
			c-2.3,1.6-5,2.4-8.1,2.4C1579.9,324.4,1577.4,323.7,1575.2,322.4z M1592.1,306.4c-0.2-2.8-1.1-5-2.9-6.8c-1.8-1.8-4-2.7-6.6-2.7
			c-2.7,0-5,0.9-6.8,2.7c-1.8,1.8-2.9,4-3.2,6.8H1592.1z"/>
		<path class="st1" d="M1623.2,293.3c3.1,0,5.9,0.6,8.2,1.9c2.3,1.3,4.1,3,5.4,5.4c1.3,2.3,1.9,5,1.9,8c0,3-0.6,5.7-1.9,8
			c-1.3,2.3-3.1,4.1-5.4,5.4c-2.3,1.3-5.1,1.9-8.2,1.9h-0.9V336h-4.6v-12.2h-0.9c-3.1,0-5.9-0.6-8.2-1.9c-2.3-1.3-4.1-3.1-5.4-5.4
			c-1.3-2.3-1.9-5-1.9-8c0-3,0.6-5.7,1.9-8c1.3-2.3,3.1-4.1,5.4-5.4c2.3-1.3,5.1-1.9,8.2-1.9h0.9v-12.2h4.6v12.2H1623.2z
			 M1608.7,316.6c1.9,2,4.6,3,8.1,3h0.9v-22h-0.9c-3.5,0-6.2,1-8.1,3c-1.9,2-2.9,4.6-2.9,8C1605.8,311.9,1606.8,314.6,1608.7,316.6z
			 M1623.2,319.5c3.5,0,6.2-1,8.1-3c1.9-2,2.9-4.6,2.9-8c0-3.4-1-6-2.9-8c-1.9-2-4.6-3-8.1-3h-0.9v22H1623.2z"/>
		<path class="st1" d="M1650.5,322.4c-2.2-1.3-4-3.2-5.3-5.6s-1.9-5.1-1.9-8.2c0-3.1,0.6-5.8,1.9-8.2c1.3-2.4,3-4.3,5.3-5.6
			c2.2-1.3,4.7-2,7.4-2c2.7,0,5.2,0.7,7.4,2c2.2,1.3,4,3.2,5.3,5.6c1.3,2.4,1.9,5.1,1.9,8.2c0,3.1-0.6,5.8-1.9,8.2
			c-1.3,2.4-3,4.3-5.3,5.6c-2.2,1.3-4.7,2-7.4,2C1655.2,324.4,1652.8,323.7,1650.5,322.4z M1663,318.7c1.5-1,2.8-2.3,3.7-4.1
			c0.9-1.8,1.3-3.8,1.3-6.1c0-2.3-0.4-4.3-1.3-6.1c-0.9-1.8-2.1-3.1-3.7-4.1c-1.5-1-3.2-1.4-5.1-1.4s-3.5,0.5-5.1,1.4
			c-1.5,1-2.8,2.3-3.7,4.1c-0.9,1.8-1.3,3.8-1.3,6.1c0,2.3,0.4,4.3,1.3,6.1c0.9,1.8,2.1,3.1,3.7,4.1c1.5,1,3.2,1.4,5.1,1.4
			S1661.5,319.7,1663,318.7z"/>
		<path class="st1" d="M1683.9,323.8h-4.6v-30.5h4.6v13.1h16.2v-13.1h4.6v30.5h-4.6v-13.1h-16.2V323.8z"/>
		<path class="st1" d="M1714.9,321.8c-2-1.8-3-4-3-6.8c0-3,1-5.4,3-7.2c2-1.7,5.1-2.6,9.2-2.6h8.2v-0.9c0-2.3-0.7-4.1-2-5.4
			c-1.3-1.3-3.1-2-5.4-2c-2.2,0-4,0.5-5.3,1.5c-1.4,1-2.1,2.2-2.3,3.7h-4.6c0.1-1.7,0.7-3.2,1.6-4.7c1-1.4,2.4-2.6,4.2-3.5
			c1.8-0.9,3.9-1.3,6.4-1.3c3.7,0,6.6,1,8.7,3.1c2.1,2.1,3.2,4.9,3.2,8.5v19.5h-4l-0.6-3.7h-0.3c-0.7,1.1-1.9,2.1-3.6,3
			s-3.7,1.3-5.9,1.3C1719.4,324.4,1716.9,323.5,1714.9,321.8z M1729.8,317.6c1.7-1.7,2.6-4,2.6-6.9v-1.2h-8.2
			c-2.6,0-4.5,0.5-5.8,1.5c-1.2,1-1.9,2.3-1.9,4c0,1.5,0.5,2.8,1.6,3.8c1.1,1,2.6,1.4,4.5,1.4
			C1725.7,320.1,1728.1,319.3,1729.8,317.6z"/>
		<path class="st1" d="M1285.6,383.7c-2.6-1.2-4.8-2.8-6.6-5c-1.8-2.2-3.1-4.7-3.8-7.6h5.2c1.1,3,2.8,5.4,5.2,7.2
			c2.4,1.7,5.3,2.6,8.5,2.6c2.6,0,5.1-0.6,7.4-1.9c2.3-1.3,4.1-3.1,5.5-5.4c1.4-2.3,2.2-5,2.4-7.9h-20.7V361h20.7
			c-0.2-2.9-1-5.5-2.4-7.7c-1.4-2.3-3.2-4-5.5-5.3c-2.3-1.3-4.7-1.9-7.4-1.9c-3.2,0-6,0.8-8.4,2.5c-2.5,1.7-4.2,4-5.3,6.9h-5.2
			c0.8-2.8,2.1-5.3,4-7.4c1.8-2.1,4.1-3.8,6.6-4.9s5.3-1.7,8.3-1.7c3.7,0,7.2,0.9,10.3,2.8c3.1,1.9,5.6,4.4,7.4,7.8
			c1.8,3.3,2.7,7.1,2.7,11.4c0,4.3-0.9,8.1-2.7,11.4c-1.8,3.3-4.3,5.9-7.4,7.8c-3.1,1.9-6.6,2.8-10.3,2.8
			C1291,385.4,1288.2,384.8,1285.6,383.7z"/>
		<path class="st1" d="M1316.9,385.1v-4.6h1.8c1.1,0,2.1-0.3,2.7-1s1.1-1.8,1.2-3.2l1.8-22h20.4v30.5h-4.6v-26.2h-11.6l-1.5,17.7
			c-0.3,3-1.1,5.2-2.5,6.7c-1.4,1.4-3.4,2.2-6,2.2H1316.9z"/>
		<path class="st1" d="M1358.9,383.4c-2.2-1.3-4-3.2-5.3-5.6c-1.3-2.4-1.9-5.1-1.9-8.2c0-3.1,0.6-5.8,1.9-8.2c1.3-2.4,3-4.3,5.3-5.6
			c2.2-1.3,4.7-2,7.4-2c2.6,0,5,0.6,7.1,1.9c2.2,1.3,3.8,3,5.1,5.2c1.2,2.2,1.8,4.7,1.8,7.5c0,1.6-0.1,2.7-0.3,3.4h-23.8
			c0.3,2.8,1.4,5.1,3.3,6.9c1.9,1.7,4.2,2.6,6.8,2.6c1.8,0,3.5-0.4,4.9-1.3c1.4-0.9,2.6-2.1,3.3-3.6h4.9c-1.1,2.9-2.7,5.2-5,6.8
			c-2.3,1.6-5,2.4-8.1,2.4C1363.6,385.4,1361.1,384.7,1358.9,383.4z M1375.8,367.4c-0.2-2.8-1.1-5-2.9-6.8c-1.8-1.8-4-2.7-6.6-2.7
			c-2.7,0-5,0.9-6.8,2.7s-2.9,4-3.2,6.8H1375.8z"/>
		<path class="st1" d="M1391.6,384.8h-4.6v-30.5h4.6v14l13.7-14h5.9l-14.6,14.9l15.3,15.6h-5.9l-14.3-14.6V384.8z"/>
		<path class="st1" d="M1427.6,384.8h-4.6v-26.2h-10.4v-4.3h25.3v4.3h-10.4V384.8z"/>
		<path class="st1" d="M1443.2,397v-42.7h4l0.6,4.3h0.3c1.3-1.6,2.7-2.8,4.3-3.6c1.6-0.8,3.4-1.3,5.5-1.3c2.6,0,5,0.7,7.2,2
			c2.1,1.3,3.8,3.2,5,5.6c1.2,2.4,1.8,5.1,1.8,8.2c0,3.1-0.6,5.8-1.8,8.2c-1.2,2.4-2.9,4.3-5,5.6c-2.1,1.3-4.5,2-7.2,2
			c-2.1,0-3.9-0.4-5.5-1.3s-3-2-4.3-3.6h-0.3V397H1443.2z M1462.4,379.7c1.5-1,2.7-2.3,3.6-4.1c0.9-1.7,1.3-3.8,1.3-6
			c0-2.3-0.4-4.3-1.3-6c-0.9-1.7-2.1-3.1-3.6-4.1s-3.1-1.5-4.8-1.5s-3.4,0.5-4.8,1.5s-2.7,2.3-3.6,4.1c-0.9,1.7-1.3,3.8-1.3,6
			c0,2.3,0.4,4.3,1.3,6c0.9,1.7,2.1,3.1,3.6,4.1s3.1,1.5,4.8,1.5S1460.9,380.7,1462.4,379.7z"/>
		<path class="st1" d="M1483.9,383.4c-2.2-1.3-4-3.2-5.3-5.6c-1.3-2.4-1.9-5.1-1.9-8.2c0-3.1,0.6-5.8,1.9-8.2c1.3-2.4,3-4.3,5.3-5.6
			c2.2-1.3,4.7-2,7.4-2c2.7,0,5.2,0.7,7.4,2c2.2,1.3,4,3.2,5.3,5.6c1.3,2.4,1.9,5.1,1.9,8.2c0,3.1-0.6,5.8-1.9,8.2
			c-1.3,2.4-3,4.3-5.3,5.6c-2.2,1.3-4.7,2-7.4,2C1488.7,385.4,1486.2,384.7,1483.9,383.4z M1496.4,379.7c1.5-1,2.8-2.3,3.7-4.1
			c0.9-1.8,1.3-3.8,1.3-6.1c0-2.3-0.4-4.3-1.3-6.1c-0.9-1.8-2.1-3.1-3.7-4.1c-1.5-1-3.2-1.4-5.1-1.4s-3.5,0.5-5.1,1.4
			c-1.5,1-2.8,2.3-3.7,4.1c-0.9,1.8-1.3,3.8-1.3,6.1c0,2.3,0.4,4.3,1.3,6.1c0.9,1.8,2.1,3.1,3.7,4.1c1.5,1,3.2,1.4,5.1,1.4
			S1494.9,380.7,1496.4,379.7z"/>
		<path class="st1" d="M1517.3,384.8h-4.6v-30.5h4.6v13.1h16.2v-13.1h4.6v30.5h-4.6v-13.1h-16.2V384.8z"/>
		<path class="st1" d="M1551.2,384.8h-4.6v-30.5h4.6v13.1h16.2v-13.1h4.6v30.5h-4.6v-13.1h-16.2V384.8z"/>
		<path class="st1" d="M1580.4,384.8v-30.5h4.6v10.4h8.2c2,0,3.8,0.4,5.4,1.3c1.6,0.9,2.8,2.1,3.7,3.6c0.9,1.5,1.3,3.2,1.3,5.2
			c0,1.9-0.4,3.6-1.3,5.2c-0.9,1.5-2.1,2.7-3.7,3.6c-1.6,0.9-3.4,1.3-5.4,1.3H1580.4z M1593.2,380.5c1.7,0,3-0.5,4.1-1.6
			c1.1-1.1,1.6-2.5,1.6-4.1c0-1.7-0.5-3-1.6-4.1c-1.1-1.1-2.5-1.6-4.1-1.6h-8.2v11.6H1593.2z M1612.8,384.8h-4.6v-30.5h4.6V384.8z"
			/>
		<path class="st1" d="M1629.2,384.8h-7.9v-30.5h4.6v25h1.2l11.6-25h7.9v30.5h-4.6v-25h-1.2L1629.2,384.8z M1628.2,347
			c-1.6-1.4-2.5-3.2-2.7-5.5h4c0.2,1.3,0.7,2.4,1.5,3.1c0.8,0.8,1.9,1.1,3.1,1.1c1.3,0,2.3-0.4,3.1-1.1c0.8-0.8,1.3-1.8,1.5-3.1h4
			c-0.2,2.3-1,4.1-2.7,5.5c-1.6,1.4-3.6,2.1-5.9,2.1S1629.8,348.4,1628.2,347z"/>
		<path class="st1" d="M1670.9,382.8c-2-1.8-3-4-3-6.8c0-3,1-5.4,3-7.2c2-1.7,5.1-2.6,9.2-2.6h8.2v-0.9c0-2.3-0.7-4.1-2-5.4
			c-1.3-1.3-3.1-2-5.4-2c-2.2,0-4,0.5-5.3,1.5c-1.4,1-2.1,2.2-2.3,3.7h-4.6c0.1-1.7,0.7-3.2,1.6-4.7c1-1.4,2.4-2.6,4.2-3.5
			c1.8-0.9,3.9-1.3,6.4-1.3c3.7,0,6.6,1,8.7,3.1s3.2,4.9,3.2,8.5v19.5h-4l-0.6-3.7h-0.3c-0.7,1.1-1.9,2.1-3.6,3s-3.7,1.3-5.9,1.3
			C1675.5,385.4,1672.9,384.5,1670.9,382.8z M1685.8,378.6c1.7-1.7,2.6-4,2.6-6.9v-1.2h-8.2c-2.6,0-4.5,0.5-5.8,1.5
			c-1.2,1-1.9,2.3-1.9,4c0,1.5,0.5,2.8,1.6,3.8c1.1,1,2.6,1.4,4.5,1.4C1681.7,381.1,1684.1,380.3,1685.8,378.6z"/>
		<path class="st1" d="M1697.3,392.1v-11.6h0.6c1.4,0,2.4-0.3,3.1-1s1.1-1.8,1.2-3.3l1.8-22h20.4v26.2h4.3v11.6h-4.6v-7.3h-22.3v7.3
			H1697.3z M1719.8,380.5v-22h-11.6l-1.5,17.7c-0.1,1.1-0.3,2-0.6,2.8c-0.3,0.8-0.6,1.3-0.9,1.5H1719.8z"/>
		<path class="st1" d="M1734.2,397v-42.7h4l0.6,4.3h0.3c1.3-1.6,2.7-2.8,4.3-3.6c1.6-0.8,3.4-1.3,5.5-1.3c2.6,0,5,0.7,7.2,2
			c2.1,1.3,3.8,3.2,5,5.6c1.2,2.4,1.8,5.1,1.8,8.2c0,3.1-0.6,5.8-1.8,8.2c-1.2,2.4-2.9,4.3-5,5.6c-2.1,1.3-4.5,2-7.2,2
			c-2.1,0-3.9-0.4-5.5-1.3s-3-2-4.3-3.6h-0.3V397H1734.2z M1753.3,379.7c1.5-1,2.7-2.3,3.6-4.1c0.9-1.7,1.3-3.8,1.3-6
			c0-2.3-0.4-4.3-1.3-6c-0.9-1.7-2.1-3.1-3.6-4.1s-3.1-1.5-4.8-1.5c-1.7,0-3.4,0.5-4.8,1.5c-1.5,1-2.7,2.3-3.6,4.1
			c-0.9,1.7-1.3,3.8-1.3,6c0,2.3,0.4,4.3,1.3,6c0.9,1.7,2.1,3.1,3.6,4.1c1.5,1,3.1,1.5,4.8,1.5
			C1750.2,381.1,1751.9,380.7,1753.3,379.7z"/>
		<path class="st1" d="M1774.9,383.4c-2.2-1.3-4-3.2-5.3-5.6s-1.9-5.1-1.9-8.2c0-3.1,0.6-5.8,1.9-8.2c1.3-2.4,3-4.3,5.3-5.6
			c2.2-1.3,4.7-2,7.4-2c2.6,0,5,0.6,7.1,1.9c2.2,1.3,3.8,3,5.1,5.2c1.2,2.2,1.8,4.7,1.8,7.5c0,1.6-0.1,2.7-0.3,3.4h-23.8
			c0.3,2.8,1.4,5.1,3.3,6.9c1.9,1.7,4.2,2.6,6.8,2.6c1.8,0,3.5-0.4,4.9-1.3c1.4-0.9,2.6-2.1,3.3-3.6h4.9c-1.1,2.9-2.7,5.2-5,6.8
			c-2.3,1.6-5,2.4-8.1,2.4C1779.6,385.4,1777.1,384.7,1774.9,383.4z M1791.8,367.4c-0.2-2.8-1.1-5-2.9-6.8c-1.8-1.8-4-2.7-6.6-2.7
			c-2.7,0-5,0.9-6.8,2.7s-2.9,4-3.2,6.8H1791.8z"/>
		<path class="st1" d="M1808.5,383.4c-2.2-1.3-4-3.2-5.3-5.6s-1.9-5.1-1.9-8.2c0-3.1,0.6-5.8,1.9-8.2c1.3-2.4,3-4.3,5.3-5.6
			c2.2-1.3,4.7-2,7.4-2c3.4,0,6.3,0.9,8.7,2.8c2.4,1.9,4,4.4,4.8,7.6h-4.6c-0.6-2-1.7-3.5-3.3-4.5c-1.6-1.1-3.4-1.6-5.6-1.6
			c-1.8,0-3.5,0.5-5.1,1.4c-1.5,1-2.8,2.3-3.7,4.1c-0.9,1.8-1.3,3.8-1.3,6.1c0,2.3,0.4,4.3,1.3,6.1c0.9,1.8,2.1,3.1,3.7,4.1
			c1.5,1,3.2,1.4,5.1,1.4c2.2,0,4.1-0.5,5.6-1.6c1.5-1.1,2.6-2.7,3.2-4.8h4.6c-0.8,3.3-2.4,5.9-4.8,7.8c-2.4,1.9-5.3,2.8-8.7,2.8
			C1813.2,385.4,1810.7,384.7,1808.5,383.4z"/>
	</g>
</g>
<g>
	<g>
		<path class="st1" d="M1285.2,1160.1c-3.1-1.8-5.6-4.4-7.4-7.8c-1.8-3.3-2.7-7.1-2.7-11.4c0-4.3,0.9-8.1,2.7-11.4
			c1.8-3.3,4.3-5.9,7.4-7.8c3.1-1.8,6.6-2.8,10.3-2.8c4.6,0,8.6,1.3,12,3.8s5.7,6.1,6.9,10.5h-5.2c-1.1-3.1-2.8-5.4-5.2-7.2
			s-5.3-2.6-8.5-2.6c-2.8,0-5.5,0.7-7.8,2.2s-4.3,3.5-5.6,6.2s-2.1,5.7-2.1,9s0.7,6.4,2.1,9c1.4,2.6,3.3,4.7,5.6,6.2s5,2.2,7.8,2.2
			c3.2,0,6-0.9,8.5-2.7c2.4-1.8,4.2-4.2,5.2-7.4h5.2c-1.2,4.6-3.5,8.1-6.9,10.7s-7.4,3.9-12,3.9
			C1291.7,1162.9,1288.3,1162,1285.2,1160.1z"/>
		<path class="st1" d="M1322.5,1160.2c-2-1.8-3-4-3-6.8c0-3,1-5.4,3-7.2c2-1.7,5.1-2.6,9.2-2.6h8.2v-0.9c0-2.3-0.7-4.1-2-5.4
			c-1.3-1.3-3.1-2-5.4-2c-2.2,0-4,0.5-5.3,1.5c-1.4,1-2.1,2.2-2.3,3.7h-4.6c0.1-1.7,0.7-3.2,1.6-4.7c1-1.4,2.4-2.6,4.2-3.5
			c1.8-0.9,3.9-1.3,6.4-1.3c3.7,0,6.6,1,8.7,3.1c2.1,2.1,3.2,4.9,3.2,8.5v19.5h-4l-0.6-3.7h-0.3c-0.7,1.1-1.9,2.1-3.6,3
			c-1.7,0.9-3.7,1.3-5.9,1.3C1327.1,1162.9,1324.5,1162,1322.5,1160.2z M1337.4,1156.1c1.7-1.7,2.6-4,2.6-6.9v-1.2h-8.2
			c-2.6,0-4.5,0.5-5.8,1.5c-1.2,1-1.9,2.3-1.9,4c0,1.5,0.5,2.8,1.6,3.8c1.1,1,2.6,1.4,4.5,1.4
			C1333.3,1158.6,1335.7,1157.8,1337.4,1156.1z"/>
		<path class="st1" d="M1357.7,1162.3h-4.6v-30.5h4.6v13.1h16.2v-13.1h4.6v30.5h-4.6v-13.1h-16.2V1162.3z"/>
		<path class="st1" d="M1391.6,1162.3h-4.6v-30.5h4.6v14l13.7-14h5.9l-14.6,14.9l15.3,15.6h-5.9l-14.3-14.6V1162.3z"/>
		<path class="st1" d="M1427.5,1162.3h-4.6v-26.2h-10.4v-4.3h25.3v4.3h-10.4V1162.3z"/>
		<path class="st1" d="M1459.9,1147h-19.5v-4.3h19.5V1147z"/>
		<path class="st1" d="M1472.4,1162.3h-4.9v-42.7h33.5v42.7h-4.9v-38.1h-23.8V1162.3z"/>
		<path class="st1" d="M1515.6,1160.9c-2.2-1.3-4-3.2-5.3-5.6c-1.3-2.4-1.9-5.1-1.9-8.2c0-3.1,0.6-5.8,1.9-8.2
			c1.3-2.4,3-4.3,5.3-5.6c2.2-1.3,4.7-2,7.4-2c2.6,0,5,0.6,7.1,1.9c2.2,1.3,3.8,3,5.1,5.2c1.2,2.2,1.8,4.7,1.8,7.5
			c0,1.6-0.1,2.7-0.3,3.4h-23.8c0.3,2.8,1.4,5.1,3.3,6.9c1.9,1.7,4.2,2.6,6.8,2.6c1.8,0,3.5-0.4,4.9-1.3c1.4-0.9,2.6-2.1,3.3-3.6
			h4.9c-1.1,2.9-2.7,5.2-5,6.8c-2.3,1.6-5,2.4-8.1,2.4C1520.3,1162.9,1517.8,1162.2,1515.6,1160.9z M1532.5,1144.9
			c-0.2-2.8-1.1-5-2.9-6.8s-4-2.7-6.6-2.7c-2.7,0-5,0.9-6.8,2.7s-2.9,4-3.2,6.8H1532.5z"/>
		<path class="st1" d="M1554.1,1162.3h-4.6v-26.2h-10.4v-4.3h25.3v4.3h-10.4V1162.3z"/>
		<path class="st1" d="M1573.8,1160.9c-2.2-1.3-4-3.2-5.3-5.6c-1.3-2.4-1.9-5.1-1.9-8.2c0-3.1,0.6-5.8,1.9-8.2s3-4.3,5.3-5.6
			c2.2-1.3,4.7-2,7.4-2c2.6,0,5,0.6,7.1,1.9c2.2,1.3,3.8,3,5.1,5.2c1.2,2.2,1.8,4.7,1.8,7.5c0,1.6-0.1,2.7-0.3,3.4h-23.8
			c0.3,2.8,1.4,5.1,3.3,6.9s4.2,2.6,6.8,2.6c1.8,0,3.5-0.4,4.9-1.3c1.4-0.9,2.6-2.1,3.3-3.6h4.9c-1.1,2.9-2.7,5.2-5,6.8
			s-5,2.4-8.1,2.4C1578.5,1162.9,1576.1,1162.2,1573.8,1160.9z M1590.7,1144.9c-0.2-2.8-1.1-5-2.9-6.8s-4-2.7-6.6-2.7
			c-2.7,0-5,0.9-6.8,2.7s-2.9,4-3.2,6.8H1590.7z"/>
		<path class="st1" d="M1602,1174.5v-42.7h4l0.6,4.3h0.3c1.3-1.6,2.7-2.8,4.3-3.6c1.6-0.8,3.4-1.3,5.5-1.3c2.6,0,5,0.7,7.2,2
			c2.1,1.3,3.8,3.2,5,5.6s1.8,5.1,1.8,8.2c0,3.1-0.6,5.8-1.8,8.2c-1.2,2.4-2.9,4.3-5,5.6c-2.1,1.3-4.5,2-7.2,2
			c-2.1,0-3.9-0.4-5.5-1.3s-3-2-4.3-3.6h-0.3v16.5H1602z M1621.2,1157.2c1.5-1,2.7-2.3,3.6-4.1c0.9-1.7,1.3-3.8,1.3-6
			s-0.4-4.3-1.3-6c-0.9-1.7-2.1-3.1-3.6-4.1s-3.1-1.5-4.8-1.5c-1.7,0-3.4,0.5-4.8,1.5s-2.7,2.3-3.6,4.1c-0.9,1.7-1.3,3.8-1.3,6
			s0.4,4.3,1.3,6c0.9,1.7,2.1,3.1,3.6,4.1s3.1,1.5,4.8,1.5C1618.1,1158.6,1619.7,1158.1,1621.2,1157.2z"/>
		<path class="st1" d="M1642.8,1160.9c-2.2-1.3-3.9-3.2-5.1-5.6c-1.2-2.4-1.9-5.2-1.9-8.4v-1.8c0-5.3,0.7-9.5,2-12.7
			c1.3-3.2,3.5-5.7,6.6-7.4c1.4-0.8,2.8-1.3,4.4-1.7c1.5-0.4,3.5-0.7,5.9-0.9c1.4-0.2,2.4-0.6,3.1-1.3c0.6-0.7,1-1.7,1-3.1h4
			c0,2.6-0.7,4.5-1.9,5.9c-1.2,1.4-3.2,2.2-5.8,2.5c-1.8,0.2-3.4,0.4-4.8,0.8c-1.4,0.3-2.6,0.8-3.7,1.5c-3.5,2.1-5.6,5.5-6.1,10.1
			h0.3c2.4-3.3,5.8-4.9,10.1-4.9c2.5,0,4.8,0.6,6.9,1.9s3.8,3,5,5.2c1.2,2.2,1.8,4.6,1.8,7.3c0,2.8-0.6,5.3-1.9,7.5
			c-1.2,2.2-2.9,4-5.1,5.2c-2.2,1.3-4.6,1.9-7.4,1.9C1647.5,1162.9,1645,1162.2,1642.8,1160.9z M1655.2,1157.3
			c1.5-0.9,2.7-2.1,3.5-3.7c0.9-1.6,1.3-3.4,1.3-5.4s-0.4-3.8-1.3-5.4c-0.9-1.6-2-2.8-3.5-3.7c-1.5-0.9-3.1-1.3-5-1.3
			s-3.5,0.4-5,1.3s-2.7,2.1-3.5,3.7c-0.9,1.6-1.3,3.4-1.3,5.4s0.4,3.8,1.3,5.4c0.9,1.6,2,2.8,3.5,3.7c1.5,0.9,3.1,1.3,5,1.3
			S1653.7,1158.2,1655.2,1157.3z"/>
		<path class="st1" d="M1691.1,1131.8h4.9l-13.7,38.4c-0.5,1.5-1.2,2.5-2.1,3.2c-0.9,0.7-2.1,1-3.7,1h-6.1v-4.3h5.8
			c1,0,1.7-0.6,2.1-1.8l1.2-3.7l-12.5-32.9h4.9l9.5,25.3h1.2L1691.1,1131.8z"/>
		<path class="st1" d="M1700.8,1174.5v-42.7h4l0.6,4.3h0.3c1.3-1.6,2.7-2.8,4.3-3.6c1.6-0.8,3.4-1.3,5.5-1.3c2.6,0,5,0.7,7.2,2
			c2.1,1.3,3.8,3.2,5,5.6c1.2,2.4,1.8,5.1,1.8,8.2c0,3.1-0.6,5.8-1.8,8.2c-1.2,2.4-2.9,4.3-5,5.6c-2.1,1.3-4.5,2-7.2,2
			c-2.1,0-3.9-0.4-5.5-1.3s-3-2-4.3-3.6h-0.3v16.5H1700.8z M1720,1157.2c1.5-1,2.7-2.3,3.6-4.1c0.9-1.7,1.3-3.8,1.3-6
			s-0.4-4.3-1.3-6c-0.9-1.7-2.1-3.1-3.6-4.1s-3.1-1.5-4.8-1.5s-3.4,0.5-4.8,1.5s-2.7,2.3-3.6,4.1c-0.9,1.7-1.3,3.8-1.3,6
			s0.4,4.3,1.3,6c0.9,1.7,2.1,3.1,3.6,4.1s3.1,1.5,4.8,1.5S1718.5,1158.1,1720,1157.2z"/>
		<path class="st1" d="M1740.8,1162.3h-4.6v-30.5h19.5v4.3h-14.9V1162.3z"/>
		<path class="st1" d="M1760,1167.2h-4l1.2-10.4h5.5L1760,1167.2z"/>
		<path class="st1" d="M1279.8,1223.3h-4.6v-30.5h25.3v30.5h-4.6v-26.2h-16.2V1223.3z"/>
		<path class="st1" d="M1309.1,1235.5v-42.7h4l0.6,4.3h0.3c1.3-1.6,2.7-2.8,4.3-3.6c1.6-0.8,3.4-1.3,5.5-1.3c2.6,0,5,0.7,7.2,2
			c2.1,1.3,3.8,3.2,5,5.6c1.2,2.4,1.8,5.1,1.8,8.2c0,3.1-0.6,5.8-1.8,8.2c-1.2,2.4-2.9,4.3-5,5.6c-2.1,1.3-4.5,2-7.2,2
			c-2.1,0-3.9-0.4-5.5-1.3s-3-2-4.3-3.6h-0.3v16.5H1309.1z M1328.3,1218.2c1.5-1,2.7-2.3,3.6-4.1c0.9-1.7,1.3-3.8,1.3-6
			s-0.4-4.3-1.3-6c-0.9-1.7-2.1-3.1-3.6-4.1s-3.1-1.5-4.8-1.5s-3.4,0.5-4.8,1.5s-2.7,2.3-3.6,4.1c-0.9,1.7-1.3,3.8-1.3,6
			s0.4,4.3,1.3,6c0.9,1.7,2.1,3.1,3.6,4.1s3.1,1.5,4.8,1.5S1326.8,1219.1,1328.3,1218.2z"/>
		<path class="st1" d="M1349.9,1221.9c-2.2-1.3-4-3.2-5.3-5.6c-1.3-2.4-1.9-5.1-1.9-8.2c0-3.1,0.6-5.8,1.9-8.2s3-4.3,5.3-5.6
			c2.2-1.3,4.7-2,7.4-2c2.7,0,5.2,0.7,7.4,2c2.2,1.3,4,3.2,5.3,5.6c1.3,2.4,1.9,5.1,1.9,8.2c0,3.1-0.6,5.8-1.9,8.2
			c-1.3,2.4-3,4.3-5.3,5.6c-2.2,1.3-4.7,2-7.4,2C1354.6,1223.9,1352.1,1223.2,1349.9,1221.9z M1362.4,1218.2c1.5-1,2.8-2.3,3.7-4.1
			s1.3-3.8,1.3-6.1s-0.4-4.3-1.3-6.1s-2.1-3.1-3.7-4.1c-1.5-1-3.2-1.4-5.1-1.4s-3.5,0.5-5.1,1.4c-1.5,1-2.8,2.3-3.7,4.1
			c-0.9,1.8-1.3,3.8-1.3,6.1s0.4,4.3,1.3,6.1c0.9,1.8,2.1,3.1,3.7,4.1c1.5,1,3.2,1.4,5.1,1.4S1360.8,1219.1,1362.4,1218.2z"/>
		<path class="st1" d="M1384,1221.9c-2.2-1.3-4-3.2-5.3-5.6c-1.3-2.4-1.9-5.1-1.9-8.2c0-3.1,0.6-5.8,1.9-8.2c1.3-2.4,3-4.3,5.3-5.6
			c2.2-1.3,4.7-2,7.4-2c3.4,0,6.3,0.9,8.7,2.8c2.4,1.9,4,4.4,4.8,7.6h-4.6c-0.6-2-1.7-3.5-3.3-4.5c-1.6-1.1-3.4-1.6-5.6-1.6
			c-1.8,0-3.5,0.5-5.1,1.4s-2.8,2.3-3.7,4.1s-1.3,3.8-1.3,6.1s0.4,4.3,1.3,6.1s2.1,3.1,3.7,4.1c1.5,1,3.2,1.4,5.1,1.4
			c2.2,0,4.1-0.5,5.6-1.6c1.5-1.1,2.6-2.7,3.2-4.8h4.6c-0.8,3.3-2.4,5.9-4.8,7.8c-2.4,1.9-5.3,2.8-8.7,2.8
			C1388.7,1223.9,1386.3,1223.2,1384,1221.9z"/>
		<path class="st1" d="M1415.9,1223.3h-4.6v-30.5h25.3v30.5h-4.6v-26.2h-16.2V1223.3z"/>
		<path class="st1" d="M1450.5,1221.9c-2.2-1.3-4-3.2-5.3-5.6c-1.3-2.4-1.9-5.1-1.9-8.2c0-3.1,0.6-5.8,1.9-8.2s3-4.3,5.3-5.6
			c2.2-1.3,4.7-2,7.4-2c2.6,0,5,0.6,7.1,1.9c2.2,1.3,3.8,3,5.1,5.2c1.2,2.2,1.8,4.7,1.8,7.5c0,1.6-0.1,2.7-0.3,3.4h-23.8
			c0.3,2.8,1.4,5.1,3.3,6.9c1.9,1.7,4.2,2.6,6.8,2.6c1.8,0,3.5-0.4,4.9-1.3c1.4-0.9,2.6-2.1,3.3-3.6h4.9c-1.1,2.9-2.7,5.2-5,6.8
			c-2.3,1.6-5,2.4-8.1,2.4C1455.2,1223.9,1452.8,1223.2,1450.5,1221.9z M1467.4,1205.9c-0.2-2.8-1.1-5-2.9-6.8
			c-1.8-1.8-4-2.7-6.6-2.7c-2.7,0-5,0.9-6.8,2.7s-2.9,4-3.2,6.8H1467.4z"/>
		<path class="st1" d="M1483.3,1223.3h-4.6v-30.5h4.6v14l13.7-14h5.9l-14.6,14.9l15.3,15.6h-5.9l-14.3-14.6V1223.3z"/>
		<path class="st1" d="M1519.3,1223.3h-4.6v-26.2h-10.4v-4.3h25.3v4.3h-10.4V1223.3z"/>
		<path class="st1" d="M1544,1223.6v-4.9h2.1c1.3,0,2.3-0.4,3.1-1.2c0.8-0.8,1.3-2,1.5-3.7l2.7-33.2h26.5v42.7h-4.9v-38.1H1558
			l-2.4,28.7c-0.3,3.3-1.2,5.8-2.7,7.4c-1.5,1.6-3.8,2.4-6.7,2.4H1544z"/>
		<path class="st1" d="M1609.5,1192.8h4.9l-13.7,38.4c-0.5,1.5-1.2,2.5-2.1,3.2c-0.9,0.7-2.1,1-3.7,1h-6.1v-4.3h5.8
			c1,0,1.7-0.6,2.1-1.8l1.2-3.7l-12.5-32.9h4.9l9.5,25.3h1.2L1609.5,1192.8z"/>
		<path class="st1" d="M1623.9,1223.3h-4.6v-30.5h4.6v13.1h16.2v-13.1h4.6v30.5h-4.6v-13.1h-16.2V1223.3z"/>
		<path class="st1" d="M1654.9,1221.2c-2-1.8-3-4-3-6.8c0-3,1-5.4,3-7.2c2-1.7,5.1-2.6,9.2-2.6h8.2v-0.9c0-2.3-0.7-4.1-2-5.4
			c-1.3-1.3-3.1-2-5.4-2c-2.2,0-4,0.5-5.3,1.5c-1.4,1-2.1,2.2-2.3,3.7h-4.6c0.1-1.7,0.7-3.2,1.6-4.7c1-1.4,2.4-2.6,4.2-3.5
			c1.8-0.9,3.9-1.3,6.4-1.3c3.7,0,6.6,1,8.7,3.1c2.1,2.1,3.2,4.9,3.2,8.5v19.5h-4l-0.6-3.7h-0.3c-0.7,1.1-1.9,2.1-3.6,3
			c-1.7,0.9-3.7,1.3-5.9,1.3C1659.4,1223.9,1656.9,1223,1654.9,1221.2z M1669.8,1217.1c1.7-1.7,2.6-4,2.6-6.9v-1.2h-8.2
			c-2.6,0-4.5,0.5-5.8,1.5c-1.2,1-1.9,2.3-1.9,4c0,1.5,0.5,2.8,1.6,3.8c1.1,1,2.6,1.4,4.5,1.4
			C1665.7,1219.6,1668.1,1218.8,1669.8,1217.1z"/>
		<path class="st1" d="M1703.5,1211.4c-1.3,0.9-2.7,1.5-4.1,1.9c-1.4,0.4-3,0.5-4.7,0.5c-3.7,0-6.4-1-8.2-2.9
			c-1.8-2-2.7-4.8-2.7-8.7v-9.5h4.6v9.5c0,2.4,0.6,4.3,1.8,5.5c1.2,1.2,2.9,1.8,5.2,1.8c1.6,0,3.1-0.2,4.4-0.7
			c1.3-0.4,2.6-1.1,3.8-2.1v-14h4.6v30.5h-4.6V1211.4z"/>
		<path class="st1" d="M1718.3,1221.2c-2-1.8-3-4-3-6.8c0-3,1-5.4,3-7.2c2-1.7,5.1-2.6,9.2-2.6h8.2v-0.9c0-2.3-0.7-4.1-2-5.4
			c-1.3-1.3-3.1-2-5.4-2c-2.2,0-4,0.5-5.3,1.5c-1.4,1-2.1,2.2-2.3,3.7h-4.6c0.1-1.7,0.7-3.2,1.6-4.7c1-1.4,2.4-2.6,4.2-3.5
			c1.8-0.9,3.9-1.3,6.4-1.3c3.7,0,6.6,1,8.7,3.1c2.1,2.1,3.2,4.9,3.2,8.5v19.5h-4l-0.6-3.7h-0.3c-0.7,1.1-1.9,2.1-3.6,3
			c-1.7,0.9-3.7,1.3-5.9,1.3C1722.9,1223.9,1720.3,1223,1718.3,1221.2z M1733.2,1217.1c1.7-1.7,2.6-4,2.6-6.9v-1.2h-8.2
			c-2.6,0-4.5,0.5-5.8,1.5c-1.2,1-1.9,2.3-1.9,4c0,1.5,0.5,2.8,1.6,3.8c1.1,1,2.6,1.4,4.5,1.4
			C1729.1,1219.6,1731.5,1218.8,1733.2,1217.1z"/>
		<path class="st1" d="M1748.9,1235.5v-42.7h4l0.6,4.3h0.3c1.3-1.6,2.7-2.8,4.3-3.6c1.6-0.8,3.4-1.3,5.5-1.3c2.6,0,5,0.7,7.2,2
			c2.1,1.3,3.8,3.2,5,5.6c1.2,2.4,1.8,5.1,1.8,8.2c0,3.1-0.6,5.8-1.8,8.2c-1.2,2.4-2.9,4.3-5,5.6c-2.1,1.3-4.5,2-7.2,2
			c-2.1,0-3.9-0.4-5.5-1.3s-3-2-4.3-3.6h-0.3v16.5H1748.9z M1768.1,1218.2c1.5-1,2.7-2.3,3.6-4.1c0.9-1.7,1.3-3.8,1.3-6
			s-0.4-4.3-1.3-6c-0.9-1.7-2.1-3.1-3.6-4.1c-1.5-1-3.1-1.5-4.8-1.5c-1.7,0-3.4,0.5-4.8,1.5c-1.5,1-2.7,2.3-3.6,4.1
			c-0.9,1.7-1.3,3.8-1.3,6s0.4,4.3,1.3,6c0.9,1.7,2.1,3.1,3.6,4.1c1.5,1,3.1,1.5,4.8,1.5C1765,1219.6,1766.6,1219.1,1768.1,1218.2z"
			/>
		<path class="st1" d="M1789.7,1221.9c-2.2-1.3-4-3.2-5.3-5.6c-1.3-2.4-1.9-5.1-1.9-8.2c0-3.1,0.6-5.8,1.9-8.2s3-4.3,5.3-5.6
			c2.2-1.3,4.7-2,7.4-2c3.4,0,6.3,0.9,8.7,2.8c2.4,1.9,4,4.4,4.8,7.6h-4.6c-0.6-2-1.7-3.5-3.3-4.5c-1.6-1.1-3.4-1.6-5.6-1.6
			c-1.8,0-3.5,0.5-5.1,1.4c-1.5,1-2.8,2.3-3.7,4.1c-0.9,1.8-1.3,3.8-1.3,6.1s0.4,4.3,1.3,6.1c0.9,1.8,2.1,3.1,3.7,4.1
			c1.5,1,3.2,1.4,5.1,1.4c2.2,0,4.1-0.5,5.6-1.6c1.5-1.1,2.6-2.7,3.2-4.8h4.6c-0.8,3.3-2.4,5.9-4.8,7.8c-2.4,1.9-5.3,2.8-8.7,2.8
			C1794.4,1223.9,1791.9,1223.2,1789.7,1221.9z"/>
		<path class="st1" d="M1821.5,1223.3h-4.6v-30.5h4.6v14l13.7-14h5.9l-14.6,14.9l15.3,15.6h-5.9l-14.3-14.6V1223.3z"/>
		<path class="st1" d="M1850.1,1221.9c-2.2-1.3-4-3.2-5.3-5.6c-1.3-2.4-1.9-5.1-1.9-8.2c0-3.1,0.6-5.8,1.9-8.2s3-4.3,5.3-5.6
			c2.2-1.3,4.7-2,7.4-2s5.2,0.7,7.4,2c2.2,1.3,4,3.2,5.3,5.6s1.9,5.1,1.9,8.2c0,3.1-0.6,5.8-1.9,8.2c-1.3,2.4-3,4.3-5.3,5.6
			c-2.2,1.3-4.7,2-7.4,2S1852.3,1223.2,1850.1,1221.9z M1862.6,1218.2c1.5-1,2.8-2.3,3.7-4.1s1.3-3.8,1.3-6.1s-0.4-4.3-1.3-6.1
			s-2.1-3.1-3.7-4.1s-3.2-1.4-5.1-1.4s-3.5,0.5-5.1,1.4c-1.5,1-2.8,2.3-3.7,4.1c-0.9,1.8-1.3,3.8-1.3,6.1s0.4,4.3,1.3,6.1
			c0.9,1.8,2.1,3.1,3.7,4.1c1.5,1,3.2,1.4,5.1,1.4S1861,1219.1,1862.6,1218.2z"/>
		<path class="st1" d="M1883.4,1223.3h-4.6v-30.5h19.5v4.3h-14.9V1223.3z"/>
		<path class="st1" d="M1908,1221.9c-2.2-1.3-4-3.2-5.3-5.6c-1.3-2.4-1.9-5.1-1.9-8.2c0-3.1,0.6-5.8,1.9-8.2c1.3-2.4,3-4.3,5.3-5.6
			c2.2-1.3,4.7-2,7.4-2c2.7,0,5.2,0.7,7.4,2c2.2,1.3,4,3.2,5.3,5.6c1.3,2.4,1.9,5.1,1.9,8.2c0,3.1-0.6,5.8-1.9,8.2
			c-1.3,2.4-3,4.3-5.3,5.6c-2.2,1.3-4.7,2-7.4,2C1912.7,1223.9,1910.3,1223.2,1908,1221.9z M1920.5,1218.2c1.5-1,2.8-2.3,3.7-4.1
			c0.9-1.8,1.3-3.8,1.3-6.1s-0.4-4.3-1.3-6.1c-0.9-1.8-2.1-3.1-3.7-4.1c-1.5-1-3.2-1.4-5.1-1.4s-3.5,0.5-5.1,1.4s-2.8,2.3-3.7,4.1
			s-1.3,3.8-1.3,6.1s0.4,4.3,1.3,6.1s2.1,3.1,3.7,4.1c1.5,1,3.2,1.4,5.1,1.4S1919,1219.1,1920.5,1218.2z"/>
		<path class="st1" d="M1939.2,1228.2h-4l1.2-10.4h5.5L1939.2,1228.2z"/>
		<path class="st1" d="M1959.4,1230.6V1219h0.6c1.4,0,2.4-0.3,3.1-1s1.1-1.8,1.2-3.3l1.8-22h20.4v26.2h4.3v11.6h-4.6v-7.3H1964v7.3
			H1959.4z M1981.9,1219v-22h-11.6l-1.5,17.7c-0.1,1.1-0.3,2-0.6,2.8c-0.3,0.8-0.6,1.3-0.9,1.5H1981.9z"/>
		<path class="st1" d="M2001.6,1221.9c-2.2-1.3-4-3.2-5.3-5.6c-1.3-2.4-1.9-5.1-1.9-8.2c0-3.1,0.6-5.8,1.9-8.2s3-4.3,5.3-5.6
			c2.2-1.3,4.7-2,7.4-2c2.7,0,5.2,0.7,7.4,2c2.2,1.3,4,3.2,5.3,5.6c1.3,2.4,1.9,5.1,1.9,8.2c0,3.1-0.6,5.8-1.9,8.2
			c-1.3,2.4-3,4.3-5.3,5.6c-2.2,1.3-4.7,2-7.4,2C2006.4,1223.9,2003.9,1223.2,2001.6,1221.9z M2014.2,1218.2c1.5-1,2.8-2.3,3.7-4.1
			s1.3-3.8,1.3-6.1s-0.4-4.3-1.3-6.1s-2.1-3.1-3.7-4.1c-1.5-1-3.2-1.4-5.1-1.4s-3.5,0.5-5.1,1.4c-1.5,1-2.8,2.3-3.7,4.1
			c-0.9,1.8-1.3,3.8-1.3,6.1s0.4,4.3,1.3,6.1c0.9,1.8,2.1,3.1,3.7,4.1c1.5,1,3.2,1.4,5.1,1.4S2012.6,1219.1,2014.2,1218.2z"/>
		<path class="st1" d="M2035,1223.3h-4.6v-30.5h8.5l8.2,25.3h1.2l8.2-25.3h8.5v30.5h-4.6v-25h-1.2l-8.2,25h-6.7l-8.2-25h-1.2V1223.3
			z"/>
		<path class="st1" d="M2086.9,1223.3v-4l17.4-18.6c1.3-1.4,2.2-2.7,2.8-3.8c0.6-1.2,0.9-2.5,0.9-4.1c0-2.4-0.8-4.4-2.3-5.9
			s-3.5-2.3-5.9-2.3c-1.5,0-2.9,0.4-4.1,1.2c-1.3,0.8-2.3,1.9-3,3.2c-0.7,1.4-1.1,3-1.1,4.8h-4.9c0-2.6,0.6-5,1.7-7
			c1.1-2.1,2.7-3.7,4.7-4.9c2-1.2,4.2-1.8,6.8-1.8c2.5,0,4.8,0.5,6.8,1.6c2,1.1,3.5,2.6,4.7,4.5c1.1,1.9,1.7,4.2,1.7,6.7
			c0,2.4-0.4,4.4-1.3,6.1c-0.9,1.7-2.2,3.4-3.9,5.2l-13.7,14.3v0.3h19.8v4.6H2086.9z"/>
		<path class="st1" d="M2126.8,1223.3v-33.5h-9.1v-4.3h7.3c1.2,0,1.8-0.6,1.8-1.8v-3h4.9v42.7H2126.8z"/>
		<path class="st1" d="M2143.3,1228.2h-4l1.2-10.4h5.5L2143.3,1228.2z"/>
		<path class="st1" d="M2172.3,1223.3h-4.6v-30.5h4.6v14l13.7-14h5.9l-14.6,14.9l15.3,15.6h-5.9l-14.3-14.6V1223.3z"/>
		<path class="st1" d="M2200.8,1221.9c-2.2-1.3-4-3.2-5.3-5.6c-1.3-2.4-1.9-5.1-1.9-8.2c0-3.1,0.6-5.8,1.9-8.2s3-4.3,5.3-5.6
			c2.2-1.3,4.7-2,7.4-2c2.7,0,5.2,0.7,7.4,2c2.2,1.3,4,3.2,5.3,5.6c1.3,2.4,1.9,5.1,1.9,8.2c0,3.1-0.6,5.8-1.9,8.2
			c-1.3,2.4-3,4.3-5.3,5.6c-2.2,1.3-4.7,2-7.4,2C2205.5,1223.9,2203,1223.2,2200.8,1221.9z M2213.3,1218.2c1.5-1,2.8-2.3,3.7-4.1
			s1.3-3.8,1.3-6.1s-0.4-4.3-1.3-6.1s-2.1-3.1-3.7-4.1c-1.5-1-3.2-1.4-5.1-1.4s-3.5,0.5-5.1,1.4c-1.5,1-2.8,2.3-3.7,4.1
			c-0.9,1.8-1.3,3.8-1.3,6.1s0.4,4.3,1.3,6.1c0.9,1.8,2.1,3.1,3.7,4.1c1.5,1,3.2,1.4,5.1,1.4S2211.8,1219.1,2213.3,1218.2z"/>
		<path class="st1" d="M2229.6,1235.5v-42.7h4l0.6,4.3h0.3c1.3-1.6,2.7-2.8,4.3-3.6c1.6-0.8,3.4-1.3,5.5-1.3c2.6,0,5,0.7,7.2,2
			c2.1,1.3,3.8,3.2,5,5.6s1.8,5.1,1.8,8.2c0,3.1-0.6,5.8-1.8,8.2c-1.2,2.4-2.9,4.3-5,5.6c-2.1,1.3-4.5,2-7.2,2
			c-2.1,0-3.9-0.4-5.5-1.3s-3-2-4.3-3.6h-0.3v16.5H2229.6z M2248.8,1218.2c1.5-1,2.7-2.3,3.6-4.1c0.9-1.7,1.3-3.8,1.3-6
			s-0.4-4.3-1.3-6c-0.9-1.7-2.1-3.1-3.6-4.1s-3.1-1.5-4.8-1.5c-1.8,0-3.4,0.5-4.8,1.5c-1.5,1-2.7,2.3-3.6,4.1
			c-0.9,1.7-1.3,3.8-1.3,6s0.4,4.3,1.3,6c0.9,1.7,2.1,3.1,3.6,4.1c1.5,1,3.1,1.5,4.8,1.5C2245.7,1219.6,2247.3,1219.1,2248.8,1218.2
			z"/>
		<path class="st1" d="M2269.6,1223.3h-4.6v-30.5h25.3v30.5h-4.6v-26.2h-16.2V1223.3z"/>
		<path class="st1" d="M2319.3,1192.8h4.9l-13.7,38.4c-0.5,1.5-1.2,2.5-2.1,3.2c-0.9,0.7-2.1,1-3.7,1h-6.1v-4.3h5.8
			c1,0,1.7-0.6,2.1-1.8l1.2-3.7l-12.5-32.9h4.9l9.5,25.3h1.2L2319.3,1192.8z"/>
		<path class="st1" d="M2333.8,1221.9c-2.2-1.3-4-3.2-5.3-5.6c-1.3-2.4-1.9-5.1-1.9-8.2c0-3.1,0.6-5.8,1.9-8.2s3-4.3,5.3-5.6
			c2.2-1.3,4.7-2,7.4-2c3.4,0,6.3,0.9,8.7,2.8c2.4,1.9,4,4.4,4.8,7.6h-4.6c-0.6-2-1.7-3.5-3.3-4.5c-1.6-1.1-3.4-1.6-5.6-1.6
			c-1.8,0-3.5,0.5-5.1,1.4c-1.5,1-2.8,2.3-3.7,4.1c-0.9,1.8-1.3,3.8-1.3,6.1s0.4,4.3,1.3,6.1c0.9,1.8,2.1,3.1,3.7,4.1
			c1.5,1,3.2,1.4,5.1,1.4c2.2,0,4.1-0.5,5.6-1.6s2.6-2.7,3.2-4.8h4.6c-0.8,3.3-2.4,5.9-4.8,7.8c-2.4,1.9-5.3,2.8-8.7,2.8
			C2338.5,1223.9,2336,1223.2,2333.8,1221.9z"/>
		<path class="st1" d="M2380.3,1223.3v-33.5h-9.2v-4.3h7.3c1.2,0,1.8-0.6,1.8-1.8v-3h4.9v42.7H2380.3z"/>
		<path class="st1" d="M1292.1,1345.3h-7.9l-8.2-30.5h4.9l6.7,25.6h1.2l6.7-25.6h7.3l6.7,25.6h1.2l6.7-25.6h4.9l-8.2,30.5h-7.9
			l-6.4-24.7h-1.2L1292.1,1345.3z"/>
		<path class="st1" d="M1340.3,1345.3h-7.9l-8.2-30.5h4.9l6.7,25.6h1.2l6.7-25.6h7.3l6.7,25.6h1.2l6.7-25.6h4.9l-8.2,30.5h-7.9
			l-6.4-24.7h-1.2L1340.3,1345.3z"/>
		<path class="st1" d="M1388.5,1345.3h-7.9l-8.2-30.5h4.9l6.7,25.6h1.2l6.7-25.6h7.3l6.7,25.6h1.2l6.7-25.6h4.9l-8.2,30.5h-7.9
			l-6.4-24.7h-1.2L1388.5,1345.3z"/>
		<path class="st1" d="M1427.5,1345.3h-5.5v-5.5h5.5V1345.3z"/>
		<path class="st1" d="M1440.8,1343.9c-2.2-1.3-4-3.2-5.3-5.6c-1.3-2.4-1.9-5.1-1.9-8.2c0-3.1,0.6-5.8,1.9-8.2
			c1.3-2.4,3-4.3,5.3-5.6c2.2-1.3,4.7-2,7.4-2c2.6,0,5,0.6,7.1,1.9c2.2,1.3,3.8,3,5.1,5.2c1.2,2.2,1.8,4.7,1.8,7.5
			c0,1.6-0.1,2.7-0.3,3.4h-23.8c0.3,2.8,1.4,5.1,3.3,6.9c1.9,1.7,4.2,2.6,6.8,2.6c1.8,0,3.5-0.4,4.9-1.3c1.4-0.9,2.6-2.1,3.3-3.6
			h4.9c-1.1,2.9-2.7,5.2-5,6.8c-2.3,1.6-5,2.4-8.1,2.4C1445.5,1345.9,1443,1345.2,1440.8,1343.9z M1457.7,1327.9
			c-0.2-2.8-1.1-5-2.9-6.8c-1.8-1.8-4-2.7-6.6-2.7c-2.7,0-5,0.9-6.8,2.7s-2.9,4-3.2,6.8H1457.7z"/>
		<path class="st1" d="M1473.9,1345.3h-4.6v-42.7h4.6V1345.3z"/>
		<path class="st1" d="M1490.3,1345.3c-1.7,0-3-0.5-4-1.4c-1-1-1.5-2.2-1.5-3.8v-21h-4.9v-4.3h4.9v-8.5h4.6v8.5h7v4.3h-7v20.1
			c0,1.2,0.6,1.8,1.8,1.8h5.2v4.3H1490.3z"/>
		<path class="st1" d="M1504,1343.2c-2-1.8-3-4-3-6.8c0-3,1-5.4,3-7.2c2-1.7,5.1-2.6,9.2-2.6h8.2v-0.9c0-2.3-0.7-4.1-2-5.4
			c-1.3-1.3-3.1-2-5.4-2c-2.2,0-4,0.5-5.3,1.5c-1.4,1-2.1,2.2-2.3,3.7h-4.6c0.1-1.7,0.7-3.2,1.6-4.7c1-1.4,2.4-2.6,4.2-3.5
			c1.8-0.9,3.9-1.3,6.4-1.3c3.7,0,6.6,1,8.7,3.1c2.1,2.1,3.2,4.9,3.2,8.5v19.5h-4l-0.6-3.7h-0.3c-0.7,1.1-1.9,2.1-3.6,3
			c-1.7,0.9-3.7,1.3-5.9,1.3C1508.5,1345.9,1505.9,1345,1504,1343.2z M1518.8,1339.1c1.7-1.7,2.6-4,2.6-6.9v-1.2h-8.2
			c-2.6,0-4.5,0.5-5.8,1.5c-1.2,1-1.9,2.3-1.9,4c0,1.5,0.5,2.8,1.6,3.8c1.1,1,2.6,1.4,4.5,1.4
			C1514.7,1341.6,1517.1,1340.8,1518.8,1339.1z"/>
		<path class="st1" d="M1537.9,1344.6c-1.9-0.9-3.3-2-4.3-3.5c-1-1.4-1.5-3-1.5-4.7h4.6c0,1.4,0.7,2.6,2,3.7c1.4,1,3.2,1.5,5.6,1.5
			c2.3,0,4.1-0.4,5.4-1.3c1.3-0.9,1.9-2,1.9-3.3c0-1.2-0.4-2.2-1.3-3c-0.8-0.8-2.1-1.3-3.9-1.6l-5.2-0.9c-5.7-1-8.5-3.8-8.5-8.5
			c0-2.6,1-4.7,2.9-6.3c1.9-1.7,4.7-2.5,8.4-2.5c2.4,0,4.4,0.4,6.3,1.3c1.8,0.9,3.2,2,4.2,3.5c1,1.5,1.5,3,1.5,4.6h-4.6
			c0-1.4-0.7-2.6-2-3.7c-1.3-1-3.1-1.5-5.3-1.5c-2.2,0-3.8,0.4-5,1.3c-1.2,0.9-1.7,2-1.7,3.3c0,1.1,0.4,2.1,1.1,2.7
			c0.8,0.7,2,1.2,3.8,1.5l5.2,0.9c3,0.5,5.3,1.5,6.7,3c1.4,1.5,2.1,3.4,2.1,5.9c0,2.6-1,4.7-3.1,6.3c-2.1,1.7-5,2.5-8.8,2.5
			C1541.9,1345.9,1539.7,1345.5,1537.9,1344.6z"/>
		<path class="st1" d="M1562.6,1357.5v-42.7h4l0.6,4.3h0.3c1.3-1.6,2.7-2.8,4.3-3.6c1.6-0.8,3.4-1.3,5.5-1.3c2.6,0,5,0.7,7.2,2
			c2.1,1.3,3.8,3.2,5,5.6s1.8,5.1,1.8,8.2c0,3.1-0.6,5.8-1.8,8.2c-1.2,2.4-2.9,4.3-5,5.6c-2.1,1.3-4.5,2-7.2,2
			c-2.1,0-3.9-0.4-5.5-1.3s-3-2-4.3-3.6h-0.3v16.5H1562.6z M1581.8,1340.2c1.5-1,2.7-2.3,3.6-4.1c0.9-1.7,1.3-3.8,1.3-6
			s-0.4-4.3-1.3-6c-0.9-1.7-2.1-3.1-3.6-4.1s-3.1-1.5-4.8-1.5c-1.7,0-3.4,0.5-4.8,1.5s-2.7,2.3-3.6,4.1c-0.9,1.7-1.3,3.8-1.3,6
			s0.4,4.3,1.3,6c0.9,1.7,2.1,3.1,3.6,4.1s3.1,1.5,4.8,1.5C1578.7,1341.6,1580.3,1341.1,1581.8,1340.2z"/>
		<path class="st1" d="M1607.4,1344.6c-1.6-0.8-3-2-4.3-3.6h-0.3l-0.6,4.3h-4v-42.7h4.6v16.5h0.3c1.3-1.6,2.7-2.8,4.3-3.6
			c1.6-0.8,3.4-1.3,5.5-1.3c2.6,0,5,0.7,7.2,2c2.1,1.3,3.8,3.2,5,5.6c1.2,2.4,1.8,5.1,1.8,8.2c0,3.1-0.6,5.8-1.8,8.2
			c-1.2,2.4-2.9,4.3-5,5.6c-2.1,1.3-4.5,2-7.2,2C1610.9,1345.9,1609,1345.5,1607.4,1344.6z M1617.5,1340.2c1.5-1,2.7-2.3,3.6-4.1
			c0.9-1.7,1.3-3.8,1.3-6s-0.4-4.3-1.3-6c-0.9-1.7-2.1-3.1-3.6-4.1s-3.1-1.5-4.8-1.5c-1.7,0-3.4,0.5-4.8,1.5c-1.5,1-2.7,2.3-3.6,4.1
			c-0.9,1.7-1.3,3.8-1.3,6s0.4,4.3,1.3,6c0.9,1.7,2.1,3.1,3.6,4.1c1.5,1,3.1,1.5,4.8,1.5C1614.4,1341.6,1616,1341.1,1617.5,1340.2z"
			/>
		<path class="st1" d="M1638.6,1345.3h-5.5v-5.5h5.5V1345.3z"/>
		<path class="st1" d="M1646.5,1345.3v-30.5h4l0.6,3h0.3c0.7-1.1,1.4-1.8,2.3-2.3c0.8-0.5,2-0.7,3.5-0.7h5.2v4.3h-4.6
			c-2.1,0-3.8,0.6-4.9,1.7c-1.2,1.2-1.8,2.8-1.8,5v19.5H1646.5z"/>
		<path class="st1" d="M1673.2,1344.3c-1.9-1.1-3.3-2.6-4.4-4.5c-1.1-2-1.6-4.2-1.6-6.6v-18.3h4.6v18.3c0,1.6,0.4,3,1.1,4.3
			c0.7,1.3,1.7,2.3,3,3.1c1.3,0.8,2.6,1.1,4.1,1.1c1.6,0,3.1-0.4,4.4-1.2s2.4-1.8,3.2-3.1c0.8-1.3,1.2-2.7,1.2-4.2v-18.3h4.6v30.5
			h-4l-0.6-3.4h-0.3c-0.9,1.1-2.1,2-3.7,2.8s-3.4,1.2-5.5,1.2C1677.1,1345.9,1675,1345.4,1673.2,1344.3z"/>
	</g>
</g>
<g>
	<path class="st1" d="M283.1,1222.1c0,27-8.4,53.2-23.9,75.3c-15.6,22-37.6,38.7-63,47.7v-31.3c17.4-8.2,32.1-21.2,42.3-37.5
		c10.3-16.2,15.7-35.1,15.7-54.3c0-19.2-5.5-38-15.8-54.2c-10.3-16.2-25-29.2-42.4-37.4v-31.3c25.5,9,47.5,25.6,63.1,47.7
		C274.7,1168.8,283.1,1195.2,283.1,1222.1z"/>
	<rect x="51" y="1207.6" class="st1" width="116.1" height="29"/>
	<path class="st1" d="M225.1,1222.1c0-9.5-1.9-18.9-5.5-27.7c-3.6-8.8-9-16.8-15.7-23.5c-6.7-6.7-14.7-12.1-23.5-15.7
		c-8.8-3.6-18.2-5.5-27.8-5.5h-43.5v29h87v86.9h-87v29h43.5c9.5,0,19-1.9,27.8-5.5c8.8-3.6,16.8-9,23.5-15.7
		c6.7-6.7,12.1-14.7,15.7-23.5C223.2,1241.1,225.1,1231.6,225.1,1222.1z"/>
</g>
<g>
	<g>
		<path class="st1" d="M57.4,648.4H51v-42.7h6.4v19.6l16.3-19.6h7.9l-17.6,21l18.8,21.7h-7.9l-17.4-20.3V648.4z"/>
		<path class="st1" d="M93.4,646.3c-3.1-1.9-5.6-4.5-7.4-7.8c-1.8-3.3-2.7-7.1-2.7-11.3c0-4.2,0.9-8,2.7-11.3
			c1.8-3.3,4.3-5.9,7.4-7.8c3.1-1.9,6.6-2.8,10.3-2.8c3.8,0,7.2,0.9,10.4,2.8c3.1,1.9,5.6,4.5,7.4,7.8c1.8,3.3,2.7,7.1,2.7,11.3
			c0,4.2-0.9,8-2.7,11.3c-1.8,3.3-4.3,5.9-7.4,7.8c-3.1,1.9-6.6,2.8-10.4,2.8C99.9,649.1,96.5,648.1,93.4,646.3z M110.8,641
			c2.2-1.3,3.9-3.2,5.1-5.6c1.3-2.4,1.9-5.2,1.9-8.3c0-3.1-0.6-5.8-1.9-8.3c-1.3-2.4-3-4.3-5.1-5.6c-2.2-1.3-4.5-2-7.1-2
			c-2.6,0-4.9,0.7-7.1,2c-2.2,1.3-3.9,3.2-5.1,5.6c-1.3,2.4-1.9,5.2-1.9,8.3c0,3.1,0.6,5.8,1.9,8.3c1.3,2.4,3,4.3,5.1,5.6
			c2.2,1.3,4.5,2,7.1,2C106.3,643,108.7,642.3,110.8,641z"/>
		<path class="st1" d="M138.2,648.4h-6.4v-42.7h10.7l11.7,33.9h1.2l11.7-33.9h10.8v42.7h-6.4v-33.1h-1.2l-11.5,33.1h-7.9l-11.5-33.1
			h-1.2V648.4z"/>
		<path class="st1" d="M193.7,648.4h-6.4v-42.7h34.1v42.7H215v-36.6h-21.3V648.4z"/>
		<path class="st1" d="M226.6,648.8v-6.3h1.9c2.8,0,4.4-1.6,4.6-4.9l2.7-31.8h27.6v42.7H257v-36.6h-15.3l-2.3,26.4
			c-0.3,3.6-1.3,6.2-3,7.9c-1.7,1.7-4.2,2.6-7.4,2.6H226.6z"/>
		<path class="st1" d="M300.8,648.4h-28v-42.7h28v5.9h-21.6v12.4h20.4v5.8h-20.4v12.6h21.6V648.4z"/>
		<path class="st1" d="M315.2,648.4h-6.4v-42.7h6.4v19.6l16.3-19.6h7.9l-17.6,21l18.8,21.7h-7.9l-17.4-20.3V648.4z"/>
		<path class="st1" d="M351.1,646.3c-3.1-1.9-5.6-4.5-7.4-7.8c-1.8-3.3-2.7-7.1-2.7-11.3c0-4.2,0.9-8,2.7-11.3
			c1.8-3.3,4.3-5.9,7.4-7.8c3.1-1.9,6.6-2.8,10.3-2.8c3.3,0,6.2,0.7,8.8,2c2.6,1.3,4.8,3.1,6.6,5.4c1.8,2.3,3,4.8,3.7,7.6H374
			c-0.9-2.6-2.5-4.8-4.7-6.4c-2.2-1.6-4.8-2.5-7.8-2.5c-2.6,0-4.9,0.7-7.1,2c-2.2,1.3-3.9,3.2-5.1,5.6c-1.3,2.4-1.9,5.2-1.9,8.3
			c0,3.1,0.6,5.8,1.9,8.3c1.3,2.4,3,4.3,5.1,5.6c2.2,1.3,4.5,2,7.1,2c3.1,0,5.7-0.8,7.9-2.5c2.2-1.7,3.7-3.9,4.6-6.7h6.6
			c-0.7,2.9-1.9,5.5-3.7,7.8c-1.7,2.3-3.9,4.1-6.6,5.5c-2.6,1.3-5.6,2-8.9,2C357.7,649.1,354.3,648.1,351.1,646.3z"/>
		<path class="st1" d="M393.8,648.4h-6.4v-42.7h6.4v18.1h21.5v-18.1h6.4v42.7h-6.4v-18.4h-21.5V648.4z"/>
		<path class="st1" d="M439.4,646.3c-3.1-1.9-5.6-4.5-7.4-7.8c-1.8-3.3-2.7-7.1-2.7-11.3c0-4.2,0.9-8,2.7-11.3
			c1.8-3.3,4.3-5.9,7.4-7.8c3.1-1.9,6.6-2.8,10.3-2.8c3.8,0,7.2,0.9,10.4,2.8c3.1,1.9,5.6,4.5,7.4,7.8c1.8,3.3,2.7,7.1,2.7,11.3
			c0,4.2-0.9,8-2.7,11.3c-1.8,3.3-4.3,5.9-7.4,7.8c-3.1,1.9-6.6,2.8-10.4,2.8C445.9,649.1,442.5,648.1,439.4,646.3z M456.8,641
			c2.2-1.3,3.9-3.2,5.1-5.6c1.3-2.4,1.9-5.2,1.9-8.3c0-3.1-0.6-5.8-1.9-8.3c-1.3-2.4-3-4.3-5.1-5.6c-2.2-1.3-4.5-2-7.1-2
			c-2.6,0-4.9,0.7-7.1,2c-2.2,1.3-3.9,3.2-5.1,5.6c-1.3,2.4-1.9,5.2-1.9,8.3c0,3.1,0.6,5.8,1.9,8.3c1.3,2.4,3,4.3,5.1,5.6
			c2.2,1.3,4.5,2,7.1,2C452.3,643,454.7,642.3,456.8,641z"/>
		<path class="st1" d="M505.8,648.4h-28v-42.7h28v5.9h-21.6v12.4h20.4v5.8h-20.4v12.6h21.6V648.4z"/>
		<path class="st1" d="M535,648.4h-6.4v-42.7h34.1v42.7h-6.4v-36.6H535V648.4z"/>
		<path class="st1" d="M572.1,648.4v-42.7h19c2.4,0,4.6,0.6,6.5,1.7c2,1.2,3.5,2.8,4.6,4.8c1.1,2.1,1.7,4.4,1.7,7.1
			c0,2.6-0.6,5-1.7,7.1c-1.1,2.1-2.7,3.7-4.6,4.9c-2,1.2-4.1,1.7-6.5,1.7h-12.6v15.3H572.1z M590.9,627c1.8,0,3.4-0.7,4.7-2.1
			c1.3-1.4,1.9-3.2,1.9-5.5c0-2.3-0.6-4.1-1.9-5.5c-1.3-1.4-2.8-2.1-4.7-2.1h-12.4V627H590.9z"/>
		<path class="st1" d="M619.7,646.3c-3.1-1.9-5.6-4.5-7.4-7.8c-1.8-3.3-2.7-7.1-2.7-11.3c0-4.2,0.9-8,2.7-11.3
			c1.8-3.3,4.3-5.9,7.4-7.8c3.1-1.9,6.6-2.8,10.3-2.8c3.8,0,7.2,0.9,10.4,2.8c3.1,1.9,5.6,4.5,7.4,7.8c1.8,3.3,2.7,7.1,2.7,11.3
			c0,4.2-0.9,8-2.7,11.3c-1.8,3.3-4.3,5.9-7.4,7.8c-3.1,1.9-6.6,2.8-10.4,2.8C626.2,649.1,622.8,648.1,619.7,646.3z M637.1,641
			c2.2-1.3,3.9-3.2,5.1-5.6c1.3-2.4,1.9-5.2,1.9-8.3c0-3.1-0.6-5.8-1.9-8.3c-1.3-2.4-3-4.3-5.1-5.6c-2.2-1.3-4.5-2-7.1-2
			c-2.6,0-4.9,0.7-7.1,2c-2.2,1.3-3.9,3.2-5.1,5.6c-1.3,2.4-1.9,5.2-1.9,8.3c0,3.1,0.6,5.8,1.9,8.3c1.3,2.4,3,4.3,5.1,5.6
			c2.2,1.3,4.5,2,7.1,2C632.6,643,635,642.3,637.1,641z"/>
		<path class="st1" d="M686.1,648.4h-28v-42.7h28v5.9h-21.6v12.4h20.4v5.8h-20.4v12.6h21.6V648.4z"/>
		<path class="st1" d="M700.5,648.4h-6.4v-42.7h6.4v19.6l16.3-19.6h7.9l-17.6,21l18.8,21.7H718l-17.4-20.3V648.4z"/>
		<path class="st1" d="M745.9,648.4h-6.4v-36.6h-13.4v-6.1h33.2v6.1h-13.4V648.4z"/>
		<path class="st1" d="M774.6,648.4h-9.3v-42.7h6.4v33.4h1.2l17.4-33.4h9.3v42.7h-6.4v-33.4H792L774.6,648.4z"/>
		<path class="st1" d="M809,648.4v-42.7h19c2.4,0,4.6,0.6,6.5,1.7c2,1.2,3.5,2.8,4.6,4.8c1.1,2.1,1.7,4.4,1.7,7.1
			c0,2.6-0.6,5-1.7,7.1c-1.1,2.1-2.7,3.7-4.6,4.9c-2,1.2-4.1,1.7-6.5,1.7h-12.6v15.3H809z M827.8,627c1.8,0,3.4-0.7,4.7-2.1
			c1.3-1.4,1.9-3.2,1.9-5.5c0-2.3-0.6-4.1-1.9-5.5c-1.3-1.4-2.8-2.1-4.7-2.1h-12.4V627H827.8z"/>
		<path class="st1" d="M856.6,646.3c-3.1-1.9-5.6-4.5-7.4-7.8c-1.8-3.3-2.7-7.1-2.7-11.3c0-4.2,0.9-8,2.7-11.3
			c1.8-3.3,4.3-5.9,7.4-7.8c3.1-1.9,6.6-2.8,10.3-2.8c3.8,0,7.2,0.9,10.4,2.8c3.1,1.9,5.6,4.5,7.4,7.8c1.8,3.3,2.7,7.1,2.7,11.3
			c0,4.2-0.9,8-2.7,11.3c-1.8,3.3-4.3,5.9-7.4,7.8c-3.1,1.9-6.6,2.8-10.4,2.8C863.1,649.1,859.7,648.1,856.6,646.3z M874.1,641
			c2.2-1.3,3.9-3.2,5.1-5.6c1.3-2.4,1.9-5.2,1.9-8.3c0-3.1-0.6-5.8-1.9-8.3c-1.3-2.4-3-4.3-5.1-5.6c-2.2-1.3-4.5-2-7.1-2
			c-2.6,0-4.9,0.7-7.1,2c-2.2,1.3-3.9,3.2-5.1,5.6c-1.3,2.4-1.9,5.2-1.9,8.3c0,3.1,0.6,5.8,1.9,8.3c1.3,2.4,3,4.3,5.1,5.6
			c2.2,1.3,4.5,2,7.1,2C869.5,643,871.9,642.3,874.1,641z"/>
		<path class="st1" d="M895,648.4v-42.7h19c2.2,0,4.3,0.5,6.1,1.6c1.8,1,3.2,2.5,4.3,4.3c1,1.8,1.6,3.8,1.6,6.1c0,2.1-0.5,4-1.4,5.6
			c-0.9,1.6-2,2.8-3.2,3.5v0.3c1.3,0.7,2.5,1.8,3.6,3.5c1.1,1.7,1.6,3.7,1.6,5.9c0,2.2-0.5,4.3-1.6,6.1c-1,1.8-2.5,3.2-4.3,4.3
			c-1.8,1-3.8,1.6-6.1,1.6H895z M913.7,624.3c1.6,0,3-0.6,4.2-1.8c1.2-1.2,1.7-2.7,1.7-4.5c0-1.8-0.6-3.4-1.7-4.6
			c-1.2-1.2-2.6-1.8-4.2-1.8h-12.2v12.7H913.7z M914.3,642.7c1.6,0,3-0.6,4.2-1.8c1.2-1.2,1.7-2.7,1.7-4.6c0-1.8-0.6-3.3-1.7-4.5
			c-1.2-1.2-2.6-1.8-4.2-1.8h-12.8v12.7H914.3z"/>
		<path class="st1" d="M969.4,648.4h-6.9l-3.7-10.2h-19.6l-3.7,10.2h-7l15.7-42.7h9.4L969.4,648.4z M948.4,612.6l-7.1,19.8h15.5
			l-7.1-19.8H948.4z"/>
		<path class="st1" d="M980.4,648.4H974v-42.7h6.4v18.1h21.5v-18.1h6.4v42.7h-6.4v-18.4h-21.5V648.4z"/>
		<path class="st1" d="M1027,648.4h-9.3v-42.7h6.4v33.4h1.2l17.4-33.4h9.3v42.7h-6.4v-33.4h-1.2L1027,648.4z"/>
		<path class="st1" d="M1089.4,648.4h-28v-42.7h28v5.9h-21.6v12.4h20.4v5.8h-20.4v12.6h21.6V648.4z"/>
		<path class="st1" d="M1100.3,653.6h-5.1l1.3-12h7L1100.3,653.6z"/>
		<path class="st1" d="M57.4,714.4H51v-42.7h10.7l11.7,33.9h1.2l11.7-33.9h10.8v42.7h-6.4v-33.1h-1.2L78,714.4h-7.9l-11.5-33.1h-1.2
			V714.4z"/>
		<path class="st1" d="M114.8,712.3c-3.1-1.9-5.6-4.5-7.4-7.8c-1.8-3.3-2.7-7.1-2.7-11.3c0-4.2,0.9-8,2.7-11.3
			c1.8-3.3,4.3-5.9,7.4-7.8c3.1-1.9,6.6-2.8,10.3-2.8c3.8,0,7.2,0.9,10.4,2.8c3.1,1.9,5.6,4.5,7.4,7.8c1.8,3.3,2.7,7.1,2.7,11.3
			c0,4.2-0.9,8-2.7,11.3c-1.8,3.3-4.3,5.9-7.4,7.8c-3.1,1.9-6.6,2.8-10.4,2.8C121.4,715.1,117.9,714.1,114.8,712.3z M132.3,707
			c2.2-1.3,3.9-3.2,5.1-5.6c1.3-2.4,1.9-5.2,1.9-8.3c0-3.1-0.6-5.8-1.9-8.3c-1.3-2.4-3-4.3-5.1-5.6c-2.2-1.3-4.5-2-7.1-2
			c-2.6,0-4.9,0.7-7.1,2c-2.2,1.3-3.9,3.2-5.1,5.6c-1.3,2.4-1.9,5.2-1.9,8.3c0,3.1,0.6,5.8,1.9,8.3c1.3,2.4,3,4.3,5.1,5.6
			c2.2,1.3,4.5,2,7.1,2C127.8,709,130.2,708.3,132.3,707z"/>
		<path class="st1" d="M159.7,714.4h-6.4v-42.7h6.4v18.1h21.5v-18.1h6.4v42.7h-6.4v-18.4h-21.5V714.4z"/>
		<path class="st1" d="M213.5,714.4h-6.4v-36.6h-13.4v-6.1h33.2v6.1h-13.4V714.4z"/>
		<path class="st1" d="M265.3,714.4h-6.9l-3.7-10.2h-19.6l-3.7,10.2h-7l15.7-42.7h9.4L265.3,714.4z M244.3,678.6l-7.1,19.8h15.5
			l-7.1-19.8H244.3z"/>
		<path class="st1" d="M272.7,714.4H265l15.6-21.7l-14.3-21h7.6l13.3,19.6v-19.6h6.4v19.6l13.3-19.6h7.6l-14.3,21l15.6,21.7h-7.6
			l-14.5-20.6v20.6h-6.4v-20.6L272.7,714.4z"/>
		<path class="st1" d="M343.1,714.4h-9.3v-42.7h6.4v33.4h1.2l17.4-33.4h9.3v42.7h-6.4v-33.4h-1.2L343.1,714.4z"/>
		<path class="st1" d="M400.7,712.3c-3.1-1.9-5.6-4.5-7.4-7.8c-1.8-3.3-2.7-7.1-2.7-11.3c0-4.2,0.9-8,2.7-11.3
			c1.8-3.3,4.3-5.9,7.4-7.8c3.1-1.9,6.6-2.8,10.3-2.8c3.8,0,7.2,0.9,10.4,2.8c3.1,1.9,5.6,4.5,7.4,7.8c1.8,3.3,2.7,7.1,2.7,11.3
			c0,4.2-0.9,8-2.7,11.3c-1.8,3.3-4.3,5.9-7.4,7.8c-3.1,1.9-6.6,2.8-10.4,2.8C407.2,715.1,403.8,714.1,400.7,712.3z M418.2,707
			c2.2-1.3,3.9-3.2,5.1-5.6c1.3-2.4,1.9-5.2,1.9-8.3c0-3.1-0.6-5.8-1.9-8.3c-1.3-2.4-3-4.3-5.1-5.6c-2.2-1.3-4.5-2-7.1-2
			c-2.6,0-4.9,0.7-7.1,2c-2.2,1.3-3.9,3.2-5.1,5.6c-1.3,2.4-1.9,5.2-1.9,8.3c0,3.1,0.6,5.8,1.9,8.3c1.3,2.4,3,4.3,5.1,5.6
			c2.2,1.3,4.5,2,7.1,2C413.6,709,416,708.3,418.2,707z"/>
		<path class="st1" d="M439.1,714.4v-42.7h29.5v5.8h-23.1v12h13.3c2.3,0,4.3,0.5,6.2,1.6c1.9,1.1,3.3,2.5,4.4,4.4
			c1.1,1.9,1.6,4,1.6,6.4c0,2.4-0.5,4.6-1.6,6.5c-1.1,1.9-2.5,3.4-4.4,4.4c-1.9,1.1-3.9,1.6-6.2,1.6H439.1z M458.7,708.7
			c1.7,0,3.2-0.6,4.3-1.9c1.1-1.2,1.6-2.9,1.6-4.8c0-2-0.5-3.6-1.6-4.8c-1.1-1.2-2.5-1.8-4.3-1.8h-13.1v13.4H458.7z"/>
		<path class="st1" d="M486.8,712.3c-3.1-1.9-5.6-4.5-7.4-7.8c-1.8-3.3-2.7-7.1-2.7-11.3c0-4.2,0.9-8,2.7-11.3
			c1.8-3.3,4.3-5.9,7.4-7.8c3.1-1.9,6.6-2.8,10.3-2.8c3.3,0,6.2,0.7,8.8,2c2.6,1.3,4.8,3.1,6.6,5.4c1.8,2.3,3,4.8,3.7,7.6h-6.6
			c-0.9-2.6-2.5-4.8-4.7-6.4c-2.2-1.6-4.8-2.5-7.8-2.5c-2.6,0-4.9,0.7-7.1,2c-2.2,1.3-3.9,3.2-5.1,5.6c-1.3,2.4-1.9,5.2-1.9,8.3
			c0,3.1,0.6,5.8,1.9,8.3c1.3,2.4,3,4.3,5.1,5.6c2.2,1.3,4.5,2,7.1,2c3.1,0,5.7-0.8,7.9-2.5c2.2-1.7,3.7-3.9,4.6-6.7h6.6
			c-0.7,2.9-1.9,5.5-3.7,7.8c-1.7,2.3-3.9,4.1-6.6,5.5c-2.6,1.3-5.6,2-8.9,2C493.3,715.1,489.9,714.1,486.8,712.3z"/>
		<path class="st1" d="M517.5,714.8v-6.3h1.9c2.8,0,4.4-1.6,4.6-4.9l2.7-31.8h27.6v42.7h-6.4v-36.6h-15.3l-2.3,26.4
			c-0.3,3.6-1.3,6.2-3,7.9c-1.7,1.7-4.2,2.6-7.4,2.6H517.5z"/>
		<path class="st1" d="M589.7,671.7h6.9l-17.1,37.6c-0.8,1.7-1.8,3-3.1,3.8c-1.3,0.9-3,1.3-5.3,1.3H565v-5.9h5.8
			c0.9,0,1.5-0.2,2-0.5c0.5-0.3,0.9-0.8,1.2-1.6l1-2.2l-15.9-32.6h7l11.5,24.2h1.2L589.7,671.7z"/>
		<path class="st1" d="M604.1,714.4h-7.6l15.6-21.7l-14.3-21h7.6l13.3,19.6v-19.6h6.4v19.6l13.3-19.6h7.6l-14.3,21l15.6,21.7h-7.6
			l-14.5-20.6v20.6h-6.4v-20.6L604.1,714.4z"/>
		<path class="st1" d="M661,714.4h-9.3v-42.7h6.4v33.4h1.2l17.4-33.4h9.3v42.7h-6.4v-33.4h-1.2L661,714.4z"/>
		<path class="st1" d="M695.4,714.4v-42.7h19c2.2,0,4.3,0.5,6.1,1.6c1.8,1,3.2,2.5,4.3,4.3c1,1.8,1.6,3.8,1.6,6.1
			c0,2.1-0.5,4-1.4,5.6c-0.9,1.6-2,2.8-3.2,3.5v0.3c1.3,0.7,2.5,1.8,3.6,3.5c1.1,1.7,1.6,3.7,1.6,5.9c0,2.2-0.5,4.3-1.6,6.1
			c-1,1.8-2.5,3.2-4.3,4.3c-1.8,1-3.8,1.6-6.1,1.6H695.4z M714,690.3c1.6,0,3-0.6,4.2-1.8c1.2-1.2,1.7-2.7,1.7-4.5
			c0-1.8-0.6-3.4-1.7-4.6c-1.2-1.2-2.6-1.8-4.2-1.8h-12.2v12.7H714z M714.6,708.7c1.6,0,3-0.6,4.2-1.8c1.2-1.2,1.7-2.7,1.7-4.6
			c0-1.8-0.6-3.3-1.7-4.5c-1.2-1.2-2.6-1.8-4.2-1.8h-12.8v12.7H714.6z"/>
		<path class="st1" d="M769.8,714.4h-6.9l-3.7-10.2h-19.6l-3.7,10.2h-7l15.7-42.7h9.4L769.8,714.4z M748.8,678.6l-7.1,19.8h15.5
			l-7.1-19.8H748.8z"/>
		<path class="st1" d="M780.8,714.4h-6.4v-42.7h6.4v18.1h21.5v-18.1h6.4v42.7h-6.4v-18.4h-21.5V714.4z"/>
		<path class="st1" d="M827.3,714.4h-9.3v-42.7h6.4v33.4h1.2l17.4-33.4h9.3v42.7h-6.4v-33.4h-1.2L827.3,714.4z"/>
		<path class="st1" d="M889.7,714.4h-28v-42.7h28v5.9h-21.6v12.4h20.4v5.8h-20.4v12.6h21.6V714.4z"/>
		<path class="st1" d="M60.3,780.4H51v-42.7h6.4v33.4h1.2L76,737.7h9.3v42.7h-6.4v-33.4h-1.2L60.3,780.4z"/>
		<path class="st1" d="M101.1,780.4h-6.4v-42.7h6.4v18.1h21.5v-18.1h6.4v42.7h-6.4v-18.4h-21.5V780.4z"/>
		<path class="st1" d="M141.1,780.4h-7.6l15.6-21.7l-14.3-21h7.6l13.3,19.6v-19.6h6.4v19.6l13.3-19.6h7.6l-14.3,21l15.6,21.7h-7.6
			L162,759.9v20.6h-6.4v-20.6L141.1,780.4z"/>
		<path class="st1" d="M216.7,780.4h-28v-42.7h28v5.9h-21.6v12.4h20.4v5.8h-20.4v12.6h21.6V780.4z"/>
		<path class="st1" d="M231.1,780.4h-6.4v-42.7h6.4v18.1h21.5v-18.1h6.4v42.7h-6.4v-18.4h-21.5V780.4z"/>
		<path class="st1" d="M296.3,780.4h-28v-42.7h28v5.9h-21.6v12.4h20.4v5.8h-20.4v12.6h21.6V780.4z"/>
		<path class="st1" d="M304.3,780.4v-42.7h19c2.4,0,4.6,0.6,6.5,1.7c2,1.2,3.5,2.8,4.6,4.8c1.1,2.1,1.7,4.4,1.7,7.1
			c0,2.6-0.6,5-1.7,7.1c-1.1,2.1-2.7,3.7-4.6,4.9c-2,1.2-4.1,1.7-6.5,1.7h-12.6v15.3H304.3z M323.1,759c1.8,0,3.4-0.7,4.7-2.1
			c1.3-1.4,1.9-3.2,1.9-5.5c0-2.3-0.6-4.1-1.9-5.5c-1.3-1.4-2.8-2.1-4.7-2.1h-12.4V759H323.1z"/>
		<path class="st1" d="M350,780.4h-6.4v-42.7h6.4v18.1h21.5v-18.1h6.4v42.7h-6.4v-18.4H350V780.4z"/>
		<path class="st1" d="M387.2,780.4v-42.7h6.4v15.1h10.7c2.4,0,4.7,0.6,6.6,1.8c2,1.2,3.5,2.8,4.7,4.9c1.1,2.1,1.7,4.5,1.7,7.1
			c0,2.6-0.6,5-1.7,7.1c-1.1,2.1-2.7,3.7-4.7,4.9c-2,1.2-4.2,1.8-6.6,1.8H387.2z M404.2,774.3c2,0,3.6-0.7,4.8-2.2
			c1.3-1.4,1.9-3.3,1.9-5.5c0-2.2-0.6-4.1-1.9-5.6c-1.3-1.5-2.9-2.2-4.8-2.2h-10.6v15.4H404.2z M428.3,780.4h-6.4v-42.7h6.4V780.4z"
			/>
		<path class="st1" d="M440.6,780.4h-7.4l14.8-22l-13.8-20.7h7.4l10.2,15.6h1.2l10.1-15.6h7.4l-13.8,20.7l14.8,22h-7.4l-11-16.7
			h-1.2L440.6,780.4z"/>
		<path class="st1" d="M498,778.3c-3.1-1.9-5.6-4.5-7.4-7.8c-1.8-3.3-2.7-7.1-2.7-11.3s0.9-8,2.7-11.3c1.8-3.3,4.3-5.9,7.4-7.8
			c3.1-1.9,6.6-2.8,10.3-2.8c3.3,0,6.2,0.7,8.8,2c2.6,1.3,4.8,3.1,6.6,5.4s3,4.8,3.7,7.6h-6.6c-0.9-2.6-2.5-4.8-4.7-6.4
			c-2.2-1.6-4.8-2.5-7.8-2.5c-2.6,0-4.9,0.7-7.1,2c-2.2,1.3-3.9,3.2-5.1,5.6c-1.3,2.4-1.9,5.2-1.9,8.3s0.6,5.8,1.9,8.3
			c1.3,2.4,3,4.3,5.1,5.6c2.2,1.3,4.5,2,7.1,2c3.1,0,5.7-0.8,7.9-2.5s3.7-3.9,4.6-6.7h6.6c-0.7,2.9-1.9,5.5-3.7,7.8
			c-1.7,2.3-3.9,4.1-6.6,5.5c-2.6,1.3-5.6,2-8.9,2C504.6,781.1,501.1,780.1,498,778.3z"/>
		<path class="st1" d="M543.5,780.4h-9.3v-42.7h6.4v33.4h1.2l17.4-33.4h9.3v42.7h-6.4v-33.4h-1.2L543.5,780.4z"/>
		<path class="st1" d="M586.2,778.3c-3.1-1.9-5.6-4.5-7.4-7.8c-1.8-3.3-2.7-7.1-2.7-11.3s0.9-8,2.7-11.3c1.8-3.3,4.3-5.9,7.4-7.8
			c3.1-1.9,6.6-2.8,10.3-2.8c3.3,0,6.2,0.7,8.8,2c2.6,1.3,4.8,3.1,6.6,5.4s3,4.8,3.7,7.6h-6.6c-0.9-2.6-2.5-4.8-4.7-6.4
			c-2.2-1.6-4.8-2.5-7.8-2.5c-2.6,0-4.9,0.7-7.1,2c-2.2,1.3-3.9,3.2-5.1,5.6c-1.3,2.4-1.9,5.2-1.9,8.3s0.6,5.8,1.9,8.3
			c1.3,2.4,3,4.3,5.1,5.6c2.2,1.3,4.5,2,7.1,2c3.1,0,5.7-0.8,7.9-2.5s3.7-3.9,4.6-6.7h6.6c-0.7,2.9-1.9,5.5-3.7,7.8
			c-1.7,2.3-3.9,4.1-6.6,5.5c-2.6,1.3-5.6,2-8.9,2C592.8,781.1,589.4,780.1,586.2,778.3z"/>
		<path class="st1" d="M637.8,780.4h-6.4v-36.6h-13.4v-6.1h33.2v6.1h-13.4V780.4z"/>
		<path class="st1" d="M685.2,780.4h-28v-42.7h28v5.9h-21.6v12.4H684v5.8h-20.4v12.6h21.6V780.4z"/>
		<path class="st1" d="M699.6,780.4h-6.4v-42.7h10.7l11.7,33.9h1.2l11.7-33.9h10.8v42.7h-6.4v-33.1h-1.2l-11.5,33.1h-7.9l-11.5-33.1
			h-1.2V780.4z"/>
	</g>
</g>
</svg>
