<?xml version="1.0" encoding="utf-8"?>
<!-- Generator: Adobe Illustrator 22.0.0, SVG Export Plug-In . SVG Version: 6.00 Build 0)  -->
<svg version="1.1" id="Бараев_Александр_Анатольевич"
	 xmlns="http://www.w3.org/2000/svg" xmlns:xlink="http://www.w3.org/1999/xlink" x="0px" y="0px" viewBox="0 0 2551.2 1417.3"
	 style="enable-background:new 0 0 2551.2 1417.3;" xml:space="preserve">
<style type="text/css">
	.st0{fill:none;stroke:#000000;stroke-miterlimit:10;}
	.st1{fill:#1B1B2D;}
</style>
<rect class="st0" width="2551.2" height="1417.3"/>
<g>
	<g>
		<path class="st1" d="M71.8,132.8c-3.9-2-7.1-4.6-9.7-8c-2.5-3.3-4.3-7.1-5.2-11.2h9.7c1.2,3.9,3.5,7.1,6.7,9.5s7.1,3.6,11.6,3.6
			c3.5,0,6.7-0.8,9.6-2.5s5.3-3.9,7.2-6.8c1.8-2.9,2.9-6.1,3.2-9.7H77.4v-8.4h27.5c-0.3-3.5-1.4-6.7-3.2-9.5
			c-1.8-2.8-4.2-5.1-7.2-6.8c-2.9-1.7-6.1-2.5-9.6-2.5c-4.4,0-8.2,1.2-11.4,3.6c-3.2,2.4-5.5,5.4-6.8,9.1H57c1.1-4,2.9-7.6,5.5-10.8
			c2.6-3.3,5.8-5.9,9.7-7.8s8.1-2.9,12.8-2.9c5.5,0,10.5,1.4,15.1,4.1c4.5,2.7,8.1,6.5,10.8,11.4c2.7,4.9,4,10.4,4,16.5
			c0,6.2-1.3,11.7-4,16.5c-2.7,4.9-6.3,8.7-10.8,11.4s-9.6,4.1-15.1,4.1C80.1,135.8,75.7,134.8,71.8,132.8z"/>
		<path class="st1" d="M115.6,135.3v-9.2h2.8c4.1,0,6.3-2.4,6.8-7.2l3.9-46.3h40.2v62.2H160V81.5h-22.2l-3.3,38.5
			c-0.4,5.2-1.9,9.1-4.4,11.6s-6.1,3.7-10.8,3.7H115.6z"/>
		<path class="st1" d="M204.8,134.9h-9.3V81.5h-19.6v-8.9h48.4v8.9h-19.5L204.8,134.9L204.8,134.9z"/>
		<path class="st1" d="M278,134.9h-10l-5.3-14.9H234l-5.3,14.9h-10.1l22.9-62.2h13.7L278,134.9z M247.4,82.6L237,111.5h22.6
			l-10.4-28.9H247.4z"/>
	</g>
</g>
<g>
	<g>
		<path class="st1" d="M1279.9,113.6V70.9h28.7v4.6h-23.8v13.7h14.3c2.1,0,4.1,0.5,5.8,1.5c1.8,1,3.2,2.5,4.2,4.3s1.6,4,1.6,6.4
			s-0.5,4.5-1.6,6.4s-2.4,3.3-4.2,4.3c-1.8,1-3.7,1.5-5.8,1.5C1299.1,113.6,1279.9,113.6,1279.9,113.6z M1299.1,109.1
			c2,0,3.6-0.7,4.8-2.1c1.2-1.4,1.9-3.2,1.9-5.5s-0.6-4.1-1.9-5.5c-1.2-1.4-2.9-2.1-4.8-2.1h-14.3v15.3h14.3V109.1z"/>
		<path class="st1" d="M1319.7,111.6c-2-1.8-3-4-3-6.8c0-3,1-5.4,3-7.2c2-1.7,5.1-2.6,9.2-2.6h8.2v-0.9c0-2.3-0.7-4.1-2-5.4
			s-3.1-2-5.4-2c-2.2,0-4,0.5-5.3,1.5c-1.4,1-2.1,2.2-2.3,3.7h-4.6c0.1-1.7,0.7-3.2,1.6-4.7c1-1.4,2.4-2.6,4.2-3.5
			c1.8-0.9,3.9-1.3,6.4-1.3c3.7,0,6.6,1,8.7,3.1s3.2,4.9,3.2,8.5v19.5h-4l-0.6-3.7h-0.3c-0.7,1.1-1.9,2.1-3.6,3s-3.7,1.3-5.9,1.3
			C1324.3,114.3,1321.7,113.4,1319.7,111.6z M1334.6,107.5c1.7-1.7,2.6-4,2.6-6.9v-1.2h-8.2c-2.6,0-4.5,0.5-5.8,1.5s-1.9,2.3-1.9,4
			c0,1.5,0.5,2.8,1.6,3.8s2.6,1.4,4.5,1.4C1330.5,110,1332.9,109.1,1334.6,107.5z"/>
		<path class="st1" d="M1350.3,125.8V83.1h4l0.6,4.3h0.3c1.3-1.6,2.7-2.8,4.3-3.6c1.6-0.8,3.4-1.3,5.5-1.3c2.6,0,5,0.7,7.2,2
			c2.1,1.3,3.8,3.2,5,5.6s1.8,5.1,1.8,8.2s-0.6,5.8-1.8,8.2s-2.9,4.3-5,5.6c-2.1,1.3-4.5,2-7.2,2c-2.1,0-3.9-0.4-5.5-1.3
			s-3-2-4.3-3.6h-0.3v16.5h-4.6V125.8z M1369.5,108.5c1.5-1,2.7-2.3,3.6-4.1c0.9-1.7,1.3-3.8,1.3-6c0-2.3-0.4-4.3-1.3-6
			s-2.1-3.1-3.6-4.1s-3.1-1.5-4.8-1.5c-1.7,0-3.4,0.5-4.8,1.5s-2.7,2.3-3.6,4.1c-0.9,1.7-1.3,3.8-1.3,6c0,2.3,0.4,4.3,1.3,6
			s2.1,3.1,3.6,4.1s3.1,1.5,4.8,1.5S1368,109.5,1369.5,108.5z"/>
		<path class="st1" d="M1387.5,111.6c-2-1.8-3-4-3-6.8c0-3,1-5.4,3-7.2c2-1.7,5.1-2.6,9.2-2.6h8.2v-0.9c0-2.3-0.7-4.1-2-5.4
			s-3.1-2-5.4-2c-2.2,0-4,0.5-5.3,1.5c-1.4,1-2.1,2.2-2.3,3.7h-4.6c0.1-1.7,0.7-3.2,1.6-4.7c1-1.4,2.4-2.6,4.2-3.5
			c1.8-0.9,3.9-1.3,6.4-1.3c3.7,0,6.6,1,8.7,3.1s3.2,4.9,3.2,8.5v19.5h-4l-0.6-3.7h-0.3c-0.7,1.1-1.9,2.1-3.6,3s-3.7,1.3-5.9,1.3
			C1392,114.3,1389.4,113.4,1387.5,111.6z M1402.3,107.5c1.7-1.7,2.6-4,2.6-6.9v-1.2h-8.2c-2.6,0-4.5,0.5-5.8,1.5s-1.9,2.3-1.9,4
			c0,1.5,0.5,2.8,1.6,3.8s2.6,1.4,4.5,1.4C1398.2,110,1400.6,109.1,1402.3,107.5z"/>
		<path class="st1" d="M1423.4,112.2c-2.2-1.3-4-3.2-5.3-5.6s-1.9-5.1-1.9-8.2s0.6-5.8,1.9-8.2c1.3-2.4,3-4.3,5.3-5.6
			c2.2-1.3,4.7-2,7.4-2c2.6,0,5,0.6,7.1,1.9c2.2,1.3,3.8,3,5.1,5.2c1.2,2.2,1.8,4.7,1.8,7.5c0,1.6-0.1,2.7-0.3,3.4h-23.8
			c0.3,2.8,1.4,5.1,3.3,6.9c1.9,1.7,4.2,2.6,6.8,2.6c1.8,0,3.5-0.4,4.9-1.3s2.6-2.1,3.3-3.6h4.9c-1.1,2.9-2.7,5.2-5,6.8
			c-2.3,1.6-5,2.4-8.1,2.4C1428.1,114.3,1425.6,113.6,1423.4,112.2z M1440.3,96.3c-0.2-2.8-1.1-5-2.9-6.8s-4-2.7-6.6-2.7
			c-2.7,0-5,0.9-6.8,2.7c-1.8,1.8-2.9,4-3.2,6.8H1440.3z"/>
		<path class="st1" d="M1451.6,113.6V83.1h15.9c2.6,0,4.7,0.8,6.2,2.3s2.3,3.6,2.3,6.2c0,1.5-0.4,2.9-1.1,4
			c-0.8,1.1-1.6,1.9-2.5,2.4v0.3c1.1,0.4,2.1,1.2,3,2.3c0.9,1.1,1.3,2.6,1.3,4.3c0,2.5-0.8,4.5-2.4,6.2c-1.6,1.6-3.7,2.5-6.1,2.5
			C1468.2,113.6,1451.6,113.6,1451.6,113.6z M1466.8,96.3c1.3,0,2.3-0.4,3.2-1.3c0.9-0.9,1.3-2,1.3-3.3s-0.4-2.4-1.3-3.3
			s-2-1.3-3.2-1.3h-10.7v9.2L1466.8,96.3L1466.8,96.3z M1467.5,109.7c1.3,0,2.3-0.4,3.2-1.3c0.9-0.9,1.3-2,1.3-3.4s-0.4-2.6-1.3-3.4
			c-0.9-0.9-2-1.3-3.2-1.3h-11.3v9.5L1467.5,109.7L1467.5,109.7z"/>
		<path class="st1" d="M1532.7,113.6h-5.2l-4.1-11h-21.1l-4.1,11h-5.2l16.2-42.7h7.3L1532.7,113.6z M1512.3,76.1l-8.2,22h17.7
			l-8.2-22H1512.3z"/>
		<path class="st1" d="M1533.3,114v-4.6h1.8c1.1,0,2.1-0.3,2.7-1s1.1-1.8,1.2-3.2l1.8-22h20.4v30.5h-4.6V87.4H1545l-1.5,17.7
			c-0.3,3-1.1,5.2-2.5,6.7c-1.4,1.4-3.4,2.2-6,2.2H1533.3z"/>
		<path class="st1" d="M1575.3,112.2c-2.2-1.3-4-3.2-5.3-5.6s-1.9-5.1-1.9-8.2s0.6-5.8,1.9-8.2c1.3-2.4,3-4.3,5.3-5.6
			c2.2-1.3,4.7-2,7.4-2c2.6,0,5,0.6,7.1,1.9c2.2,1.3,3.8,3,5.1,5.2c1.2,2.2,1.8,4.7,1.8,7.5c0,1.6-0.1,2.7-0.3,3.4h-23.8
			c0.3,2.8,1.4,5.1,3.3,6.9c1.9,1.7,4.2,2.6,6.8,2.6c1.8,0,3.5-0.4,4.9-1.3s2.6-2.1,3.3-3.6h4.9c-1.1,2.9-2.7,5.2-5,6.8
			c-2.3,1.6-5,2.4-8.1,2.4C1580,114.3,1577.5,113.6,1575.3,112.2z M1592.2,96.3c-0.2-2.8-1.1-5-2.9-6.8s-4-2.7-6.6-2.7
			c-2.7,0-5,0.9-6.8,2.7c-1.8,1.8-2.9,4-3.2,6.8H1592.2z"/>
		<path class="st1" d="M1608.1,113.6h-4.6V83.1h4.6v14l13.7-14h5.9L1613.1,98l15.3,15.6h-5.9L1608.1,99V113.6z"/>
		<path class="st1" d="M1636.6,112.2c-2.2-1.3-4-3.2-5.3-5.6s-1.9-5.1-1.9-8.2s0.6-5.8,1.9-8.2c1.3-2.4,3-4.3,5.3-5.6
			c2.2-1.3,4.7-2,7.4-2c3.4,0,6.3,0.9,8.7,2.8c2.4,1.9,4,4.4,4.8,7.6h-4.6c-0.6-2-1.7-3.5-3.3-4.5c-1.6-1.1-3.4-1.6-5.6-1.6
			c-1.8,0-3.5,0.5-5.1,1.4c-1.5,1-2.8,2.3-3.7,4.1c-0.9,1.8-1.3,3.8-1.3,6.1c0,2.3,0.4,4.3,1.3,6.1c0.9,1.8,2.1,3.1,3.7,4.1
			c1.5,1,3.2,1.4,5.1,1.4c2.2,0,4.1-0.5,5.6-1.6s2.6-2.7,3.2-4.8h4.6c-0.8,3.3-2.4,5.9-4.8,7.8s-5.3,2.8-8.7,2.8
			C1641.3,114.3,1638.8,113.6,1636.6,112.2z"/>
		<path class="st1" d="M1665.6,111.6c-2-1.8-3-4-3-6.8c0-3,1-5.4,3-7.2c2-1.7,5.1-2.6,9.2-2.6h8.2v-0.9c0-2.3-0.7-4.1-2-5.4
			s-3.1-2-5.4-2c-2.2,0-4,0.5-5.3,1.5c-1.4,1-2.1,2.2-2.3,3.7h-4.6c0.1-1.7,0.7-3.2,1.6-4.7c1-1.4,2.4-2.6,4.2-3.5
			c1.8-0.9,3.9-1.3,6.4-1.3c3.7,0,6.6,1,8.7,3.1s3.2,4.9,3.2,8.5v19.5h-4l-0.6-3.7h-0.3c-0.7,1.1-1.9,2.1-3.6,3s-3.7,1.3-5.9,1.3
			C1670.2,114.3,1667.6,113.4,1665.6,111.6z M1680.5,107.5c1.7-1.7,2.6-4,2.6-6.9v-1.2h-8.2c-2.6,0-4.5,0.5-5.8,1.5
			c-1.2,1-1.9,2.3-1.9,4c0,1.5,0.5,2.8,1.6,3.8s2.6,1.4,4.5,1.4C1676.4,110,1678.8,109.1,1680.5,107.5z"/>
		<path class="st1" d="M1700.8,113.6h-4.6V83.1h4.6v13.1h16.2V83.1h4.6v30.5h-4.6v-13.1h-16.2V113.6z"/>
		<path class="st1" d="M1725.8,121v-11.6h0.6c1.4,0,2.4-0.3,3.1-1s1.1-1.8,1.2-3.3l1.8-22h20.4v26.2h4.3V121h-4.6v-7.3h-22.3v7.3
			H1725.8z M1748.4,109.4v-22h-11.6l-1.5,17.7c-0.1,1.1-0.3,2-0.6,2.8c-0.3,0.8-0.6,1.3-0.9,1.5
			C1733.8,109.4,1748.4,109.4,1748.4,109.4z"/>
		<path class="st1" d="M1762.7,125.8V83.1h4l0.6,4.3h0.3c1.3-1.6,2.7-2.8,4.3-3.6c1.6-0.8,3.4-1.3,5.5-1.3c2.6,0,5,0.7,7.2,2
			c2.1,1.3,3.8,3.2,5,5.6s1.8,5.1,1.8,8.2s-0.6,5.8-1.8,8.2c-1.2,2.4-2.9,4.3-5,5.6c-2.1,1.3-4.5,2-7.2,2c-2.1,0-3.9-0.4-5.5-1.3
			s-3-2-4.3-3.6h-0.3v16.5h-4.6V125.8z M1781.9,108.5c1.5-1,2.7-2.3,3.6-4.1c0.9-1.7,1.3-3.8,1.3-6c0-2.3-0.4-4.3-1.3-6
			s-2.1-3.1-3.6-4.1s-3.1-1.5-4.8-1.5c-1.7,0-3.4,0.5-4.8,1.5c-1.5,1-2.7,2.3-3.6,4.1c-0.9,1.7-1.3,3.8-1.3,6c0,2.3,0.4,4.3,1.3,6
			s2.1,3.1,3.6,4.1s3.1,1.5,4.8,1.5S1780.4,109.5,1781.9,108.5z"/>
		<path class="st1" d="M1847.5,113.6h-5.2l-4.1-11h-21.1l-4.1,11h-5.2l16.2-42.7h7.3L1847.5,113.6z M1827,76.1l-8.2,22h17.7l-8.2-22
			H1827z"/>
		<path class="st1" d="M1856.3,113.6h-4.6V83.1h4.6v13.1h16.2V83.1h4.6v30.5h-4.6v-13.1h-16.2V113.6z"/>
		<path class="st1" d="M1887.3,111.6c-2-1.8-3-4-3-6.8c0-3,1-5.4,3-7.2c2-1.7,5.1-2.6,9.2-2.6h8.2v-0.9c0-2.3-0.7-4.1-2-5.4
			s-3.1-2-5.4-2c-2.2,0-4,0.5-5.3,1.5c-1.4,1-2.1,2.2-2.3,3.7h-4.6c0.1-1.7,0.7-3.2,1.6-4.7c1-1.4,2.4-2.6,4.2-3.5
			c1.8-0.9,3.9-1.3,6.4-1.3c3.7,0,6.6,1,8.7,3.1s3.2,4.9,3.2,8.5v19.5h-4l-0.6-3.7h-0.3c-0.7,1.1-1.9,2.1-3.6,3s-3.7,1.3-5.9,1.3
			C1891.9,114.3,1889.3,113.4,1887.3,111.6z M1902.2,107.5c1.7-1.7,2.6-4,2.6-6.9v-1.2h-8.2c-2.6,0-4.5,0.5-5.8,1.5
			c-1.2,1-1.9,2.3-1.9,4c0,1.5,0.5,2.8,1.6,3.8s2.6,1.4,4.5,1.4C1898.1,110,1900.5,109.1,1902.2,107.5z"/>
		<path class="st1" d="M1928.3,113.6h-4.6V87.4h-10.4v-4.3h25.3v4.3h-10.4L1928.3,113.6L1928.3,113.6z"/>
		<path class="st1" d="M1948,112.2c-2.2-1.3-4-3.2-5.3-5.6s-1.9-5.1-1.9-8.2s0.6-5.8,1.9-8.2c1.3-2.4,3-4.3,5.3-5.6
			c2.2-1.3,4.7-2,7.4-2c2.7,0,5.2,0.7,7.4,2c2.2,1.3,4,3.2,5.3,5.6s1.9,5.1,1.9,8.2s-0.6,5.8-1.9,8.2c-1.3,2.4-3,4.3-5.3,5.6
			c-2.2,1.3-4.7,2-7.4,2C1952.7,114.3,1950.2,113.6,1948,112.2z M1960.5,108.6c1.5-1,2.8-2.3,3.7-4.1c0.9-1.8,1.3-3.8,1.3-6.1
			c0-2.3-0.4-4.3-1.3-6.1c-0.9-1.8-2.1-3.1-3.7-4.1c-1.5-1-3.2-1.4-5.1-1.4s-3.5,0.5-5.1,1.4c-1.5,1-2.8,2.3-3.7,4.1
			c-0.9,1.8-1.3,3.8-1.3,6.1c0,2.3,0.4,4.3,1.3,6.1c0.9,1.8,2.1,3.1,3.7,4.1c1.5,1,3.2,1.4,5.1,1.4S1959,109.5,1960.5,108.6z"/>
		<path class="st1" d="M1971.9,114v-4.6h1.8c1.1,0,2.1-0.3,2.7-1s1.1-1.8,1.2-3.2l1.8-22h20.4v30.5h-4.6V87.4h-11.6l-1.5,17.7
			c-0.3,3-1.1,5.2-2.5,6.7c-1.4,1.4-3.4,2.2-6,2.2H1971.9z"/>
		<path class="st1" d="M2008.5,113.6V83.1h4.6v10.4h9.5c2,0,3.8,0.4,5.4,1.3s2.8,2.1,3.7,3.6c0.9,1.5,1.3,3.2,1.3,5.2
			c0,1.9-0.4,3.6-1.3,5.2c-0.9,1.5-2.1,2.7-3.7,3.6s-3.4,1.3-5.4,1.3L2008.5,113.6L2008.5,113.6z M2022.5,109.4c1.7,0,3-0.5,4.1-1.6
			s1.6-2.5,1.6-4.1c0-1.7-0.5-3-1.6-4.1s-2.5-1.6-4.1-1.6h-9.5v11.6h9.5V109.4z"/>
		<path class="st1" d="M2044.4,112.2c-2.2-1.3-4-3.2-5.3-5.6s-1.9-5.1-1.9-8.2s0.6-5.8,1.9-8.2c1.3-2.4,3-4.3,5.3-5.6
			c2.2-1.3,4.7-2,7.4-2c2.6,0,5,0.6,7.1,1.9c2.2,1.3,3.8,3,5.1,5.2c1.2,2.2,1.8,4.7,1.8,7.5c0,1.6-0.1,2.7-0.3,3.4h-23.8
			c0.3,2.8,1.4,5.1,3.3,6.9c1.9,1.7,4.2,2.6,6.8,2.6c1.8,0,3.5-0.4,4.9-1.3s2.6-2.1,3.3-3.6h4.9c-1.1,2.9-2.7,5.2-5,6.8
			c-2.3,1.6-5,2.4-8.1,2.4C2049.1,114.3,2046.6,113.6,2044.4,112.2z M2061.3,96.3c-0.2-2.8-1.1-5-2.9-6.8c-1.8-1.8-4-2.7-6.6-2.7
			c-2.7,0-5,0.9-6.8,2.7c-1.8,1.8-2.9,4-3.2,6.8H2061.3z"/>
		<path class="st1" d="M2072.6,113.6V83.1h15.9c2.6,0,4.7,0.8,6.2,2.3s2.3,3.6,2.3,6.2c0,1.5-0.4,2.9-1.1,4
			c-0.8,1.1-1.6,1.9-2.5,2.4v0.3c1.1,0.4,2.1,1.2,3,2.3c0.9,1.1,1.3,2.6,1.3,4.3c0,2.5-0.8,4.5-2.4,6.2c-1.6,1.6-3.7,2.5-6.1,2.5
			C2089.2,113.6,2072.6,113.6,2072.6,113.6z M2087.8,96.3c1.3,0,2.3-0.4,3.2-1.3s1.3-2,1.3-3.3s-0.4-2.4-1.3-3.3s-2-1.3-3.2-1.3
			h-10.7v9.2L2087.8,96.3L2087.8,96.3z M2088.4,109.7c1.3,0,2.3-0.4,3.2-1.3s1.3-2,1.3-3.4s-0.4-2.6-1.3-3.4c-0.9-0.9-2-1.3-3.2-1.3
			h-11.3v9.5L2088.4,109.7L2088.4,109.7z"/>
		<path class="st1" d="M2112.2,113.6h-7.9V83.1h4.6v25h1.2l11.6-25h7.9v30.5h-4.6v-25h-1.2L2112.2,113.6z"/>
		<path class="st1" d="M2156.7,101.8c-1.3,0.9-2.7,1.5-4.1,1.9c-1.4,0.4-3,0.5-4.7,0.5c-3.7,0-6.4-1-8.2-2.9s-2.7-4.8-2.7-8.7v-9.5
			h4.6v9.5c0,2.4,0.6,4.3,1.8,5.5s2.9,1.8,5.2,1.8c1.6,0,3.1-0.2,4.4-0.7c1.3-0.4,2.6-1.1,3.8-2.1v-14h4.6v30.5h-4.6v-11.8H2156.7z"
			/>
		<path class="st1" d="M1284.8,178.6h-4.9v-42.7h26.8v4.6h-22L1284.8,178.6L1284.8,178.6z"/>
		<path class="st1" d="M1311.5,177.2c-2.2-1.3-4-3.2-5.3-5.6c-1.3-2.4-1.9-5.1-1.9-8.2c0-3.1,0.6-5.8,1.9-8.2s3-4.3,5.3-5.6
			c2.2-1.3,4.7-2,7.4-2c2.6,0,5,0.6,7.1,1.9s3.8,3,5.1,5.2c1.2,2.2,1.8,4.7,1.8,7.5c0,1.6-0.1,2.7-0.3,3.4h-23.8
			c0.3,2.8,1.4,5.1,3.3,6.9c1.9,1.7,4.2,2.6,6.8,2.6c1.8,0,3.5-0.4,4.9-1.3c1.4-0.9,2.6-2.1,3.3-3.6h4.9c-1.1,2.9-2.7,5.2-5,6.8
			s-5,2.4-8.1,2.4C1316.2,179.3,1313.7,178.6,1311.5,177.2z M1328.4,161.3c-0.2-2.8-1.1-5-2.9-6.8s-4-2.7-6.6-2.7
			c-2.7,0-5,0.9-6.8,2.7s-2.9,4-3.2,6.8H1328.4z"/>
		<path class="st1" d="M1344.2,178.6h-4.6v-30.5h4.6v13.1h16.2v-13.1h4.6v30.5h-4.6v-13.1h-16.2V178.6z"/>
		<path class="st1" d="M1378.9,177.2c-2.2-1.3-4-3.2-5.3-5.6c-1.3-2.4-1.9-5.1-1.9-8.2c0-3.1,0.6-5.8,1.9-8.2s3-4.3,5.3-5.6
			c2.2-1.3,4.7-2,7.4-2c2.6,0,5,0.6,7.1,1.9c2.2,1.3,3.8,3,5.1,5.2c1.2,2.2,1.8,4.7,1.8,7.5c0,1.6-0.1,2.7-0.3,3.4h-23.8
			c0.3,2.8,1.4,5.1,3.3,6.9c1.9,1.7,4.2,2.6,6.8,2.6c1.8,0,3.5-0.4,4.9-1.3c1.4-0.9,2.6-2.1,3.3-3.6h4.9c-1.1,2.9-2.7,5.2-5,6.8
			s-5,2.4-8.1,2.4C1383.6,179.3,1381.1,178.6,1378.9,177.2z M1395.8,161.3c-0.2-2.8-1.1-5-2.9-6.8s-4-2.7-6.6-2.7
			c-2.7,0-5,0.9-6.8,2.7s-2.9,4-3.2,6.8H1395.8z"/>
		<path class="st1" d="M1407.1,190.8v-42.7h4l0.6,4.3h0.3c1.3-1.6,2.7-2.8,4.3-3.6c1.6-0.8,3.4-1.3,5.5-1.3c2.6,0,5,0.7,7.2,2
			c2.1,1.3,3.8,3.2,5,5.6c1.2,2.4,1.8,5.1,1.8,8.2c0,3.1-0.6,5.8-1.8,8.2c-1.2,2.4-2.9,4.3-5,5.6s-4.5,2-7.2,2
			c-2.1,0-3.9-0.4-5.5-1.3s-3-2-4.3-3.6h-0.3v16.5h-4.6V190.8z M1426.2,173.5c1.5-1,2.7-2.3,3.6-4.1c0.9-1.7,1.3-3.8,1.3-6
			c0-2.3-0.4-4.3-1.3-6s-2.1-3.1-3.6-4.1s-3.1-1.5-4.8-1.5s-3.4,0.5-4.8,1.5s-2.7,2.3-3.6,4.1c-0.9,1.7-1.3,3.8-1.3,6
			c0,2.3,0.4,4.3,1.3,6s2.1,3.1,3.6,4.1s3.1,1.5,4.8,1.5S1424.8,174.5,1426.2,173.5z"/>
		<path class="st1" d="M1444.2,176.6c-2-1.8-3-4-3-6.8c0-3,1-5.4,3-7.2c2-1.7,5.1-2.6,9.2-2.6h8.2v-0.9c0-2.3-0.7-4.1-2-5.4
			c-1.3-1.3-3.1-2-5.4-2c-2.2,0-4,0.5-5.3,1.5c-1.4,1-2.1,2.2-2.3,3.7h-4.6c0.1-1.7,0.7-3.2,1.6-4.7c1-1.4,2.4-2.6,4.2-3.5
			c1.8-0.9,3.9-1.3,6.4-1.3c3.7,0,6.6,1,8.7,3.1s3.2,4.9,3.2,8.5v19.5h-4l-0.6-3.7h-0.3c-0.7,1.1-1.9,2.1-3.6,3s-3.7,1.3-5.9,1.3
			C1448.7,179.3,1446.2,178.4,1444.2,176.6z M1459.1,172.5c1.7-1.7,2.6-4,2.6-6.9v-1.2h-8.2c-2.6,0-4.5,0.5-5.8,1.5s-1.9,2.3-1.9,4
			c0,1.5,0.5,2.8,1.6,3.8s2.6,1.4,4.5,1.4C1454.9,175,1457.3,174.1,1459.1,172.5z"/>
		<path class="st1" d="M1471.1,179v-4.6h1.8c1.1,0,2.1-0.3,2.7-1s1.1-1.8,1.2-3.2l1.8-22h20.4v30.5h-4.6v-26.2H1483l-1.5,17.7
			c-0.3,3-1.1,5.2-2.5,6.7c-1.4,1.4-3.4,2.2-6,2.2L1471.1,179L1471.1,179z"/>
		<path class="st1" d="M1507.7,178.6v-30.5h4.6v10.4h9.5c2,0,3.8,0.4,5.4,1.3c1.6,0.9,2.8,2.1,3.7,3.6c0.9,1.5,1.3,3.2,1.3,5.2
			c0,1.9-0.4,3.6-1.3,5.2c-0.9,1.5-2.1,2.7-3.7,3.6c-1.6,0.9-3.4,1.3-5.4,1.3h-14.1V178.6z M1521.7,174.4c1.7,0,3-0.5,4.1-1.6
			s1.6-2.5,1.6-4.1c0-1.7-0.5-3-1.6-4.1s-2.5-1.6-4.1-1.6h-9.5v11.6h9.5V174.4z"/>
		<path class="st1" d="M1542.8,178.6h-4.6v-30.5h4.6v13.1h16.2v-13.1h4.6v30.5h-4.6v-13.1h-16.2V178.6z"/>
		<path class="st1" d="M1572.1,178.6v-30.5h4.6v10.4h8.2c2,0,3.8,0.4,5.4,1.3c1.6,0.9,2.8,2.1,3.7,3.6c0.9,1.5,1.3,3.2,1.3,5.2
			c0,1.9-0.4,3.6-1.3,5.2c-0.9,1.5-2.1,2.7-3.7,3.6c-1.6,0.9-3.4,1.3-5.4,1.3h-12.8V178.6z M1584.9,174.4c1.7,0,3-0.5,4.1-1.6
			s1.6-2.5,1.6-4.1c0-1.7-0.5-3-1.6-4.1s-2.5-1.6-4.1-1.6h-8.2v11.6h8.2V174.4z M1604.4,178.6h-4.6v-30.5h4.6V178.6z"/>
		<path class="st1" d="M1620.9,178.6h-7.9v-30.5h4.6v25h1.2l11.6-25h7.9v30.5h-4.6v-25h-1.2L1620.9,178.6z M1619.9,140.9
			c-1.6-1.4-2.5-3.2-2.7-5.5h4c0.2,1.3,0.7,2.4,1.5,3.1c0.8,0.8,1.9,1.1,3.1,1.1c1.3,0,2.3-0.4,3.1-1.1c0.8-0.8,1.3-1.8,1.5-3.1h4
			c-0.2,2.3-1,4.1-2.7,5.5c-1.6,1.4-3.6,2.1-5.9,2.1S1621.5,142.3,1619.9,140.9z"/>
		<path class="st1" d="M1656.6,186v-11.6h0.6c1.4,0,2.4-0.3,3.1-1s1.1-1.8,1.2-3.3l1.8-22h20.4v26.2h4.3V186h-4.6v-7.3h-22.3v7.3
			H1656.6z M1679.1,174.4v-22h-11.6l-1.5,17.7c-0.1,1.1-0.3,2-0.6,2.8c-0.3,0.8-0.6,1.3-0.9,1.5H1679.1z"/>
		<path class="st1" d="M1701.4,178.6h-7.9v-30.5h4.6v25h1.2l11.6-25h7.9v30.5h-4.6v-25h-1.2L1701.4,178.6z"/>
		<path class="st1" d="M1727.3,190.8v-42.7h4l0.6,4.3h0.3c1.3-1.6,2.7-2.8,4.3-3.6c1.6-0.8,3.4-1.3,5.5-1.3c2.6,0,5,0.7,7.2,2
			c2.1,1.3,3.8,3.2,5,5.6c1.2,2.4,1.8,5.1,1.8,8.2c0,3.1-0.6,5.8-1.8,8.2c-1.2,2.4-2.9,4.3-5,5.6s-4.5,2-7.2,2
			c-2.1,0-3.9-0.4-5.5-1.3s-3-2-4.3-3.6h-0.3v16.5h-4.6V190.8z M1746.5,173.5c1.5-1,2.7-2.3,3.6-4.1c0.9-1.7,1.3-3.8,1.3-6
			c0-2.3-0.4-4.3-1.3-6s-2.1-3.1-3.6-4.1s-3.1-1.5-4.8-1.5c-1.7,0-3.4,0.5-4.8,1.5c-1.5,1-2.7,2.3-3.6,4.1c-0.9,1.7-1.3,3.8-1.3,6
			c0,2.3,0.4,4.3,1.3,6s2.1,3.1,3.6,4.1s3.1,1.5,4.8,1.5S1745,174.5,1746.5,173.5z"/>
		<path class="st1" d="M1768.1,177.2c-2.2-1.3-4-3.2-5.3-5.6s-1.9-5.1-1.9-8.2c0-3.1,0.6-5.8,1.9-8.2s3-4.3,5.3-5.6
			c2.2-1.3,4.7-2,7.4-2c2.6,0,5,0.6,7.1,1.9c2.2,1.3,3.8,3,5.1,5.2c1.2,2.2,1.8,4.7,1.8,7.5c0,1.6-0.1,2.7-0.3,3.4h-23.8
			c0.3,2.8,1.4,5.1,3.3,6.9c1.9,1.7,4.2,2.6,6.8,2.6c1.8,0,3.5-0.4,4.9-1.3c1.4-0.9,2.6-2.1,3.3-3.6h4.9c-1.1,2.9-2.7,5.2-5,6.8
			s-5,2.4-8.1,2.4C1772.8,179.3,1770.3,178.6,1768.1,177.2z M1785,161.3c-0.2-2.8-1.1-5-2.9-6.8s-4-2.7-6.6-2.7
			c-2.7,0-5,0.9-6.8,2.7s-2.9,4-3.2,6.8H1785z"/>
		<path class="st1" d="M1800.8,178.6h-4.6v-30.5h4.6v14l13.7-14h5.9l-14.6,14.9l15.3,15.6h-5.9l-14.3-14.6L1800.8,178.6
			L1800.8,178.6z"/>
		<path class="st1" d="M1836.8,178.6h-4.6v-26.2h-10.4v-4.3h25.3v4.3h-10.4L1836.8,178.6L1836.8,178.6z"/>
		<path class="st1" d="M1856.5,177.2c-2.2-1.3-4-3.2-5.3-5.6s-1.9-5.1-1.9-8.2c0-3.1,0.6-5.8,1.9-8.2s3-4.3,5.3-5.6
			c2.2-1.3,4.7-2,7.4-2c2.7,0,5.2,0.7,7.4,2c2.2,1.3,4,3.2,5.3,5.6c1.3,2.4,1.9,5.1,1.9,8.2c0,3.1-0.6,5.8-1.9,8.2s-3,4.3-5.3,5.6
			c-2.2,1.3-4.7,2-7.4,2C1861.2,179.3,1858.7,178.6,1856.5,177.2z M1869,173.6c1.5-1,2.8-2.3,3.7-4.1c0.9-1.8,1.3-3.8,1.3-6.1
			s-0.4-4.3-1.3-6.1s-2.1-3.1-3.7-4.1c-1.5-1-3.2-1.4-5.1-1.4s-3.5,0.5-5.1,1.4c-1.5,1-2.8,2.3-3.7,4.1c-0.9,1.8-1.3,3.8-1.3,6.1
			s0.4,4.3,1.3,6.1s2.1,3.1,3.7,4.1c1.5,1,3.2,1.4,5.1,1.4S1867.5,174.5,1869,173.6z"/>
		<path class="st1" d="M1885.3,190.8v-42.7h4l0.6,4.3h0.3c1.3-1.6,2.7-2.8,4.3-3.6c1.6-0.8,3.4-1.3,5.5-1.3c2.6,0,5,0.7,7.2,2
			c2.1,1.3,3.8,3.2,5,5.6c1.2,2.4,1.8,5.1,1.8,8.2c0,3.1-0.6,5.8-1.8,8.2c-1.2,2.4-2.9,4.3-5,5.6s-4.5,2-7.2,2
			c-2.1,0-3.9-0.4-5.5-1.3s-3-2-4.3-3.6h-0.3v16.5h-4.6V190.8z M1904.5,173.5c1.5-1,2.7-2.3,3.6-4.1c0.9-1.7,1.3-3.8,1.3-6
			c0-2.3-0.4-4.3-1.3-6s-2.1-3.1-3.6-4.1s-3.1-1.5-4.8-1.5c-1.7,0-3.4,0.5-4.8,1.5c-1.5,1-2.7,2.3-3.6,4.1c-0.9,1.7-1.3,3.8-1.3,6
			c0,2.3,0.4,4.3,1.3,6s2.1,3.1,3.6,4.1s3.1,1.5,4.8,1.5S1903,174.5,1904.5,173.5z"/>
	</g>
</g>
<g>
	<g>
		<path class="st1" d="M1293.6,320h-4.6v-11.9h-11v-4.3h11v-11.9h4.6v11.9h11v4.3h-11V320z"/>
		<path class="st1" d="M1320.8,323.6h-5.2l15-38.1h-21.4v-4.6h26.8v4L1320.8,323.6z"/>
		<path class="st1" d="M1363.4,335.8c-2.8-4.2-5-8.7-6.4-13.5s-2.1-9.8-2.1-14.9s0.7-10.1,2.1-14.9s3.6-9.3,6.4-13.5h4.9
			c-3,4.2-5.2,8.7-6.6,13.5c-1.5,4.8-2.2,9.8-2.2,14.9c0,5.2,0.7,10.1,2.2,14.9s3.7,9.3,6.6,13.5H1363.4z"/>
		<path class="st1" d="M1380.2,323.6l10.1-15.9h-0.3c-1.3,0.4-2.6,0.6-4,0.6c-2.5,0-4.8-0.6-6.9-1.8c-2.1-1.2-3.8-2.8-5-4.9
			s-1.8-4.4-1.8-7s0.6-5,2-7.2c1.3-2.2,3.1-3.9,5.3-5.2c2.2-1.3,4.7-1.9,7.4-1.9c2.7,0,5.1,0.6,7.4,1.9c2.2,1.3,4,3,5.3,5.2
			s2,4.6,2,7.2c0,1.4-0.2,2.9-0.7,4.5c-0.5,1.5-1.1,2.8-1.7,3.8l-13.4,20.7L1380.2,323.6L1380.2,323.6z M1391.9,303.2
			c1.5-0.9,2.7-2,3.5-3.5c0.9-1.5,1.3-3.2,1.3-4.9c0-1.8-0.4-3.4-1.3-4.9s-2-2.7-3.5-3.5c-1.5-0.9-3.2-1.3-4.9-1.3s-3.4,0.4-4.9,1.3
			s-2.7,2-3.5,3.5c-0.9,1.5-1.3,3.2-1.3,4.9c0,1.8,0.4,3.4,1.3,4.9s2,2.7,3.5,3.5c1.5,0.9,3.2,1.3,4.9,1.3S1390.4,304,1391.9,303.2z
			"/>
		<path class="st1" d="M1415.6,321.7c-2.5-1.7-4.5-4.2-6-7.5s-2.2-7.3-2.2-11.9s0.7-8.5,2.2-11.9c1.5-3.3,3.5-5.8,6-7.5
			s5.3-2.6,8.3-2.6s5.8,0.9,8.3,2.6s4.5,4.2,6,7.5s2.2,7.3,2.2,11.9s-0.7,8.5-2.2,11.9s-3.5,5.8-6,7.5s-5.3,2.6-8.3,2.6
			C1420.8,324.3,1418.1,323.4,1415.6,321.7z M1429.6,317.7c1.8-1.3,3.2-3.3,4.2-5.9c1.1-2.6,1.6-5.8,1.6-9.5s-0.5-6.9-1.6-9.5
			s-2.5-4.6-4.2-5.9c-1.8-1.3-3.7-2-5.8-2c-2.1,0-4,0.7-5.8,2s-3.2,3.3-4.2,5.9s-1.6,5.8-1.6,9.5s0.5,6.9,1.6,9.5s2.5,4.6,4.2,5.9
			c1.8,1.3,3.7,2,5.8,2S1427.8,319,1429.6,317.7z"/>
		<path class="st1" d="M1453.9,322.9c-2-0.9-3.7-2.3-5-4.1c-1.3-1.8-2.1-3.9-2.4-6.4h4.9c0.4,2.3,1.5,4.1,3.2,5.4s3.7,2,6,2
			c1.8,0,3.4-0.4,4.9-1.3s2.7-2.1,3.5-3.6c0.9-1.5,1.3-3.2,1.3-5.1c0-2.9-0.9-5.3-2.7-7.1s-4-2.7-6.8-2.7c-1.7,0-3.3,0.3-4.7,0.9
			c-1.4,0.6-2.6,1.5-3.5,2.7h-5.2l2.4-22.6h22.9v4.6h-18.8l-1.3,12.5h0.3c1.1-0.9,2.3-1.6,3.8-2c1.5-0.5,3-0.7,4.8-0.7
			c2.4,0,4.7,0.6,6.8,1.9c2.1,1.3,3.8,3,5,5.2c1.3,2.2,1.9,4.7,1.9,7.4c0,2.8-0.6,5.3-1.9,7.5s-3,3.9-5.2,5.2
			c-2.2,1.2-4.7,1.9-7.5,1.9C1458.1,324.3,1455.9,323.8,1453.9,322.9z"/>
		<path class="st1" d="M1479.7,335.8c3-4.2,5.2-8.7,6.6-13.5c1.5-4.8,2.2-9.7,2.2-14.9c0-5.2-0.7-10.1-2.2-14.9s-3.7-9.3-6.6-13.5
			h4.9c2.8,4.2,5,8.7,6.4,13.5s2.1,9.8,2.1,14.9s-0.7,10.1-2.1,14.9s-3.6,9.3-6.4,13.5H1479.7z"/>
		<path class="st1" d="M1514.7,323.6v-4l17.4-18.6c1.3-1.4,2.2-2.7,2.8-3.8c0.6-1.2,0.9-2.5,0.9-4.1c0-2.4-0.8-4.4-2.3-5.9
			s-3.5-2.3-5.9-2.3c-1.5,0-2.9,0.4-4.1,1.2c-1.3,0.8-2.3,1.9-3,3.2c-0.7,1.4-1.1,3-1.1,4.8h-4.9c0-2.6,0.6-5,1.7-7
			c1.1-2.1,2.7-3.7,4.7-4.9c2-1.2,4.2-1.8,6.8-1.8c2.5,0,4.8,0.5,6.8,1.6s3.5,2.6,4.7,4.5c1.1,1.9,1.7,4.2,1.7,6.7
			c0,2.4-0.4,4.4-1.3,6.1s-2.2,3.4-3.9,5.2l-13.7,14.3v0.3h19.8v4.6h-27.1V323.6z"/>
		<path class="st1" d="M1555.6,321.7c-2.5-1.7-4.5-4.2-6-7.5s-2.2-7.3-2.2-11.9s0.7-8.5,2.2-11.9c1.5-3.3,3.5-5.8,6-7.5
			s5.3-2.6,8.3-2.6s5.8,0.9,8.3,2.6s4.5,4.2,6,7.5s2.2,7.3,2.2,11.9s-0.7,8.5-2.2,11.9s-3.5,5.8-6,7.5s-5.3,2.6-8.3,2.6
			C1560.8,324.3,1558.1,323.4,1555.6,321.7z M1569.6,317.7c1.8-1.3,3.2-3.3,4.2-5.9c1.1-2.6,1.6-5.8,1.6-9.5s-0.5-6.9-1.6-9.5
			s-2.5-4.6-4.2-5.9c-1.8-1.3-3.7-2-5.8-2s-4,0.7-5.8,2s-3.2,3.3-4.2,5.9c-1.1,2.6-1.6,5.8-1.6,9.5s0.5,6.9,1.6,9.5s2.5,4.6,4.2,5.9
			c1.8,1.3,3.7,2,5.8,2S1567.8,319,1569.6,317.7z"/>
		<path class="st1" d="M1585.8,323.6v-4l17.4-18.6c1.3-1.4,2.2-2.7,2.8-3.8c0.6-1.2,0.9-2.5,0.9-4.1c0-2.4-0.8-4.4-2.3-5.9
			s-3.5-2.3-5.9-2.3c-1.5,0-2.9,0.4-4.1,1.2c-1.3,0.8-2.3,1.9-3,3.2c-0.7,1.4-1.1,3-1.1,4.8h-4.9c0-2.6,0.6-5,1.7-7
			c1.1-2.1,2.7-3.7,4.7-4.9c2-1.2,4.2-1.8,6.8-1.8c2.5,0,4.8,0.5,6.8,1.6s3.5,2.6,4.7,4.5c1.1,1.9,1.7,4.2,1.7,6.7
			c0,2.4-0.4,4.4-1.3,6.1s-2.2,3.4-3.9,5.2l-13.7,14.3v0.3h19.8v4.6h-27.1V323.6z"/>
		<path class="st1" d="M1637.3,308.4h-19.5v-4.3h19.5V308.4z"/>
		<path class="st1" d="M1649.8,322.3c-2.2-1.3-4-3-5.3-5.2s-2-4.6-2-7.2c0-1.4,0.2-2.9,0.7-4.5c0.5-1.5,1.1-2.8,1.7-3.8l13.4-20.7
			h5.5l-10.1,15.9h0.3c1.3-0.4,2.7-0.6,4-0.6c2.5,0,4.8,0.6,6.9,1.8c2.1,1.2,3.8,2.8,5,4.9s1.8,4.4,1.8,7s-0.7,5-2,7.2
			s-3.1,3.9-5.3,5.2c-2.2,1.3-4.7,1.9-7.4,1.9S1652,323.6,1649.8,322.3z M1662.1,318.4c1.5-0.9,2.7-2,3.5-3.5
			c0.9-1.5,1.3-3.2,1.3-4.9c0-1.8-0.4-3.4-1.3-4.9s-2-2.7-3.5-3.5c-1.5-0.9-3.2-1.3-4.9-1.3c-1.8,0-3.4,0.4-4.9,1.3s-2.7,2-3.5,3.5
			c-0.9,1.5-1.3,3.2-1.3,4.9c0,1.8,0.4,3.4,1.3,4.9s2,2.7,3.5,3.5c1.5,0.9,3.2,1.3,4.9,1.3C1658.9,319.7,1660.6,319.3,1662.1,318.4z
			"/>
		<path class="st1" d="M1684.4,322.9c-2-0.9-3.7-2.3-5-4.1c-1.3-1.8-2.1-3.9-2.4-6.4h4.9c0.4,2.3,1.5,4.1,3.2,5.4s3.7,2,6,2
			c1.8,0,3.4-0.4,4.9-1.3s2.7-2.1,3.5-3.6c0.9-1.5,1.3-3.2,1.3-5.1c0-2.9-0.9-5.3-2.7-7.1c-1.8-1.8-4-2.7-6.8-2.7
			c-1.7,0-3.3,0.3-4.7,0.9c-1.4,0.6-2.6,1.5-3.5,2.7h-5.2l2.4-22.6h22.9v4.6h-18.8l-1.3,12.5h0.3c1.1-0.9,2.3-1.6,3.8-2
			c1.5-0.5,3.1-0.7,4.8-0.7c2.4,0,4.7,0.6,6.8,1.9c2.1,1.3,3.8,3,5,5.2c1.3,2.2,1.9,4.7,1.9,7.4c0,2.8-0.6,5.3-1.9,7.5
			s-3,3.9-5.2,5.2c-2.2,1.2-4.7,1.9-7.5,1.9C1688.7,324.3,1686.5,323.8,1684.4,322.9z"/>
		<path class="st1" d="M1731,308.4h-19.5v-4.3h19.5V308.4z"/>
		<path class="st1" d="M1744.4,323.6h-5.2l15-38.1h-21.4v-4.6h26.8v4L1744.4,323.6z"/>
		<path class="st1" d="M1771.8,323.6l10.1-15.9h-0.3c-1.3,0.4-2.6,0.6-4,0.6c-2.5,0-4.8-0.6-6.9-1.8s-3.8-2.8-5-4.9s-1.8-4.4-1.8-7
			s0.6-5,2-7.2c1.3-2.2,3.1-3.9,5.3-5.2c2.2-1.3,4.7-1.9,7.4-1.9s5.1,0.6,7.4,1.9c2.2,1.3,4,3,5.3,5.2s2,4.6,2,7.2
			c0,1.4-0.2,2.9-0.7,4.5c-0.5,1.5-1.1,2.8-1.7,3.8l-13.4,20.7L1771.8,323.6L1771.8,323.6z M1783.5,303.2c1.5-0.9,2.7-2,3.5-3.5
			c0.9-1.5,1.3-3.2,1.3-4.9c0-1.8-0.4-3.4-1.3-4.9s-2-2.7-3.5-3.5c-1.5-0.9-3.2-1.3-4.9-1.3c-1.8,0-3.4,0.4-4.9,1.3s-2.7,2-3.5,3.5
			c-0.9,1.5-1.3,3.2-1.3,4.9c0,1.8,0.4,3.4,1.3,4.9s2,2.7,3.5,3.5c1.5,0.9,3.2,1.3,4.9,1.3C1780.3,304.4,1782,304,1783.5,303.2z"/>
		<path class="st1" d="M1288.7,388c-1.6-0.8-3-2-4.3-3.6h-0.3l-0.6,4.3h-4V346h4.6v16.5h0.3c1.3-1.6,2.7-2.8,4.3-3.6
			c1.6-0.8,3.4-1.3,5.5-1.3c2.6,0,5,0.7,7.2,2c2.1,1.3,3.8,3.2,5,5.6s1.8,5.1,1.8,8.2s-0.6,5.8-1.8,8.2c-1.2,2.4-2.9,4.3-5,5.6
			c-2.1,1.3-4.5,2-7.2,2C1292.1,389.3,1290.3,388.8,1288.7,388z M1298.8,383.5c1.5-1,2.7-2.3,3.6-4.1c0.9-1.7,1.3-3.8,1.3-6
			c0-2.3-0.4-4.3-1.3-6s-2.1-3.1-3.6-4.1s-3.1-1.5-4.8-1.5s-3.4,0.5-4.8,1.5s-2.7,2.3-3.6,4.1c-0.9,1.7-1.3,3.8-1.3,6
			c0,2.3,0.4,4.3,1.3,6s2.1,3.1,3.6,4.1s3.1,1.5,4.8,1.5S1297.3,384.5,1298.8,383.5z"/>
		<path class="st1" d="M1316.7,386.6c-2-1.8-3-4-3-6.8c0-3,1-5.4,3-7.2c2-1.7,5.1-2.6,9.2-2.6h8.2v-0.9c0-2.3-0.7-4.1-2-5.4
			s-3.1-2-5.4-2c-2.2,0-4,0.5-5.3,1.5c-1.4,1-2.1,2.2-2.3,3.7h-4.6c0.1-1.7,0.7-3.2,1.6-4.7c1-1.4,2.4-2.6,4.2-3.5
			c1.8-0.9,3.9-1.3,6.4-1.3c3.7,0,6.6,1,8.7,3.1s3.2,4.9,3.2,8.5v19.5h-4l-0.6-3.7h-0.3c-0.7,1.1-1.9,2.1-3.6,3s-3.7,1.3-5.9,1.3
			C1321.2,389.3,1318.7,388.4,1316.7,386.6z M1331.6,382.5c1.7-1.7,2.6-4,2.6-6.9v-1.2h-8.2c-2.6,0-4.5,0.5-5.8,1.5s-1.9,2.3-1.9,4
			c0,1.5,0.5,2.8,1.6,3.8s2.6,1.4,4.5,1.4C1327.5,385,1329.8,384.1,1331.6,382.5z"/>
		<path class="st1" d="M1347.3,388.6v-30.5h4l0.6,3h0.3c0.7-1.1,1.4-1.8,2.3-2.3c0.8-0.5,2-0.7,3.5-0.7h5.2v4.3h-4.6
			c-2.1,0-3.8,0.6-4.9,1.7c-1.2,1.2-1.8,2.8-1.8,5v19.5H1347.3z"/>
		<path class="st1" d="M1369.2,386.6c-2-1.8-3-4-3-6.8c0-3,1-5.4,3-7.2c2-1.7,5.1-2.6,9.2-2.6h8.2v-0.9c0-2.3-0.7-4.1-2-5.4
			s-3.1-2-5.4-2c-2.2,0-4,0.5-5.3,1.5c-1.4,1-2.1,2.2-2.3,3.7h-4.6c0.1-1.7,0.7-3.2,1.6-4.7s2.4-2.6,4.2-3.5
			c1.8-0.9,3.9-1.3,6.4-1.3c3.7,0,6.6,1,8.7,3.1s3.2,4.9,3.2,8.5v19.5h-4l-0.6-3.7h-0.3c-0.7,1.1-1.9,2.1-3.6,3s-3.7,1.3-5.9,1.3
			C1373.7,389.3,1371.1,388.4,1369.2,386.6z M1384,382.5c1.7-1.7,2.6-4,2.6-6.9v-1.2h-8.2c-2.6,0-4.5,0.5-5.8,1.5
			c-1.2,1-1.9,2.3-1.9,4c0,1.5,0.5,2.8,1.6,3.8s2.6,1.4,4.5,1.4C1379.9,385,1382.3,384.1,1384,382.5z"/>
		<path class="st1" d="M1405.1,387.2c-2.2-1.3-4-3.2-5.3-5.6s-1.9-5.1-1.9-8.2s0.6-5.8,1.9-8.2c1.3-2.4,3-4.3,5.3-5.6
			c2.2-1.3,4.7-2,7.4-2c2.6,0,5,0.6,7.1,1.9c2.2,1.3,3.8,3,5.1,5.2c1.2,2.2,1.8,4.7,1.8,7.5c0,1.6-0.1,2.7-0.3,3.4h-23.8
			c0.3,2.8,1.4,5.1,3.3,6.9c1.9,1.7,4.2,2.6,6.8,2.6c1.8,0,3.5-0.4,4.9-1.3s2.6-2.1,3.3-3.6h4.9c-1.1,2.9-2.7,5.2-5,6.8
			c-2.3,1.6-5,2.4-8.1,2.4C1409.8,389.3,1407.3,388.6,1405.1,387.2z M1422,371.3c-0.2-2.8-1.1-5-2.9-6.8s-4-2.7-6.6-2.7
			c-2.7,0-5,0.9-6.8,2.7s-2.9,4-3.2,6.8H1422z"/>
		<path class="st1" d="M1447.3,388.6h-7.3l-11-30.5h4.9l9.2,25.6h1.2l9.1-25.6h4.9L1447.3,388.6z"/>
		<path class="st1" d="M1487,394.1c-4.8,0-9-1-12.7-3s-6.6-4.8-8.6-8.4s-3.1-7.6-3.1-12c0-4.6,1.1-8.7,3.2-12.4
			c2.1-3.7,5-6.5,8.7-8.6s7.9-3.1,12.5-3.1c5,0,9.4,1,13.2,3.1c3.8,2.1,6.8,4.9,8.9,8.5s3.2,7.5,3.2,11.9c0,4.5-1,7.9-2.9,10.2
			c-1.9,2.3-4.4,3.5-7.5,3.5c-1.7,0-3.2-0.4-4.3-1.2s-2-1.7-2.4-2.7h-0.3c-0.8,1-2,1.9-3.6,2.7c-1.6,0.8-3.4,1.2-5.3,1.2
			c-2.3,0-4.4-0.5-6.2-1.6c-1.8-1.1-3.3-2.6-4.3-4.5c-1.1-2-1.6-4.2-1.6-6.6c0-2.5,0.5-4.7,1.6-6.6c1.1-2,2.5-3.5,4.4-4.5
			c1.9-1.1,3.9-1.6,6.3-1.6c1.9,0,3.6,0.4,5,1.1c1.4,0.8,2.4,1.6,2.9,2.5h0.3l0.6-3h4v17.4c0,1.1,0.3,1.9,0.8,2.5s1.3,0.9,2.2,0.9
			c3.9,0,5.8-3.2,5.8-9.5c0-3.7-0.9-6.9-2.6-9.9c-1.7-2.9-4.2-5.2-7.3-6.9c-3.1-1.7-6.8-2.5-10.9-2.5c-3.8,0-7.2,0.8-10.2,2.5
			s-5.4,4-7,7c-1.7,3-2.5,6.4-2.5,10.2c0,3.7,0.8,7.1,2.5,10c1.6,2.9,4,5.2,7,6.8c3,1.6,6.5,2.4,10.4,2.4h12.5v4.3L1487,394.1
			L1487,394.1z M1492.1,377.1c1.5-1.6,2.2-3.6,2.2-6.2s-0.7-4.6-2.2-6.2s-3.4-2.3-5.7-2.3c-2.3,0-4.2,0.8-5.7,2.3
			c-1.5,1.6-2.2,3.6-2.2,6.2s0.7,4.6,2.2,6.2s3.4,2.3,5.7,2.3C1488.7,379.5,1490.6,378.7,1492.1,377.1z"/>
		<path class="st1" d="M1525,387.2c-2.2-1.3-4-3.2-5.3-5.6s-1.9-5.1-1.9-8.2s0.6-5.8,1.9-8.2c1.3-2.4,3-4.3,5.3-5.6
			c2.2-1.3,4.7-2,7.4-2c2.6,0,5,0.6,7.1,1.9c2.2,1.3,3.8,3,5.1,5.2c1.2,2.2,1.8,4.7,1.8,7.5c0,1.6-0.1,2.7-0.3,3.4h-23.8
			c0.3,2.8,1.4,5.1,3.3,6.9c1.9,1.7,4.2,2.6,6.8,2.6c1.8,0,3.5-0.4,4.9-1.3s2.6-2.1,3.3-3.6h4.9c-1.1,2.9-2.7,5.2-5,6.8
			c-2.3,1.6-5,2.4-8.1,2.4C1529.7,389.3,1527.2,388.6,1525,387.2z M1541.9,371.3c-0.2-2.8-1.1-5-2.9-6.8s-4-2.7-6.6-2.7
			c-2.7,0-5,0.9-6.8,2.7s-2.9,4-3.2,6.8H1541.9z"/>
		<path class="st1" d="M1558,388.6h-4.6v-42.7h4.6V388.6z"/>
		<path class="st1" d="M1574.5,388.6c-1.7,0-3-0.5-4-1.4c-1-1-1.5-2.2-1.5-3.8v-21h-4.9v-4.3h4.9v-8.5h4.6v8.5h7v4.3h-7v20.1
			c0,1.2,0.6,1.8,1.8,1.8h5.2v4.3H1574.5z"/>
		<path class="st1" d="M1588.1,386.6c-2-1.8-3-4-3-6.8c0-3,1-5.4,3-7.2c2-1.7,5.1-2.6,9.2-2.6h8.2v-0.9c0-2.3-0.7-4.1-2-5.4
			s-3.1-2-5.4-2c-2.2,0-4,0.5-5.3,1.5c-1.4,1-2.1,2.2-2.3,3.7h-4.6c0.1-1.7,0.7-3.2,1.6-4.7c1-1.4,2.4-2.6,4.2-3.5
			c1.8-0.9,3.9-1.3,6.4-1.3c3.7,0,6.6,1,8.7,3.1s3.2,4.9,3.2,8.5v19.5h-4l-0.6-3.7h-0.3c-0.7,1.1-1.9,2.1-3.6,3s-3.7,1.3-5.9,1.3
			C1592.7,389.3,1590.1,388.4,1588.1,386.6z M1603,382.5c1.7-1.7,2.6-4,2.6-6.9v-1.2h-8.2c-2.6,0-4.5,0.5-5.8,1.5
			c-1.2,1-1.9,2.3-1.9,4c0,1.5,0.5,2.8,1.6,3.8s2.6,1.4,4.5,1.4C1598.9,385,1601.3,384.1,1603,382.5z"/>
		<path class="st1" d="M1636.7,373.4h-19.5v-4.3h19.5V373.4z"/>
		<path class="st1" d="M1647.1,387.9c-1.9-0.9-3.3-2-4.3-3.5c-1-1.4-1.5-3-1.5-4.7h4.6c0,1.4,0.7,2.6,2,3.7s3.2,1.5,5.6,1.5
			c2.3,0,4.1-0.4,5.4-1.3s1.9-2,1.9-3.3c0-1.2-0.4-2.2-1.3-3c-0.8-0.8-2.1-1.3-3.9-1.6l-5.2-0.9c-5.7-1-8.5-3.8-8.5-8.5
			c0-2.6,1-4.7,2.9-6.3c1.9-1.7,4.7-2.5,8.4-2.5c2.4,0,4.4,0.4,6.3,1.3c1.8,0.9,3.2,2,4.2,3.5s1.5,3,1.5,4.6h-4.6
			c0-1.4-0.7-2.6-2-3.7c-1.3-1-3.1-1.5-5.3-1.5c-2.2,0-3.8,0.4-5,1.3s-1.7,2-1.7,3.3c0,1.1,0.4,2.1,1.1,2.7c0.8,0.7,2,1.2,3.8,1.5
			l5.2,0.9c3,0.5,5.3,1.5,6.7,3c1.4,1.5,2.1,3.4,2.1,5.9c0,2.6-1,4.7-3.1,6.3c-2.1,1.7-5,2.5-8.8,2.5
			C1651.1,389.3,1648.9,388.8,1647.1,387.9z"/>
		<path class="st1" d="M1671.8,400.8v-42.7h4l0.6,4.3h0.3c1.3-1.6,2.7-2.8,4.3-3.6c1.6-0.8,3.4-1.3,5.5-1.3c2.6,0,5,0.7,7.2,2
			c2.1,1.3,3.8,3.2,5,5.6s1.8,5.1,1.8,8.2s-0.6,5.8-1.8,8.2c-1.2,2.4-2.9,4.3-5,5.6c-2.1,1.3-4.5,2-7.2,2c-2.1,0-3.9-0.4-5.5-1.3
			s-3-2-4.3-3.6h-0.3v16.5L1671.8,400.8L1671.8,400.8z M1691,383.5c1.5-1,2.7-2.3,3.6-4.1c0.9-1.7,1.3-3.8,1.3-6
			c0-2.3-0.4-4.3-1.3-6s-2.1-3.1-3.6-4.1s-3.1-1.5-4.8-1.5c-1.7,0-3.4,0.5-4.8,1.5c-1.5,1-2.7,2.3-3.6,4.1c-0.9,1.7-1.3,3.8-1.3,6
			c0,2.3,0.4,4.3,1.3,6s2.1,3.1,3.6,4.1s3.1,1.5,4.8,1.5S1689.5,384.5,1691,383.5z"/>
		<path class="st1" d="M1716.6,388c-1.6-0.8-3-2-4.3-3.6h-0.3l-0.6,4.3h-4V346h4.6v16.5h0.3c1.3-1.6,2.7-2.8,4.3-3.6
			c1.6-0.8,3.4-1.3,5.5-1.3c2.6,0,5,0.7,7.2,2c2.1,1.3,3.8,3.2,5,5.6s1.8,5.1,1.8,8.2s-0.6,5.8-1.8,8.2s-2.9,4.3-5,5.6
			c-2.1,1.3-4.5,2-7.2,2C1720.1,389.3,1718.2,388.8,1716.6,388z M1726.7,383.5c1.5-1,2.7-2.3,3.6-4.1c0.9-1.7,1.3-3.8,1.3-6
			c0-2.3-0.4-4.3-1.3-6s-2.1-3.1-3.6-4.1s-3.1-1.5-4.8-1.5c-1.7,0-3.4,0.5-4.8,1.5c-1.5,1-2.7,2.3-3.6,4.1c-0.9,1.7-1.3,3.8-1.3,6
			c0,2.3,0.4,4.3,1.3,6s2.1,3.1,3.6,4.1s3.1,1.5,4.8,1.5S1725.2,384.5,1726.7,383.5z"/>
		<path class="st1" d="M1747.7,388.6h-5.5v-5.5h5.5V388.6z"/>
		<path class="st1" d="M1761,387.2c-2.2-1.3-4-3.2-5.3-5.6s-1.9-5.1-1.9-8.2s0.6-5.8,1.9-8.2c1.3-2.4,3-4.3,5.3-5.6
			c2.2-1.3,4.7-2,7.4-2c3.4,0,6.3,0.9,8.7,2.8c2.4,1.9,4,4.4,4.8,7.6h-4.6c-0.6-2-1.7-3.5-3.3-4.5c-1.6-1.1-3.4-1.6-5.6-1.6
			c-1.8,0-3.5,0.5-5.1,1.4c-1.5,1-2.8,2.3-3.7,4.1c-0.9,1.8-1.3,3.8-1.3,6.1c0,2.3,0.4,4.3,1.3,6.1c0.9,1.8,2.1,3.1,3.7,4.1
			c1.5,1,3.2,1.4,5.1,1.4c2.2,0,4.1-0.5,5.6-1.6s2.6-2.7,3.2-4.8h4.6c-0.8,3.3-2.4,5.9-4.8,7.8s-5.3,2.8-8.7,2.8
			C1765.8,389.3,1763.3,388.6,1761,387.2z"/>
		<path class="st1" d="M1793.7,387.2c-2.2-1.3-4-3.2-5.3-5.6s-1.9-5.1-1.9-8.2s0.6-5.8,1.9-8.2c1.3-2.4,3-4.3,5.3-5.6
			c2.2-1.3,4.7-2,7.4-2c2.7,0,5.2,0.7,7.4,2c2.2,1.3,4,3.2,5.3,5.6s1.9,5.1,1.9,8.2s-0.6,5.8-1.9,8.2c-1.3,2.4-3,4.3-5.3,5.6
			c-2.2,1.3-4.7,2-7.4,2C1798.4,389.3,1795.9,388.6,1793.7,387.2z M1806.2,383.6c1.5-1,2.8-2.3,3.7-4.1c0.9-1.8,1.3-3.8,1.3-6.1
			c0-2.3-0.4-4.3-1.3-6.1c-0.9-1.8-2.1-3.1-3.7-4.1c-1.5-1-3.2-1.4-5.1-1.4s-3.5,0.5-5.1,1.4c-1.5,1-2.8,2.3-3.7,4.1
			c-0.9,1.8-1.3,3.8-1.3,6.1c0,2.3,0.4,4.3,1.3,6.1c0.9,1.8,2.1,3.1,3.7,4.1c1.5,1,3.2,1.4,5.1,1.4S1804.6,384.5,1806.2,383.6z"/>
		<path class="st1" d="M1822.5,388.6v-30.5h4l0.6,3.4h0.3c0.8-1,1.9-1.9,3.4-2.7c1.4-0.8,2.9-1.2,4.6-1.2c2.2,0,4,0.5,5.6,1.6
			s2.7,2.3,3.3,3.6h0.3c0.9-1.3,2.2-2.5,4-3.6s3.8-1.6,6.1-1.6c2.1,0,4,0.5,5.7,1.5s3,2.4,3.9,4.2c0.9,1.8,1.4,3.8,1.4,6.2v19.2
			h-4.6v-19.2c0-2.3-0.6-4.1-1.9-5.5s-3-2.1-5.1-2.1c-1.3,0-2.5,0.3-3.7,1s-2.1,1.6-2.8,2.8c-0.7,1.2-1.1,2.5-1.1,3.8v19.2h-4.6
			v-19.2c0-2.3-0.6-4.1-1.9-5.5s-3-2.1-5.1-2.1c-1.3,0-2.5,0.3-3.7,1s-2.1,1.6-2.8,2.8c-0.7,1.2-1.1,2.5-1.1,3.8v19.2L1822.5,388.6
			L1822.5,388.6z"/>
	</g>
</g>
<g>
	<g>
		<path class="st1" d="M1288.2,1151c-3.1-1.8-5.6-4.4-7.4-7.8c-1.8-3.3-2.7-7.1-2.7-11.4s0.9-8.1,2.7-11.4c1.8-3.3,4.3-5.9,7.4-7.8
			c3.1-1.8,6.6-2.8,10.3-2.8c4.6,0,8.6,1.3,12,3.8s5.7,6.1,6.9,10.5h-5.2c-1.1-3.1-2.8-5.4-5.2-7.2s-5.3-2.6-8.5-2.6
			c-2.8,0-5.5,0.7-7.8,2.2s-4.3,3.5-5.6,6.2s-2.1,5.7-2.1,9s0.7,6.4,2.1,9s3.3,4.7,5.6,6.2s5,2.2,7.8,2.2c3.2,0,6-0.9,8.5-2.7
			c2.4-1.8,4.2-4.2,5.2-7.4h5.2c-1.2,4.6-3.5,8.1-6.9,10.7s-7.4,3.9-12,3.9C1294.7,1153.7,1291.3,1152.8,1288.2,1151z"/>
		<path class="st1" d="M1325.5,1151.1c-2-1.8-3-4-3-6.8c0-3,1-5.4,3-7.2c2-1.7,5.1-2.6,9.2-2.6h8.2v-0.9c0-2.3-0.7-4.1-2-5.4
			s-3.1-2-5.4-2c-2.2,0-4,0.5-5.3,1.5c-1.4,1-2.1,2.2-2.3,3.7h-4.6c0.1-1.7,0.7-3.2,1.6-4.7c1-1.4,2.4-2.6,4.2-3.5
			c1.8-0.9,3.9-1.3,6.4-1.3c3.7,0,6.6,1,8.7,3.1s3.2,4.9,3.2,8.5v19.5h-4l-0.6-3.7h-0.3c-0.7,1.1-1.9,2.1-3.6,3s-3.7,1.3-5.9,1.3
			C1330.1,1153.7,1327.5,1152.9,1325.5,1151.1z M1340.4,1146.9c1.7-1.7,2.6-4,2.6-6.9v-1.2h-8.2c-2.6,0-4.5,0.5-5.8,1.5
			c-1.2,1-1.9,2.3-1.9,4c0,1.5,0.5,2.8,1.6,3.8s2.6,1.4,4.5,1.4C1336.3,1149.5,1338.7,1148.6,1340.4,1146.9z"/>
		<path class="st1" d="M1360.7,1153.1h-4.6v-30.5h4.6v13.1h16.2v-13.1h4.6v30.5h-4.6V1140h-16.2V1153.1z"/>
		<path class="st1" d="M1394.6,1153.1h-4.6v-30.5h4.6v14l13.7-14h5.9l-14.6,14.9l15.3,15.6h-5.9l-14.3-14.6L1394.6,1153.1
			L1394.6,1153.1z"/>
		<path class="st1" d="M1430.5,1153.1h-4.6v-26.2h-10.4v-4.3h25.3v4.3h-10.4L1430.5,1153.1L1430.5,1153.1z"/>
		<path class="st1" d="M1462.9,1137.9h-19.5v-4.3h19.5V1137.9z"/>
		<path class="st1" d="M1475.4,1153.1h-4.9v-42.7h33.5v42.7h-4.9V1115h-23.8v38.1H1475.4z"/>
		<path class="st1" d="M1518.6,1151.7c-2.2-1.3-4-3.2-5.3-5.6s-1.9-5.1-1.9-8.2s0.6-5.8,1.9-8.2c1.3-2.4,3-4.3,5.3-5.6
			c2.2-1.3,4.7-2,7.4-2c2.6,0,5,0.6,7.1,1.9c2.2,1.3,3.8,3,5.1,5.2c1.2,2.2,1.8,4.7,1.8,7.5c0,1.6-0.1,2.7-0.3,3.4h-23.8
			c0.3,2.8,1.4,5.1,3.3,6.9c1.9,1.7,4.2,2.6,6.8,2.6c1.8,0,3.5-0.4,4.9-1.3s2.6-2.1,3.3-3.6h4.9c-1.1,2.9-2.7,5.2-5,6.8
			c-2.3,1.6-5,2.4-8.1,2.4C1523.3,1153.7,1520.8,1153.1,1518.6,1151.7z M1535.5,1135.7c-0.2-2.8-1.1-5-2.9-6.8s-4-2.7-6.6-2.7
			c-2.7,0-5,0.9-6.8,2.7s-2.9,4-3.2,6.8H1535.5z"/>
		<path class="st1" d="M1557.1,1153.1h-4.6v-26.2h-10.4v-4.3h25.3v4.3H1557L1557.1,1153.1L1557.1,1153.1z"/>
		<path class="st1" d="M1576.8,1151.7c-2.2-1.3-4-3.2-5.3-5.6s-1.9-5.1-1.9-8.2s0.6-5.8,1.9-8.2s3-4.3,5.3-5.6c2.2-1.3,4.7-2,7.4-2
			c2.6,0,5,0.6,7.1,1.9c2.2,1.3,3.8,3,5.1,5.2c1.2,2.2,1.8,4.7,1.8,7.5c0,1.6-0.1,2.7-0.3,3.4h-23.8c0.3,2.8,1.4,5.1,3.3,6.9
			s4.2,2.6,6.8,2.6c1.8,0,3.5-0.4,4.9-1.3s2.6-2.1,3.3-3.6h4.9c-1.1,2.9-2.7,5.2-5,6.8s-5,2.4-8.1,2.4
			C1581.5,1153.7,1579.1,1153.1,1576.8,1151.7z M1593.7,1135.7c-0.2-2.8-1.1-5-2.9-6.8s-4-2.7-6.6-2.7c-2.7,0-5,0.9-6.8,2.7
			s-2.9,4-3.2,6.8H1593.7z"/>
		<path class="st1" d="M1605,1165.3v-42.7h4l0.6,4.3h0.3c1.3-1.6,2.7-2.8,4.3-3.6c1.6-0.8,3.4-1.3,5.5-1.3c2.6,0,5,0.7,7.2,2
			c2.1,1.3,3.8,3.2,5,5.6s1.8,5.1,1.8,8.2s-0.6,5.8-1.8,8.2c-1.2,2.4-2.9,4.3-5,5.6c-2.1,1.3-4.5,2-7.2,2c-2.1,0-3.9-0.4-5.5-1.3
			s-3-2-4.3-3.6h-0.3v16.5h-4.6V1165.3z M1624.2,1148c1.5-1,2.7-2.3,3.6-4.1c0.9-1.7,1.3-3.8,1.3-6s-0.4-4.3-1.3-6s-2.1-3.1-3.6-4.1
			s-3.1-1.5-4.8-1.5c-1.7,0-3.4,0.5-4.8,1.5s-2.7,2.3-3.6,4.1c-0.9,1.7-1.3,3.8-1.3,6s0.4,4.3,1.3,6s2.1,3.1,3.6,4.1
			s3.1,1.5,4.8,1.5S1622.7,1149,1624.2,1148z"/>
		<path class="st1" d="M1645.8,1151.8c-2.2-1.3-3.9-3.2-5.1-5.6s-1.9-5.2-1.9-8.4v-1.8c0-5.3,0.7-9.5,2-12.7s3.5-5.7,6.6-7.4
			c1.4-0.8,2.8-1.3,4.4-1.7c1.5-0.4,3.5-0.7,5.9-0.9c1.4-0.2,2.4-0.6,3.1-1.3c0.6-0.7,1-1.7,1-3.1h4c0,2.6-0.7,4.5-1.9,5.9
			c-1.2,1.4-3.2,2.2-5.8,2.5c-1.8,0.2-3.4,0.4-4.8,0.8c-1.4,0.3-2.6,0.8-3.7,1.5c-3.5,2.1-5.6,5.5-6.1,10.1h0.3
			c2.4-3.3,5.8-4.9,10.1-4.9c2.5,0,4.8,0.6,6.9,1.9s3.8,3,5,5.2s1.8,4.6,1.8,7.3c0,2.8-0.6,5.3-1.9,7.5c-1.2,2.2-2.9,4-5.1,5.2
			c-2.2,1.3-4.6,1.9-7.4,1.9C1650.5,1153.7,1648,1153.1,1645.8,1151.8z M1658.2,1148.2c1.5-0.9,2.7-2.1,3.5-3.7
			c0.9-1.6,1.3-3.4,1.3-5.4s-0.4-3.8-1.3-5.4s-2-2.8-3.5-3.7c-1.5-0.9-3.1-1.3-5-1.3s-3.5,0.4-5,1.3s-2.7,2.1-3.5,3.7
			c-0.9,1.6-1.3,3.4-1.3,5.4s0.4,3.8,1.3,5.4s2,2.8,3.5,3.7c1.5,0.9,3.1,1.3,5,1.3S1656.7,1149,1658.2,1148.2z"/>
		<path class="st1" d="M1694.1,1122.6h4.9l-13.7,38.4c-0.5,1.5-1.2,2.5-2.1,3.2s-2.1,1-3.7,1h-6.1v-4.3h5.8c1,0,1.7-0.6,2.1-1.8
			l1.2-3.7l-12.5-32.9h4.9l9.5,25.3h1.2L1694.1,1122.6z"/>
		<path class="st1" d="M1703.8,1165.3v-42.7h4l0.6,4.3h0.3c1.3-1.6,2.7-2.8,4.3-3.6c1.6-0.8,3.4-1.3,5.5-1.3c2.6,0,5,0.7,7.2,2
			c2.1,1.3,3.8,3.2,5,5.6s1.8,5.1,1.8,8.2s-0.6,5.8-1.8,8.2c-1.2,2.4-2.9,4.3-5,5.6c-2.1,1.3-4.5,2-7.2,2c-2.1,0-3.9-0.4-5.5-1.3
			s-3-2-4.3-3.6h-0.3v16.5h-4.6V1165.3z M1723,1148c1.5-1,2.7-2.3,3.6-4.1c0.9-1.7,1.3-3.8,1.3-6s-0.4-4.3-1.3-6s-2.1-3.1-3.6-4.1
			s-3.1-1.5-4.8-1.5s-3.4,0.5-4.8,1.5s-2.7,2.3-3.6,4.1c-0.9,1.7-1.3,3.8-1.3,6s0.4,4.3,1.3,6s2.1,3.1,3.6,4.1s3.1,1.5,4.8,1.5
			S1721.5,1149,1723,1148z"/>
		<path class="st1" d="M1743.8,1153.1h-4.6v-30.5h19.5v4.3h-14.9V1153.1z"/>
		<path class="st1" d="M1763,1158h-4l1.2-10.4h5.5L1763,1158z"/>
		<path class="st1" d="M1283.8,1217.1h-4.6v-30.5h25.3v30.5h-4.6v-26.2h-16.2L1283.8,1217.1L1283.8,1217.1z"/>
		<path class="st1" d="M1313.1,1229.3v-42.7h4l0.6,4.3h0.3c1.3-1.6,2.7-2.8,4.3-3.6c1.6-0.8,3.4-1.3,5.5-1.3c2.6,0,5,0.7,7.2,2
			c2.1,1.3,3.8,3.2,5,5.6s1.8,5.1,1.8,8.2s-0.6,5.8-1.8,8.2c-1.2,2.4-2.9,4.3-5,5.6c-2.1,1.3-4.5,2-7.2,2c-2.1,0-3.9-0.4-5.5-1.3
			s-3-2-4.3-3.6h-0.3v16.5h-4.6V1229.3z M1332.3,1212c1.5-1,2.7-2.3,3.6-4.1c0.9-1.7,1.3-3.8,1.3-6s-0.4-4.3-1.3-6s-2.1-3.1-3.6-4.1
			s-3.1-1.5-4.8-1.5s-3.4,0.5-4.8,1.5s-2.7,2.3-3.6,4.1c-0.9,1.7-1.3,3.8-1.3,6s0.4,4.3,1.3,6s2.1,3.1,3.6,4.1s3.1,1.5,4.8,1.5
			S1330.8,1213,1332.3,1212z"/>
		<path class="st1" d="M1353.9,1215.7c-2.2-1.3-4-3.2-5.3-5.6s-1.9-5.1-1.9-8.2s0.6-5.8,1.9-8.2s3-4.3,5.3-5.6c2.2-1.3,4.7-2,7.4-2
			c2.7,0,5.2,0.7,7.4,2c2.2,1.3,4,3.2,5.3,5.6s1.9,5.1,1.9,8.2s-0.6,5.8-1.9,8.2c-1.3,2.4-3,4.3-5.3,5.6c-2.2,1.3-4.7,2-7.4,2
			S1356.1,1217.1,1353.9,1215.7z M1366.4,1212c1.5-1,2.8-2.3,3.7-4.1s1.3-3.8,1.3-6.1s-0.4-4.3-1.3-6.1s-2.1-3.1-3.7-4.1
			c-1.5-1-3.2-1.4-5.1-1.4s-3.5,0.5-5.1,1.4c-1.5,1-2.8,2.3-3.7,4.1c-0.9,1.8-1.3,3.8-1.3,6.1s0.4,4.3,1.3,6.1
			c0.9,1.8,2.1,3.1,3.7,4.1c1.5,1,3.2,1.4,5.1,1.4S1364.8,1213,1366.4,1212z"/>
		<path class="st1" d="M1388,1215.7c-2.2-1.3-4-3.2-5.3-5.6s-1.9-5.1-1.9-8.2s0.6-5.8,1.9-8.2c1.3-2.4,3-4.3,5.3-5.6
			c2.2-1.3,4.7-2,7.4-2c3.4,0,6.3,0.9,8.7,2.8c2.4,1.9,4,4.4,4.8,7.6h-4.6c-0.6-2-1.7-3.5-3.3-4.5c-1.6-1.1-3.4-1.6-5.6-1.6
			c-1.8,0-3.5,0.5-5.1,1.4s-2.8,2.3-3.7,4.1s-1.3,3.8-1.3,6.1s0.4,4.3,1.3,6.1s2.1,3.1,3.7,4.1c1.5,1,3.2,1.4,5.1,1.4
			c2.2,0,4.1-0.5,5.6-1.6s2.6-2.7,3.2-4.8h4.6c-0.8,3.3-2.4,5.9-4.8,7.8s-5.3,2.8-8.7,2.8C1392.7,1217.7,1390.3,1217.1,1388,1215.7z
			"/>
		<path class="st1" d="M1419.9,1217.1h-4.6v-30.5h25.3v30.5h-4.6v-26.2h-16.2L1419.9,1217.1L1419.9,1217.1z"/>
		<path class="st1" d="M1454.5,1215.7c-2.2-1.3-4-3.2-5.3-5.6s-1.9-5.1-1.9-8.2s0.6-5.8,1.9-8.2s3-4.3,5.3-5.6c2.2-1.3,4.7-2,7.4-2
			c2.6,0,5,0.6,7.1,1.9c2.2,1.3,3.8,3,5.1,5.2c1.2,2.2,1.8,4.7,1.8,7.5c0,1.6-0.1,2.7-0.3,3.4h-23.8c0.3,2.8,1.4,5.1,3.3,6.9
			c1.9,1.7,4.2,2.6,6.8,2.6c1.8,0,3.5-0.4,4.9-1.3s2.6-2.1,3.3-3.6h4.9c-1.1,2.9-2.7,5.2-5,6.8c-2.3,1.6-5,2.4-8.1,2.4
			C1459.2,1217.7,1456.8,1217.1,1454.5,1215.7z M1471.4,1199.7c-0.2-2.8-1.1-5-2.9-6.8s-4-2.7-6.6-2.7c-2.7,0-5,0.9-6.8,2.7
			s-2.9,4-3.2,6.8H1471.4z"/>
		<path class="st1" d="M1487.3,1217.1h-4.6v-30.5h4.6v14l13.7-14h5.9l-14.6,14.9l15.3,15.6h-5.9l-14.3-14.6L1487.3,1217.1
			L1487.3,1217.1z"/>
		<path class="st1" d="M1523.3,1217.1h-4.6v-26.2h-10.4v-4.3h25.3v4.3h-10.4L1523.3,1217.1L1523.3,1217.1z"/>
		<path class="st1" d="M1548,1217.4v-4.9h2.1c1.3,0,2.3-0.4,3.1-1.2c0.8-0.8,1.3-2,1.5-3.7l2.7-33.2h26.5v42.7h-4.9V1179h-17
			l-2.4,28.7c-0.3,3.3-1.2,5.8-2.7,7.4s-3.8,2.4-6.7,2.4L1548,1217.4L1548,1217.4z"/>
		<path class="st1" d="M1613.5,1186.6h4.9l-13.7,38.4c-0.5,1.5-1.2,2.5-2.1,3.2s-2.1,1-3.7,1h-6.1v-4.3h5.8c1,0,1.7-0.6,2.1-1.8
			l1.2-3.7l-12.5-32.9h4.9l9.5,25.3h1.2L1613.5,1186.6z"/>
		<path class="st1" d="M1627.9,1217.1h-4.6v-30.5h4.6v13.1h16.2v-13.1h4.6v30.5h-4.6V1204h-16.2V1217.1z"/>
		<path class="st1" d="M1658.9,1215.1c-2-1.8-3-4-3-6.8c0-3,1-5.4,3-7.2c2-1.7,5.1-2.6,9.2-2.6h8.2v-0.9c0-2.3-0.7-4.1-2-5.4
			s-3.1-2-5.4-2c-2.2,0-4,0.5-5.3,1.5c-1.4,1-2.1,2.2-2.3,3.7h-4.6c0.1-1.7,0.7-3.2,1.6-4.7c1-1.4,2.4-2.6,4.2-3.5
			c1.8-0.9,3.9-1.3,6.4-1.3c3.7,0,6.6,1,8.7,3.1s3.2,4.9,3.2,8.5v19.5h-4l-0.6-3.7h-0.3c-0.7,1.1-1.9,2.1-3.6,3s-3.7,1.3-5.9,1.3
			C1663.4,1217.7,1660.9,1216.9,1658.9,1215.1z M1673.8,1210.9c1.7-1.7,2.6-4,2.6-6.9v-1.2h-8.2c-2.6,0-4.5,0.5-5.8,1.5
			c-1.2,1-1.9,2.3-1.9,4c0,1.5,0.5,2.8,1.6,3.8s2.6,1.4,4.5,1.4C1669.7,1213.5,1672.1,1212.6,1673.8,1210.9z"/>
		<path class="st1" d="M1707.5,1205.2c-1.3,0.9-2.7,1.5-4.1,1.9s-3,0.5-4.7,0.5c-3.7,0-6.4-1-8.2-2.9c-1.8-2-2.7-4.8-2.7-8.7v-9.5
			h4.6v9.5c0,2.4,0.6,4.3,1.8,5.5c1.2,1.2,2.9,1.8,5.2,1.8c1.6,0,3.1-0.2,4.4-0.7c1.3-0.4,2.6-1.1,3.8-2.1v-14h4.6v30.5h-4.6v-11.8
			H1707.5z"/>
		<path class="st1" d="M1722.3,1215.1c-2-1.8-3-4-3-6.8c0-3,1-5.4,3-7.2c2-1.7,5.1-2.6,9.2-2.6h8.2v-0.9c0-2.3-0.7-4.1-2-5.4
			s-3.1-2-5.4-2c-2.2,0-4,0.5-5.3,1.5c-1.4,1-2.1,2.2-2.3,3.7h-4.6c0.1-1.7,0.7-3.2,1.6-4.7c1-1.4,2.4-2.6,4.2-3.5
			c1.8-0.9,3.9-1.3,6.4-1.3c3.7,0,6.6,1,8.7,3.1s3.2,4.9,3.2,8.5v19.5h-4l-0.6-3.7h-0.3c-0.7,1.1-1.9,2.1-3.6,3s-3.7,1.3-5.9,1.3
			C1726.9,1217.7,1724.3,1216.9,1722.3,1215.1z M1737.2,1210.9c1.7-1.7,2.6-4,2.6-6.9v-1.2h-8.2c-2.6,0-4.5,0.5-5.8,1.5
			c-1.2,1-1.9,2.3-1.9,4c0,1.5,0.5,2.8,1.6,3.8s2.6,1.4,4.5,1.4C1733.1,1213.5,1735.5,1212.6,1737.2,1210.9z"/>
		<path class="st1" d="M1752.9,1229.3v-42.7h4l0.6,4.3h0.3c1.3-1.6,2.7-2.8,4.3-3.6c1.6-0.8,3.4-1.3,5.5-1.3c2.6,0,5,0.7,7.2,2
			c2.1,1.3,3.8,3.2,5,5.6s1.8,5.1,1.8,8.2s-0.6,5.8-1.8,8.2c-1.2,2.4-2.9,4.3-5,5.6c-2.1,1.3-4.5,2-7.2,2c-2.1,0-3.9-0.4-5.5-1.3
			s-3-2-4.3-3.6h-0.3v16.5h-4.6V1229.3z M1772.1,1212c1.5-1,2.7-2.3,3.6-4.1c0.9-1.7,1.3-3.8,1.3-6s-0.4-4.3-1.3-6s-2.1-3.1-3.6-4.1
			s-3.1-1.5-4.8-1.5c-1.7,0-3.4,0.5-4.8,1.5c-1.5,1-2.7,2.3-3.6,4.1c-0.9,1.7-1.3,3.8-1.3,6s0.4,4.3,1.3,6s2.1,3.1,3.6,4.1
			s3.1,1.5,4.8,1.5S1770.6,1213,1772.1,1212z"/>
		<path class="st1" d="M1793.7,1215.7c-2.2-1.3-4-3.2-5.3-5.6s-1.9-5.1-1.9-8.2s0.6-5.8,1.9-8.2s3-4.3,5.3-5.6c2.2-1.3,4.7-2,7.4-2
			c3.4,0,6.3,0.9,8.7,2.8c2.4,1.9,4,4.4,4.8,7.6h-4.6c-0.6-2-1.7-3.5-3.3-4.5c-1.6-1.1-3.4-1.6-5.6-1.6c-1.8,0-3.5,0.5-5.1,1.4
			c-1.5,1-2.8,2.3-3.7,4.1c-0.9,1.8-1.3,3.8-1.3,6.1s0.4,4.3,1.3,6.1c0.9,1.8,2.1,3.1,3.7,4.1c1.5,1,3.2,1.4,5.1,1.4
			c2.2,0,4.1-0.5,5.6-1.6s2.6-2.7,3.2-4.8h4.6c-0.8,3.3-2.4,5.9-4.8,7.8s-5.3,2.8-8.7,2.8
			C1798.4,1217.7,1795.9,1217.1,1793.7,1215.7z"/>
		<path class="st1" d="M1825.5,1217.1h-4.6v-30.5h4.6v14l13.7-14h5.9l-14.6,14.9l15.3,15.6h-5.9l-14.3-14.6L1825.5,1217.1
			L1825.5,1217.1z"/>
		<path class="st1" d="M1854.1,1215.7c-2.2-1.3-4-3.2-5.3-5.6s-1.9-5.1-1.9-8.2s0.6-5.8,1.9-8.2s3-4.3,5.3-5.6c2.2-1.3,4.7-2,7.4-2
			s5.2,0.7,7.4,2c2.2,1.3,4,3.2,5.3,5.6s1.9,5.1,1.9,8.2s-0.6,5.8-1.9,8.2c-1.3,2.4-3,4.3-5.3,5.6c-2.2,1.3-4.7,2-7.4,2
			S1856.3,1217.1,1854.1,1215.7z M1866.6,1212c1.5-1,2.8-2.3,3.7-4.1s1.3-3.8,1.3-6.1s-0.4-4.3-1.3-6.1s-2.1-3.1-3.7-4.1
			s-3.2-1.4-5.1-1.4s-3.5,0.5-5.1,1.4c-1.5,1-2.8,2.3-3.7,4.1c-0.9,1.8-1.3,3.8-1.3,6.1s0.4,4.3,1.3,6.1c0.9,1.8,2.1,3.1,3.7,4.1
			c1.5,1,3.2,1.4,5.1,1.4S1865,1213,1866.6,1212z"/>
		<path class="st1" d="M1887.4,1217.1h-4.6v-30.5h19.5v4.3h-14.9V1217.1z"/>
		<path class="st1" d="M1912,1215.7c-2.2-1.3-4-3.2-5.3-5.6s-1.9-5.1-1.9-8.2s0.6-5.8,1.9-8.2c1.3-2.4,3-4.3,5.3-5.6
			c2.2-1.3,4.7-2,7.4-2c2.7,0,5.2,0.7,7.4,2c2.2,1.3,4,3.2,5.3,5.6s1.9,5.1,1.9,8.2s-0.6,5.8-1.9,8.2c-1.3,2.4-3,4.3-5.3,5.6
			c-2.2,1.3-4.7,2-7.4,2S1914.3,1217.1,1912,1215.7z M1924.5,1212c1.5-1,2.8-2.3,3.7-4.1c0.9-1.8,1.3-3.8,1.3-6.1s-0.4-4.3-1.3-6.1
			c-0.9-1.8-2.1-3.1-3.7-4.1c-1.5-1-3.2-1.4-5.1-1.4s-3.5,0.5-5.1,1.4s-2.8,2.3-3.7,4.1s-1.3,3.8-1.3,6.1s0.4,4.3,1.3,6.1
			s2.1,3.1,3.7,4.1c1.5,1,3.2,1.4,5.1,1.4S1923,1213,1924.5,1212z"/>
		<path class="st1" d="M1943.2,1222h-4l1.2-10.4h5.5L1943.2,1222z"/>
		<path class="st1" d="M1963.4,1224.4v-11.6h0.6c1.4,0,2.4-0.3,3.1-1s1.1-1.8,1.2-3.3l1.8-22h20.4v26.2h4.3v11.6h-4.6v-7.3H1968v7.3
			h-4.6V1224.4z M1985.9,1212.9v-22h-11.6l-1.5,17.7c-0.1,1.1-0.3,2-0.6,2.8c-0.3,0.8-0.6,1.3-0.9,1.5H1985.9z"/>
		<path class="st1" d="M2005.6,1215.7c-2.2-1.3-4-3.2-5.3-5.6s-1.9-5.1-1.9-8.2s0.6-5.8,1.9-8.2s3-4.3,5.3-5.6c2.2-1.3,4.7-2,7.4-2
			c2.7,0,5.2,0.7,7.4,2c2.2,1.3,4,3.2,5.3,5.6s1.9,5.1,1.9,8.2s-0.6,5.8-1.9,8.2c-1.3,2.4-3,4.3-5.3,5.6c-2.2,1.3-4.7,2-7.4,2
			C2010.4,1217.7,2007.9,1217.1,2005.6,1215.7z M2018.2,1212c1.5-1,2.8-2.3,3.7-4.1s1.3-3.8,1.3-6.1s-0.4-4.3-1.3-6.1
			s-2.1-3.1-3.7-4.1c-1.5-1-3.2-1.4-5.1-1.4s-3.5,0.5-5.1,1.4c-1.5,1-2.8,2.3-3.7,4.1c-0.9,1.8-1.3,3.8-1.3,6.1s0.4,4.3,1.3,6.1
			c0.9,1.8,2.1,3.1,3.7,4.1c1.5,1,3.2,1.4,5.1,1.4S2016.6,1213,2018.2,1212z"/>
		<path class="st1" d="M2039,1217.1h-4.6v-30.5h8.5l8.2,25.3h1.2l8.2-25.3h8.5v30.5h-4.6v-25h-1.2l-8.2,25h-6.7l-8.2-25h-1.2
			L2039,1217.1L2039,1217.1z"/>
		<path class="st1" d="M2090.9,1217.1v-4l17.4-18.6c1.3-1.4,2.2-2.7,2.8-3.8c0.6-1.2,0.9-2.5,0.9-4.1c0-2.4-0.8-4.4-2.3-5.9
			s-3.5-2.3-5.9-2.3c-1.5,0-2.9,0.4-4.1,1.2c-1.3,0.8-2.3,1.9-3,3.2c-0.7,1.4-1.1,3-1.1,4.8h-4.9c0-2.6,0.6-5,1.7-7
			c1.1-2.1,2.7-3.7,4.7-4.9c2-1.2,4.2-1.8,6.8-1.8c2.5,0,4.8,0.5,6.8,1.6s3.5,2.6,4.7,4.5c1.1,1.9,1.7,4.2,1.7,6.7
			c0,2.4-0.4,4.4-1.3,6.1c-0.9,1.7-2.2,3.4-3.9,5.2l-13.7,14.3v0.3h19.8v4.6L2090.9,1217.1L2090.9,1217.1z"/>
		<path class="st1" d="M2130.8,1217.1v-33.5h-9.1v-4.3h7.3c1.2,0,1.8-0.6,1.8-1.8v-3h4.9v42.7L2130.8,1217.1L2130.8,1217.1z"/>
		<path class="st1" d="M2147.3,1222h-4l1.2-10.4h5.5L2147.3,1222z"/>
		<path class="st1" d="M2176.3,1217.1h-4.6v-30.5h4.6v14l13.7-14h5.9l-14.6,14.9l15.3,15.6h-5.9l-14.3-14.6L2176.3,1217.1
			L2176.3,1217.1z"/>
		<path class="st1" d="M2204.8,1215.7c-2.2-1.3-4-3.2-5.3-5.6s-1.9-5.1-1.9-8.2s0.6-5.8,1.9-8.2s3-4.3,5.3-5.6c2.2-1.3,4.7-2,7.4-2
			s5.2,0.7,7.4,2s4,3.2,5.3,5.6s1.9,5.1,1.9,8.2s-0.6,5.8-1.9,8.2c-1.3,2.4-3,4.3-5.3,5.6c-2.2,1.3-4.7,2-7.4,2
			S2207,1217.1,2204.8,1215.7z M2217.3,1212c1.5-1,2.8-2.3,3.7-4.1s1.3-3.8,1.3-6.1s-0.4-4.3-1.3-6.1s-2.1-3.1-3.7-4.1
			c-1.5-1-3.2-1.4-5.1-1.4s-3.5,0.5-5.1,1.4c-1.5,1-2.8,2.3-3.7,4.1c-0.9,1.8-1.3,3.8-1.3,6.1s0.4,4.3,1.3,6.1
			c0.9,1.8,2.1,3.1,3.7,4.1c1.5,1,3.2,1.4,5.1,1.4S2215.8,1213,2217.3,1212z"/>
		<path class="st1" d="M2233.6,1229.3v-42.7h4l0.6,4.3h0.3c1.3-1.6,2.7-2.8,4.3-3.6c1.6-0.8,3.4-1.3,5.5-1.3c2.6,0,5,0.7,7.2,2
			c2.1,1.3,3.8,3.2,5,5.6s1.8,5.1,1.8,8.2s-0.6,5.8-1.8,8.2c-1.2,2.4-2.9,4.3-5,5.6c-2.1,1.3-4.5,2-7.2,2c-2.1,0-3.9-0.4-5.5-1.3
			s-3-2-4.3-3.6h-0.3v16.5h-4.6V1229.3z M2252.8,1212c1.5-1,2.7-2.3,3.6-4.1c0.9-1.7,1.3-3.8,1.3-6s-0.4-4.3-1.3-6
			c-0.9-1.7-2.1-3.1-3.6-4.1s-3.1-1.5-4.8-1.5c-1.8,0-3.4,0.5-4.8,1.5c-1.5,1-2.7,2.3-3.6,4.1c-0.9,1.7-1.3,3.8-1.3,6s0.4,4.3,1.3,6
			c0.9,1.7,2.1,3.1,3.6,4.1s3.1,1.5,4.8,1.5S2251.3,1213,2252.8,1212z"/>
		<path class="st1" d="M2273.6,1217.1h-4.6v-30.5h25.3v30.5h-4.6v-26.2h-16.2v26.2H2273.6z"/>
		<path class="st1" d="M2323.3,1186.6h4.9l-13.7,38.4c-0.5,1.5-1.2,2.5-2.1,3.2c-0.9,0.7-2.1,1-3.7,1h-6.1v-4.3h5.8
			c1,0,1.7-0.6,2.1-1.8l1.2-3.7l-12.5-32.9h4.9l9.5,25.3h1.2L2323.3,1186.6z"/>
		<path class="st1" d="M2337.8,1215.7c-2.2-1.3-4-3.2-5.3-5.6s-1.9-5.1-1.9-8.2s0.6-5.8,1.9-8.2s3-4.3,5.3-5.6c2.2-1.3,4.7-2,7.4-2
			c3.4,0,6.3,0.9,8.7,2.8s4,4.4,4.8,7.6h-4.6c-0.6-2-1.7-3.5-3.3-4.5c-1.6-1.1-3.4-1.6-5.6-1.6c-1.8,0-3.5,0.5-5.1,1.4
			c-1.5,1-2.8,2.3-3.7,4.1c-0.9,1.8-1.3,3.8-1.3,6.1s0.4,4.3,1.3,6.1c0.9,1.8,2.1,3.1,3.7,4.1c1.5,1,3.2,1.4,5.1,1.4
			c2.2,0,4.1-0.5,5.6-1.6s2.6-2.7,3.2-4.8h4.6c-0.8,3.3-2.4,5.9-4.8,7.8c-2.4,1.9-5.3,2.8-8.7,2.8
			C2342.5,1217.7,2340,1217.1,2337.8,1215.7z"/>
		<path class="st1" d="M2384.3,1217.1v-33.5h-9.2v-4.3h7.3c1.2,0,1.8-0.6,1.8-1.8v-3h4.9v42.7L2384.3,1217.1L2384.3,1217.1z"/>
		<path class="st1" d="M1292.1,1345.1h-7.9l-8.2-30.5h4.9l6.7,25.6h1.2l6.7-25.6h7.3l6.7,25.6h1.2l6.7-25.6h4.9l-8.2,30.5h-7.9
			l-6.4-24.7h-1.2L1292.1,1345.1z"/>
		<path class="st1" d="M1340.3,1345.1h-7.9l-8.2-30.5h4.9l6.7,25.6h1.2l6.7-25.6h7.3l6.7,25.6h1.2l6.7-25.6h4.9l-8.2,30.5h-7.9
			l-6.4-24.7h-1.2L1340.3,1345.1z"/>
		<path class="st1" d="M1388.5,1345.1h-7.9l-8.2-30.5h4.9l6.7,25.6h1.2l6.7-25.6h7.3l6.7,25.6h1.2l6.7-25.6h4.9l-8.2,30.5h-7.9
			l-6.4-24.7h-1.2L1388.5,1345.1z"/>
		<path class="st1" d="M1427.5,1345.1h-5.5v-5.5h5.5V1345.1z"/>
		<path class="st1" d="M1440.8,1343.7c-2.2-1.3-4-3.2-5.3-5.6s-1.9-5.1-1.9-8.2s0.6-5.8,1.9-8.2c1.3-2.4,3-4.3,5.3-5.6
			c2.2-1.3,4.7-2,7.4-2c2.6,0,5,0.6,7.1,1.9c2.2,1.3,3.8,3,5.1,5.2c1.2,2.2,1.8,4.7,1.8,7.5c0,1.6-0.1,2.7-0.3,3.4h-23.8
			c0.3,2.8,1.4,5.1,3.3,6.9c1.9,1.7,4.2,2.6,6.8,2.6c1.8,0,3.5-0.4,4.9-1.3s2.6-2.1,3.3-3.6h4.9c-1.1,2.9-2.7,5.2-5,6.8
			c-2.3,1.6-5,2.4-8.1,2.4C1445.5,1345.7,1443,1345.1,1440.8,1343.7z M1457.7,1327.7c-0.2-2.8-1.1-5-2.9-6.8s-4-2.7-6.6-2.7
			c-2.7,0-5,0.9-6.8,2.7s-2.9,4-3.2,6.8H1457.7z"/>
		<path class="st1" d="M1473.9,1345.1h-4.6v-42.7h4.6V1345.1z"/>
		<path class="st1" d="M1490.3,1345.1c-1.7,0-3-0.5-4-1.4c-1-1-1.5-2.2-1.5-3.8v-21h-4.9v-4.3h4.9v-8.5h4.6v8.5h7v4.3h-7v20.1
			c0,1.2,0.6,1.8,1.8,1.8h5.2v4.3H1490.3z"/>
		<path class="st1" d="M1504,1343.1c-2-1.8-3-4-3-6.8c0-3,1-5.4,3-7.2c2-1.7,5.1-2.6,9.2-2.6h8.2v-0.9c0-2.3-0.7-4.1-2-5.4
			s-3.1-2-5.4-2c-2.2,0-4,0.5-5.3,1.5c-1.4,1-2.1,2.2-2.3,3.7h-4.6c0.1-1.7,0.7-3.2,1.6-4.7c1-1.4,2.4-2.6,4.2-3.5
			c1.8-0.9,3.9-1.3,6.4-1.3c3.7,0,6.6,1,8.7,3.1s3.2,4.9,3.2,8.5v19.5h-4l-0.6-3.7h-0.3c-0.7,1.1-1.9,2.1-3.6,3s-3.7,1.3-5.9,1.3
			C1508.5,1345.7,1505.9,1344.9,1504,1343.1z M1518.8,1338.9c1.7-1.7,2.6-4,2.6-6.9v-1.2h-8.2c-2.6,0-4.5,0.5-5.8,1.5
			c-1.2,1-1.9,2.3-1.9,4c0,1.5,0.5,2.8,1.6,3.8s2.6,1.4,4.5,1.4C1514.7,1341.5,1517.1,1340.6,1518.8,1338.9z"/>
		<path class="st1" d="M1537.9,1344.4c-1.9-0.9-3.3-2-4.3-3.5c-1-1.4-1.5-3-1.5-4.7h4.6c0,1.4,0.7,2.6,2,3.7c1.4,1,3.2,1.5,5.6,1.5
			c2.3,0,4.1-0.4,5.4-1.3s1.9-2,1.9-3.3c0-1.2-0.4-2.2-1.3-3c-0.8-0.8-2.1-1.3-3.9-1.6l-5.2-0.9c-5.7-1-8.5-3.8-8.5-8.5
			c0-2.6,1-4.7,2.9-6.3c1.9-1.7,4.7-2.5,8.4-2.5c2.4,0,4.4,0.4,6.3,1.3c1.8,0.9,3.2,2,4.2,3.5s1.5,3,1.5,4.6h-4.6
			c0-1.4-0.7-2.6-2-3.7c-1.3-1-3.1-1.5-5.3-1.5c-2.2,0-3.8,0.4-5,1.3s-1.7,2-1.7,3.3c0,1.1,0.4,2.1,1.1,2.7c0.8,0.7,2,1.2,3.8,1.5
			l5.2,0.9c3,0.5,5.3,1.5,6.7,3c1.4,1.5,2.1,3.4,2.1,5.9c0,2.6-1,4.7-3.1,6.3c-2.1,1.7-5,2.5-8.8,2.5
			C1541.9,1345.7,1539.7,1345.3,1537.9,1344.4z"/>
		<path class="st1" d="M1562.6,1357.3v-42.7h4l0.6,4.3h0.3c1.3-1.6,2.7-2.8,4.3-3.6c1.6-0.8,3.4-1.3,5.5-1.3c2.6,0,5,0.7,7.2,2
			c2.1,1.3,3.8,3.2,5,5.6s1.8,5.1,1.8,8.2s-0.6,5.8-1.8,8.2c-1.2,2.4-2.9,4.3-5,5.6c-2.1,1.3-4.5,2-7.2,2c-2.1,0-3.9-0.4-5.5-1.3
			s-3-2-4.3-3.6h-0.3v16.5h-4.6V1357.3z M1581.8,1340c1.5-1,2.7-2.3,3.6-4.1c0.9-1.7,1.3-3.8,1.3-6s-0.4-4.3-1.3-6s-2.1-3.1-3.6-4.1
			s-3.1-1.5-4.8-1.5c-1.7,0-3.4,0.5-4.8,1.5s-2.7,2.3-3.6,4.1c-0.9,1.7-1.3,3.8-1.3,6s0.4,4.3,1.3,6s2.1,3.1,3.6,4.1
			s3.1,1.5,4.8,1.5C1578.7,1341.5,1580.3,1341,1581.8,1340z"/>
		<path class="st1" d="M1607.4,1344.5c-1.6-0.8-3-2-4.3-3.6h-0.3l-0.6,4.3h-4v-42.7h4.6v16.5h0.3c1.3-1.6,2.7-2.8,4.3-3.6
			c1.6-0.8,3.4-1.3,5.5-1.3c2.6,0,5,0.7,7.2,2c2.1,1.3,3.8,3.2,5,5.6s1.8,5.1,1.8,8.2s-0.6,5.8-1.8,8.2c-1.2,2.4-2.9,4.3-5,5.6
			c-2.1,1.3-4.5,2-7.2,2C1610.9,1345.7,1609,1345.3,1607.4,1344.5z M1617.5,1340c1.5-1,2.7-2.3,3.6-4.1c0.9-1.7,1.3-3.8,1.3-6
			s-0.4-4.3-1.3-6s-2.1-3.1-3.6-4.1s-3.1-1.5-4.8-1.5c-1.7,0-3.4,0.5-4.8,1.5c-1.5,1-2.7,2.3-3.6,4.1c-0.9,1.7-1.3,3.8-1.3,6
			s0.4,4.3,1.3,6s2.1,3.1,3.6,4.1s3.1,1.5,4.8,1.5S1616,1341,1617.5,1340z"/>
		<path class="st1" d="M1638.6,1345.1h-5.5v-5.5h5.5V1345.1z"/>
		<path class="st1" d="M1646.5,1345.1v-30.5h4l0.6,3h0.3c0.7-1.1,1.4-1.8,2.3-2.3c0.8-0.5,2-0.7,3.5-0.7h5.2v4.3h-4.6
			c-2.1,0-3.8,0.6-4.9,1.7c-1.2,1.2-1.8,2.8-1.8,5v19.5H1646.5z"/>
		<path class="st1" d="M1673.2,1344.1c-1.9-1.1-3.3-2.6-4.4-4.5c-1.1-2-1.6-4.2-1.6-6.6v-18.3h4.6v18.3c0,1.6,0.4,3,1.1,4.3
			s1.7,2.3,3,3.1c1.3,0.8,2.6,1.1,4.1,1.1c1.6,0,3.1-0.4,4.4-1.2s2.4-1.8,3.2-3.1c0.8-1.3,1.2-2.7,1.2-4.2v-18.3h4.6v30.5h-4
			l-0.6-3.4h-0.3c-0.9,1.1-2.1,2-3.7,2.8s-3.4,1.2-5.5,1.2C1677.1,1345.7,1675,1345.2,1673.2,1344.1z"/>
	</g>
</g>
<g>
	<path class="st1" d="M283.1,1222c0,27-8.4,53.2-23.9,75.3c-15.6,22-37.6,38.7-63,47.7v-31.3c17.4-8.2,32.1-21.2,42.3-37.4
		c10.3-16.2,15.7-35.1,15.7-54.3c0-19.2-5.5-38-15.8-54.2s-25-29.2-42.4-37.4V1099c25.5,9,47.5,25.6,63.1,47.7
		C274.7,1168.7,283.1,1195,283.1,1222z"/>
	<rect x="51" y="1207.5" class="st1" width="116.1" height="29"/>
	<path class="st1" d="M225.1,1222c0-9.5-1.9-18.9-5.5-27.7c-3.6-8.8-9-16.8-15.7-23.5s-14.7-12.1-23.5-15.7s-18.2-5.5-27.8-5.5
		h-43.5v29h87v86.9h-87v29h43.5c9.5,0,19-1.9,27.8-5.5s16.8-9,23.5-15.7s12.1-14.7,15.7-23.5C223.2,1240.9,225.1,1231.5,225.1,1222z
		"/>
</g>
<g>
	<g>
		<path class="st1" d="M66.1,648.3h-6.4v-42.7h6.4v19.6l16.3-19.6h7.9l-17.6,21l18.8,21.7h-7.9L66.1,628V648.3z"/>
		<path class="st1" d="M102,646.1c-3.1-1.9-5.6-4.5-7.4-7.8s-2.7-7.1-2.7-11.3s0.9-8,2.7-11.3c1.8-3.3,4.3-5.9,7.4-7.8
			c3.1-1.9,6.6-2.8,10.3-2.8c3.8,0,7.2,0.9,10.4,2.8c3.1,1.9,5.6,4.5,7.4,7.8s2.7,7.1,2.7,11.3s-0.9,8-2.7,11.3s-4.3,5.9-7.4,7.8
			c-3.1,1.9-6.6,2.8-10.4,2.8C108.6,648.9,105.1,648,102,646.1z M119.5,640.8c2.2-1.3,3.9-3.2,5.1-5.6c1.3-2.4,1.9-5.2,1.9-8.3
			s-0.6-5.8-1.9-8.3c-1.3-2.4-3-4.3-5.1-5.6c-2.2-1.3-4.5-2-7.1-2s-4.9,0.7-7.1,2s-3.9,3.2-5.1,5.6c-1.3,2.4-1.9,5.2-1.9,8.3
			s0.6,5.8,1.9,8.3c1.3,2.4,3,4.3,5.1,5.6c2.2,1.3,4.5,2,7.1,2S117.3,642.1,119.5,640.8z"/>
		<path class="st1" d="M146.9,648.3h-6.4v-42.7h10.7l11.7,33.9h1.2l11.7-33.9h10.8v42.7h-6.4v-33.1H179l-11.5,33.1h-7.9l-11.5-33.1
			h-1.2L146.9,648.3L146.9,648.3z"/>
		<path class="st1" d="M202.4,648.3H196v-42.7h34.1v42.7h-6.4v-36.6h-21.3L202.4,648.3L202.4,648.3z"/>
		<path class="st1" d="M235.3,648.6v-6.3h1.9c2.8,0,4.4-1.6,4.6-4.9l2.7-31.8h27.6v42.7h-6.4v-36.6h-15.3l-2.3,26.4
			c-0.3,3.6-1.3,6.2-3,7.9s-4.2,2.6-7.4,2.6L235.3,648.6L235.3,648.6z"/>
		<path class="st1" d="M309.5,648.3h-28v-42.7h28v5.9h-21.6v12.4h20.4v5.8h-20.4v12.6h21.6V648.3z"/>
		<path class="st1" d="M323.9,648.3h-6.4v-42.7h6.4v19.6l16.3-19.6h7.9l-17.6,21l18.8,21.7h-7.9L323.9,628V648.3z"/>
		<path class="st1" d="M359.8,646.1c-3.1-1.9-5.6-4.5-7.4-7.8s-2.7-7.1-2.7-11.3s0.9-8,2.7-11.3c1.8-3.3,4.3-5.9,7.4-7.8
			c3.1-1.9,6.6-2.8,10.3-2.8c3.3,0,6.2,0.7,8.8,2c2.6,1.3,4.8,3.1,6.6,5.4c1.8,2.3,3,4.8,3.7,7.6h-6.6c-0.9-2.6-2.5-4.8-4.7-6.4
			c-2.2-1.6-4.8-2.5-7.8-2.5c-2.6,0-4.9,0.7-7.1,2s-3.9,3.2-5.1,5.6c-1.3,2.4-1.9,5.2-1.9,8.3s0.6,5.8,1.9,8.3
			c1.3,2.4,3,4.3,5.1,5.6c2.2,1.3,4.5,2,7.1,2c3.1,0,5.7-0.8,7.9-2.5c2.2-1.7,3.7-3.9,4.6-6.7h6.6c-0.7,2.9-1.9,5.5-3.7,7.8
			c-1.7,2.3-3.9,4.1-6.6,5.5c-2.6,1.3-5.6,2-8.9,2C366.4,648.9,362.9,648,359.8,646.1z"/>
		<path class="st1" d="M402.4,648.3H396v-42.7h6.4v18.1h21.5v-18.1h6.4v42.7h-6.4v-18.4h-21.5V648.3z"/>
		<path class="st1" d="M448,646.1c-3.1-1.9-5.6-4.5-7.4-7.8s-2.7-7.1-2.7-11.3s0.9-8,2.7-11.3c1.8-3.3,4.3-5.9,7.4-7.8
			c3.1-1.9,6.6-2.8,10.3-2.8c3.8,0,7.2,0.9,10.4,2.8c3.1,1.9,5.6,4.5,7.4,7.8s2.7,7.1,2.7,11.3s-0.9,8-2.7,11.3
			c-1.8,3.3-4.3,5.9-7.4,7.8c-3.1,1.9-6.6,2.8-10.4,2.8C454.6,648.9,451.1,648,448,646.1z M465.5,640.8c2.2-1.3,3.9-3.2,5.1-5.6
			c1.3-2.4,1.9-5.2,1.9-8.3s-0.6-5.8-1.9-8.3c-1.3-2.4-3-4.3-5.1-5.6c-2.2-1.3-4.5-2-7.1-2s-4.9,0.7-7.1,2s-3.9,3.2-5.1,5.6
			c-1.3,2.4-1.9,5.2-1.9,8.3s0.6,5.8,1.9,8.3c1.3,2.4,3,4.3,5.1,5.6c2.2,1.3,4.5,2,7.1,2S463.3,642.1,465.5,640.8z"/>
		<path class="st1" d="M514.5,648.3h-28v-42.7h28v5.9h-21.6v12.4h20.4v5.8h-20.4v12.6h21.6V648.3z"/>
		<path class="st1" d="M543.7,648.3h-6.4v-42.7h34.1v42.7H565v-36.6h-21.3V648.3z"/>
		<path class="st1" d="M580.8,648.3v-42.7h19c2.4,0,4.6,0.6,6.5,1.7c2,1.2,3.5,2.8,4.6,4.8c1.1,2.1,1.7,4.4,1.7,7.1
			c0,2.6-0.6,5-1.7,7.1c-1.1,2.1-2.7,3.7-4.6,4.9c-2,1.2-4.1,1.7-6.5,1.7h-12.6v15.3h-6.4V648.3z M599.6,626.9
			c1.8,0,3.4-0.7,4.7-2.1c1.3-1.4,1.9-3.2,1.9-5.5s-0.6-4.1-1.9-5.5c-1.3-1.4-2.8-2.1-4.7-2.1h-12.4v15.2L599.6,626.9L599.6,626.9z"
			/>
		<path class="st1" d="M628.3,646.1c-3.1-1.9-5.6-4.5-7.4-7.8c-1.8-3.3-2.7-7.1-2.7-11.3s0.9-8,2.7-11.3s4.3-5.9,7.4-7.8
			c3.1-1.9,6.6-2.8,10.3-2.8c3.8,0,7.2,0.9,10.4,2.8c3.1,1.9,5.6,4.5,7.4,7.8c1.8,3.3,2.7,7.1,2.7,11.3s-0.9,8-2.7,11.3
			s-4.3,5.9-7.4,7.8c-3.1,1.9-6.6,2.8-10.4,2.8C634.9,648.9,631.4,648,628.3,646.1z M645.8,640.8c2.2-1.3,3.9-3.2,5.1-5.6
			c1.3-2.4,1.9-5.2,1.9-8.3s-0.6-5.8-1.9-8.3c-1.3-2.4-3-4.3-5.1-5.6c-2.2-1.3-4.5-2-7.1-2s-4.9,0.7-7.1,2c-2.2,1.3-3.9,3.2-5.1,5.6
			c-1.3,2.4-1.9,5.2-1.9,8.3s0.6,5.8,1.9,8.3c1.3,2.4,3,4.3,5.1,5.6c2.2,1.3,4.5,2,7.1,2S643.7,642.1,645.8,640.8z"/>
		<path class="st1" d="M694.8,648.3h-28v-42.7h28v5.9h-21.6v12.4h20.4v5.8h-20.4v12.6h21.6V648.3z"/>
		<path class="st1" d="M709.2,648.3h-6.4v-42.7h6.4v19.6l16.3-19.6h7.9l-17.6,21l18.8,21.7h-7.9L709.2,628V648.3z"/>
		<path class="st1" d="M754.6,648.3h-6.4v-36.6h-13.4v-6.1H768v6.1h-13.4L754.6,648.3L754.6,648.3z"/>
		<path class="st1" d="M783.3,648.3H774v-42.7h6.4V639h1.2l17.4-33.4h9.3v42.7h-6.4v-33.4h-1.2L783.3,648.3z"/>
		<path class="st1" d="M817.7,648.3v-42.7h19c2.4,0,4.6,0.6,6.5,1.7c2,1.2,3.5,2.8,4.6,4.8c1.1,2.1,1.7,4.4,1.7,7.1
			c0,2.6-0.6,5-1.7,7.1c-1.1,2.1-2.7,3.7-4.6,4.9c-2,1.2-4.1,1.7-6.5,1.7h-12.6v15.3h-6.4V648.3z M836.5,626.9
			c1.8,0,3.4-0.7,4.7-2.1c1.3-1.4,1.9-3.2,1.9-5.5s-0.6-4.1-1.9-5.5c-1.3-1.4-2.8-2.1-4.7-2.1h-12.4v15.2L836.5,626.9L836.5,626.9z"
			/>
		<path class="st1" d="M865.3,646.1c-3.1-1.9-5.6-4.5-7.4-7.8c-1.8-3.3-2.7-7.1-2.7-11.3s0.9-8,2.7-11.3s4.3-5.9,7.4-7.8
			c3.1-1.9,6.6-2.8,10.3-2.8c3.8,0,7.2,0.9,10.4,2.8c3.1,1.9,5.6,4.5,7.4,7.8c1.8,3.3,2.7,7.1,2.7,11.3s-0.9,8-2.7,11.3
			s-4.3,5.9-7.4,7.8c-3.1,1.9-6.6,2.8-10.4,2.8C871.8,648.9,868.4,648,865.3,646.1z M882.7,640.8c2.2-1.3,3.9-3.2,5.1-5.6
			c1.3-2.4,1.9-5.2,1.9-8.3s-0.6-5.8-1.9-8.3c-1.3-2.4-3-4.3-5.1-5.6c-2.2-1.3-4.5-2-7.1-2s-4.9,0.7-7.1,2c-2.2,1.3-3.9,3.2-5.1,5.6
			c-1.3,2.4-1.9,5.2-1.9,8.3s0.6,5.8,1.9,8.3c1.3,2.4,3,4.3,5.1,5.6c2.2,1.3,4.5,2,7.1,2S880.6,642.1,882.7,640.8z"/>
		<path class="st1" d="M903.7,648.3v-42.7h19c2.2,0,4.3,0.5,6.1,1.6c1.8,1,3.2,2.5,4.3,4.3c1,1.8,1.6,3.8,1.6,6.1
			c0,2.1-0.5,4-1.4,5.6s-2,2.8-3.2,3.5v0.3c1.3,0.7,2.5,1.8,3.6,3.5s1.6,3.7,1.6,5.9s-0.5,4.3-1.6,6.1c-1,1.8-2.5,3.2-4.3,4.3
			c-1.8,1-3.8,1.6-6.1,1.6L903.7,648.3L903.7,648.3z M922.3,624.1c1.6,0,3-0.6,4.2-1.8s1.7-2.7,1.7-4.5s-0.6-3.4-1.7-4.6
			c-1.2-1.2-2.6-1.8-4.2-1.8h-12.2v12.7L922.3,624.1L922.3,624.1z M922.9,642.5c1.6,0,3-0.6,4.2-1.8s1.7-2.7,1.7-4.6
			c0-1.8-0.6-3.3-1.7-4.5c-1.2-1.2-2.6-1.8-4.2-1.8h-12.8v12.7L922.9,642.5L922.9,642.5z"/>
		<path class="st1" d="M978.1,648.3h-6.9l-3.7-10.2h-19.6l-3.7,10.2h-7l15.7-42.7h9.4L978.1,648.3z M957.1,612.4l-7.1,19.8h15.5
			l-7.1-19.8H957.1z"/>
		<path class="st1" d="M989.1,648.3h-6.4v-42.7h6.4v18.1h21.5v-18.1h6.4v42.7h-6.4v-18.4h-21.5V648.3z"/>
		<path class="st1" d="M1035.7,648.3h-9.3v-42.7h6.4V639h1.2l17.4-33.4h9.3v42.7h-6.4v-33.4h-1.2L1035.7,648.3z"/>
		<path class="st1" d="M1098.1,648.3h-28v-42.7h28v5.9h-21.6v12.4h20.4v5.8h-20.4v12.6h21.6V648.3z"/>
		<path class="st1" d="M1109,653.4h-5.1l1.3-12h7L1109,653.4z"/>
		<path class="st1" d="M66.1,714.3h-6.4v-42.7h10.7l11.7,33.9h1.2L95,671.6h10.8v42.7h-6.4v-33.1h-1.2l-11.5,33.1h-7.9l-11.5-33.1
			h-1.2C66.1,681.2,66.1,714.3,66.1,714.3z"/>
		<path class="st1" d="M123.5,712.1c-3.1-1.9-5.6-4.5-7.4-7.8s-2.7-7.1-2.7-11.3s0.9-8,2.7-11.3c1.8-3.3,4.3-5.9,7.4-7.8
			c3.1-1.9,6.6-2.8,10.3-2.8c3.8,0,7.2,0.9,10.4,2.8c3.1,1.9,5.6,4.5,7.4,7.8c1.8,3.3,2.7,7.1,2.7,11.3s-0.9,8-2.7,11.3
			s-4.3,5.9-7.4,7.8c-3.1,1.9-6.6,2.8-10.4,2.8C130.1,714.9,126.6,714,123.5,712.1z M141,706.8c2.2-1.3,3.9-3.2,5.1-5.6
			c1.3-2.4,1.9-5.2,1.9-8.3s-0.6-5.8-1.9-8.3c-1.3-2.4-3-4.3-5.1-5.6c-2.2-1.3-4.5-2-7.1-2s-4.9,0.7-7.1,2c-2.2,1.3-3.9,3.2-5.1,5.6
			c-1.3,2.4-1.9,5.2-1.9,8.3s0.6,5.8,1.9,8.3c1.3,2.4,3,4.3,5.1,5.6c2.2,1.3,4.5,2,7.1,2C136.4,708.8,138.8,708.1,141,706.8z"/>
		<path class="st1" d="M168.4,714.3H162v-42.7h6.4v18.1h21.5v-18.1h6.4v42.7h-6.4v-18.4h-21.5V714.3z"/>
		<path class="st1" d="M222.2,714.3h-6.4v-36.6h-13.4v-6.1h33.2v6.1h-13.4L222.2,714.3L222.2,714.3z"/>
		<path class="st1" d="M274,714.3h-6.9l-3.7-10.2h-19.6l-3.7,10.2h-7l15.7-42.7h9.4L274,714.3z M253,678.4l-7.1,19.8h15.5l-7.1-19.8
			H253z"/>
		<path class="st1" d="M281.3,714.3h-7.6l15.6-21.7l-14.3-21h7.6l13.3,19.6v-19.6h6.4v19.6l13.3-19.6h7.6l-14.3,21l15.6,21.7h-7.6
			l-14.5-20.6v20.6H296v-20.6L281.3,714.3z"/>
		<path class="st1" d="M351.8,714.3h-9.3v-42.7h6.4V705h1.2l17.4-33.4h9.3v42.7h-6.4v-33.4h-1.2L351.8,714.3z"/>
		<path class="st1" d="M409.3,712.1c-3.1-1.9-5.6-4.5-7.4-7.8s-2.7-7.1-2.7-11.3s0.9-8,2.7-11.3c1.8-3.3,4.3-5.9,7.4-7.8
			c3.1-1.9,6.6-2.8,10.3-2.8c3.8,0,7.2,0.9,10.4,2.8c3.1,1.9,5.6,4.5,7.4,7.8s2.7,7.1,2.7,11.3s-0.9,8-2.7,11.3
			c-1.8,3.3-4.3,5.9-7.4,7.8c-3.1,1.9-6.6,2.8-10.4,2.8C415.9,714.9,412.5,714,409.3,712.1z M426.8,706.8c2.2-1.3,3.9-3.2,5.1-5.6
			c1.3-2.4,1.9-5.2,1.9-8.3s-0.6-5.8-1.9-8.3c-1.3-2.4-3-4.3-5.1-5.6c-2.2-1.3-4.5-2-7.1-2s-4.9,0.7-7.1,2s-3.9,3.2-5.1,5.6
			c-1.3,2.4-1.9,5.2-1.9,8.3s0.6,5.8,1.9,8.3c1.3,2.4,3,4.3,5.1,5.6c2.2,1.3,4.5,2,7.1,2S424.7,708.1,426.8,706.8z"/>
		<path class="st1" d="M447.8,714.3v-42.7h29.5v5.8h-23.1v12h13.3c2.3,0,4.3,0.5,6.2,1.6c1.9,1.1,3.3,2.5,4.4,4.4s1.6,4,1.6,6.4
			s-0.5,4.6-1.6,6.5s-2.5,3.4-4.4,4.4c-1.9,1.1-3.9,1.6-6.2,1.6H447.8z M467.3,708.5c1.7,0,3.2-0.6,4.3-1.9c1.1-1.2,1.6-2.9,1.6-4.8
			c0-2-0.5-3.6-1.6-4.8s-2.5-1.8-4.3-1.8h-13.1v13.4h13.1V708.5z"/>
		<path class="st1" d="M495.4,712.1c-3.1-1.9-5.6-4.5-7.4-7.8s-2.7-7.1-2.7-11.3s0.9-8,2.7-11.3c1.8-3.3,4.3-5.9,7.4-7.8
			c3.1-1.9,6.6-2.8,10.3-2.8c3.3,0,6.2,0.7,8.8,2c2.6,1.3,4.8,3.1,6.6,5.4c1.8,2.3,3,4.8,3.7,7.6h-6.6c-0.9-2.6-2.5-4.8-4.7-6.4
			c-2.2-1.6-4.8-2.5-7.8-2.5c-2.6,0-4.9,0.7-7.1,2s-3.9,3.2-5.1,5.6c-1.3,2.4-1.9,5.2-1.9,8.3s0.6,5.8,1.9,8.3
			c1.3,2.4,3,4.3,5.1,5.6c2.2,1.3,4.5,2,7.1,2c3.1,0,5.7-0.8,7.9-2.5s3.7-3.9,4.6-6.7h6.6c-0.7,2.9-1.9,5.5-3.7,7.8
			c-1.7,2.3-3.9,4.1-6.6,5.5c-2.6,1.3-5.6,2-8.9,2C502,714.9,498.5,714,495.4,712.1z"/>
		<path class="st1" d="M526.2,714.6v-6.3h1.9c2.8,0,4.4-1.6,4.6-4.9l2.7-31.8H563v42.7h-6.4v-36.6h-15.3l-2.3,26.4
			c-0.3,3.6-1.3,6.2-3,7.9s-4.2,2.6-7.4,2.6L526.2,714.6L526.2,714.6z"/>
		<path class="st1" d="M598.4,671.6h6.9l-17.1,37.6c-0.8,1.7-1.8,3-3.1,3.8c-1.3,0.9-3,1.3-5.3,1.3h-6.1v-5.9h5.8
			c0.9,0,1.5-0.2,2-0.5s0.9-0.8,1.2-1.6l1-2.2l-15.9-32.6h7l11.5,24.2h1.2L598.4,671.6z"/>
		<path class="st1" d="M612.8,714.3h-7.6l15.6-21.7l-14.3-21h7.6l13.3,19.6v-19.6h6.4v19.6l13.3-19.6h7.6l-14.3,21l15.6,21.7h-7.6
			l-14.5-20.6v20.6h-6.4v-20.6L612.8,714.3z"/>
		<path class="st1" d="M669.7,714.3h-9.3v-42.7h6.4V705h1.2l17.4-33.4h9.3v42.7h-6.4v-33.4H687L669.7,714.3z"/>
		<path class="st1" d="M704.1,714.3v-42.7h19c2.2,0,4.3,0.5,6.1,1.6c1.8,1,3.2,2.5,4.3,4.3c1,1.8,1.6,3.8,1.6,6.1
			c0,2.1-0.5,4-1.4,5.6s-2,2.8-3.2,3.5v0.3c1.3,0.7,2.5,1.8,3.6,3.5s1.6,3.7,1.6,5.9s-0.5,4.3-1.6,6.1c-1,1.8-2.5,3.2-4.3,4.3
			c-1.8,1-3.8,1.6-6.1,1.6L704.1,714.3L704.1,714.3z M722.7,690.1c1.6,0,3-0.6,4.2-1.8s1.7-2.7,1.7-4.5s-0.6-3.4-1.7-4.6
			c-1.2-1.2-2.6-1.8-4.2-1.8h-12.2v12.7L722.7,690.1L722.7,690.1z M723.3,708.5c1.6,0,3-0.6,4.2-1.8s1.7-2.7,1.7-4.6
			c0-1.8-0.6-3.3-1.7-4.5c-1.2-1.2-2.6-1.8-4.2-1.8h-12.8v12.7L723.3,708.5L723.3,708.5z"/>
		<path class="st1" d="M778.4,714.3h-6.9l-3.7-10.2h-19.6l-3.7,10.2h-7l15.7-42.7h9.4L778.4,714.3z M757.4,678.4l-7.1,19.8h15.5
			l-7.1-19.8H757.4z"/>
		<path class="st1" d="M789.5,714.3h-6.4v-42.7h6.4v18.1H811v-18.1h6.4v42.7H811v-18.4h-21.5V714.3z"/>
		<path class="st1" d="M836,714.3h-9.3v-42.7h6.4V705h1.2l17.4-33.4h9.3v42.7h-6.4v-33.4h-1.2L836,714.3z"/>
		<path class="st1" d="M898.4,714.3h-28v-42.7h28v5.9h-21.6v12.4h20.4v5.8h-20.4v12.6h21.6V714.3z"/>
		<path class="st1" d="M68.9,780.3h-9.3v-42.7H66V771h1.2l17.4-33.4h9.3v42.7h-6.4v-33.4h-1.2L68.9,780.3z"/>
		<path class="st1" d="M109.7,780.3h-6.4v-42.7h6.4v18.1h21.5v-18.1h6.4v42.7h-6.4v-18.4h-21.5V780.3z"/>
		<path class="st1" d="M149.8,780.3h-7.6l15.6-21.7l-14.3-21h7.6l13.3,19.6v-19.6h6.4v19.6l13.3-19.6h7.6l-14.3,21l15.6,21.7h-7.6
			l-14.5-20.6v20.6h-6.4v-20.6L149.8,780.3z"/>
		<path class="st1" d="M225.3,780.3h-28v-42.7h28v5.9h-21.6v12.4h20.4v5.8h-20.4v12.6h21.6V780.3z"/>
		<path class="st1" d="M239.7,780.3h-6.4v-42.7h6.4v18.1h21.5v-18.1h6.4v42.7h-6.4v-18.4h-21.5L239.7,780.3L239.7,780.3z"/>
		<path class="st1" d="M305,780.3h-28v-42.7h28v5.9h-21.6v12.4h20.4v5.8h-20.4v12.6H305V780.3z"/>
		<path class="st1" d="M313,780.3v-42.7h19c2.4,0,4.6,0.6,6.5,1.7c2,1.2,3.5,2.8,4.6,4.8c1.1,2.1,1.7,4.4,1.7,7.1
			c0,2.6-0.6,5-1.7,7.1s-2.7,3.7-4.6,4.9c-2,1.2-4.1,1.7-6.5,1.7h-12.6v15.3H313V780.3z M331.8,758.9c1.8,0,3.4-0.7,4.7-2.1
			c1.3-1.4,1.9-3.2,1.9-5.5s-0.6-4.1-1.9-5.5s-2.8-2.1-4.7-2.1h-12.4v15.2L331.8,758.9L331.8,758.9z"/>
		<path class="st1" d="M358.6,780.3h-6.4v-42.7h6.4v18.1h21.5v-18.1h6.4v42.7h-6.4v-18.4h-21.5V780.3z"/>
		<path class="st1" d="M395.9,780.3v-42.7h6.4v15.1H413c2.4,0,4.7,0.6,6.6,1.8c2,1.2,3.5,2.8,4.7,4.9c1.1,2.1,1.7,4.5,1.7,7.1
			s-0.6,5-1.7,7.1s-2.7,3.7-4.7,4.9s-4.2,1.8-6.6,1.8L395.9,780.3L395.9,780.3z M412.8,774.2c2,0,3.6-0.7,4.8-2.2
			c1.3-1.4,1.9-3.3,1.9-5.5s-0.6-4.1-1.9-5.6s-2.9-2.2-4.8-2.2h-10.6v15.4L412.8,774.2L412.8,774.2z M437,780.3h-6.4v-42.7h6.4
			V780.3z"/>
		<path class="st1" d="M449.3,780.3h-7.4l14.8-22l-13.8-20.7h7.4l10.2,15.6h1.2l10.1-15.6h7.4l-13.8,20.7l14.8,22h-7.4l-11-16.7
			h-1.2L449.3,780.3z"/>
		<path class="st1" d="M506.7,778.1c-3.1-1.9-5.6-4.5-7.4-7.8s-2.7-7.1-2.7-11.3s0.9-8,2.7-11.3c1.8-3.3,4.3-5.9,7.4-7.8
			c3.1-1.9,6.6-2.8,10.3-2.8c3.3,0,6.2,0.7,8.8,2s4.8,3.1,6.6,5.4s3,4.8,3.7,7.6h-6.6c-0.9-2.6-2.5-4.8-4.7-6.4
			c-2.2-1.6-4.8-2.5-7.8-2.5c-2.6,0-4.9,0.7-7.1,2c-2.2,1.3-3.9,3.2-5.1,5.6c-1.3,2.4-1.9,5.2-1.9,8.3s0.6,5.8,1.9,8.3
			c1.3,2.4,3,4.3,5.1,5.6c2.2,1.3,4.5,2,7.1,2c3.1,0,5.7-0.8,7.9-2.5s3.7-3.9,4.6-6.7h6.6c-0.7,2.9-1.9,5.5-3.7,7.8
			c-1.7,2.3-3.9,4.1-6.6,5.5c-2.6,1.3-5.6,2-8.9,2C513.3,780.9,509.8,780,506.7,778.1z"/>
		<path class="st1" d="M552.2,780.3h-9.3v-42.7h6.4V771h1.2l17.4-33.4h9.3v42.7h-6.4v-33.4h-1.2L552.2,780.3z"/>
		<path class="st1" d="M594.9,778.1c-3.1-1.9-5.6-4.5-7.4-7.8c-1.8-3.3-2.7-7.1-2.7-11.3s0.9-8,2.7-11.3s4.3-5.9,7.4-7.8
			c3.1-1.9,6.6-2.8,10.3-2.8c3.3,0,6.2,0.7,8.8,2s4.8,3.1,6.6,5.4s3,4.8,3.7,7.6h-6.6c-0.9-2.6-2.5-4.8-4.7-6.4
			c-2.2-1.6-4.8-2.5-7.8-2.5c-2.6,0-4.9,0.7-7.1,2c-2.2,1.3-3.9,3.2-5.1,5.6c-1.3,2.4-1.9,5.2-1.9,8.3s0.6,5.8,1.9,8.3
			c1.3,2.4,3,4.3,5.1,5.6c2.2,1.3,4.5,2,7.1,2c3.1,0,5.7-0.8,7.9-2.5s3.7-3.9,4.6-6.7h6.6c-0.7,2.9-1.9,5.5-3.7,7.8
			c-1.7,2.3-3.9,4.1-6.6,5.5c-2.6,1.3-5.6,2-8.9,2C601.5,780.9,598,780,594.9,778.1z"/>
		<path class="st1" d="M646.4,780.3H640v-36.6h-13.4v-6.1h33.2v6.1h-13.4L646.4,780.3L646.4,780.3z"/>
		<path class="st1" d="M693.9,780.3h-28v-42.7h28v5.9h-21.6v12.4h20.4v5.8h-20.4v12.6h21.6V780.3z"/>
		<path class="st1" d="M708.3,780.3h-6.4v-42.7h10.7l11.7,33.9h1.2l11.7-33.9H748v42.7h-6.4v-33.1h-1.2l-11.5,33.1H721l-11.5-33.1
			h-1.2V780.3z"/>
	</g>
</g>
</svg>
