<?xml version="1.0" encoding="utf-8"?>
<!-- Generator: Adobe Illustrator 22.0.0, SVG Export Plug-In . SVG Version: 6.00 Build 0)  -->
<svg version="1.1" id="Layer_1" xmlns="http://www.w3.org/2000/svg" xmlns:xlink="http://www.w3.org/1999/xlink" x="0px" y="0px"
	 viewBox="0 0 829 277.9" style="enable-background:new 0 0 829 277.9;" xml:space="preserve">
<style type="text/css">
	.st0{fill:none;stroke:#CDD0D0;stroke-miterlimit:10;}
	.st1{fill:#E8E8EA;}
	.st2{fill:#A4A4AB;}
	.st3{fill:#52525F;}
	.st4{fill:#1B1B2D;}
	.st5{fill:#9CA0A2;}
	.st6{fill:#6A7173;}
	.st7{opacity:0.47;}
	.st8{opacity:0.54;}
	.st9{fill:#738CEA;}
	.st10{fill:#D63318;}
	.st11{fill:#31772D;}
	.st12{fill:none;stroke:#1B1B2D;stroke-miterlimit:10;}
	.st13{opacity:0.5;fill:none;stroke:#1B1B2D;stroke-miterlimit:10;}
	.st14{fill:#FFFFFF;}
</style>
<line class="st0" x1="26" y1="37.9" x2="434" y2="37.9"/>
<line class="st0" x1="26" y1="97.9" x2="434" y2="97.9"/>
<line class="st0" x1="26" y1="157.9" x2="434" y2="157.9"/>
<line class="st0" x1="26" y1="217.9" x2="434" y2="217.9"/>
<line class="st0" x1="224.5" y1="38.4" x2="224.5" y2="277.4"/>
<line class="st0" x1="120.5" y1="38.4" x2="120.5" y2="277.4"/>
<line class="st0" x1="328.5" y1="38.4" x2="328.5" y2="277.4"/>
<rect x="26" y="192.4" class="st1" width="21.3" height="85"/>
<rect x="47.3" y="183.9" class="st2" width="21.3" height="93.5"/>
<rect x="68.5" y="165.9" class="st3" width="21.3" height="111.5"/>
<rect x="89.8" y="178.4" class="st4" width="21.3" height="99"/>
<rect x="130" y="243.9" class="st1" width="21.3" height="33.5"/>
<rect x="151.3" y="236.9" class="st5" width="21.3" height="40.5"/>
<rect x="172.5" y="165.9" class="st6" width="21.3" height="111.5"/>
<rect x="193.8" y="138.9" class="st4" width="21.3" height="138.5"/>
<rect x="234" y="204.9" class="st1" width="21.3" height="72.5"/>
<rect x="255.3" y="143.9" class="st3" width="21.3" height="133.5"/>
<rect x="276.5" y="78.9" class="st2" width="21.3" height="198.5"/>
<rect x="297.8" y="93.9" class="st4" width="21.3" height="183.5"/>
<rect x="337" y="119.9" class="st1" width="21.3" height="157.5"/>
<rect x="358.3" y="57.9" class="st2" width="21.3" height="219.5"/>
<rect x="379.5" y="139.9" class="st3" width="21.3" height="137.5"/>
<rect x="400.8" y="46.9" class="st4" width="21.3" height="230.5"/>
<g>
	<g>
		<g>
			<path class="st4" d="M1.5,34.8c0.7,0,1-0.2,1.4-0.8h0.7v6.3H2.8V35c-0.3,0.3-0.7,0.4-1.3,0.4L1.5,34.8L1.5,34.8z"/>
			<path class="st4" d="M10.3,37.1c0,1-0.3,1.8-0.8,2.4s-1.2,0.9-2,0.9s-1.5-0.3-2-0.9s-0.8-1.4-0.8-2.4s0.3-1.8,0.8-2.4
				s1.2-0.9,2-0.9s1.5,0.3,2,0.9S10.3,36.2,10.3,37.1z M7.5,39.7c0.6,0,1.1-0.2,1.4-0.7c0.4-0.5,0.5-1.1,0.5-1.9s-0.2-1.4-0.5-1.9
				s-0.8-0.7-1.4-0.7s-1.1,0.2-1.4,0.7s-0.5,1.1-0.5,1.9s0.2,1.4,0.5,1.9C6.5,39.5,6.9,39.7,7.5,39.7z"/>
			<path class="st4" d="M16.7,37.1c0,1-0.3,1.8-0.8,2.4c-0.5,0.6-1.2,0.9-2,0.9s-1.5-0.3-2-0.9s-0.8-1.4-0.8-2.4s0.3-1.8,0.8-2.4
				s1.2-0.9,2-0.9s1.5,0.3,2,0.9C16.4,35.4,16.7,36.2,16.7,37.1z M14,39.7c0.6,0,1.1-0.2,1.4-0.7c0.4-0.5,0.5-1.1,0.5-1.9
				s-0.2-1.4-0.5-1.9s-0.8-0.7-1.4-0.7s-1.1,0.2-1.4,0.7s-0.5,1.1-0.5,1.9s0.2,1.4,0.5,1.9S13.4,39.7,14,39.7z"/>
		</g>
	</g>
</g>
<g>
	<g>
		<g>
			<path class="st4" d="M5.5,95.6L3,101.3H2.3l2.5-5.6H1.5V95h4.1v0.6H5.5z"/>
			<path class="st4" d="M6.4,98.4L6.7,95h3.6v0.7h-3l-0.2,2.1C7.5,97.3,8,97,8.6,97s1.2,0.2,1.5,0.6c0.4,0.4,0.5,0.9,0.5,1.6
				c0,0.6-0.2,1.2-0.6,1.6s-1,0.6-1.6,0.6s-1.1-0.2-1.5-0.5s-0.6-0.7-0.6-1.2c0-0.2,0-0.3,0.1-0.5l0.7,0.2c0,0.1,0,0.2,0,0.3
				c0,0.7,0.6,1.1,1.4,1.1c0.9,0,1.5-0.6,1.5-1.6s-0.6-1.6-1.5-1.6c-0.6,0-1.2,0.4-1.5,0.9L6.4,98.4z"/>
		</g>
	</g>
</g>
<g>
	<g>
		<g>
			<path class="st4" d="M1.6,158.4l0.3-3.4h3.6v0.7h-3l-0.2,2.1c0.4-0.5,0.9-0.8,1.5-0.8s1.2,0.2,1.5,0.6c0.4,0.4,0.5,0.9,0.5,1.6
				c0,0.6-0.2,1.2-0.6,1.6c-0.4,0.4-1,0.6-1.6,0.6s-1.1-0.2-1.5-0.5s-0.6-0.7-0.6-1.2c0-0.2,0-0.3,0.1-0.5l0.7,0.2
				c0,0.1,0,0.2,0,0.3c0,0.7,0.6,1.1,1.4,1.1c0.9,0,1.5-0.6,1.5-1.6s-0.6-1.6-1.5-1.6c-0.6,0-1.2,0.4-1.5,0.9L1.6,158.4z"/>
			<path class="st4" d="M12.3,158.1c0,1-0.3,1.8-0.8,2.4s-1.2,0.9-2,0.9s-1.5-0.3-2-0.9s-0.8-1.4-0.8-2.4s0.3-1.8,0.8-2.4
				s1.2-0.9,2-0.9s1.5,0.3,2,0.9S12.3,157.2,12.3,158.1z M9.6,160.7c0.6,0,1.1-0.2,1.4-0.7c0.4-0.5,0.5-1.1,0.5-1.9
				s-0.2-1.4-0.5-1.9s-0.8-0.7-1.4-0.7s-1.1,0.2-1.4,0.7s-0.5,1.1-0.5,1.9s0.2,1.4,0.5,1.9S9,160.7,9.6,160.7z"/>
		</g>
	</g>
</g>
<g>
	<g>
		<g>
			<path class="st4" d="M1.5,220.8l2.4-2.4c0.7-0.7,0.9-1.1,0.9-1.6c0-0.7-0.5-1.2-1.3-1.2c-0.7,0-1.3,0.5-1.3,1.3
				c0,0.1,0,0.3,0.1,0.4l-0.7,0.1c-0.1-0.2-0.1-0.4-0.1-0.6c0-0.5,0.2-0.9,0.6-1.3c0.4-0.4,0.8-0.5,1.4-0.5s1.1,0.2,1.5,0.5
				s0.5,0.7,0.5,1.3c0,0.8-0.3,1.4-1.1,2.2l-1.8,1.8h2.9v0.7h-4V220.8z"/>
			<path class="st4" d="M6.7,218.4L7,215h3.6v0.7h-3l-0.2,2.1c0.4-0.5,0.9-0.8,1.5-0.8s1.2,0.2,1.5,0.6c0.4,0.4,0.5,0.9,0.5,1.6
				c0,0.6-0.2,1.2-0.6,1.6c-0.4,0.4-1,0.6-1.6,0.6s-1.1-0.2-1.5-0.5s-0.6-0.7-0.6-1.2c0-0.2,0-0.3,0.1-0.5l0.7,0.2
				c0,0.1,0,0.2,0,0.3c0,0.7,0.6,1.1,1.4,1.1c0.9,0,1.5-0.6,1.5-1.6s-0.6-1.6-1.5-1.6c-0.6,0-1.2,0.4-1.5,0.9L6.7,218.4z"/>
		</g>
	</g>
</g>
<circle class="st1" cx="229.5" cy="4.9" r="4.5"/>
<circle class="st2" cx="229.5" cy="18.9" r="4.5"/>
<circle class="st3" cx="332.5" cy="4.9" r="4.5"/>
<circle class="st4" cx="332.5" cy="18.9" r="4.5"/>
<line class="st0" x1="0" y1="277.4" x2="434.5" y2="277.4"/>
<g>
	<g>
		<path class="st4" d="M238.7,6.6h0.9c0,0.9,0.7,1.3,1.7,1.3c1,0,1.6-0.4,1.6-1.2c0-0.8-0.6-1.2-1.6-1.2h-0.7V4.8h0.6
			c1,0,1.5-0.4,1.5-1.2c0-0.7-0.6-1.1-1.4-1.1c-0.9,0-1.5,0.5-1.6,1.2h-0.9c0-1.2,1-2,2.4-2c1.5,0,2.3,0.7,2.3,1.8
			c0,0.9-0.4,1.4-1.1,1.5c0.6,0.2,1.3,0.6,1.3,1.6c0,1.1-1,1.9-2.5,1.9C239.6,8.7,238.7,7.9,238.7,6.6z"/>
		<path class="st4" d="M244.8,1.8h0.8v2.9h3.5V1.8h0.8v6.8h-0.8V5.6h-3.5v3.1h-0.8V1.8z"/>
		<path class="st4" d="M250.7,8.6l2.6-6.8h1l2.6,6.8h-0.9l-0.7-1.8h-2.9l-0.7,1.8H250.7z M252.5,6h2.4l-1.2-3.3L252.5,6z"/>
		<path class="st4" d="M260.8,1.8h0.8v6.8h-0.8V5.7c-0.5,0.3-1.1,0.4-1.8,0.4c-1.3,0-2.3-0.7-2.3-2.1V1.8h0.8v2c0,1,0.6,1.5,1.6,1.5
			c0.7,0,1.3-0.2,1.7-0.5V1.8z"/>
		<path class="st4" d="M263,1.8h4.3v0.8h-3.5v2.2h2.9v0.8h-2.9v2.3h3.6v0.8H263V1.8z"/>
		<path class="st4" d="M268.3,1.8h0.8v2.9h3.5V1.8h0.8v6.8h-0.8V5.6h-3.5v3.1h-0.8V1.8z"/>
		<path class="st4" d="M274.8,8.6V1.8h0.8v5.4l3.6-5.4h0.8v6.8h-0.8V3.2l-3.6,5.4H274.8z"/>
		<path class="st4" d="M281.4,1.8h4.3v0.8h-3.5v2.2h2.9v0.8h-2.9v2.3h3.6v0.8h-4.4V1.8z"/>
	</g>
</g>
<g>
	<g>
		<path class="st4" d="M238.7,20.5h0.9c0,0.9,0.7,1.3,1.7,1.3c1,0,1.6-0.4,1.6-1.2c0-0.8-0.6-1.2-1.6-1.2h-0.7v-0.7h0.6
			c1,0,1.5-0.4,1.5-1.2c0-0.7-0.6-1.1-1.4-1.1c-0.9,0-1.5,0.5-1.6,1.2h-0.9c0-1.2,1-2,2.4-2c1.5,0,2.3,0.7,2.3,1.8
			c0,0.9-0.4,1.4-1.1,1.5c0.6,0.2,1.3,0.6,1.3,1.6c0,1.1-1,1.9-2.5,1.9C239.6,22.6,238.7,21.8,238.7,20.5z"/>
		<path class="st4" d="M244.8,15.7h0.8v2.9h3.5v-2.9h0.8v6.8h-0.8v-3.1h-3.5v3.1h-0.8V15.7z"/>
		<path class="st4" d="M250.7,22.5l2.6-6.8h1l2.6,6.8h-0.9l-0.7-1.8h-2.9l-0.7,1.8H250.7z M252.5,19.9h2.4l-1.2-3.3L252.5,19.9z"/>
		<path class="st4" d="M260.8,15.7h0.8v6.8h-0.8v-2.9c-0.5,0.3-1.1,0.4-1.8,0.4c-1.3,0-2.3-0.7-2.3-2.1v-2.2h0.8v2
			c0,1,0.6,1.5,1.6,1.5c0.7,0,1.3-0.2,1.7-0.5V15.7z"/>
		<path class="st4" d="M263,15.7h4.3v0.8h-3.5v2.2h2.9v0.8h-2.9v2.3h3.6v0.8H263V15.7z"/>
		<path class="st4" d="M268.3,15.7h0.8v2.9h3.5v-2.9h0.8v6.8h-0.8v-3.1h-3.5v3.1h-0.8V15.7z"/>
		<path class="st4" d="M274.8,22.5v-6.8h0.8v5.4l3.6-5.4h0.8v6.8h-0.8v-5.4l-3.6,5.4H274.8z"/>
		<path class="st4" d="M281.4,15.7h4.3v0.8h-3.5v2.2h2.9v0.8h-2.9v2.3h3.6v0.8h-4.4V15.7z"/>
	</g>
</g>
<g>
	<g>
		<path class="st4" d="M341.3,6.6h0.9c0,0.9,0.7,1.3,1.7,1.3c1,0,1.6-0.4,1.6-1.2c0-0.8-0.6-1.2-1.6-1.2h-0.7V4.8h0.6
			c1,0,1.5-0.4,1.5-1.2c0-0.7-0.6-1.1-1.4-1.1c-0.9,0-1.5,0.5-1.6,1.2h-0.9c0-1.2,1-2,2.4-2c1.5,0,2.3,0.7,2.3,1.8
			c0,0.9-0.4,1.4-1.1,1.5c0.6,0.2,1.3,0.6,1.3,1.6c0,1.1-1,1.9-2.5,1.9C342.2,8.7,341.3,7.9,341.3,6.6z"/>
		<path class="st4" d="M347.4,1.8h0.8v2.9h3.5V1.8h0.8v6.8h-0.8V5.6h-3.5v3.1h-0.8V1.8z"/>
		<path class="st4" d="M353.3,8.6l2.6-6.8h1l2.6,6.8h-0.9l-0.7-1.8h-2.9l-0.7,1.8H353.3z M355.1,6h2.4l-1.2-3.3L355.1,6z"/>
		<path class="st4" d="M363.4,1.8h0.8v6.8h-0.8V5.7c-0.5,0.3-1.1,0.4-1.8,0.4c-1.3,0-2.3-0.7-2.3-2.1V1.8h0.8v2c0,1,0.6,1.5,1.6,1.5
			c0.7,0,1.3-0.2,1.7-0.5V1.8z"/>
		<path class="st4" d="M365.6,1.8h4.3v0.8h-3.5v2.2h2.9v0.8h-2.9v2.3h3.6v0.8h-4.4V1.8z"/>
		<path class="st4" d="M370.9,1.8h0.8v2.9h3.5V1.8h0.8v6.8h-0.8V5.6h-3.5v3.1h-0.8V1.8z"/>
		<path class="st4" d="M377.4,8.6V1.8h0.8v5.4l3.6-5.4h0.8v6.8h-0.8V3.2l-3.6,5.4H377.4z"/>
		<path class="st4" d="M384,1.8h4.3v0.8h-3.5v2.2h2.9v0.8h-2.9v2.3h3.6v0.8H384V1.8z"/>
	</g>
</g>
<g>
	<g>
		<path class="st4" d="M341.3,20.5h0.9c0,0.9,0.7,1.3,1.7,1.3c1,0,1.6-0.4,1.6-1.2c0-0.8-0.6-1.2-1.6-1.2h-0.7v-0.7h0.6
			c1,0,1.5-0.4,1.5-1.2c0-0.7-0.6-1.1-1.4-1.1c-0.9,0-1.5,0.5-1.6,1.2h-0.9c0-1.2,1-2,2.4-2c1.5,0,2.3,0.7,2.3,1.8
			c0,0.9-0.4,1.4-1.1,1.5c0.6,0.2,1.3,0.6,1.3,1.6c0,1.1-1,1.9-2.5,1.9C342.2,22.6,341.3,21.8,341.3,20.5z"/>
		<path class="st4" d="M347.4,15.7h0.8v2.9h3.5v-2.9h0.8v6.8h-0.8v-3.1h-3.5v3.1h-0.8V15.7z"/>
		<path class="st4" d="M353.3,22.5l2.6-6.8h1l2.6,6.8h-0.9l-0.7-1.8h-2.9l-0.7,1.8H353.3z M355.1,19.9h2.4l-1.2-3.3L355.1,19.9z"/>
		<path class="st4" d="M363.4,15.7h0.8v6.8h-0.8v-2.9c-0.5,0.3-1.1,0.4-1.8,0.4c-1.3,0-2.3-0.7-2.3-2.1v-2.2h0.8v2
			c0,1,0.6,1.5,1.6,1.5c0.7,0,1.3-0.2,1.7-0.5V15.7z"/>
		<path class="st4" d="M365.6,15.7h4.3v0.8h-3.5v2.2h2.9v0.8h-2.9v2.3h3.6v0.8h-4.4V15.7z"/>
		<path class="st4" d="M370.9,15.7h0.8v2.9h3.5v-2.9h0.8v6.8h-0.8v-3.1h-3.5v3.1h-0.8V15.7z"/>
		<path class="st4" d="M377.4,22.5v-6.8h0.8v5.4l3.6-5.4h0.8v6.8h-0.8v-5.4l-3.6,5.4H377.4z"/>
		<path class="st4" d="M384,15.7h4.3v0.8h-3.5v2.2h2.9v0.8h-2.9v2.3h3.6v0.8H384V15.7z"/>
	</g>
</g>
<g>
	<g>
		<path class="st4" d="M489.6,20.3v-6.2h4.7v6.2h-0.8v-5.5h-3.2v5.5H489.6z"/>
		<path class="st4" d="M498.2,20.4c-1.7,0-3-1.3-3-3.1c0-1.8,1.2-3.1,3-3.1c1.7,0,3,1.3,3,3.1C501.1,19,499.9,20.4,498.2,20.4z
			 M498.2,19.7c1.3,0,2.2-1,2.2-2.4s-0.9-2.4-2.2-2.4c-1.3,0-2.2,1-2.2,2.4S496.9,19.7,498.2,19.7z"/>
		<path class="st4" d="M502.1,20.3v-6.2h0.8v2.7h1.1l2-2.7h0.9l-2.3,3l2.4,3.2h-0.9l-2.1-2.8h-1.1v2.8H502.1z"/>
		<path class="st4" d="M507.3,20.3l2.4-6.2h0.9l2.3,6.2h-0.8l-0.7-1.7h-2.7l-0.7,1.7H507.3z M509,17.9h2.2l-1.1-3L509,17.9z"/>
		<path class="st4" d="M513.2,18.5h0.8c0,0.8,0.6,1.2,1.5,1.2c0.9,0,1.5-0.4,1.5-1.1c0-0.7-0.5-1.1-1.5-1.1h-0.6v-0.6h0.6
			c0.9,0,1.3-0.4,1.3-1.1c0-0.7-0.5-1-1.3-1c-0.9,0-1.4,0.4-1.5,1.1h-0.8c0-1.1,0.9-1.8,2.2-1.8c1.3,0,2.1,0.7,2.1,1.6
			c0,0.8-0.4,1.2-1,1.4c0.6,0.1,1.2,0.5,1.2,1.5c0,1.1-0.9,1.8-2.3,1.8C514.1,20.4,513.3,19.7,513.2,18.5z"/>
		<path class="st4" d="M518.1,20.3l2.4-6.2h0.9l2.3,6.2h-0.8l-0.7-1.7h-2.7l-0.7,1.7H518.1z M519.8,17.9h2.2l-1.1-3L519.8,17.9z"/>
		<path class="st4" d="M523.1,14.1h4.8v0.7h-2v5.5h-0.8v-5.5h-2V14.1z"/>
		<path class="st4" d="M528.7,14.1h3.9v0.7h-3.2v2h2.6v0.7h-2.6v2.1h3.3v0.7h-4.1V14.1z"/>
		<path class="st4" d="M533.1,20.3v-0.7h0.2c0.7,0,1-0.4,1-2.4v-3h4.3v6.2h-0.8v-5.5H535v2.4c0,2.4-0.5,3.1-1.6,3.1H533.1z"/>
		<path class="st4" d="M539.7,20.3v-6.2h0.8v2.4h1.6c1.2,0,2,0.8,2,1.9c0,1.1-0.8,1.9-2,1.9H539.7z M540.5,19.6h1.6
			c0.8,0,1.3-0.5,1.3-1.2c0-0.7-0.5-1.2-1.3-1.2h-1.6V19.6z"/>
		<path class="st4" d="M489.2,30.3l2.4-2.1c0.6-0.5,1.1-1,1.1-1.6c0-0.8-0.5-1.2-1.4-1.2c-0.8,0-1.3,0.5-1.3,1.4v0.1h-0.7v-0.2
			c0-1.2,0.8-2,2.1-2c1.3,0,2.1,0.7,2.1,1.8c0,0.9-0.6,1.5-1.3,2.1l-1.9,1.6h3.2v0.7h-4.3V30.3z"/>
		<path class="st4" d="M494.1,27.7c0-1.8,1-3,2.3-3c1.4,0,2.3,1.2,2.3,3V28c0,1.8-1,3-2.3,3c-1.4,0-2.3-1.2-2.3-3V27.7z M498,27.7
			c0-1.5-0.6-2.4-1.6-2.4c-1,0-1.6,0.9-1.6,2.4v0.2c0,1.5,0.6,2.4,1.6,2.4c1,0,1.6-0.9,1.6-2.4V27.7z"/>
		<path class="st4" d="M499.3,30.3l2.4-2.1c0.6-0.5,1.1-1,1.1-1.6c0-0.8-0.5-1.2-1.4-1.2c-0.8,0-1.3,0.5-1.3,1.4v0.1h-0.7v-0.2
			c0-1.2,0.8-2,2.1-2c1.3,0,2.1,0.7,2.1,1.8c0,0.9-0.6,1.5-1.3,2.1l-1.9,1.6h3.2v0.7h-4.3V30.3z"/>
		<path class="st4" d="M508.6,29.2c0,1.1-0.9,1.8-2.2,1.8s-2.2-0.7-2.2-2h0.7c0,0.8,0.6,1.3,1.5,1.3c0.8,0,1.4-0.5,1.4-1.2
			c0-0.6-0.5-1.1-1.5-1.1h-0.5v-0.6h0.5c0.9,0,1.4-0.5,1.4-1.1c0-0.6-0.6-1-1.3-1c-0.8,0-1.3,0.5-1.4,1.2h-0.7
			c0-1.1,0.9-1.8,2.1-1.8c1.3,0,2.1,0.7,2.1,1.6c0,0.8-0.4,1.2-1,1.4C508,27.8,508.6,28.3,508.6,29.2z"/>
	</g>
</g>
<g class="st7">
	<g>
		<path class="st4" d="M521.1,69.5h0.5v1.3h-0.5V70h-3.2v0.9h-0.5v-1.3h0.4c0.3-0.3,0.4-0.6,0.4-1.9v-1.8h2.9V69.5z M520.6,69.5
			v-3.3h-1.9v1.5c0,1-0.1,1.5-0.3,1.8H520.6z"/>
		<path class="st4" d="M523.9,70c-1.2,0-2-0.9-2-2.1c0-1.2,0.8-2.1,2-2.1s2,0.9,2,2.1C525.9,69.1,525.1,70,523.9,70z M523.9,69.5
			c0.9,0,1.5-0.7,1.5-1.7c0-1-0.6-1.7-1.5-1.7c-0.9,0-1.5,0.7-1.5,1.7C522.4,68.8,523,69.5,523.9,69.5z"/>
		<path class="st4" d="M526.5,70v-4.2h3.2V70h-0.5v-3.7h-2.1V70H526.5z"/>
		<path class="st4" d="M532.4,70c-1.2,0-2-0.9-2-2.1c0-1.2,0.8-2.1,2-2.1s2,0.9,2,2.1C534.4,69.1,533.6,70,532.4,70z M532.4,69.5
			c0.9,0,1.5-0.7,1.5-1.7c0-1-0.6-1.7-1.5-1.7c-0.9,0-1.5,0.7-1.5,1.7C530.9,68.8,531.5,69.5,532.4,69.5z"/>
		<path class="st4" d="M534.5,70v-0.5h0.1c0.5,0,0.7-0.3,0.7-1.7v-2.1h2.9V70h-0.5v-3.7h-1.9v1.6c0,1.6-0.3,2.1-1.1,2.1H534.5z"/>
		<path class="st4" d="M539,65.8h0.5v1.8h2.2v-1.8h0.5V70h-0.5v-1.9h-2.2V70H539V65.8z"/>
		<path class="st4" d="M543,65.8h2.7v0.5h-2.2v1.3h1.8v0.5h-1.8v1.4h2.2V70H543V65.8z"/>
		<path class="st4" d="M546.3,65.8h0.5v1.8h2.2v-1.8h0.5V70H549v-1.9h-2.2V70h-0.5V65.8z"/>
		<path class="st4" d="M550.4,70v-4.2h0.5v3.3l2.2-3.3h0.5V70h-0.5v-3.3l-2.2,3.3H550.4z"/>
		<path class="st4" d="M554.5,65.8h2.7v0.5H555v1.3h1.8v0.5H555v1.4h2.2V70h-2.8V65.8z"/>
		<path class="st4" d="M517.7,77.2V73h0.5v1.8h0.8l1.4-1.8h0.6l-1.5,2l1.6,2.2h-0.6l-1.4-1.9h-0.8v1.9H517.7z"/>
		<path class="st4" d="M523.2,77.2V73h0.5v3.3l2.2-3.3h0.5v4.2h-0.5v-3.3l-2.2,3.3H523.2z"/>
		<path class="st4" d="M527.2,73h0.5v1.8h2.2V73h0.5v4.2h-0.5v-1.9h-2.2v1.9h-0.5V73z"/>
		<path class="st4" d="M533.7,76.9v0.5h-0.5v-0.5c-1.3,0-2.1-0.7-2.1-1.8c0-1.1,0.8-1.8,2.1-1.8v-0.5h0.5v0.5c1.3,0,2.1,0.7,2.1,1.8
			C535.8,76.2,535,76.9,533.7,76.9z M533.2,76.4v-2.7c-1,0-1.6,0.5-1.6,1.4C531.6,75.9,532.2,76.4,533.2,76.4z M533.7,76.4
			c1,0,1.6-0.5,1.6-1.4c0-0.8-0.6-1.3-1.6-1.4V76.4z"/>
		<path class="st4" d="M538.4,77.2c-1.2,0-2-0.9-2-2.1c0-1.2,0.8-2.1,2-2.1s2,0.9,2,2.1C540.4,76.3,539.5,77.2,538.4,77.2z
			 M538.4,76.7c0.9,0,1.5-0.7,1.5-1.7c0-1-0.6-1.7-1.5-1.7c-0.9,0-1.5,0.7-1.5,1.7C536.9,76,537.5,76.7,538.4,76.7z"/>
		<path class="st4" d="M541,73h1.6c0.8,0,1.4,0.5,1.4,1.3c0,0.8-0.6,1.3-1.4,1.3h-1.1v1.6H541V73z M541.5,73.5v1.6h1
			c0.6,0,0.9-0.3,0.9-0.8c0-0.5-0.3-0.8-0.9-0.8H541.5z"/>
		<path class="st4" d="M544.6,73h0.7l1.5,3.5l1.5-3.5h0.6v4.2h-0.5v-3.3l-1.4,3.3h-0.5l-1.4-3.3v3.3h-0.5V73z"/>
		<path class="st4" d="M549.3,77.2l1.6-4.2h0.6l1.6,4.2h-0.6l-0.4-1.1h-1.8l-0.4,1.1H549.3z M550.5,75.6h1.5l-0.8-2L550.5,75.6z"/>
		<path class="st4" d="M556.8,76.7h0.5V78h-0.5v-0.9h-3.2V73h0.5v3.7h2.1V73h0.5V76.7z"/>
		<path class="st4" d="M557.8,77.2V73h0.5v3.3l2.2-3.3h0.5v4.2h-0.5v-3.3l-2.2,3.3H557.8z"/>
		<path class="st4" d="M561.9,77.2V73h0.5v3.3l2.2-3.3h0.5v4.2h-0.5v-3.3l-2.2,3.3H561.9z"/>
		<path class="st4" d="M517.6,82.3c0-1.3,0.6-2.2,1.6-2.2c0.8,0,1.3,0.5,1.4,1.2H520c-0.1-0.4-0.4-0.7-0.9-0.7
			c-0.7,0-1.1,0.7-1.1,1.6c0,0.1,0,0.1,0,0.2c0,0,0-0.1,0-0.1c0.2-0.4,0.6-0.7,1.2-0.7c0.8,0,1.4,0.5,1.4,1.4c0,0.8-0.6,1.4-1.5,1.4
			c-0.6,0-1-0.3-1.3-0.7C517.7,83.4,517.6,82.8,517.6,82.3z M519.2,82c-0.6,0-1,0.4-1,1c0,0.6,0.4,1,1,1c0.6,0,1-0.4,1-1
			C520.1,82.4,519.8,82,519.2,82z"/>
		<path class="st4" d="M521.2,83.3h0.5c0.1,0.4,0.4,0.7,0.9,0.7c0.7,0,1.1-0.7,1.1-1.6c0-0.1,0-0.1,0-0.2c0,0,0,0.1,0,0.1
			c-0.2,0.4-0.6,0.7-1.2,0.7c-0.8,0-1.4-0.5-1.4-1.4c0-0.8,0.6-1.4,1.5-1.4c0.6,0,1,0.3,1.3,0.7c0.2,0.4,0.3,0.9,0.3,1.4
			c0,1.3-0.6,2.2-1.6,2.2C521.8,84.4,521.3,84,521.2,83.3z M523.5,81.5c0-0.6-0.4-1-1-1c-0.6,0-1,0.4-1,1c0,0.6,0.4,1,0.9,1
			C523.1,82.5,523.5,82.1,523.5,81.5z"/>
		<path class="st4" d="M525.8,80.1c0.6,0,1.1,0.4,1.1,1c0,0.6-0.4,1-1.1,1c-0.6,0-1.1-0.4-1.1-1C524.7,80.6,525.2,80.1,525.8,80.1z
			 M525.8,80.5c-0.4,0-0.6,0.3-0.6,0.6c0,0.4,0.3,0.6,0.6,0.6c0.4,0,0.6-0.3,0.6-0.6C526.4,80.8,526.1,80.5,525.8,80.5z M525.4,84.4
			l2.9-4.2h0.5l-2.9,4.2H525.4z M528.4,82.4c0.6,0,1.1,0.4,1.1,1c0,0.6-0.5,1-1.1,1s-1.1-0.4-1.1-1
			C527.4,82.8,527.8,82.4,528.4,82.4z M528.4,82.8c-0.4,0-0.6,0.3-0.6,0.6c0,0.4,0.3,0.6,0.6,0.6c0.4,0,0.6-0.3,0.6-0.6
			C529,83,528.8,82.8,528.4,82.8z"/>
	</g>
</g>
<g>
	<g>
		<path class="st4" d="M30.5,10.8c-2.4,0-4-1.8-4-4.3s1.6-4.3,4-4.3c2.4,0,4,1.8,4,4.3S32.9,10.8,30.5,10.8z M30.5,9.9
			c1.8,0,2.9-1.4,2.9-3.3c0-1.9-1.2-3.3-2.9-3.3c-1.8,0-2.9,1.4-2.9,3.3C27.6,8.5,28.8,9.9,30.5,9.9z"/>
		<path class="st4" d="M35.8,10.7V2.4H41v1h-4.1v2.5h2.2c1.6,0,2.7,0.8,2.7,2.5c0,1.6-1.1,2.5-2.7,2.5H35.8z M36.9,9.8H39
			c1.1,0,1.7-0.6,1.7-1.5c0-0.9-0.7-1.5-1.7-1.5h-2.1V9.8z"/>
		<path class="st4" d="M53.2,9.8h1v2.7h-1v-1.7H43V2.4h1v7.4h3.5V2.4h1v7.4h3.5V2.4h1V9.8z"/>
		<path class="st4" d="M55.3,10.7V2.4h1V9l4.5-6.7h1v8.4h-1V4.1l-4.5,6.7H55.3z"/>
		<path class="st4" d="M63.5,10.7V2.4h1V9L69,2.4h1v8.4h-1V4.1l-4.5,6.7H63.5z M65,0h0.8c0,0.6,0.3,0.9,0.9,0.9s1-0.4,1-0.9h0.8
			c0,1-0.6,1.6-1.8,1.6C65.6,1.6,65,1,65,0z"/>
		<path class="st4" d="M74.8,10.7V2.4h4.9v1h-3.9v7.4H74.8z"/>
		<path class="st4" d="M80.7,2.4H84c1.7,0,2.8,1,2.8,2.6S85.6,7.5,84,7.5h-2.2v3.2h-1V2.4z M81.8,3.3v3.3h2.1c1.1,0,1.8-0.6,1.8-1.6
			c0-1-0.7-1.6-1.8-1.6H81.8z"/>
		<path class="st4" d="M86.3,10.7l3.2-8.4h1.2l3.2,8.4h-1.1l-0.9-2.3h-3.7l-0.9,2.3H86.3z M88.5,7.5h3l-1.5-4L88.5,7.5z"/>
		<path class="st4" d="M99.4,10.2v1h-1v-1c-2.6-0.1-4.2-1.4-4.2-3.7c0-2.2,1.6-3.6,4.2-3.7v-1h1v1c2.6,0.1,4.2,1.4,4.2,3.7
			C103.6,8.8,102,10.1,99.4,10.2z M98.4,9.3V3.8c-2.1,0.1-3.2,1.1-3.2,2.7C95.2,8.2,96.3,9.2,98.4,9.3z M99.4,9.3
			c2.1-0.1,3.2-1.1,3.2-2.7s-1.1-2.7-3.2-2.7V9.3z"/>
		<path class="st4" d="M105,10.7V2.4h1V9l4.5-6.7h1v8.4h-1V4.1l-4.5,6.7H105z"/>
		<path class="st4" d="M113.1,10.7V2.4h1V6h1.5l2.8-3.6h1.2l-3.1,4.1l3.3,4.3h-1.3L115.7,7h-1.5v3.8H113.1z"/>
	</g>
</g>
<g class="st8">
	<g>
		<path class="st4" d="M26.8,22.1v-8.4h6.4v8.4h-1v-7.4h-4.3v7.4H26.8z"/>
		<path class="st4" d="M34.5,19c0-1.9,1.2-3.1,3-3.1s3,1.3,3,3.1c0,1.9-1.2,3.1-3,3.1S34.5,20.9,34.5,19z M39.5,19
			c0-1.3-0.8-2.3-2-2.3c-1.2,0-2,0.9-2,2.3c0,1.3,0.8,2.3,2,2.3C38.7,21.3,39.5,20.3,39.5,19z"/>
		<path class="st4" d="M41.7,22.1V16h1v2.6H44l1.9-2.6H47l-2.2,2.9l2.4,3.2H46l-2-2.7h-1.3v2.7H41.7z"/>
		<path class="st4" d="M53.4,21.2v0.9h-0.5c-0.8,0-1.1-0.3-1.1-0.9c-0.4,0.6-1,1-2.1,1c-1.3,0-2.3-0.7-2.3-1.8
			c0-1.2,0.9-1.9,2.5-1.9h1.8V18c0-0.8-0.6-1.3-1.5-1.3c-0.9,0-1.4,0.4-1.6,1h-1c0.1-1.2,1.1-1.9,2.6-1.9c1.6,0,2.5,0.8,2.5,2.2v2.7
			c0,0.3,0.1,0.4,0.4,0.4H53.4z M51.7,19.3h-1.9c-0.9,0-1.4,0.3-1.4,1c0,0.6,0.5,1,1.3,1c1.2,0,1.9-0.7,1.9-1.7V19.3z"/>
		<path class="st4" d="M59.1,20.3c0,1.1-1,1.8-2.7,1.8c-1.7,0-2.5-0.7-2.5-2h1c0.1,0.7,0.5,1.1,1.5,1.1c1,0,1.7-0.4,1.7-1
			c0-0.6-0.5-0.9-1.2-0.9h-1v-0.9h1c0.7,0,1.2-0.3,1.2-0.9c0-0.6-0.5-0.9-1.5-0.9c-1,0-1.4,0.4-1.6,1.1h-1c0.1-1.1,1-1.9,2.6-1.9
			c1.5,0,2.4,0.7,2.4,1.7c0,0.8-0.4,1.2-1.1,1.3C58.6,19.1,59.1,19.5,59.1,20.3z"/>
		<path class="st4" d="M65.9,21.2v0.9h-0.5c-0.8,0-1.1-0.3-1.1-0.9c-0.4,0.6-1,1-2.1,1c-1.3,0-2.3-0.7-2.3-1.8
			c0-1.2,0.9-1.9,2.5-1.9h1.8V18c0-0.8-0.6-1.3-1.5-1.3c-0.9,0-1.4,0.4-1.6,1h-1c0.1-1.2,1.1-1.9,2.6-1.9c1.6,0,2.5,0.8,2.5,2.2v2.7
			c0,0.3,0.1,0.4,0.4,0.4H65.9z M64.2,19.3h-1.9c-0.9,0-1.4,0.3-1.4,1c0,0.6,0.5,1,1.3,1c1.2,0,1.9-0.7,1.9-1.7V19.3z"/>
		<path class="st4" d="M68,22.1v-5.2h-2.2V16h5.4v0.9h-2.2v5.2H68z"/>
		<path class="st4" d="M71.4,19c0-1.9,1.2-3.1,2.9-3.1c1.7,0,2.9,1.1,2.9,2.9c0,0.1,0,0.3,0,0.4h-4.7v0.1c0,1.2,0.8,2,1.9,2
			c0.9,0,1.5-0.5,1.7-1.2h1c-0.2,1.2-1.2,2.1-2.7,2.1C72.6,22.2,71.4,20.9,71.4,19z M76.2,18.4c-0.1-1.1-0.8-1.6-1.8-1.6
			c-0.9,0-1.7,0.6-1.8,1.6H76.2z"/>
		<path class="st4" d="M77.5,22.1v-0.9h0.2c0.7,0,1-0.4,1-2.3v-3h4.6v6.1h-1v-5.2h-2.7V19c0,2.4-0.6,3.1-1.8,3.1H77.5z"/>
		<path class="st4" d="M84.6,22.1V16h1v4.6l3.6-4.6h0.9v6.1h-1v-4.6l-3.6,4.6H84.6z"/>
	</g>
</g>
<circle class="st9" cx="546.7" cy="198.6" r="65.3"/>
<circle class="st10" cx="634.7" cy="90.1" r="43.2"/>
<circle class="st4" cx="741.9" cy="153.3" r="34.4"/>
<circle class="st11" cx="659.7" cy="227.2" r="21.7"/>
<line class="st12" x1="490" y1="35.5" x2="490" y2="154.3"/>
<g>
	<g>
		<path class="st4" d="M596.6,19.9v-6.2h4.7v6.2h-0.8v-5.5h-3.2v5.5H596.6z"/>
		<path class="st4" d="M605.2,20c-1.7,0-3-1.3-3-3.1c0-1.8,1.2-3.1,3-3.1c1.7,0,3,1.3,3,3.1C608.2,18.6,607,20,605.2,20z
			 M605.2,19.3c1.3,0,2.2-1,2.2-2.4s-0.9-2.4-2.2-2.4c-1.3,0-2.2,1-2.2,2.4S603.9,19.3,605.2,19.3z"/>
		<path class="st4" d="M609.1,19.9v-6.2h0.8v2.7h1.1l2-2.7h0.9l-2.3,3l2.4,3.2h-0.9l-2.1-2.8h-1.1v2.8H609.1z"/>
		<path class="st4" d="M614.4,19.9l2.4-6.2h0.9l2.3,6.2h-0.8l-0.7-1.7h-2.7l-0.7,1.7H614.4z M616,17.5h2.2l-1.1-3L616,17.5z"/>
		<path class="st4" d="M620.3,18h0.8c0,0.8,0.6,1.2,1.5,1.2c0.9,0,1.5-0.4,1.5-1.1c0-0.7-0.5-1.1-1.5-1.1H622v-0.6h0.6
			c0.9,0,1.3-0.4,1.3-1.1c0-0.7-0.5-1-1.3-1c-0.9,0-1.4,0.4-1.5,1.1h-0.8c0-1.1,0.9-1.8,2.2-1.8c1.3,0,2.1,0.7,2.1,1.6
			c0,0.8-0.4,1.2-1,1.4c0.6,0.1,1.2,0.5,1.2,1.5c0,1.1-0.9,1.8-2.3,1.8C621.1,20,620.3,19.3,620.3,18z"/>
		<path class="st4" d="M625.1,19.9l2.4-6.2h0.9l2.3,6.2h-0.8l-0.7-1.7h-2.7l-0.7,1.7H625.1z M626.8,17.5h2.2l-1.1-3L626.8,17.5z"/>
		<path class="st4" d="M630.2,13.7h4.8v0.7h-2v5.5h-0.8v-5.5h-2V13.7z"/>
		<path class="st4" d="M635.7,13.7h3.9v0.7h-3.2v2h2.6v0.7h-2.6v2.1h3.3v0.7h-4.1V13.7z"/>
		<path class="st4" d="M640.1,19.9v-0.7h0.2c0.7,0,1-0.4,1-2.4v-3h4.3v6.2h-0.8v-5.5H642v2.4c0,2.4-0.5,3.1-1.6,3.1H640.1z"/>
		<path class="st4" d="M646.8,19.9v-6.2h0.8v2.4h1.6c1.2,0,2,0.8,2,1.9c0,1.1-0.8,1.9-2,1.9H646.8z M647.5,19.2h1.6
			c0.8,0,1.3-0.5,1.3-1.2c0-0.7-0.5-1.2-1.3-1.2h-1.6V19.2z"/>
		<path class="st4" d="M596.2,29.9l2.4-2.1c0.6-0.5,1.1-1,1.1-1.6c0-0.8-0.5-1.2-1.4-1.2c-0.8,0-1.3,0.5-1.3,1.4v0.1h-0.7v-0.2
			c0-1.2,0.8-2,2.1-2c1.3,0,2.1,0.7,2.1,1.8c0,0.9-0.6,1.5-1.3,2.1l-1.9,1.6h3.2v0.7h-4.3V29.9z"/>
		<path class="st4" d="M601.1,27.3c0-1.8,1-3,2.3-3c1.4,0,2.3,1.2,2.3,3v0.3c0,1.8-1,3-2.3,3c-1.4,0-2.3-1.2-2.3-3V27.3z M605,27.3
			c0-1.5-0.6-2.4-1.6-2.4c-1,0-1.6,0.9-1.6,2.4v0.2c0,1.5,0.6,2.4,1.6,2.4c1,0,1.6-0.9,1.6-2.4V27.3z"/>
		<path class="st4" d="M606.4,29.9l2.4-2.1c0.6-0.5,1.1-1,1.1-1.6c0-0.8-0.5-1.2-1.4-1.2c-0.8,0-1.3,0.5-1.3,1.4v0.1h-0.7v-0.2
			c0-1.2,0.8-2,2.1-2c1.3,0,2.1,0.7,2.1,1.8c0,0.9-0.6,1.5-1.3,2.1l-1.9,1.6h3.2v0.7h-4.3V29.9z"/>
		<path class="st4" d="M611.1,29.9l2.4-2.1c0.6-0.5,1.1-1,1.1-1.6c0-0.8-0.5-1.2-1.4-1.2c-0.8,0-1.3,0.5-1.3,1.4v0.1h-0.7v-0.2
			c0-1.2,0.8-2,2.1-2c1.3,0,2.1,0.7,2.1,1.8c0,0.9-0.6,1.5-1.3,2.1l-1.9,1.6h3.2v0.7h-4.3V29.9z"/>
	</g>
</g>
<line class="st12" x1="597" y1="35.1" x2="597" y2="61.6"/>
<g>
	<g>
		<path class="st4" d="M760.1,78.9v-6.2h4.7v6.2H764v-5.5h-3.2v5.5H760.1z"/>
		<path class="st4" d="M768.7,79c-1.7,0-3-1.3-3-3.1c0-1.8,1.2-3.1,3-3.1c1.7,0,3,1.3,3,3.1C771.7,77.6,770.5,79,768.7,79z
			 M768.7,78.2c1.3,0,2.2-1,2.2-2.4s-0.9-2.4-2.2-2.4c-1.3,0-2.2,1-2.2,2.4S767.4,78.2,768.7,78.2z"/>
		<path class="st4" d="M772.6,78.9v-6.2h0.8v2.7h1.1l2-2.7h0.9l-2.3,3l2.4,3.2h-0.9l-2.1-2.8h-1.1v2.8H772.6z"/>
		<path class="st4" d="M777.9,78.9l2.4-6.2h0.9l2.3,6.2h-0.8l-0.7-1.7h-2.7l-0.7,1.7H777.9z M779.5,76.5h2.2l-1.1-3L779.5,76.5z"/>
		<path class="st4" d="M783.8,77h0.8c0,0.8,0.6,1.2,1.5,1.2c0.9,0,1.5-0.4,1.5-1.1c0-0.7-0.5-1.1-1.5-1.1h-0.6v-0.6h0.6
			c0.9,0,1.3-0.4,1.3-1.1c0-0.7-0.5-1-1.3-1c-0.9,0-1.4,0.4-1.5,1.1h-0.8c0-1.1,0.9-1.8,2.2-1.8c1.3,0,2.1,0.7,2.1,1.6
			c0,0.8-0.4,1.2-1,1.4c0.6,0.1,1.2,0.5,1.2,1.5c0,1.1-0.9,1.8-2.3,1.8C784.6,79,783.8,78.3,783.8,77z"/>
		<path class="st4" d="M788.6,78.9l2.4-6.2h0.9l2.3,6.2h-0.8l-0.7-1.7h-2.7l-0.7,1.7H788.6z M790.3,76.5h2.2l-1.1-3L790.3,76.5z"/>
		<path class="st4" d="M793.7,72.7h4.8v0.7h-2v5.5h-0.8v-5.5h-2V72.7z"/>
		<path class="st4" d="M799.2,72.7h3.9v0.7H800v2h2.6v0.7H800v2.1h3.3v0.7h-4.1V72.7z"/>
		<path class="st4" d="M803.6,78.9v-0.7h0.2c0.7,0,1-0.4,1-2.4v-3h4.3v6.2h-0.8v-5.5h-2.8v2.4c0,2.4-0.5,3.1-1.6,3.1H803.6z"/>
		<path class="st4" d="M810.3,78.9v-6.2h0.8v2.4h1.6c1.2,0,2,0.8,2,1.9c0,1.1-0.8,1.9-2,1.9H810.3z M811,78.2h1.6
			c0.8,0,1.3-0.5,1.3-1.2c0-0.7-0.5-1.2-1.3-1.2H811V78.2z"/>
		<path class="st4" d="M759.7,88.9l2.4-2.1c0.6-0.5,1.1-1,1.1-1.6c0-0.8-0.5-1.2-1.4-1.2c-0.8,0-1.3,0.5-1.3,1.4v0.1h-0.7v-0.2
			c0-1.2,0.8-2,2.1-2c1.3,0,2.1,0.7,2.1,1.8c0,0.9-0.6,1.5-1.3,2.1l-1.9,1.6h3.2v0.7h-4.3V88.9z"/>
		<path class="st4" d="M764.6,86.3c0-1.8,1-3,2.3-3c1.4,0,2.3,1.2,2.3,3v0.3c0,1.8-1,3-2.3,3c-1.4,0-2.3-1.2-2.3-3V86.3z
			 M768.5,86.3c0-1.5-0.6-2.4-1.6-2.4c-1,0-1.6,0.9-1.6,2.4v0.2c0,1.5,0.6,2.4,1.6,2.4c1,0,1.6-0.9,1.6-2.4V86.3z"/>
		<path class="st4" d="M769.9,88.9l2.4-2.1c0.6-0.5,1.1-1,1.1-1.6c0-0.8-0.5-1.2-1.4-1.2c-0.8,0-1.3,0.5-1.3,1.4v0.1h-0.7v-0.2
			c0-1.2,0.8-2,2.1-2c1.3,0,2.1,0.7,2.1,1.8c0,0.9-0.6,1.5-1.3,2.1l-1.9,1.6h3.2v0.7h-4.3V88.9z"/>
		<path class="st4" d="M775.9,83.3h0.7v6.2h-0.7v-4.4c-0.1,0.1-0.2,0.1-0.4,0.1h-1v-0.7h1c0.3,0,0.4-0.2,0.4-0.5V83.3z"/>
	</g>
</g>
<line class="st12" x1="760.5" y1="94.1" x2="760.5" y2="120.5"/>
<g>
	<g>
		<path class="st4" d="M642.1,164.8v-6.2h4.7v6.2H646v-5.5h-3.2v5.5H642.1z"/>
		<path class="st4" d="M650.7,164.9c-1.7,0-3-1.3-3-3.1s1.2-3.1,3-3.1c1.7,0,3,1.3,3,3.1S652.5,164.9,650.7,164.9z M650.7,164.2
			c1.3,0,2.2-1,2.2-2.4c0-1.4-0.9-2.4-2.2-2.4c-1.3,0-2.2,1-2.2,2.4C648.5,163.2,649.4,164.2,650.7,164.2z"/>
		<path class="st4" d="M654.6,164.8v-6.2h0.8v2.7h1.1l2-2.7h0.9l-2.3,3l2.4,3.2h-0.9l-2.1-2.8h-1.1v2.8H654.6z"/>
		<path class="st4" d="M659.9,164.8l2.4-6.2h0.9l2.3,6.2h-0.8l-0.7-1.7h-2.7l-0.7,1.7H659.9z M661.5,162.5h2.2l-1.1-3L661.5,162.5z"
			/>
		<path class="st4" d="M665.8,163h0.8c0,0.8,0.6,1.2,1.5,1.2c0.9,0,1.5-0.4,1.5-1.1c0-0.7-0.5-1.1-1.5-1.1h-0.6v-0.6h0.6
			c0.9,0,1.3-0.4,1.3-1.1c0-0.7-0.5-1-1.3-1c-0.9,0-1.4,0.4-1.5,1.1h-0.8c0-1.1,0.9-1.8,2.2-1.8c1.3,0,2.1,0.7,2.1,1.6
			c0,0.8-0.4,1.2-1,1.4c0.6,0.1,1.2,0.5,1.2,1.5c0,1.1-0.9,1.8-2.3,1.8C666.6,164.9,665.8,164.2,665.8,163z"/>
		<path class="st4" d="M670.6,164.8l2.4-6.2h0.9l2.3,6.2h-0.8l-0.7-1.7h-2.7l-0.7,1.7H670.6z M672.3,162.5h2.2l-1.1-3L672.3,162.5z"
			/>
		<path class="st4" d="M675.7,158.6h4.8v0.7h-2v5.5h-0.8v-5.5h-2V158.6z"/>
		<path class="st4" d="M681.2,158.6h3.9v0.7H682v2h2.6v0.7H682v2.1h3.3v0.7h-4.1V158.6z"/>
		<path class="st4" d="M685.6,164.8v-0.7h0.2c0.7,0,1-0.4,1-2.4v-3h4.3v6.2h-0.8v-5.5h-2.8v2.4c0,2.4-0.5,3.1-1.6,3.1H685.6z"/>
		<path class="st4" d="M692.3,164.8v-6.2h0.8v2.4h1.6c1.2,0,2,0.8,2,1.9c0,1.1-0.8,1.9-2,1.9H692.3z M693,164.1h1.6
			c0.8,0,1.3-0.5,1.3-1.2s-0.5-1.2-1.3-1.2H693V164.1z"/>
		<path class="st4" d="M641.7,174.8l2.4-2.1c0.6-0.5,1.1-1,1.1-1.6c0-0.8-0.5-1.2-1.4-1.2c-0.8,0-1.3,0.5-1.3,1.4v0.1h-0.7v-0.2
			c0-1.2,0.8-2,2.1-2c1.3,0,2.1,0.7,2.1,1.8c0,0.9-0.6,1.5-1.3,2.1l-1.9,1.6h3.2v0.7h-4.3V174.8z"/>
		<path class="st4" d="M646.6,172.2c0-1.8,1-3,2.3-3c1.4,0,2.3,1.2,2.3,3v0.3c0,1.8-1,3-2.3,3c-1.4,0-2.3-1.2-2.3-3V172.2z
			 M650.5,172.2c0-1.5-0.6-2.3-1.6-2.3c-1,0-1.6,0.9-1.6,2.3v0.2c0,1.5,0.6,2.4,1.6,2.4c1,0,1.6-0.9,1.6-2.4V172.2z"/>
		<path class="st4" d="M651.9,174.8l2.4-2.1c0.6-0.5,1.1-1,1.1-1.6c0-0.8-0.5-1.2-1.4-1.2c-0.8,0-1.3,0.5-1.3,1.4v0.1h-0.7v-0.2
			c0-1.2,0.8-2,2.1-2c1.3,0,2.1,0.7,2.1,1.8c0,0.9-0.6,1.5-1.3,2.1l-1.9,1.6h3.2v0.7h-4.3V174.8z"/>
		<path class="st4" d="M657.9,169.2h0.7v6.2h-0.7V171c-0.1,0.1-0.2,0.1-0.4,0.1h-1v-0.7h1c0.3,0,0.4-0.2,0.4-0.5V169.2z"/>
	</g>
</g>
<line class="st12" x1="642.5" y1="180" x2="642.5" y2="206.5"/>
<line class="st13" x1="512.8" y1="63.9" x2="512.8" y2="135.7"/>
<g class="st7">
	<g>
		<path class="st4" d="M675.6,33.2h0.5v1.3h-0.5v-0.9h-3.2v0.9h-0.5v-1.3h0.4c0.3-0.3,0.4-0.6,0.4-1.9v-1.8h2.9V33.2z M675.1,33.2
			V30h-1.9v1.5c0,1-0.1,1.5-0.3,1.8H675.1z"/>
		<path class="st4" d="M678.3,33.8c-1.2,0-2-0.9-2-2.1c0-1.2,0.8-2.1,2-2.1s2,0.9,2,2.1C680.3,32.9,679.5,33.8,678.3,33.8z
			 M678.3,33.3c0.9,0,1.5-0.7,1.5-1.7c0-1-0.6-1.7-1.5-1.7c-0.9,0-1.5,0.7-1.5,1.7C676.9,32.6,677.5,33.3,678.3,33.3z"/>
		<path class="st4" d="M681,33.7v-4.2h3.2v4.2h-0.5V30h-2.1v3.7H681z"/>
		<path class="st4" d="M686.8,33.8c-1.2,0-2-0.9-2-2.1c0-1.2,0.8-2.1,2-2.1s2,0.9,2,2.1C688.8,32.9,688,33.8,686.8,33.8z
			 M686.8,33.3c0.9,0,1.5-0.7,1.5-1.7c0-1-0.6-1.7-1.5-1.7c-0.9,0-1.5,0.7-1.5,1.7C685.4,32.6,686,33.3,686.8,33.3z"/>
		<path class="st4" d="M688.9,33.7v-0.5h0.1c0.5,0,0.7-0.3,0.7-1.7v-2.1h2.9v4.2h-0.5V30h-1.9v1.6c0,1.6-0.3,2.1-1.1,2.1H688.9z"/>
		<path class="st4" d="M693.4,29.5h0.5v1.8h2.2v-1.8h0.5v4.2h-0.5v-1.9h-2.2v1.9h-0.5V29.5z"/>
		<path class="st4" d="M697.5,29.5h2.7V30H698v1.3h1.8v0.5H698v1.4h2.2v0.5h-2.8V29.5z"/>
		<path class="st4" d="M700.8,29.5h0.5v1.8h2.2v-1.8h0.5v4.2h-0.5v-1.9h-2.2v1.9h-0.5V29.5z"/>
		<path class="st4" d="M704.8,33.7v-4.2h0.5v3.3l2.2-3.3h0.5v4.2h-0.5v-3.3l-2.2,3.3H704.8z"/>
		<path class="st4" d="M708.9,29.5h2.7V30h-2.2v1.3h1.8v0.5h-1.8v1.4h2.2v0.5h-2.8V29.5z"/>
		<path class="st4" d="M672.2,40.9v-4.2h0.5v1.8h0.8l1.4-1.8h0.6l-1.5,2l1.6,2.2h-0.6l-1.4-1.9h-0.8v1.9H672.2z"/>
		<path class="st4" d="M677.6,40.9v-4.2h0.5V40l2.2-3.3h0.5v4.2h-0.5v-3.3l-2.2,3.3H677.6z"/>
		<path class="st4" d="M681.7,36.7h0.5v1.8h2.2v-1.8h0.5v4.2h-0.5V39h-2.2v1.9h-0.5V36.7z"/>
		<path class="st4" d="M688.2,40.6v0.5h-0.5v-0.5c-1.3,0-2.1-0.7-2.1-1.8c0-1.1,0.8-1.8,2.1-1.8v-0.5h0.5V37c1.3,0,2.1,0.7,2.1,1.8
			C690.3,39.9,689.5,40.6,688.2,40.6z M687.7,40.2v-2.7c-1,0-1.6,0.5-1.6,1.4C686.1,39.6,686.6,40.1,687.7,40.2z M688.2,40.2
			c1,0,1.6-0.5,1.6-1.4c0-0.8-0.6-1.3-1.6-1.4V40.2z"/>
		<path class="st4" d="M692.8,41c-1.2,0-2-0.9-2-2.1c0-1.2,0.8-2.1,2-2.1s2,0.9,2,2.1C694.8,40.1,694,41,692.8,41z M692.8,40.5
			c0.9,0,1.5-0.7,1.5-1.7c0-1-0.6-1.7-1.5-1.7c-0.9,0-1.5,0.7-1.5,1.7C691.3,39.8,691.9,40.5,692.8,40.5z"/>
		<path class="st4" d="M695.5,36.7h1.6c0.8,0,1.4,0.5,1.4,1.3c0,0.8-0.6,1.3-1.4,1.3H696v1.6h-0.5V36.7z M696,37.2v1.6h1
			c0.6,0,0.9-0.3,0.9-0.8c0-0.5-0.3-0.8-0.9-0.8H696z"/>
		<path class="st4" d="M699,36.7h0.7l1.5,3.5l1.5-3.5h0.6v4.2h-0.5v-3.3l-1.4,3.3h-0.5l-1.4-3.3v3.3H699V36.7z"/>
		<path class="st4" d="M703.8,40.9l1.6-4.2h0.6l1.6,4.2H707l-0.4-1.1h-1.8l-0.4,1.1H703.8z M704.9,39.3h1.5l-0.8-2L704.9,39.3z"/>
		<path class="st4" d="M711.2,40.4h0.5v1.3h-0.5v-0.9h-3.2v-4.2h0.5v3.7h2.1v-3.7h0.5V40.4z"/>
		<path class="st4" d="M712.3,40.9v-4.2h0.5V40l2.2-3.3h0.5v4.2H715v-3.3l-2.2,3.3H712.3z"/>
		<path class="st4" d="M716.4,40.9v-4.2h0.5V40l2.2-3.3h0.5v4.2h-0.5v-3.3l-2.2,3.3H716.4z"/>
		<path class="st4" d="M672.7,43.9h0.5v4.2h-0.5v-3c-0.1,0.1-0.2,0.1-0.3,0.1h-0.7v-0.4h0.7c0.2,0,0.3-0.1,0.3-0.4V43.9z"/>
		<path class="st4" d="M677,47c0,0.7-0.6,1.2-1.5,1.2c-0.9,0-1.5-0.5-1.5-1.2c0-0.6,0.4-0.9,0.8-1c-0.4-0.1-0.7-0.4-0.7-0.9
			c0-0.7,0.6-1.1,1.4-1.1c0.9,0,1.4,0.5,1.4,1.1c0,0.5-0.3,0.9-0.7,0.9C676.6,46.1,677,46.4,677,47z M676.4,47c0-0.4-0.4-0.8-1-0.8
			c-0.6,0-1,0.3-1,0.8c0,0.5,0.4,0.8,1,0.8C676,47.7,676.4,47.4,676.4,47z M675.4,45.7c0.5,0,0.9-0.3,0.9-0.7c0-0.4-0.4-0.7-0.9-0.7
			c-0.5,0-0.9,0.3-0.9,0.7C674.5,45.4,674.9,45.7,675.4,45.7z"/>
		<path class="st4" d="M678.6,43.9c0.6,0,1.1,0.4,1.1,1c0,0.6-0.4,1-1.1,1c-0.6,0-1.1-0.4-1.1-1C677.5,44.3,678,43.9,678.6,43.9z
			 M678.6,44.3c-0.4,0-0.6,0.3-0.6,0.6c0,0.4,0.3,0.6,0.6,0.6c0.4,0,0.6-0.3,0.6-0.6C679.2,44.5,678.9,44.3,678.6,44.3z M678.2,48.1
			l2.9-4.2h0.5l-2.9,4.2H678.2z M681.2,46.1c0.6,0,1.1,0.4,1.1,1c0,0.6-0.5,1-1.1,1s-1.1-0.4-1.1-1
			C680.2,46.6,680.6,46.1,681.2,46.1z M681.2,46.5c-0.4,0-0.6,0.3-0.6,0.6c0,0.4,0.3,0.6,0.6,0.6c0.4,0,0.6-0.3,0.6-0.6
			C681.8,46.8,681.6,46.5,681.2,46.5z"/>
	</g>
</g>
<line class="st13" x1="667.2" y1="27.6" x2="667.2" y2="56.5"/>
<g class="st7">
	<g>
		<path class="st4" d="M768.1,193.8h0.5v1.3h-0.5v-0.9h-3.2v0.9h-0.5v-1.3h0.4c0.3-0.3,0.4-0.6,0.4-1.9v-1.8h2.9V193.8z
			 M767.6,193.8v-3.3h-1.9v1.5c0,1-0.1,1.5-0.3,1.8H767.6z"/>
		<path class="st4" d="M770.8,194.3c-1.2,0-2-0.9-2-2.1s0.8-2.1,2-2.1s2,0.9,2,2.1S772,194.3,770.8,194.3z M770.8,193.9
			c0.9,0,1.5-0.7,1.5-1.7s-0.6-1.7-1.5-1.7c-0.9,0-1.5,0.7-1.5,1.7S770,193.9,770.8,193.9z"/>
		<path class="st4" d="M773.5,194.3v-4.2h3.2v4.2h-0.5v-3.7H774v3.7H773.5z"/>
		<path class="st4" d="M779.3,194.3c-1.2,0-2-0.9-2-2.1s0.8-2.1,2-2.1s2,0.9,2,2.1S780.5,194.3,779.3,194.3z M779.3,193.9
			c0.9,0,1.5-0.7,1.5-1.7s-0.6-1.7-1.5-1.7c-0.9,0-1.5,0.7-1.5,1.7S778.5,193.9,779.3,193.9z"/>
		<path class="st4" d="M781.4,194.3v-0.5h0.1c0.5,0,0.7-0.3,0.7-1.7v-2.1h2.9v4.2h-0.5v-3.7h-1.9v1.6c0,1.6-0.3,2.1-1.1,2.1H781.4z"
			/>
		<path class="st4" d="M785.9,190.1h0.5v1.8h2.2v-1.8h0.5v4.2h-0.5v-1.9h-2.2v1.9h-0.5V190.1z"/>
		<path class="st4" d="M790,190.1h2.7v0.5h-2.2v1.3h1.8v0.5h-1.8v1.4h2.2v0.5H790V190.1z"/>
		<path class="st4" d="M793.3,190.1h0.5v1.8h2.2v-1.8h0.5v4.2H796v-1.9h-2.2v1.9h-0.5V190.1z"/>
		<path class="st4" d="M797.3,194.3v-4.2h0.5v3.3l2.2-3.3h0.5v4.2h-0.5V191l-2.2,3.3H797.3z"/>
		<path class="st4" d="M801.4,190.1h2.7v0.5h-2.2v1.3h1.8v0.5h-1.8v1.4h2.2v0.5h-2.8V190.1z"/>
		<path class="st4" d="M764.7,201.5v-4.2h0.5v1.8h0.8l1.4-1.8h0.6l-1.5,2l1.6,2.2h-0.6l-1.4-1.9h-0.8v1.9H764.7z"/>
		<path class="st4" d="M770.1,201.5v-4.2h0.5v3.3l2.2-3.3h0.5v4.2h-0.5v-3.3l-2.2,3.3H770.1z"/>
		<path class="st4" d="M774.2,197.3h0.5v1.8h2.2v-1.8h0.5v4.2h-0.5v-1.9h-2.2v1.9h-0.5V197.3z"/>
		<path class="st4" d="M780.7,201.2v0.5h-0.5v-0.5c-1.3,0-2.1-0.7-2.1-1.8c0-1.1,0.8-1.8,2.1-1.8v-0.5h0.5v0.5
			c1.3,0,2.1,0.7,2.1,1.8C782.8,200.5,782,201.2,780.7,201.2z M780.2,200.8V198c-1,0-1.6,0.5-1.6,1.4
			C778.6,200.2,779.1,200.7,780.2,200.8z M780.7,200.8c1,0,1.6-0.5,1.6-1.4s-0.6-1.3-1.6-1.4V200.8z"/>
		<path class="st4" d="M785.3,201.5c-1.2,0-2-0.9-2-2.1s0.8-2.1,2-2.1s2,0.9,2,2.1S786.5,201.5,785.3,201.5z M785.3,201.1
			c0.9,0,1.5-0.7,1.5-1.7s-0.6-1.7-1.5-1.7c-0.9,0-1.5,0.7-1.5,1.7S784.4,201.1,785.3,201.1z"/>
		<path class="st4" d="M788,197.3h1.6c0.8,0,1.4,0.5,1.4,1.3s-0.6,1.3-1.4,1.3h-1.1v1.6H788V197.3z M788.5,197.8v1.6h1
			c0.6,0,0.9-0.3,0.9-0.8s-0.3-0.8-0.9-0.8H788.5z"/>
		<path class="st4" d="M791.5,197.3h0.7l1.5,3.5l1.5-3.5h0.6v4.2h-0.5v-3.3l-1.4,3.3h-0.5l-1.4-3.3v3.3h-0.5V197.3z"/>
		<path class="st4" d="M796.3,201.5l1.6-4.2h0.6l1.6,4.2h-0.6l-0.4-1.1h-1.8l-0.4,1.1H796.3z M797.4,199.9h1.5l-0.8-2L797.4,199.9z"
			/>
		<path class="st4" d="M803.7,201h0.5v1.3h-0.5v-0.9h-3.2v-4.2h0.5v3.7h2.1v-3.7h0.5V201z"/>
		<path class="st4" d="M804.8,201.5v-4.2h0.5v3.3l2.2-3.3h0.5v4.2h-0.5v-3.3l-2.2,3.3H804.8z"/>
		<path class="st4" d="M808.9,201.5v-4.2h0.5v3.3l2.2-3.3h0.5v4.2h-0.5v-3.3l-2.2,3.3H808.9z"/>
		<path class="st4" d="M765.2,204.5h0.5v4.2h-0.5v-3c-0.1,0.1-0.2,0.1-0.3,0.1h-0.7v-0.5h0.7c0.2,0,0.3-0.1,0.3-0.4V204.5z"/>
		<path class="st4" d="M769.5,207.6c0,0.7-0.6,1.2-1.5,1.2c-0.9,0-1.5-0.5-1.5-1.2c0-0.6,0.4-0.9,0.8-1c-0.4-0.1-0.7-0.4-0.7-0.9
			c0-0.7,0.6-1.1,1.4-1.1c0.9,0,1.4,0.5,1.4,1.1c0,0.5-0.3,0.9-0.7,0.9C769.1,206.6,769.5,207,769.5,207.6z M768.9,207.5
			c0-0.4-0.4-0.8-1-0.8c-0.6,0-1,0.3-1,0.8c0,0.5,0.4,0.8,1,0.8C768.5,208.3,768.9,208,768.9,207.5z M767.9,206.3
			c0.5,0,0.9-0.3,0.9-0.7c0-0.4-0.4-0.7-0.9-0.7c-0.5,0-0.9,0.3-0.9,0.7C767,206,767.4,206.3,767.9,206.3z"/>
		<path class="st4" d="M771.1,204.5c0.6,0,1.1,0.4,1.1,1c0,0.6-0.4,1-1.1,1c-0.6,0-1.1-0.4-1.1-1C770,204.9,770.5,204.5,771.1,204.5
			z M771.1,204.9c-0.4,0-0.6,0.3-0.6,0.6c0,0.4,0.3,0.6,0.6,0.6c0.4,0,0.6-0.3,0.6-0.6C771.7,205.1,771.4,204.9,771.1,204.9z
			 M770.7,208.7l2.9-4.2h0.5l-2.9,4.2H770.7z M773.7,206.7c0.6,0,1.1,0.4,1.1,1c0,0.6-0.5,1-1.1,1s-1.1-0.4-1.1-1
			C772.7,207.1,773.1,206.7,773.7,206.7z M773.7,207.1c-0.4,0-0.6,0.3-0.6,0.6c0,0.4,0.3,0.6,0.6,0.6c0.4,0,0.6-0.3,0.6-0.6
			C774.3,207.4,774.1,207.1,773.7,207.1z"/>
	</g>
</g>
<line class="st13" x1="760.5" y1="188.2" x2="760.5" y2="217.1"/>
<g class="st7">
	<g>
		<path class="st4" d="M688.6,246.7h0.5v1.3h-0.5v-0.9h-3.2v0.9h-0.5v-1.3h0.4c0.3-0.3,0.4-0.6,0.4-1.9V243h2.9V246.7z M688.1,246.7
			v-3.3h-1.9v1.5c0,1-0.1,1.5-0.3,1.8H688.1z"/>
		<path class="st4" d="M691.3,247.3c-1.2,0-2-0.9-2-2.1s0.8-2.1,2-2.1s2,0.9,2,2.1S692.5,247.3,691.3,247.3z M691.3,246.8
			c0.9,0,1.5-0.7,1.5-1.7s-0.6-1.7-1.5-1.7c-0.9,0-1.5,0.7-1.5,1.7S690.5,246.8,691.3,246.8z"/>
		<path class="st4" d="M694,247.2V243h3.2v4.2h-0.5v-3.7h-2.1v3.7H694z"/>
		<path class="st4" d="M699.8,247.3c-1.2,0-2-0.9-2-2.1s0.8-2.1,2-2.1s2,0.9,2,2.1S701,247.3,699.8,247.3z M699.8,246.8
			c0.9,0,1.5-0.7,1.5-1.7s-0.6-1.7-1.5-1.7c-0.9,0-1.5,0.7-1.5,1.7S699,246.8,699.8,246.8z"/>
		<path class="st4" d="M701.9,247.2v-0.5h0.1c0.5,0,0.7-0.3,0.7-1.7V243h2.9v4.2h-0.5v-3.7h-1.9v1.6c0,1.6-0.3,2.1-1.1,2.1H701.9z"
			/>
		<path class="st4" d="M706.4,243h0.5v1.8h2.2V243h0.5v4.2h-0.5v-1.9h-2.2v1.9h-0.5V243z"/>
		<path class="st4" d="M710.5,243h2.7v0.5H711v1.3h1.8v0.5H711v1.4h2.2v0.5h-2.8V243z"/>
		<path class="st4" d="M713.8,243h0.5v1.8h2.2V243h0.5v4.2h-0.5v-1.9h-2.2v1.9h-0.5V243z"/>
		<path class="st4" d="M717.8,247.2V243h0.5v3.3l2.2-3.3h0.5v4.2h-0.5v-3.3l-2.2,3.3H717.8z"/>
		<path class="st4" d="M721.9,243h2.7v0.5h-2.2v1.3h1.8v0.5h-1.8v1.4h2.2v0.5h-2.8V243z"/>
		<path class="st4" d="M685.2,254.4v-4.2h0.5v1.8h0.8l1.4-1.8h0.6l-1.5,2l1.6,2.2h-0.6l-1.4-1.9h-0.8v1.9H685.2z"/>
		<path class="st4" d="M690.6,254.4v-4.2h0.5v3.3l2.2-3.3h0.5v4.2h-0.5v-3.3l-2.2,3.3H690.6z"/>
		<path class="st4" d="M694.7,250.2h0.5v1.8h2.2v-1.8h0.5v4.2h-0.5v-1.9h-2.2v1.9h-0.5V250.2z"/>
		<path class="st4" d="M701.2,254.2v0.5h-0.5v-0.5c-1.3,0-2.1-0.7-2.1-1.8c0-1.1,0.8-1.8,2.1-1.8V250h0.5v0.5c1.3,0,2.1,0.7,2.1,1.8
			C703.3,253.4,702.5,254.1,701.2,254.2z M700.7,253.7V251c-1,0-1.6,0.5-1.6,1.4C699.1,253.1,699.6,253.7,700.7,253.7z M701.2,253.7
			c1,0,1.6-0.5,1.6-1.4s-0.6-1.3-1.6-1.4V253.7z"/>
		<path class="st4" d="M705.8,254.5c-1.2,0-2-0.9-2-2.1s0.8-2.1,2-2.1s2,0.9,2,2.1S707,254.5,705.8,254.5z M705.8,254
			c0.9,0,1.5-0.7,1.5-1.7s-0.6-1.7-1.5-1.7c-0.9,0-1.5,0.7-1.5,1.7S704.9,254,705.8,254z"/>
		<path class="st4" d="M708.5,250.2h1.6c0.8,0,1.4,0.5,1.4,1.3s-0.6,1.3-1.4,1.3H709v1.6h-0.5V250.2z M709,250.7v1.6h1
			c0.6,0,0.9-0.3,0.9-0.8s-0.3-0.8-0.9-0.8H709z"/>
		<path class="st4" d="M712,250.2h0.7l1.5,3.5l1.5-3.5h0.6v4.2h-0.5v-3.3l-1.4,3.3h-0.5l-1.4-3.3v3.3H712V250.2z"/>
		<path class="st4" d="M716.8,254.4l1.6-4.2h0.6l1.6,4.2H720l-0.4-1.1h-1.8l-0.4,1.1H716.8z M717.9,252.8h1.5l-0.8-2L717.9,252.8z"
			/>
		<path class="st4" d="M724.2,253.9h0.5v1.3h-0.5v-0.9h-3.2v-4.2h0.5v3.7h2.1v-3.7h0.5V253.9z"/>
		<path class="st4" d="M725.3,254.4v-4.2h0.5v3.3l2.2-3.3h0.5v4.2H728v-3.3l-2.2,3.3H725.3z"/>
		<path class="st4" d="M729.4,254.4v-4.2h0.5v3.3l2.2-3.3h0.5v4.2h-0.5v-3.3l-2.2,3.3H729.4z"/>
		<path class="st4" d="M685.7,257.4h0.5v4.2h-0.5v-3c-0.1,0.1-0.2,0.1-0.3,0.1h-0.7v-0.5h0.7c0.2,0,0.3-0.1,0.3-0.4V257.4z"/>
		<path class="st4" d="M690,260.5c0,0.7-0.6,1.2-1.5,1.2c-0.9,0-1.5-0.5-1.5-1.2c0-0.6,0.4-0.9,0.8-1c-0.4-0.1-0.7-0.4-0.7-0.9
			c0-0.7,0.6-1.1,1.4-1.1c0.9,0,1.4,0.5,1.4,1.1c0,0.5-0.3,0.9-0.7,0.9C689.6,259.6,690,259.9,690,260.5z M689.4,260.5
			c0-0.4-0.4-0.8-1-0.8c-0.6,0-1,0.3-1,0.8c0,0.5,0.4,0.8,1,0.8C689,261.2,689.4,260.9,689.4,260.5z M688.4,259.2
			c0.5,0,0.9-0.3,0.9-0.7c0-0.4-0.4-0.7-0.9-0.7c-0.5,0-0.9,0.3-0.9,0.7C687.5,258.9,687.9,259.2,688.4,259.2z"/>
		<path class="st4" d="M691.6,257.4c0.6,0,1.1,0.4,1.1,1c0,0.6-0.4,1-1.1,1c-0.6,0-1.1-0.4-1.1-1C690.5,257.8,691,257.4,691.6,257.4
			z M691.6,257.8c-0.4,0-0.6,0.3-0.6,0.6c0,0.4,0.3,0.6,0.6,0.6c0.4,0,0.6-0.3,0.6-0.6C692.2,258.1,691.9,257.8,691.6,257.8z
			 M691.2,261.6l2.9-4.2h0.5l-2.9,4.2H691.2z M694.2,259.6c0.6,0,1.1,0.4,1.1,1c0,0.6-0.5,1-1.1,1s-1.1-0.4-1.1-1
			C693.2,260.1,693.6,259.6,694.2,259.6z M694.2,260c-0.4,0-0.6,0.3-0.6,0.6c0,0.4,0.3,0.6,0.6,0.6c0.4,0,0.6-0.3,0.6-0.6
			C694.8,260.3,694.6,260,694.2,260z"/>
	</g>
</g>
<line class="st13" x1="681" y1="241.1" x2="681" y2="270"/>
<g>
	<g>
		<path class="st14" d="M509.2,175h34.1v4.1l-23.7,44.2h-6.3l23.7-43h-27.7V175z"/>
		<path class="st14" d="M547.4,210.4h5.8c1.1,4.9,4.6,8.2,10.4,8.2c8.4,0,13-7.7,13-18.6c0-0.7,0-1.2-0.1-2.3
			c-0.1,0.3-0.1,0.7-0.4,1.3c-2.1,4.8-7,7.9-13.5,7.9c-9.5,0-16.2-6.3-16.2-16.1c0-9.3,6.8-16.2,16.8-16.2c6.7,0,11.6,3,14.6,8
			c2.4,4.2,3.8,10,3.8,16.4c0,15.2-6.8,24.8-18.4,24.8C554.6,223.7,548.6,218.5,547.4,210.4z M574.4,190.7c0-6.5-4.4-11-11-11
			c-6.7,0-11,4.6-11,11.1c0,6.4,4.1,11,10.8,11C569.8,201.9,574.4,197.3,574.4,190.7z"/>
	</g>
</g>
<g>
	<g>
		<path class="st14" d="M620.5,70.8h4.3v37.1h-4.5V81.3c-0.5,0.5-1.4,0.7-2.5,0.7h-6v-4h6c1.7,0,2.6-1.3,2.6-3.2V70.8z"/>
		<path class="st14" d="M657.7,98c0,6-5.1,10.3-13.5,10.3S630.6,104,630.6,98c0-5,3.2-8.3,7.4-9.2c-3.6-0.8-6.4-3.9-6.4-8.4
			c0-5.8,4.9-9.9,12.5-9.9s12.5,4,12.5,9.9c0,4.2-2.8,7.6-6.4,8.4C654.4,89.7,657.7,92.9,657.7,98z M653.1,97.7c0-3.9-3.7-6.7-9-6.7
			c-5.3,0-9,2.8-9,6.7c0,4,3.7,6.8,9,6.8C649.5,104.4,653.1,101.6,653.1,97.7z M644.2,86.5c4.8,0,7.9-2.4,7.9-6.1c0-3.6-3.1-6-7.9-6
			s-7.9,2.4-7.9,6C636.3,84,639.4,86.5,644.2,86.5z"/>
	</g>
</g>
<g>
	<g>
		<path class="st14" d="M731.2,137.9h3.4v28.7h-3.4V146c-0.4,0.4-1.1,0.5-2,0.5h-4.6v-3.1h4.7c1.4,0,2-1,2-2.5V137.9z"/>
		<path class="st14" d="M737.9,156.5l14.6-18.6h3.9v18.5h4.6v3.2h-4.6v7H753v-7h-15V156.5z M741.8,156.4H753v-14.3L741.8,156.4z"/>
	</g>
</g>
<g>
	<g>
		<path class="st14" d="M653.2,216.9H668v1.8l-10.3,19.2H655l10.3-18.7h-12.1V216.9z"/>
	</g>
</g>
</svg>
