<?xml version="1.0" encoding="utf-8"?>
<!-- Generator: Adobe Illustrator 22.0.0, SVG Export Plug-In . SVG Version: 6.00 Build 0)  -->
<svg version="1.1" id="Layer_1" xmlns="http://www.w3.org/2000/svg" xmlns:xlink="http://www.w3.org/1999/xlink" x="0px" y="0px"
	 viewBox="0 0 2200 1600" style="enable-background:new 0 0 2200 1600;" xml:space="preserve">
<style type="text/css">
	.st0{fill:#FFFFFF;}
	.st1{fill:#242435;}
	.st2{fill:#3B3B4B;}
	.st3{fill:#52525F;}
	.st4{fill:#696975;}
	.st5{fill:#868690;}
	.st6{fill:#A4A4AB;}
	.st7{fill:#D1D1D5;}
	.st8{fill:#E8E8EA;}
	.st9{fill:#F2F2F3;}
	.st10{fill:#738CEA;}
	.st11{fill:#4159A3;}
	.st12{fill:#1B1B2D;}
	.st13{fill:#9B3123;}
	.st14{fill:#D63318;}
	.st15{fill:#31772D;}
	.st16{fill:#5AA358;}
	.st17{fill:#E3E8FB;}
	.st18{fill:#F7D6D1;}
	.st19{fill:#CDE3CD;}
</style>
<rect y="1000" class="st0" width="1000" height="600"/>
<rect x="700" y="1000" width="300" height="600"/>
<rect x="1000" y="1000" class="st1" width="300" height="300"/>
<rect x="1300" y="1000" class="st2" width="300" height="300"/>
<rect x="1600" y="1000" class="st3" width="300" height="300"/>
<rect x="1900" y="1000" class="st4" width="300" height="300"/>
<rect x="1000" y="1300" class="st5" width="300" height="300"/>
<rect x="1300" y="1300" class="st6" width="300" height="300"/>
<rect x="1600" y="1300" class="st7" width="300" height="300"/>
<rect x="1900" y="1300" class="st8" width="300" height="300"/>
<rect class="st9" width="1000" height="1000"/>
<rect x="1000" class="st10" width="300" height="100"/>
<rect x="1300" class="st11" width="300" height="100"/>
<rect x="1600" class="st12" width="600" height="1000"/>
<g>
	<path class="st12" d="M19.8,38.7h-1.9V21.9h1.9V38.7z"/>
	<path class="st12" d="M25.6,38.7h-1.9V21.9h3.2l7.6,14.5H35V21.9h1.9v16.8h-3.2l-7.6-14.5h-0.5V38.7z"/>
	<path class="st12" d="M42.6,38.7h-1.9V21.9h10.6v1.8h-8.6v5.6h8.2v1.8h-8.2V38.7z"/>
	<path class="st12" d="M57.1,37.8c-1.2-0.7-2.2-1.7-2.9-3.1c-0.7-1.3-1.1-2.8-1.1-4.5c0-1.7,0.4-3.2,1.1-4.5
		c0.7-1.3,1.7-2.3,2.9-3.1c1.2-0.7,2.6-1.1,4.1-1.1c1.5,0,2.8,0.4,4.1,1.1c1.2,0.7,2.2,1.7,2.9,3.1c0.7,1.3,1.1,2.8,1.1,4.5
		c0,1.7-0.4,3.2-1.1,4.5c-0.7,1.3-1.7,2.3-2.9,3.1c-1.2,0.7-2.6,1.1-4.1,1.1C59.6,38.9,58.3,38.5,57.1,37.8z M64.2,36.2
		c0.9-0.6,1.7-1.4,2.2-2.4s0.8-2.2,0.8-3.6c0-1.3-0.3-2.5-0.8-3.6s-1.3-1.8-2.2-2.4c-0.9-0.6-2-0.9-3.1-0.9c-1.1,0-2.1,0.3-3.1,0.9
		c-0.9,0.6-1.7,1.4-2.2,2.4S55,28.9,55,30.3c0,1.3,0.3,2.5,0.8,3.6s1.3,1.8,2.2,2.4c0.9,0.6,2,0.9,3.1,0.9
		C62.2,37.1,63.3,36.8,64.2,36.2z"/>
	<path class="st12" d="M83.1,38.7H72.3V21.9h10.8v1.8h-8.9v5.6h8.4v1.8h-8.4v5.8h8.9V38.7z"/>
	<path class="st12" d="M88.9,37.9c-1-0.7-1.8-1.7-2.4-3c-0.6-1.3-0.9-2.9-0.9-4.7c0-1.8,0.3-3.4,0.9-4.7c0.6-1.3,1.4-2.3,2.4-3
		c1-0.7,2.1-1,3.3-1s2.3,0.3,3.3,1c1,0.7,1.8,1.7,2.4,3c0.6,1.3,0.9,2.9,0.9,4.7c0,1.8-0.3,3.4-0.9,4.7c-0.6,1.3-1.4,2.3-2.4,3
		c-1,0.7-2.1,1-3.3,1S89.9,38.6,88.9,37.9z M94.5,36.3c0.7-0.5,1.3-1.3,1.7-2.3s0.6-2.3,0.6-3.7c0-1.5-0.2-2.7-0.6-3.7
		s-1-1.8-1.7-2.3c-0.7-0.5-1.5-0.8-2.3-0.8c-0.8,0-1.6,0.3-2.3,0.8c-0.7,0.5-1.3,1.3-1.7,2.3s-0.6,2.3-0.6,3.7
		c0,1.5,0.2,2.7,0.6,3.7s1,1.8,1.7,2.3c0.7,0.5,1.5,0.8,2.3,0.8C93,37.1,93.8,36.9,94.5,36.3z"/>
	<path class="st12" d="M100.8,38.7v-1.6l6.8-7.3c0.5-0.5,0.9-1,1.1-1.5c0.2-0.5,0.3-1,0.3-1.6c0-1-0.3-1.7-0.9-2.3
		c-0.6-0.6-1.4-0.9-2.3-0.9c-0.6,0-1.1,0.2-1.6,0.5c-0.5,0.3-0.9,0.7-1.2,1.3c-0.3,0.5-0.4,1.2-0.4,1.9h-1.9c0-1,0.2-1.9,0.7-2.8
		s1.1-1.5,1.8-1.9c0.8-0.5,1.7-0.7,2.7-0.7s1.9,0.2,2.7,0.6c0.8,0.4,1.4,1,1.8,1.8s0.7,1.6,0.7,2.6c0,0.9-0.2,1.7-0.5,2.4
		s-0.8,1.3-1.5,2l-5.4,5.6v0.1h7.8v1.8H100.8z"/>
</g>
<g>
	<path class="st12" d="M19.8,1035.4h-1.9v-16.8h1.9V1035.4z"/>
	<path class="st12" d="M25.6,1035.4h-1.9v-16.8h3.2l7.6,14.5H35v-14.5h1.9v16.8h-3.2l-7.6-14.5h-0.5V1035.4z"/>
	<path class="st12" d="M42.6,1035.4h-1.9v-16.8h10.6v1.8h-8.6v5.6h8.2v1.8h-8.2V1035.4z"/>
	<path class="st12" d="M57.1,1034.5c-1.2-0.7-2.2-1.7-2.9-3.1c-0.7-1.3-1.1-2.8-1.1-4.5c0-1.7,0.4-3.2,1.1-4.5
		c0.7-1.3,1.7-2.3,2.9-3.1c1.2-0.7,2.6-1.1,4.1-1.1c1.5,0,2.8,0.4,4.1,1.1c1.2,0.7,2.2,1.7,2.9,3.1c0.7,1.3,1.1,2.8,1.1,4.5
		c0,1.7-0.4,3.2-1.1,4.5c-0.7,1.3-1.7,2.3-2.9,3.1c-1.2,0.7-2.6,1.1-4.1,1.1C59.6,1035.6,58.3,1035.3,57.1,1034.5z M64.2,1033
		c0.9-0.6,1.7-1.4,2.2-2.4s0.8-2.2,0.8-3.6c0-1.3-0.3-2.5-0.8-3.6s-1.3-1.8-2.2-2.4c-0.9-0.6-2-0.9-3.1-0.9c-1.1,0-2.1,0.3-3.1,0.9
		c-0.9,0.6-1.7,1.4-2.2,2.4s-0.8,2.2-0.8,3.6c0,1.3,0.3,2.5,0.8,3.6s1.3,1.8,2.2,2.4c0.9,0.6,2,0.9,3.1,0.9
		C62.2,1033.8,63.3,1033.6,64.2,1033z"/>
	<path class="st12" d="M83.1,1035.4H72.3v-16.8h10.8v1.8h-8.9v5.6h8.4v1.8h-8.4v5.8h8.9V1035.4z"/>
	<path class="st12" d="M88.9,1034.6c-1-0.7-1.8-1.7-2.4-3c-0.6-1.3-0.9-2.9-0.9-4.7c0-1.8,0.3-3.4,0.9-4.7c0.6-1.3,1.4-2.3,2.4-3
		c1-0.7,2.1-1,3.3-1s2.3,0.3,3.3,1c1,0.7,1.8,1.7,2.4,3c0.6,1.3,0.9,2.9,0.9,4.7c0,1.8-0.3,3.4-0.9,4.7c-0.6,1.3-1.4,2.3-2.4,3
		c-1,0.7-2.1,1-3.3,1S89.9,1035.3,88.9,1034.6z M94.5,1033.1c0.7-0.5,1.3-1.3,1.7-2.3s0.6-2.3,0.6-3.7c0-1.5-0.2-2.7-0.6-3.7
		s-1-1.8-1.7-2.3c-0.7-0.5-1.5-0.8-2.3-0.8c-0.8,0-1.6,0.3-2.3,0.8c-0.7,0.5-1.3,1.3-1.7,2.3s-0.6,2.3-0.6,3.7
		c0,1.5,0.2,2.7,0.6,3.7s1,1.8,1.7,2.3c0.7,0.5,1.5,0.8,2.3,0.8C93,1033.8,93.8,1033.6,94.5,1033.1z"/>
	<path class="st12" d="M104.2,1035.4v-13.2h-3.6v-1.7h2.9c0.5,0,0.7-0.2,0.7-0.7v-1.2h1.9v16.8H104.2z"/>
</g>
<g>
	<path class="st12" d="M1020.5,340h-1.9v-16.8h1.9V340z"/>
	<path class="st12" d="M1026.3,340h-1.9v-16.8h3.2l7.6,14.5h0.5v-14.5h1.9V340h-3.2l-7.6-14.5h-0.5V340z"/>
	<path class="st12" d="M1043.3,340h-1.9v-16.8h10.6v1.8h-8.6v5.6h8.2v1.8h-8.2V340z"/>
	<path class="st12" d="M1057.7,339.1c-1.2-0.7-2.2-1.7-2.9-3.1c-0.7-1.3-1.1-2.8-1.1-4.5c0-1.7,0.4-3.2,1.1-4.5
		c0.7-1.3,1.7-2.3,2.9-3.1c1.2-0.7,2.6-1.1,4.1-1.1c1.5,0,2.8,0.4,4.1,1.1c1.2,0.7,2.2,1.7,2.9,3.1c0.7,1.3,1.1,2.8,1.1,4.5
		c0,1.7-0.4,3.2-1.1,4.5c-0.7,1.3-1.7,2.3-2.9,3.1c-1.2,0.7-2.6,1.1-4.1,1.1C1060.3,340.2,1058.9,339.9,1057.7,339.1z M1064.9,337.6
		c0.9-0.6,1.7-1.4,2.2-2.4s0.8-2.2,0.8-3.6c0-1.3-0.3-2.5-0.8-3.6s-1.3-1.8-2.2-2.4s-2-0.9-3.1-0.9s-2.1,0.3-3.1,0.9
		s-1.7,1.4-2.2,2.4s-0.8,2.2-0.8,3.6c0,1.3,0.3,2.5,0.8,3.6s1.3,1.8,2.2,2.4s2,0.9,3.1,0.9S1063.9,338.2,1064.9,337.6z"/>
	<path class="st12" d="M1083.7,340h-10.8v-16.8h10.8v1.8h-8.9v5.6h8.4v1.8h-8.4v5.8h8.9V340z"/>
	<path class="st12" d="M1089.6,339.2c-1-0.7-1.8-1.7-2.4-3c-0.6-1.3-0.9-2.9-0.9-4.7c0-1.8,0.3-3.4,0.9-4.7c0.6-1.3,1.4-2.3,2.4-3
		c1-0.7,2.1-1,3.3-1c1.2,0,2.3,0.3,3.3,1c1,0.7,1.8,1.7,2.4,3c0.6,1.3,0.9,2.9,0.9,4.7c0,1.8-0.3,3.4-0.9,4.7
		c-0.6,1.3-1.4,2.3-2.4,3c-1,0.7-2.1,1-3.3,1C1091.7,340.2,1090.6,339.9,1089.6,339.2z M1095.1,337.7c0.7-0.5,1.3-1.3,1.7-2.3
		s0.6-2.3,0.6-3.7c0-1.5-0.2-2.7-0.6-3.7s-1-1.8-1.7-2.3c-0.7-0.5-1.5-0.8-2.3-0.8c-0.8,0-1.6,0.3-2.3,0.8c-0.7,0.5-1.3,1.3-1.7,2.3
		s-0.6,2.3-0.6,3.7c0,1.5,0.2,2.7,0.6,3.7s1,1.8,1.7,2.3s1.5,0.8,2.3,0.8C1093.7,338.4,1094.4,338.2,1095.1,337.7z"/>
	<path class="st12" d="M1104.8,340v-13.2h-3.6v-1.7h2.9c0.5,0,0.7-0.2,0.7-0.7v-1.2h1.9V340H1104.8z"/>
</g>
<g>
	<path class="st0" d="M718.8,1035.4h-1.9v-16.8h1.9V1035.4z"/>
	<path class="st0" d="M724.6,1035.4h-1.9v-16.8h3.2l7.6,14.5h0.5v-14.5h1.9v16.8h-3.2l-7.6-14.5h-0.5V1035.4z"/>
	<path class="st0" d="M741.6,1035.4h-1.9v-16.8h10.6v1.8h-8.6v5.6h8.2v1.8h-8.2V1035.4z"/>
	<path class="st0" d="M756.1,1034.5c-1.2-0.7-2.2-1.7-2.9-3.1c-0.7-1.3-1.1-2.8-1.1-4.5c0-1.7,0.4-3.2,1.1-4.5
		c0.7-1.3,1.7-2.3,2.9-3.1c1.2-0.7,2.6-1.1,4.1-1.1c1.5,0,2.8,0.4,4.1,1.1c1.2,0.7,2.2,1.7,2.9,3.1c0.7,1.3,1.1,2.8,1.1,4.5
		c0,1.7-0.4,3.2-1.1,4.5c-0.7,1.3-1.7,2.3-2.9,3.1c-1.2,0.7-2.6,1.1-4.1,1.1C758.6,1035.6,757.3,1035.3,756.1,1034.5z M763.2,1033
		c0.9-0.6,1.7-1.4,2.2-2.4s0.8-2.2,0.8-3.6c0-1.3-0.3-2.5-0.8-3.6s-1.3-1.8-2.2-2.4c-0.9-0.6-2-0.9-3.1-0.9c-1.1,0-2.1,0.3-3.1,0.9
		c-0.9,0.6-1.7,1.4-2.2,2.4s-0.8,2.2-0.8,3.6c0,1.3,0.3,2.5,0.8,3.6s1.3,1.8,2.2,2.4c0.9,0.6,2,0.9,3.1,0.9
		C761.2,1033.8,762.3,1033.6,763.2,1033z"/>
	<path class="st0" d="M782.1,1035.4h-10.8v-16.8h10.8v1.8h-8.9v5.6h8.4v1.8h-8.4v5.8h8.9V1035.4z"/>
	<path class="st0" d="M787.9,1034.6c-1-0.7-1.8-1.7-2.4-3c-0.6-1.3-0.9-2.9-0.9-4.7c0-1.8,0.3-3.4,0.9-4.7c0.6-1.3,1.4-2.3,2.4-3
		c1-0.7,2.1-1,3.3-1s2.3,0.3,3.3,1c1,0.7,1.8,1.7,2.4,3c0.6,1.3,0.9,2.9,0.9,4.7c0,1.8-0.3,3.4-0.9,4.7c-0.6,1.3-1.4,2.3-2.4,3
		c-1,0.7-2.1,1-3.3,1S788.9,1035.3,787.9,1034.6z M793.5,1033.1c0.7-0.5,1.3-1.3,1.7-2.3s0.6-2.3,0.6-3.7c0-1.5-0.2-2.7-0.6-3.7
		s-1-1.8-1.7-2.3c-0.7-0.5-1.5-0.8-2.3-0.8c-0.8,0-1.6,0.3-2.3,0.8c-0.7,0.5-1.3,1.3-1.7,2.3s-0.6,2.3-0.6,3.7
		c0,1.5,0.2,2.7,0.6,3.7s1,1.8,1.7,2.3c0.7,0.5,1.5,0.8,2.3,0.8C792,1033.8,792.8,1033.6,793.5,1033.1z"/>
	<path class="st0" d="M803.5,1034.6c-1-0.7-1.8-1.7-2.4-3c-0.6-1.3-0.9-2.9-0.9-4.7c0-1.8,0.3-3.4,0.9-4.7c0.6-1.3,1.4-2.3,2.4-3
		c1-0.7,2.1-1,3.3-1s2.3,0.3,3.3,1c1,0.7,1.8,1.7,2.4,3c0.6,1.3,0.9,2.9,0.9,4.7c0,1.8-0.3,3.4-0.9,4.7c-0.6,1.3-1.4,2.3-2.4,3
		c-1,0.7-2.1,1-3.3,1S804.5,1035.3,803.5,1034.6z M809.1,1033.1c0.7-0.5,1.3-1.3,1.7-2.3s0.6-2.3,0.6-3.7c0-1.5-0.2-2.7-0.6-3.7
		s-1-1.8-1.7-2.3c-0.7-0.5-1.5-0.8-2.3-0.8c-0.8,0-1.6,0.3-2.3,0.8c-0.7,0.5-1.3,1.3-1.7,2.3s-0.6,2.3-0.6,3.7
		c0,1.5,0.2,2.7,0.6,3.7s1,1.8,1.7,2.3c0.7,0.5,1.5,0.8,2.3,0.8C807.6,1033.8,808.4,1033.6,809.1,1033.1z"/>
</g>
<g>
	<path class="st0" d="M1022.5,1035.4h-1.9v-16.8h1.9V1035.4z"/>
	<path class="st0" d="M1028.2,1035.4h-1.9v-16.8h3.2l7.6,14.5h0.5v-14.5h1.9v16.8h-3.2l-7.6-14.5h-0.5V1035.4z"/>
	<path class="st0" d="M1045.3,1035.4h-1.9v-16.8h10.6v1.8h-8.6v5.6h8.2v1.8h-8.2V1035.4z"/>
	<path class="st0" d="M1059.7,1034.5c-1.2-0.7-2.2-1.7-2.9-3.1c-0.7-1.3-1.1-2.8-1.1-4.5c0-1.7,0.4-3.2,1.1-4.5
		c0.7-1.3,1.7-2.3,2.9-3.1c1.2-0.7,2.6-1.1,4.1-1.1c1.5,0,2.8,0.4,4.1,1.1c1.2,0.7,2.2,1.7,2.9,3.1c0.7,1.3,1.1,2.8,1.1,4.5
		c0,1.7-0.4,3.2-1.1,4.5c-0.7,1.3-1.7,2.3-2.9,3.1c-1.2,0.7-2.6,1.1-4.1,1.1C1062.3,1035.6,1060.9,1035.3,1059.7,1034.5z
		 M1066.9,1033c0.9-0.6,1.7-1.4,2.2-2.4s0.8-2.2,0.8-3.6c0-1.3-0.3-2.5-0.8-3.6s-1.3-1.8-2.2-2.4c-0.9-0.6-2-0.9-3.1-0.9
		c-1.1,0-2.1,0.3-3.1,0.9c-0.9,0.6-1.7,1.4-2.2,2.4s-0.8,2.2-0.8,3.6c0,1.3,0.3,2.5,0.8,3.6s1.3,1.8,2.2,2.4c0.9,0.6,2,0.9,3.1,0.9
		C1064.9,1033.8,1065.9,1033.6,1066.9,1033z"/>
	<path class="st0" d="M1085.7,1035.4h-10.8v-16.8h10.8v1.8h-8.9v5.6h8.4v1.8h-8.4v5.8h8.9V1035.4z"/>
	<path class="st0" d="M1091.6,1034.6c-1-0.7-1.8-1.7-2.4-3c-0.6-1.3-0.9-2.9-0.9-4.7c0-1.8,0.3-3.4,0.9-4.7c0.6-1.3,1.4-2.3,2.4-3
		c1-0.7,2.1-1,3.3-1s2.3,0.3,3.3,1c1,0.7,1.8,1.7,2.4,3c0.6,1.3,0.9,2.9,0.9,4.7c0,1.8-0.3,3.4-0.9,4.7c-0.6,1.3-1.4,2.3-2.4,3
		c-1,0.7-2.1,1-3.3,1S1092.6,1035.3,1091.6,1034.6z M1097.1,1033.1c0.7-0.5,1.3-1.3,1.7-2.3s0.6-2.3,0.6-3.7c0-1.5-0.2-2.7-0.6-3.7
		s-1-1.8-1.7-2.3c-0.7-0.5-1.5-0.8-2.3-0.8c-0.8,0-1.6,0.3-2.3,0.8c-0.7,0.5-1.3,1.3-1.7,2.3s-0.6,2.3-0.6,3.7
		c0,1.5,0.2,2.7,0.6,3.7s1,1.8,1.7,2.3c0.7,0.5,1.5,0.8,2.3,0.8C1095.7,1033.8,1096.4,1033.6,1097.1,1033.1z"/>
	<path class="st0" d="M1106.1,1035c-0.8-0.4-1.5-1-1.9-1.7s-0.7-1.5-0.7-2.3h1.9c0,0.8,0.3,1.5,1,2.1c0.6,0.6,1.5,0.8,2.6,0.8
		c1.1,0,1.9-0.3,2.6-0.9c0.7-0.6,1-1.3,1-2.1c0-0.9-0.3-1.7-1-2.2s-1.5-0.9-2.6-0.9h-1.1v-1.8h1.1c1,0,1.9-0.3,2.5-0.8
		c0.6-0.6,0.9-1.3,0.9-2.1c0-0.5-0.1-1-0.4-1.4c-0.3-0.4-0.7-0.8-1.2-1c-0.5-0.3-1.1-0.4-1.8-0.4c-0.6,0-1.2,0.1-1.7,0.4
		c-0.5,0.3-0.9,0.6-1.2,1s-0.4,0.9-0.4,1.4h-1.9c0-0.8,0.2-1.5,0.7-2.2c0.4-0.7,1.1-1.3,1.9-1.7c0.8-0.4,1.7-0.6,2.7-0.6
		c1,0,1.9,0.2,2.7,0.6s1.4,1,1.9,1.7c0.4,0.7,0.7,1.5,0.7,2.4c0,0.9-0.3,1.7-0.8,2.4c-0.5,0.7-1.2,1.1-1.8,1.4v0.1
		c0.7,0.2,1.4,0.7,2,1.4c0.6,0.7,0.9,1.6,0.9,2.5c0,0.9-0.2,1.7-0.7,2.4c-0.5,0.7-1.1,1.3-2,1.7c-0.8,0.4-1.8,0.6-2.8,0.6
		C1107.9,1035.6,1107,1035.4,1106.1,1035z"/>
</g>
<g>
	<path class="st0" d="M1324.5,1035.4h-1.9v-16.8h1.9V1035.4z"/>
	<path class="st0" d="M1330.2,1035.4h-1.9v-16.8h3.2l7.6,14.5h0.5v-14.5h1.9v16.8h-3.2l-7.6-14.5h-0.5V1035.4z"/>
	<path class="st0" d="M1347.3,1035.4h-1.9v-16.8h10.6v1.8h-8.6v5.6h8.2v1.8h-8.2V1035.4z"/>
	<path class="st0" d="M1361.7,1034.5c-1.2-0.7-2.2-1.7-2.9-3.1c-0.7-1.3-1.1-2.8-1.1-4.5c0-1.7,0.4-3.2,1.1-4.5
		c0.7-1.3,1.7-2.3,2.9-3.1c1.2-0.7,2.6-1.1,4.1-1.1c1.5,0,2.8,0.4,4.1,1.1c1.2,0.7,2.2,1.7,2.9,3.1c0.7,1.3,1.1,2.8,1.1,4.5
		c0,1.7-0.4,3.2-1.1,4.5c-0.7,1.3-1.7,2.3-2.9,3.1c-1.2,0.7-2.6,1.1-4.1,1.1C1364.3,1035.6,1362.9,1035.3,1361.7,1034.5z
		 M1368.9,1033c0.9-0.6,1.7-1.4,2.2-2.4s0.8-2.2,0.8-3.6c0-1.3-0.3-2.5-0.8-3.6s-1.3-1.8-2.2-2.4c-0.9-0.6-2-0.9-3.1-0.9
		c-1.1,0-2.1,0.3-3.1,0.9c-0.9,0.6-1.7,1.4-2.2,2.4s-0.8,2.2-0.8,3.6c0,1.3,0.3,2.5,0.8,3.6s1.3,1.8,2.2,2.4c0.9,0.6,2,0.9,3.1,0.9
		C1366.9,1033.8,1367.9,1033.6,1368.9,1033z"/>
	<path class="st0" d="M1387.7,1035.4h-10.8v-16.8h10.8v1.8h-8.9v5.6h8.4v1.8h-8.4v5.8h8.9V1035.4z"/>
	<path class="st0" d="M1393.6,1034.6c-1-0.7-1.8-1.7-2.4-3c-0.6-1.3-0.9-2.9-0.9-4.7c0-1.8,0.3-3.4,0.9-4.7c0.6-1.3,1.4-2.3,2.4-3
		s2.1-1,3.3-1c1.2,0,2.3,0.3,3.3,1s1.8,1.7,2.4,3c0.6,1.3,0.9,2.9,0.9,4.7c0,1.8-0.3,3.4-0.9,4.7c-0.6,1.3-1.4,2.3-2.4,3
		c-1,0.7-2.1,1-3.3,1C1395.7,1035.6,1394.6,1035.3,1393.6,1034.6z M1399.1,1033.1c0.7-0.5,1.3-1.3,1.7-2.3s0.6-2.3,0.6-3.7
		c0-1.5-0.2-2.7-0.6-3.7s-1-1.8-1.7-2.3c-0.7-0.5-1.5-0.8-2.3-0.8s-1.6,0.3-2.3,0.8c-0.7,0.5-1.3,1.3-1.7,2.3s-0.6,2.3-0.6,3.7
		c0,1.5,0.2,2.7,0.6,3.7s1,1.8,1.7,2.3c0.7,0.5,1.5,0.8,2.3,0.8S1398.4,1033.6,1399.1,1033.1z"/>
	<path class="st0" d="M1414.8,1035.4h-1.9v-3.8h-7.8v-1.4l6.6-11.5h3.1v11.3h2.2v1.7h-2.2V1035.4z M1407.5,1029.8v0.1h5.4v-8.8h-0.5
		L1407.5,1029.8z"/>
</g>
<g>
	<path class="st0" d="M1626.5,1035.4h-1.9v-16.8h1.9V1035.4z"/>
	<path class="st0" d="M1632.2,1035.4h-1.9v-16.8h3.2l7.6,14.5h0.5v-14.5h1.9v16.8h-3.2l-7.6-14.5h-0.5V1035.4z"/>
	<path class="st0" d="M1649.3,1035.4h-1.9v-16.8h10.6v1.8h-8.6v5.6h8.2v1.8h-8.2V1035.4z"/>
	<path class="st0" d="M1663.7,1034.5c-1.2-0.7-2.2-1.7-2.9-3.1c-0.7-1.3-1.1-2.8-1.1-4.5c0-1.7,0.4-3.2,1.1-4.5
		c0.7-1.3,1.7-2.3,2.9-3.1c1.2-0.7,2.6-1.1,4.1-1.1c1.5,0,2.8,0.4,4.1,1.1c1.2,0.7,2.2,1.7,2.9,3.1c0.7,1.3,1.1,2.8,1.1,4.5
		c0,1.7-0.4,3.2-1.1,4.5c-0.7,1.3-1.7,2.3-2.9,3.1c-1.2,0.7-2.6,1.1-4.1,1.1C1666.3,1035.6,1664.9,1035.3,1663.7,1034.5z
		 M1670.9,1033c0.9-0.6,1.7-1.4,2.2-2.4s0.8-2.2,0.8-3.6c0-1.3-0.3-2.5-0.8-3.6s-1.3-1.8-2.2-2.4c-0.9-0.6-2-0.9-3.1-0.9
		c-1.1,0-2.1,0.3-3.1,0.9c-0.9,0.6-1.7,1.4-2.2,2.4s-0.8,2.2-0.8,3.6c0,1.3,0.3,2.5,0.8,3.6s1.3,1.8,2.2,2.4c0.9,0.6,2,0.9,3.1,0.9
		C1668.9,1033.8,1669.9,1033.6,1670.9,1033z"/>
	<path class="st0" d="M1689.7,1035.4h-10.8v-16.8h10.8v1.8h-8.9v5.6h8.4v1.8h-8.4v5.8h8.9V1035.4z"/>
	<path class="st0" d="M1695.6,1034.6c-1-0.7-1.8-1.7-2.4-3c-0.6-1.3-0.9-2.9-0.9-4.7c0-1.8,0.3-3.4,0.9-4.7c0.6-1.3,1.4-2.3,2.4-3
		s2.1-1,3.3-1c1.2,0,2.3,0.3,3.3,1s1.8,1.7,2.4,3c0.6,1.3,0.9,2.9,0.9,4.7c0,1.8-0.3,3.4-0.9,4.7c-0.6,1.3-1.4,2.3-2.4,3
		c-1,0.7-2.1,1-3.3,1C1697.7,1035.6,1696.6,1035.3,1695.6,1034.6z M1701.1,1033.1c0.7-0.5,1.3-1.3,1.7-2.3s0.6-2.3,0.6-3.7
		c0-1.5-0.2-2.7-0.6-3.7s-1-1.8-1.7-2.3c-0.7-0.5-1.5-0.8-2.3-0.8s-1.6,0.3-2.3,0.8c-0.7,0.5-1.3,1.3-1.7,2.3s-0.6,2.3-0.6,3.7
		c0,1.5,0.2,2.7,0.6,3.7s1,1.8,1.7,2.3c0.7,0.5,1.5,0.8,2.3,0.8S1700.4,1033.6,1701.1,1033.1z"/>
	<path class="st0" d="M1710.7,1035.1c-0.8-0.4-1.5-0.9-2-1.6c-0.5-0.7-0.8-1.5-0.9-2.5h1.9c0.2,0.9,0.6,1.6,1.2,2.1
		c0.7,0.5,1.4,0.8,2.4,0.8c0.7,0,1.4-0.2,1.9-0.5c0.6-0.3,1.1-0.8,1.4-1.4c0.3-0.6,0.5-1.3,0.5-2c0-1.2-0.3-2.1-1-2.8
		c-0.7-0.7-1.6-1.1-2.7-1.1c-0.7,0-1.3,0.1-1.9,0.4c-0.6,0.2-1,0.6-1.4,1.1h-2l1-8.9h9v1.8h-7.4l-0.5,4.9h0.1
		c0.4-0.4,0.9-0.6,1.5-0.8c0.6-0.2,1.2-0.3,1.9-0.3c1,0,1.9,0.2,2.7,0.7c0.8,0.5,1.5,1.2,2,2s0.7,1.8,0.7,2.9c0,1.1-0.2,2.1-0.7,2.9
		s-1.2,1.6-2.1,2c-0.9,0.5-1.9,0.7-3,0.7C1712.3,1035.6,1711.5,1035.5,1710.7,1035.1z"/>
</g>
<g>
	<path class="st0" d="M1925.5,1035.4h-1.9v-16.8h1.9V1035.4z"/>
	<path class="st0" d="M1931.2,1035.4h-1.9v-16.8h3.2l7.6,14.5h0.5v-14.5h1.9v16.8h-3.2l-7.6-14.5h-0.5V1035.4z"/>
	<path class="st0" d="M1948.3,1035.4h-1.9v-16.8h10.6v1.8h-8.6v5.6h8.2v1.8h-8.2V1035.4z"/>
	<path class="st0" d="M1962.7,1034.5c-1.2-0.7-2.2-1.7-2.9-3.1c-0.7-1.3-1.1-2.8-1.1-4.5c0-1.7,0.4-3.2,1.1-4.5
		c0.7-1.3,1.7-2.3,2.9-3.1c1.2-0.7,2.6-1.1,4.1-1.1s2.8,0.4,4.1,1.1c1.2,0.7,2.2,1.7,2.9,3.1c0.7,1.3,1.1,2.8,1.1,4.5
		c0,1.7-0.4,3.2-1.1,4.5c-0.7,1.3-1.7,2.3-2.9,3.1c-1.2,0.7-2.6,1.1-4.1,1.1S1963.9,1035.3,1962.7,1034.5z M1969.8,1033
		c0.9-0.6,1.7-1.4,2.2-2.4c0.5-1,0.8-2.2,0.8-3.6c0-1.3-0.3-2.5-0.8-3.6c-0.5-1-1.3-1.8-2.2-2.4s-2-0.9-3.1-0.9
		c-1.1,0-2.1,0.3-3.1,0.9s-1.7,1.4-2.2,2.4s-0.8,2.2-0.8,3.6c0,1.3,0.3,2.5,0.8,3.6s1.3,1.8,2.2,2.4s2,0.9,3.1,0.9
		C1967.9,1033.8,1968.9,1033.6,1969.8,1033z"/>
	<path class="st0" d="M1988.7,1035.4h-10.8v-16.8h10.8v1.8h-8.9v5.6h8.4v1.8h-8.4v5.8h8.9V1035.4z"/>
	<path class="st0" d="M1994.6,1034.6c-1-0.7-1.8-1.7-2.4-3c-0.6-1.3-0.9-2.9-0.9-4.7c0-1.8,0.3-3.4,0.9-4.7c0.6-1.3,1.4-2.3,2.4-3
		s2.1-1,3.3-1c1.2,0,2.3,0.3,3.3,1s1.8,1.7,2.4,3c0.6,1.3,0.9,2.9,0.9,4.7c0,1.8-0.3,3.4-0.9,4.7c-0.6,1.3-1.4,2.3-2.4,3
		c-1,0.7-2.1,1-3.3,1C1996.6,1035.6,1995.6,1035.3,1994.6,1034.6z M2000.1,1033.1c0.7-0.5,1.3-1.3,1.7-2.3s0.6-2.3,0.6-3.7
		c0-1.5-0.2-2.7-0.6-3.7s-1-1.8-1.7-2.3c-0.7-0.5-1.5-0.8-2.3-0.8s-1.6,0.3-2.3,0.8c-0.7,0.5-1.3,1.3-1.7,2.3s-0.6,2.3-0.6,3.7
		c0,1.5,0.2,2.7,0.6,3.7s1,1.8,1.7,2.3c0.7,0.5,1.5,0.8,2.3,0.8S1999.4,1033.6,2000.1,1033.1z"/>
	<path class="st0" d="M2009.4,1034.9c-0.9-0.5-1.6-1.2-2.1-2.1c-0.5-0.9-0.8-1.8-0.8-2.8c0-0.6,0.1-1.1,0.3-1.8
		c0.2-0.6,0.4-1.1,0.7-1.5l5.3-8.2h2.2l-4,6.2h0.1c0.5-0.2,1-0.2,1.6-0.2c1,0,1.9,0.2,2.7,0.7c0.8,0.5,1.5,1.1,2,1.9
		c0.5,0.8,0.7,1.7,0.7,2.8c0,1-0.3,2-0.8,2.8c-0.5,0.9-1.2,1.5-2.1,2.1c-0.9,0.5-1.8,0.8-2.9,0.8
		C2011.3,1035.6,2010.3,1035.4,2009.4,1034.9z M2014.3,1033.3c0.6-0.3,1.1-0.8,1.4-1.4s0.5-1.2,0.5-1.9c0-0.7-0.2-1.4-0.5-1.9
		s-0.8-1.1-1.4-1.4c-0.6-0.3-1.2-0.5-1.9-0.5s-1.4,0.2-1.9,0.5s-1.1,0.8-1.4,1.4s-0.5,1.2-0.5,1.9c0,0.7,0.2,1.4,0.5,1.9
		s0.8,1.1,1.4,1.4c0.6,0.3,1.2,0.5,1.9,0.5S2013.7,1033.7,2014.3,1033.3z"/>
</g>
<g>
	<path class="st0" d="M1022.5,1334.9h-1.9v-16.8h1.9V1334.9z"/>
	<path class="st0" d="M1028.3,1334.9h-1.9v-16.8h3.2l7.6,14.5h0.5v-14.5h1.9v16.8h-3.2l-7.6-14.5h-0.5V1334.9z"/>
	<path class="st0" d="M1045.3,1334.9h-1.9v-16.8h10.6v1.8h-8.6v5.6h8.2v1.8h-8.2V1334.9z"/>
	<path class="st0" d="M1059.7,1334c-1.2-0.7-2.2-1.7-2.9-3.1c-0.7-1.3-1.1-2.8-1.1-4.5c0-1.7,0.4-3.2,1.1-4.5
		c0.7-1.3,1.7-2.3,2.9-3.1c1.2-0.7,2.6-1.1,4.1-1.1c1.5,0,2.8,0.4,4.1,1.1c1.2,0.7,2.2,1.7,2.9,3.1c0.7,1.3,1.1,2.8,1.1,4.5
		c0,1.7-0.4,3.2-1.1,4.5c-0.7,1.3-1.7,2.3-2.9,3.1c-1.2,0.7-2.6,1.1-4.1,1.1C1062.3,1335.1,1060.9,1334.8,1059.7,1334z
		 M1066.9,1332.5c0.9-0.6,1.7-1.4,2.2-2.4s0.8-2.2,0.8-3.6c0-1.3-0.3-2.5-0.8-3.6s-1.3-1.8-2.2-2.4s-2-0.9-3.1-0.9s-2.1,0.3-3.1,0.9
		s-1.7,1.4-2.2,2.4s-0.8,2.2-0.8,3.6c0,1.3,0.3,2.5,0.8,3.6s1.3,1.8,2.2,2.4s2,0.9,3.1,0.9S1065.9,1333,1066.9,1332.5z"/>
	<path class="st0" d="M1085.7,1334.9h-10.8v-16.8h10.8v1.8h-8.9v5.6h8.4v1.8h-8.4v5.8h8.9V1334.9z"/>
	<path class="st0" d="M1091.6,1334.1c-1-0.7-1.8-1.7-2.4-3c-0.6-1.3-0.9-2.9-0.9-4.7c0-1.8,0.3-3.4,0.9-4.7c0.6-1.3,1.4-2.3,2.4-3
		c1-0.7,2.1-1,3.3-1c1.2,0,2.3,0.3,3.3,1c1,0.7,1.8,1.7,2.4,3c0.6,1.3,0.9,2.9,0.9,4.7c0,1.8-0.3,3.4-0.9,4.7
		c-0.6,1.3-1.4,2.3-2.4,3c-1,0.7-2.1,1-3.3,1C1093.7,1335.1,1092.6,1334.8,1091.6,1334.1z M1097.1,1332.5c0.7-0.5,1.3-1.3,1.7-2.3
		s0.6-2.3,0.6-3.7c0-1.5-0.2-2.7-0.6-3.7s-1-1.8-1.7-2.3c-0.7-0.5-1.5-0.8-2.3-0.8c-0.8,0-1.6,0.3-2.3,0.8c-0.7,0.5-1.3,1.3-1.7,2.3
		s-0.6,2.3-0.6,3.7c0,1.5,0.2,2.7,0.6,3.7s1,1.8,1.7,2.3s1.5,0.8,2.3,0.8C1095.7,1333.3,1096.4,1333.1,1097.1,1332.5z"/>
	<path class="st0" d="M1107.3,1334.9h-2l5.9-15h-8.4v-1.8h10.6v1.6L1107.3,1334.9z"/>
</g>
<g>
	<path class="st0" d="M1324.5,1334.9h-1.9v-16.8h1.9V1334.9z"/>
	<path class="st0" d="M1330.3,1334.9h-1.9v-16.8h3.2l7.6,14.5h0.5v-14.5h1.9v16.8h-3.2l-7.6-14.5h-0.5V1334.9z"/>
	<path class="st0" d="M1347.3,1334.9h-1.9v-16.8h10.6v1.8h-8.6v5.6h8.2v1.8h-8.2V1334.9z"/>
	<path class="st0" d="M1361.7,1334c-1.2-0.7-2.2-1.7-2.9-3.1c-0.7-1.3-1.1-2.8-1.1-4.5c0-1.7,0.4-3.2,1.1-4.5
		c0.7-1.3,1.7-2.3,2.9-3.1c1.2-0.7,2.6-1.1,4.1-1.1c1.5,0,2.8,0.4,4.1,1.1c1.2,0.7,2.2,1.7,2.9,3.1c0.7,1.3,1.1,2.8,1.1,4.5
		c0,1.7-0.4,3.2-1.1,4.5c-0.7,1.3-1.7,2.3-2.9,3.1c-1.2,0.7-2.6,1.1-4.1,1.1C1364.3,1335.1,1362.9,1334.8,1361.7,1334z
		 M1368.9,1332.5c0.9-0.6,1.7-1.4,2.2-2.4s0.8-2.2,0.8-3.6c0-1.3-0.3-2.5-0.8-3.6s-1.3-1.8-2.2-2.4s-2-0.9-3.1-0.9s-2.1,0.3-3.1,0.9
		s-1.7,1.4-2.2,2.4s-0.8,2.2-0.8,3.6c0,1.3,0.3,2.5,0.8,3.6s1.3,1.8,2.2,2.4s2,0.9,3.1,0.9S1367.9,1333,1368.9,1332.5z"/>
	<path class="st0" d="M1387.7,1334.9h-10.8v-16.8h10.8v1.8h-8.9v5.6h8.4v1.8h-8.4v5.8h8.9V1334.9z"/>
	<path class="st0" d="M1393.6,1334.1c-1-0.7-1.8-1.7-2.4-3c-0.6-1.3-0.9-2.9-0.9-4.7c0-1.8,0.3-3.4,0.9-4.7c0.6-1.3,1.4-2.3,2.4-3
		c1-0.7,2.1-1,3.3-1c1.2,0,2.3,0.3,3.3,1c1,0.7,1.8,1.7,2.4,3c0.6,1.3,0.9,2.9,0.9,4.7c0,1.8-0.3,3.4-0.9,4.7
		c-0.6,1.3-1.4,2.3-2.4,3c-1,0.7-2.1,1-3.3,1C1395.7,1335.1,1394.6,1334.8,1393.6,1334.1z M1399.1,1332.5c0.7-0.5,1.3-1.3,1.7-2.3
		s0.6-2.3,0.6-3.7c0-1.5-0.2-2.7-0.6-3.7s-1-1.8-1.7-2.3c-0.7-0.5-1.5-0.8-2.3-0.8c-0.8,0-1.6,0.3-2.3,0.8c-0.7,0.5-1.3,1.3-1.7,2.3
		s-0.6,2.3-0.6,3.7c0,1.5,0.2,2.7,0.6,3.7s1,1.8,1.7,2.3s1.5,0.8,2.3,0.8C1397.7,1333.3,1398.4,1333.1,1399.1,1332.5z"/>
	<path class="st0" d="M1408.5,1334.5c-0.8-0.4-1.5-1-1.9-1.8c-0.5-0.7-0.7-1.5-0.7-2.4c0-1,0.3-1.9,0.8-2.6c0.5-0.7,1.2-1.2,1.8-1.5
		v-0.1c-0.6-0.3-1.1-0.7-1.6-1.4s-0.7-1.4-0.7-2.2c0-0.9,0.2-1.7,0.7-2.4c0.4-0.7,1.1-1.3,1.8-1.7s1.7-0.6,2.7-0.6
		c1,0,1.9,0.2,2.7,0.6s1.4,1,1.8,1.7c0.4,0.7,0.7,1.5,0.7,2.4c0,0.8-0.2,1.6-0.7,2.2c-0.5,0.6-1,1.1-1.6,1.4v0.1
		c0.7,0.3,1.3,0.8,1.8,1.5c0.5,0.7,0.8,1.6,0.8,2.6c0,0.8-0.2,1.6-0.7,2.4c-0.5,0.7-1.1,1.3-1.9,1.8c-0.8,0.4-1.8,0.7-2.9,0.7
		S1409.3,1334.9,1408.5,1334.5z M1413.9,1332.4c0.7-0.6,1-1.3,1-2.2c0-0.9-0.3-1.6-1-2.2c-0.7-0.6-1.5-0.9-2.6-0.9
		c-1,0-1.9,0.3-2.6,0.9c-0.7,0.6-1,1.3-1,2.2c0,0.9,0.3,1.6,1,2.2c0.7,0.6,1.5,0.9,2.6,0.9C1412.4,1333.3,1413.2,1333,1413.9,1332.4
		z M1413.7,1324.6c0.6-0.6,0.9-1.2,0.9-2.1c0-0.8-0.3-1.5-0.9-2.1c-0.6-0.6-1.4-0.8-2.4-0.8s-1.8,0.3-2.4,0.8s-0.9,1.2-0.9,2.1
		c0,0.8,0.3,1.5,0.9,2.1c0.6,0.6,1.4,0.8,2.4,0.8S1413.1,1325.1,1413.7,1324.6z"/>
</g>
<g>
	<path class="st12" d="M1626.5,1334.9h-1.9v-16.8h1.9V1334.9z"/>
	<path class="st12" d="M1632.3,1334.9h-1.9v-16.8h3.2l7.6,14.5h0.5v-14.5h1.9v16.8h-3.2l-7.6-14.5h-0.5V1334.9z"/>
	<path class="st12" d="M1649.3,1334.9h-1.9v-16.8h10.6v1.8h-8.6v5.6h8.2v1.8h-8.2V1334.9z"/>
	<path class="st12" d="M1663.7,1334c-1.2-0.7-2.2-1.7-2.9-3.1c-0.7-1.3-1.1-2.8-1.1-4.5c0-1.7,0.4-3.2,1.1-4.5
		c0.7-1.3,1.7-2.3,2.9-3.1c1.2-0.7,2.6-1.1,4.1-1.1c1.5,0,2.8,0.4,4.1,1.1c1.2,0.7,2.2,1.7,2.9,3.1c0.7,1.3,1.1,2.8,1.1,4.5
		c0,1.7-0.4,3.2-1.1,4.5c-0.7,1.3-1.7,2.3-2.9,3.1c-1.2,0.7-2.6,1.1-4.1,1.1C1666.3,1335.1,1664.9,1334.8,1663.7,1334z
		 M1670.9,1332.5c0.9-0.6,1.7-1.4,2.2-2.4s0.8-2.2,0.8-3.6c0-1.3-0.3-2.5-0.8-3.6s-1.3-1.8-2.2-2.4s-2-0.9-3.1-0.9
		c-1.1,0-2.1,0.3-3.1,0.9s-1.7,1.4-2.2,2.4c-0.5,1-0.8,2.2-0.8,3.6c0,1.3,0.3,2.5,0.8,3.6c0.5,1,1.3,1.8,2.2,2.4s2,0.9,3.1,0.9
		C1668.9,1333.3,1669.9,1333,1670.9,1332.5z"/>
	<path class="st12" d="M1689.7,1334.9h-10.8v-16.8h10.8v1.8h-8.9v5.6h8.4v1.8h-8.4v5.8h8.9V1334.9z"/>
	<path class="st12" d="M1695.6,1334.1c-1-0.7-1.8-1.7-2.4-3c-0.6-1.3-0.9-2.9-0.9-4.7c0-1.8,0.3-3.4,0.9-4.7c0.6-1.3,1.4-2.3,2.4-3
		c1-0.7,2.1-1,3.3-1s2.3,0.3,3.3,1c1,0.7,1.8,1.7,2.4,3c0.6,1.3,0.9,2.9,0.9,4.7c0,1.8-0.3,3.4-0.9,4.7c-0.6,1.3-1.4,2.3-2.4,3
		c-1,0.7-2.1,1-3.3,1S1696.6,1334.8,1695.6,1334.1z M1701.1,1332.5c0.7-0.5,1.3-1.3,1.7-2.3s0.6-2.3,0.6-3.7c0-1.5-0.2-2.7-0.6-3.7
		s-1-1.8-1.7-2.3c-0.7-0.5-1.5-0.8-2.3-0.8c-0.8,0-1.6,0.3-2.3,0.8c-0.7,0.5-1.3,1.3-1.7,2.3s-0.6,2.3-0.6,3.7
		c0,1.5,0.2,2.7,0.6,3.7s1,1.8,1.7,2.3s1.5,0.8,2.3,0.8C1699.7,1333.3,1700.4,1333.1,1701.1,1332.5z"/>
	<path class="st12" d="M1710.7,1334.9l4-6.2h-0.1c-0.5,0.2-1,0.2-1.6,0.2c-1,0-1.9-0.2-2.7-0.7c-0.8-0.5-1.5-1.1-2-1.9
		s-0.7-1.7-0.7-2.8c0-1,0.3-2,0.8-2.8c0.5-0.9,1.2-1.5,2.1-2.1s1.8-0.8,2.9-0.8c1.1,0,2,0.3,2.9,0.8c0.9,0.5,1.6,1.2,2.1,2.1
		c0.5,0.9,0.8,1.8,0.8,2.8c0,0.6-0.1,1.1-0.3,1.8c-0.2,0.6-0.4,1.1-0.7,1.5l-5.3,8.2H1710.7z M1715.3,1326.8
		c0.6-0.3,1.1-0.8,1.4-1.4s0.5-1.2,0.5-1.9c0-0.7-0.2-1.4-0.5-1.9s-0.8-1.1-1.4-1.4s-1.2-0.5-1.9-0.5c-0.7,0-1.4,0.2-1.9,0.5
		s-1.1,0.8-1.4,1.4s-0.5,1.2-0.5,1.9c0,0.7,0.2,1.4,0.5,1.9s0.8,1.1,1.4,1.4c0.6,0.3,1.2,0.5,1.9,0.5
		C1714.1,1327.3,1714.7,1327.2,1715.3,1326.8z"/>
</g>
<g>
	<path class="st12" d="M1925.5,1334.9h-1.9v-16.8h1.9V1334.9z"/>
	<path class="st12" d="M1931.2,1334.9h-1.9v-16.8h3.2l7.6,14.5h0.5v-14.5h1.9v16.8h-3.2l-7.6-14.5h-0.5V1334.9z"/>
	<path class="st12" d="M1948.3,1334.9h-1.9v-16.8h10.6v1.8h-8.6v5.6h8.2v1.8h-8.2V1334.9z"/>
	<path class="st12" d="M1962.7,1334c-1.2-0.7-2.2-1.7-2.9-3.1c-0.7-1.3-1.1-2.8-1.1-4.5c0-1.7,0.4-3.2,1.1-4.5
		c0.7-1.3,1.7-2.3,2.9-3.1c1.2-0.7,2.6-1.1,4.1-1.1c1.5,0,2.8,0.4,4.1,1.1c1.2,0.7,2.2,1.7,2.9,3.1c0.7,1.3,1.1,2.8,1.1,4.5
		c0,1.7-0.4,3.2-1.1,4.5c-0.7,1.3-1.7,2.3-2.9,3.1c-1.2,0.7-2.6,1.1-4.1,1.1C1965.3,1335.1,1963.9,1334.8,1962.7,1334z
		 M1969.8,1332.5c0.9-0.6,1.7-1.4,2.2-2.4s0.8-2.2,0.8-3.6c0-1.3-0.3-2.5-0.8-3.6s-1.3-1.8-2.2-2.4c-0.9-0.6-2-0.9-3.1-0.9
		c-1.1,0-2.1,0.3-3.1,0.9c-0.9,0.6-1.7,1.4-2.2,2.4s-0.8,2.2-0.8,3.6c0,1.3,0.3,2.5,0.8,3.6s1.3,1.8,2.2,2.4c0.9,0.6,2,0.9,3.1,0.9
		C1967.9,1333.3,1968.9,1333,1969.8,1332.5z"/>
	<path class="st12" d="M1988.7,1334.9h-10.8v-16.8h10.8v1.8h-8.9v5.6h8.4v1.8h-8.4v5.8h8.9V1334.9z"/>
	<path class="st12" d="M1994.2,1334.9v-13.2h-3.6v-1.7h2.9c0.5,0,0.7-0.2,0.7-0.7v-1.2h1.9v16.8H1994.2z"/>
	<path class="st12" d="M2002.6,1334.1c-1-0.7-1.8-1.7-2.4-3c-0.6-1.3-0.9-2.9-0.9-4.7c0-1.8,0.3-3.4,0.9-4.7c0.6-1.3,1.4-2.3,2.4-3
		s2.1-1,3.3-1c1.2,0,2.3,0.3,3.3,1s1.8,1.7,2.4,3c0.6,1.3,0.9,2.9,0.9,4.7c0,1.8-0.3,3.4-0.9,4.7c-0.6,1.3-1.4,2.3-2.4,3
		c-1,0.7-2.1,1-3.3,1C2004.7,1335.1,2003.6,1334.8,2002.6,1334.1z M2008.1,1332.5c0.7-0.5,1.3-1.3,1.7-2.3s0.6-2.3,0.6-3.7
		c0-1.5-0.2-2.7-0.6-3.7s-1-1.8-1.7-2.3c-0.7-0.5-1.5-0.8-2.3-0.8s-1.6,0.3-2.3,0.8c-0.7,0.5-1.3,1.3-1.7,2.3s-0.6,2.3-0.6,3.7
		c0,1.5,0.2,2.7,0.6,3.7s1,1.8,1.7,2.3c0.7,0.5,1.5,0.8,2.3,0.8S2007.4,1333.1,2008.1,1332.5z"/>
</g>
<g>
	<path class="st0" d="M1023.8,37.8c-1.2-0.7-2.2-1.7-2.9-3.1c-0.7-1.3-1.1-2.8-1.1-4.5c0-1.7,0.4-3.2,1.1-4.5
		c0.7-1.3,1.7-2.3,2.9-3.1c1.2-0.7,2.6-1.1,4.1-1.1c1.8,0,3.4,0.5,4.7,1.5c1.3,1,2.2,2.4,2.7,4.1h-2c-0.4-1.2-1.1-2.1-2.1-2.8
		s-2.1-1-3.3-1c-1.1,0-2.1,0.3-3.1,0.9c-0.9,0.6-1.7,1.4-2.2,2.4s-0.8,2.2-0.8,3.6c0,1.3,0.3,2.5,0.8,3.6s1.3,1.8,2.2,2.4
		c0.9,0.6,2,0.9,3.1,0.9c1.3,0,2.4-0.3,3.3-1c1-0.7,1.6-1.7,2.1-2.9h2c-0.5,1.8-1.4,3.2-2.7,4.2c-1.3,1-2.9,1.5-4.7,1.5
		C1026.4,38.9,1025.1,38.5,1023.8,37.8z"/>
	<path class="st0" d="M1041.3,38.7h-3.2V21.9h1.9v14.5h0.5l7.6-14.5h3.2v16.8h-1.9V24.2h-0.5L1041.3,38.7z"/>
	<path class="st0" d="M1057,38.7h-1.9V21.9h1.9v7.4h9.4v-7.4h1.9v16.8h-1.9v-7.6h-9.4V38.7z"/>
	<path class="st0" d="M1075.4,38.7h-3.2V21.9h1.9v14.5h0.5l7.6-14.5h3.2v16.8h-1.9V24.2h-0.5L1075.4,38.7z"/>
	<path class="st0" d="M1092.4,38.7h-3.2V21.9h1.9v14.5h0.5l7.6-14.5h3.2v16.8h-1.9V24.2h-0.5L1092.4,38.7z M1093.5,19.1
		c-0.6-0.6-1-1.3-1-2.2h1.6c0.1,0.5,0.3,0.9,0.6,1.2c0.3,0.3,0.7,0.4,1.2,0.4c0.5,0,0.9-0.1,1.2-0.4c0.3-0.3,0.5-0.7,0.6-1.2h1.6
		c-0.1,0.9-0.4,1.6-1,2.2c-0.6,0.6-1.4,0.8-2.3,0.8S1094.1,19.7,1093.5,19.1z"/>
	<path class="st0" d="M1111.8,38.7V21.9h7.2c0.8,0,1.6,0.2,2.3,0.6s1.2,1,1.7,1.7c0.4,0.7,0.6,1.5,0.6,2.4c0,0.8-0.2,1.6-0.6,2.2
		s-0.8,1.1-1.2,1.4v0.1c0.5,0.2,1,0.7,1.4,1.3s0.6,1.4,0.6,2.4c0,0.9-0.2,1.7-0.6,2.4c-0.4,0.7-1,1.3-1.7,1.7s-1.5,0.6-2.3,0.6
		H1111.8z M1119,29.4c0.7,0,1.4-0.3,1.9-0.8s0.8-1.2,0.8-2.1s-0.3-1.5-0.8-2.1s-1.1-0.8-1.9-0.8h-5.3v5.8H1119z M1119.2,36.9
		c0.7,0,1.4-0.3,1.9-0.8c0.5-0.5,0.8-1.2,0.8-2.1s-0.3-1.5-0.8-2.1c-0.5-0.5-1.1-0.8-1.9-0.8h-5.5v5.8H1119.2z"/>
	<path class="st0" d="M1137.9,38.7h-10.8V21.9h10.8v1.8h-8.9v5.6h8.4v1.8h-8.4v5.8h8.9V38.7z"/>
	<path class="st0" d="M1143.8,37.9c-1-0.7-1.8-1.7-2.4-3c-0.6-1.3-0.9-2.9-0.9-4.7c0-1.8,0.3-3.4,0.9-4.7c0.6-1.3,1.4-2.3,2.4-3
		s2.1-1,3.3-1c1.2,0,2.3,0.3,3.3,1s1.8,1.7,2.4,3c0.6,1.3,0.9,2.9,0.9,4.7c0,1.8-0.3,3.4-0.9,4.7c-0.6,1.3-1.4,2.3-2.4,3
		c-1,0.7-2.1,1-3.3,1C1145.9,38.9,1144.8,38.6,1143.8,37.9z M1149.3,36.3c0.7-0.5,1.3-1.3,1.7-2.3s0.6-2.3,0.6-3.7
		c0-1.5-0.2-2.7-0.6-3.7s-1-1.8-1.7-2.3c-0.7-0.5-1.5-0.8-2.3-0.8s-1.6,0.3-2.3,0.8c-0.7,0.5-1.3,1.3-1.7,2.3s-0.6,2.3-0.6,3.7
		c0,1.5,0.2,2.7,0.6,3.7s1,1.8,1.7,2.3c0.7,0.5,1.5,0.8,2.3,0.8S1148.6,36.9,1149.3,36.3z"/>
	<path class="st0" d="M1155.7,38.7v-1.6l6.8-7.3c0.5-0.5,0.9-1,1.1-1.5c0.2-0.5,0.3-1,0.3-1.6c0-1-0.3-1.7-0.9-2.3
		c-0.6-0.6-1.4-0.9-2.3-0.9c-0.6,0-1.1,0.2-1.6,0.5c-0.5,0.3-0.9,0.7-1.2,1.3s-0.4,1.2-0.4,1.9h-1.9c0-1,0.2-1.9,0.7-2.8
		c0.4-0.8,1.1-1.5,1.8-1.9c0.8-0.5,1.7-0.7,2.7-0.7s1.9,0.2,2.7,0.6c0.8,0.4,1.4,1,1.8,1.8c0.4,0.8,0.7,1.6,0.7,2.6
		c0,0.9-0.2,1.7-0.5,2.4s-0.8,1.3-1.5,2l-5.4,5.6v0.1h7.8v1.8H1155.7z"/>
</g>
<g>
	<path class="st0" d="M1325.8,37.8c-1.2-0.7-2.2-1.7-2.9-3.1c-0.7-1.3-1.1-2.8-1.1-4.5c0-1.7,0.4-3.2,1.1-4.5
		c0.7-1.3,1.7-2.3,2.9-3.1c1.2-0.7,2.6-1.1,4.1-1.1c1.8,0,3.4,0.5,4.7,1.5c1.3,1,2.2,2.4,2.7,4.1h-2c-0.4-1.2-1.1-2.1-2.1-2.8
		s-2.1-1-3.3-1c-1.1,0-2.1,0.3-3.1,0.9c-0.9,0.6-1.7,1.4-2.2,2.4s-0.8,2.2-0.8,3.6c0,1.3,0.3,2.5,0.8,3.6s1.3,1.8,2.2,2.4
		c0.9,0.6,2,0.9,3.1,0.9c1.3,0,2.4-0.3,3.3-1c1-0.7,1.6-1.7,2.1-2.9h2c-0.5,1.8-1.4,3.2-2.7,4.2c-1.3,1-2.9,1.5-4.7,1.5
		C1328.4,38.9,1327.1,38.5,1325.8,37.8z"/>
	<path class="st0" d="M1343.3,38.7h-3.2V21.9h1.9v14.5h0.5l7.6-14.5h3.2v16.8h-1.9V24.2h-0.5L1343.3,38.7z"/>
	<path class="st0" d="M1359,38.7h-1.9V21.9h1.9v7.4h9.4v-7.4h1.9v16.8h-1.9v-7.6h-9.4V38.7z"/>
	<path class="st0" d="M1377.4,38.7h-3.2V21.9h1.9v14.5h0.5l7.6-14.5h3.2v16.8h-1.9V24.2h-0.5L1377.4,38.7z"/>
	<path class="st0" d="M1394.4,38.7h-3.2V21.9h1.9v14.5h0.5l7.6-14.5h3.2v16.8h-1.9V24.2h-0.5L1394.4,38.7z M1395.5,19.1
		c-0.6-0.6-1-1.3-1-2.2h1.6c0.1,0.5,0.3,0.9,0.6,1.2c0.3,0.3,0.7,0.4,1.2,0.4c0.5,0,0.9-0.1,1.2-0.4c0.3-0.3,0.5-0.7,0.6-1.2h1.6
		c-0.1,0.9-0.4,1.6-1,2.2s-1.4,0.8-2.3,0.8S1396.1,19.7,1395.5,19.1z"/>
	<path class="st0" d="M1413.8,38.7V21.9h7.2c0.8,0,1.6,0.2,2.3,0.6s1.2,1,1.7,1.7c0.4,0.7,0.6,1.5,0.6,2.4c0,0.8-0.2,1.6-0.6,2.2
		s-0.8,1.1-1.2,1.4v0.1c0.5,0.2,1,0.7,1.4,1.3s0.6,1.4,0.6,2.4c0,0.9-0.2,1.7-0.6,2.4c-0.4,0.7-1,1.3-1.7,1.7s-1.5,0.6-2.3,0.6
		H1413.8z M1421,29.4c0.7,0,1.4-0.3,1.9-0.8s0.8-1.2,0.8-2.1s-0.3-1.5-0.8-2.1s-1.1-0.8-1.9-0.8h-5.3v5.8H1421z M1421.2,36.9
		c0.7,0,1.4-0.3,1.9-0.8c0.5-0.5,0.8-1.2,0.8-2.1s-0.3-1.5-0.8-2.1c-0.5-0.5-1.1-0.8-1.9-0.8h-5.5v5.8H1421.2z"/>
	<path class="st0" d="M1439.9,38.7h-10.8V21.9h10.8v1.8h-8.9v5.6h8.4v1.8h-8.4v5.8h8.9V38.7z"/>
	<path class="st0" d="M1445.8,37.9c-1-0.7-1.8-1.7-2.4-3c-0.6-1.3-0.9-2.9-0.9-4.7c0-1.8,0.3-3.4,0.9-4.7c0.6-1.3,1.4-2.3,2.4-3
		s2.1-1,3.3-1c1.2,0,2.3,0.3,3.3,1s1.8,1.7,2.4,3c0.6,1.3,0.9,2.9,0.9,4.7c0,1.8-0.3,3.4-0.9,4.7c-0.6,1.3-1.4,2.3-2.4,3
		c-1,0.7-2.1,1-3.3,1C1447.9,38.9,1446.8,38.6,1445.8,37.9z M1451.3,36.3c0.7-0.5,1.3-1.3,1.7-2.3s0.6-2.3,0.6-3.7
		c0-1.5-0.2-2.7-0.6-3.7s-1-1.8-1.7-2.3c-0.7-0.5-1.5-0.8-2.3-0.8s-1.6,0.3-2.3,0.8c-0.7,0.5-1.3,1.3-1.7,2.3s-0.6,2.3-0.6,3.7
		c0,1.5,0.2,2.7,0.6,3.7s1,1.8,1.7,2.3c0.7,0.5,1.5,0.8,2.3,0.8S1450.6,36.9,1451.3,36.3z"/>
	<path class="st0" d="M1460.3,38.3c-0.8-0.4-1.5-1-1.9-1.7s-0.7-1.5-0.7-2.3h1.9c0,0.8,0.3,1.5,1,2.1c0.6,0.6,1.5,0.8,2.6,0.8
		c1.1,0,1.9-0.3,2.6-0.9s1-1.3,1-2.1c0-0.9-0.3-1.7-1-2.2s-1.5-0.9-2.6-0.9h-1.1v-1.8h1.1c1,0,1.9-0.3,2.5-0.8
		c0.6-0.6,0.9-1.3,0.9-2.1c0-0.5-0.1-1-0.4-1.4c-0.3-0.4-0.7-0.8-1.2-1c-0.5-0.3-1.1-0.4-1.8-0.4c-0.6,0-1.2,0.1-1.7,0.4
		c-0.5,0.3-0.9,0.6-1.2,1s-0.4,0.9-0.4,1.4h-1.9c0-0.8,0.2-1.5,0.7-2.2c0.4-0.7,1.1-1.3,1.9-1.7c0.8-0.4,1.7-0.6,2.7-0.6
		c1,0,1.9,0.2,2.7,0.6c0.8,0.4,1.4,1,1.9,1.7c0.4,0.7,0.7,1.5,0.7,2.4c0,0.9-0.3,1.7-0.8,2.4s-1.2,1.1-1.8,1.4v0.1
		c0.7,0.2,1.4,0.7,2,1.4s0.9,1.6,0.9,2.5c0,0.9-0.2,1.7-0.7,2.4c-0.5,0.7-1.1,1.3-2,1.7c-0.8,0.4-1.8,0.6-2.8,0.6
		C1462.1,38.9,1461.2,38.7,1460.3,38.3z"/>
</g>
<g>
	<path class="st0" d="M1630.7,38.7h-1.9v-15h-5.5v-1.8h13v1.8h-5.5V38.7z"/>
	<path class="st0" d="M1649.5,38.7h-10.8V21.9h10.8v1.8h-8.9v5.6h8.4v1.8h-8.4v5.8h8.9V38.7z"/>
	<path class="st0" d="M1654.7,38.7h-1.9V21.9h3.5l5.2,14.6h0.5l5.2-14.6h3.5v16.8h-1.9V24.4h-0.5l-5,14.3h-2.9l-5-14.3h-0.5V38.7z"
		/>
	<path class="st0" d="M1676.3,38.7h-1.9V21.9h1.9v7.4h9.4v-7.4h1.9v16.8h-1.9v-7.6h-9.4V38.7z"/>
	<path class="st0" d="M1694.7,37.8c-1.2-0.7-2.2-1.7-2.9-3.1c-0.7-1.3-1.1-2.8-1.1-4.5c0-1.7,0.4-3.2,1.1-4.5
		c0.7-1.3,1.7-2.3,2.9-3.1c1.2-0.7,2.6-1.1,4.1-1.1c1.5,0,2.8,0.4,4.1,1.1c1.2,0.7,2.2,1.7,2.9,3.1c0.7,1.3,1.1,2.8,1.1,4.5
		c0,1.7-0.4,3.2-1.1,4.5c-0.7,1.3-1.7,2.3-2.9,3.1c-1.2,0.7-2.6,1.1-4.1,1.1C1697.3,38.9,1695.9,38.5,1694.7,37.8z M1701.8,36.2
		c0.9-0.6,1.7-1.4,2.2-2.4s0.8-2.2,0.8-3.6c0-1.3-0.3-2.5-0.8-3.6s-1.3-1.8-2.2-2.4c-0.9-0.6-2-0.9-3.1-0.9c-1.1,0-2.1,0.3-3.1,0.9
		c-0.9,0.6-1.7,1.4-2.2,2.4s-0.8,2.2-0.8,3.6c0,1.3,0.3,2.5,0.8,3.6s1.3,1.8,2.2,2.4c0.9,0.6,2,0.9,3.1,0.9
		C1699.8,37.1,1700.9,36.8,1701.8,36.2z"/>
	<path class="st0" d="M1716.7,32.7h-7.7V31h7.7V32.7z"/>
	<path class="st0" d="M1723,37.8c-1.2-0.7-2.2-1.7-2.9-3.1c-0.7-1.3-1.1-2.8-1.1-4.5c0-1.7,0.4-3.2,1.1-4.5c0.7-1.3,1.7-2.3,2.9-3.1
		c1.2-0.7,2.6-1.1,4.1-1.1c1.8,0,3.4,0.5,4.7,1.5c1.3,1,2.2,2.4,2.7,4.1h-2c-0.4-1.2-1.1-2.1-2.1-2.8s-2.1-1-3.3-1
		c-1.1,0-2.1,0.3-3.1,0.9c-0.9,0.6-1.7,1.4-2.2,2.4s-0.8,2.2-0.8,3.6c0,1.3,0.3,2.5,0.8,3.6s1.3,1.8,2.2,2.4c0.9,0.6,2,0.9,3.1,0.9
		c1.3,0,2.4-0.3,3.3-1c1-0.7,1.6-1.7,2.1-2.9h2c-0.5,1.8-1.4,3.2-2.7,4.2c-1.3,1-2.9,1.5-4.7,1.5C1725.6,38.9,1724.2,38.5,1723,37.8
		z"/>
	<path class="st0" d="M1740.5,38.7h-3.2V21.9h1.9v14.5h0.5l7.6-14.5h3.2v16.8h-1.9V24.2h-0.5L1740.5,38.7z"/>
	<path class="st0" d="M1756.2,38.7h-1.9V21.9h1.9v7.4h9.4v-7.4h1.9v16.8h-1.9v-7.6h-9.4V38.7z"/>
	<path class="st0" d="M1774.6,38.7h-3.2V21.9h1.9v14.5h0.5l7.6-14.5h3.2v16.8h-1.9V24.2h-0.5L1774.6,38.7z"/>
	<path class="st0" d="M1791.6,38.7h-3.2V21.9h1.9v14.5h0.5l7.6-14.5h3.2v16.8h-1.9V24.2h-0.5L1791.6,38.7z M1792.7,19.1
		c-0.6-0.6-1-1.3-1-2.2h1.6c0.1,0.5,0.3,0.9,0.6,1.2c0.3,0.3,0.7,0.4,1.2,0.4s0.9-0.1,1.2-0.4c0.3-0.3,0.5-0.7,0.6-1.2h1.6
		c-0.1,0.9-0.4,1.6-1,2.2c-0.6,0.6-1.4,0.8-2.3,0.8S1793.3,19.7,1792.7,19.1z"/>
	<path class="st0" d="M1810.9,38.7V21.9h5.6c1.5,0,2.9,0.4,4.1,1.1c1.2,0.7,2.2,1.7,2.9,3c0.7,1.3,1,2.7,1,4.3c0,1.6-0.3,3.1-1,4.3
		c-0.7,1.3-1.6,2.3-2.9,3c-1.2,0.7-2.6,1.1-4.1,1.1H1810.9z M1816.6,36.9c1.2,0,2.2-0.3,3.1-0.8s1.7-1.3,2.2-2.3s0.8-2.1,0.8-3.4
		c0-1.3-0.3-2.4-0.8-3.4s-1.3-1.8-2.2-2.3s-2-0.8-3.1-0.8h-3.7v13.2H1816.6z"/>
	<path class="st0" d="M1827.7,38.7V21.9h7.2c0.8,0,1.6,0.2,2.3,0.6c0.7,0.4,1.2,1,1.7,1.7c0.4,0.7,0.6,1.5,0.6,2.4
		c0,0.8-0.2,1.6-0.6,2.2c-0.4,0.6-0.8,1.1-1.2,1.4v0.1c0.5,0.2,1,0.7,1.4,1.3s0.6,1.4,0.6,2.4c0,0.9-0.2,1.7-0.6,2.4
		c-0.4,0.7-1,1.3-1.7,1.7c-0.7,0.4-1.5,0.6-2.3,0.6H1827.7z M1834.9,29.4c0.7,0,1.4-0.3,1.9-0.8c0.5-0.5,0.8-1.2,0.8-2.1
		s-0.3-1.5-0.8-2.1c-0.5-0.5-1.1-0.8-1.9-0.8h-5.3v5.8H1834.9z M1835.2,36.9c0.7,0,1.4-0.3,1.9-0.8s0.8-1.2,0.8-2.1
		s-0.3-1.5-0.8-2.1s-1.1-0.8-1.9-0.8h-5.5v5.8H1835.2z"/>
	<path class="st0" d="M1845.7,37.9c-1-0.7-1.8-1.7-2.4-3c-0.6-1.3-0.9-2.9-0.9-4.7c0-1.8,0.3-3.4,0.9-4.7c0.6-1.3,1.4-2.3,2.4-3
		c1-0.7,2.1-1,3.3-1c1.2,0,2.3,0.3,3.3,1c1,0.7,1.8,1.7,2.4,3c0.6,1.3,0.9,2.9,0.9,4.7c0,1.8-0.3,3.4-0.9,4.7
		c-0.6,1.3-1.4,2.3-2.4,3c-1,0.7-2.1,1-3.3,1C1847.8,38.9,1846.7,38.6,1845.7,37.9z M1851.2,36.3c0.7-0.5,1.3-1.3,1.7-2.3
		s0.6-2.3,0.6-3.7c0-1.5-0.2-2.7-0.6-3.7s-1-1.8-1.7-2.3c-0.7-0.5-1.5-0.8-2.3-0.8c-0.8,0-1.6,0.3-2.3,0.8c-0.7,0.5-1.3,1.3-1.7,2.3
		s-0.6,2.3-0.6,3.7c0,1.5,0.2,2.7,0.6,3.7s1,1.8,1.7,2.3s1.5,0.8,2.3,0.8C1849.8,37.1,1850.5,36.9,1851.2,36.3z"/>
	<path class="st0" d="M1861,38.7V25.5h-3.6v-1.7h2.9c0.5,0,0.7-0.2,0.7-0.7v-1.2h1.9v16.8H1861z"/>
</g>
<rect x="1300" y="100" class="st13" width="300" height="100"/>
<g>
	<rect x="1000" y="100" class="st14" width="300" height="100"/>
	<g>
		<path class="st0" d="M1022.5,138.7h-1.9v-16.8h1.9v7.9l7.1-7.9h2.4l-7.4,8.3l7.9,8.5h-2.4l-7.5-8.2V138.7z"/>
		<path class="st0" d="M1033.9,138.7v-16.8h7.3c0.9,0,1.7,0.2,2.4,0.7s1.3,1.1,1.7,1.8c0.4,0.8,0.6,1.7,0.6,2.6c0,1-0.2,1.9-0.6,2.6
			s-1,1.4-1.7,1.8c-0.7,0.4-1.5,0.7-2.4,0.7h-5.4v6.5H1033.9z M1041.2,130.4c0.8,0,1.5-0.3,2-0.9s0.8-1.4,0.8-2.4s-0.3-1.8-0.8-2.4
			s-1.2-0.9-2-0.9h-5.4v6.7H1041.2z"/>
		<path class="st0" d="M1061.4,138.7h-2l-1.6-4.3h-8.3l-1.6,4.3h-2l6.4-16.8h2.9L1061.4,138.7z M1053.3,123.9l-3.2,8.6h7l-3.2-8.6
			H1053.3z"/>
		<path class="st0" d="M1066.1,137.8c-1.2-0.7-2.2-1.7-2.9-3.1c-0.7-1.3-1.1-2.8-1.1-4.5c0-1.7,0.4-3.2,1.1-4.5
			c0.7-1.3,1.7-2.3,2.9-3.1c1.2-0.7,2.6-1.1,4.1-1.1c1.8,0,3.4,0.5,4.7,1.5c1.3,1,2.2,2.4,2.7,4.1h-2c-0.4-1.2-1.1-2.1-2.1-2.8
			s-2.1-1-3.3-1c-1.1,0-2.1,0.3-3.1,0.9c-0.9,0.6-1.7,1.4-2.2,2.4s-0.8,2.2-0.8,3.6c0,1.3,0.3,2.5,0.8,3.6s1.3,1.8,2.2,2.4
			c0.9,0.6,2,0.9,3.1,0.9c1.3,0,2.4-0.3,3.3-1c1-0.7,1.6-1.7,2.1-2.9h2c-0.5,1.8-1.4,3.2-2.7,4.2c-1.3,1-2.9,1.5-4.7,1.5
			C1068.7,138.9,1067.3,138.5,1066.1,137.8z"/>
		<path class="st0" d="M1082.2,138.7h-1.9v-16.8h1.9v7.4h9.4v-7.4h1.9v16.8h-1.9v-7.6h-9.4V138.7z"/>
		<path class="st0" d="M1097.4,138.7v-16.8h1.9v6.2h4.6c0.9,0,1.7,0.2,2.5,0.7c0.8,0.5,1.3,1.1,1.8,1.9c0.4,0.8,0.6,1.7,0.6,2.7
			c0,1-0.2,1.9-0.6,2.7c-0.4,0.8-1,1.4-1.8,1.9c-0.8,0.5-1.6,0.7-2.5,0.7H1097.4z M1103.8,136.9c0.8,0,1.6-0.3,2.1-1
			c0.6-0.7,0.9-1.5,0.9-2.5s-0.3-1.8-0.9-2.5c-0.6-0.7-1.3-1-2.1-1h-4.6v7H1103.8z M1112.6,138.7h-1.9v-16.8h1.9V138.7z"/>
		<path class="st0" d="M1119.7,138.7h-3.2v-16.8h1.9v14.5h0.5l7.6-14.5h3.2v16.8h-1.9v-14.5h-0.5L1119.7,138.7z M1120.7,119.1
			c-0.6-0.6-1-1.3-1-2.2h1.6c0.1,0.5,0.3,0.9,0.6,1.2c0.3,0.3,0.7,0.4,1.2,0.4c0.5,0,0.9-0.1,1.2-0.4c0.3-0.3,0.5-0.7,0.6-1.2h1.6
			c-0.1,0.9-0.4,1.6-1,2.2s-1.4,0.8-2.3,0.8S1121.4,119.7,1120.7,119.1z"/>
		<path class="st0" d="M1144.7,132.2l6.7,6.5h-2.4l-6.7-6.5h-1.4v6.5h-1.9v-16.8h7.3c0.9,0,1.7,0.2,2.4,0.7c0.7,0.4,1.3,1.1,1.7,1.8
			c0.4,0.8,0.6,1.7,0.6,2.6c0,1-0.2,1.9-0.6,2.6c-0.4,0.8-1,1.4-1.7,1.8c-0.7,0.4-1.5,0.7-2.4,0.7H1144.7z M1140.9,130.4h5.4
			c0.8,0,1.5-0.3,2-0.9c0.6-0.6,0.8-1.4,0.8-2.4s-0.3-1.8-0.8-2.4c-0.6-0.6-1.2-0.9-2-0.9h-5.4V130.4z"/>
		<path class="st0" d="M1165.2,138.7h-10.8v-16.8h10.8v1.8h-8.9v5.6h8.4v1.8h-8.4v5.8h8.9V138.7z"/>
		<path class="st0" d="M1171,137.9c-1-0.7-1.8-1.7-2.4-3c-0.6-1.3-0.9-2.9-0.9-4.7c0-1.8,0.3-3.4,0.9-4.7c0.6-1.3,1.4-2.3,2.4-3
			s2.1-1,3.3-1c1.2,0,2.3,0.3,3.3,1s1.8,1.7,2.4,3c0.6,1.3,0.9,2.9,0.9,4.7c0,1.8-0.3,3.4-0.9,4.7c-0.6,1.3-1.4,2.3-2.4,3
			c-1,0.7-2.1,1-3.3,1C1173.1,138.9,1172,138.6,1171,137.9z M1176.6,136.3c0.7-0.5,1.3-1.3,1.7-2.3s0.6-2.3,0.6-3.7
			c0-1.5-0.2-2.7-0.6-3.7s-1-1.8-1.7-2.3c-0.7-0.5-1.5-0.8-2.3-0.8s-1.6,0.3-2.3,0.8c-0.7,0.5-1.3,1.3-1.7,2.3s-0.6,2.3-0.6,3.7
			c0,1.5,0.2,2.7,0.6,3.7s1,1.8,1.7,2.3c0.7,0.5,1.5,0.8,2.3,0.8S1175.9,136.9,1176.6,136.3z"/>
		<path class="st0" d="M1182.9,138.7v-1.6l6.8-7.3c0.5-0.5,0.9-1,1.1-1.5c0.2-0.5,0.3-1,0.3-1.6c0-1-0.3-1.7-0.9-2.3
			c-0.6-0.6-1.4-0.9-2.3-0.9c-0.6,0-1.1,0.2-1.6,0.5c-0.5,0.3-0.9,0.7-1.2,1.3s-0.4,1.2-0.4,1.9h-1.9c0-1,0.2-1.9,0.7-2.8
			c0.4-0.8,1.1-1.5,1.8-1.9c0.8-0.5,1.7-0.7,2.7-0.7s1.9,0.2,2.7,0.6c0.8,0.4,1.4,1,1.8,1.8c0.4,0.8,0.7,1.6,0.7,2.6
			c0,0.9-0.2,1.7-0.5,2.4s-0.8,1.3-1.5,2l-5.4,5.6v0.1h7.8v1.8H1182.9z"/>
	</g>
</g>
<g>
	<path class="st0" d="M1324.5,138.7h-1.9v-16.8h1.9v7.9l7.1-7.9h2.4l-7.4,8.3l7.9,8.5h-2.4l-7.5-8.2V138.7z"/>
	<path class="st0" d="M1335.9,138.7v-16.8h7.3c0.9,0,1.7,0.2,2.4,0.7c0.7,0.4,1.3,1.1,1.7,1.8c0.4,0.8,0.6,1.7,0.6,2.6
		c0,1-0.2,1.9-0.6,2.6c-0.4,0.8-1,1.4-1.7,1.8c-0.7,0.4-1.5,0.7-2.4,0.7h-5.4v6.5H1335.9z M1343.2,130.4c0.8,0,1.5-0.3,2-0.9
		c0.6-0.6,0.8-1.4,0.8-2.4s-0.3-1.8-0.8-2.4c-0.6-0.6-1.2-0.9-2-0.9h-5.4v6.7H1343.2z"/>
	<path class="st0" d="M1363.4,138.7h-2l-1.6-4.3h-8.3l-1.6,4.3h-2l6.4-16.8h2.9L1363.4,138.7z M1355.3,123.9l-3.2,8.6h7l-3.2-8.6
		H1355.3z"/>
	<path class="st0" d="M1368.1,137.8c-1.2-0.7-2.2-1.7-2.9-3.1c-0.7-1.3-1.1-2.8-1.1-4.5c0-1.7,0.4-3.2,1.1-4.5
		c0.7-1.3,1.7-2.3,2.9-3.1c1.2-0.7,2.6-1.1,4.1-1.1c1.8,0,3.4,0.5,4.7,1.5c1.3,1,2.2,2.4,2.7,4.1h-2c-0.4-1.2-1.1-2.1-2.1-2.8
		s-2.1-1-3.3-1c-1.1,0-2.1,0.3-3.1,0.9s-1.7,1.4-2.2,2.4s-0.8,2.2-0.8,3.6c0,1.3,0.3,2.5,0.8,3.6s1.3,1.8,2.2,2.4s2,0.9,3.1,0.9
		c1.3,0,2.4-0.3,3.3-1c1-0.7,1.6-1.7,2.1-2.9h2c-0.5,1.8-1.4,3.2-2.7,4.2c-1.3,1-2.9,1.5-4.7,1.5
		C1370.7,138.9,1369.3,138.5,1368.1,137.8z"/>
	<path class="st0" d="M1384.3,138.7h-1.9v-16.8h1.9v7.4h9.4v-7.4h1.9v16.8h-1.9v-7.6h-9.4V138.7z"/>
	<path class="st0" d="M1399.4,138.7v-16.8h1.9v6.2h4.6c0.9,0,1.7,0.2,2.5,0.7c0.8,0.5,1.3,1.1,1.8,1.9c0.4,0.8,0.6,1.7,0.6,2.7
		c0,1-0.2,1.9-0.6,2.7c-0.4,0.8-1,1.4-1.8,1.9c-0.8,0.5-1.6,0.7-2.5,0.7H1399.4z M1405.8,136.9c0.8,0,1.6-0.3,2.1-1
		c0.6-0.7,0.9-1.5,0.9-2.5s-0.3-1.8-0.9-2.5c-0.6-0.7-1.3-1-2.1-1h-4.6v7H1405.8z M1414.6,138.7h-1.9v-16.8h1.9V138.7z"/>
	<path class="st0" d="M1421.7,138.7h-3.2v-16.8h1.9v14.5h0.5l7.6-14.5h3.2v16.8h-1.9v-14.5h-0.5L1421.7,138.7z M1422.7,119.1
		c-0.6-0.6-1-1.3-1-2.2h1.6c0.1,0.5,0.3,0.9,0.6,1.2c0.3,0.3,0.7,0.4,1.2,0.4c0.5,0,0.9-0.1,1.2-0.4c0.3-0.3,0.5-0.7,0.6-1.2h1.6
		c-0.1,0.9-0.4,1.6-1,2.2s-1.4,0.8-2.3,0.8S1423.4,119.7,1422.7,119.1z"/>
	<path class="st0" d="M1446.7,132.2l6.7,6.5h-2.4l-6.7-6.5h-1.4v6.5h-1.9v-16.8h7.3c0.9,0,1.7,0.2,2.4,0.7c0.7,0.4,1.3,1.1,1.7,1.8
		c0.4,0.8,0.6,1.7,0.6,2.6c0,1-0.2,1.9-0.6,2.6c-0.4,0.8-1,1.4-1.7,1.8c-0.7,0.4-1.5,0.7-2.4,0.7H1446.7z M1442.9,130.4h5.4
		c0.8,0,1.5-0.3,2-0.9c0.6-0.6,0.8-1.4,0.8-2.4s-0.3-1.8-0.8-2.4c-0.6-0.6-1.2-0.9-2-0.9h-5.4V130.4z"/>
	<path class="st0" d="M1467.2,138.7h-10.8v-16.8h10.8v1.8h-8.9v5.6h8.4v1.8h-8.4v5.8h8.9V138.7z"/>
	<path class="st0" d="M1473,137.9c-1-0.7-1.8-1.7-2.4-3c-0.6-1.3-0.9-2.9-0.9-4.7c0-1.8,0.3-3.4,0.9-4.7c0.6-1.3,1.4-2.3,2.4-3
		s2.1-1,3.3-1c1.2,0,2.3,0.3,3.3,1s1.8,1.7,2.4,3c0.6,1.3,0.9,2.9,0.9,4.7c0,1.8-0.3,3.4-0.9,4.7c-0.6,1.3-1.4,2.3-2.4,3
		c-1,0.7-2.1,1-3.3,1C1475.1,138.9,1474,138.6,1473,137.9z M1478.6,136.3c0.7-0.5,1.3-1.3,1.7-2.3s0.6-2.3,0.6-3.7
		c0-1.5-0.2-2.7-0.6-3.7s-1-1.8-1.7-2.3c-0.7-0.5-1.5-0.8-2.3-0.8s-1.6,0.3-2.3,0.8c-0.7,0.5-1.3,1.3-1.7,2.3s-0.6,2.3-0.6,3.7
		c0,1.5,0.2,2.7,0.6,3.7s1,1.8,1.7,2.3c0.7,0.5,1.5,0.8,2.3,0.8S1477.9,136.9,1478.6,136.3z"/>
	<path class="st0" d="M1487.6,138.3c-0.8-0.4-1.5-1-1.9-1.7s-0.7-1.5-0.7-2.3h1.9c0,0.8,0.3,1.5,1,2.1c0.6,0.6,1.5,0.8,2.6,0.8
		c1.1,0,1.9-0.3,2.6-0.9s1-1.3,1-2.1c0-0.9-0.3-1.7-1-2.2s-1.5-0.9-2.6-0.9h-1.1v-1.8h1.1c1,0,1.9-0.3,2.5-0.8
		c0.6-0.6,0.9-1.3,0.9-2.1c0-0.5-0.1-1-0.4-1.4c-0.3-0.4-0.7-0.8-1.2-1c-0.5-0.3-1.1-0.4-1.8-0.4c-0.6,0-1.2,0.1-1.7,0.4
		c-0.5,0.3-0.9,0.6-1.2,1s-0.4,0.9-0.4,1.4h-1.9c0-0.8,0.2-1.5,0.7-2.2c0.4-0.7,1.1-1.3,1.9-1.7c0.8-0.4,1.7-0.6,2.7-0.6
		c1,0,1.9,0.2,2.7,0.6c0.8,0.4,1.4,1,1.9,1.7c0.4,0.7,0.7,1.5,0.7,2.4c0,0.9-0.3,1.7-0.8,2.4s-1.2,1.1-1.8,1.4v0.1
		c0.7,0.2,1.4,0.7,2,1.4s0.9,1.6,0.9,2.5c0,0.9-0.2,1.7-0.7,2.4c-0.5,0.7-1.1,1.3-2,1.7c-0.8,0.4-1.8,0.6-2.8,0.6
		C1489.4,138.9,1488.4,138.7,1487.6,138.3z"/>
</g>
<rect x="1300" y="200" class="st15" width="300" height="100"/>
<rect x="1000" y="200" class="st16" width="300" height="100"/>
<g>
	<path class="st0" d="M1022.4,238.3c-0.9-0.4-1.6-1-2.1-1.7c-0.5-0.7-0.7-1.5-0.7-2.4h1.9c0,0.5,0.2,1,0.5,1.5
		c0.3,0.5,0.8,0.8,1.4,1.1c0.6,0.3,1.4,0.4,2.3,0.4c0.8,0,1.6-0.1,2.2-0.4c0.6-0.3,1.1-0.6,1.5-1.1c0.3-0.5,0.5-0.9,0.5-1.5
		c0-0.5-0.2-1-0.5-1.5c-0.3-0.5-0.7-0.8-1.3-1.1c-0.5-0.3-1.2-0.4-1.9-0.4h-1.7v-1.8h1.7c0.9,0,1.7-0.3,2.3-0.8
		c0.6-0.6,0.9-1.2,0.9-2c0-0.9-0.3-1.6-1-2.1c-0.7-0.6-1.6-0.9-2.8-0.9c-0.8,0-1.4,0.1-2,0.4c-0.6,0.3-1,0.6-1.3,1.1
		s-0.5,0.9-0.5,1.5h-1.9c0-0.9,0.2-1.7,0.7-2.4c0.5-0.7,1.1-1.3,2-1.7c0.9-0.4,1.9-0.6,3.1-0.6c1.2,0,2.2,0.2,3,0.7s1.6,1,2,1.8
		c0.5,0.7,0.7,1.5,0.7,2.4c0,1-0.3,1.8-0.8,2.4c-0.5,0.7-1.2,1.1-1.8,1.3v0.1c0.8,0.2,1.5,0.7,2.1,1.3c0.6,0.7,0.9,1.5,0.9,2.5
		c0,0.9-0.2,1.7-0.7,2.4c-0.5,0.7-1.2,1.3-2.1,1.7c-0.9,0.4-2,0.6-3.3,0.6S1023.3,238.7,1022.4,238.3z"/>
	<path class="st0" d="M1045.6,238.7h-10.8v-16.8h10.8v1.8h-8.9v5.6h8.4v1.8h-8.4v5.8h8.9V238.7z"/>
	<path class="st0" d="M1047.2,238.8v-1.9h0.8c0.5,0,0.9-0.2,1.2-0.5c0.3-0.3,0.5-0.8,0.6-1.4l1.1-13.1h10.4v16.8h-1.9v-15h-6.7
		l-1,11.3c-0.1,1.3-0.5,2.3-1.1,2.9c-0.6,0.6-1.5,0.9-2.6,0.9H1047.2z"/>
	<path class="st0" d="M1076,238.7h-10.8v-16.8h10.8v1.8h-8.9v5.6h8.4v1.8h-8.4v5.8h8.9V238.7z"/>
	<path class="st0" d="M1081.2,238.7h-1.9v-16.8h1.9v7.4h9.4v-7.4h1.9v16.8h-1.9v-7.6h-9.4V238.7z"/>
	<path class="st0" d="M1096.3,238.7v-16.8h1.9v6.2h4.6c0.9,0,1.7,0.2,2.5,0.7c0.8,0.5,1.3,1.1,1.8,1.9c0.4,0.8,0.6,1.7,0.6,2.7
		c0,1-0.2,1.9-0.6,2.7c-0.4,0.8-1,1.4-1.8,1.9c-0.8,0.5-1.6,0.7-2.5,0.7H1096.3z M1102.8,236.9c0.8,0,1.6-0.3,2.1-1
		c0.6-0.7,0.9-1.5,0.9-2.5s-0.3-1.8-0.9-2.5c-0.6-0.7-1.3-1-2.1-1h-4.6v7H1102.8z M1111.5,238.7h-1.9v-16.8h1.9V238.7z"/>
	<path class="st0" d="M1118.6,238.7h-3.2v-16.8h1.9v14.5h0.5l7.6-14.5h3.2v16.8h-1.9v-14.5h-0.5L1118.6,238.7z M1119.7,219.1
		c-0.6-0.6-1-1.3-1-2.2h1.6c0.1,0.5,0.3,0.9,0.6,1.2c0.3,0.3,0.7,0.4,1.2,0.4s0.9-0.1,1.2-0.4c0.3-0.3,0.5-0.7,0.6-1.2h1.6
		c-0.1,0.9-0.4,1.6-1,2.2c-0.6,0.6-1.4,0.8-2.3,0.8S1120.3,219.7,1119.7,219.1z"/>
	<path class="st0" d="M1145.8,230h7v8.6h-1.6l-0.2-2.4h-0.1c-0.5,0.7-1.3,1.3-2.3,1.8c-1,0.5-2.1,0.8-3.3,0.8
		c-1.5,0-2.8-0.4-4.1-1.1c-1.2-0.7-2.2-1.7-2.9-3.1c-0.7-1.3-1.1-2.8-1.1-4.5c0-1.7,0.4-3.2,1.1-4.5c0.7-1.3,1.7-2.3,2.9-3.1
		c1.2-0.7,2.6-1.1,4.1-1.1c1.7,0,3.2,0.5,4.6,1.4s2.3,2.2,2.8,3.8h-2c-0.5-1.1-1.2-1.9-2.2-2.5c-1-0.6-2.1-0.9-3.2-0.9
		c-1.1,0-2.1,0.3-3.1,0.9c-0.9,0.6-1.7,1.4-2.2,2.4s-0.8,2.2-0.8,3.6c0,1.3,0.3,2.5,0.8,3.6s1.3,1.8,2.2,2.4c0.9,0.6,2,0.9,3.1,0.9
		c1,0,1.9-0.2,2.8-0.7s1.6-1.1,2.1-1.9s0.8-1.6,0.8-2.5v-0.2h-5V230z"/>
	<path class="st0" d="M1167.2,238.7h-10.8v-16.8h10.8v1.8h-8.9v5.6h8.4v1.8h-8.4v5.8h8.9V238.7z"/>
	<path class="st0" d="M1173.1,237.9c-1-0.7-1.8-1.7-2.4-3c-0.6-1.3-0.9-2.9-0.9-4.7c0-1.8,0.3-3.4,0.9-4.7c0.6-1.3,1.4-2.3,2.4-3
		s2.1-1,3.3-1c1.2,0,2.3,0.3,3.3,1s1.8,1.7,2.4,3c0.6,1.3,0.9,2.9,0.9,4.7c0,1.8-0.3,3.4-0.9,4.7c-0.6,1.3-1.4,2.3-2.4,3
		c-1,0.7-2.1,1-3.3,1C1175.1,238.9,1174.1,238.6,1173.1,237.9z M1178.6,236.3c0.7-0.5,1.3-1.3,1.7-2.3s0.6-2.3,0.6-3.7
		c0-1.5-0.2-2.7-0.6-3.7s-1-1.8-1.7-2.3c-0.7-0.5-1.5-0.8-2.3-0.8s-1.6,0.3-2.3,0.8c-0.7,0.5-1.3,1.3-1.7,2.3s-0.6,2.3-0.6,3.7
		c0,1.5,0.2,2.7,0.6,3.7s1,1.8,1.7,2.3c0.7,0.5,1.5,0.8,2.3,0.8S1177.9,236.9,1178.6,236.3z"/>
	<path class="st0" d="M1185,238.7v-1.6l6.8-7.3c0.5-0.5,0.9-1,1.1-1.5c0.2-0.5,0.3-1,0.3-1.6c0-1-0.3-1.7-0.9-2.3
		c-0.6-0.6-1.4-0.9-2.3-0.9c-0.6,0-1.1,0.2-1.6,0.5c-0.5,0.3-0.9,0.7-1.2,1.3s-0.4,1.2-0.4,1.9h-1.9c0-1,0.2-1.9,0.7-2.8
		c0.4-0.8,1.1-1.5,1.8-1.9c0.8-0.5,1.7-0.7,2.7-0.7s1.9,0.2,2.7,0.6c0.8,0.4,1.4,1,1.8,1.8c0.4,0.8,0.7,1.6,0.7,2.6
		c0,0.9-0.2,1.7-0.5,2.4s-0.8,1.3-1.5,2l-5.4,5.6v0.1h7.8v1.8H1185z"/>
</g>
<rect x="700" class="st17" width="300" height="100"/>
<g>
	<path class="st12" d="M723.8,37.8c-1.2-0.7-2.2-1.7-2.9-3.1c-0.7-1.3-1.1-2.8-1.1-4.5c0-1.7,0.4-3.2,1.1-4.5
		c0.7-1.3,1.7-2.3,2.9-3.1c1.2-0.7,2.6-1.1,4.1-1.1c1.8,0,3.4,0.5,4.7,1.5c1.3,1,2.2,2.4,2.7,4.1h-2c-0.4-1.2-1.1-2.1-2.1-2.8
		s-2.1-1-3.3-1c-1.1,0-2.1,0.3-3.1,0.9c-0.9,0.6-1.7,1.4-2.2,2.4s-0.8,2.2-0.8,3.6c0,1.3,0.3,2.5,0.8,3.6s1.3,1.8,2.2,2.4
		c0.9,0.6,2,0.9,3.1,0.9c1.3,0,2.4-0.3,3.3-1c1-0.7,1.6-1.7,2.1-2.9h2c-0.5,1.8-1.4,3.2-2.7,4.2c-1.3,1-2.9,1.5-4.7,1.5
		C726.4,38.9,725.1,38.5,723.8,37.8z"/>
	<path class="st12" d="M741.3,38.7h-3.2V21.9h1.9v14.5h0.5l7.6-14.5h3.2v16.8h-1.9V24.2h-0.5L741.3,38.7z"/>
	<path class="st12" d="M757,38.7h-1.9V21.9h1.9v7.4h9.4v-7.4h1.9v16.8h-1.9v-7.6H757V38.7z"/>
	<path class="st12" d="M775.4,38.7h-3.2V21.9h1.9v14.5h0.5l7.6-14.5h3.2v16.8h-1.9V24.2H783L775.4,38.7z"/>
	<path class="st12" d="M792.4,38.7h-3.2V21.9h1.9v14.5h0.5l7.6-14.5h3.2v16.8h-1.9V24.2H800L792.4,38.7z M793.5,19.1
		c-0.6-0.6-1-1.3-1-2.2h1.6c0.1,0.5,0.3,0.9,0.6,1.2c0.3,0.3,0.7,0.4,1.2,0.4c0.5,0,0.9-0.1,1.2-0.4c0.3-0.3,0.5-0.7,0.6-1.2h1.6
		c-0.1,0.9-0.4,1.6-1,2.2c-0.6,0.6-1.4,0.8-2.3,0.8S794.1,19.7,793.5,19.1z"/>
	<path class="st12" d="M811.8,38.7V21.9h7.2c0.8,0,1.6,0.2,2.3,0.6c0.7,0.4,1.2,1,1.7,1.7c0.4,0.7,0.6,1.5,0.6,2.4
		c0,0.8-0.2,1.6-0.6,2.2c-0.4,0.6-0.8,1.1-1.2,1.4v0.1c0.5,0.2,1,0.7,1.4,1.3s0.6,1.4,0.6,2.4c0,0.9-0.2,1.7-0.6,2.4
		c-0.4,0.7-1,1.3-1.7,1.7c-0.7,0.4-1.5,0.6-2.3,0.6H811.8z M819,29.4c0.7,0,1.4-0.3,1.9-0.8c0.5-0.5,0.8-1.2,0.8-2.1
		s-0.3-1.5-0.8-2.1c-0.5-0.5-1.1-0.8-1.9-0.8h-5.3v5.8H819z M819.2,36.9c0.7,0,1.4-0.3,1.9-0.8c0.5-0.5,0.8-1.2,0.8-2.1
		s-0.3-1.5-0.8-2.1c-0.5-0.5-1.1-0.8-1.9-0.8h-5.5v5.8H819.2z"/>
	<path class="st12" d="M837.9,38.7h-10.8V21.9h10.8v1.8H829v5.6h8.4v1.8H829v5.8h8.9V38.7z"/>
	<path class="st12" d="M843.8,37.9c-1-0.7-1.8-1.7-2.4-3c-0.6-1.3-0.9-2.9-0.9-4.7c0-1.8,0.3-3.4,0.9-4.7c0.6-1.3,1.4-2.3,2.4-3
		c1-0.7,2.1-1,3.3-1s2.3,0.3,3.3,1c1,0.7,1.8,1.7,2.4,3c0.6,1.3,0.9,2.9,0.9,4.7c0,1.8-0.3,3.4-0.9,4.7c-0.6,1.3-1.4,2.3-2.4,3
		c-1,0.7-2.1,1-3.3,1S844.8,38.6,843.8,37.9z M849.3,36.3c0.7-0.5,1.3-1.3,1.7-2.3s0.6-2.3,0.6-3.7c0-1.5-0.2-2.7-0.6-3.7
		s-1-1.8-1.7-2.3c-0.7-0.5-1.5-0.8-2.3-0.8c-0.8,0-1.6,0.3-2.3,0.8c-0.7,0.5-1.3,1.3-1.7,2.3s-0.6,2.3-0.6,3.7
		c0,1.5,0.2,2.7,0.6,3.7s1,1.8,1.7,2.3c0.7,0.5,1.5,0.8,2.3,0.8C847.9,37.1,848.6,36.9,849.3,36.3z"/>
	<path class="st12" d="M859,38.7V25.5h-3.6v-1.7h2.9c0.5,0,0.7-0.2,0.7-0.7v-1.2h1.9v16.8H859z"/>
</g>
<rect x="700" y="100" class="st18" width="300" height="100"/>
<g>
	<path class="st12" d="M722.5,138.7h-1.9v-16.8h1.9v7.9l7.1-7.9h2.4l-7.4,8.3l7.9,8.5H730l-7.5-8.2V138.7z"/>
	<path class="st12" d="M733.9,138.7v-16.8h7.3c0.9,0,1.7,0.2,2.4,0.7s1.3,1.1,1.7,1.8c0.4,0.8,0.6,1.7,0.6,2.6c0,1-0.2,1.9-0.6,2.6
		s-1,1.4-1.7,1.8c-0.7,0.4-1.5,0.7-2.4,0.7h-5.4v6.5H733.9z M741.2,130.4c0.8,0,1.5-0.3,2-0.9s0.8-1.4,0.8-2.4s-0.3-1.8-0.8-2.4
		s-1.2-0.9-2-0.9h-5.4v6.7H741.2z"/>
	<path class="st12" d="M761.4,138.7h-2l-1.6-4.3h-8.3l-1.6,4.3h-2l6.4-16.8h2.9L761.4,138.7z M753.3,123.9l-3.2,8.6h7l-3.2-8.6
		H753.3z"/>
	<path class="st12" d="M766.1,137.8c-1.2-0.7-2.2-1.7-2.9-3.1c-0.7-1.3-1.1-2.8-1.1-4.5c0-1.7,0.4-3.2,1.1-4.5
		c0.7-1.3,1.7-2.3,2.9-3.1c1.2-0.7,2.6-1.1,4.1-1.1c1.8,0,3.4,0.5,4.7,1.5c1.3,1,2.2,2.4,2.7,4.1h-2c-0.4-1.2-1.1-2.1-2.1-2.8
		s-2.1-1-3.3-1c-1.1,0-2.1,0.3-3.1,0.9c-0.9,0.6-1.7,1.4-2.2,2.4s-0.8,2.2-0.8,3.6c0,1.3,0.3,2.5,0.8,3.6s1.3,1.8,2.2,2.4
		c0.9,0.6,2,0.9,3.1,0.9c1.3,0,2.4-0.3,3.3-1c1-0.7,1.6-1.7,2.1-2.9h2c-0.5,1.8-1.4,3.2-2.7,4.2c-1.3,1-2.9,1.5-4.7,1.5
		C768.7,138.9,767.3,138.5,766.1,137.8z"/>
	<path class="st12" d="M782.2,138.7h-1.9v-16.8h1.9v7.4h9.4v-7.4h1.9v16.8h-1.9v-7.6h-9.4V138.7z"/>
	<path class="st12" d="M797.4,138.7v-16.8h1.9v6.2h4.6c0.9,0,1.7,0.2,2.5,0.7c0.8,0.5,1.3,1.1,1.8,1.9c0.4,0.8,0.6,1.7,0.6,2.7
		c0,1-0.2,1.9-0.6,2.7c-0.4,0.8-1,1.4-1.8,1.9c-0.8,0.5-1.6,0.7-2.5,0.7H797.4z M803.8,136.9c0.8,0,1.6-0.3,2.1-1
		c0.6-0.7,0.9-1.5,0.9-2.5s-0.3-1.8-0.9-2.5c-0.6-0.7-1.3-1-2.1-1h-4.6v7H803.8z M812.6,138.7h-1.9v-16.8h1.9V138.7z"/>
	<path class="st12" d="M819.7,138.7h-3.2v-16.8h1.9v14.5h0.5l7.6-14.5h3.2v16.8h-1.9v-14.5h-0.5L819.7,138.7z M820.7,119.1
		c-0.6-0.6-1-1.3-1-2.2h1.6c0.1,0.5,0.3,0.9,0.6,1.2c0.3,0.3,0.7,0.4,1.2,0.4c0.5,0,0.9-0.1,1.2-0.4c0.3-0.3,0.5-0.7,0.6-1.2h1.6
		c-0.1,0.9-0.4,1.6-1,2.2c-0.6,0.6-1.4,0.8-2.3,0.8S821.4,119.7,820.7,119.1z"/>
	<path class="st12" d="M844.7,132.2l6.7,6.5h-2.4l-6.7-6.5h-1.4v6.5H839v-16.8h7.3c0.9,0,1.7,0.2,2.4,0.7s1.3,1.1,1.7,1.8
		c0.4,0.8,0.6,1.7,0.6,2.6c0,1-0.2,1.9-0.6,2.6s-1,1.4-1.7,1.8c-0.7,0.4-1.5,0.7-2.4,0.7H844.7z M840.9,130.4h5.4
		c0.8,0,1.5-0.3,2-0.9s0.8-1.4,0.8-2.4s-0.3-1.8-0.8-2.4s-1.2-0.9-2-0.9h-5.4V130.4z"/>
	<path class="st12" d="M865.2,138.7h-10.8v-16.8h10.8v1.8h-8.9v5.6h8.4v1.8h-8.4v5.8h8.9V138.7z"/>
	<path class="st12" d="M871,137.9c-1-0.7-1.8-1.7-2.4-3c-0.6-1.3-0.9-2.9-0.9-4.7c0-1.8,0.3-3.4,0.9-4.7c0.6-1.3,1.4-2.3,2.4-3
		c1-0.7,2.1-1,3.3-1s2.3,0.3,3.3,1c1,0.7,1.8,1.7,2.4,3c0.6,1.3,0.9,2.9,0.9,4.7c0,1.8-0.3,3.4-0.9,4.7c-0.6,1.3-1.4,2.3-2.4,3
		c-1,0.7-2.1,1-3.3,1S872,138.6,871,137.9z M876.6,136.3c0.7-0.5,1.3-1.3,1.7-2.3s0.6-2.3,0.6-3.7c0-1.5-0.2-2.7-0.6-3.7
		s-1-1.8-1.7-2.3c-0.7-0.5-1.5-0.8-2.3-0.8c-0.8,0-1.6,0.3-2.3,0.8c-0.7,0.5-1.3,1.3-1.7,2.3s-0.6,2.3-0.6,3.7
		c0,1.5,0.2,2.7,0.6,3.7s1,1.8,1.7,2.3c0.7,0.5,1.5,0.8,2.3,0.8C875.1,137.1,875.9,136.9,876.6,136.3z"/>
	<path class="st12" d="M886.3,138.7v-13.2h-3.6v-1.7h2.9c0.5,0,0.7-0.2,0.7-0.7v-1.2h1.9v16.8H886.3z"/>
</g>
<rect x="700" y="200" class="st19" width="300" height="100"/>
<g>
	<path class="st12" d="M722.4,238.3c-0.9-0.4-1.6-1-2.1-1.7c-0.5-0.7-0.7-1.5-0.7-2.4h1.9c0,0.5,0.2,1,0.5,1.5
		c0.3,0.5,0.8,0.8,1.4,1.1c0.6,0.3,1.4,0.4,2.3,0.4c0.8,0,1.6-0.1,2.2-0.4c0.6-0.3,1.1-0.6,1.5-1.1c0.3-0.5,0.5-0.9,0.5-1.5
		c0-0.5-0.2-1-0.5-1.5c-0.3-0.5-0.7-0.8-1.3-1.1c-0.5-0.3-1.2-0.4-1.9-0.4h-1.7v-1.8h1.7c0.9,0,1.7-0.3,2.3-0.8
		c0.6-0.6,0.9-1.2,0.9-2c0-0.9-0.3-1.6-1-2.1c-0.7-0.6-1.6-0.9-2.8-0.9c-0.8,0-1.4,0.1-2,0.4c-0.6,0.3-1,0.6-1.3,1.1
		s-0.5,0.9-0.5,1.5h-1.9c0-0.9,0.2-1.7,0.7-2.4c0.5-0.7,1.1-1.3,2-1.7c0.9-0.4,1.9-0.6,3.1-0.6c1.2,0,2.2,0.2,3,0.7s1.6,1,2,1.8
		c0.5,0.7,0.7,1.5,0.7,2.4c0,1-0.3,1.8-0.8,2.4c-0.5,0.7-1.2,1.1-1.8,1.3v0.1c0.8,0.2,1.5,0.7,2.1,1.3c0.6,0.7,0.9,1.5,0.9,2.5
		c0,0.9-0.2,1.7-0.7,2.4c-0.5,0.7-1.2,1.3-2.1,1.7c-0.9,0.4-2,0.6-3.3,0.6S723.3,238.7,722.4,238.3z"/>
	<path class="st12" d="M745.6,238.7h-10.8v-16.8h10.8v1.8h-8.9v5.6h8.4v1.8h-8.4v5.8h8.9V238.7z"/>
	<path class="st12" d="M747.2,238.8v-1.9h0.8c0.5,0,0.9-0.2,1.2-0.5c0.3-0.3,0.5-0.8,0.6-1.4l1.1-13.1h10.4v16.8h-1.9v-15h-6.7
		l-1,11.3c-0.1,1.3-0.5,2.3-1.1,2.9c-0.6,0.6-1.5,0.9-2.6,0.9H747.2z"/>
	<path class="st12" d="M776,238.7h-10.8v-16.8H776v1.8h-8.9v5.6h8.4v1.8h-8.4v5.8h8.9V238.7z"/>
	<path class="st12" d="M781.2,238.7h-1.9v-16.8h1.9v7.4h9.4v-7.4h1.9v16.8h-1.9v-7.6h-9.4V238.7z"/>
	<path class="st12" d="M796.3,238.7v-16.8h1.9v6.2h4.6c0.9,0,1.7,0.2,2.5,0.7c0.8,0.5,1.3,1.1,1.8,1.9c0.4,0.8,0.6,1.7,0.6,2.7
		c0,1-0.2,1.9-0.6,2.7c-0.4,0.8-1,1.4-1.8,1.9c-0.8,0.5-1.6,0.7-2.5,0.7H796.3z M802.8,236.9c0.8,0,1.6-0.3,2.1-1
		c0.6-0.7,0.9-1.5,0.9-2.5s-0.3-1.8-0.9-2.5c-0.6-0.7-1.3-1-2.1-1h-4.6v7H802.8z M811.5,238.7h-1.9v-16.8h1.9V238.7z"/>
	<path class="st12" d="M818.6,238.7h-3.2v-16.8h1.9v14.5h0.5l7.6-14.5h3.2v16.8h-1.9v-14.5h-0.5L818.6,238.7z M819.7,219.1
		c-0.6-0.6-1-1.3-1-2.2h1.6c0.1,0.5,0.3,0.9,0.6,1.2c0.3,0.3,0.7,0.4,1.2,0.4c0.5,0,0.9-0.1,1.2-0.4c0.3-0.3,0.5-0.7,0.6-1.2h1.6
		c-0.1,0.9-0.4,1.6-1,2.2c-0.6,0.6-1.4,0.8-2.3,0.8S820.3,219.7,819.7,219.1z"/>
	<path class="st12" d="M845.8,230h7v8.6h-1.6l-0.2-2.4h-0.1c-0.5,0.7-1.3,1.3-2.3,1.8s-2.1,0.8-3.3,0.8c-1.5,0-2.8-0.4-4.1-1.1
		c-1.2-0.7-2.2-1.7-2.9-3.1c-0.7-1.3-1.1-2.8-1.1-4.5c0-1.7,0.4-3.2,1.1-4.5c0.7-1.3,1.7-2.3,2.9-3.1c1.2-0.7,2.6-1.1,4.1-1.1
		c1.7,0,3.2,0.5,4.6,1.4s2.3,2.2,2.8,3.8h-2c-0.5-1.1-1.2-1.9-2.2-2.5c-1-0.6-2.1-0.9-3.2-0.9c-1.1,0-2.1,0.3-3.1,0.9
		c-0.9,0.6-1.7,1.4-2.2,2.4s-0.8,2.2-0.8,3.6c0,1.3,0.3,2.5,0.8,3.6s1.3,1.8,2.2,2.4c0.9,0.6,2,0.9,3.1,0.9c1,0,1.9-0.2,2.8-0.7
		c0.9-0.5,1.6-1.1,2.1-1.9c0.5-0.8,0.8-1.6,0.8-2.5v-0.2h-5V230z"/>
	<path class="st12" d="M867.2,238.7h-10.8v-16.8h10.8v1.8h-8.9v5.6h8.4v1.8h-8.4v5.8h8.9V238.7z"/>
	<path class="st12" d="M873.1,237.9c-1-0.7-1.8-1.7-2.4-3c-0.6-1.3-0.9-2.9-0.9-4.7c0-1.8,0.3-3.4,0.9-4.7c0.6-1.3,1.4-2.3,2.4-3
		c1-0.7,2.1-1,3.3-1s2.3,0.3,3.3,1c1,0.7,1.8,1.7,2.4,3c0.6,1.3,0.9,2.9,0.9,4.7c0,1.8-0.3,3.4-0.9,4.7c-0.6,1.3-1.4,2.3-2.4,3
		c-1,0.7-2.1,1-3.3,1S874.1,238.6,873.1,237.9z M878.6,236.3c0.7-0.5,1.3-1.3,1.7-2.3s0.6-2.3,0.6-3.7c0-1.5-0.2-2.7-0.6-3.7
		s-1-1.8-1.7-2.3c-0.7-0.5-1.5-0.8-2.3-0.8c-0.8,0-1.6,0.3-2.3,0.8c-0.7,0.5-1.3,1.3-1.7,2.3s-0.6,2.3-0.6,3.7
		c0,1.5,0.2,2.7,0.6,3.7s1,1.8,1.7,2.3c0.7,0.5,1.5,0.8,2.3,0.8C877.1,237.1,877.9,236.9,878.6,236.3z"/>
	<path class="st12" d="M888.3,238.7v-13.2h-3.6v-1.7h2.9c0.5,0,0.7-0.2,0.7-0.7v-1.2h1.9v16.8H888.3z"/>
</g>
<g>
	<path class="st0" d="M1324.4,238.3c-0.9-0.4-1.6-1-2.1-1.7c-0.5-0.7-0.7-1.5-0.7-2.4h1.9c0,0.5,0.2,1,0.5,1.5
		c0.3,0.5,0.8,0.8,1.4,1.1c0.6,0.3,1.4,0.4,2.3,0.4c0.8,0,1.6-0.1,2.2-0.4c0.6-0.3,1.1-0.6,1.5-1.1c0.3-0.5,0.5-0.9,0.5-1.5
		c0-0.5-0.2-1-0.5-1.5c-0.3-0.5-0.7-0.8-1.3-1.1c-0.5-0.3-1.2-0.4-1.9-0.4h-1.7v-1.8h1.7c0.9,0,1.7-0.3,2.3-0.8
		c0.6-0.6,0.9-1.2,0.9-2c0-0.9-0.3-1.6-1-2.1c-0.7-0.6-1.6-0.9-2.8-0.9c-0.8,0-1.4,0.1-2,0.4c-0.6,0.3-1,0.6-1.3,1.1
		c-0.3,0.5-0.5,0.9-0.5,1.5h-1.9c0-0.9,0.2-1.7,0.7-2.4c0.5-0.7,1.1-1.3,2-1.7c0.9-0.4,1.9-0.6,3.1-0.6c1.2,0,2.2,0.2,3,0.7
		s1.6,1,2,1.8c0.5,0.7,0.7,1.5,0.7,2.4c0,1-0.3,1.8-0.8,2.4c-0.5,0.7-1.2,1.1-1.8,1.3v0.1c0.8,0.2,1.5,0.7,2.1,1.3
		c0.6,0.7,0.9,1.5,0.9,2.5c0,0.9-0.2,1.7-0.7,2.4c-0.5,0.7-1.2,1.3-2.1,1.7c-0.9,0.4-2,0.6-3.3,0.6S1325.3,238.7,1324.4,238.3z"/>
	<path class="st0" d="M1347.7,238.7h-10.8v-16.8h10.8v1.8h-8.9v5.6h8.4v1.8h-8.4v5.8h8.9V238.7z"/>
	<path class="st0" d="M1349.2,238.8v-1.9h0.8c0.5,0,0.9-0.2,1.2-0.5c0.3-0.3,0.5-0.8,0.6-1.4l1.1-13.1h10.4v16.8h-1.9v-15h-6.7
		l-1,11.3c-0.1,1.3-0.5,2.3-1.1,2.9c-0.6,0.6-1.5,0.9-2.6,0.9H1349.2z"/>
	<path class="st0" d="M1378,238.7h-10.8v-16.8h10.8v1.8h-8.9v5.6h8.4v1.8h-8.4v5.8h8.9V238.7z"/>
	<path class="st0" d="M1383.2,238.7h-1.9v-16.8h1.9v7.4h9.4v-7.4h1.9v16.8h-1.9v-7.6h-9.4V238.7z"/>
	<path class="st0" d="M1398.3,238.7v-16.8h1.9v6.2h4.6c0.9,0,1.7,0.2,2.5,0.7c0.8,0.5,1.3,1.1,1.8,1.9c0.4,0.8,0.6,1.7,0.6,2.7
		c0,1-0.2,1.9-0.6,2.7c-0.4,0.8-1,1.4-1.8,1.9c-0.8,0.5-1.6,0.7-2.5,0.7H1398.3z M1404.8,236.9c0.8,0,1.6-0.3,2.1-1
		c0.6-0.7,0.9-1.5,0.9-2.5s-0.3-1.8-0.9-2.5c-0.6-0.7-1.3-1-2.1-1h-4.6v7H1404.8z M1413.5,238.7h-1.9v-16.8h1.9V238.7z"/>
	<path class="st0" d="M1420.6,238.7h-3.2v-16.8h1.9v14.5h0.5l7.6-14.5h3.2v16.8h-1.9v-14.5h-0.5L1420.6,238.7z M1421.7,219.1
		c-0.6-0.6-1-1.3-1-2.2h1.6c0.1,0.5,0.3,0.9,0.6,1.2c0.3,0.3,0.7,0.4,1.2,0.4s0.9-0.1,1.2-0.4c0.3-0.3,0.5-0.7,0.6-1.2h1.6
		c-0.1,0.9-0.4,1.6-1,2.2c-0.6,0.6-1.4,0.8-2.3,0.8S1422.3,219.7,1421.7,219.1z"/>
	<path class="st0" d="M1447.8,230h7v8.6h-1.6l-0.2-2.4h-0.1c-0.5,0.7-1.3,1.3-2.3,1.8c-1,0.5-2.1,0.8-3.3,0.8
		c-1.5,0-2.8-0.4-4.1-1.1c-1.2-0.7-2.2-1.7-2.9-3.1c-0.7-1.3-1.1-2.8-1.1-4.5c0-1.7,0.4-3.2,1.1-4.5c0.7-1.3,1.7-2.3,2.9-3.1
		c1.2-0.7,2.6-1.1,4.1-1.1c1.7,0,3.2,0.5,4.6,1.4s2.3,2.2,2.8,3.8h-2c-0.5-1.1-1.2-1.9-2.2-2.5c-1-0.6-2.1-0.9-3.2-0.9
		c-1.1,0-2.1,0.3-3.1,0.9c-0.9,0.6-1.7,1.4-2.2,2.4s-0.8,2.2-0.8,3.6c0,1.3,0.3,2.5,0.8,3.6s1.3,1.8,2.2,2.4c0.9,0.6,2,0.9,3.1,0.9
		c1,0,1.9-0.2,2.8-0.7s1.6-1.1,2.1-1.9s0.8-1.6,0.8-2.5v-0.2h-5V230z"/>
	<path class="st0" d="M1469.2,238.7h-10.8v-16.8h10.8v1.8h-8.9v5.6h8.4v1.8h-8.4v5.8h8.9V238.7z"/>
	<path class="st0" d="M1475.1,237.9c-1-0.7-1.8-1.7-2.4-3c-0.6-1.3-0.9-2.9-0.9-4.7c0-1.8,0.3-3.4,0.9-4.7c0.6-1.3,1.4-2.3,2.4-3
		s2.1-1,3.3-1c1.2,0,2.3,0.3,3.3,1s1.8,1.7,2.4,3c0.6,1.3,0.9,2.9,0.9,4.7c0,1.8-0.3,3.4-0.9,4.7c-0.6,1.3-1.4,2.3-2.4,3
		c-1,0.7-2.1,1-3.3,1C1477.1,238.9,1476.1,238.6,1475.1,237.9z M1480.6,236.3c0.7-0.5,1.3-1.3,1.7-2.3s0.6-2.3,0.6-3.7
		c0-1.5-0.2-2.7-0.6-3.7s-1-1.8-1.7-2.3c-0.7-0.5-1.5-0.8-2.3-0.8s-1.6,0.3-2.3,0.8c-0.7,0.5-1.3,1.3-1.7,2.3s-0.6,2.3-0.6,3.7
		c0,1.5,0.2,2.7,0.6,3.7s1,1.8,1.7,2.3c0.7,0.5,1.5,0.8,2.3,0.8S1479.9,236.9,1480.6,236.3z"/>
	<path class="st0" d="M1489.6,238.3c-0.8-0.4-1.5-1-1.9-1.7s-0.7-1.5-0.7-2.3h1.9c0,0.8,0.3,1.5,1,2.1c0.6,0.6,1.5,0.8,2.6,0.8
		c1.1,0,1.9-0.3,2.6-0.9s1-1.3,1-2.1c0-0.9-0.3-1.7-1-2.2s-1.5-0.9-2.6-0.9h-1.1v-1.8h1.1c1,0,1.9-0.3,2.5-0.8
		c0.6-0.6,0.9-1.3,0.9-2.1c0-0.5-0.1-1-0.4-1.4c-0.3-0.4-0.7-0.8-1.2-1c-0.5-0.3-1.1-0.4-1.8-0.4c-0.6,0-1.2,0.1-1.7,0.4
		c-0.5,0.3-0.9,0.6-1.2,1s-0.4,0.9-0.4,1.4h-1.9c0-0.8,0.2-1.5,0.7-2.2c0.4-0.7,1.1-1.3,1.9-1.7c0.8-0.4,1.7-0.6,2.7-0.6
		c1,0,1.9,0.2,2.7,0.6c0.8,0.4,1.4,1,1.9,1.7c0.4,0.7,0.7,1.5,0.7,2.4c0,0.9-0.3,1.7-0.8,2.4s-1.2,1.1-1.8,1.4v0.1
		c0.7,0.2,1.4,0.7,2,1.4s0.9,1.6,0.9,2.5c0,0.9-0.2,1.7-0.7,2.4c-0.5,0.7-1.1,1.3-2,1.7c-0.8,0.4-1.8,0.6-2.8,0.6
		C1491.4,238.9,1490.4,238.7,1489.6,238.3z"/>
</g>
</svg>
