<?xml version="1.0" encoding="utf-8"?>
<!-- Generator: Adobe Illustrator 22.0.0, SVG Export Plug-In . SVG Version: 6.00 Build 0)  -->
<svg version="1.1" id="Layer_1" xmlns="http://www.w3.org/2000/svg" xmlns:xlink="http://www.w3.org/1999/xlink" x="0px" y="0px"
	 viewBox="0 0 1600 1163.6" style="enable-background:new 0 0 1600 1163.6;" xml:space="preserve">
<style type="text/css">
	.st0{fill:#D1D1D5;}
	.st1{fill:#1B1B2D;}
	.st2{fill:#FFFFFF;}
	.st3{fill:#3B3B4B;}
</style>
<rect y="0" class="st0" width="1600" height="1163.6"/>
<g>
	<path class="st1" d="M262.4,228.9l13.5-35.7h6.1l13.5,35.7h-4.3l-11.7-31.4h-1l-11.7,31.4H262.4z M269.6,219.8v-3.8h19.1v3.8H269.6
		z"/>
	<path class="st1" d="M299.7,228.9v-35.7h24v3.8h-19.9v11.5h12c1.8,0,3.4,0.4,4.9,1.3c1.5,0.9,2.7,2.1,3.5,3.6
		c0.9,1.5,1.3,3.3,1.3,5.3c0,2-0.4,3.8-1.3,5.3c-0.9,1.5-2,2.7-3.5,3.6c-1.5,0.9-3.1,1.3-4.9,1.3H299.7z M315.8,225.1
		c1.1,0,2.1-0.3,2.9-0.8c0.9-0.5,1.5-1.3,2-2.2c0.5-1,0.7-2.1,0.7-3.3c0-1.9-0.5-3.4-1.6-4.6s-2.4-1.8-4.1-1.8h-12v12.8H315.8z"/>
	<path class="st1" d="M332.1,228.9v-35.7h15.3c1.8,0,3.4,0.4,4.9,1.3c1.5,0.9,2.7,2.1,3.5,3.6c0.9,1.5,1.3,3.2,1.3,5
		c0,1.2-0.2,2.4-0.6,3.4c-0.4,1-0.9,1.9-1.5,2.7c-0.6,0.7-1.2,1.3-1.8,1.6v0.3c1.1,0.5,2.1,1.5,3,2.9c0.9,1.4,1.3,3.1,1.3,5.1
		c0,1.8-0.4,3.5-1.3,5c-0.9,1.5-2,2.7-3.5,3.6c-1.5,0.9-3.1,1.3-4.9,1.3H332.1z M347.4,209.3c1,0,2-0.3,2.8-0.8
		c0.9-0.5,1.5-1.3,2-2.2c0.5-0.9,0.8-2,0.8-3.1c0-1.2-0.3-2.2-0.8-3.1c-0.5-0.9-1.2-1.7-2-2.2c-0.9-0.5-1.8-0.8-2.8-0.8h-11.2v12.3
		H347.4z M347.9,225.1c1,0,2-0.3,2.8-0.8c0.8-0.5,1.5-1.3,2-2.2c0.5-0.9,0.8-2,0.8-3.1c0-1.8-0.5-3.2-1.6-4.4
		c-1.1-1.2-2.4-1.7-4-1.7h-11.7v12.3H347.9z"/>
	<path class="st1" d="M364.8,228.9v-35.7h22.5v3.8h-18.4v31.9H364.8z"/>
	<path class="st1" d="M386.2,236.1v-11h0.8c1.3,0,2.3-0.3,2.9-1s1-1.7,1.2-3.1l2.3-27.8h22.2v31.9h3.8v11h-4.1v-7.1h-25v7.1H386.2z
		 M393.6,225.1h17.9V197h-14.3l-2,24c-0.1,0.7-0.2,1.4-0.4,2c-0.2,0.6-0.4,1-0.6,1.4C394,224.8,393.8,225,393.6,225.1z"/>
	<path class="st1" d="M425,228.9v-35.7h23v3.8h-18.9v12H447v3.8h-17.9v12.3H448v3.8H425z"/>
	<path class="st1" d="M454.9,228.9v-35.7h23v3.8H459v12h17.9v3.8H459v12.3h18.9v3.8H454.9z M460,188.1v-4.3h4.3v4.3H460z
		 M468.9,188.1v-4.3h4.3v4.3H468.9z"/>
	<path class="st1" d="M480.7,228.9l14-18.1l-13-17.6h4.9l12.5,16.8v-16.8h4.1v16.8l12.5-16.8h4.9l-13,17.6l14,18.1h-4.8l-13.5-17.6
		v17.6H499v-17.6l-13.5,17.6H480.7z"/>
	<path class="st1" d="M536.3,229.5c-2.7,0-5-0.5-6.9-1.4c-2-0.9-3.5-2.1-4.5-3.7c-1.1-1.6-1.6-3.3-1.6-5.2h4.1c0,1.1,0.3,2.2,1,3.1
		c0.7,1,1.7,1.8,3.1,2.3c1.3,0.6,3,0.9,4.8,0.9c1.8,0,3.4-0.3,4.7-0.9c1.4-0.6,2.4-1.4,3.1-2.3c0.7-1,1.1-2,1.1-3.1s-0.3-2.2-1-3.1
		c-0.6-1-1.5-1.8-2.7-2.3c-1.2-0.6-2.5-0.9-4-0.9H534V209h3.6c1.3,0,2.5-0.3,3.6-0.8c1.1-0.6,1.9-1.3,2.5-2.2c0.6-0.9,0.9-1.9,0.9-3
		c0-1.2-0.3-2.3-1-3.2c-0.7-1-1.6-1.7-2.8-2.3s-2.7-0.8-4.3-0.8c-1.6,0-3.1,0.3-4.3,0.9c-1.2,0.6-2.2,1.4-2.9,2.3c-0.7,1-1,2-1,3.1
		H524c0-1.9,0.5-3.6,1.5-5.2c1-1.6,2.4-2.8,4.3-3.7c1.9-0.9,4-1.4,6.5-1.4c2.5,0,4.6,0.5,6.5,1.4s3.3,2.2,4.3,3.8
		c1,1.6,1.5,3.3,1.5,5.1c0,2-0.6,3.8-1.7,5.2c-1.2,1.4-2.5,2.3-3.9,2.8v0.3c1.6,0.4,3.1,1.4,4.4,2.8c1.3,1.4,2,3.2,2,5.3
		c0,1.9-0.5,3.6-1.6,5.2c-1.1,1.6-2.6,2.8-4.5,3.7C541.3,229,539,229.5,536.3,229.5z"/>
	<path class="st1" d="M556,228.9v-35.7h4.1v30.9h1l16.1-30.9h6.9v35.7h-4.1v-30.9h-1l-16.1,30.9H556z"/>
	<path class="st1" d="M592.2,228.9v-35.7h4.1v30.9h1l16.1-30.9h6.9v35.7h-4.1v-30.9h-1l-16.1,30.9H592.2z M606.2,189.1
		c-1.9,0-3.6-0.6-4.9-1.8c-1.3-1.2-2.1-2.7-2.2-4.6h3.3c0.1,1.1,0.5,2,1.2,2.6c0.7,0.6,1.5,0.9,2.6,0.9c1.1,0,1.9-0.3,2.6-0.9
		c0.7-0.6,1.1-1.5,1.2-2.6h3.3c-0.1,1.9-0.9,3.4-2.2,4.6C609.8,188.5,608.2,189.1,606.2,189.1z"/>
	<path class="st1" d="M628.4,228.9v-35.7h4.1v16.8l15.1-16.8h5.1l-15.8,17.6l16.8,18.1h-5.2l-16-17.4v17.4H628.4z"/>
	<path class="st1" d="M653.2,229.2v-4.1h1.8c1.1,0,1.9-0.3,2.6-1c0.7-0.7,1.1-1.7,1.2-3.1l2.3-27.8h22.2v35.7h-4.1V197h-14.3l-2,24
		c-0.2,2.8-1,4.8-2.3,6.2c-1.3,1.3-3.2,2-5.6,2H653.2z"/>
	<path class="st1" d="M691.5,228.9v-35.7h7.4l11,31.1h1l11-31.1h7.4v35.7h-4.1v-30.4h-1l-10.7,30.4h-6.1l-10.7-30.4h-1v30.4H691.5z"
		/>
	<path class="st1" d="M266.5,278.7v-35.7h4.1v15.8h19.9v-15.8h4.1v35.7h-4.1v-16.1h-19.9v16.1H266.5z"/>
	<path class="st1" d="M318.3,279.2c-3.1,0-6-0.8-8.6-2.3c-2.6-1.5-4.7-3.7-6.2-6.5c-1.5-2.8-2.3-6-2.3-9.5c0-3.6,0.8-6.8,2.3-9.5
		c1.5-2.8,3.6-5,6.2-6.5c2.6-1.5,5.5-2.3,8.6-2.3s6,0.8,8.6,2.3c2.6,1.5,4.7,3.7,6.2,6.5c1.5,2.8,2.3,6,2.3,9.5
		c0,3.6-0.8,6.8-2.3,9.5c-1.5,2.8-3.6,5-6.2,6.5C324.3,278.4,321.5,279.2,318.3,279.2z M318.3,275.3c2.4,0,4.6-0.6,6.6-1.8
		c2-1.2,3.6-2.9,4.7-5.2c1.2-2.2,1.7-4.7,1.7-7.6c0-2.8-0.6-5.3-1.7-7.6c-1.2-2.2-2.7-3.9-4.7-5.2c-2-1.2-4.2-1.8-6.6-1.8
		c-2.4,0-4.6,0.6-6.6,1.8s-3.6,2.9-4.7,5.2c-1.2,2.2-1.7,4.7-1.7,7.6c0,2.8,0.6,5.3,1.7,7.6c1.2,2.2,2.7,3.9,4.7,5.2
		S315.9,275.3,318.3,275.3z"/>
	<path class="st1" d="M342.1,278.7v-35.7h28.1v35.7h-4.1v-31.9h-19.9v31.9H342.1z"/>
	<path class="st1" d="M378.3,278.7v-35.7h15.6c1.9,0,3.6,0.5,5.1,1.4c1.5,1,2.8,2.3,3.7,3.9s1.4,3.5,1.4,5.6c0,2.1-0.5,3.9-1.4,5.6
		c-0.9,1.7-2.2,3-3.7,3.9c-1.5,1-3.3,1.4-5.1,1.4h-11.5v13.8H378.3z M393.9,261c1.1,0,2.2-0.3,3.1-0.9c0.9-0.6,1.7-1.4,2.2-2.5
		c0.5-1.1,0.8-2.3,0.8-3.7c0-2.1-0.6-3.8-1.8-5.2c-1.2-1.3-2.6-2-4.3-2h-11.5V261H393.9z"/>
	<path class="st1" d="M426.3,279.2c-3.1,0-6-0.8-8.6-2.3c-2.6-1.5-4.7-3.7-6.2-6.5c-1.5-2.8-2.3-6-2.3-9.5c0-3.6,0.8-6.8,2.3-9.5
		c1.5-2.8,3.6-5,6.2-6.5c2.6-1.5,5.5-2.3,8.6-2.3c2.5,0,4.9,0.5,7,1.5c2.2,1,4,2.4,5.5,4.2c1.5,1.8,2.6,3.9,3.3,6.4h-4.3
		c-0.6-1.7-1.4-3.2-2.6-4.4s-2.5-2.2-4-2.8c-1.5-0.6-3.2-1-5-1c-2.4,0-4.6,0.6-6.6,1.8c-2,1.2-3.6,2.9-4.7,5.2
		c-1.2,2.2-1.7,4.7-1.7,7.6c0,2.8,0.6,5.3,1.7,7.6c1.2,2.2,2.7,3.9,4.7,5.2c2,1.2,4.2,1.8,6.6,1.8c2.7,0,5.1-0.7,7.1-2.2
		c2-1.5,3.5-3.5,4.4-6.2h4.3c-0.7,2.5-1.8,4.7-3.3,6.5c-1.5,1.8-3.3,3.3-5.5,4.2C431.2,278.7,428.8,279.2,426.3,279.2z"/>
	<path class="st1" d="M455.9,278.7v-31.9h-11.7v-3.8h27.6v3.8H460v31.9H455.9z"/>
	<path class="st1" d="M478.1,278.7v-3.8h4.8c0.7,0,1.3-0.1,1.8-0.4s0.8-0.7,1-1.4l1.6-3.6v2.5l-13.8-29h4.3l10.5,22.2h1l10-22.2h4.3
		l-14.5,32.2c-0.3,0.7-0.8,1.3-1.3,1.9c-0.5,0.5-1.1,0.9-1.9,1.3c-0.8,0.3-1.7,0.5-2.7,0.5H478.1z"/>
	<path class="st1" d="M521.5,279.7v-7l1.4,1.4h-2.1c-3.2,0-5.9-0.6-8.3-1.8c-2.3-1.2-4.2-2.8-5.4-4.9c-1.3-2.1-1.9-4.4-1.9-7.1
		c0-2.7,0.6-5,1.9-7.1c1.3-2.1,3.1-3.7,5.4-4.9c2.3-1.2,5.1-1.8,8.3-1.8h2.1l-1.4,1.4v-6h4.1v6l-1.4-1.4h2.1c3.2,0,5.9,0.6,8.3,1.8
		c2.3,1.2,4.2,2.8,5.4,4.9c1.3,2.1,1.9,4.4,1.9,7.1c0,2.7-0.6,5-1.9,7.1c-1.3,2.1-3.1,3.7-5.4,4.9c-2.3,1.2-5.1,1.8-8.3,1.8h-2.1
		l1.4-1.4v7H521.5z M521.5,271.9v-23.2l1.4,1.4h-2.1c-2.3,0-4.4,0.4-6.1,1.3c-1.7,0.9-3,2.1-4,3.6c-0.9,1.5-1.4,3.3-1.4,5.3
		c0,2,0.5,3.7,1.4,5.3c0.9,1.5,2.3,2.7,4,3.6c1.7,0.9,3.8,1.3,6.1,1.3h2.1L521.5,271.9z M525.6,271.9l-1.4-1.4h2.1
		c2.3,0,4.4-0.4,6.1-1.3c1.7-0.9,3-2.1,4-3.6c0.9-1.5,1.4-3.3,1.4-5.3c0-2-0.5-3.7-1.4-5.3c-0.9-1.5-2.3-2.7-4-3.6
		c-1.7-0.9-3.8-1.3-6.1-1.3h-2.1l1.4-1.4V271.9z"/>
	<path class="st1" d="M542.4,278.7l12.5-18.4l-11.7-17.4h4.6l9.4,14h1l9.4-14h4.6l-11.7,17.4l12.5,18.4h-4.6l-10.2-15.1h-1
		l-10.2,15.1H542.4z"/>
	<path class="st1" d="M604.5,285.8v-7.1h-26.8v-35.7h4.1v31.9h18.9v-31.9h4.1v31.9h3.8v11H604.5z"/>
	<path class="st1" d="M634.8,263.3c-1,0.9-2.4,1.6-4.3,2.3c-1.8,0.7-3.7,1-5.7,1c-4.2,0-7.4-1-9.4-3.1c-2.1-2.1-3.1-5.3-3.1-9.6v-11
		h4.1v11c0,3,0.7,5.3,2.1,6.7c1.4,1.5,3.5,2.2,6.3,2.2c2.1,0,4.1-0.4,5.9-1.1c1.8-0.7,3.2-1.6,4.1-2.5v-16.3h4.1v35.7h-4.1V263.3z"
		/>
	<path class="st1" d="M647.1,278.7v-35.7h4.1v31.9h14v-31.9h4.1v31.9h14v-31.9h4.1v35.7H647.1z"/>
	<path class="st1" d="M735.6,285.8v-7.1h-40.1v-35.7h4.1v31.9h14v-31.9h4.1v31.9h14v-31.9h4.1v31.9h3.8v11H735.6z"/>
	<path class="st1" d="M270.9,328.4v-31.9h-7.9v-3.8h12v13.3h10.2c1.9,0,3.7,0.5,5.3,1.5c1.6,1,2.9,2.3,3.8,4.1
		c0.9,1.7,1.4,3.6,1.4,5.7c0,2.1-0.5,4-1.4,5.7c-0.9,1.7-2.2,3.1-3.8,4.1c-1.6,1-3.4,1.5-5.3,1.5H270.9z M285.1,324.5
		c1.2,0,2.3-0.3,3.2-0.9c1-0.6,1.7-1.5,2.3-2.6c0.6-1.1,0.8-2.4,0.8-3.8c0-1.4-0.3-2.7-0.8-3.8c-0.6-1.1-1.3-2-2.3-2.6
		c-1-0.6-2.1-0.9-3.2-0.9h-10.2v14.8H285.1z"/>
	<path class="st1" d="M302,328.4v-35.7h4.1v13.3h9.7c1.9,0,3.7,0.5,5.3,1.5c1.6,1,2.9,2.3,3.8,4.1c0.9,1.7,1.4,3.6,1.4,5.7
		c0,2.1-0.5,4-1.4,5.7c-0.9,1.7-2.2,3.1-3.8,4.1c-1.6,1-3.4,1.5-5.3,1.5H302z M315.8,324.5c1.2,0,2.3-0.3,3.2-0.9
		c1-0.6,1.7-1.5,2.3-2.6s0.8-2.4,0.8-3.8c0-1.4-0.3-2.7-0.8-3.8s-1.3-2-2.3-2.6c-1-0.6-2.1-0.9-3.2-0.9h-9.7v14.8H315.8z
		 M330.3,328.4v-35.7h4.1v35.7H330.3z"/>
	<path class="st1" d="M342.6,328.4v-35.7h4.1v13.3h10.7c1.9,0,3.7,0.5,5.3,1.5c1.6,1,2.9,2.3,3.8,4.1c0.9,1.7,1.4,3.6,1.4,5.7
		c0,2.1-0.5,4-1.4,5.7c-0.9,1.7-2.2,3.1-3.8,4.1c-1.6,1-3.4,1.5-5.3,1.5H342.6z M357.4,324.5c1.2,0,2.3-0.3,3.2-0.9
		c1-0.6,1.7-1.5,2.3-2.6s0.8-2.4,0.8-3.8c0-1.4-0.3-2.7-0.8-3.8s-1.3-2-2.3-2.6c-1-0.6-2.1-0.9-3.2-0.9h-10.7v14.8H357.4z"/>
	<path class="st1" d="M387.8,328.9c-2.6,0-4.9-0.5-7.1-1.5c-2.2-1-4-2.4-5.6-4.2c-1.5-1.8-2.6-3.9-3.2-6.4h4.3
		c0.6,1.7,1.4,3.2,2.6,4.4s2.5,2.2,4,2.8c1.5,0.6,3.2,1,5,1c2.2,0,4.3-0.5,6.2-1.6c1.9-1.1,3.4-2.6,4.6-4.5c1.2-1.9,1.8-4.2,2-6.6
		h-17.4v-3.8h17.4c-0.2-2.4-0.8-4.6-2-6.5c-1.2-1.9-2.7-3.4-4.6-4.4c-1.9-1.1-3.9-1.6-6.2-1.6c-2.7,0-5,0.7-7.1,2.1
		c-2.1,1.4-3.5,3.3-4.4,5.8h-4.3c0.7-2.3,1.8-4.4,3.3-6.2c1.5-1.8,3.4-3.1,5.6-4.1c2.2-1,4.5-1.5,6.9-1.5c3.1,0,6,0.8,8.6,2.3
		c2.6,1.5,4.7,3.7,6.2,6.5c1.5,2.8,2.3,6,2.3,9.5c0,3.6-0.8,6.8-2.3,9.5c-1.5,2.8-3.6,5-6.2,6.5
		C393.8,328.1,390.9,328.9,387.8,328.9z"/>
	<path class="st1" d="M437.3,328.9c-2.8,0-5.4-0.7-7.7-2.1c-2.4-1.4-4.3-3.3-5.8-5.8c-1.5-2.5-2.3-5.4-2.6-8.7h-5.6v16.1h-4.1v-35.7
		h4.1v15.8h5.6c0.3-3.3,1.3-6.1,2.7-8.6c1.5-2.5,3.4-4.4,5.7-5.7c2.3-1.3,4.9-2,7.7-2c3,0,5.7,0.8,8.1,2.3c2.5,1.5,4.4,3.7,5.8,6.5
		c1.4,2.8,2.1,6,2.1,9.5c0,3.6-0.7,6.8-2.1,9.5c-1.4,2.8-3.4,5-5.8,6.5C442.9,328.1,440.2,328.9,437.3,328.9z M437.3,325.1
		c2.2,0,4.2-0.6,6.1-1.8c1.8-1.2,3.3-2.9,4.3-5.1c1.1-2.2,1.6-4.8,1.6-7.7s-0.5-5.4-1.6-7.7c-1.1-2.2-2.5-3.9-4.3-5.1
		c-1.8-1.2-3.9-1.8-6.1-1.8s-4.2,0.6-6.1,1.8c-1.8,1.2-3.3,2.9-4.3,5.1c-1.1,2.2-1.6,4.8-1.6,7.7s0.5,5.4,1.6,7.7
		c1.1,2.2,2.5,3.9,4.3,5.1C433,324.5,435.1,325.1,437.3,325.1z"/>
	<path class="st1" d="M457.9,328.4l14.8-14.8l0.4,1h-4.2c-1.9,0-3.6-0.5-5.1-1.4c-1.5-1-2.8-2.3-3.7-3.9c-0.9-1.7-1.4-3.5-1.4-5.6
		c0-2.1,0.5-3.9,1.4-5.6s2.2-3,3.7-3.9c1.5-1,3.3-1.4,5.1-1.4h15.6v35.7h-4.1v-13.8h-3.6L463,328.4H457.9z M468.9,310.8h11.5v-14.3
		h-11.5c-1.1,0-2.2,0.3-3.1,0.9c-0.9,0.6-1.7,1.4-2.2,2.5c-0.5,1.1-0.8,2.3-0.8,3.7c0,1.4,0.3,2.6,0.8,3.7c0.5,1.1,1.3,1.9,2.2,2.5
		C466.8,310.5,467.8,310.8,468.9,310.8z"/>
</g>
<g>
	<path class="st2" d="M85.3,114.9V89h16.6v2.8H88.2v8.7h12.9v2.8H88.2v8.9h13.7v2.8H85.3z"/>
	<path class="st2" d="M106,114.9V89h3v23.1h12.9v2.8H106z"/>
	<path class="st2" d="M127.4,114.9V91.8h-8.5V89h20v2.8h-8.5v23.1H127.4z"/>
	<path class="st2" d="M136.7,114.9l9.8-25.9h4.4l9.8,25.9h-3.1l-8.5-22.7h-0.7l-8.5,22.7H136.7z M141.8,108.2v-2.8h13.9v2.8H141.8z"
		/>
	<path class="st2" d="M178.1,115.3c-2,0-3.7-0.4-5.2-1.1c-1.5-0.7-2.6-1.7-3.4-2.9c-0.8-1.2-1.2-2.5-1.2-4h3c0,0.9,0.3,1.8,0.8,2.6
		c0.5,0.8,1.3,1.4,2.3,1.9c1,0.5,2.3,0.7,3.7,0.7c2.2,0,3.8-0.4,4.9-1.3c1.1-0.9,1.6-2,1.6-3.3c0-1.1-0.4-2-1.1-2.8
		c-0.7-0.7-1.8-1.2-3.3-1.5l-5-0.9c-2.1-0.4-3.6-1.1-4.7-2.3c-1.1-1.1-1.6-2.6-1.6-4.4c0-1.4,0.4-2.7,1.1-3.8c0.7-1.1,1.7-2,3.1-2.6
		c1.3-0.6,2.9-1,4.7-1c1.9,0,3.6,0.4,5.1,1.1s2.6,1.7,3.4,2.9c0.8,1.2,1.2,2.6,1.2,4h-3c0-0.9-0.3-1.8-0.8-2.6
		c-0.5-0.8-1.3-1.4-2.3-1.9c-1-0.5-2.2-0.7-3.6-0.7c-1.9,0-3.3,0.4-4.4,1.3c-1,0.9-1.6,2-1.6,3.3c0,1,0.4,1.9,1.1,2.6
		c0.7,0.7,1.8,1.2,3.2,1.4l4.1,0.7c2.6,0.5,4.4,1.3,5.6,2.4c1.2,1.1,1.8,2.7,1.8,4.6c0,1.4-0.4,2.7-1.1,3.8c-0.7,1.1-1.8,2-3.2,2.6
		C181.8,114.9,180.1,115.3,178.1,115.3z"/>
	<path class="st2" d="M187.7,114.9l9.8-25.9h4.4l9.8,25.9h-3.1l-8.5-22.7h-0.7l-8.5,22.7H187.7z M192.9,108.2v-2.8h13.9v2.8H192.9z"
		/>
	<path class="st2" d="M213.8,114.9V89h5l11.6,22.4h0.7V89h3v25.9h-5l-11.6-22.4h-0.7v22.4H213.8z"/>
	<path class="st2" d="M247.6,115.3c-2,0-3.7-0.4-5.2-1.1c-1.5-0.7-2.6-1.7-3.4-2.9c-0.8-1.2-1.2-2.5-1.2-4h3c0,0.9,0.3,1.8,0.8,2.6
		c0.5,0.8,1.3,1.4,2.3,1.9s2.3,0.7,3.7,0.7c2.2,0,3.8-0.4,4.9-1.3c1.1-0.9,1.6-2,1.6-3.3c0-1.1-0.4-2-1.1-2.8
		c-0.7-0.7-1.8-1.2-3.3-1.5l-5-0.9c-2.1-0.4-3.6-1.1-4.7-2.3c-1.1-1.1-1.6-2.6-1.6-4.4c0-1.4,0.4-2.7,1.1-3.8c0.7-1.1,1.7-2,3.1-2.6
		c1.3-0.6,2.9-1,4.7-1c1.9,0,3.6,0.4,5.1,1.1c1.5,0.7,2.6,1.7,3.4,2.9c0.8,1.2,1.2,2.6,1.2,4h-3c0-0.9-0.3-1.8-0.8-2.6
		c-0.5-0.8-1.3-1.4-2.3-1.9c-1-0.5-2.2-0.7-3.6-0.7c-1.9,0-3.3,0.4-4.4,1.3c-1,0.9-1.6,2-1.6,3.3c0,1,0.4,1.9,1.1,2.6
		c0.7,0.7,1.8,1.2,3.2,1.4l4.1,0.7c2.6,0.5,4.4,1.3,5.6,2.4c1.2,1.1,1.8,2.7,1.8,4.6c0,1.4-0.4,2.7-1.1,3.8c-0.7,1.1-1.8,2-3.2,2.6
		C251.3,114.9,249.6,115.3,247.6,115.3z"/>
	<path class="st1" d="M85.3,148v-25.9h11.3c1.4,0,2.6,0.3,3.7,1c1.1,0.7,2,1.6,2.7,2.8c0.7,1.2,1,2.6,1,4.1c0,1.5-0.3,2.9-1,4.1
		c-0.7,1.2-1.6,2.2-2.7,2.8c-1.1,0.7-2.4,1-3.7,1h-3.2v-0.7l11.1,10.7h-3.7l-10.4-10h-2.2v10H85.3z M96.6,135.3
		c0.8,0,1.6-0.2,2.2-0.6c0.7-0.4,1.2-1,1.6-1.8c0.4-0.8,0.6-1.7,0.6-2.7c0-1.5-0.4-2.8-1.3-3.7c-0.9-1-1.9-1.4-3.1-1.4h-8.3v10.4
		H96.6z"/>
	<path class="st1" d="M108,148v-25.9h16.6v2.8H111v8.7h12.9v2.8H111v8.9h13.7v2.8H108z"/>
	<path class="st1" d="M140,148.4c-2.3,0-4.3-0.6-6.2-1.7c-1.9-1.1-3.4-2.7-4.5-4.7c-1.1-2-1.6-4.3-1.6-6.9s0.5-4.9,1.6-6.9
		c1.1-2,2.6-3.6,4.5-4.7c1.9-1.1,4-1.7,6.2-1.7c1.7,0,3.4,0.3,4.9,1c1.5,0.7,2.9,1.6,4,2.8c1.1,1.2,2,2.7,2.5,4.3h-3.1
		c-0.7-1.7-1.9-3-3.4-3.9c-1.5-1-3.2-1.4-4.9-1.4c-1.7,0-3.3,0.4-4.8,1.3c-1.4,0.9-2.6,2.1-3.4,3.7c-0.8,1.6-1.3,3.4-1.3,5.5
		c0,2,0.4,3.9,1.3,5.5c0.8,1.6,2,2.8,3.4,3.7c1.4,0.9,3,1.3,4.8,1.3c1.5,0,2.9-0.4,4.3-1.1c1.3-0.8,2.4-1.7,3.2-3
		c0.8-1.2,1.2-2.5,1.2-3.8v-1.4l1,1h-8.8v-2.6h10.7V148h-2.4l-0.4-3.7h-0.2c-0.5,0.6-1.2,1.3-2,1.9c-0.9,0.6-1.9,1.1-3,1.6
		S141.3,148.4,140,148.4z"/>
	<path class="st1" d="M166.1,148.4c-1.9,0-3.6-0.4-5.2-1.3c-1.6-0.9-2.8-2.1-3.7-3.7c-0.9-1.6-1.3-3.4-1.3-5.5v-15.7h3v15.7
		c0,1.5,0.3,2.8,0.9,4c0.6,1.2,1.5,2.1,2.6,2.8c1.1,0.7,2.3,1,3.7,1s2.6-0.3,3.7-1c1.1-0.7,2-1.6,2.6-2.8c0.6-1.2,0.9-2.5,0.9-4
		v-15.7h3v15.7c0,2-0.4,3.9-1.3,5.5c-0.9,1.6-2.1,2.8-3.7,3.7C169.7,147.9,168,148.4,166.1,148.4z"/>
	<path class="st1" d="M180.9,148v-25.9h3v23.1h12.9v2.8H180.9z"/>
	<path class="st1" d="M196.6,148l9.8-25.9h4.4l9.8,25.9h-3.1l-8.5-22.7h-0.7l-8.5,22.7H196.6z M201.7,141.4v-2.8h13.9v2.8H201.7z"/>
	<path class="st1" d="M222.6,148v-25.9h11.3c1.4,0,2.6,0.3,3.7,1c1.1,0.7,2,1.6,2.7,2.8c0.7,1.2,1,2.6,1,4.1c0,1.5-0.3,2.9-1,4.1
		c-0.7,1.2-1.6,2.2-2.7,2.8c-1.1,0.7-2.4,1-3.7,1h-3.2v-0.7l11.1,10.7h-3.7l-10.4-10h-2.2v10H222.6z M233.9,135.3
		c0.8,0,1.6-0.2,2.2-0.6s1.2-1,1.6-1.8c0.4-0.8,0.6-1.7,0.6-2.7c0-1.5-0.4-2.8-1.3-3.7c-0.9-1-1.9-1.4-3.1-1.4h-8.3v10.4H233.9z"/>
</g>
<g>
	<path class="st3" d="M272.9,401.5c-1.6,0-3-0.3-4.3-0.9c-1.2-0.6-2.2-1.5-2.9-2.6c-0.7-1.1-1-2.3-1-3.7c0-1.5,0.3-2.8,1-3.9
		c0.7-1.1,1.7-2,3.1-2.6c1.4-0.6,3.1-0.9,5.2-0.9h6.3v-0.7c0-1.7-0.5-3.1-1.5-4.1c-1-1-2.4-1.5-4.1-1.5c-1.7,0-3,0.4-4.1,1.1
		c-1,0.8-1.6,1.7-1.7,2.8h-3.5c0.1-1.3,0.5-2.5,1.3-3.6c0.7-1.1,1.8-2,3.2-2.7s3-1,4.9-1c1.9,0,3.5,0.3,4.8,1c1.4,0.7,2.4,1.7,3.1,3
		c0.7,1.3,1.1,2.9,1.1,4.7V401h-3l-0.5-2.8h-0.2c-0.5,0.8-1.4,1.6-2.7,2.3C276.1,401.2,274.6,401.5,272.9,401.5z M272.9,398.3
		c1.5,0,2.8-0.3,4-0.9c1.1-0.6,2-1.4,2.6-2.5c0.6-1.1,0.9-2.4,0.9-3.8v-0.9h-6.3c-2,0-3.5,0.4-4.4,1.2c-0.9,0.8-1.4,1.8-1.4,3
		c0,1.2,0.4,2.1,1.2,2.9C270.3,397.9,271.4,398.3,272.9,398.3z"/>
	<path class="st3" d="M299.7,401.5c-2.1,0-3.9-0.5-5.6-1.5c-1.7-1-3-2.4-3.9-4.2c-0.9-1.8-1.4-4-1.4-6.4c0-0.2,0-0.5,0-0.7
		c0-0.2,0-0.5,0-0.7c0-2.7,0.2-5,0.6-7c0.4-1.9,1.1-3.6,2.1-5c1-1.4,2.2-2.5,3.8-3.4c1.1-0.6,2.2-1,3.4-1.3c1.2-0.3,2.7-0.5,4.5-0.7
		c1.1-0.1,1.9-0.5,2.3-1c0.5-0.5,0.7-1.3,0.8-2.3h3c0,1.3-0.2,2.4-0.7,3.3c-0.4,0.9-1,1.6-1.9,2.1c-0.9,0.5-2,0.9-3.3,1
		c-1.4,0.1-2.6,0.3-3.7,0.6c-1,0.3-2,0.6-2.8,1.1c-1.3,0.7-2.3,1.7-3.1,3c-0.8,1.3-1.3,2.8-1.5,4.7h0.2c1-1.3,2.1-2.3,3.4-2.9
		c1.3-0.6,2.7-0.9,4.2-0.9c1.9,0,3.7,0.5,5.3,1.4c1.6,0.9,2.9,2.3,3.8,3.9c0.9,1.7,1.4,3.5,1.4,5.6c0,2.1-0.5,4.1-1.4,5.7
		c-0.9,1.7-2.2,3-3.9,4C303.6,401,301.7,401.5,299.7,401.5z M299.7,398.3c1.4,0,2.7-0.3,3.8-1c1.1-0.7,2-1.6,2.7-2.8
		c0.7-1.2,1-2.6,1-4.1c0-1.5-0.3-2.9-1-4.1c-0.7-1.2-1.5-2.1-2.7-2.8c-1.1-0.7-2.4-1-3.8-1c-1.4,0-2.7,0.3-3.8,1
		c-1.1,0.7-2,1.6-2.7,2.8c-0.7,1.2-1,2.6-1,4.1c0,1.5,0.3,2.9,1,4.1c0.7,1.2,1.5,2.1,2.7,2.8C297,397.9,298.3,398.3,299.7,398.3z"/>
	<path class="st3" d="M315.2,401v-23.3h12.1c1.3,0,2.4,0.3,3.4,0.8c1,0.5,1.7,1.3,2.3,2.3c0.5,1,0.8,2.1,0.8,3.4
		c0,1.2-0.3,2.2-0.9,3c-0.6,0.9-1.2,1.5-1.9,1.8v0.2c0.8,0.3,1.6,0.9,2.3,1.8c0.7,0.9,1,2,1,3.3c0,1.2-0.3,2.4-0.9,3.4
		c-0.6,1-1.3,1.8-2.3,2.4c-1,0.6-2.1,0.9-3.3,0.9H315.2z M326.9,387.8c1,0,1.8-0.3,2.5-1c0.7-0.7,1-1.5,1-2.5s-0.3-1.9-1-2.5
		c-0.7-0.7-1.5-1-2.5-1h-8.1v7H326.9z M327.3,398c0.6,0,1.2-0.1,1.7-0.4c0.5-0.3,1-0.7,1.3-1.3c0.3-0.5,0.5-1.2,0.5-1.9
		c0-1.1-0.3-2-1-2.6c-0.7-0.7-1.5-1-2.5-1h-8.6v7.2H327.3z"/>
	<path class="st3" d="M339,401v-23.3h14.9v3.3h-11.4v20H339z"/>
	<path class="st3" d="M353.4,406.6v-8.8h0.5c1.1,0,1.8-0.3,2.3-0.8s0.8-1.3,0.9-2.5l1.4-16.7h15.6v20h3.3v8.8h-3.5V401h-17v5.6
		H353.4z M359.4,397.8h11.2V381h-8.8l-1.2,13.5c-0.1,0.8-0.2,1.6-0.4,2.1C359.9,397.3,359.7,397.6,359.4,397.8z"/>
	<path class="st3" d="M390.8,401.5c-2.1,0-4-0.5-5.7-1.5c-1.7-1-3-2.4-4-4.3c-1-1.8-1.5-3.9-1.5-6.3c0-2.4,0.5-4.5,1.5-6.3
		c1-1.8,2.3-3.3,4-4.3c1.7-1,3.6-1.5,5.7-1.5c2,0,3.8,0.5,5.4,1.4c1.6,1,2.9,2.3,3.9,4c0.9,1.7,1.4,3.6,1.4,5.7c0,0.6,0,1.2-0.1,1.6
		c0,0.5-0.1,0.8-0.2,0.9h-18.1c0.2,1.4,0.6,2.7,1.3,3.8c0.7,1.1,1.6,1.9,2.7,2.5c1.1,0.6,2.3,0.9,3.6,0.9c1.4,0,2.6-0.3,3.7-1
		c1.1-0.7,1.9-1.6,2.5-2.7h3.7c-0.6,1.5-1.3,2.8-2.3,3.8c-0.9,1-2.1,1.8-3.4,2.4C393.9,401.2,392.4,401.5,390.8,401.5z M398,387.8
		c-0.1-1.4-0.4-2.6-1.1-3.7c-0.7-1.1-1.5-2-2.6-2.6c-1.1-0.6-2.3-0.9-3.6-0.9c-1.4,0-2.6,0.3-3.7,0.9c-1.1,0.6-2,1.5-2.7,2.6
		c-0.7,1.1-1.1,2.3-1.3,3.7H398z"/>
	<path class="st3" d="M416,401.5c-2.1,0-4-0.5-5.7-1.5c-1.7-1-3-2.4-4-4.3c-1-1.8-1.5-3.9-1.5-6.3c0-2.4,0.5-4.5,1.5-6.3
		c1-1.8,2.3-3.3,4-4.3c1.7-1,3.6-1.5,5.7-1.5c2,0,3.8,0.5,5.4,1.4c1.6,1,2.9,2.3,3.9,4c0.9,1.7,1.4,3.6,1.4,5.7c0,0.6,0,1.2-0.1,1.6
		c0,0.5-0.1,0.8-0.2,0.9h-18.1c0.2,1.4,0.6,2.7,1.3,3.8c0.7,1.1,1.6,1.9,2.7,2.5c1.1,0.6,2.3,0.9,3.6,0.9c1.4,0,2.6-0.3,3.7-1
		c1.1-0.7,1.9-1.6,2.5-2.7h3.7c-0.6,1.5-1.3,2.8-2.3,3.8c-0.9,1-2.1,1.8-3.4,2.4C419,401.2,417.6,401.5,416,401.5z M423.2,387.8
		c-0.1-1.4-0.4-2.6-1.1-3.7c-0.7-1.1-1.5-2-2.6-2.6c-1.1-0.6-2.3-0.9-3.6-0.9c-1.4,0-2.6,0.3-3.7,0.9c-1.1,0.6-2,1.5-2.7,2.6
		c-0.7,1.1-1.1,2.3-1.3,3.7H423.2z M409.7,372.9v-4h4v4H409.7z M417.8,372.9v-4h4v4H417.8z"/>
	<path class="st3" d="M427.6,401l9.5-11.9l-8.8-11.4h4.2l8.4,10.9v-10.9h3.5v10.9l8.4-10.9h4.2l-8.8,11.4l9.5,11.9h-4.2l-9.1-11.4
		V401h-3.5v-11.4l-9.1,11.4H427.6z"/>
	<path class="st3" d="M467.6,401.5c-1.8,0-3.4-0.3-4.8-1c-1.4-0.7-2.4-1.6-3.2-2.8c-0.7-1.2-1.1-2.5-1.1-3.9h3.5
		c0,0.8,0.2,1.5,0.7,2.2c0.4,0.7,1.1,1.2,2,1.6c0.9,0.4,1.8,0.6,3,0.6c1.9,0,3.3-0.3,4.2-1c0.9-0.7,1.4-1.6,1.4-2.7
		c0-1.1-0.5-2-1.4-2.7c-0.9-0.7-2.3-1-3.9-1h-2.1v-3h2.1c1.6,0,2.8-0.3,3.6-1s1.3-1.6,1.3-2.7c0-1-0.4-1.8-1.3-2.5
		c-0.9-0.7-2.1-1-3.8-1c-1.6,0-2.8,0.4-3.7,1.2c-0.9,0.8-1.4,1.8-1.4,3H459c0-1.4,0.4-2.7,1.1-3.8c0.7-1.1,1.7-2,3-2.7s2.8-1,4.5-1
		c1.8,0,3.3,0.3,4.7,0.9c1.3,0.6,2.3,1.4,3,2.4c0.7,1,1,2.2,1,3.4c0,1.3-0.4,2.4-1.2,3.3c-0.8,0.9-1.6,1.5-2.6,1.8v0.2
		c1.1,0.2,2.1,0.8,3,1.8c0.8,0.9,1.2,2.1,1.2,3.4c0,1.3-0.4,2.5-1.1,3.5c-0.7,1.1-1.8,1.9-3.1,2.5
		C471.1,401.2,469.5,401.5,467.6,401.5z"/>
	<path class="st3" d="M481.3,401v-23.3h3.5v19.1h0.9l8.8-19.1h6V401h-3.5V382h-0.9l-8.8,19.1H481.3z"/>
	<path class="st3" d="M506.7,401v-23.3h3.5v19.1h0.9l8.8-19.1h6V401h-3.5V382h-0.9l-8.8,19.1H506.7z M516.4,373.8
		c-1.8,0-3.3-0.5-4.5-1.6c-1.2-1.1-1.9-2.5-2-4.2h3c0.1,1,0.5,1.8,1.1,2.4c0.6,0.6,1.4,0.9,2.4,0.9c1,0,1.8-0.3,2.4-0.9
		c0.6-0.6,1-1.4,1.1-2.4h3c-0.1,1.7-0.8,3.1-2,4.2C519.7,373.3,518.2,373.8,516.4,373.8z"/>
	<path class="st3" d="M532,401v-23.3h3.5v10.7l10.4-10.7h4.5l-11.2,11.4l11.6,11.9h-4.5l-10.9-11.2V401H532z"/>
	<path class="st3" d="M550.9,401.3v-3.5h1.4c0.9,0,1.6-0.3,2.1-0.8c0.5-0.5,0.8-1.3,0.9-2.5l1.4-16.7h15.6V401h-3.5v-20h-8.8
		l-1.2,13.5c-0.2,2.3-0.9,4-1.9,5.1c-1.1,1.1-2.6,1.7-4.6,1.7H550.9z"/>
	<path class="st3" d="M578.3,401v-23.3h6.5l6.3,19.3h0.9l6.3-19.3h6.5V401h-3.5V382h-0.9l-6.3,19.1H589l-6.3-19.1h-0.9V401H578.3z"
		/>
	<path class="st3" d="M610.9,401v-23.3h3.5v10h12.3v-10h3.5V401h-3.5v-10h-12.3v10H610.9z"/>
	<path class="st3" d="M275.5,438.5c-2.1,0-4-0.5-5.7-1.5c-1.7-1-3-2.4-4-4.3c-1-1.8-1.5-3.9-1.5-6.3c0-2.4,0.5-4.5,1.5-6.3
		c1-1.8,2.3-3.3,4-4.3c1.7-1,3.6-1.5,5.7-1.5s4,0.5,5.7,1.5c1.7,1,3,2.5,4,4.3c1,1.8,1.5,3.9,1.5,6.3c0,2.4-0.5,4.5-1.5,6.3
		c-1,1.8-2.3,3.3-4,4.3C279.4,438,277.5,438.5,275.5,438.5z M275.5,435.2c1.4,0,2.7-0.4,3.9-1.1c1.2-0.7,2.1-1.8,2.8-3.1
		s1-2.9,1-4.6c0-1.7-0.3-3.3-1-4.6s-1.6-2.4-2.8-3.1c-1.2-0.7-2.5-1.1-3.9-1.1s-2.7,0.4-3.9,1.1c-1.2,0.7-2.1,1.8-2.8,3.1
		c-0.7,1.3-1,2.9-1,4.6c0,1.7,0.3,3.3,1,4.6c0.7,1.3,1.6,2.4,2.8,3.1C272.8,434.9,274.1,435.2,275.5,435.2z"/>
	<path class="st3" d="M291.3,438v-23.3h19.3V438h-3.5v-20h-12.3v20H291.3z"/>
	<path class="st3" d="M316.6,447.3v-32.6h3l0.5,3.3h0.2c1-1.2,2-2.1,3.3-2.8c1.2-0.6,2.6-1,4.2-1c2,0,3.8,0.5,5.5,1.5
		s2.9,2.5,3.8,4.3c0.9,1.8,1.4,3.9,1.4,6.3c0,2.4-0.5,4.5-1.4,6.3c-0.9,1.8-2.2,3.3-3.8,4.3c-1.6,1-3.5,1.5-5.5,1.5
		c-1.6,0-3-0.3-4.2-1c-1.2-0.6-2.3-1.6-3.3-2.8h-0.2v12.6H316.6z M327.6,435.2c1.3,0,2.6-0.4,3.7-1.1c1.1-0.7,2-1.8,2.7-3.1
		c0.7-1.3,1-2.9,1-4.6c0-1.7-0.3-3.3-1-4.6c-0.7-1.3-1.6-2.4-2.7-3.1c-1.1-0.7-2.4-1.1-3.7-1.1c-1.3,0-2.6,0.4-3.7,1.1
		c-1.1,0.7-2,1.8-2.7,3.1c-0.7,1.3-1,2.9-1,4.6c0,1.7,0.3,3.3,1,4.6c0.7,1.3,1.6,2.4,2.7,3.1C325,434.9,326.2,435.2,327.6,435.2z"/>
	<path class="st3" d="M352.9,438.5c-2.1,0-4-0.5-5.7-1.5c-1.7-1-3-2.4-4-4.3c-1-1.8-1.5-3.9-1.5-6.3c0-2.4,0.5-4.5,1.5-6.3
		c1-1.8,2.3-3.3,4-4.3c1.7-1,3.6-1.5,5.7-1.5c1.7,0,3.3,0.3,4.7,1c1.4,0.6,2.6,1.6,3.6,2.7c1,1.2,1.6,2.6,2,4.2h-3.5
		c-0.5-1.5-1.3-2.6-2.5-3.4c-1.2-0.8-2.6-1.2-4.3-1.2c-1.4,0-2.7,0.4-3.9,1.1c-1.2,0.7-2.1,1.8-2.8,3.1c-0.7,1.3-1,2.9-1,4.6
		c0,1.7,0.3,3.3,1,4.6c0.7,1.3,1.6,2.4,2.8,3.1c1.2,0.7,2.5,1.1,3.9,1.1c1.7,0,3.1-0.4,4.3-1.3s2-2,2.5-3.6h3.5
		c-0.4,1.7-1,3.1-2,4.4c-1,1.2-2.1,2.2-3.6,2.8C356.2,438.2,354.6,438.5,352.9,438.5z"/>
	<path class="st3" d="M372,438v-20h-7.9v-3.3h19.3v3.3h-7.9v20H372z"/>
	<path class="st3" d="M386.6,447.3v-3.3h4.4c0.4,0,0.8-0.1,1-0.4c0.3-0.3,0.5-0.6,0.6-1l1.3-4l0,2.4l-10-26.3h3.7l7.2,19.3h0.9
		l6.5-19.3h3.7l-10.5,29.3c-0.4,1.1-0.9,1.9-1.6,2.5c-0.7,0.5-1.6,0.8-2.8,0.8H386.6z"/>
	<path class="st3" d="M419.9,447.3v-10.6l1.3,1.3h-2c-2.4,0-4.5-0.5-6.3-1.4c-1.8-1-3.2-2.3-4.1-4.1c-1-1.8-1.5-3.8-1.5-6.1
		c0-2.3,0.5-4.3,1.5-6.1s2.4-3.1,4.1-4.1c1.8-1,3.9-1.4,6.3-1.4h2l-1.3,1.3v-10.6h3.5V416l-1.3-1.3h2c2.4,0,4.5,0.5,6.3,1.4
		c1.8,1,3.2,2.3,4.1,4.1c1,1.8,1.5,3.8,1.5,6.1c0,2.3-0.5,4.3-1.5,6.1c-1,1.8-2.4,3.1-4.1,4.1c-1.8,1-3.9,1.4-6.3,1.4h-2l1.3-1.3
		v10.6H419.9z M419.9,436v-19.3l1.3,1.3h-2c-1.8,0-3.3,0.3-4.5,1c-1.3,0.7-2.2,1.7-2.9,2.9c-0.7,1.3-1,2.7-1,4.4
		c0,1.7,0.3,3.2,1,4.4c0.7,1.3,1.6,2.2,2.9,2.9c1.3,0.7,2.8,1,4.5,1h2L419.9,436z M423.4,436l-1.3-1.3h2c1.8,0,3.3-0.3,4.5-1
		c1.3-0.7,2.2-1.7,2.9-2.9c0.7-1.3,1-2.7,1-4.4c0-1.7-0.3-3.2-1-4.4c-0.7-1.3-1.6-2.2-2.9-2.9c-1.3-0.7-2.8-1-4.5-1h-2l1.3-1.3V436z
		"/>
	<path class="st3" d="M436.7,438l7.9-11.9l-7.7-11.4h4.2l5.8,8.8h0.9l5.8-8.8h4.2l-7.7,11.4l7.9,11.9h-4.2l-6-9.3h-0.9l-6,9.3H436.7
		z"/>
	<path class="st3" d="M479.9,443.6V438h-18.6v-23.3h3.5v20h11.9v-20h3.5v20h3.3v8.8H479.9z"/>
	<path class="st3" d="M500.9,429c-1,0.7-2.1,1.2-3.1,1.4c-1.1,0.3-2.3,0.4-3.6,0.4c-2.8,0-4.9-0.7-6.3-2.2c-1.4-1.5-2.1-3.7-2.1-6.6
		v-7.2h3.5v7.2c0,1.9,0.4,3.3,1.3,4.2c0.9,0.9,2.2,1.4,4,1.4c1.2,0,2.4-0.2,3.3-0.5c1-0.3,2-0.9,2.9-1.6v-10.7h3.5V438h-3.5V429z"/>
	<path class="st3" d="M510.4,438v-23.3h3.5v20h9.5v-20h3.5v20h9.5v-20h3.5V438H510.4z"/>
	<path class="st3" d="M575.3,443.6V438H546v-23.3h3.5v20h9.5v-20h3.5v20h9.5v-20h3.5v20h3.3v8.8H575.3z"/>
	<path class="st3" d="M268.7,475v-20h-5.8v-3.3h9.3v7.9h7c1.5,0,2.9,0.3,4.1,1c1.2,0.7,2.1,1.6,2.8,2.7c0.7,1.2,1,2.5,1,3.9
		c0,1.5-0.3,2.8-1,3.9c-0.7,1.2-1.6,2.1-2.8,2.7c-1.2,0.7-2.6,1-4.1,1H268.7z M279.2,471.8c1.3,0,2.3-0.4,3.2-1.3
		c0.8-0.8,1.3-1.9,1.3-3.2c0-1.3-0.4-2.3-1.3-3.2c-0.8-0.8-1.9-1.3-3.2-1.3h-7v8.8H279.2z"/>
	<path class="st3" d="M291.3,475v-23.3h3.5v7.9h6.3c1.5,0,2.9,0.3,4.1,1c1.2,0.7,2.1,1.6,2.8,2.7c0.7,1.2,1,2.5,1,3.9
		c0,1.5-0.3,2.8-1,3.9c-0.7,1.2-1.6,2.1-2.8,2.7c-1.2,0.7-2.6,1-4.1,1H291.3z M301,471.8c1.3,0,2.3-0.4,3.2-1.3s1.3-1.9,1.3-3.2
		c0-1.3-0.4-2.3-1.3-3.2s-1.9-1.3-3.2-1.3h-6.3v8.8H301z M312.4,475v-23.3h3.5V475H312.4z"/>
	<path class="st3" d="M322,475v-23.3h3.5v7.9h7.2c1.5,0,2.9,0.3,4.1,1s2.1,1.6,2.8,2.7c0.7,1.2,1,2.5,1,3.9c0,1.5-0.3,2.8-1,3.9
		c-0.7,1.2-1.6,2.1-2.8,2.7s-2.6,1-4.1,1H322z M332.7,471.8c1.3,0,2.3-0.4,3.2-1.3s1.3-1.9,1.3-3.2c0-1.3-0.4-2.3-1.3-3.2
		s-1.9-1.3-3.2-1.3h-7.2v8.8H332.7z"/>
	<path class="st3" d="M353.4,475.5c-1.7,0-3.3-0.3-4.7-1c-1.4-0.6-2.6-1.6-3.6-2.7c-1-1.2-1.6-2.6-2-4.2h3.5
		c0.5,1.5,1.3,2.6,2.6,3.4c1.2,0.8,2.6,1.2,4.2,1.2c1.3,0,2.5-0.3,3.6-0.9c1.1-0.6,2-1.4,2.7-2.5c0.7-1.1,1.1-2.4,1.3-3.8h-10.5
		v-3.3h10.5c-0.2-1.5-0.6-2.7-1.3-3.8c-0.7-1.1-1.6-1.9-2.7-2.5c-1.1-0.6-2.3-0.9-3.6-0.9c-1.6,0-2.9,0.4-4.2,1.2s-2.1,1.9-2.6,3.2
		h-3.5c0.4-1.6,1-2.9,2-4c1-1.1,2.2-2,3.6-2.7c1.4-0.6,3-1,4.6-1c2.1,0,4,0.5,5.7,1.5c1.7,1,3,2.5,4,4.3c1,1.8,1.5,3.9,1.5,6.3
		c0,2.4-0.5,4.5-1.5,6.3c-1,1.8-2.3,3.3-4,4.3C357.4,475,355.5,475.5,353.4,475.5z"/>
	<path class="st3" d="M386.9,475.5c-1.9,0-3.6-0.4-5.1-1.3s-2.8-2.1-3.8-3.7c-1-1.6-1.6-3.4-1.8-5.5h-3.5v10h-3.5v-23.3h3.5v10h3.5
		c0.2-2.1,0.8-3.9,1.8-5.5c1-1.6,2.3-2.8,3.8-3.7c1.5-0.9,3.2-1.3,5.1-1.3c2,0,3.8,0.5,5.5,1.5c1.6,1,2.9,2.5,3.8,4.3
		c0.9,1.8,1.4,3.9,1.4,6.3c0,2.4-0.5,4.5-1.4,6.3c-0.9,1.8-2.2,3.3-3.8,4.3C390.7,475,388.9,475.5,386.9,475.5z M386.9,472.2
		c1.3,0,2.5-0.4,3.6-1.1c1.1-0.7,2-1.8,2.6-3.1s1-2.9,1-4.6c0-1.7-0.3-3.3-1-4.6s-1.5-2.4-2.6-3.1c-1.1-0.7-2.3-1.1-3.6-1.1
		c-1.3,0-2.5,0.4-3.6,1.1c-1.1,0.7-2,1.8-2.6,3.1c-0.7,1.3-1,2.9-1,4.6c0,1.7,0.3,3.3,1,4.6c0.7,1.3,1.5,2.4,2.6,3.1
		C384.3,471.9,385.5,472.2,386.9,472.2z"/>
	<path class="st3" d="M400.4,475l9.6-9.6v1.3h-1.5c-1.5,0-2.8-0.3-3.9-0.9c-1.2-0.6-2.1-1.5-2.7-2.6c-0.7-1.1-1-2.4-1-3.9
		c0-1.5,0.3-2.8,1-3.9c0.7-1.1,1.6-2,2.7-2.6c1.2-0.6,2.5-0.9,3.9-0.9h10.9V475H416v-8.4h-2.8l-8.4,8.4H400.4z M408.5,463.4h7.4V455
		h-7.4c-1.2,0-2.2,0.4-3,1.2c-0.8,0.8-1.2,1.8-1.2,3c0,1.2,0.4,2.2,1.2,3C406.3,463,407.3,463.4,408.5,463.4z"/>
	<path class="st3" d="M277.6,549.5c-2.3,0-4.4-0.7-6.3-2c-1.9-1.3-3.4-3.2-4.6-5.7c-1.1-2.5-1.7-5.5-1.7-9s0.6-6.5,1.7-9
		c1.1-2.5,2.7-4.4,4.6-5.7c1.9-1.3,4-2,6.3-2c2.3,0,4.4,0.7,6.3,2s3.4,3.2,4.6,5.7c1.1,2.5,1.7,5.5,1.7,9s-0.6,6.5-1.7,9
		c-1.1,2.5-2.7,4.4-4.6,5.7C282,548.8,279.8,549.5,277.6,549.5z M277.6,546c1.6,0,3-0.5,4.4-1.5c1.3-1,2.4-2.5,3.2-4.5
		c0.8-2,1.2-4.4,1.2-7.2s-0.4-5.2-1.2-7.2s-1.9-3.5-3.2-4.5c-1.3-1-2.8-1.5-4.4-1.5s-3,0.5-4.4,1.5c-1.3,1-2.4,2.5-3.2,4.5
		c-0.8,2-1.2,4.4-1.2,7.2s0.4,5.2,1.2,7.2c0.8,2,1.9,3.5,3.2,4.5C274.5,545.5,276,546,277.6,546z"/>
	<path class="st3" d="M300.3,549v-25.6h-7v-3.3h5.6c0.5,0,0.8-0.1,1-0.3c0.2-0.2,0.3-0.6,0.3-1v-2.3h3.7V549H300.3z"/>
	<path class="st3" d="M309.9,549v-3l13.3-14.2c1-1.1,1.7-2,2.1-2.9c0.4-0.9,0.7-1.9,0.7-3.1c0-1.2-0.3-2.3-0.8-3.3
		c-0.5-0.9-1.3-1.7-2.2-2.2c-0.9-0.5-2-0.8-3.3-0.8c-1.1,0-2.2,0.3-3.2,0.9c-1,0.6-1.7,1.4-2.3,2.5c-0.6,1.1-0.8,2.3-0.8,3.6h-3.7
		c0-2,0.4-3.8,1.3-5.4c0.9-1.6,2-2.8,3.6-3.7c1.5-0.9,3.2-1.3,5.2-1.3s3.6,0.4,5.2,1.2c1.5,0.8,2.7,2,3.6,3.4
		c0.9,1.5,1.3,3.2,1.3,5.1c0,1.3-0.2,2.4-0.5,3.4c-0.3,1-0.8,1.9-1.3,2.7c-0.6,0.8-1.3,1.6-2.1,2.5l-10.5,10.9v0.2h15.1v3.5H309.9z"
		/>
	<path class="st3" d="M344.1,549.5c-2.1,0-4-0.4-5.6-1.2c-1.6-0.8-2.9-1.9-3.8-3.3s-1.3-2.9-1.3-4.5h3.7c0,1,0.3,2,0.8,2.8
		c0.6,0.9,1.4,1.5,2.4,2c1.1,0.5,2.3,0.7,3.7,0.7c1.4,0,2.6-0.3,3.6-0.8s1.9-1.2,2.5-2.1s0.9-1.9,0.9-3c0-1.8-0.6-3.2-1.9-4.3
		c-1.3-1.1-3-1.7-5-1.7H342v-3.5h2.1c1.4,0,2.5-0.3,3.5-0.8s1.7-1.2,2.2-2.1c0.5-0.9,0.8-1.8,0.8-2.9c0-1-0.3-1.9-0.8-2.7
		s-1.3-1.5-2.3-2c-1-0.5-2.1-0.7-3.4-0.7c-1.2,0-2.3,0.2-3.3,0.7c-1,0.5-1.8,1.2-2.3,2c-0.6,0.8-0.9,1.7-0.9,2.6h-3.7
		c0-1.6,0.4-3,1.3-4.3c0.9-1.3,2.1-2.4,3.7-3.3c1.6-0.8,3.3-1.2,5.3-1.2c2,0,3.8,0.4,5.3,1.2s2.8,1.9,3.6,3.3
		c0.9,1.4,1.3,2.9,1.3,4.6c0,1.2-0.3,2.4-0.8,3.3c-0.5,1-1.2,1.8-2,2.5c-0.8,0.7-1.6,1.1-2.4,1.4v0.2c1.4,0.5,2.7,1.4,3.9,2.7
		c1.1,1.4,1.7,3,1.7,4.9c0,1.7-0.5,3.3-1.4,4.7c-0.9,1.4-2.2,2.5-3.8,3.4C348,549.1,346.1,549.5,344.1,549.5z"/>
	<path class="st3" d="M372.9,549v-7.4h-15.1v-2.8l12.8-22.3h6v21.9h4.2v3.3h-4.2v7.4H372.9z M362.5,538.3h10.5v-17H372l-9.5,16.7
		V538.3z"/>
	<path class="st3" d="M394.3,549.5c-1.8,0-3.5-0.4-5-1.1c-1.6-0.7-2.8-1.8-3.8-3.1c-1-1.4-1.6-3-1.8-4.9h3.7c0.2,1.1,0.7,2.1,1.3,3
		c0.7,0.8,1.5,1.5,2.5,1.9c1,0.4,2,0.7,3.2,0.7c1.4,0,2.6-0.3,3.8-1c1.1-0.7,2-1.6,2.7-2.7c0.7-1.1,1-2.4,1-3.9
		c0-1.5-0.3-2.8-0.9-3.9c-0.6-1.1-1.5-2-2.6-2.7c-1.1-0.6-2.3-1-3.7-1c-1.3,0-2.5,0.2-3.6,0.7c-1.1,0.5-2,1.2-2.7,2.1h-4l1.9-17.2
		h17.4v3.5h-14.3l-1,9.5h0.2c0.8-0.7,1.8-1.2,2.9-1.6c1.1-0.4,2.3-0.5,3.6-0.5c1.9,0,3.6,0.5,5.2,1.4c1.6,1,2.9,2.3,3.8,4
		s1.4,3.6,1.4,5.6c0,2.1-0.5,4-1.4,5.7s-2.3,3-4,4C398.4,549,396.5,549.5,394.3,549.5z"/>
	<path class="st3" d="M420.4,549.5c-2,0-3.9-0.5-5.6-1.5c-1.7-1-3.1-2.3-4-4c-1-1.7-1.5-3.5-1.5-5.5c0-1.1,0.2-2.2,0.6-3.4
		c0.4-1.2,0.8-2.1,1.3-2.9l10.2-15.8h4.2l-7.7,12.1h0.2c0.4-0.1,0.8-0.2,1.4-0.3c0.6-0.1,1.1-0.1,1.6-0.1c1.9,0,3.7,0.4,5.3,1.3
		c1.6,0.9,2.9,2.1,3.8,3.7c0.9,1.6,1.4,3.4,1.4,5.4c0,2-0.5,3.8-1.5,5.5c-1,1.7-2.3,3-4,4C424.3,549,422.4,549.5,420.4,549.5z
		 M420.4,546c1.4,0,2.6-0.3,3.8-1c1.1-0.7,2-1.6,2.7-2.7s1-2.4,1-3.8c0-1.4-0.3-2.6-1-3.8c-0.7-1.1-1.6-2-2.7-2.7
		c-1.1-0.7-2.4-1-3.8-1c-1.4,0-2.6,0.3-3.8,1s-2,1.6-2.7,2.7c-0.7,1.1-1,2.4-1,3.8c0,1.4,0.3,2.6,1,3.8s1.6,2,2.7,2.7
		S419,546,420.4,546z"/>
	<path class="st3" d="M437.1,549l11.4-29.1h-16.3v-3.5h20.5v3L441.1,549H437.1z"/>
	<path class="st3" d="M466.7,549.5c-2.1,0-4-0.4-5.6-1.3c-1.6-0.9-2.9-2-3.8-3.4c-0.9-1.4-1.3-3-1.3-4.6c0-1.3,0.3-2.5,0.8-3.6
		c0.5-1.1,1.2-2,2-2.7c0.8-0.7,1.6-1.2,2.4-1.6V532c-1.1-0.5-2.1-1.4-3-2.7c-0.9-1.2-1.4-2.7-1.4-4.3c0-1.7,0.4-3.2,1.3-4.6
		c0.9-1.4,2-2.5,3.6-3.3s3.2-1.2,5.1-1.2c1.9,0,3.6,0.4,5.1,1.2s2.7,1.9,3.6,3.3s1.3,2.9,1.3,4.6c0,1.6-0.5,3.1-1.4,4.3
		c-0.9,1.2-1.9,2.1-3,2.7v0.2c1.3,0.5,2.5,1.5,3.5,2.9c1.1,1.4,1.6,3.1,1.6,5c0,1.6-0.4,3.1-1.3,4.6c-0.9,1.4-2.1,2.6-3.8,3.4
		C470.6,549,468.8,549.5,466.7,549.5z M466.7,546c1.3,0,2.5-0.3,3.6-0.8s1.9-1.2,2.5-2.2c0.6-0.9,0.9-1.9,0.9-3.1
		c0-1.1-0.3-2.2-0.9-3.1c-0.6-0.9-1.4-1.6-2.5-2.2c-1.1-0.5-2.3-0.8-3.6-0.8s-2.5,0.3-3.6,0.8c-1.1,0.5-1.9,1.2-2.5,2.2
		c-0.6,0.9-0.9,1.9-0.9,3.1c0,1.1,0.3,2.2,0.9,3.1c0.6,0.9,1.4,1.6,2.5,2.2S465.4,546,466.7,546z M466.7,530.6
		c1.3,0,2.4-0.2,3.3-0.7c0.9-0.5,1.7-1.2,2.2-2c0.5-0.9,0.8-1.8,0.8-2.8s-0.3-2-0.8-2.8c-0.5-0.9-1.2-1.5-2.2-2
		c-0.9-0.5-2.1-0.7-3.3-0.7s-2.4,0.2-3.3,0.7c-0.9,0.5-1.7,1.2-2.2,2c-0.5,0.9-0.8,1.8-0.8,2.8s0.3,2,0.8,2.8c0.5,0.9,1.2,1.5,2.2,2
		C464.3,530.4,465.4,530.6,466.7,530.6z"/>
	<path class="st3" d="M487.1,549l7.7-12.1h-0.2c-0.4,0.1-0.8,0.2-1.4,0.3c-0.6,0.1-1.1,0.1-1.6,0.1c-1.9,0-3.7-0.4-5.3-1.3
		c-1.6-0.9-2.9-2.1-3.8-3.7c-0.9-1.6-1.4-3.4-1.4-5.4c0-2,0.5-3.8,1.5-5.5s2.3-3,4-4s3.6-1.5,5.6-1.5s3.9,0.5,5.6,1.5
		c1.7,1,3.1,2.3,4,4s1.5,3.5,1.5,5.5c0,1.1-0.2,2.2-0.6,3.4c-0.4,1.2-0.8,2.1-1.3,2.9L491.3,549H487.1z M492.3,534.4
		c1.4,0,2.6-0.3,3.8-1c1.1-0.7,2-1.6,2.7-2.7c0.7-1.1,1-2.4,1-3.8c0-1.4-0.3-2.6-1-3.8c-0.7-1.1-1.6-2-2.7-2.7s-2.4-1-3.8-1
		c-1.4,0-2.6,0.3-3.8,1c-1.1,0.7-2,1.6-2.7,2.7c-0.7,1.1-1,2.4-1,3.8c0,1.4,0.3,2.6,1,3.8c0.7,1.1,1.6,2,2.7,2.7
		C489.6,534,490.9,534.4,492.3,534.4z"/>
	<path class="st3" d="M508.5,549v-32.6h6.5l14,28.1h0.9v-28.1h3.7V549h-6.5l-14-28.1h-0.9V549H508.5z M544.8,542.5
		c-1.3,0-2.5-0.3-3.6-0.9c-1.1-0.6-2-1.5-2.6-2.6c-0.7-1.1-1-2.3-1-3.7c0-1.4,0.3-2.6,1-3.7c0.7-1.1,1.5-2,2.6-2.6
		c1.1-0.6,2.3-0.9,3.6-0.9s2.5,0.3,3.6,0.9c1.1,0.6,2,1.5,2.6,2.6c0.7,1.1,1,2.3,1,3.7c0,1.4-0.3,2.6-1,3.7c-0.7,1.1-1.5,2-2.6,2.6
		C547.3,542.2,546.1,542.5,544.8,542.5z M537.8,549v-3.3h14v3.3H537.8z M544.8,539.5c0.7,0,1.4-0.2,2-0.5c0.6-0.3,1.1-0.8,1.4-1.5
		s0.5-1.4,0.5-2.2s-0.2-1.6-0.5-2.2c-0.4-0.6-0.8-1.1-1.4-1.5c-0.6-0.3-1.3-0.5-2-0.5c-0.7,0-1.4,0.2-2,0.5
		c-0.6,0.3-1.1,0.8-1.4,1.5c-0.4,0.6-0.5,1.4-0.5,2.2s0.2,1.6,0.5,2.2c0.4,0.6,0.8,1.1,1.4,1.5C543.5,539.3,544.1,539.5,544.8,539.5
		z"/>
	<path class="st3" d="M563,530.4c-1.3,0-2.5-0.3-3.6-0.9c-1.1-0.6-2-1.5-2.6-2.6c-0.7-1.1-1-2.3-1-3.7s0.3-2.6,1-3.7
		c0.7-1.1,1.5-2,2.6-2.6c1.1-0.6,2.3-0.9,3.6-0.9s2.5,0.3,3.6,0.9c1.1,0.6,2,1.5,2.6,2.6c0.7,1.1,1,2.3,1,3.7s-0.3,2.6-1,3.7
		c-0.7,1.1-1.5,2-2.6,2.6C565.5,530.1,564.3,530.4,563,530.4z M563,527.4c0.7,0,1.4-0.2,2-0.5s1.1-0.8,1.4-1.5
		c0.4-0.6,0.5-1.4,0.5-2.2s-0.2-1.6-0.5-2.2c-0.4-0.6-0.8-1.1-1.4-1.5s-1.3-0.5-2-0.5c-0.7,0-1.4,0.2-2,0.5
		c-0.6,0.3-1.1,0.8-1.4,1.5c-0.4,0.6-0.5,1.4-0.5,2.2s0.2,1.6,0.5,2.2c0.4,0.6,0.8,1.1,1.4,1.5C561.6,527.2,562.3,527.4,563,527.4z
		 M559.7,549l20.2-32.6h3.7L563.4,549H559.7z M580.4,549.5c-1.3,0-2.5-0.3-3.6-0.9c-1.1-0.6-2-1.5-2.6-2.6s-1-2.3-1-3.7
		c0-1.4,0.3-2.6,1-3.7c0.7-1.1,1.5-2,2.6-2.6c1.1-0.6,2.3-0.9,3.6-0.9c1.3,0,2.5,0.3,3.6,0.9c1.1,0.6,2,1.5,2.6,2.6
		c0.7,1.1,1,2.3,1,3.7c0,1.4-0.3,2.6-1,3.7c-0.7,1.1-1.5,2-2.6,2.6C582.9,549.2,581.7,549.5,580.4,549.5z M580.4,546.5
		c0.7,0,1.4-0.2,2-0.5c0.6-0.3,1.1-0.8,1.4-1.5c0.4-0.6,0.5-1.4,0.5-2.2c0-0.8-0.2-1.6-0.5-2.2c-0.4-0.6-0.8-1.1-1.4-1.5
		c-0.6-0.3-1.3-0.5-2-0.5c-0.7,0-1.4,0.2-2,0.5c-0.6,0.3-1.1,0.8-1.4,1.5c-0.4,0.6-0.5,1.4-0.5,2.2c0,0.8,0.2,1.6,0.5,2.2
		c0.4,0.6,0.8,1.1,1.4,1.5C579,546.3,579.7,546.5,580.4,546.5z"/>
	<path class="st3" d="M598.3,538.8c0-1.2,0.2-2.3,0.5-3.2c0.3-0.9,0.9-1.6,1.6-2.3c0.7-0.7,1.7-1.3,3-2c0.8-0.4,1.4-0.9,1.9-1.4
		c0.5-0.5,0.9-1.2,1.2-1.9c0.3-0.7,0.4-1.6,0.4-2.5c0-1.1-0.3-2.2-0.9-3.1c-0.6-0.9-1.3-1.6-2.3-2.2c-1-0.5-2.1-0.8-3.3-0.8
		c-1.3,0-2.4,0.2-3.4,0.7c-1,0.5-1.8,1.2-2.3,2c-0.5,0.9-0.8,1.8-0.8,2.8h-3.7c0-1.7,0.4-3.2,1.3-4.6c0.9-1.4,2.1-2.5,3.6-3.3
		s3.3-1.2,5.3-1.2c2,0,3.8,0.4,5.3,1.3s2.8,2,3.6,3.4c0.9,1.5,1.3,3.1,1.3,4.8c0,2-0.5,3.7-1.4,5.2s-2.2,2.6-4,3.4
		c-1.3,0.7-2.2,1.3-2.6,2c-0.4,0.7-0.7,1.6-0.7,2.6v2.8h-3.7V538.8z M598.1,549v-4.2h4.2v4.2H598.1z"/>
	<path class="st3" d="M615.8,549v-4.2h4.2v4.2H615.8z M616.5,541.6l-0.5-11.2v-14h3.7v14l-0.5,11.2H616.5z"/>
	<path class="st3" d="M630,533.4l-2.6-2.1l4.2-5.4l-6.5-1.9l0.9-3l6.5,2.3l-0.2-7h3.3l-0.2,7l6.5-2.3l0.9,3l-6.5,1.9l4.2,5.4
		l-2.6,2.1l-4-5.8L630,533.4z"/>
</g>
<g>
	<path class="st1" d="M1020.7,747.9l13.5-35.7h5l13.5,35.7h-3.4l-12.1-32.4h-1l-12.2,32.4H1020.7z M1027.2,738.3v-3h19.2v3H1027.2z"
		/>
	<path class="st1" d="M1058,747.9v-35.7h23.5v3h-20.3v12.3h12.3c1.8,0,3.5,0.4,5,1.3c1.5,0.9,2.6,2.1,3.5,3.6
		c0.8,1.5,1.3,3.3,1.3,5.3c0,2-0.4,3.8-1.3,5.3c-0.9,1.5-2,2.7-3.5,3.6c-1.5,0.9-3.1,1.3-5,1.3H1058z M1073.5,744.9
		c1.3,0,2.4-0.3,3.4-0.9c1-0.6,1.8-1.4,2.3-2.5c0.5-1.1,0.8-2.3,0.8-3.8c0-2.1-0.6-3.9-1.8-5.2s-2.8-2-4.7-2h-12.3v14.4H1073.5z"/>
	<path class="st1" d="M1090.4,747.9v-35.7h14.7c1.8,0,3.4,0.4,4.9,1.3c1.5,0.9,2.6,2,3.5,3.5c0.8,1.5,1.3,3.1,1.3,4.9
		c0,1.3-0.2,2.5-0.7,3.5c-0.4,1.1-1,2-1.7,2.7c-0.7,0.7-1.4,1.3-2.1,1.6v0.3c1.3,0.5,2.4,1.4,3.4,2.9s1.5,3.2,1.5,5.3
		c0,1.8-0.4,3.5-1.3,5s-2,2.6-3.5,3.5c-1.5,0.9-3.1,1.3-5,1.3H1090.4z M1105.1,728.7c1.2,0,2.3-0.3,3.3-0.9c1-0.6,1.8-1.4,2.3-2.4
		c0.6-1,0.8-2.1,0.8-3.4c0-1.3-0.3-2.4-0.8-3.4c-0.6-1-1.3-1.8-2.3-2.4c-1-0.6-2.1-0.9-3.3-0.9h-11.5v13.4H1105.1z M1105.6,744.9
		c1.3,0,2.4-0.3,3.3-0.9c1-0.6,1.7-1.4,2.3-2.4c0.6-1,0.8-2.2,0.8-3.5c0-1.9-0.6-3.5-1.8-4.8c-1.2-1.3-2.8-1.9-4.6-1.9h-12v13.4
		H1105.6z"/>
	<path class="st1" d="M1123.1,747.9v-35.7h21.8v3h-18.6v32.7H1123.1z"/>
	<path class="st1" d="M1144.4,755.2v-10.3h0.6c1.4,0,2.5-0.4,3.2-1.1c0.7-0.7,1.2-1.9,1.3-3.5l2.4-28.1h21.4v32.7h3.9v10.3h-3.2
		v-7.3h-26.4v7.3H1144.4z M1150.7,744.9h19.4v-29.7h-15.2l-2.2,25.1c-0.1,1-0.3,1.8-0.5,2.4c-0.2,0.6-0.5,1.1-0.8,1.5
		C1151.1,744.6,1150.9,744.8,1150.7,744.9z"/>
	<path class="st1" d="M1183.3,747.9v-35.7h22.5v3h-19.3v13.2h18.3v3h-18.3v13.5h19.3v3H1183.3z"/>
	<path class="st1" d="M1213.2,747.9v-35.7h22.5v3h-19.3v13.2h18.3v3h-18.3v13.5h19.3v3H1213.2z M1218.5,707.1v-3.5h3.5v3.5H1218.5z
		 M1227.4,707.1v-3.5h3.5v3.5H1227.4z"/>
	<path class="st1" d="M1238.9,747.9l15.1-18.1l-14.1-17.6h3.9l13.5,16.9v-16.9h3.2v16.9l13.5-16.9h3.9l-14.1,17.6l15.1,18.1h-3.9
		l-14.5-17.6v17.6h-3.2v-17.6l-14.5,17.6H1238.9z"/>
	<path class="st1" d="M1294.2,748.5c-2.6,0-4.8-0.5-6.8-1.4c-1.9-0.9-3.4-2.1-4.4-3.7c-1-1.6-1.6-3.3-1.6-5.2h3.2
		c0,1.3,0.4,2.5,1.1,3.6c0.8,1.1,1.9,2,3.3,2.6c1.4,0.7,3.1,1,5.1,1c1.9,0,3.5-0.3,5-1c1.5-0.7,2.6-1.5,3.3-2.6
		c0.8-1.1,1.1-2.3,1.1-3.6c0-1.2-0.3-2.3-1-3.4s-1.6-1.8-2.8-2.5c-1.2-0.6-2.6-0.9-4.2-0.9h-3.8v-3h3.8c1.4,0,2.6-0.3,3.7-0.9
		c1.1-0.6,2-1.4,2.6-2.4c0.6-1,0.9-2.1,0.9-3.3c0-1.4-0.4-2.6-1.1-3.7c-0.7-1.1-1.7-1.9-3.1-2.6c-1.3-0.6-2.9-0.9-4.6-0.9
		c-1.8,0-3.3,0.3-4.6,1c-1.3,0.7-2.3,1.5-3.1,2.6c-0.7,1.1-1.1,2.3-1.1,3.6h-3.2c0-1.9,0.5-3.6,1.5-5.2c1-1.6,2.4-2.8,4.2-3.7
		c1.8-0.9,3.9-1.4,6.4-1.4c2.3,0,4.4,0.5,6.3,1.4c1.8,0.9,3.2,2.2,4.2,3.7c1,1.5,1.5,3.3,1.5,5.1c0,2-0.6,3.7-1.7,5.1
		c-1.2,1.4-2.5,2.3-4,2.9v0.3c1.7,0.4,3.2,1.4,4.5,2.8c1.3,1.4,1.9,3.2,1.9,5.3c0,1.9-0.5,3.6-1.6,5.2c-1,1.6-2.5,2.8-4.4,3.7
		C1299.1,748,1296.8,748.5,1294.2,748.5z"/>
	<path class="st1" d="M1314.3,747.9v-35.7h3.2v32h1l17.7-32h5.6v35.7h-3.2v-32h-1l-17.7,32H1314.3z"/>
	<path class="st1" d="M1350.5,747.9v-35.7h3.2v32h1l17.7-32h5.6v35.7h-3.2v-32h-1l-17.7,32H1350.5z M1364.2,708.1
		c-1.9,0-3.4-0.6-4.7-1.7c-1.3-1.1-2-2.6-2.1-4.4h2.7c0.1,1.2,0.6,2.1,1.3,2.8s1.7,1,2.9,1c1.2,0,2.2-0.3,2.9-1s1.2-1.6,1.3-2.8h2.7
		c-0.1,1.8-0.8,3.3-2.1,4.4S1366.1,708.1,1364.2,708.1z"/>
	<path class="st1" d="M1386.7,747.9v-35.7h3.2v16.9l16.1-16.9h4.1l-16.8,17.6l17.9,18.1h-4.1l-17-17.4v17.4H1386.7z"/>
	<path class="st1" d="M1411.2,748.2V745h1.6c1.2,0,2.2-0.4,3-1.1c0.7-0.7,1.2-1.9,1.4-3.5l2.3-28.2h21.5v35.7h-3.2v-32.7h-15.3
		l-2.1,25.2c-0.2,2.7-1,4.6-2.2,5.9c-1.2,1.3-3,1.9-5.3,1.9H1411.2z"/>
	<path class="st1" d="M1449.8,747.9v-35.7h6.1l11.8,32.2h1l11.8-32.2h6.1v35.7h-3.2v-31.6h-1l-11.7,31.6h-5.1l-11.6-31.6h-1v31.6
		H1449.8z"/>
	<path class="st1" d="M1024.8,797.7v-35.7h3.2v16.1h21v-16.1h3.2v35.7h-3.2v-16.6h-21v16.6H1024.8z"/>
	<path class="st1" d="M1076.3,798.2c-3.1,0-5.9-0.8-8.5-2.3c-2.6-1.5-4.6-3.7-6.1-6.5c-1.5-2.8-2.2-6-2.2-9.5c0-3.6,0.7-6.8,2.2-9.5
		c1.5-2.8,3.5-5,6.1-6.5c2.6-1.5,5.4-2.3,8.5-2.3c3.1,0,5.9,0.8,8.4,2.3c2.6,1.5,4.6,3.7,6.1,6.5c1.5,2.8,2.2,6,2.2,9.5
		c0,3.6-0.7,6.8-2.2,9.5c-1.5,2.8-3.5,5-6.1,6.5C1082.2,797.4,1079.3,798.2,1076.3,798.2z M1076.3,795.2c2.5,0,4.8-0.6,6.8-1.9
		c2.1-1.3,3.7-3.1,4.9-5.4c1.2-2.3,1.8-5,1.8-8c0-3-0.6-5.7-1.8-8c-1.2-2.3-2.9-4.1-4.9-5.4c-2.1-1.3-4.4-1.9-6.8-1.9
		c-2.5,0-4.8,0.6-6.9,1.9c-2.1,1.3-3.7,3.1-4.9,5.4c-1.2,2.3-1.8,5-1.8,8c0,3,0.6,5.7,1.8,8c1.2,2.3,2.9,4.1,4.9,5.4
		C1071.5,794.5,1073.8,795.2,1076.3,795.2z"/>
	<path class="st1" d="M1100.4,797.7v-35.7h27.5v35.7h-3.2v-32.7h-21v32.7H1100.4z"/>
	<path class="st1" d="M1136.6,797.7v-35.7h14.9c1.9,0,3.7,0.5,5.2,1.4s2.8,2.2,3.7,3.8c0.9,1.6,1.4,3.5,1.4,5.6c0,2-0.5,3.9-1.4,5.5
		c-0.9,1.6-2.1,2.9-3.7,3.8c-1.5,0.9-3.3,1.4-5.2,1.4h-11.7v14.2H1136.6z M1151.5,780.4c1.3,0,2.5-0.3,3.6-0.9
		c1.1-0.6,1.9-1.5,2.5-2.7c0.6-1.2,0.9-2.5,0.9-4c0-2.3-0.7-4.2-2-5.6c-1.3-1.4-3-2.1-5-2.1h-11.7v15.5H1151.5z"/>
	<path class="st1" d="M1184.3,798.2c-3.1,0-5.9-0.8-8.5-2.3c-2.6-1.5-4.6-3.7-6.1-6.5c-1.5-2.8-2.2-6-2.2-9.5c0-3.6,0.7-6.8,2.2-9.5
		c1.5-2.8,3.5-5,6.1-6.5c2.6-1.5,5.4-2.3,8.5-2.3c2.5,0,4.8,0.5,6.9,1.5c2.1,1,4,2.4,5.5,4.2c1.5,1.8,2.6,3.9,3.3,6.4h-3.4
		c-0.6-1.9-1.5-3.5-2.7-4.8c-1.2-1.3-2.6-2.4-4.3-3.1c-1.7-0.7-3.4-1.1-5.3-1.1c-2.5,0-4.8,0.6-6.9,1.9c-2.1,1.3-3.7,3.1-5,5.4
		c-1.2,2.3-1.8,5-1.8,8c0,3,0.6,5.7,1.8,8c1.2,2.3,2.9,4.1,5,5.4c2.1,1.3,4.4,1.9,6.9,1.9c2.9,0,5.5-0.8,7.7-2.5
		c2.2-1.6,3.7-3.9,4.6-6.8h3.4c-0.7,2.5-1.8,4.7-3.3,6.5c-1.5,1.8-3.3,3.3-5.4,4.2C1189.1,797.7,1186.8,798.2,1184.3,798.2z"/>
	<path class="st1" d="M1214.3,797.7v-32.7h-12.1v-3h27.4v3h-12.1v32.7H1214.3z"/>
	<path class="st1" d="M1236.1,797.7v-3h4.6c0.7,0,1.3-0.1,1.7-0.4c0.4-0.3,0.8-0.7,1.1-1.4l1.9-4.4v2.1l-13.7-28.6h3.4l10.9,23h1
		l10.3-23h3.4l-14.7,32.4c-0.3,0.7-0.7,1.3-1.1,1.8c-0.4,0.5-1,0.9-1.7,1.1c-0.7,0.3-1.5,0.4-2.5,0.4H1236.1z"/>
	<path class="st1" d="M1279.9,798.7v-6.7l1.1,1.1h-2.1c-3.2,0-5.9-0.6-8.2-1.8c-2.3-1.2-4.1-2.8-5.4-4.9c-1.3-2.1-1.9-4.4-1.9-7.1
		c0-2.7,0.6-5,1.9-7.1c1.3-2.1,3.1-3.7,5.4-4.9c2.3-1.2,5.1-1.8,8.2-1.8h2.1l-1.1,1.1v-5.7h3.2v5.7l-1.1-1.1h2.1
		c3.2,0,5.9,0.6,8.2,1.8c2.3,1.2,4.1,2.8,5.4,4.9c1.3,2.1,1.9,4.4,1.9,7.1c0,2.7-0.6,5-1.9,7.1c-1.3,2.1-3.1,3.7-5.4,4.9
		c-2.3,1.2-5.1,1.8-8.2,1.8h-2.1l1.1-1.1v6.7H1279.9z M1279.9,791.3v-24.1l1.1,1.1h-2.1c-2.5,0-4.7,0.5-6.5,1.4
		c-1.8,0.9-3.3,2.2-4.3,3.9c-1,1.7-1.5,3.5-1.5,5.6c0,2.1,0.5,4,1.5,5.6c1,1.7,2.4,2.9,4.3,3.9c1.8,0.9,4,1.4,6.5,1.4h2.1
		L1279.9,791.3z M1283.1,791.3l-1.1-1.1h2.1c2.5,0,4.7-0.5,6.5-1.4c1.8-0.9,3.3-2.2,4.3-3.9c1-1.7,1.5-3.5,1.5-5.6
		c0-2.1-0.5-4-1.5-5.6c-1-1.7-2.4-2.9-4.3-3.9c-1.8-0.9-4-1.4-6.5-1.4h-2.1l1.1-1.1V791.3z"/>
	<path class="st1" d="M1300.6,797.7l12.5-18.4l-11.7-17.4h3.6l10,14.9h1.1l10-14.9h3.6l-11.7,17.4l12.5,18.4h-3.7l-10.7-15.9h-1.1
		l-10.7,15.9H1300.6z"/>
	<path class="st1" d="M1363.2,805v-7.3H1336v-35.7h3.2v32.7h20.1v-32.7h3.2v32.7h3.9V805H1363.2z"/>
	<path class="st1" d="M1393.4,781.8c-1.1,0.9-2.6,1.8-4.5,2.5c-1.9,0.7-3.9,1.1-6,1.1c-4.2,0-7.2-1-9.2-3.1c-2-2-3-5.2-3-9.5v-11
		h3.2v11c0,3.3,0.7,5.7,2.2,7.2c1.5,1.5,3.7,2.3,6.8,2.3c2.2,0,4.3-0.4,6.2-1.2c1.9-0.8,3.4-1.7,4.3-2.7v-16.6h3.2v35.7h-3.2V781.8z
		"/>
	<path class="st1" d="M1405.4,797.7v-35.7h3.2v32.7h15v-32.7h3.2v32.7h15v-32.7h3.2v35.7H1405.4z"/>
	<path class="st1" d="M1494.2,805v-7.3h-40.3v-35.7h3.2v32.7h15v-32.7h3.2v32.7h15v-32.7h3.2v32.7h3.9V805H1494.2z"/>
	<path class="st1" d="M1029,847.4v-32.7h-7.9v-3h11.1v13.6h10.5c1.9,0,3.7,0.5,5.3,1.4c1.6,1,2.9,2.3,3.8,4c0.9,1.7,1.4,3.6,1.4,5.7
		c0,2.1-0.5,4-1.4,5.6s-2.2,3-3.8,4c-1.6,1-3.4,1.5-5.3,1.5H1029z M1042.7,844.4c1.4,0,2.6-0.3,3.7-1c1.1-0.7,2-1.7,2.6-2.9
		c0.6-1.2,1-2.6,1-4.1c0-1.6-0.3-3-1-4.2c-0.6-1.2-1.5-2.2-2.6-2.9c-1.1-0.7-2.3-1-3.7-1h-10.5v16.1H1042.7z"/>
	<path class="st1" d="M1060.3,847.4v-35.7h3.2v13.6h10c1.9,0,3.7,0.5,5.3,1.4c1.6,1,2.9,2.3,3.8,4c0.9,1.7,1.4,3.6,1.4,5.7
		c0,2.1-0.5,4-1.4,5.6c-0.9,1.7-2.2,3-3.8,4c-1.6,1-3.4,1.5-5.3,1.5H1060.3z M1073.5,844.4c1.4,0,2.6-0.3,3.7-1
		c1.1-0.7,2-1.7,2.6-2.9c0.6-1.2,0.9-2.6,0.9-4.1c0-1.6-0.3-3-0.9-4.2c-0.6-1.2-1.5-2.2-2.6-2.9c-1.1-0.7-2.3-1-3.7-1h-10v16.1
		H1073.5z M1088.5,847.4v-35.7h3.2v35.7H1088.5z"/>
	<path class="st1" d="M1100.9,847.4v-35.7h3.2v13.6h11c1.9,0,3.7,0.5,5.3,1.4c1.6,1,2.9,2.3,3.8,4c0.9,1.7,1.4,3.6,1.4,5.7
		c0,2.1-0.5,4-1.4,5.6c-0.9,1.7-2.2,3-3.8,4c-1.6,1-3.4,1.5-5.3,1.5H1100.9z M1115.1,844.4c1.4,0,2.6-0.3,3.7-1
		c1.1-0.7,2-1.7,2.6-2.9c0.6-1.2,0.9-2.6,0.9-4.1c0-1.6-0.3-3-0.9-4.2c-0.6-1.2-1.5-2.2-2.6-2.9c-1.1-0.7-2.3-1-3.7-1h-11v16.1
		H1115.1z"/>
	<path class="st1" d="M1145.9,847.9c-2.5,0-4.8-0.5-7-1.5c-2.1-1-4-2.4-5.5-4.2c-1.5-1.8-2.6-3.9-3.1-6.4h3.4
		c0.6,1.9,1.5,3.5,2.7,4.8c1.2,1.3,2.6,2.4,4.2,3.1c1.6,0.7,3.4,1.1,5.3,1.1c2.4,0,4.6-0.6,6.6-1.8c2-1.2,3.6-2.8,4.8-5
		c1.2-2.1,1.9-4.5,2.1-7.2h-18.2v-3h18.2c-0.2-2.7-0.9-5.1-2.1-7.2c-1.2-2.1-2.8-3.7-4.8-4.9c-2-1.2-4.2-1.7-6.6-1.7
		c-2.9,0-5.4,0.8-7.6,2.3c-2.2,1.6-3.8,3.7-4.7,6.4h-3.4c0.6-2.3,1.7-4.4,3.3-6.2c1.5-1.8,3.4-3.1,5.5-4.1c2.1-1,4.4-1.5,6.9-1.5
		c3.1,0,6,0.8,8.6,2.3c2.6,1.5,4.6,3.7,6.1,6.5c1.5,2.8,2.2,6,2.2,9.5c0,3.6-0.7,6.8-2.2,9.5c-1.5,2.8-3.5,5-6.1,6.5
		C1151.8,847.1,1149,847.9,1145.9,847.9z"/>
	<path class="st1" d="M1194.8,847.9c-2.8,0-5.4-0.7-7.7-2.1c-2.3-1.4-4.3-3.4-5.7-6c-1.5-2.6-2.3-5.5-2.5-8.9h-5.9v16.4h-3.2v-35.7
		h3.2v16.3h5.9c0.3-3.4,1.1-6.3,2.6-8.9c1.5-2.5,3.4-4.5,5.7-5.9c2.3-1.4,4.9-2.1,7.7-2.1c2.9,0,5.6,0.8,8,2.3
		c2.4,1.5,4.4,3.7,5.8,6.5c1.4,2.8,2.1,6,2.1,9.6c0,3.6-0.7,6.8-2.1,9.6c-1.4,2.8-3.4,5-5.8,6.5
		C1200.4,847.1,1197.7,847.9,1194.8,847.9z M1194.8,844.9c2.3,0,4.5-0.6,6.4-1.9c1.9-1.3,3.5-3.1,4.6-5.4c1.1-2.3,1.7-5,1.7-8.1
		c0-3.1-0.6-5.8-1.7-8.1c-1.1-2.3-2.7-4.1-4.6-5.4c-1.9-1.3-4.1-1.9-6.4-1.9c-2.3,0-4.4,0.6-6.4,1.9c-2,1.3-3.5,3.1-4.6,5.4
		c-1.1,2.3-1.7,5-1.7,8.1c0,3.1,0.6,5.8,1.7,8.1c1.1,2.3,2.7,4.1,4.6,5.4C1190.4,844.2,1192.5,844.9,1194.8,844.9z"/>
	<path class="st1" d="M1216.1,847.4l15-15l0.3,0.9h-4.2c-1.9,0-3.6-0.5-5.2-1.4c-1.6-0.9-2.8-2.2-3.7-3.9c-0.9-1.6-1.4-3.5-1.4-5.6
		c0-2,0.5-3.9,1.4-5.5c0.9-1.7,2.1-2.9,3.7-3.9c1.6-0.9,3.3-1.4,5.2-1.4h14.9v35.7h-3.2v-14.1h-4.6l-14.1,14.1H1216.1z
		 M1227.1,830.3h11.7v-15.6h-11.7c-1.3,0-2.5,0.3-3.6,1c-1.1,0.7-1.9,1.6-2.6,2.8c-0.6,1.2-0.9,2.5-0.9,4.1s0.3,2.9,0.9,4.1
		c0.6,1.2,1.5,2.1,2.6,2.8C1224.6,829.9,1225.8,830.3,1227.1,830.3z"/>
</g>
<g>
	<path class="st2" d="M843.5,633.9V608h16.3v2.2h-14v9.5h13.2v2.2h-13.2v9.8h14v2.2H843.5z"/>
	<path class="st2" d="M864.2,633.9V608h2.3v23.7h13.2v2.2H864.2z"/>
	<path class="st2" d="M885.7,633.9v-23.7h-8.8V608h19.9v2.2H888v23.7H885.7z"/>
	<path class="st2" d="M894.9,633.9l9.8-25.9h3.6l9.8,25.9h-2.5l-8.8-23.4h-0.7l-8.8,23.4H894.9z M899.6,626.9v-2.2h13.9v2.2H899.6z"
		/>
	<path class="st2" d="M936,634.3c-1.9,0-3.6-0.4-5.1-1.1c-1.5-0.7-2.6-1.7-3.3-2.9c-0.8-1.2-1.2-2.5-1.2-4h2.3c0,1.1,0.3,2,0.8,2.9
		c0.6,0.9,1.4,1.6,2.5,2.1c1.1,0.5,2.4,0.8,3.9,0.8c2.3,0,4-0.5,5.2-1.4c1.1-0.9,1.7-2.2,1.7-3.7c0-1.2-0.4-2.2-1.2-3
		s-2-1.4-3.7-1.7l-4.6-0.9c-2.1-0.4-3.7-1.2-4.8-2.2c-1.1-1.1-1.6-2.5-1.6-4.3c0-1.4,0.3-2.6,1-3.7c0.7-1.1,1.7-1.9,3-2.6
		c1.3-0.6,2.9-0.9,4.6-0.9c1.9,0,3.6,0.4,5,1.1s2.5,1.7,3.3,2.9c0.8,1.2,1.1,2.6,1.1,4h-2.3c0-1.1-0.3-2-0.9-2.9
		c-0.6-0.9-1.4-1.6-2.5-2.1c-1.1-0.5-2.3-0.8-3.8-0.8c-2,0-3.5,0.5-4.7,1.4c-1.1,0.9-1.7,2.2-1.7,3.7c0,1.2,0.4,2.1,1.2,2.9
		c0.8,0.8,2,1.3,3.6,1.6l4,0.7c2.5,0.5,4.3,1.3,5.5,2.4c1.2,1.1,1.7,2.6,1.7,4.5c0,1.4-0.4,2.7-1.1,3.8c-0.7,1.1-1.8,2-3.1,2.6
		C939.6,634,937.9,634.3,936,634.3z"/>
	<path class="st2" d="M945.9,633.9l9.8-25.9h3.6l9.8,25.9h-2.5l-8.8-23.4h-0.7l-8.8,23.4H945.9z M950.6,626.9v-2.2h13.9v2.2H950.6z"
		/>
	<path class="st2" d="M972,633.9V608h4.1l12.8,23.1h0.7V608h2.3v25.9h-4.1L975,610.7h-0.7v23.1H972z"/>
	<path class="st2" d="M1005.5,634.3c-1.9,0-3.6-0.4-5.1-1.1c-1.5-0.7-2.6-1.7-3.3-2.9c-0.8-1.2-1.2-2.5-1.2-4h2.3
		c0,1.1,0.3,2,0.9,2.9c0.6,0.9,1.4,1.6,2.5,2.1s2.4,0.8,3.9,0.8c2.3,0,4-0.5,5.2-1.4c1.1-0.9,1.7-2.2,1.7-3.7c0-1.2-0.4-2.2-1.2-3
		c-0.8-0.8-2-1.4-3.7-1.7l-4.6-0.9c-2.1-0.4-3.7-1.2-4.8-2.2c-1.1-1.1-1.6-2.5-1.6-4.3c0-1.4,0.3-2.6,1-3.7c0.7-1.1,1.7-1.9,3-2.6
		s2.9-0.9,4.6-0.9c1.9,0,3.6,0.4,5,1.1c1.4,0.7,2.5,1.7,3.3,2.9c0.8,1.2,1.1,2.6,1.1,4h-2.3c0-1.1-0.3-2-0.9-2.9
		c-0.6-0.9-1.4-1.6-2.5-2.1c-1.1-0.5-2.3-0.8-3.8-0.8c-2,0-3.5,0.5-4.7,1.4s-1.7,2.2-1.7,3.7c0,1.2,0.4,2.1,1.2,2.9
		c0.8,0.8,2,1.3,3.6,1.6l4,0.7c2.5,0.5,4.3,1.3,5.5,2.4c1.2,1.1,1.7,2.6,1.7,4.5c0,1.4-0.4,2.7-1.1,3.8c-0.7,1.1-1.8,2-3.1,2.6
		S1007.4,634.3,1005.5,634.3z"/>
	<path class="st1" d="M843.5,667v-25.9h2.3v23.7h13.2v2.2H843.5z"/>
	<path class="st1" d="M862.2,667v-25.9h2.3V667H862.2z"/>
	<path class="st1" d="M881.1,667.4c-2.2,0-4.3-0.6-6.2-1.7c-1.9-1.1-3.3-2.7-4.4-4.7c-1.1-2-1.6-4.3-1.6-6.9s0.5-4.9,1.6-6.9
		c1.1-2,2.6-3.6,4.4-4.7c1.9-1.1,3.9-1.7,6.2-1.7c1.7,0,3.3,0.3,4.8,1c1.5,0.7,2.8,1.6,4,2.8c1.1,1.2,2,2.7,2.5,4.3h-2.5
		c-0.7-1.8-1.9-3.3-3.5-4.4c-1.6-1.1-3.4-1.6-5.2-1.6c-1.8,0-3.5,0.5-5,1.4c-1.5,0.9-2.7,2.2-3.6,3.9c-0.9,1.7-1.3,3.6-1.3,5.8
		c0,2.2,0.4,4.1,1.3,5.8c0.9,1.7,2.1,3,3.6,3.9c1.5,0.9,3.2,1.4,5,1.4c1.6,0,3-0.4,4.4-1.2c1.4-0.8,2.5-1.8,3.4-3.1
		c0.8-1.3,1.3-2.7,1.3-4.1v-1.7l0.8,0.8h-9v-2.1h10.5V667h-1.9l-0.3-4.3h-0.2c-0.6,0.9-1.4,1.7-2.3,2.4c-0.9,0.7-2,1.3-3.2,1.7
		C883.6,667.2,882.4,667.4,881.1,667.4z"/>
	<path class="st1" d="M897.7,667v-25.9h2.3v11.7h15.2v-11.7h2.3V667h-2.3v-12H900v12H897.7z"/>
	<path class="st1" d="M929.5,667v-23.7h-8.8v-2.2h19.9v2.2h-8.8V667H929.5z"/>
</g>
<g>
	<path class="st3" d="M1030.9,920.5c-1.6,0-2.9-0.3-4.1-0.9c-1.2-0.6-2.1-1.4-2.8-2.5c-0.7-1.1-1-2.3-1-3.7c0-1.5,0.3-2.8,1-3.8
		c0.7-1.1,1.7-1.9,3-2.5c1.3-0.6,3-0.9,5-0.9h6.7v-1.1c0-2-0.5-3.5-1.6-4.6c-1.1-1.1-2.6-1.6-4.4-1.6s-3.3,0.4-4.4,1.3
		c-1.1,0.9-1.7,2-1.8,3.3h-2.8c0.1-1.3,0.5-2.5,1.2-3.6c0.7-1.1,1.8-2,3.1-2.6s2.9-1,4.7-1c1.8,0,3.4,0.3,4.7,1c1.3,0.7,2.3,1.7,3,3
		c0.7,1.3,1.1,2.9,1.1,4.7V920h-2.4l-0.4-3.4h-0.3c-0.6,1.1-1.6,2-3,2.8C1034.2,920.1,1032.6,920.5,1030.9,920.5z M1030.9,917.9
		c1.6,0,3.1-0.3,4.3-1c1.2-0.7,2.1-1.6,2.7-2.9c0.6-1.2,0.9-2.6,0.9-4.2v-1.1h-6.7c-2.1,0-3.7,0.4-4.7,1.3s-1.6,2-1.6,3.4
		c0,1.4,0.4,2.5,1.3,3.3C1028,917.5,1029.2,917.9,1030.9,917.9z"/>
	<path class="st3" d="M1057.5,920.5c-2,0-3.8-0.5-5.5-1.5c-1.6-1-2.9-2.3-3.8-4.1c-0.9-1.8-1.4-3.8-1.4-6.1c0-0.2,0-0.5,0-0.7
		c0-0.2,0-0.4,0-0.6c0-2.7,0.2-5,0.6-7c0.4-2,1.1-3.6,2-5c0.9-1.4,2.1-2.5,3.7-3.4c1-0.6,2.1-1,3.3-1.3c1.2-0.3,2.7-0.6,4.5-0.8
		c1.2-0.2,2.1-0.5,2.6-1.1c0.5-0.6,0.8-1.5,0.8-2.6h2.4c0,1.3-0.2,2.4-0.6,3.3c-0.4,0.9-1,1.5-1.8,2c-0.8,0.5-1.9,0.8-3.1,0.9
		c-1.5,0.2-2.8,0.4-3.9,0.7c-1.1,0.3-2,0.7-2.9,1.2c-1.3,0.8-2.4,1.9-3.2,3.3s-1.3,3.1-1.5,5.2h0.2c1-1.5,2.1-2.5,3.5-3.2
		c1.3-0.7,2.8-1,4.4-1c1.9,0,3.7,0.5,5.3,1.4c1.6,0.9,2.8,2.2,3.7,3.9c0.9,1.7,1.3,3.5,1.3,5.6c0,2.1-0.5,4-1.4,5.7
		c-0.9,1.7-2.2,3-3.8,3.9C1061.4,920,1059.6,920.5,1057.5,920.5z M1057.5,917.9c1.5,0,2.8-0.4,4-1.1c1.2-0.7,2.2-1.7,2.8-3
		c0.7-1.3,1-2.7,1-4.3c0-1.6-0.3-3.1-1-4.4c-0.7-1.3-1.6-2.3-2.8-3c-1.2-0.7-2.6-1.1-4-1.1c-1.5,0-2.8,0.4-4,1.1
		c-1.2,0.7-2.1,1.7-2.8,3c-0.7,1.3-1,2.8-1,4.4c0,1.6,0.3,3.1,1,4.3c0.7,1.3,1.6,2.3,2.8,3C1054.7,917.6,1056,917.9,1057.5,917.9z"
		/>
	<path class="st3" d="M1073.5,920v-23.3h11.7c1.2,0,2.3,0.3,3.3,0.8c1,0.5,1.7,1.3,2.3,2.2c0.5,1,0.8,2.1,0.8,3.3
		c0,1.2-0.3,2.2-0.9,3.1c-0.6,0.9-1.3,1.5-2.1,1.9v0.2c0.9,0.3,1.7,0.9,2.4,1.9c0.7,0.9,1,2,1,3.3c0,1.2-0.3,2.3-0.8,3.3
		s-1.3,1.7-2.3,2.3c-1,0.6-2,0.8-3.3,0.8H1073.5z M1084.9,907.1c1.1,0,2-0.4,2.8-1.1c0.8-0.7,1.2-1.7,1.2-2.8c0-1.1-0.4-2.1-1.2-2.8
		c-0.8-0.7-1.7-1.1-2.8-1.1h-8.6v7.9H1084.9z M1085.3,917.6c0.7,0,1.4-0.2,2-0.5c0.6-0.3,1.1-0.8,1.4-1.4c0.4-0.6,0.5-1.3,0.5-2.1
		c0-1.2-0.4-2.1-1.2-2.9c-0.8-0.8-1.7-1.1-2.8-1.1h-9.1v8.1H1085.3z"/>
	<path class="st3" d="M1097.2,920v-23.3h14.3v2.6H1100V920H1097.2z"/>
	<path class="st3" d="M1111.5,925.6v-8.2h0.4c1.1,0,1.9-0.3,2.4-0.9c0.6-0.6,0.9-1.5,1-2.7l1.5-17.1h15v20.7h3.3v8.2h-2.7V920h-18.1
		v5.6H1111.5z M1116.5,917.4h12.5v-18.1h-9.7l-1.3,14.5c-0.1,1-0.3,1.8-0.6,2.4C1117.2,916.9,1116.9,917.3,1116.5,917.4z"/>
	<path class="st3" d="M1148.8,920.5c-2,0-3.9-0.5-5.6-1.5c-1.7-1-3-2.4-4-4.3c-1-1.8-1.4-3.9-1.4-6.3c0-2.4,0.5-4.5,1.4-6.3
		c1-1.8,2.3-3.3,4-4.3s3.5-1.5,5.6-1.5c2,0,3.7,0.5,5.3,1.4c1.6,1,2.9,2.3,3.8,4c0.9,1.7,1.3,3.6,1.3,5.7c0,0.5,0,0.9,0,1.3
		c0,0.4-0.1,0.7-0.1,0.9h-18.6c0.1,1.6,0.6,3,1.3,4.3c0.8,1.3,1.7,2.2,3,2.9c1.2,0.7,2.5,1,4,1c1.5,0,2.9-0.4,4.1-1.1
		c1.2-0.8,2.1-1.8,2.7-3.2h2.9c-0.5,1.5-1.3,2.8-2.2,3.8c-0.9,1-2,1.8-3.3,2.4C1151.8,920.2,1150.3,920.5,1148.8,920.5z
		 M1156.5,907.1c0-1.6-0.4-3-1.1-4.2c-0.7-1.2-1.6-2.2-2.8-2.9c-1.2-0.7-2.4-1-3.8-1c-1.5,0-2.8,0.3-4,1c-1.2,0.7-2.2,1.7-2.9,2.9
		c-0.7,1.2-1.2,2.7-1.3,4.2H1156.5z"/>
	<path class="st3" d="M1173.9,920.5c-2,0-3.9-0.5-5.6-1.5c-1.7-1-3-2.4-4-4.3c-1-1.8-1.4-3.9-1.4-6.3c0-2.4,0.5-4.5,1.4-6.3
		c1-1.8,2.3-3.3,4-4.3c1.7-1,3.5-1.5,5.6-1.5c2,0,3.7,0.5,5.4,1.4c1.6,1,2.9,2.3,3.8,4c0.9,1.7,1.3,3.6,1.3,5.7c0,0.5,0,0.9,0,1.3
		c0,0.4-0.1,0.7-0.1,0.9h-18.6c0.1,1.6,0.6,3,1.3,4.3c0.8,1.3,1.7,2.2,3,2.9c1.2,0.7,2.5,1,4,1c1.5,0,2.9-0.4,4.1-1.1
		c1.2-0.8,2.1-1.8,2.7-3.2h2.9c-0.5,1.5-1.3,2.8-2.2,3.8c-0.9,1-2,1.8-3.3,2.4C1176.9,920.2,1175.5,920.5,1173.9,920.5z
		 M1181.6,907.1c0-1.6-0.4-3-1.1-4.2c-0.7-1.2-1.6-2.2-2.8-2.9c-1.2-0.7-2.4-1-3.8-1c-1.5,0-2.8,0.3-4,1c-1.2,0.7-2.2,1.7-2.9,2.9
		c-0.7,1.2-1.2,2.7-1.3,4.2H1181.6z M1168.1,891.9v-3.2h3.2v3.2H1168.1z M1176.2,891.9v-3.2h3.2v3.2H1176.2z"/>
	<path class="st3" d="M1185.7,920l10.4-11.9l-9.8-11.4h3.4l9.3,10.9v-10.9h2.7v10.9l9.3-10.9h3.4l-9.8,11.4L1215,920h-3.3l-9.9-11.4
		V920h-2.7v-11.4l-9.9,11.4H1185.7z"/>
	<path class="st3" d="M1225.5,920.5c-1.7,0-3.3-0.3-4.6-1c-1.3-0.7-2.4-1.6-3.1-2.8c-0.7-1.2-1.1-2.5-1.1-3.9h2.8
		c0,0.9,0.2,1.8,0.7,2.6c0.5,0.8,1.2,1.4,2.1,1.8c0.9,0.4,2,0.7,3.2,0.7c2,0,3.5-0.4,4.5-1.1c1-0.8,1.5-1.8,1.5-3.1
		c0-1.3-0.5-2.3-1.5-3c-1-0.7-2.4-1.1-4.2-1.1h-2.1v-2.4h2.1c1.7,0,3-0.4,3.9-1.2c0.9-0.8,1.4-1.8,1.4-3c0-1.1-0.5-2.1-1.4-2.9
		c-1-0.8-2.3-1.1-4.1-1.1c-1.7,0-3,0.4-4,1.3c-1,0.9-1.5,2.1-1.5,3.5h-2.8c0-1.4,0.4-2.7,1.1-3.8c0.7-1.1,1.7-2,3-2.7
		c1.3-0.6,2.7-1,4.3-1c1.7,0,3.2,0.3,4.5,0.9c1.3,0.6,2.2,1.4,2.9,2.4c0.7,1,1,2.1,1,3.4c0,1.3-0.4,2.4-1.1,3.3
		c-0.8,0.9-1.7,1.5-2.7,1.9v0.2c1.2,0.3,2.2,0.9,3,1.8c0.8,0.9,1.2,2.1,1.2,3.5c0,1.3-0.3,2.5-1,3.5c-0.7,1-1.7,1.8-3,2.4
		C1228.9,920.2,1227.3,920.5,1225.5,920.5z"/>
	<path class="st3" d="M1239.6,920v-23.3h2.7v20h0.9l10.1-20h5V920h-2.7v-20h-0.9l-10.1,20H1239.6z"/>
	<path class="st3" d="M1265,920v-23.3h2.7v20h0.9l10.1-20h5V920h-2.7v-20h-0.9l-10.1,20H1265z M1274.4,892.8c-1.7,0-3.1-0.5-4.3-1.5
		c-1.2-1-1.8-2.4-1.9-4h2.4c0.1,1.1,0.5,1.9,1.2,2.5c0.7,0.6,1.6,0.9,2.6,0.9c1.1,0,2-0.3,2.6-0.9c0.7-0.6,1.1-1.4,1.2-2.5h2.5
		c-0.1,1.6-0.8,3-1.9,4C1277.6,892.3,1276.1,892.8,1274.4,892.8z"/>
	<path class="st3" d="M1290.3,920v-23.3h2.7v10.7l11.4-10.7h3.6l-12,11.4l12.5,11.9h-3.6l-11.8-11.2V920H1290.3z"/>
	<path class="st3" d="M1308.9,920.3v-2.7h1.3c1,0,1.8-0.3,2.3-0.9c0.6-0.6,0.9-1.5,1-2.7l1.5-17.2h15V920h-2.7v-20.7h-9.7l-1.3,14.6
		c-0.2,2.1-0.8,3.7-1.8,4.8s-2.4,1.6-4.3,1.6H1308.9z"/>
	<path class="st3" d="M1336.6,920v-23.3h5.3l7.2,20.2h0.9l7.2-20.2h5.3V920h-2.7v-20h-0.9l-7.2,20h-4.3l-7.2-20h-0.9v20H1336.6z"/>
	<path class="st3" d="M1369.2,920v-23.3h2.7v10.3h13.3v-10.3h2.7V920h-2.7v-10.3h-13.3V920H1369.2z"/>
	<path class="st3" d="M1033.3,957.5c-2,0-3.9-0.5-5.5-1.5c-1.7-1-3-2.4-3.9-4.3c-1-1.8-1.4-3.9-1.4-6.3c0-2.4,0.5-4.5,1.4-6.3
		c1-1.8,2.3-3.2,3.9-4.3c1.7-1,3.5-1.5,5.5-1.5c2,0,3.9,0.5,5.5,1.5s3,2.4,3.9,4.3c0.9,1.8,1.4,3.9,1.4,6.3c0,2.4-0.5,4.5-1.4,6.3
		c-0.9,1.8-2.3,3.2-3.9,4.3S1035.3,957.5,1033.3,957.5z M1033.3,954.9c1.5,0,2.9-0.4,4.1-1.2c1.2-0.8,2.2-1.9,3-3.3
		c0.7-1.5,1.1-3.1,1.1-5c0-1.9-0.4-3.5-1.1-5c-0.7-1.5-1.7-2.6-3-3.3c-1.2-0.8-2.6-1.2-4.1-1.2s-2.9,0.4-4.1,1.2
		c-1.2,0.8-2.2,1.9-3,3.3c-0.7,1.5-1.1,3.1-1.1,5c0,1.9,0.4,3.5,1.1,5c0.7,1.5,1.7,2.6,3,3.3
		C1030.5,954.5,1031.8,954.9,1033.3,954.9z"/>
	<path class="st3" d="M1049.6,957v-23.3h18.7V957h-2.7v-20.7h-13.3V957H1049.6z"/>
	<path class="st3" d="M1074.9,966.3v-32.6h2.3l0.4,3.9h0.2c1-1.4,2.1-2.5,3.4-3.2c1.3-0.8,2.8-1.1,4.5-1.1c2,0,3.7,0.5,5.3,1.5
		s2.9,2.4,3.8,4.3c0.9,1.8,1.4,3.9,1.4,6.3c0,2.4-0.5,4.5-1.4,6.3c-0.9,1.8-2.2,3.2-3.8,4.3s-3.4,1.5-5.3,1.5
		c-1.7,0-3.2-0.4-4.5-1.1c-1.3-0.8-2.4-1.8-3.4-3.2h-0.2v13.2H1074.9z M1085.6,954.9c1.4,0,2.7-0.4,3.9-1.2c1.2-0.8,2.2-1.9,2.9-3.3
		c0.7-1.4,1.1-3.1,1.1-5c0-1.9-0.4-3.6-1.1-5c-0.7-1.4-1.7-2.5-2.9-3.3c-1.2-0.8-2.5-1.2-3.9-1.2c-1.4,0-2.7,0.4-3.9,1.2
		c-1.2,0.8-2.2,1.9-2.9,3.3c-0.7,1.4-1.1,3.1-1.1,5c0,1.9,0.4,3.6,1.1,5c0.7,1.4,1.7,2.5,2.9,3.3
		C1082.9,954.5,1084.2,954.9,1085.6,954.9z"/>
	<path class="st3" d="M1110.8,957.5c-2,0-3.9-0.5-5.5-1.5c-1.7-1-3-2.4-3.9-4.3s-1.4-3.9-1.4-6.3c0-2.4,0.5-4.5,1.4-6.3
		s2.3-3.2,3.9-4.3c1.7-1,3.5-1.5,5.5-1.5c1.7,0,3.2,0.3,4.6,1c1.4,0.6,2.5,1.6,3.5,2.7c0.9,1.2,1.6,2.6,2,4.2h-2.7
		c-0.5-1.7-1.4-3-2.7-3.9c-1.3-0.9-2.8-1.4-4.6-1.4c-1.5,0-2.9,0.4-4.1,1.2c-1.2,0.8-2.2,1.9-3,3.3c-0.7,1.5-1.1,3.1-1.1,5
		c0,1.9,0.4,3.5,1.1,5c0.7,1.5,1.7,2.6,3,3.3c1.2,0.8,2.6,1.2,4.1,1.2c1.8,0,3.3-0.5,4.6-1.4c1.3-1,2.2-2.3,2.7-4.1h2.7
		c-0.4,1.7-1,3.1-2,4.4c-0.9,1.2-2.1,2.2-3.5,2.8C1114,957.2,1112.5,957.5,1110.8,957.5z"/>
	<path class="st3" d="M1130.2,957v-20.7h-8v-2.6h18.8v2.6h-8V957H1130.2z"/>
	<path class="st3" d="M1144.6,966.3v-2.6h3.8c0.6,0,1-0.1,1.3-0.4c0.3-0.3,0.5-0.7,0.7-1.2l1.6-4.6l0,2.2l-9.8-25.9h2.9l7.4,20h0.9
		l6.8-20h2.9l-10.5,29.5c-0.4,1.1-0.9,1.9-1.5,2.3c-0.6,0.5-1.5,0.7-2.7,0.7H1144.6z"/>
	<path class="st3" d="M1178.2,966.3V956l1,1h-2c-2.3,0-4.4-0.5-6.2-1.4c-1.8-1-3.2-2.3-4.1-4.1c-1-1.8-1.5-3.8-1.5-6.1
		c0-2.3,0.5-4.3,1.5-6.1s2.4-3.1,4.1-4.1c1.8-1,3.8-1.4,6.2-1.4h2l-1,1v-10.3h2.7v10.3l-1-1h1.9c2.4,0,4.4,0.5,6.2,1.4
		c1.8,1,3.2,2.3,4.1,4.1c1,1.8,1.5,3.8,1.5,6.1c0,2.3-0.5,4.3-1.5,6.1c-1,1.8-2.4,3.1-4.1,4.1c-1.8,1-3.9,1.4-6.2,1.4h-1.9l1-1v10.3
		H1178.2z M1178.2,955.5v-20.1l1,1h-2c-1.8,0-3.4,0.4-4.8,1.1c-1.4,0.7-2.4,1.8-3.1,3.1c-0.7,1.4-1.1,3-1.1,4.8
		c0,1.8,0.4,3.4,1.1,4.8c0.7,1.4,1.8,2.4,3.1,3.1c1.4,0.7,3,1.1,4.8,1.1h2L1178.2,955.5z M1180.9,955.5l-1-1h1.9
		c1.9,0,3.5-0.4,4.8-1.1c1.4-0.7,2.4-1.8,3.1-3.1c0.7-1.4,1.1-3,1.1-4.8c0-1.8-0.4-3.4-1.1-4.8c-0.7-1.4-1.8-2.4-3.1-3.1
		c-1.4-0.7-3-1.1-4.8-1.1h-1.9l1-1V955.5z"/>
	<path class="st3" d="M1194.8,957l7.8-11.9l-7.6-11.4h3.3l6.2,9.4h1l6.2-9.4h3.3l-7.6,11.4l7.9,11.9h-3.3l-6.4-9.9h-1l-6.4,9.9
		H1194.8z"/>
	<path class="st3" d="M1238.4,962.6V957h-18.8v-23.3h2.7v20.7h12.8v-20.7h2.7v20.7h3.3v8.2H1238.4z"/>
	<path class="st3" d="M1259.3,947.5c-1,0.7-2,1.2-3.1,1.6c-1.1,0.3-2.4,0.5-3.8,0.5c-2.8,0-4.9-0.7-6.3-2.2
		c-1.4-1.5-2.1-3.6-2.1-6.4v-7.2h2.7v7.2c0,2,0.5,3.5,1.5,4.5s2.5,1.5,4.5,1.5c1.3,0,2.5-0.2,3.5-0.6s2-1,3-1.7v-11h2.7V957h-2.7
		V947.5z"/>
	<path class="st3" d="M1268.7,957v-23.3h2.7v20.7h10.3v-20.7h2.7v20.7h10.4v-20.7h2.7V957H1268.7z"/>
	<path class="st3" d="M1333.8,962.6V957h-29.5v-23.3h2.7v20.7h10.3v-20.7h2.7v20.7h10.4v-20.7h2.7v20.7h3.3v8.2H1333.8z"/>
	<path class="st3" d="M1026.9,994v-20.7h-5.8v-2.6h8.6v8.2h7.3c1.5,0,2.9,0.3,4,1c1.2,0.6,2.1,1.5,2.7,2.7c0.7,1.1,1,2.5,1,3.9
		c0,1.5-0.3,2.8-1,3.9c-0.7,1.1-1.6,2-2.7,2.7c-1.2,0.7-2.5,1-4,1H1026.9z M1036.9,991.4c1.5,0,2.7-0.5,3.6-1.4s1.4-2.1,1.4-3.5
		c0-1.5-0.5-2.7-1.4-3.6s-2.1-1.4-3.6-1.4h-7.3v9.9H1036.9z"/>
	<path class="st3" d="M1049.6,994v-23.3h2.7v8.2h6.6c1.5,0,2.9,0.3,4,1c1.2,0.6,2.1,1.5,2.7,2.7s1,2.5,1,3.9c0,1.5-0.3,2.8-1,3.9
		c-0.7,1.1-1.6,2-2.7,2.7s-2.5,1-4,1H1049.6z M1058.9,991.4c1.5,0,2.7-0.5,3.6-1.4c0.9-0.9,1.4-2.1,1.4-3.5c0-1.5-0.5-2.7-1.4-3.6
		c-0.9-0.9-2.1-1.4-3.6-1.4h-6.6v9.9H1058.9z M1070.4,994v-23.3h2.7V994H1070.4z"/>
	<path class="st3" d="M1080.3,994v-23.3h2.7v8.2h7.5c1.5,0,2.9,0.3,4,1c1.2,0.6,2.1,1.5,2.7,2.7s1,2.5,1,3.9c0,1.5-0.3,2.8-1,3.9
		c-0.7,1.1-1.6,2-2.7,2.7c-1.2,0.7-2.5,1-4,1H1080.3z M1090.5,991.4c1.5,0,2.7-0.5,3.6-1.4s1.4-2.1,1.4-3.5c0-1.5-0.5-2.7-1.4-3.6
		s-2.1-1.4-3.6-1.4h-7.5v9.9H1090.5z"/>
	<path class="st3" d="M1111.3,994.5c-1.6,0-3.2-0.3-4.5-1c-1.4-0.6-2.5-1.6-3.5-2.7c-0.9-1.2-1.6-2.6-2-4.2h2.7
		c0.5,1.7,1.4,3,2.7,3.9s2.8,1.4,4.5,1.4c1.4,0,2.7-0.3,3.9-1c1.2-0.7,2.2-1.6,2.9-2.9c0.7-1.2,1.2-2.7,1.3-4.3h-10.8v-2.6h10.8
		c-0.1-1.6-0.6-3.1-1.3-4.3c-0.7-1.2-1.7-2.2-2.9-2.9c-1.2-0.7-2.5-1-3.9-1c-1.7,0-3.2,0.4-4.5,1.3c-1.3,0.9-2.2,2.1-2.8,3.7h-2.7
		c0.4-1.5,1-2.9,2-4s2.1-2,3.5-2.7c1.4-0.6,2.9-1,4.5-1c2,0,3.9,0.5,5.6,1.5s3,2.5,3.9,4.3s1.4,3.9,1.4,6.3c0,2.4-0.5,4.5-1.4,6.3
		c-1,1.8-2.3,3.3-3.9,4.3S1113.3,994.5,1111.3,994.5z"/>
	<path class="st3" d="M1144.6,994.5c-1.8,0-3.5-0.4-5-1.3c-1.5-0.9-2.7-2.1-3.7-3.8c-1-1.6-1.5-3.5-1.7-5.7h-4V994h-2.7v-23.3h2.7
		v10.3h4c0.2-2.1,0.8-4,1.7-5.7c1-1.6,2.2-2.9,3.7-3.8c1.5-0.9,3.2-1.3,5-1.3c2,0,3.7,0.5,5.3,1.5s2.9,2.4,3.8,4.3
		c0.9,1.8,1.4,3.9,1.4,6.3c0,2.4-0.5,4.5-1.4,6.3c-0.9,1.8-2.2,3.2-3.8,4.3S1146.6,994.5,1144.6,994.5z M1144.6,991.9
		c1.4,0,2.7-0.4,3.9-1.2c1.1-0.8,2.1-1.9,2.8-3.3s1-3.1,1-5c0-1.9-0.3-3.6-1-5s-1.6-2.6-2.8-3.3c-1.1-0.8-2.4-1.2-3.9-1.2
		c-1.4,0-2.7,0.4-3.8,1.2s-2.1,1.9-2.8,3.3c-0.7,1.5-1,3.1-1,5s0.3,3.5,1,5c0.7,1.5,1.6,2.6,2.8,3.3
		C1141.9,991.5,1143.2,991.9,1144.6,991.9z"/>
	<path class="st3" d="M1158.5,994l9.7-9.7v1.1h-1.7c-1.5,0-2.8-0.3-3.9-0.9s-2-1.5-2.7-2.6c-0.6-1.1-1-2.4-1-3.8s0.3-2.7,1-3.8
		c0.6-1.1,1.5-2,2.7-2.6c1.1-0.6,2.5-0.9,3.9-0.9h10.5V994h-2.7v-8.7h-3.6l-8.7,8.7H1158.5z M1166.5,982.8h7.8v-9.4h-7.8
		c-1.4,0-2.5,0.4-3.4,1.3s-1.4,2-1.4,3.4c0,1.4,0.5,2.5,1.4,3.4S1165.1,982.8,1166.5,982.8z"/>
	<path class="st3" d="M1035.5,1068.5c-2.3,0-4.4-0.7-6.3-2c-1.9-1.3-3.3-3.2-4.4-5.8c-1.1-2.5-1.6-5.5-1.6-9s0.5-6.5,1.6-9
		c1.1-2.5,2.6-4.5,4.4-5.8c1.9-1.3,4-2,6.3-2c2.3,0,4.4,0.7,6.2,2c1.9,1.3,3.3,3.2,4.4,5.8c1.1,2.5,1.6,5.5,1.6,9s-0.5,6.5-1.6,9
		c-1.1,2.5-2.6,4.5-4.4,5.8S1037.8,1068.5,1035.5,1068.5z M1035.5,1065.7c1.7,0,3.3-0.5,4.7-1.6c1.4-1.1,2.6-2.7,3.4-4.8
		c0.8-2.1,1.3-4.6,1.3-7.6s-0.4-5.4-1.3-7.6c-0.8-2.1-2-3.7-3.4-4.8c-1.4-1.1-3-1.6-4.7-1.6c-1.7,0-3.3,0.5-4.7,1.6
		s-2.6,2.7-3.4,4.8c-0.8,2.1-1.3,4.6-1.3,7.6s0.4,5.4,1.3,7.6s2,3.7,3.4,4.8C1032.2,1065.2,1033.8,1065.7,1035.5,1065.7z"/>
	<path class="st3" d="M1058.4,1068v-26.2h-7v-2.6h5.6c0.5,0,0.8-0.1,1-0.3c0.2-0.2,0.3-0.6,0.3-1v-2.3h2.9v32.6H1058.4z"/>
	<path class="st3" d="M1068.2,1068v-2.4l13.4-14.3c1.1-1.1,1.8-2.1,2.3-3.1s0.7-2.1,0.7-3.5c0-1.4-0.3-2.6-0.9-3.6
		c-0.6-1.1-1.4-1.9-2.4-2.5s-2.2-0.9-3.6-0.9c-1.3,0-2.4,0.3-3.5,1c-1,0.7-1.9,1.6-2.4,2.7c-0.6,1.2-0.9,2.5-0.9,4h-2.9
		c0-2,0.4-3.8,1.3-5.4c0.8-1.6,2-2.8,3.5-3.7c1.5-0.9,3.1-1.3,5-1.3c1.9,0,3.6,0.4,5,1.2c1.5,0.8,2.6,2,3.5,3.4
		c0.8,1.5,1.3,3.2,1.3,5.1c0,1.3-0.2,2.4-0.5,3.4c-0.3,1-0.7,1.9-1.3,2.7c-0.5,0.8-1.2,1.7-2.1,2.6l-11.2,11.7v0.2h15.7v2.7H1068.2z
		"/>
	<path class="st3" d="M1102,1068.5c-2,0-3.9-0.4-5.5-1.2c-1.6-0.8-2.8-1.9-3.7-3.3c-0.9-1.4-1.3-2.9-1.3-4.6h2.9
		c0,1.2,0.3,2.2,0.9,3.2c0.6,1,1.5,1.7,2.6,2.3c1.1,0.6,2.5,0.8,4,0.8c1.5,0,2.8-0.3,3.9-0.8c1.1-0.6,2-1.3,2.7-2.3
		c0.6-1,1-2.1,1-3.3c0-1.9-0.7-3.4-2.1-4.6c-1.4-1.2-3.2-1.8-5.4-1.8h-2.1v-2.7h2.1c1.5,0,2.7-0.3,3.8-0.8c1.1-0.6,1.9-1.3,2.4-2.3
		c0.6-0.9,0.8-2,0.8-3.1c0-1.1-0.3-2.1-0.9-3.1c-0.6-0.9-1.4-1.7-2.5-2.2c-1.1-0.5-2.3-0.8-3.7-0.8c-1.3,0-2.5,0.3-3.6,0.9
		c-1.1,0.6-1.9,1.3-2.5,2.3c-0.6,0.9-0.9,1.9-0.9,3h-2.9c0-1.6,0.4-3,1.3-4.3c0.9-1.3,2-2.4,3.6-3.3c1.5-0.8,3.2-1.2,5.2-1.2
		c1.9,0,3.6,0.4,5.2,1.2c1.5,0.8,2.7,1.8,3.5,3.2c0.8,1.4,1.3,2.9,1.3,4.5c0,1.3-0.3,2.4-0.8,3.4s-1.2,1.8-2,2.5
		c-0.8,0.7-1.6,1.2-2.5,1.5v0.2c1.6,0.5,2.9,1.4,4,2.7c1.1,1.4,1.7,3,1.7,4.9c0,1.7-0.4,3.3-1.3,4.7c-0.9,1.4-2.1,2.5-3.7,3.3
		C1105.8,1068.1,1104,1068.5,1102,1068.5z"/>
	<path class="st3" d="M1131.1,1068v-7.8h-15v-2.3l13-22.5h5v22.2h4.5v2.6h-4.5v7.8H1131.1z M1119.7,1057.6h11.4v-18.4h-0.9
		l-10.5,18.2V1057.6z"/>
	<path class="st3" d="M1152.5,1068.5c-1.8,0-3.4-0.4-4.9-1.1c-1.5-0.7-2.8-1.8-3.8-3.1c-1-1.4-1.6-3-1.8-4.9h2.9
		c0.2,1.3,0.7,2.4,1.4,3.4c0.7,1,1.6,1.7,2.7,2.2c1.1,0.5,2.2,0.7,3.5,0.7c1.5,0,2.8-0.3,4-1c1.2-0.7,2.2-1.7,2.9-2.9
		c0.7-1.2,1-2.6,1-4.2c0-1.6-0.3-3.1-1-4.3c-0.7-1.2-1.6-2.2-2.8-2.8c-1.2-0.7-2.5-1-4-1c-1.4,0-2.6,0.2-3.7,0.7
		c-1.1,0.5-2.1,1.2-2.9,2.2h-3.3l1.8-16.9h17v2.7h-14.6l-1.2,10.9h0.2c0.9-0.8,2-1.4,3.1-1.8c1.1-0.4,2.5-0.6,3.9-0.6
		c1.8,0,3.5,0.5,5,1.4c1.6,0.9,2.8,2.2,3.8,3.9c1,1.6,1.4,3.5,1.4,5.6c0,2.1-0.5,4-1.4,5.7c-0.9,1.7-2.2,2.9-3.9,3.9
		C1156.4,1068,1154.5,1068.5,1152.5,1068.5z"/>
	<path class="st3" d="M1178.2,1068.5c-2,0-3.8-0.5-5.5-1.4c-1.7-0.9-3-2.2-4-3.9c-1-1.6-1.4-3.5-1.4-5.4c0-1.1,0.2-2.3,0.6-3.5
		c0.4-1.2,0.9-2.2,1.4-3.1l10.1-15.7h3.3l-8.1,12.7h0.2c0.6-0.3,1.2-0.5,1.8-0.6c0.7-0.1,1.4-0.2,2.1-0.2c1.9,0,3.6,0.4,5.2,1.3
		s2.8,2.1,3.8,3.7c0.9,1.6,1.4,3.4,1.4,5.3c0,2-0.5,3.8-1.4,5.4c-1,1.6-2.3,2.9-4,3.9C1182,1068,1180.2,1068.5,1178.2,1068.5z
		 M1178.2,1065.7c1.5,0,2.8-0.3,4-1c1.2-0.7,2.2-1.7,2.9-2.9c0.7-1.2,1.1-2.6,1.1-4.1s-0.4-2.8-1.1-4.1s-1.7-2.2-2.9-2.9
		c-1.2-0.7-2.6-1-4-1c-1.4,0-2.8,0.3-4,1c-1.2,0.7-2.2,1.6-2.9,2.9c-0.7,1.2-1,2.6-1,4.1s0.3,2.8,1,4.1c0.7,1.2,1.7,2.2,2.9,2.9
		C1175.5,1065.4,1176.8,1065.7,1178.2,1065.7z"/>
	<path class="st3" d="M1195.4,1068l11.7-29.8h-16.7v-2.7h20v2.3l-11.9,30.3H1195.4z"/>
	<path class="st3" d="M1224.7,1068.5c-2,0-3.9-0.4-5.4-1.3c-1.6-0.8-2.8-2-3.7-3.4c-0.9-1.4-1.3-2.9-1.3-4.5c0-1.3,0.3-2.5,0.8-3.6
		c0.5-1.1,1.2-2,2-2.7s1.7-1.3,2.7-1.6v-0.2c-1.3-0.5-2.4-1.4-3.3-2.7s-1.4-2.8-1.4-4.5c0-1.6,0.4-3.1,1.2-4.5
		c0.8-1.4,2-2.4,3.4-3.2c1.5-0.8,3.2-1.2,5.1-1.2c1.9,0,3.6,0.4,5.1,1.2c1.5,0.8,2.6,1.8,3.4,3.2c0.8,1.4,1.2,2.9,1.2,4.5
		c0,1.7-0.5,3.2-1.4,4.5c-1,1.3-2.1,2.2-3.3,2.7v0.2c1.5,0.6,2.8,1.5,3.9,3c1.1,1.4,1.6,3.1,1.6,5c0,1.6-0.4,3.1-1.3,4.5
		s-2.1,2.5-3.7,3.4S1226.7,1068.5,1224.7,1068.5z M1224.7,1065.7c1.4,0,2.7-0.3,3.8-0.9s2.1-1.4,2.7-2.4c0.6-1,1-2.1,1-3.3
		c0-1.2-0.3-2.3-1-3.3c-0.6-1-1.5-1.8-2.7-2.4c-1.2-0.6-2.4-0.9-3.8-0.9s-2.7,0.3-3.8,0.9c-1.2,0.6-2.1,1.4-2.7,2.4
		c-0.6,1-1,2.1-1,3.3c0,1.2,0.3,2.4,1,3.3c0.6,1,1.5,1.8,2.7,2.4C1222,1065.4,1223.3,1065.7,1224.7,1065.7z M1224.7,1050
		c1.4,0,2.6-0.3,3.6-0.8s1.8-1.3,2.3-2.2c0.5-0.9,0.8-2,0.8-3.1c0-1.1-0.3-2.1-0.8-3.1c-0.5-0.9-1.3-1.7-2.4-2.2
		c-1-0.6-2.2-0.8-3.6-0.8c-1.4,0-2.6,0.3-3.6,0.8c-1,0.6-1.8,1.3-2.4,2.2c-0.5,0.9-0.8,2-0.8,3.1c0,1.1,0.3,2.1,0.8,3.1
		c0.5,0.9,1.3,1.7,2.3,2.2S1223.3,1050,1224.7,1050z"/>
	<path class="st3" d="M1245.6,1068l8.1-12.7h-0.2c-0.6,0.3-1.2,0.5-1.8,0.6s-1.4,0.2-2.1,0.2c-1.9,0-3.6-0.4-5.2-1.3
		c-1.6-0.9-2.8-2.1-3.8-3.7c-0.9-1.6-1.4-3.4-1.4-5.3c0-2,0.5-3.8,1.4-5.4c1-1.6,2.3-2.9,4-3.9c1.7-0.9,3.5-1.4,5.5-1.4
		s3.8,0.5,5.5,1.4c1.7,0.9,3,2.2,4,3.9c1,1.6,1.4,3.5,1.4,5.4c0,1.1-0.2,2.3-0.6,3.5c-0.4,1.2-0.8,2.2-1.4,3.1l-10.2,15.7H1245.6z
		 M1250.1,1053.7c1.5,0,2.8-0.3,4-1c1.2-0.7,2.2-1.6,2.9-2.9c0.7-1.2,1.1-2.6,1.1-4.1c0-1.5-0.4-2.8-1.1-4.1
		c-0.7-1.2-1.7-2.2-2.9-2.9c-1.2-0.7-2.6-1-4-1c-1.4,0-2.8,0.3-4,1c-1.2,0.7-2.2,1.7-2.9,2.9s-1,2.6-1,4.1c0,1.5,0.3,2.8,1,4.1
		s1.7,2.2,2.9,2.9C1247.4,1053.3,1248.7,1053.7,1250.1,1053.7z"/>
	<path class="st3" d="M1266.8,1068v-32.6h5.3l15.4,29.1h0.9v-29.1h2.9v32.6h-5.3l-15.4-29.1h-0.9v29.1H1266.8z M1302.4,1061.5
		c-1.3,0-2.5-0.3-3.5-0.9s-1.9-1.5-2.6-2.6c-0.6-1.1-1-2.3-1-3.7c0-1.4,0.3-2.6,1-3.7c0.6-1.1,1.5-2,2.6-2.6
		c1.1-0.6,2.3-0.9,3.5-0.9c1.3,0,2.5,0.3,3.6,0.9c1.1,0.6,1.9,1.5,2.6,2.6c0.7,1.1,1,2.3,1,3.7c0,1.4-0.3,2.6-1,3.7
		c-0.7,1.1-1.5,2-2.6,2.6C1304.9,1061.2,1303.7,1061.5,1302.4,1061.5z M1295.6,1068v-2.6h13.7v2.6H1295.6z M1302.4,1059.1
		c0.8,0,1.5-0.2,2.2-0.6c0.7-0.4,1.2-0.9,1.7-1.7c0.4-0.7,0.6-1.6,0.6-2.5s-0.2-1.8-0.6-2.5c-0.4-0.7-1-1.3-1.7-1.7
		c-0.7-0.4-1.4-0.6-2.2-0.6c-0.8,0-1.5,0.2-2.2,0.6c-0.7,0.4-1.2,0.9-1.7,1.7c-0.4,0.7-0.6,1.6-0.6,2.5s0.2,1.8,0.6,2.5
		c0.4,0.7,1,1.3,1.7,1.7C1300.9,1058.9,1301.6,1059.1,1302.4,1059.1z"/>
	<path class="st3" d="M1320.9,1049.4c-1.3,0-2.5-0.3-3.6-0.9s-1.9-1.5-2.6-2.6c-0.7-1.1-1-2.3-1-3.7c0-1.4,0.3-2.6,1-3.7
		c0.7-1.1,1.5-2,2.6-2.6c1.1-0.6,2.3-0.9,3.6-0.9c1.3,0,2.5,0.3,3.5,0.9c1.1,0.6,1.9,1.5,2.6,2.6c0.6,1.1,1,2.3,1,3.7
		c0,1.4-0.3,2.6-1,3.7c-0.6,1.1-1.5,2-2.6,2.6C1323.4,1049.1,1322.2,1049.4,1320.9,1049.4z M1320.9,1047c0.8,0,1.5-0.2,2.2-0.6
		c0.7-0.4,1.2-1,1.7-1.7c0.4-0.7,0.6-1.6,0.6-2.5c0-1-0.2-1.8-0.6-2.5c-0.4-0.7-1-1.3-1.7-1.7c-0.7-0.4-1.4-0.6-2.2-0.6
		c-0.8,0-1.6,0.2-2.2,0.6c-0.7,0.4-1.2,1-1.7,1.7c-0.4,0.7-0.6,1.6-0.6,2.5c0,1,0.2,1.8,0.6,2.5c0.4,0.7,1,1.3,1.7,1.7
		C1319.4,1046.8,1320.1,1047,1320.9,1047z M1318,1068l20.2-32.6h2.9L1321,1068H1318z M1338.4,1068.5c-1.3,0-2.5-0.3-3.6-0.9
		c-1.1-0.6-1.9-1.5-2.6-2.6s-1-2.3-1-3.7c0-1.4,0.3-2.6,1-3.7c0.7-1.1,1.5-2,2.6-2.6c1.1-0.6,2.3-0.9,3.6-0.9c1.3,0,2.5,0.3,3.5,0.9
		c1.1,0.6,1.9,1.5,2.6,2.6c0.6,1.1,1,2.3,1,3.7c0,1.4-0.3,2.6-1,3.7c-0.6,1.1-1.5,2-2.6,2.6
		C1340.8,1068.2,1339.6,1068.5,1338.4,1068.5z M1338.4,1066.1c0.8,0,1.5-0.2,2.2-0.6s1.2-0.9,1.7-1.7s0.6-1.6,0.6-2.5
		c0-1-0.2-1.8-0.6-2.5c-0.4-0.7-1-1.3-1.7-1.7c-0.7-0.4-1.4-0.6-2.2-0.6c-0.8,0-1.6,0.2-2.2,0.6c-0.7,0.4-1.2,0.9-1.7,1.7
		c-0.4,0.7-0.6,1.6-0.6,2.5c0,1,0.2,1.8,0.6,2.5c0.4,0.7,1,1.3,1.7,1.7S1337.6,1066.1,1338.4,1066.1z"/>
	<path class="st3" d="M1356.6,1057.8c0-1.2,0.2-2.2,0.5-3c0.3-0.8,0.8-1.5,1.5-2.1c0.7-0.6,1.6-1.2,2.7-1.8c1-0.5,1.7-1,2.3-1.7
		c0.6-0.6,1-1.3,1.3-2.1c0.3-0.8,0.4-1.7,0.4-2.7c0-1.2-0.3-2.4-0.9-3.4c-0.6-1-1.5-1.8-2.5-2.4c-1.1-0.6-2.3-0.9-3.6-0.9
		c-1.4,0-2.6,0.3-3.7,0.8c-1.1,0.6-1.9,1.3-2.5,2.3c-0.6,1-0.9,2-0.9,3.2h-2.9c0-1.7,0.4-3.2,1.3-4.6c0.9-1.4,2-2.5,3.5-3.3
		s3.2-1.2,5.2-1.2c1.9,0,3.6,0.4,5.1,1.2c1.5,0.8,2.7,2,3.5,3.4c0.9,1.4,1.3,3,1.3,4.8c0,2-0.5,3.8-1.4,5.1c-0.9,1.4-2.3,2.5-4,3.5
		c-1.3,0.7-2.2,1.4-2.6,2.1c-0.5,0.7-0.7,1.6-0.7,2.7v2.8h-2.9V1057.8z M1356.4,1068v-3.4h3.4v3.4H1356.4z"/>
	<path class="st3" d="M1374,1068v-3.4h3.4v3.4H1374z M1374.6,1060.8l-0.3-10.6v-14.8h2.9v14.8l-0.4,10.6H1374.6z"/>
	<path class="st3" d="M1387.6,1052.2l-2-1.7l4.4-5.7l-6.9-2l0.7-2.4l6.8,2.4l-0.1-7.4h2.6l-0.1,7.4l6.8-2.4l0.7,2.4l-6.8,2l4.4,5.7
		l-2,1.7l-4.2-6.1L1387.6,1052.2z"/>
</g>
</svg>
