<?xml version="1.0" encoding="utf-8"?>
<!-- Generator: Adobe Illustrator 22.0.0, SVG Export Plug-In . SVG Version: 6.00 Build 0)  -->
<svg version="1.1" id="Layer_1" xmlns="http://www.w3.org/2000/svg" xmlns:xlink="http://www.w3.org/1999/xlink" x="0px" y="0px"
	 viewBox="0 0 1677.8 1400" style="enable-background:new 0 0 1677.8 1400;" xml:space="preserve">
<style type="text/css">
	.st0{opacity:0.6;enable-background:new    ;}
	.st1{fill:#1B1B2D;}
	.st2{fill:none;stroke:#A4A4AB;stroke-miterlimit:10;}
	.st3{fill:none;stroke:#A4A4AB;stroke-miterlimit:10;stroke-dasharray:6.0113,10.0189;}
	.st4{fill:none;stroke:#A4A4AB;stroke-miterlimit:10;stroke-dasharray:5.9643,9.9406;}
</style>
<g class="st0">
	<path class="st1" d="M682.9,1v959.8H1V1H682.9 M683.9,0H0v961.8h683.9V0L683.9,0z"/>
</g>
<g class="st0">
	<path class="st1" d="M1676.8,1v681.9H717V1H1676.8 M1677.8,0H716v683.9h961.8V0L1677.8,0z"/>
</g>
<g class="st0">
	<path class="st1" d="M1399,717.1V1399H717V717.1H1399 M1400,716.1H716V1400h684V716.1L1400,716.1z"/>
</g>
<g>
	<path class="st1" d="M77.9,906.1c0,6.4-2,12.6-5.7,17.8s-8.9,9.2-14.9,11.3v-7.4c4.1-1.9,7.6-5,10-8.9s3.7-8.3,3.7-12.8
		s-1.3-9-3.7-12.8c-2.4-3.9-5.9-6.9-10-8.9V877c6,2.1,11.3,6.1,15,11.3C75.9,893.5,77.9,899.8,77.9,906.1z"/>
	<rect x="22.9" y="902.7" class="st1" width="27.5" height="6.9"/>
	<path class="st1" d="M64.2,906.1c0-2.3-0.4-4.5-1.3-6.6c-0.9-2.1-2.1-4-3.7-5.6c-1.6-1.6-3.5-2.9-5.6-3.7c-2.1-0.9-4.3-1.3-6.6-1.3
		H36.7v6.8h20.6v20.6H36.7v6.9H47c2.3,0,4.5-0.4,6.6-1.3c2.1-0.9,4-2.1,5.6-3.7c1.6-1.6,2.9-3.5,3.7-5.6
		C63.8,910.6,64.2,908.4,64.2,906.1z"/>
</g>
<g>
	<path class="st1" d="M790.7,633.9c0,6.4-2,12.6-5.7,17.8s-8.9,9.2-14.9,11.3v-7.4c4.1-1.9,7.6-5,10-8.9s3.7-8.3,3.7-12.8
		s-1.3-9-3.7-12.8c-2.4-3.9-5.9-6.9-10-8.9v-7.4c6,2.1,11.3,6.1,15,11.3C788.7,621.3,790.7,627.6,790.7,633.9z"/>
	<rect x="735.7" y="630.5" class="st1" width="27.5" height="6.9"/>
	<path class="st1" d="M776.9,633.9c0-2.3-0.4-4.5-1.3-6.6s-2.1-4-3.7-5.6c-1.6-1.6-3.5-2.9-5.6-3.7c-2.1-0.9-4.3-1.3-6.6-1.3h-10.3
		v6.8H770v20.6h-20.6v6.9h10.3c2.3,0,4.5-0.4,6.6-1.3c2.1-0.9,4-2.1,5.6-3.7s2.9-3.5,3.7-5.6C776.5,638.4,776.9,636.2,776.9,633.9z"
		/>
</g>
<g>
	<path class="st1" d="M865.7,1308.9c0,13.4-4.1,26.4-11.8,37.3s-18.6,19.2-31.2,23.6v-15.5c8.6-4.1,15.9-10.5,21-18.6
		s7.8-17.4,7.8-26.9s-2.7-18.8-7.8-26.9s-12.3-14.5-21-18.5v-15.5c12.6,4.5,23.5,12.7,31.3,23.6
		C861.5,1282.5,865.7,1295.6,865.7,1308.9z"/>
	<rect x="750.7" y="1301.7" class="st1" width="57.5" height="14.4"/>
	<path class="st1" d="M836.9,1308.9c0-4.7-0.9-9.4-2.7-13.8s-4.5-8.3-7.8-11.6c-3.3-3.3-7.3-6-11.6-7.8s-9-2.7-13.8-2.7h-21.5v14.3
		h43.1v43.1h-43.1v14.4H801c4.7,0,9.4-0.9,13.8-2.7c4.4-1.8,8.3-4.5,11.6-7.8s6-7.3,7.8-11.6C836,1318.3,836.9,1313.6,836.9,1308.9z
		"/>
</g>
<g>
	<g>
		<line class="st2" x1="22.9" y1="0" x2="22.9" y2="3"/>
		<line class="st3" x1="22.9" y1="13" x2="22.9" y2="953.8"/>
		<line class="st2" x1="22.9" y1="958.8" x2="22.9" y2="961.8"/>
	</g>
</g>
<g>
	<g>
		<line class="st2" x1="77.9" y1="0" x2="77.9" y2="3"/>
		<line class="st3" x1="77.9" y1="13" x2="77.9" y2="953.8"/>
		<line class="st2" x1="77.9" y1="958.8" x2="77.9" y2="961.8"/>
	</g>
</g>
<g>
	<g>
		<line class="st2" x1="749.4" y1="716.1" x2="749.4" y2="719.1"/>
		<line class="st4" x1="749.4" y1="729" x2="749.4" y2="1392"/>
		<line class="st2" x1="749.4" y1="1397" x2="749.4" y2="1400"/>
	</g>
</g>
<g>
	<g>
		<line class="st2" x1="865.7" y1="716.1" x2="865.7" y2="719.1"/>
		<line class="st4" x1="865.7" y1="729" x2="865.7" y2="1392"/>
		<line class="st2" x1="865.7" y1="1397" x2="865.7" y2="1400"/>
	</g>
</g>
<g>
	<g>
		<g>
			<line class="st2" x1="735.7" y1="0" x2="735.7" y2="3"/>
			<line class="st4" x1="735.7" y1="12.9" x2="735.7" y2="676"/>
			<line class="st2" x1="735.7" y1="680.9" x2="735.7" y2="683.9"/>
		</g>
	</g>
	<g>
		<g>
			<line class="st2" x1="790.7" y1="0" x2="790.7" y2="3"/>
			<line class="st4" x1="790.7" y1="12.9" x2="790.7" y2="676"/>
			<line class="st2" x1="790.7" y1="680.9" x2="790.7" y2="683.9"/>
		</g>
	</g>
</g>
<g>
	<path class="st1" d="M779,774.2c0,9.9-6.1,16.6-15.7,16.6c-7.5,0-12.7-4.4-13.9-11.2h5.5c1.1,4,4,6.6,8.6,6.6
		c5.5,0,9.2-3.9,9.9-9.8h-12.5v-4.6h12.5c-0.7-5.8-4.2-9.5-9.6-9.5c-4.7,0-7.6,2.6-8.7,6.6h-5.5c1.1-6.8,6.5-11.2,14-11.2
		C773.2,757.7,779,764.2,779,774.2z"/>
	<path class="st1" d="M779.5,790.5v-4.7h0.8c3.3,0,4.8-2.1,4.8-11.8v-16h23.5v32.6h-5.3v-27.8h-13.1v11.7c0,12.1-2.9,16.1-9.3,16.1
		H779.5z"/>
	<path class="st1" d="M812.6,757.9h25.4v4.7h-10v27.8h-5.3v-27.8h-10V757.9z"/>
	<path class="st1" d="M835,790.5l12.2-32.6h6.4l12.1,32.6H860l-3.1-8h-13.4l-3,8H835z M845,777.9h10.4l-5.2-14.2L845,777.9z"/>
</g>
<g>
	<path class="st1" d="M749.7,30.5c0,4.7-2.9,7.8-7.4,7.8c-3.6,0-6-2.1-6.6-5.3h2.6c0.5,1.9,1.9,3.1,4.1,3.1c2.6,0,4.4-1.8,4.7-4.6
		h-5.9v-2.2h5.9c-0.4-2.7-2-4.5-4.6-4.5c-2.2,0-3.6,1.2-4.1,3.1h-2.6c0.5-3.2,3.1-5.3,6.6-5.3C747,22.6,749.7,25.7,749.7,30.5z"/>
	<path class="st1" d="M749.9,38.2v-2.2h0.4c1.6,0,2.3-1,2.3-5.6v-7.6h11.1v15.4h-2.5V25H755v5.5c0,5.7-1.4,7.6-4.4,7.6H749.9z"/>
	<path class="st1" d="M765.6,22.8h12V25h-4.8v13.2h-2.5V25h-4.8V22.8z"/>
	<path class="st1" d="M776.2,38.2l5.8-15.4h3l5.7,15.4H788l-1.5-3.8h-6.3l-1.4,3.8H776.2z M780.9,32.2h4.9l-2.5-6.7L780.9,32.2z"/>
</g>
<g>
	<path class="st1" d="M36.9,30.5c0,4.7-2.9,7.8-7.4,7.8c-3.6,0-6-2.1-6.6-5.3h2.6c0.5,1.9,1.9,3.1,4.1,3.1c2.6,0,4.4-1.8,4.7-4.6
		h-5.9v-2.2h5.9c-0.4-2.7-2-4.5-4.6-4.5c-2.2,0-3.6,1.2-4.1,3.1H23c0.5-3.2,3.1-5.3,6.6-5.3C34.2,22.6,36.9,25.7,36.9,30.5z"/>
	<path class="st1" d="M37.1,38.2v-2.2h0.4c1.6,0,2.3-1,2.3-5.6v-7.6H51v15.4h-2.5V25h-6.2v5.5c0,5.7-1.4,7.6-4.4,7.6H37.1z"/>
	<path class="st1" d="M52.8,22.8h12V25h-4.8v13.2h-2.5V25h-4.8V22.8z"/>
	<path class="st1" d="M63.4,38.2l5.8-15.4h3l5.7,15.4h-2.7l-1.5-3.8h-6.3L66,38.2H63.4z M68.1,32.2H73l-2.5-6.7L68.1,32.2z"/>
</g>
</svg>
