<?xml version="1.0" encoding="utf-8"?>
<!-- Generator: Adobe Illustrator 22.0.0, SVG Export Plug-In . SVG Version: 6.00 Build 0)  -->
<svg version="1.1" id="Layer_1" xmlns="http://www.w3.org/2000/svg" xmlns:xlink="http://www.w3.org/1999/xlink" x="0px" y="0px"
	 viewBox="0 0 829 531.9" style="enable-background:new 0 0 829 531.9;" xml:space="preserve">
<style type="text/css">
	.st0{opacity:0.35;fill:none;stroke:#1B1B2D;stroke-miterlimit:10;}
	.st1{fill:#1B1B2D;}
	.st2{fill:#738CEA;}
	.st3{fill:#FFFFFF;}
	.st4{opacity:0.7;}
	.st5{fill:#D63318;}
	.st6{fill:#31772D;}
	.st7{fill:#FFFFFF;stroke:#1B1B2D;stroke-miterlimit:10;}
	.st8{fill:none;stroke:#1B1B2D;stroke-miterlimit:10;}
</style>
<line class="st0" x1="57" y1="10.6" x2="57" y2="446.9"/>
<line class="st0" x1="188.2" y1="10.6" x2="188.2" y2="446.9"/>
<line class="st0" x1="319.4" y1="10.6" x2="319.4" y2="446.9"/>
<line class="st0" x1="450.6" y1="10.6" x2="450.6" y2="446.9"/>
<line class="st0" x1="581.8" y1="10.6" x2="581.8" y2="446.9"/>
<line class="st0" x1="713" y1="10.6" x2="713" y2="446.9"/>
<g>
	<path class="st1" d="M197.3,26l3.3-2.8c0.8-0.7,1.4-1.3,1.4-2.2c0-1.1-0.7-1.7-1.8-1.7c-1.1,0-1.8,0.7-1.8,1.9v0.2h-1v-0.2
		c0-1.6,1.1-2.7,2.8-2.7c1.8,0,2.9,1,2.9,2.5c0,1.3-0.8,2.1-1.8,2.9l-2.5,2.1h4.4v0.9h-5.8V26z"/>
	<path class="st1" d="M203.9,22.5c0-2.4,1.3-4.1,3.2-4.1c1.9,0,3.2,1.7,3.2,4.1v0.4c0,2.5-1.3,4.1-3.2,4.1c-1.9,0-3.2-1.6-3.2-4.1
		V22.5z M209.3,22.5c0-2-0.9-3.2-2.2-3.2c-1.3,0-2.2,1.2-2.2,3.2v0.3c0,2,0.9,3.2,2.2,3.2c1.3,0,2.2-1.2,2.2-3.2V22.5z"/>
	<path class="st1" d="M211.1,26l3.3-2.8c0.8-0.7,1.4-1.3,1.4-2.2c0-1.1-0.7-1.7-1.8-1.7c-1.1,0-1.8,0.7-1.8,1.9v0.2h-1v-0.2
		c0-1.6,1.1-2.7,2.8-2.7c1.8,0,2.9,1,2.9,2.5c0,1.3-0.8,2.1-1.8,2.9l-2.5,2.1h4.4v0.9h-5.8V26z"/>
	<path class="st1" d="M217.8,22.5c0-2.4,1.3-4.1,3.2-4.1c1.9,0,3.2,1.7,3.2,4.1v0.4c0,2.5-1.3,4.1-3.2,4.1c-1.9,0-3.2-1.6-3.2-4.1
		V22.5z M223.1,22.5c0-2-0.9-3.2-2.2-3.2c-1.3,0-2.2,1.2-2.2,3.2v0.3c0,2,0.9,3.2,2.2,3.2c1.3,0,2.2-1.2,2.2-3.2V22.5z"/>
</g>
<g>
	<path class="st1" d="M66.3,26l3.3-2.8c0.8-0.7,1.4-1.3,1.4-2.2c0-1.1-0.7-1.7-1.8-1.7c-1.1,0-1.8,0.7-1.8,1.9v0.2h-1v-0.2
		c0-1.6,1.1-2.7,2.8-2.7c1.8,0,2.9,1,2.9,2.5c0,1.3-0.8,2.1-1.8,2.9L67.7,26H72v0.9h-5.8V26z"/>
	<path class="st1" d="M72.9,22.5c0-2.4,1.3-4.1,3.2-4.1c1.9,0,3.2,1.7,3.2,4.1v0.4c0,2.5-1.3,4.1-3.2,4.1c-1.9,0-3.2-1.6-3.2-4.1
		V22.5z M78.3,22.5c0-2-0.9-3.2-2.2-3.2c-1.3,0-2.2,1.2-2.2,3.2v0.3c0,2,0.9,3.2,2.2,3.2c1.3,0,2.2-1.2,2.2-3.2V22.5z"/>
	<path class="st1" d="M81.8,18.5h1v8.4h-1v-6C81.7,21,81.5,21,81.2,21h-1.4v-0.9h1.4c0.4,0,0.6-0.3,0.6-0.7V18.5z"/>
	<path class="st1" d="M84.3,24.6h1c0.2,0.9,0.8,1.4,1.8,1.4c1.5,0,2.3-1.3,2.3-3.2c0-0.1,0-0.2,0-0.4c0,0,0,0.1-0.1,0.2
		c-0.4,0.8-1.2,1.4-2.3,1.4c-1.7,0-2.8-1.1-2.8-2.8c0-1.6,1.2-2.8,2.9-2.8c1.2,0,2,0.5,2.5,1.4c0.4,0.7,0.7,1.7,0.7,2.8
		c0,2.6-1.2,4.3-3.2,4.3C85.5,27,84.5,26.1,84.3,24.6z M89,21.2c0-1.1-0.8-1.9-1.9-1.9c-1.2,0-1.9,0.8-1.9,1.9
		c0,1.1,0.7,1.9,1.9,1.9C88.2,23.2,89,22.4,89,21.2z"/>
</g>
<g>
	<path class="st1" d="M460.3,26l3.3-2.8c0.8-0.7,1.4-1.3,1.4-2.2c0-1.1-0.7-1.7-1.8-1.7c-1.1,0-1.8,0.7-1.8,1.9v0.2h-1v-0.2
		c0-1.6,1.1-2.7,2.8-2.7c1.8,0,2.9,1,2.9,2.5c0,1.3-0.8,2.1-1.8,2.9l-2.5,2.1h4.4v0.9h-5.8V26z"/>
	<path class="st1" d="M466.9,22.5c0-2.4,1.3-4.1,3.2-4.1c1.9,0,3.2,1.7,3.2,4.1v0.4c0,2.5-1.3,4.1-3.2,4.1c-1.9,0-3.2-1.6-3.2-4.1
		V22.5z M472.3,22.5c0-2-0.9-3.2-2.2-3.2c-1.3,0-2.2,1.2-2.2,3.2v0.3c0,2,0.9,3.2,2.2,3.2c1.3,0,2.2-1.2,2.2-3.2V22.5z"/>
	<path class="st1" d="M474.1,26l3.3-2.8c0.8-0.7,1.4-1.3,1.4-2.2c0-1.1-0.7-1.7-1.8-1.7c-1.1,0-1.8,0.7-1.8,1.9v0.2h-1v-0.2
		c0-1.6,1.1-2.7,2.8-2.7c1.8,0,2.9,1,2.9,2.5c0,1.3-0.8,2.1-1.8,2.9l-2.5,2.1h4.4v0.9h-5.8V26z"/>
	<path class="st1" d="M480.5,26l3.3-2.8c0.8-0.7,1.4-1.3,1.4-2.2c0-1.1-0.7-1.7-1.8-1.7c-1.1,0-1.8,0.7-1.8,1.9v0.2h-1v-0.2
		c0-1.6,1.1-2.7,2.8-2.7c1.8,0,2.9,1,2.9,2.5c0,1.3-0.8,2.1-1.8,2.9l-2.5,2.1h4.4v0.9h-5.8V26z"/>
</g>
<g>
	<path class="st1" d="M591.3,26l3.3-2.8c0.8-0.7,1.4-1.3,1.4-2.2c0-1.1-0.7-1.7-1.8-1.7c-1.1,0-1.8,0.7-1.8,1.9v0.2h-1v-0.2
		c0-1.6,1.1-2.7,2.8-2.7c1.8,0,2.9,1,2.9,2.5c0,1.3-0.8,2.1-1.8,2.9l-2.5,2.1h4.4v0.9h-5.8V26z"/>
	<path class="st1" d="M597.9,22.5c0-2.4,1.3-4.1,3.2-4.1c1.9,0,3.2,1.7,3.2,4.1v0.4c0,2.5-1.3,4.1-3.2,4.1c-1.9,0-3.2-1.6-3.2-4.1
		V22.5z M603.3,22.5c0-2-0.9-3.2-2.2-3.2c-1.3,0-2.2,1.2-2.2,3.2v0.3c0,2,0.9,3.2,2.2,3.2c1.3,0,2.2-1.2,2.2-3.2V22.5z"/>
	<path class="st1" d="M605.1,26l3.3-2.8c0.8-0.7,1.4-1.3,1.4-2.2c0-1.1-0.7-1.7-1.8-1.7c-1.1,0-1.8,0.7-1.8,1.9v0.2h-1v-0.2
		c0-1.6,1.1-2.7,2.8-2.7c1.8,0,2.9,1,2.9,2.5c0,1.3-0.8,2.1-1.8,2.9l-2.5,2.1h4.4v0.9h-5.8V26z"/>
	<path class="st1" d="M617.6,24.6c0,1.4-1.2,2.4-3,2.4c-1.8,0-3-1-3-2.7h1c0,1.1,0.9,1.8,2.1,1.8c1.1,0,1.9-0.6,1.9-1.6
		c0-0.9-0.7-1.4-2-1.4h-0.7v-0.9h0.7c1.2,0,1.9-0.6,1.9-1.5s-0.8-1.4-1.8-1.4c-1.1,0-1.8,0.6-1.8,1.6h-1c0-1.5,1.2-2.5,2.8-2.5
		c1.7,0,2.8,0.9,2.8,2.2c0,1.1-0.6,1.7-1.4,1.9C616.8,22.7,617.6,23.3,617.6,24.6z"/>
</g>
<g>
	<path class="st1" d="M328.3,26l3.3-2.8c0.8-0.7,1.4-1.3,1.4-2.2c0-1.1-0.7-1.7-1.8-1.7c-1.1,0-1.8,0.7-1.8,1.9v0.2h-1v-0.2
		c0-1.6,1.1-2.7,2.8-2.7c1.8,0,2.9,1,2.9,2.5c0,1.3-0.8,2.1-1.8,2.9l-2.5,2.1h4.4v0.9h-5.8V26z"/>
	<path class="st1" d="M334.9,22.5c0-2.4,1.3-4.1,3.2-4.1c1.9,0,3.2,1.7,3.2,4.1v0.4c0,2.5-1.3,4.1-3.2,4.1c-1.9,0-3.2-1.6-3.2-4.1
		V22.5z M340.3,22.5c0-2-0.9-3.2-2.2-3.2c-1.3,0-2.2,1.2-2.2,3.2v0.3c0,2,0.9,3.2,2.2,3.2c1.3,0,2.2-1.2,2.2-3.2V22.5z"/>
	<path class="st1" d="M342.1,26l3.3-2.8c0.8-0.7,1.4-1.3,1.4-2.2c0-1.1-0.7-1.7-1.8-1.7c-1.1,0-1.8,0.7-1.8,1.9v0.2h-1v-0.2
		c0-1.6,1.1-2.7,2.8-2.7c1.8,0,2.9,1,2.9,2.5c0,1.3-0.8,2.1-1.8,2.9l-2.5,2.1h4.4v0.9h-5.8V26z"/>
	<path class="st1" d="M350.2,18.5h1v8.4h-1v-6c-0.1,0.1-0.3,0.2-0.6,0.2h-1.4v-0.9h1.4c0.4,0,0.6-0.3,0.6-0.7V18.5z"/>
</g>
<polygon class="st2" points="663,112.9 169,112.9 169,54.9 663,54.9 685,83.9 "/>
<g>
	<path class="st3" d="M183.3,91.6h1v2.7h-1v-1.7h-6.4v1.7h-1v-2.7h0.8c0.6-0.5,0.9-1.3,0.9-3.7v-3.7h5.8V91.6z M182.3,91.6V85h-3.8
		V88c0,2-0.2,2.9-0.7,3.6H182.3z"/>
	<path class="st3" d="M184.9,92.6l3.2-8.4h1.2l3.2,8.4h-1.1l-0.9-2.3h-3.7l-0.9,2.3H184.9z M187.2,89.3h3l-1.5-4L187.2,89.3z"/>
	<path class="st3" d="M193.5,84.2h1v3.6h4.3v-3.6h1v8.4h-1v-3.8h-4.3v3.8h-1V84.2z"/>
	<path class="st3" d="M201.5,84.2h1v3.6h4.3v-3.6h1v8.4h-1v-3.8h-4.3v3.8h-1V84.2z"/>
	<path class="st3" d="M209.6,92.6v-8.4h1v3.2h2.1c1.7,0,2.8,1.1,2.8,2.6c0,1.5-1.1,2.6-2.8,2.6H209.6z M210.6,91.6h2
		c1.1,0,1.8-0.6,1.8-1.6c0-1-0.7-1.6-1.8-1.6h-2V91.6z M216.6,92.6v-8.4h1v8.4H216.6z"/>
	<path class="st3" d="M219.3,84.2h5.3v1h-4.3v2.7h3.6v1h-3.6v2.8h4.5v1h-5.5V84.2z"/>
	<path class="st3" d="M228.8,88.2c0-2.4,1.3-4.1,3.2-4.1c1.9,0,3.2,1.7,3.2,4.1v0.4c0,2.5-1.3,4.1-3.2,4.1c-1.9,0-3.2-1.6-3.2-4.1
		V88.2z M234.2,88.2c0-2-0.9-3.2-2.2-3.2c-1.3,0-2.2,1.2-2.2,3.2v0.3c0,2,0.9,3.2,2.2,3.2c1.3,0,2.2-1.2,2.2-3.2V88.2z"/>
	<path class="st3" d="M237.7,84.2h1v8.4h-1v-6c-0.1,0.1-0.3,0.2-0.6,0.2h-1.4v-0.9h1.4c0.4,0,0.6-0.3,0.6-0.7V84.2z"/>
</g>
<g class="st4">
	<path class="st3" d="M176.5,105.2v-8.4h6.4v8.4h-1v-7.4h-4.3v7.4H176.5z"/>
	<path class="st3" d="M184.1,102.2c0-1.9,1.2-3.1,3-3.1s3,1.3,3,3.1c0,1.9-1.2,3.1-3,3.1S184.1,104,184.1,102.2z M189.2,102.2
		c0-1.3-0.8-2.3-2-2.3c-1.2,0-2,0.9-2,2.3c0,1.3,0.8,2.3,2,2.3C188.4,104.4,189.2,103.5,189.2,102.2z"/>
	<path class="st3" d="M191.3,105.2v-6.1h1v2.6h1.3l1.9-2.6h1.1l-2.2,2.9l2.4,3.2h-1.2l-2-2.7h-1.3v2.7H191.3z"/>
	<path class="st3" d="M203.1,104.3v0.9h-0.5c-0.8,0-1.1-0.3-1.1-0.9c-0.4,0.6-1,1-2.1,1c-1.3,0-2.3-0.7-2.3-1.8
		c0-1.2,0.9-1.9,2.5-1.9h1.8v-0.4c0-0.8-0.6-1.3-1.5-1.3c-0.9,0-1.4,0.4-1.6,1h-1c0.1-1.2,1.1-1.9,2.6-1.9c1.6,0,2.5,0.8,2.5,2.2
		v2.7c0,0.3,0.1,0.4,0.4,0.4H203.1z M201.4,102.4h-1.9c-0.9,0-1.4,0.3-1.4,1c0,0.6,0.5,1,1.3,1c1.2,0,1.9-0.7,1.9-1.7V102.4z"/>
	<path class="st3" d="M208.7,103.5c0,1.1-1,1.8-2.7,1.8c-1.7,0-2.5-0.7-2.5-2h1c0.1,0.7,0.5,1.1,1.5,1.1c1,0,1.7-0.4,1.7-1
		c0-0.6-0.5-0.9-1.2-0.9h-1v-0.9h1c0.7,0,1.2-0.3,1.2-0.9c0-0.6-0.5-0.9-1.5-0.9c-1,0-1.4,0.4-1.6,1.1h-1c0.1-1.1,1-1.9,2.6-1.9
		c1.5,0,2.4,0.7,2.4,1.7c0,0.8-0.4,1.2-1.1,1.3C208.3,102.2,208.7,102.7,208.7,103.5z"/>
	<path class="st3" d="M215.6,104.3v0.9H215c-0.8,0-1.1-0.3-1.1-0.9c-0.4,0.6-1,1-2.1,1c-1.3,0-2.3-0.7-2.3-1.8
		c0-1.2,0.9-1.9,2.5-1.9h1.8v-0.4c0-0.8-0.6-1.3-1.5-1.3c-0.9,0-1.4,0.4-1.6,1h-1c0.1-1.2,1.1-1.9,2.6-1.9c1.6,0,2.5,0.8,2.5,2.2
		v2.7c0,0.3,0.1,0.4,0.4,0.4H215.6z M213.9,102.4H212c-0.9,0-1.4,0.3-1.4,1c0,0.6,0.5,1,1.3,1c1.2,0,1.9-0.7,1.9-1.7V102.4z"/>
	<path class="st3" d="M217.6,105.2V100h-2.2v-0.9h5.4v0.9h-2.2v5.2H217.6z"/>
	<path class="st3" d="M221.1,102.2c0-1.9,1.2-3.1,2.9-3.1c1.7,0,2.9,1.1,2.9,2.9c0,0.1,0,0.3,0,0.4h-4.7v0.1c0,1.2,0.8,2,1.9,2
		c0.9,0,1.5-0.5,1.7-1.2h1c-0.2,1.2-1.2,2.1-2.7,2.1C222.3,105.3,221.1,104,221.1,102.2z M225.8,101.5c-0.1-1.1-0.8-1.6-1.8-1.6
		c-0.9,0-1.7,0.6-1.8,1.6H225.8z"/>
	<path class="st3" d="M227.2,105.2v-0.9h0.2c0.7,0,1-0.4,1-2.3v-3h4.6v6.1h-1V100h-2.7v2.1c0,2.4-0.6,3.1-1.8,3.1H227.2z"/>
	<path class="st3" d="M234.3,105.2v-6.1h1v2h1.6c1.5,0,2.4,0.8,2.4,2.1c0,1.3-0.9,2.1-2.4,2.1H234.3z M235.3,104.4h1.5
		c1,0,1.6-0.4,1.6-1.2c0-0.8-0.6-1.2-1.6-1.2h-1.5V104.4z"/>
	<path class="st3" d="M243.7,96.8h3c1.8,0,2.8,0.9,2.8,2.2c0,1-0.5,1.5-1.3,1.8c0.9,0.2,1.7,0.7,1.7,2c0,1.5-1.1,2.4-3,2.4h-3.1
		V96.8z M244.7,97.8v2.7h2c1.1,0,1.7-0.5,1.7-1.4c0-0.8-0.6-1.3-1.7-1.3H244.7z M244.7,101.4v2.9h2c1.3,0,2-0.5,2-1.4
		c0-0.9-0.7-1.5-2-1.5H244.7z"/>
	<path class="st3" d="M251.1,96.8h5.3v1h-4.3v2.7h3.6v1h-3.6v2.8h4.5v1h-5.5V96.8z"/>
	<path class="st3" d="M257.5,100.8c0-2.4,1.3-4.1,3.2-4.1c1.9,0,3.2,1.7,3.2,4.1v0.4c0,2.5-1.3,4.1-3.2,4.1c-1.9,0-3.2-1.6-3.2-4.1
		V100.8z M262.8,100.9c0-2-0.9-3.2-2.2-3.2c-1.3,0-2.2,1.2-2.2,3.2v0.3c0,2,0.9,3.2,2.2,3.2c1.3,0,2.2-1.2,2.2-3.2V100.9z"/>
	<path class="st3" d="M264.6,104.4l3.3-2.8c0.8-0.7,1.4-1.3,1.4-2.2c0-1.1-0.7-1.7-1.8-1.7c-1.1,0-1.8,0.7-1.8,1.9v0.2h-1v-0.2
		c0-1.6,1.1-2.7,2.8-2.7c1.8,0,2.9,1,2.9,2.5c0,1.3-0.8,2.1-1.8,2.9l-2.5,2.1h4.4v0.9h-5.8V104.4z"/>
</g>
<polygon class="st5" points="391,181.1 70,181.1 70,123.1 391,123.1 413,152.1 "/>
<g>
	<path class="st3" d="M84.3,159.8h1v2.7h-1v-1.7h-6.4v1.7h-1v-2.7h0.8c0.6-0.5,0.9-1.3,0.9-3.7v-3.7h5.8V159.8z M83.3,159.8v-6.5
		h-3.8v2.9c0,2-0.2,2.9-0.7,3.6H83.3z"/>
	<path class="st3" d="M85.9,160.7l3.2-8.4h1.2l3.2,8.4h-1.1l-0.9-2.3h-3.7l-0.9,2.3H85.9z M88.2,157.5h3l-1.5-4L88.2,157.5z"/>
	<path class="st3" d="M94.5,152.3h1v3.6h4.3v-3.6h1v8.4h-1v-3.8h-4.3v3.8h-1V152.3z"/>
	<path class="st3" d="M102.5,152.3h1v3.6h4.3v-3.6h1v8.4h-1v-3.8h-4.3v3.8h-1V152.3z"/>
	<path class="st3" d="M110.6,160.7v-8.4h1v3.2h2.1c1.7,0,2.8,1.1,2.8,2.6c0,1.5-1.1,2.6-2.8,2.6H110.6z M111.6,159.8h2
		c1.1,0,1.8-0.6,1.8-1.6c0-1-0.7-1.6-1.8-1.6h-2V159.8z M117.6,160.7v-8.4h1v8.4H117.6z"/>
	<path class="st3" d="M120.3,152.3h5.3v1h-4.3v2.7h3.6v1h-3.6v2.8h4.5v1h-5.5V152.3z"/>
	<path class="st3" d="M129.8,156.3c0-2.4,1.3-4.1,3.2-4.1c1.9,0,3.2,1.7,3.2,4.1v0.4c0,2.5-1.3,4.1-3.2,4.1c-1.9,0-3.2-1.6-3.2-4.1
		V156.3z M135.2,156.4c0-2-0.9-3.2-2.2-3.2c-1.3,0-2.2,1.2-2.2,3.2v0.3c0,2,0.9,3.2,2.2,3.2c1.3,0,2.2-1.2,2.2-3.2V156.4z"/>
	<path class="st3" d="M137,159.9l3.3-2.8c0.8-0.7,1.4-1.3,1.4-2.2c0-1.1-0.7-1.7-1.8-1.7c-1.1,0-1.8,0.7-1.8,1.9v0.2h-1V155
		c0-1.6,1.1-2.7,2.8-2.7c1.8,0,2.9,1,2.9,2.5c0,1.3-0.8,2.1-1.8,2.9l-2.5,2.1h4.4v0.9H137V159.9z"/>
</g>
<g class="st4">
	<path class="st3" d="M77.5,173.4V165h6.4v8.4h-1V166h-4.3v7.4H77.5z"/>
	<path class="st3" d="M85.1,170.3c0-1.9,1.2-3.1,3-3.1s3,1.3,3,3.1s-1.2,3.1-3,3.1S85.1,172.2,85.1,170.3z M90.2,170.3
		c0-1.3-0.8-2.3-2-2.3c-1.2,0-2,0.9-2,2.3c0,1.3,0.8,2.3,2,2.3C89.4,172.6,90.2,171.6,90.2,170.3z"/>
	<path class="st3" d="M92.3,173.4v-6.1h1v2.6h1.3l1.9-2.6h1.1l-2.2,2.9l2.4,3.2h-1.2l-2-2.7h-1.3v2.7H92.3z"/>
	<path class="st3" d="M104.1,172.5v0.9h-0.5c-0.8,0-1.1-0.3-1.1-0.9c-0.4,0.6-1,1-2.1,1c-1.3,0-2.3-0.7-2.3-1.8
		c0-1.2,0.9-1.9,2.5-1.9h1.8v-0.4c0-0.8-0.6-1.3-1.5-1.3c-0.9,0-1.4,0.4-1.6,1h-1c0.1-1.2,1.1-1.9,2.6-1.9c1.6,0,2.5,0.8,2.5,2.2
		v2.7c0,0.3,0.1,0.4,0.4,0.4H104.1z M102.4,170.6h-1.9c-0.9,0-1.4,0.3-1.4,1c0,0.6,0.5,1,1.3,1c1.2,0,1.9-0.7,1.9-1.7V170.6z"/>
	<path class="st3" d="M109.7,171.6c0,1.1-1,1.8-2.7,1.8c-1.7,0-2.5-0.7-2.5-2h1c0.1,0.7,0.5,1.1,1.5,1.1c1,0,1.7-0.4,1.7-1
		c0-0.6-0.5-0.9-1.2-0.9h-1v-0.9h1c0.7,0,1.2-0.3,1.2-0.9c0-0.6-0.5-0.9-1.5-0.9c-1,0-1.4,0.4-1.6,1.1h-1c0.1-1.1,1-1.9,2.6-1.9
		c1.5,0,2.4,0.7,2.4,1.7c0,0.8-0.4,1.2-1.1,1.3C109.3,170.4,109.7,170.8,109.7,171.6z"/>
	<path class="st3" d="M116.6,172.5v0.9H116c-0.8,0-1.1-0.3-1.1-0.9c-0.4,0.6-1,1-2.1,1c-1.3,0-2.3-0.7-2.3-1.8
		c0-1.2,0.9-1.9,2.5-1.9h1.8v-0.4c0-0.8-0.6-1.3-1.5-1.3c-0.9,0-1.4,0.4-1.6,1h-1c0.1-1.2,1.1-1.9,2.6-1.9c1.6,0,2.5,0.8,2.5,2.2
		v2.7c0,0.3,0.1,0.4,0.4,0.4H116.6z M114.9,170.6H113c-0.9,0-1.4,0.3-1.4,1c0,0.6,0.5,1,1.3,1c1.2,0,1.9-0.7,1.9-1.7V170.6z"/>
	<path class="st3" d="M118.6,173.4v-5.2h-2.2v-0.9h5.4v0.9h-2.2v5.2H118.6z"/>
	<path class="st3" d="M122.1,170.3c0-1.9,1.2-3.1,2.9-3.1c1.7,0,2.9,1.1,2.9,2.9c0,0.1,0,0.3,0,0.4h-4.7v0.1c0,1.2,0.8,2,1.9,2
		c0.9,0,1.5-0.5,1.7-1.2h1c-0.2,1.2-1.2,2.1-2.7,2.1C123.3,173.5,122.1,172.2,122.1,170.3z M126.8,169.7c-0.1-1.1-0.8-1.6-1.8-1.6
		c-0.9,0-1.7,0.6-1.8,1.6H126.8z"/>
	<path class="st3" d="M128.2,173.4v-0.9h0.2c0.7,0,1-0.4,1-2.3v-3h4.6v6.1h-1v-5.2h-2.7v2.1c0,2.4-0.6,3.1-1.8,3.1H128.2z"/>
	<path class="st3" d="M135.3,173.4v-6.1h1v2h1.6c1.5,0,2.4,0.8,2.4,2.1c0,1.3-0.9,2.1-2.4,2.1H135.3z M136.3,172.6h1.5
		c1,0,1.6-0.4,1.6-1.2c0-0.8-0.6-1.2-1.6-1.2h-1.5V172.6z"/>
	<path class="st3" d="M144.7,165h3.2c1.7,0,2.8,1,2.8,2.6c0,1.2-0.7,2.1-1.8,2.4l1.9,3.4h-1.2l-1.8-3.2h-2.1v3.2h-1V165z M145.7,166
		v3.3h2.1c1.1,0,1.8-0.6,1.8-1.6c0-1-0.7-1.6-1.8-1.6H145.7z"/>
	<path class="st3" d="M152,165h5.3v1h-4.3v2.7h3.6v1h-3.6v2.8h4.5v1H152V165z"/>
	<path class="st3" d="M158.4,169c0-2.4,1.3-4.1,3.2-4.1c1.9,0,3.2,1.7,3.2,4.1v0.4c0,2.5-1.3,4.1-3.2,4.1c-1.9,0-3.2-1.6-3.2-4.1
		V169z M163.7,169c0-2-0.9-3.2-2.2-3.2c-1.3,0-2.2,1.2-2.2,3.2v0.3c0,2,0.9,3.2,2.2,3.2c1.3,0,2.2-1.2,2.2-3.2V169z"/>
	<path class="st3" d="M165.5,172.5l3.3-2.8c0.8-0.7,1.4-1.3,1.4-2.2c0-1.1-0.7-1.7-1.8-1.7c-1.1,0-1.8,0.7-1.8,1.9v0.2h-1v-0.2
		c0-1.6,1.1-2.7,2.8-2.7c1.8,0,2.9,1,2.9,2.5c0,1.3-0.8,2.1-1.8,2.9l-2.5,2.1h4.4v0.9h-5.8V172.5z"/>
</g>
<polygon class="st6" points="471,247.1 300,247.1 300,189.1 471,189.1 493,218.1 "/>
<g>
	<path class="st3" d="M314.3,225.8h1v2.7h-1v-1.7h-6.4v1.7h-1v-2.7h0.8c0.6-0.5,0.9-1.3,0.9-3.7v-3.7h5.8V225.8z M313.3,225.8v-6.5
		h-3.8v2.9c0,2-0.2,2.9-0.7,3.6H313.3z"/>
	<path class="st3" d="M315.9,226.7l3.2-8.4h1.2l3.2,8.4h-1.1l-0.9-2.3h-3.7l-0.9,2.3H315.9z M318.2,223.5h3l-1.5-4L318.2,223.5z"/>
	<path class="st3" d="M324.5,218.3h1v3.6h4.3v-3.6h1v8.4h-1v-3.8h-4.3v3.8h-1V218.3z"/>
	<path class="st3" d="M332.5,218.3h1v3.6h4.3v-3.6h1v8.4h-1v-3.8h-4.3v3.8h-1V218.3z"/>
	<path class="st3" d="M340.6,226.7v-8.4h1v3.2h2.1c1.7,0,2.8,1.1,2.8,2.6c0,1.5-1.1,2.6-2.8,2.6H340.6z M341.6,225.8h2
		c1.1,0,1.8-0.6,1.8-1.6c0-1-0.7-1.6-1.8-1.6h-2V225.8z M347.6,226.7v-8.4h1v8.4H347.6z"/>
	<path class="st3" d="M350.3,218.3h5.3v1h-4.3v2.7h3.6v1h-3.6v2.8h4.5v1h-5.5V218.3z"/>
	<path class="st3" d="M359.8,222.3c0-2.4,1.3-4.1,3.2-4.1c1.9,0,3.2,1.7,3.2,4.1v0.4c0,2.5-1.3,4.1-3.2,4.1c-1.9,0-3.2-1.6-3.2-4.1
		V222.3z M365.2,222.4c0-2-0.9-3.2-2.2-3.2c-1.3,0-2.2,1.2-2.2,3.2v0.3c0,2,0.9,3.2,2.2,3.2c1.3,0,2.2-1.2,2.2-3.2V222.4z"/>
	<path class="st3" d="M373,224.4c0,1.4-1.2,2.4-3,2.4c-1.8,0-3-1-3-2.7h1c0,1.1,0.9,1.8,2.1,1.8c1.1,0,1.9-0.6,1.9-1.6
		c0-0.9-0.7-1.4-2-1.4h-0.7V222h0.7c1.2,0,1.9-0.6,1.9-1.5s-0.8-1.4-1.8-1.4c-1.1,0-1.8,0.6-1.8,1.6h-1c0-1.5,1.2-2.5,2.8-2.5
		c1.7,0,2.8,0.9,2.8,2.2c0,1.1-0.6,1.7-1.4,1.9C372.2,222.5,373,223.1,373,224.4z"/>
</g>
<g class="st4">
	<path class="st3" d="M307.5,239.4V231h6.4v8.4h-1V232h-4.3v7.4H307.5z"/>
	<path class="st3" d="M315.1,236.3c0-1.9,1.2-3.1,3-3.1s3,1.3,3,3.1s-1.2,3.1-3,3.1S315.1,238.2,315.1,236.3z M320.2,236.3
		c0-1.3-0.8-2.3-2-2.3c-1.2,0-2,0.9-2,2.3c0,1.3,0.8,2.3,2,2.3C319.4,238.6,320.2,237.6,320.2,236.3z"/>
	<path class="st3" d="M322.3,239.4v-6.1h1v2.6h1.3l1.9-2.6h1.1l-2.2,2.9l2.4,3.2h-1.2l-2-2.7h-1.3v2.7H322.3z"/>
	<path class="st3" d="M334.1,238.5v0.9h-0.5c-0.8,0-1.1-0.3-1.1-0.9c-0.4,0.6-1,1-2.1,1c-1.3,0-2.3-0.7-2.3-1.8
		c0-1.2,0.9-1.9,2.5-1.9h1.8v-0.4c0-0.8-0.6-1.3-1.5-1.3c-0.9,0-1.4,0.4-1.6,1h-1c0.1-1.2,1.1-1.9,2.6-1.9c1.6,0,2.5,0.8,2.5,2.2
		v2.7c0,0.3,0.1,0.4,0.4,0.4H334.1z M332.4,236.6h-1.9c-0.9,0-1.4,0.3-1.4,1c0,0.6,0.5,1,1.3,1c1.2,0,1.9-0.7,1.9-1.7V236.6z"/>
	<path class="st3" d="M339.7,237.6c0,1.1-1,1.8-2.7,1.8c-1.7,0-2.5-0.7-2.5-2h1c0.1,0.7,0.5,1.1,1.5,1.1c1,0,1.7-0.4,1.7-1
		c0-0.6-0.5-0.9-1.2-0.9h-1v-0.9h1c0.7,0,1.2-0.3,1.2-0.9c0-0.6-0.5-0.9-1.5-0.9c-1,0-1.4,0.4-1.6,1.1h-1c0.1-1.1,1-1.9,2.6-1.9
		c1.5,0,2.4,0.7,2.4,1.7c0,0.8-0.4,1.2-1.1,1.3C339.3,236.4,339.7,236.8,339.7,237.6z"/>
	<path class="st3" d="M346.6,238.5v0.9H346c-0.8,0-1.1-0.3-1.1-0.9c-0.4,0.6-1,1-2.1,1c-1.3,0-2.3-0.7-2.3-1.8
		c0-1.2,0.9-1.9,2.5-1.9h1.8v-0.4c0-0.8-0.6-1.3-1.5-1.3c-0.9,0-1.4,0.4-1.6,1h-1c0.1-1.2,1.1-1.9,2.6-1.9c1.6,0,2.5,0.8,2.5,2.2
		v2.7c0,0.3,0.1,0.4,0.4,0.4H346.6z M344.9,236.6H343c-0.9,0-1.4,0.3-1.4,1c0,0.6,0.5,1,1.3,1c1.2,0,1.9-0.7,1.9-1.7V236.6z"/>
	<path class="st3" d="M348.6,239.4v-5.2h-2.2v-0.9h5.4v0.9h-2.2v5.2H348.6z"/>
	<path class="st3" d="M352.1,236.3c0-1.9,1.2-3.1,2.9-3.1c1.7,0,2.9,1.1,2.9,2.9c0,0.1,0,0.3,0,0.4h-4.7v0.1c0,1.2,0.8,2,1.9,2
		c0.9,0,1.5-0.5,1.7-1.2h1c-0.2,1.2-1.2,2.1-2.7,2.1C353.3,239.5,352.1,238.2,352.1,236.3z M356.8,235.7c-0.1-1.1-0.8-1.6-1.8-1.6
		c-0.9,0-1.7,0.6-1.8,1.6H356.8z"/>
	<path class="st3" d="M358.2,239.4v-0.9h0.2c0.7,0,1-0.4,1-2.3v-3h4.6v6.1h-1v-5.2h-2.7v2.1c0,2.4-0.6,3.1-1.8,3.1H358.2z"/>
	<path class="st3" d="M365.3,239.4v-6.1h1v2h1.6c1.5,0,2.4,0.8,2.4,2.1c0,1.3-0.9,2.1-2.4,2.1H365.3z M366.3,238.6h1.5
		c1,0,1.6-0.4,1.6-1.2c0-0.8-0.6-1.2-1.6-1.2h-1.5V238.6z"/>
	<path class="st3" d="M374.4,235.2c0-2.5,1.6-4.3,4-4.3c1.9,0,3.3,1.1,3.6,2.8h-1.1c-0.3-1.2-1.2-1.8-2.5-1.8
		c-1.8,0-2.9,1.4-2.9,3.3c0,1.9,1.2,3.3,2.9,3.3c1.5,0,2.7-0.9,2.7-2.4v-0.3h-2.5v-1h3.5v4.5h-0.9l-0.1-1.2
		c-0.4,0.6-1.3,1.3-2.7,1.3C376,239.5,374.4,237.7,374.4,235.2z"/>
	<path class="st3" d="M383.6,231h5.3v1h-4.3v2.7h3.6v1h-3.6v2.8h4.5v1h-5.5V231z"/>
	<path class="st3" d="M390,235c0-2.4,1.3-4.1,3.2-4.1c1.9,0,3.2,1.7,3.2,4.1v0.4c0,2.5-1.3,4.1-3.2,4.1c-1.9,0-3.2-1.6-3.2-4.1V235z
		 M395.4,235c0-2-0.9-3.2-2.2-3.2c-1.3,0-2.2,1.2-2.2,3.2v0.3c0,2,0.9,3.2,2.2,3.2c1.3,0,2.2-1.2,2.2-3.2V235z"/>
	<path class="st3" d="M397.2,238.5l3.3-2.8c0.8-0.7,1.4-1.3,1.4-2.2c0-1.1-0.7-1.7-1.8-1.7c-1.1,0-1.8,0.7-1.8,1.9v0.2h-1v-0.2
		c0-1.6,1.1-2.7,2.8-2.7c1.8,0,2.9,1,2.9,2.5c0,1.3-0.8,2.1-1.8,2.9l-2.5,2.1h4.4v0.9h-5.8V238.5z"/>
</g>
<polygon class="st7" points="271.5,311.4 100.5,311.4 100.5,253.4 271.5,253.4 293.5,282.4 "/>
<g>
	<g>
		<path class="st1" d="M114.8,290.1h1v2.7h-1v-1.7h-6.4v1.7h-1v-2.7h0.8c0.6-0.5,0.9-1.3,0.9-3.7v-3.7h5.8V290.1z M113.8,290.1v-6.5
			H110v2.9c0,2-0.2,2.9-0.7,3.6H113.8z"/>
		<path class="st1" d="M116.4,291.1l3.2-8.4h1.2l3.2,8.4h-1.1l-0.9-2.3h-3.7l-0.9,2.3H116.4z M118.7,287.8h3l-1.5-4L118.7,287.8z"/>
		<path class="st1" d="M125,282.7h1v3.6h4.3v-3.6h1v8.4h-1v-3.8H126v3.8h-1V282.7z"/>
		<path class="st1" d="M133,282.7h1v3.6h4.3v-3.6h1v8.4h-1v-3.8h-4.3v3.8h-1V282.7z"/>
		<path class="st1" d="M141.1,291.1v-8.4h1v3.2h2.1c1.7,0,2.8,1.1,2.8,2.6c0,1.5-1.1,2.6-2.8,2.6H141.1z M142.1,290.1h2
			c1.1,0,1.8-0.6,1.8-1.6s-0.7-1.6-1.8-1.6h-2V290.1z M148.1,291.1v-8.4h1v8.4H148.1z"/>
		<path class="st1" d="M150.8,282.7h5.3v1h-4.3v2.7h3.6v1h-3.6v2.8h4.5v1h-5.5V282.7z"/>
		<path class="st1" d="M160.3,286.7c0-2.4,1.3-4.1,3.2-4.1c1.9,0,3.2,1.7,3.2,4.1v0.4c0,2.5-1.3,4.1-3.2,4.1c-1.9,0-3.2-1.6-3.2-4.1
			V286.7z M165.7,286.7c0-2-0.9-3.2-2.2-3.2c-1.3,0-2.2,1.2-2.2,3.2v0.3c0,2,0.9,3.2,2.2,3.2c1.3,0,2.2-1.2,2.2-3.2V286.7z"/>
		<path class="st1" d="M167.3,288.1l4.3-5.4h1.1v5.4h1.4v0.9h-1.4v2.1h-1V289h-4.4V288.1z M168.5,288.1h3.3v-4.2L168.5,288.1z"/>
	</g>
</g>
<g>
	<g>
		<path class="st1" d="M108,303.7v-8.4h6.4v8.4h-1v-7.4H109v7.4H108z"/>
		<path class="st1" d="M115.6,300.7c0-1.9,1.2-3.1,3-3.1s3,1.3,3,3.1c0,1.9-1.2,3.1-3,3.1S115.6,302.5,115.6,300.7z M120.7,300.7
			c0-1.3-0.8-2.3-2-2.3c-1.2,0-2,0.9-2,2.3c0,1.3,0.8,2.3,2,2.3C119.9,302.9,120.7,302,120.7,300.7z"/>
		<path class="st1" d="M122.8,303.7v-6.1h1v2.6h1.3l1.9-2.6h1.1l-2.2,2.9l2.4,3.2h-1.2l-2-2.7h-1.3v2.7H122.8z"/>
		<path class="st1" d="M134.6,302.8v0.9H134c-0.8,0-1.1-0.3-1.1-0.9c-0.4,0.6-1,1-2.1,1c-1.3,0-2.3-0.7-2.3-1.8
			c0-1.2,0.9-1.9,2.5-1.9h1.8v-0.4c0-0.8-0.6-1.3-1.5-1.3c-0.9,0-1.4,0.4-1.6,1h-1c0.1-1.2,1.1-1.9,2.6-1.9c1.6,0,2.5,0.8,2.5,2.2
			v2.7c0,0.3,0.1,0.4,0.4,0.4H134.6z M132.9,300.9H131c-0.9,0-1.4,0.3-1.4,1c0,0.6,0.5,1,1.3,1c1.2,0,1.9-0.7,1.9-1.7V300.9z"/>
		<path class="st1" d="M140.2,302c0,1.1-1,1.8-2.7,1.8c-1.7,0-2.5-0.7-2.5-2h1c0.1,0.7,0.5,1.1,1.5,1.1c1,0,1.7-0.4,1.7-1
			c0-0.6-0.5-0.9-1.2-0.9h-1v-0.9h1c0.7,0,1.2-0.3,1.2-0.9c0-0.6-0.5-0.9-1.5-0.9c-1,0-1.4,0.4-1.6,1.1h-1c0.1-1.1,1-1.9,2.6-1.9
			c1.5,0,2.4,0.7,2.4,1.7c0,0.8-0.4,1.2-1.1,1.3C139.8,300.7,140.2,301.2,140.2,302z"/>
		<path class="st1" d="M147.1,302.8v0.9h-0.5c-0.8,0-1.1-0.3-1.1-0.9c-0.4,0.6-1,1-2.1,1c-1.3,0-2.3-0.7-2.3-1.8
			c0-1.2,0.9-1.9,2.5-1.9h1.8v-0.4c0-0.8-0.6-1.3-1.5-1.3c-0.9,0-1.4,0.4-1.6,1h-1c0.1-1.2,1.1-1.9,2.6-1.9c1.6,0,2.5,0.8,2.5,2.2
			v2.7c0,0.3,0.1,0.4,0.4,0.4H147.1z M145.4,300.9h-1.9c-0.9,0-1.4,0.3-1.4,1c0,0.6,0.5,1,1.3,1c1.2,0,1.9-0.7,1.9-1.7V300.9z"/>
		<path class="st1" d="M149.1,303.7v-5.2h-2.2v-0.9h5.4v0.9h-2.2v5.2H149.1z"/>
		<path class="st1" d="M152.6,300.7c0-1.9,1.2-3.1,2.9-3.1c1.7,0,2.9,1.1,2.9,2.9c0,0.1,0,0.3,0,0.4h-4.7v0.1c0,1.2,0.8,2,1.9,2
			c0.9,0,1.5-0.5,1.7-1.2h1c-0.2,1.2-1.2,2.1-2.7,2.1C153.8,303.8,152.6,302.5,152.6,300.7z M157.3,300c-0.1-1.1-0.8-1.6-1.8-1.6
			c-0.9,0-1.7,0.6-1.8,1.6H157.3z"/>
		<path class="st1" d="M158.7,303.7v-0.9h0.2c0.7,0,1-0.4,1-2.3v-3h4.6v6.1h-1v-5.2h-2.7v2.1c0,2.4-0.6,3.1-1.8,3.1H158.7z"/>
		<path class="st1" d="M165.8,303.7v-6.1h1v2h1.6c1.5,0,2.4,0.8,2.4,2.1c0,1.3-0.9,2.1-2.4,2.1H165.8z M166.8,302.9h1.5
			c1,0,1.6-0.4,1.6-1.2c0-0.8-0.6-1.2-1.6-1.2h-1.5V302.9z"/>
		<path class="st1" d="M175.2,303.7v-8.4h2.7c2.6,0,4.2,1.7,4.2,4.2c0,2.5-1.6,4.2-4.2,4.2H175.2z M176.2,302.8h1.6
			c2,0,3.2-1.3,3.2-3.2c0-2-1.1-3.2-3.2-3.2h-1.6V302.8z"/>
		<path class="st1" d="M183.4,295.3h3c1.8,0,2.8,0.9,2.8,2.2c0,1-0.5,1.5-1.3,1.8c0.9,0.2,1.7,0.7,1.7,2c0,1.5-1.1,2.4-3,2.4h-3.1
			V295.3z M184.5,296.3v2.7h2c1.1,0,1.7-0.5,1.7-1.4c0-0.8-0.6-1.3-1.7-1.3H184.5z M184.5,299.9v2.9h2c1.3,0,2-0.5,2-1.4
			c0-0.9-0.7-1.5-2-1.5H184.5z"/>
		<path class="st1" d="M190.5,299.3c0-2.4,1.3-4.1,3.2-4.1c1.9,0,3.2,1.7,3.2,4.1v0.4c0,2.5-1.3,4.1-3.2,4.1c-1.9,0-3.2-1.6-3.2-4.1
			V299.3z M195.9,299.4c0-2-0.9-3.2-2.2-3.2c-1.3,0-2.2,1.2-2.2,3.2v0.3c0,2,0.9,3.2,2.2,3.2c1.3,0,2.2-1.2,2.2-3.2V299.4z"/>
		<path class="st1" d="M199.4,295.3h1v8.4h-1v-6c-0.1,0.1-0.3,0.2-0.6,0.2h-1.4V297h1.4c0.4,0,0.6-0.3,0.6-0.7V295.3z"/>
	</g>
</g>
<polygon class="st1" points="709.5,313.1 404.5,313.1 404.5,255.1 709.5,255.1 731.5,284.1 "/>
<g>
	<g>
		<path class="st3" d="M418.8,291.8h1v2.7h-1v-1.7h-6.4v1.7h-1v-2.7h0.8c0.6-0.5,0.9-1.3,0.9-3.7v-3.7h5.8V291.8z M417.8,291.8v-6.5
			H414v2.9c0,2-0.2,2.9-0.7,3.6H417.8z"/>
		<path class="st3" d="M420.4,292.7l3.2-8.4h1.2l3.2,8.4h-1.1l-0.9-2.3h-3.7l-0.9,2.3H420.4z M422.7,289.5h3l-1.5-4L422.7,289.5z"/>
		<path class="st3" d="M429,284.3h1v3.6h4.3v-3.6h1v8.4h-1v-3.8H430v3.8h-1V284.3z"/>
		<path class="st3" d="M437,284.3h1v3.6h4.3v-3.6h1v8.4h-1v-3.8h-4.3v3.8h-1V284.3z"/>
		<path class="st3" d="M445.1,292.7v-8.4h1v3.2h2.1c1.7,0,2.8,1.1,2.8,2.6c0,1.5-1.1,2.6-2.8,2.6H445.1z M446.1,291.8h2
			c1.1,0,1.8-0.6,1.8-1.6c0-1-0.7-1.6-1.8-1.6h-2V291.8z M452.1,292.7v-8.4h1v8.4H452.1z"/>
		<path class="st3" d="M454.8,284.3h5.3v1h-4.3v2.7h3.6v1h-3.6v2.8h4.5v1h-5.5V284.3z"/>
		<path class="st3" d="M464.3,288.3c0-2.4,1.3-4.1,3.2-4.1c1.9,0,3.2,1.7,3.2,4.1v0.4c0,2.5-1.3,4.1-3.2,4.1c-1.9,0-3.2-1.6-3.2-4.1
			V288.3z M469.7,288.4c0-2-0.9-3.2-2.2-3.2c-1.3,0-2.2,1.2-2.2,3.2v0.3c0,2,0.9,3.2,2.2,3.2c1.3,0,2.2-1.2,2.2-3.2V288.4z"/>
		<path class="st3" d="M477.6,289.9c0,1.9-1.4,2.9-2.9,2.9c-1.9,0-3-1.2-3-2.7h1c0.1,1,0.8,1.8,2,1.8c1,0,1.9-0.7,1.9-2
			c0-1.1-0.7-1.9-1.9-1.9c-0.5,0-1.5,0.1-1.9,1.1l-1,0l0.3-4.8h5v0.9H473l-0.2,2.7c0.5-0.6,1.2-0.8,2-0.8
			C476.5,287.1,477.6,288.2,477.6,289.9z"/>
	</g>
</g>
<g>
	<g>
		<path class="st3" d="M412,305.4V297h6.4v8.4h-1V298H413v7.4H412z"/>
		<path class="st3" d="M419.6,302.3c0-1.9,1.2-3.1,3-3.1s3,1.3,3,3.1s-1.2,3.1-3,3.1S419.6,304.2,419.6,302.3z M424.7,302.3
			c0-1.3-0.8-2.3-2-2.3c-1.2,0-2,0.9-2,2.3c0,1.3,0.8,2.3,2,2.3C423.9,304.6,424.7,303.6,424.7,302.3z"/>
		<path class="st3" d="M426.8,305.4v-6.1h1v2.6h1.3l1.9-2.6h1.1l-2.2,2.9l2.4,3.2h-1.2l-2-2.7h-1.3v2.7H426.8z"/>
		<path class="st3" d="M438.6,304.5v0.9H438c-0.8,0-1.1-0.3-1.1-0.9c-0.4,0.6-1,1-2.1,1c-1.3,0-2.3-0.7-2.3-1.8
			c0-1.2,0.9-1.9,2.5-1.9h1.8v-0.4c0-0.8-0.6-1.3-1.5-1.3c-0.9,0-1.4,0.4-1.6,1h-1c0.1-1.2,1.1-1.9,2.6-1.9c1.6,0,2.5,0.8,2.5,2.2
			v2.7c0,0.3,0.1,0.4,0.4,0.4H438.6z M436.9,302.6H435c-0.9,0-1.4,0.3-1.4,1c0,0.6,0.5,1,1.3,1c1.2,0,1.9-0.7,1.9-1.7V302.6z"/>
		<path class="st3" d="M444.2,303.6c0,1.1-1,1.8-2.7,1.8c-1.7,0-2.5-0.7-2.5-2h1c0.1,0.7,0.5,1.1,1.5,1.1c1,0,1.7-0.4,1.7-1
			c0-0.6-0.5-0.9-1.2-0.9h-1v-0.9h1c0.7,0,1.2-0.3,1.2-0.9c0-0.6-0.5-0.9-1.5-0.9c-1,0-1.4,0.4-1.6,1.1h-1c0.1-1.1,1-1.9,2.6-1.9
			c1.5,0,2.4,0.7,2.4,1.7c0,0.8-0.4,1.2-1.1,1.3C443.8,302.4,444.2,302.8,444.2,303.6z"/>
		<path class="st3" d="M451.1,304.5v0.9h-0.5c-0.8,0-1.1-0.3-1.1-0.9c-0.4,0.6-1,1-2.1,1c-1.3,0-2.3-0.7-2.3-1.8
			c0-1.2,0.9-1.9,2.5-1.9h1.8v-0.4c0-0.8-0.6-1.3-1.5-1.3c-0.9,0-1.4,0.4-1.6,1h-1c0.1-1.2,1.1-1.9,2.6-1.9c1.6,0,2.5,0.8,2.5,2.2
			v2.7c0,0.3,0.1,0.4,0.4,0.4H451.1z M449.4,302.6h-1.9c-0.9,0-1.4,0.3-1.4,1c0,0.6,0.5,1,1.3,1c1.2,0,1.9-0.7,1.9-1.7V302.6z"/>
		<path class="st3" d="M453.1,305.4v-5.2h-2.2v-0.9h5.4v0.9h-2.2v5.2H453.1z"/>
		<path class="st3" d="M456.6,302.3c0-1.9,1.2-3.1,2.9-3.1c1.7,0,2.9,1.1,2.9,2.9c0,0.1,0,0.3,0,0.4h-4.8v0.1c0,1.2,0.8,2,1.9,2
			c0.9,0,1.5-0.5,1.7-1.2h1c-0.2,1.2-1.2,2.1-2.7,2.1C457.8,305.5,456.6,304.2,456.6,302.3z M461.3,301.7c-0.1-1.1-0.8-1.6-1.8-1.6
			c-0.9,0-1.7,0.6-1.8,1.6H461.3z"/>
		<path class="st3" d="M462.7,305.4v-0.9h0.2c0.7,0,1-0.4,1-2.3v-3h4.6v6.1h-1v-5.2h-2.7v2.1c0,2.4-0.6,3.1-1.8,3.1H462.7z"/>
		<path class="st3" d="M469.8,305.4v-6.1h1v2h1.6c1.5,0,2.4,0.8,2.4,2.1c0,1.3-0.9,2.1-2.4,2.1H469.8z M470.8,304.6h1.5
			c1,0,1.6-0.4,1.6-1.2c0-0.8-0.6-1.2-1.6-1.2h-1.5V304.6z"/>
		<path class="st3" d="M479.2,305.4V297h2.7c2.6,0,4.2,1.7,4.2,4.2c0,2.5-1.6,4.2-4.2,4.2H479.2z M480.2,304.4h1.6
			c2,0,3.2-1.3,3.2-3.2c0-2-1.1-3.2-3.2-3.2h-1.6V304.4z"/>
		<path class="st3" d="M487.4,297h3c1.8,0,2.8,0.9,2.8,2.2c0,1-0.5,1.5-1.3,1.8c0.9,0.2,1.7,0.7,1.7,2c0,1.5-1.1,2.4-3,2.4h-3.1V297
			z M488.5,297.9v2.7h2c1.1,0,1.7-0.5,1.7-1.4c0-0.8-0.6-1.3-1.7-1.3H488.5z M488.5,301.6v2.9h2c1.3,0,2-0.5,2-1.4
			c0-0.9-0.7-1.5-2-1.5H488.5z"/>
		<path class="st3" d="M494.5,301c0-2.4,1.3-4.1,3.2-4.1c1.9,0,3.2,1.7,3.2,4.1v0.4c0,2.5-1.3,4.1-3.2,4.1c-1.9,0-3.2-1.6-3.2-4.1
			V301z M499.9,301c0-2-0.9-3.2-2.2-3.2c-1.3,0-2.2,1.2-2.2,3.2v0.3c0,2,0.9,3.2,2.2,3.2c1.3,0,2.2-1.2,2.2-3.2V301z"/>
		<path class="st3" d="M503.4,297h1v8.4h-1v-6c-0.1,0.1-0.3,0.2-0.6,0.2h-1.4v-0.9h1.4c0.4,0,0.6-0.3,0.6-0.7V297z"/>
	</g>
</g>
<circle class="st7" cx="332.5" cy="282.4" r="29.5"/>
<g>
	<g>
		<path class="st1" d="M313.1,282.5c0-6.4,2.9-10.4,7.7-10.4c3.7,0,6.2,2.2,6.7,5.6h-2.4c-0.5-2.1-1.9-3.5-4.4-3.5
			c-3.5,0-5.5,3.2-5.5,7.8c0,0.3,0,0.5,0,1c0-0.1,0.1-0.3,0.2-0.6c0.9-2,2.9-3.3,5.7-3.3c4,0,6.8,2.6,6.8,6.8c0,3.9-2.9,6.8-7,6.8
			c-2.8,0-4.9-1.3-6.1-3.4C313.7,287.6,313.1,285.1,313.1,282.5z M320.9,281.2c-2.8,0-4.7,1.9-4.7,4.7c0,2.7,1.9,4.6,4.6,4.6
			c2.8,0,4.6-1.9,4.6-4.7C325.5,283.2,323.7,281.2,320.9,281.2z"/>
		<path class="st1" d="M335.7,272c2.9,0,5.1,2.1,5.1,4.9c0,2.8-2.2,4.9-5.1,4.9s-5.1-2.1-5.1-4.9C330.6,274.1,332.8,272,335.7,272z
			 M335.7,274c-1.7,0-3,1.3-3,3c0,1.7,1.2,3,3,3s3-1.2,3-3C338.7,275.2,337.4,274,335.7,274z M334,292.5l13.8-20.3h2.3l-13.8,20.3
			H334z M348.5,282.9c2.9,0,5.1,2.1,5.1,4.9c0,2.8-2.2,4.9-5.1,4.9s-5.1-2.1-5.1-4.9C343.4,285,345.5,282.9,348.5,282.9z
			 M348.5,284.8c-1.7,0-3,1.3-3,3c0,1.7,1.2,3,3,3s3-1.2,3-3C351.4,286.1,350.2,284.8,348.5,284.8z"/>
	</g>
</g>
<circle class="st7" cx="108.8" cy="381.8" r="37.8"/>
<g>
	<g>
		<path class="st1" d="M89.5,371.4h0.9v3H94v-3h0.9v7H94v-3.2h-3.6v3.2h-0.9V371.4z"/>
		<path class="st1" d="M95.7,378.4l2.7-7h1l2.7,7h-0.9l-0.7-1.9h-3l-0.7,1.9H95.7z M97.6,375.7h2.5l-1.3-3.4L97.6,375.7z"/>
		<path class="st1" d="M106.1,371.4h0.9v7h-0.9v-3c-0.5,0.3-1.1,0.5-1.9,0.5c-1.4,0-2.4-0.7-2.4-2.2v-2.3h0.9v2.1
			c0,1.1,0.6,1.5,1.6,1.5c0.7,0,1.3-0.2,1.8-0.5V371.4z"/>
		<path class="st1" d="M107.8,378.4l2.7-7h1l2.7,7h-0.9l-0.7-1.9h-3l-0.7,1.9H107.8z M109.7,375.7h2.5l-1.3-3.4L109.7,375.7z"/>
		<path class="st1" d="M114.5,378.4v-0.8h0.2c0.8,0,1.1-0.5,1.1-2.8v-3.4h4.9v7h-0.9v-6.2h-3.1v2.7c0,2.7-0.6,3.5-1.8,3.5H114.5z"/>
		<path class="st1" d="M125.1,378.4c-2,0-3.3-1.5-3.3-3.6s1.4-3.6,3.3-3.6c2,0,3.3,1.5,3.3,3.6S127,378.4,125.1,378.4z M125.1,377.6
			c1.5,0,2.4-1.1,2.4-2.8s-1-2.8-2.4-2.8c-1.5,0-2.4,1.1-2.4,2.8S123.6,377.6,125.1,377.6z"/>
		<path class="st1" d="M87.8,390.4v-7h5.3v7h-0.9v-6.2h-3.6v6.2H87.8z"/>
		<path class="st1" d="M94.5,383.4h2.7c1.4,0,2.3,0.8,2.3,2.1c0,1.3-0.9,2.2-2.3,2.2h-1.8v2.7h-0.9V383.4z M95.3,384.2v2.7h1.7
			c0.9,0,1.5-0.5,1.5-1.4c0-0.8-0.6-1.3-1.5-1.3H95.3z"/>
		<path class="st1" d="M103.5,390.4c-2,0-3.3-1.5-3.3-3.6s1.4-3.6,3.3-3.6c2,0,3.3,1.5,3.3,3.6S105.5,390.4,103.5,390.4z
			 M103.5,389.6c1.5,0,2.4-1.1,2.4-2.8s-1-2.8-2.4-2.8c-1.5,0-2.4,1.1-2.4,2.8S102,389.6,103.5,389.6z"/>
		<path class="st1" d="M107.9,383.4h4.5v0.8h-3.6v2.2h3v0.8h-3v2.4h3.7v0.8h-4.6V383.4z"/>
		<path class="st1" d="M113.5,390.4v-7h0.9v3h1.3l2.3-3h1l-2.6,3.4l2.7,3.6h-1.1l-2.4-3.2h-1.3v3.2H113.5z"/>
		<path class="st1" d="M119.3,383.4h5.4v0.8h-2.3v6.2h-0.9v-6.2h-2.3V383.4z"/>
		<path class="st1" d="M124.1,390.4l2.7-7h1l2.7,7h-0.9l-0.7-1.9h-3l-0.7,1.9H124.1z M126,387.7h2.5l-1.3-3.4L126,387.7z"/>
	</g>
</g>
<circle class="st1" cx="744.2" cy="381.8" r="37.8"/>
<g>
	<g>
		<path class="st3" d="M718.1,378.4c-2,0-3.3-1.5-3.3-3.6s1.4-3.6,3.3-3.6s3.3,1.5,3.3,3.6S720,378.4,718.1,378.4z M718.1,377.6
			c1.5,0,2.4-1.1,2.4-2.8s-1-2.8-2.4-2.8s-2.4,1.1-2.4,2.8S716.6,377.6,718.1,377.6z"/>
		<path class="st3" d="M722.5,378.4v-7h0.9v3h1.3l2.3-3h1l-2.6,3.4l2.7,3.6h-1.1l-2.4-3.2h-1.3v3.2H722.5z"/>
		<path class="st3" d="M731.6,378.4c-2,0-3.3-1.5-3.3-3.6s1.4-3.6,3.3-3.6c2,0,3.3,1.5,3.3,3.6S733.6,378.4,731.6,378.4z
			 M731.6,377.6c1.5,0,2.4-1.1,2.4-2.8s-1-2.8-2.4-2.8c-1.5,0-2.4,1.1-2.4,2.8S730.2,377.6,731.6,377.6z"/>
		<path class="st3" d="M736.1,371.4h0.9v3h3.6v-3h0.9v7h-0.9v-3.2h-3.6v3.2h-0.9V371.4z"/>
		<path class="st3" d="M746.8,371.4h0.9v7h-0.9v-3c-0.5,0.3-1.1,0.5-1.9,0.5c-1.4,0-2.4-0.7-2.4-2.2v-2.3h0.9v2.1
			c0,1.1,0.6,1.5,1.6,1.5c0.7,0,1.3-0.2,1.8-0.5V371.4z"/>
		<path class="st3" d="M748.5,378.4l2.7-7h1l2.7,7h-0.9l-0.7-1.9h-3l-0.7,1.9H748.5z M750.4,375.7h2.5l-1.3-3.4L750.4,375.7z"/>
		<path class="st3" d="M755.6,371.4h0.9v3h3.6v-3h0.9v7h-0.9v-3.2h-3.6v3.2h-0.9V371.4z"/>
		<path class="st3" d="M762.3,378.4v-7h0.9v5.5l3.7-5.5h0.8v7h-0.9v-5.5l-3.7,5.5H762.3z"/>
		<path class="st3" d="M769.1,371.4h4.5v0.8H770v2.2h3v0.8h-3v2.4h3.7v0.8h-4.6V371.4z"/>
		<path class="st3" d="M723.1,390.4v-7h5.3v7h-0.9v-6.2H724v6.2H723.1z"/>
		<path class="st3" d="M729.8,383.4h2.7c1.4,0,2.3,0.8,2.3,2.1c0,1.3-0.9,2.2-2.3,2.2h-1.8v2.7h-0.9V383.4z M730.7,384.2v2.7h1.7
			c0.9,0,1.5-0.5,1.5-1.4c0-0.8-0.6-1.3-1.5-1.3H730.7z"/>
		<path class="st3" d="M738.8,390.4c-2,0-3.3-1.5-3.3-3.6s1.4-3.6,3.3-3.6c2,0,3.3,1.5,3.3,3.6S740.8,390.4,738.8,390.4z
			 M738.8,389.6c1.5,0,2.4-1.1,2.4-2.8s-1-2.8-2.4-2.8c-1.5,0-2.4,1.1-2.4,2.8S737.4,389.6,738.8,389.6z"/>
		<path class="st3" d="M743.3,383.4h4.5v0.8h-3.6v2.2h3v0.8h-3v2.4h3.7v0.8h-4.6V383.4z"/>
		<path class="st3" d="M748.8,390.4v-7h0.9v3h1.3l2.3-3h1l-2.6,3.4l2.7,3.6h-1.1l-2.4-3.2h-1.3v3.2H748.8z"/>
		<path class="st3" d="M754.6,383.4h5.4v0.8h-2.3v6.2h-0.9v-6.2h-2.3V383.4z"/>
		<path class="st3" d="M759.4,390.4l2.7-7h1l2.7,7h-0.9l-0.7-1.9h-3l-0.7,1.9H759.4z M761.3,387.7h2.5l-1.3-3.4L761.3,387.7z"/>
	</g>
</g>
<g>
	<g>
		<path class="st1" d="M383.2,275.7l6.8,6.7l-6.7,6.7l-0.8-0.8l5.4-5.3h-13.1v-1.1h13.1l-5.4-5.4L383.2,275.7z"/>
	</g>
</g>
<line class="st8" x1="146.7" y1="381.8" x2="706.3" y2="381.8"/>
<circle class="st7" cx="215" cy="381.8" r="9.7"/>
<circle class="st7" cx="613" cy="381.8" r="9.7"/>
<circle class="st7" cx="356" cy="381.8" r="9.7"/>
<circle class="st7" cx="468.8" cy="381.8" r="9.7"/>
<g>
	<g>
		<path class="st1" d="M220.7,414.3c0-1.9,1.2-3.2,3-3.2c1.4,0,2.4,0.8,2.6,2.1h-0.8c-0.2-0.9-0.9-1.4-1.8-1.4c-1.3,0-2.1,1-2.1,2.5
			c0,1.4,0.8,2.5,2.1,2.5c1,0,1.6-0.5,1.9-1.4h0.8c-0.2,1.3-1.3,2.1-2.7,2.1C221.8,417.5,220.7,416.2,220.7,414.3z"/>
		<path class="st1" d="M226.5,411.2h4.8v0.7h-2v5.5h-0.8v-5.5h-2V411.2z"/>
		<path class="st1" d="M230.7,417.4l2.4-6.2h0.9l2.4,6.2h-0.8l-0.7-1.7h-2.7l-0.7,1.7H230.7z M232.4,415h2.3l-1.1-3L232.4,415z"/>
		<path class="st1" d="M242.3,416.7h0.8v2h-0.8v-1.3h-4.8v1.3h-0.8v-2h0.6c0.4-0.4,0.7-1,0.7-2.8v-2.7h4.3V416.7z M241.5,416.7v-4.9
			h-2.8v2.2c0,1.5-0.2,2.2-0.5,2.7H241.5z"/>
		<path class="st1" d="M243.8,417.4v-6.2h0.8v4.9l3.3-4.9h0.7v6.2h-0.8v-4.9l-3.3,4.9H243.8z"/>
		<path class="st1" d="M254.2,411.2v6.2h-0.8V415H252l-1.5,2.4h-0.9l1.5-2.5c-1-0.2-1.5-0.9-1.5-1.8c0-1.1,0.8-1.9,2.1-1.9H254.2z
			 M253.5,414.3v-2.4h-1.6c-0.8,0-1.4,0.5-1.4,1.2s0.5,1.2,1.4,1.2H253.5z"/>
		<path class="st1" d="M220.9,428.1v-6.2h4.7v6.2h-0.8v-5.5h-3.2v5.5H220.9z"/>
		<path class="st1" d="M226.9,421.9h2.4c1.2,0,2.1,0.7,2.1,1.9s-0.8,1.9-2.1,1.9h-1.6v2.4h-0.8V421.9z M227.6,422.6v2.4h1.5
			c0.8,0,1.3-0.5,1.3-1.2s-0.5-1.2-1.3-1.2H227.6z"/>
		<path class="st1" d="M234.9,428.1c-1.8,0-3-1.3-3-3.2c0-1.8,1.2-3.2,3-3.2s3,1.3,3,3.2C237.9,426.8,236.6,428.1,234.9,428.1z
			 M234.9,427.4c1.3,0,2.2-1,2.2-2.5c0-1.4-0.9-2.5-2.2-2.5s-2.2,1-2.2,2.5C232.7,426.4,233.6,427.4,234.9,427.4z"/>
		<path class="st1" d="M238.8,421.9h4v0.7h-3.2v2h2.7v0.7h-2.7v2.1h3.3v0.7h-4.1V421.9z"/>
		<path class="st1" d="M243.8,428.1v-6.2h0.8v2.7h1.1l2-2.7h0.9l-2.3,3l2.4,3.2h-0.9l-2.1-2.8h-1.1v2.8H243.8z"/>
		<path class="st1" d="M249,421.9h4.8v0.7h-2v5.5H251v-5.5h-2V421.9z"/>
		<path class="st1" d="M253.2,428.1l2.4-6.2h0.9l2.4,6.2H258l-0.7-1.7h-2.7l-0.7,1.7H253.2z M254.9,425.7h2.3l-1.1-3L254.9,425.7z"
			/>
	</g>
</g>
<line class="st8" x1="215" y1="391.4" x2="215" y2="429.2"/>
<g>
	<g>
		<path class="st1" d="M361.7,414.3c0-1.9,1.2-3.2,3-3.2c1.4,0,2.4,0.8,2.6,2.1h-0.8c-0.2-0.9-0.9-1.4-1.8-1.4c-1.3,0-2.1,1-2.1,2.5
			c0,1.4,0.8,2.5,2.1,2.5c1,0,1.6-0.5,1.9-1.4h0.8c-0.2,1.3-1.3,2.1-2.7,2.1C362.8,417.5,361.7,416.2,361.7,414.3z"/>
		<path class="st1" d="M367.5,411.2h4.8v0.7h-2v5.5h-0.8v-5.5h-2V411.2z"/>
		<path class="st1" d="M371.7,417.4l2.4-6.2h0.9l2.4,6.2h-0.8l-0.7-1.7h-2.7l-0.7,1.7H371.7z M373.4,415h2.3l-1.1-3L373.4,415z"/>
		<path class="st1" d="M383.3,416.7h0.8v2h-0.8v-1.3h-4.8v1.3h-0.8v-2h0.6c0.4-0.4,0.7-1,0.7-2.8v-2.7h4.3V416.7z M382.5,416.7v-4.9
			h-2.8v2.2c0,1.5-0.2,2.2-0.5,2.7H382.5z"/>
		<path class="st1" d="M384.8,417.4v-6.2h0.8v4.9l3.3-4.9h0.7v6.2h-0.8v-4.9l-3.3,4.9H384.8z"/>
		<path class="st1" d="M395.2,411.2v6.2h-0.8V415H393l-1.5,2.4h-0.9l1.5-2.5c-1-0.2-1.5-0.9-1.5-1.8c0-1.1,0.8-1.9,2.1-1.9H395.2z
			 M394.5,414.3v-2.4h-1.6c-0.8,0-1.4,0.5-1.4,1.2s0.5,1.2,1.4,1.2H394.5z"/>
		<path class="st1" d="M361.9,428.1v-6.2h4.7v6.2h-0.8v-5.5h-3.2v5.5H361.9z"/>
		<path class="st1" d="M367.9,421.9h2.4c1.2,0,2.1,0.7,2.1,1.9s-0.8,1.9-2.1,1.9h-1.6v2.4h-0.8V421.9z M368.6,422.6v2.4h1.5
			c0.8,0,1.3-0.5,1.3-1.2s-0.5-1.2-1.3-1.2H368.6z"/>
		<path class="st1" d="M375.9,428.1c-1.8,0-3-1.3-3-3.2c0-1.8,1.2-3.2,3-3.2s3,1.3,3,3.2C378.9,426.8,377.6,428.1,375.9,428.1z
			 M375.9,427.4c1.3,0,2.2-1,2.2-2.5c0-1.4-0.9-2.5-2.2-2.5s-2.2,1-2.2,2.5C373.7,426.4,374.6,427.4,375.9,427.4z"/>
		<path class="st1" d="M379.8,421.9h4v0.7h-3.2v2h2.7v0.7h-2.7v2.1h3.3v0.7h-4.1V421.9z"/>
		<path class="st1" d="M384.8,428.1v-6.2h0.8v2.7h1.1l2-2.7h0.9l-2.3,3l2.4,3.2h-0.9l-2.1-2.8h-1.1v2.8H384.8z"/>
		<path class="st1" d="M390,421.9h4.8v0.7h-2v5.5H392v-5.5h-2V421.9z"/>
		<path class="st1" d="M394.2,428.1l2.4-6.2h0.9l2.4,6.2H399l-0.7-1.7h-2.7l-0.7,1.7H394.2z M395.9,425.7h2.3l-1.1-3L395.9,425.7z"
			/>
	</g>
</g>
<line class="st8" x1="356" y1="391.4" x2="356" y2="429.2"/>
<g>
	<g>
		<path class="st1" d="M474.5,414.3c0-1.9,1.2-3.2,3-3.2c1.4,0,2.4,0.8,2.6,2.1h-0.8c-0.2-0.9-0.9-1.4-1.8-1.4c-1.3,0-2.1,1-2.1,2.5
			c0,1.4,0.8,2.5,2.1,2.5c1,0,1.6-0.5,1.9-1.4h0.8c-0.2,1.3-1.3,2.1-2.7,2.1C475.7,417.5,474.5,416.2,474.5,414.3z"/>
		<path class="st1" d="M480.3,411.2h4.8v0.7h-2v5.5h-0.8v-5.5h-2V411.2z"/>
		<path class="st1" d="M484.5,417.4l2.4-6.2h0.9l2.4,6.2h-0.8l-0.7-1.7H486l-0.7,1.7H484.5z M486.2,415h2.3l-1.1-3L486.2,415z"/>
		<path class="st1" d="M496.1,416.7h0.8v2h-0.8v-1.3h-4.8v1.3h-0.8v-2h0.6c0.4-0.4,0.7-1,0.7-2.8v-2.7h4.3V416.7z M495.3,416.7v-4.9
			h-2.8v2.2c0,1.5-0.2,2.2-0.5,2.7H495.3z"/>
		<path class="st1" d="M497.7,417.4v-6.2h0.8v4.9l3.3-4.9h0.7v6.2h-0.8v-4.9l-3.3,4.9H497.7z"/>
		<path class="st1" d="M508.1,411.2v6.2h-0.8V415h-1.5l-1.5,2.4h-0.9l1.5-2.5c-1-0.2-1.5-0.9-1.5-1.8c0-1.1,0.8-1.9,2.1-1.9H508.1z
			 M507.3,414.3v-2.4h-1.6c-0.8,0-1.4,0.5-1.4,1.2s0.5,1.2,1.4,1.2H507.3z"/>
		<path class="st1" d="M474.8,428.1v-6.2h4.7v6.2h-0.8v-5.5h-3.2v5.5H474.8z"/>
		<path class="st1" d="M480.7,421.9h2.4c1.2,0,2.1,0.7,2.1,1.9s-0.8,1.9-2.1,1.9h-1.6v2.4h-0.8V421.9z M481.5,422.6v2.4h1.5
			c0.8,0,1.3-0.5,1.3-1.2s-0.5-1.2-1.3-1.2H481.5z"/>
		<path class="st1" d="M488.7,428.1c-1.8,0-3-1.3-3-3.2c0-1.8,1.2-3.2,3-3.2c1.8,0,3,1.3,3,3.2C491.7,426.8,490.5,428.1,488.7,428.1
			z M488.7,427.4c1.3,0,2.2-1,2.2-2.5c0-1.4-0.9-2.5-2.2-2.5s-2.2,1-2.2,2.5C486.5,426.4,487.4,427.4,488.7,427.4z"/>
		<path class="st1" d="M492.7,421.9h4v0.7h-3.2v2h2.7v0.7h-2.7v2.1h3.3v0.7h-4.1V421.9z"/>
		<path class="st1" d="M497.6,428.1v-6.2h0.8v2.7h1.1l2-2.7h0.9l-2.3,3l2.4,3.2h-0.9l-2.1-2.8h-1.1v2.8H497.6z"/>
		<path class="st1" d="M502.8,421.9h4.8v0.7h-2v5.5h-0.8v-5.5h-2V421.9z"/>
		<path class="st1" d="M507,428.1l2.4-6.2h0.9l2.4,6.2h-0.8l-0.7-1.7h-2.7l-0.7,1.7H507z M508.7,425.7h2.3l-1.1-3L508.7,425.7z"/>
	</g>
</g>
<line class="st8" x1="468.8" y1="391.4" x2="468.8" y2="429.2"/>
<g>
	<g>
		<path class="st1" d="M618.7,414.3c0-1.9,1.2-3.2,3-3.2c1.4,0,2.4,0.8,2.6,2.1h-0.8c-0.2-0.9-0.9-1.4-1.8-1.4c-1.3,0-2.1,1-2.1,2.5
			c0,1.4,0.8,2.5,2.1,2.5c1,0,1.6-0.5,1.9-1.4h0.8c-0.2,1.3-1.3,2.1-2.7,2.1C619.8,417.5,618.7,416.2,618.7,414.3z"/>
		<path class="st1" d="M624.5,411.2h4.8v0.7h-2v5.5h-0.8v-5.5h-2V411.2z"/>
		<path class="st1" d="M628.7,417.4l2.4-6.2h0.9l2.4,6.2h-0.8l-0.7-1.7h-2.7l-0.7,1.7H628.7z M630.4,415h2.3l-1.1-3L630.4,415z"/>
		<path class="st1" d="M640.3,416.7h0.8v2h-0.8v-1.3h-4.8v1.3h-0.8v-2h0.6c0.4-0.4,0.7-1,0.7-2.8v-2.7h4.3V416.7z M639.5,416.7v-4.9
			h-2.8v2.2c0,1.5-0.2,2.2-0.5,2.7H639.5z"/>
		<path class="st1" d="M641.8,417.4v-6.2h0.8v4.9l3.3-4.9h0.7v6.2h-0.8v-4.9l-3.3,4.9H641.8z"/>
		<path class="st1" d="M652.2,411.2v6.2h-0.8V415H650l-1.5,2.4h-0.9l1.5-2.5c-1-0.2-1.5-0.9-1.5-1.8c0-1.1,0.8-1.9,2.1-1.9H652.2z
			 M651.5,414.3v-2.4h-1.6c-0.8,0-1.4,0.5-1.4,1.2s0.5,1.2,1.4,1.2H651.5z"/>
		<path class="st1" d="M618.9,428.1v-6.2h4.7v6.2h-0.8v-5.5h-3.2v5.5H618.9z"/>
		<path class="st1" d="M624.9,421.9h2.4c1.2,0,2.1,0.7,2.1,1.9s-0.8,1.9-2.1,1.9h-1.6v2.4h-0.8V421.9z M625.6,422.6v2.4h1.5
			c0.8,0,1.3-0.5,1.3-1.2s-0.5-1.2-1.3-1.2H625.6z"/>
		<path class="st1" d="M632.9,428.1c-1.8,0-3-1.3-3-3.2c0-1.8,1.2-3.2,3-3.2c1.8,0,3,1.3,3,3.2C635.9,426.8,634.6,428.1,632.9,428.1
			z M632.9,427.4c1.3,0,2.2-1,2.2-2.5c0-1.4-0.9-2.5-2.2-2.5s-2.2,1-2.2,2.5C630.7,426.4,631.6,427.4,632.9,427.4z"/>
		<path class="st1" d="M636.8,421.9h4v0.7h-3.2v2h2.7v0.7h-2.7v2.1h3.3v0.7h-4.1V421.9z"/>
		<path class="st1" d="M641.8,428.1v-6.2h0.8v2.7h1.1l2-2.7h0.9l-2.3,3l2.4,3.2h-0.9l-2.1-2.8h-1.1v2.8H641.8z"/>
		<path class="st1" d="M647,421.9h4.8v0.7h-2v5.5H649v-5.5h-2V421.9z"/>
		<path class="st1" d="M651.2,428.1l2.4-6.2h0.9l2.4,6.2H656l-0.7-1.7h-2.7l-0.7,1.7H651.2z M652.9,425.7h2.3l-1.1-3L652.9,425.7z"
			/>
	</g>
</g>
<line class="st8" x1="613" y1="391.4" x2="613" y2="429.2"/>
</svg>
