<?xml version="1.0" encoding="utf-8"?>
<!-- Generator: Adobe Illustrator 22.0.0, SVG Export Plug-In . SVG Version: 6.00 Build 0)  -->
<svg version="1.1" id="Layer_1" xmlns="http://www.w3.org/2000/svg" xmlns:xlink="http://www.w3.org/1999/xlink" x="0px" y="0px"
	 viewBox="0 0 1600 1163.6" style="enable-background:new 0 0 1600 1163.6;" xml:space="preserve">
<style type="text/css">
	.st0{fill:#1B1B2D;}
	.st1{fill:#D1D1D5;}
	.st2{fill:#FFFFFF;}
	.st3{fill:#3B3B4B;}
</style>
<g>
	<g>
		<path class="st0" d="M945.6,433.9v-16.8h1.9v16.8H945.6z"/>
		<path class="st0" d="M951.3,433.9v-16.8h3.2l7.6,14.5h0.5v-14.5h1.9v16.8h-3.2l-7.6-14.5h-0.5v14.5H951.3z"/>
		<path class="st0" d="M968.4,433.9v-16.8h10.6v1.8h-8.6v5.6h8.2v1.8h-8.2v7.6H968.4z"/>
		<path class="st0" d="M989.2,434.1c-1.5,0-2.8-0.4-4.1-1.1c-1.2-0.7-2.2-1.7-2.9-3.1c-0.7-1.3-1.1-2.8-1.1-4.5
			c0-1.7,0.4-3.2,1.1-4.5c0.7-1.3,1.7-2.3,2.9-3.1c1.2-0.7,2.6-1.1,4.1-1.1c1.5,0,2.8,0.4,4.1,1.1c1.2,0.7,2.2,1.7,2.9,3.1
			c0.7,1.3,1.1,2.8,1.1,4.5c0,1.7-0.4,3.2-1.1,4.5c-0.7,1.3-1.7,2.3-2.9,3.1C992.1,433.8,990.7,434.1,989.2,434.1z M989.2,432.3
			c1.1,0,2.1-0.3,3.1-0.9s1.7-1.4,2.2-2.4s0.8-2.2,0.8-3.6c0-1.3-0.3-2.5-0.8-3.6s-1.3-1.8-2.2-2.4s-2-0.9-3.1-0.9s-2.1,0.3-3.1,0.9
			s-1.7,1.4-2.2,2.4s-0.8,2.2-0.8,3.6c0,1.3,0.3,2.5,0.8,3.6s1.3,1.8,2.2,2.4S988.1,432.3,989.2,432.3z"/>
		<path class="st0" d="M1000.4,433.9v-16.8h10.8v1.8h-8.9v5.6h8.4v1.8h-8.4v5.8h8.9v1.8H1000.4z"/>
		<path class="st0" d="M1016.7,433.9v-13.2h-3.6V419h2.9c0.2,0,0.4-0.1,0.5-0.2c0.1-0.1,0.2-0.3,0.2-0.5v-1.2h1.9v16.8H1016.7z"/>
		<path class="st0" d="M1028.4,434.1c-1.2,0-2.3-0.3-3.3-1c-1-0.7-1.8-1.7-2.4-3c-0.6-1.3-0.9-2.9-0.9-4.7c0-1.8,0.3-3.4,0.9-4.7
			c0.6-1.3,1.4-2.3,2.4-3s2.1-1,3.3-1c1.2,0,2.3,0.3,3.3,1s1.8,1.7,2.4,3c0.6,1.3,0.9,2.9,0.9,4.7c0,1.8-0.3,3.4-0.9,4.7
			c-0.6,1.3-1.4,2.3-2.4,3C1030.6,433.8,1029.5,434.1,1028.4,434.1z M1028.4,432.3c0.8,0,1.6-0.3,2.3-0.8c0.7-0.5,1.3-1.3,1.7-2.3
			s0.6-2.3,0.6-3.7c0-1.5-0.2-2.7-0.6-3.7s-1-1.8-1.7-2.3c-0.7-0.5-1.5-0.8-2.3-0.8s-1.6,0.3-2.3,0.8c-0.7,0.5-1.3,1.3-1.7,2.3
			s-0.6,2.3-0.6,3.7c0,1.5,0.2,2.7,0.6,3.7s1,1.8,1.7,2.3C1026.8,432.1,1027.5,432.3,1028.4,432.3z"/>
	</g>
</g>
<rect class="st1" width="1600" height="1163.6"/>
<g>
	<path class="st0" d="M456.3,385.6l28.1-74.2h12.7l28.1,74.2h-9l-24.4-65.2h-2.1l-24.4,65.2H456.3z M471.2,366.5v-8h39.8v8H471.2z"
		/>
	<path class="st0" d="M533.7,385.6v-74.2h49.8v8h-41.3v23.9h24.9c3.7,0,7,0.9,10.1,2.6c3.1,1.8,5.5,4.3,7.3,7.5
		c1.8,3.2,2.7,6.9,2.7,11.1c0,4.2-0.9,7.9-2.7,11.1c-1.8,3.2-4.2,5.7-7.3,7.5c-3.1,1.8-6.4,2.7-10.1,2.7H533.7z M567.1,377.6
		c2.3,0,4.3-0.5,6-1.6c1.8-1.1,3.1-2.6,4.1-4.7c1-2,1.5-4.3,1.5-6.9c0-4-1.1-7.2-3.2-9.6c-2.2-2.4-5-3.7-8.4-3.7h-24.9v26.5H567.1z"
		/>
	<path class="st0" d="M601,385.6v-74.2h31.8c3.7,0,7,0.9,10.1,2.8c3.1,1.8,5.5,4.3,7.3,7.5c1.8,3.1,2.7,6.6,2.7,10.4
		c0,2.5-0.4,4.9-1.2,7c-0.8,2.2-1.8,4-3,5.5c-1.2,1.5-2.4,2.6-3.7,3.3v0.5c2.3,1.1,4.4,3,6.3,5.9c1.8,2.9,2.8,6.4,2.8,10.5
		c0,3.8-0.9,7.3-2.7,10.4c-1.8,3.1-4.2,5.6-7.3,7.5c-3.1,1.8-6.5,2.8-10.1,2.8H601z M632.8,344.8c2.1,0,4.1-0.5,5.8-1.6
		c1.8-1.1,3.2-2.6,4.2-4.6c1.1-1.9,1.6-4.1,1.6-6.5c0-2.4-0.5-4.6-1.6-6.5c-1.1-1.9-2.5-3.5-4.2-4.6c-1.8-1.1-3.7-1.6-5.8-1.6h-23.3
		v25.4H632.8z M633.9,377.6c2.1,0,4.1-0.5,5.8-1.6c1.8-1.1,3.2-2.6,4.2-4.6c1.1-1.9,1.6-4.1,1.6-6.5c0-3.7-1.1-6.7-3.4-9.1
		c-2.3-2.4-5-3.6-8.3-3.6h-24.4v25.4H633.9z"/>
	<path class="st0" d="M668.9,385.6v-74.2h46.6v8h-38.2v66.3H668.9z"/>
	<path class="st0" d="M713.4,400.4v-22.8h1.6c2.7,0,4.7-0.7,6-2.1c1.3-1.4,2.2-3.5,2.4-6.4l4.8-57.8h46.1v66.3h8v22.8h-8.5v-14.8
		h-51.9v14.8H713.4z M728.8,377.6h37.1v-58.3h-29.7l-4.2,49.8c-0.1,1.6-0.4,2.9-0.7,4.1c-0.4,1.2-0.7,2.2-1.2,2.9
		C729.6,376.9,729.2,377.4,728.8,377.6z"/>
	<path class="st0" d="M794,385.6v-74.2h47.7v8h-39.2v24.9h37.1v8h-37.1v25.4h39.2v8H794z"/>
	<path class="st0" d="M856,385.6v-74.2h47.7v8h-39.2v24.9h37.1v8h-37.1v25.4h39.2v8H856z M866.6,300.8v-9h9v9H866.6z M885.1,300.8
		v-9h9v9H885.1z"/>
	<path class="st0" d="M909.5,385.6l29.2-37.6l-27-36.6h10.2l25.9,35v-35h8.5v35l25.9-35h10.2l-27,36.6l29.2,37.6h-10.1L956.1,349
		v36.6h-8.5V349l-28.1,36.6H909.5z"/>
	<path class="st0" d="M1025,386.6c-5.5,0-10.3-0.9-14.4-2.8c-4.1-1.9-7.2-4.4-9.4-7.7c-2.2-3.3-3.3-6.8-3.3-10.7h8.5
		c0,2.3,0.7,4.5,2.2,6.5c1.4,2,3.6,3.6,6.4,4.9c2.8,1.2,6.1,1.9,10,1.9c3.7,0,7-0.6,9.9-1.9c2.8-1.2,5-2.9,6.5-4.9
		c1.5-2,2.2-4.2,2.2-6.5s-0.7-4.5-2-6.5c-1.3-2-3.2-3.6-5.6-4.9c-2.4-1.2-5.2-1.9-8.3-1.9h-7.4v-8h7.4c2.8,0,5.2-0.6,7.4-1.7
		c2.2-1.2,3.9-2.7,5.1-4.7c1.2-1.9,1.8-4,1.8-6.3c0-2.5-0.7-4.7-2.1-6.7c-1.4-2-3.3-3.6-5.9-4.8s-5.5-1.7-9-1.7
		c-3.4,0-6.4,0.6-9,1.9c-2.6,1.2-4.6,2.9-5.9,4.9s-2.1,4.2-2.1,6.5h-8.5c0-3.9,1-7.5,3.1-10.7c2-3.2,5-5.8,8.9-7.7
		c3.9-1.9,8.4-2.8,13.5-2.8c5.1,0,9.6,1,13.5,2.9c3.9,1.9,6.9,4.5,8.9,7.8c2,3.3,3.1,6.8,3.1,10.5c0,4.2-1.2,7.8-3.6,10.7
		c-2.4,2.9-5.1,4.8-8.1,5.7v0.5c3.4,0.9,6.4,2.9,9.2,5.9c2.7,3,4.1,6.7,4.1,11.1c0,3.9-1.1,7.5-3.3,10.7c-2.2,3.3-5.3,5.8-9.4,7.7
		C1035.3,385.7,1030.6,386.6,1025,386.6z"/>
	<path class="st0" d="M1065.9,385.6v-74.2h8.5v64.1h2.1l33.4-64.1h14.3v74.2h-8.5v-64.1h-2.1l-33.4,64.1H1065.9z"/>
	<path class="st0" d="M1141.1,385.6v-74.2h8.5v64.1h2.1l33.4-64.1h14.3v74.2h-8.5v-64.1h-2.1l-33.4,64.1H1141.1z M1170.3,302.9
		c-4,0-7.4-1.2-10.2-3.7c-2.8-2.4-4.3-5.6-4.6-9.6h6.9c0.3,2.3,1.1,4.2,2.5,5.5c1.4,1.3,3.2,2,5.4,2c2.2,0,4-0.7,5.4-2
		c1.4-1.3,2.3-3.1,2.5-5.5h6.9c-0.3,4-1.8,7.2-4.6,9.6C1177.7,301.7,1174.3,302.9,1170.3,302.9z"/>
	<path class="st0" d="M1216.4,385.6v-74.2h8.5v35l31.3-35h10.6l-32.9,36.6l35,37.6h-10.7l-33.3-36v36H1216.4z"/>
	<path class="st0" d="M1267.8,386.1v-8.5h3.7c2.2,0,4-0.7,5.4-2.1c1.4-1.4,2.3-3.5,2.5-6.4l4.8-57.8h46.1v74.2h-8.5v-66.3h-29.7
		l-4.2,49.8c-0.5,5.8-2.1,10.1-4.8,12.8c-2.7,2.8-6.6,4.1-11.7,4.1H1267.8z"/>
	<path class="st0" d="M1347.3,385.6v-74.2h15.4l22.8,64.7h2.1l22.8-64.7h15.4v74.2h-8.5v-63.1h-2.1l-22.3,63.1h-12.7l-22.3-63.1
		h-2.1v63.1H1347.3z"/>
	<path class="st0" d="M464.8,488.8v-74.2h8.5v32.9h41.3v-32.9h8.5v74.2h-8.5v-33.4h-41.3v33.4H464.8z"/>
	<path class="st0" d="M572.4,489.9c-6.5,0-12.5-1.6-17.9-4.8c-5.4-3.2-9.7-7.7-12.9-13.5c-3.1-5.8-4.7-12.4-4.7-19.8
		c0-7.4,1.6-14,4.7-19.8c3.1-5.8,7.4-10.3,12.9-13.5c5.4-3.2,11.4-4.8,17.9-4.8c6.5,0,12.5,1.6,17.9,4.8c5.4,3.2,9.7,7.7,12.9,13.5
		c3.1,5.8,4.7,12.4,4.7,19.8c0,7.4-1.6,14-4.7,19.8c-3.1,5.8-7.4,10.3-12.9,13.5C584.9,488.3,578.9,489.9,572.4,489.9z M572.4,481.9
		c4.9,0,9.5-1.3,13.6-3.8c4.1-2.5,7.4-6.1,9.8-10.7c2.4-4.6,3.6-9.8,3.6-15.7c0-5.9-1.2-11.1-3.6-15.7c-2.4-4.6-5.7-8.2-9.8-10.7
		c-4.1-2.5-8.7-3.8-13.6-3.8c-4.9,0-9.5,1.3-13.6,3.8c-4.1,2.5-7.4,6.1-9.8,10.7c-2.4,4.6-3.6,9.8-3.6,15.7c0,5.9,1.2,11.1,3.6,15.7
		c2.4,4.6,5.7,8.2,9.8,10.7C562.9,480.6,567.5,481.9,572.4,481.9z"/>
	<path class="st0" d="M621.7,488.8v-74.2H680v74.2h-8.5v-66.3h-41.3v66.3H621.7z"/>
	<path class="st0" d="M697,488.8v-74.2h32.3c3.9,0,7.4,1,10.7,3c3.2,2,5.8,4.7,7.7,8.2s2.9,7.3,2.9,11.7c0,4.3-1,8.2-2.9,11.7
		c-1.9,3.5-4.5,6.2-7.7,8.2c-3.2,2-6.8,3-10.7,3h-23.9v28.6H697z M729.3,452.2c2.3,0,4.5-0.6,6.4-1.9c1.9-1.2,3.5-3,4.6-5.2
		c1.1-2.3,1.7-4.8,1.7-7.7c0-4.4-1.2-8-3.7-10.7c-2.5-2.8-5.5-4.1-9-4.1h-23.9v29.7H729.3z"/>
	<path class="st0" d="M796.6,489.9c-6.5,0-12.5-1.6-17.9-4.8c-5.4-3.2-9.7-7.7-12.9-13.5c-3.1-5.8-4.7-12.4-4.7-19.8
		c0-7.4,1.6-14,4.7-19.8c3.1-5.8,7.4-10.3,12.9-13.5c5.4-3.2,11.4-4.8,17.9-4.8c5.2,0,10.1,1,14.6,3c4.5,2,8.3,4.9,11.4,8.6
		c3.1,3.7,5.4,8.2,6.8,13.3h-9c-1.2-3.5-3-6.6-5.3-9.1c-2.3-2.5-5.1-4.5-8.3-5.8c-3.2-1.3-6.6-2-10.3-2c-4.9,0-9.5,1.3-13.6,3.8
		c-4.1,2.5-7.4,6.1-9.8,10.7c-2.4,4.6-3.6,9.8-3.6,15.7c0,5.9,1.2,11.1,3.6,15.7c2.4,4.6,5.7,8.2,9.8,10.7c4.1,2.5,8.7,3.8,13.6,3.8
		c5.6,0,10.5-1.5,14.7-4.6c4.2-3.1,7.3-7.4,9.1-12.9h9c-1.4,5.2-3.7,9.8-6.8,13.6c-3.1,3.8-6.9,6.7-11.4,8.8
		C806.8,488.8,801.9,489.9,796.6,489.9z"/>
	<path class="st0" d="M858.1,488.8v-66.3h-24.4v-8h57.2v8h-24.4v66.3H858.1z"/>
	<path class="st0" d="M904.2,488.8v-8h10.1c1.6,0,2.8-0.3,3.7-0.8c0.9-0.5,1.6-1.5,2.2-2.9l3.3-7.4v5.1l-28.7-60.2h9l21.7,46.1h2.1
		l20.7-46.1h9L927,481.4c-0.7,1.5-1.6,2.8-2.6,3.9c-1,1.1-2.3,2-3.9,2.6c-1.6,0.6-3.5,1-5.7,1H904.2z"/>
	<path class="st0" d="M994.3,490.9v-14.5l2.9,2.9h-4.5c-6.6,0-12.3-1.2-17.2-3.7c-4.9-2.5-8.6-5.9-11.2-10.2
		c-2.6-4.3-3.9-9.2-3.9-14.7s1.3-10.4,3.9-14.7c2.6-4.3,6.4-7.7,11.2-10.2c4.9-2.5,10.6-3.7,17.2-3.7h4.5l-2.9,2.9v-12.4h8.5v12.4
		l-2.9-2.9h4.5c6.6,0,12.3,1.2,17.2,3.7c4.9,2.5,8.6,5.9,11.2,10.2c2.6,4.3,3.9,9.2,3.9,14.7s-1.3,10.4-3.9,14.7
		c-2.6,4.3-6.4,7.7-11.2,10.2c-4.9,2.5-10.6,3.7-17.2,3.7h-4.5l2.9-2.9v14.5H994.3z M994.3,474.7v-48.1l2.9,2.9h-4.5
		c-4.9,0-9.1,0.9-12.7,2.8c-3.6,1.8-6.3,4.3-8.3,7.5c-1.9,3.2-2.9,6.8-2.9,10.9s1,7.7,2.9,10.9c1.9,3.2,4.7,5.7,8.3,7.5
		c3.6,1.8,7.8,2.8,12.7,2.8h4.5L994.3,474.7z M1002.8,474.7l-2.9-2.9h4.5c4.9,0,9.1-0.9,12.7-2.8c3.6-1.8,6.3-4.3,8.3-7.5
		c1.9-3.2,2.9-6.8,2.9-10.9s-1-7.7-2.9-10.9c-1.9-3.2-4.7-5.7-8.3-7.5c-3.6-1.8-7.8-2.8-12.7-2.8h-4.5l2.9-2.9V474.7z"/>
	<path class="st0" d="M1037.8,488.8l26-38.2l-24.4-36h9.5l19.6,29.2h2.1l19.6-29.2h9.5l-24.4,36l26,38.2h-9.6l-21.1-31.3h-2.1
		l-21.1,31.3H1037.8z"/>
	<path class="st0" d="M1166.6,503.6v-14.8h-55.7v-74.2h8.5v66.3h39.2v-66.3h8.5v66.3h8v22.8H1166.6z"/>
	<path class="st0" d="M1229.6,457c-2.1,1.8-5.1,3.4-8.9,4.8c-3.8,1.4-7.7,2.1-11.8,2.1c-8.8,0-15.3-2.2-19.6-6.5
		c-4.3-4.3-6.4-11-6.4-20v-22.8h8.5v22.8c0,6.3,1.4,11,4.3,14c2.9,3,7.3,4.6,13.1,4.6c4.4,0,8.4-0.8,12.2-2.3
		c3.7-1.5,6.6-3.2,8.5-5.1v-33.9h8.5v74.2h-8.5V457z"/>
	<path class="st0" d="M1255.1,488.8v-74.2h8.5v66.3h29.2v-66.3h8.5v66.3h29.2v-66.3h8.5v74.2H1255.1z"/>
	<path class="st0" d="M1439,503.6v-14.8h-83.2v-74.2h8.5v66.3h29.2v-66.3h8.5v66.3h29.2v-66.3h8.5v66.3h8v22.8H1439z"/>
	<path class="st0" d="M473.8,592v-66.3h-16.4v-8h24.9v27.6h21.2c4,0,7.7,1,11,3.1c3.3,2.1,5.9,4.9,7.8,8.4c1.9,3.6,2.9,7.5,2.9,11.8
		c0,4.3-1,8.3-2.9,11.8c-1.9,3.6-4.5,6.4-7.8,8.4c-3.3,2.1-7,3.1-11,3.1H473.8z M503.5,584.1c2.5,0,4.7-0.7,6.7-2
		c2-1.3,3.6-3.1,4.8-5.5s1.8-5,1.8-8c0-3-0.6-5.6-1.8-8s-2.8-4.2-4.8-5.5c-2-1.3-4.3-2-6.7-2h-21.2v30.7H503.5z"/>
	<path class="st0" d="M538.5,592v-74.2h8.5v27.6h20.1c4,0,7.7,1,11,3.1c3.3,2.1,5.9,4.9,7.8,8.4c1.9,3.6,2.9,7.5,2.9,11.8
		c0,4.3-1,8.3-2.9,11.8c-1.9,3.6-4.5,6.4-7.8,8.4c-3.3,2.1-7,3.1-11,3.1H538.5z M567.1,584.1c2.5,0,4.7-0.7,6.7-2
		c2-1.3,3.6-3.1,4.8-5.5s1.7-5,1.7-8c0-3-0.6-5.6-1.7-8s-2.8-4.2-4.8-5.5c-2-1.3-4.3-2-6.7-2H547v30.7H567.1z M597.3,592v-74.2h8.5
		V592H597.3z"/>
	<path class="st0" d="M622.8,592v-74.2h8.5v27.6h22.3c4,0,7.7,1,11,3.1c3.3,2.1,5.9,4.9,7.8,8.4c1.9,3.6,2.9,7.5,2.9,11.8
		c0,4.3-1,8.3-2.9,11.8c-1.9,3.6-4.5,6.4-7.8,8.4c-3.3,2.1-7,3.1-11,3.1H622.8z M653.5,584.1c2.5,0,4.7-0.7,6.7-2
		c2-1.3,3.6-3.1,4.8-5.5s1.8-5,1.8-8c0-3-0.6-5.6-1.8-8s-2.8-4.2-4.8-5.5c-2-1.3-4.3-2-6.7-2h-22.3v30.7H653.5z"/>
	<path class="st0" d="M716.6,593.1c-5.3,0-10.2-1-14.7-3c-4.5-2-8.4-4.9-11.6-8.7c-3.2-3.8-5.4-8.2-6.6-13.2h9
		c1.2,3.5,3,6.6,5.3,9.1s5.1,4.5,8.3,5.8c3.2,1.3,6.6,2,10.3,2c4.6,0,8.9-1.1,12.8-3.3c3.9-2.2,7.1-5.4,9.5-9.4
		c2.4-4,3.8-8.6,4.2-13.8h-36v-8h36c-0.4-5-1.7-9.5-4.2-13.5c-2.4-4-5.6-7-9.5-9.2c-3.9-2.2-8.2-3.3-12.8-3.3
		c-5.5,0-10.4,1.5-14.7,4.4c-4.3,2.9-7.3,6.9-9.2,12h-9c1.4-4.9,3.7-9.2,6.9-12.8c3.2-3.7,7.1-6.5,11.6-8.5c4.5-2,9.3-3,14.4-3
		c6.5,0,12.5,1.6,17.9,4.8c5.4,3.2,9.7,7.7,12.9,13.5c3.1,5.8,4.7,12.4,4.7,19.8s-1.6,14-4.7,19.8c-3.1,5.8-7.4,10.3-12.9,13.5
		C729,591.5,723.1,593.1,716.6,593.1z"/>
	<path class="st0" d="M819.4,593.1c-5.8,0-11.1-1.4-16.1-4.3c-4.9-2.9-8.9-6.9-12-12.1c-3.1-5.2-4.9-11.2-5.4-18h-11.7V592h-8.5
		v-74.2h8.5v32.9H786c0.7-6.8,2.6-12.7,5.7-17.9c3.1-5.1,7-9.1,11.8-11.9c4.8-2.8,10.1-4.2,15.9-4.2c6.1,0,11.8,1.6,16.9,4.8
		c5.1,3.2,9.1,7.7,12.1,13.5c3,5.8,4.5,12.4,4.5,19.8s-1.5,14-4.5,19.8c-3,5.8-7,10.3-12.1,13.5
		C831.2,591.5,825.5,593.1,819.4,593.1z M819.4,585.1c4.6,0,8.8-1.2,12.6-3.7c3.8-2.5,6.8-6,9-10.6c2.2-4.6,3.3-9.9,3.3-15.9
		s-1.1-11.3-3.3-15.9c-2.2-4.6-5.2-8.1-9-10.6c-3.8-2.5-8-3.7-12.6-3.7c-4.6,0-8.8,1.2-12.6,3.7c-3.8,2.5-6.8,6-9,10.6
		c-2.2,4.6-3.3,9.9-3.3,15.9s1.1,11.3,3.3,15.9c2.2,4.6,5.2,8.1,9,10.6C810.6,583.9,814.8,585.1,819.4,585.1z"/>
	<path class="st0" d="M862.3,592l30.6-30.6l0.8,2h-8.7c-3.9,0-7.4-1-10.7-3c-3.2-2-5.8-4.7-7.7-8.2c-1.9-3.5-2.9-7.3-2.9-11.7
		c0-4.3,1-8.2,2.9-11.7c1.9-3.5,4.5-6.2,7.7-8.2c3.2-2,6.8-3,10.7-3h32.3V592H909v-28.6h-7.4L872.9,592H862.3z M885.1,555.5H909
		v-29.7h-23.9c-2.3,0-4.5,0.6-6.4,1.9c-1.9,1.2-3.5,3-4.6,5.2c-1.1,2.3-1.7,4.8-1.7,7.7c0,2.9,0.6,5.5,1.7,7.7
		c1.1,2.3,2.7,4,4.6,5.2C880.6,554.8,882.8,555.5,885.1,555.5z"/>
</g>
<g>
	<path class="st2" d="M88.5,148.7V95H123v5.8H94.6v18h26.9v5.8H94.6V143H123v5.8H88.5z"/>
	<path class="st2" d="M131.5,148.7V95h6.1v48h26.9v5.8H131.5z"/>
	<path class="st2" d="M176,148.7v-48h-17.7V95h41.5v5.8h-17.7v48H176z"/>
	<path class="st2" d="M195.2,148.7L215.5,95h9.2l20.3,53.7h-6.5l-17.7-47.2h-1.5l-17.7,47.2H195.2z M205.9,134.9v-5.8h28.8v5.8
		H205.9z"/>
	<path class="st2" d="M281.2,149.5c-4.1,0-7.7-0.8-10.7-2.3c-3.1-1.5-5.4-3.5-7.1-6c-1.7-2.5-2.5-5.2-2.5-8.2h6.1
		c0,1.9,0.5,3.7,1.7,5.4c1.1,1.6,2.7,2.9,4.9,3.9c2.1,1,4.7,1.5,7.7,1.5c4.6,0,7.9-0.9,10.1-2.6c2.2-1.8,3.3-4.1,3.3-6.9
		c0-2.3-0.8-4.2-2.3-5.7c-1.5-1.5-3.8-2.5-6.9-3.1l-10.4-1.9c-4.3-0.8-7.5-2.4-9.8-4.7c-2.2-2.3-3.3-5.3-3.3-9.1
		c0-3,0.7-5.6,2.2-7.9c1.5-2.3,3.6-4.1,6.4-5.5c2.8-1.3,6.1-2,9.8-2c4,0,7.5,0.7,10.5,2.2c3,1.5,5.3,3.4,7,5.9
		c1.6,2.5,2.5,5.3,2.5,8.4h-6.1c0-1.9-0.6-3.7-1.7-5.4c-1.1-1.6-2.7-2.9-4.8-3.9c-2.1-1-4.5-1.5-7.4-1.5c-3.9,0-6.9,0.9-9.1,2.7
		c-2.1,1.8-3.2,4.1-3.2,6.9c0,2.1,0.7,4,2.2,5.5c1.5,1.5,3.7,2.5,6.6,3l8.4,1.5c5.3,1,9.2,2.6,11.7,5c2.5,2.4,3.7,5.6,3.7,9.6
		c0,3-0.8,5.6-2.3,7.9c-1.5,2.3-3.8,4.1-6.7,5.5S285.3,149.5,281.2,149.5z"/>
	<path class="st2" d="M301.1,148.7L321.5,95h9.2l20.3,53.7h-6.5l-17.7-47.2h-1.5l-17.7,47.2H301.1z M311.9,134.9v-5.8h28.8v5.8
		H311.9z"/>
	<path class="st2" d="M355.3,148.7V95h10.4l24.2,46.4h1.5V95h6.1v53.7h-10.4l-24.2-46.4h-1.5v46.4H355.3z"/>
	<path class="st2" d="M425.5,149.5c-4.1,0-7.7-0.8-10.7-2.3c-3.1-1.5-5.4-3.5-7.1-6c-1.7-2.5-2.5-5.2-2.5-8.2h6.1
		c0,1.9,0.5,3.7,1.7,5.4c1.1,1.6,2.7,2.9,4.9,3.9c2.1,1,4.7,1.5,7.7,1.5c4.6,0,7.9-0.9,10.1-2.6c2.2-1.8,3.3-4.1,3.3-6.9
		c0-2.3-0.8-4.2-2.3-5.7c-1.5-1.5-3.8-2.5-6.9-3.1l-10.4-1.9c-4.3-0.8-7.5-2.4-9.8-4.7c-2.2-2.3-3.3-5.3-3.3-9.1
		c0-3,0.7-5.6,2.2-7.9c1.5-2.3,3.6-4.1,6.4-5.5c2.8-1.3,6.1-2,9.8-2c4,0,7.5,0.7,10.5,2.2c3,1.5,5.3,3.4,7,5.9
		c1.6,2.5,2.5,5.3,2.5,8.4h-6.1c0-1.9-0.6-3.7-1.7-5.4c-1.1-1.6-2.7-2.9-4.8-3.9c-2.1-1-4.5-1.5-7.4-1.5c-3.9,0-6.9,0.9-9.1,2.7
		c-2.1,1.8-3.2,4.1-3.2,6.9c0,2.1,0.7,4,2.2,5.5c1.5,1.5,3.7,2.5,6.6,3l8.4,1.5c5.3,1,9.2,2.6,11.7,5c2.5,2.4,3.7,5.6,3.7,9.6
		c0,3-0.8,5.6-2.3,7.9c-1.5,2.3-3.8,4.1-6.7,5.5S429.6,149.5,425.5,149.5z"/>
	<path class="st0" d="M88.5,217.5v-53.7h23.4c2.8,0,5.4,0.7,7.7,2.1c2.3,1.4,4.2,3.4,5.6,5.9c1.4,2.5,2.1,5.3,2.1,8.4
		c0,3.1-0.7,5.9-2.1,8.4c-1.4,2.5-3.2,4.5-5.6,5.9c-2.3,1.4-4.9,2.1-7.7,2.1h-6.6v-1.5l23.1,22.2h-7.7l-21.5-20.7h-4.6v20.7H88.5z
		 M111.9,191c1.7,0,3.2-0.4,4.6-1.3c1.4-0.9,2.5-2.2,3.3-3.8c0.8-1.6,1.2-3.5,1.2-5.6c0-3.2-0.9-5.8-2.7-7.8c-1.8-2-4-3-6.5-3H94.6
		V191H111.9z"/>
	<path class="st0" d="M135.7,217.5v-53.7h34.5v5.8h-28.4v18h26.9v5.8h-26.9v18.4h28.4v5.8H135.7z"/>
	<path class="st0" d="M202.1,218.3c-4.7,0-9-1.2-13-3.5c-3.9-2.3-7.1-5.6-9.3-9.8c-2.3-4.2-3.4-9-3.4-14.4c0-5.4,1.1-10.2,3.4-14.4
		c2.3-4.2,5.4-7.5,9.3-9.8c3.9-2.3,8.3-3.5,13-3.5c3.6,0,7,0.7,10.2,2.1s6,3.4,8.4,5.9c2.4,2.6,4.1,5.5,5.3,8.9h-6.5
		c-1.5-3.4-3.9-6.1-7-8.1s-6.6-3-10.2-3c-3.6,0-6.9,0.9-9.9,2.8c-3,1.8-5.4,4.4-7.1,7.8c-1.7,3.3-2.6,7.1-2.6,11.4
		c0,4.2,0.9,8,2.6,11.4c1.7,3.3,4.1,5.9,7.1,7.8c3,1.8,6.3,2.8,9.9,2.8c3.1,0,6.1-0.8,8.9-2.3c2.8-1.6,5-3.6,6.7-6.2
		c1.7-2.6,2.5-5.2,2.5-8v-2.8l2.1,2.1H204v-5.4h22.3v27.6h-5l-0.8-7.7h-0.4c-1,1.3-2.4,2.6-4.2,3.9c-1.8,1.3-3.9,2.4-6.3,3.2
		C207.2,217.9,204.7,218.3,202.1,218.3z"/>
	<path class="st0" d="M256.2,218.3c-3.9,0-7.5-0.9-10.7-2.8s-5.8-4.4-7.6-7.8c-1.8-3.3-2.8-7.1-2.8-11.4v-32.6h6.1v32.6
		c0,3.1,0.7,5.9,2,8.4c1.3,2.5,3.1,4.4,5.4,5.7c2.3,1.4,4.8,2,7.6,2c2.8,0,5.4-0.7,7.6-2c2.3-1.4,4.1-3.3,5.4-5.7
		c1.3-2.5,2-5.2,2-8.4v-32.6h6.1v32.6c0,4.2-0.9,8-2.8,11.4c-1.8,3.3-4.4,5.9-7.6,7.8S260.2,218.3,256.2,218.3z"/>
	<path class="st0" d="M286.9,217.5v-53.7h6.1v48h26.9v5.8H286.9z"/>
	<path class="st0" d="M319.6,217.5l20.3-53.7h9.2l20.3,53.7h-6.5l-17.7-47.2h-1.5l-17.7,47.2H319.6z M330.3,203.7v-5.8h28.8v5.8
		H330.3z"/>
	<path class="st0" d="M373.7,217.5v-53.7h23.4c2.8,0,5.4,0.7,7.7,2.1c2.3,1.4,4.2,3.4,5.6,5.9c1.4,2.5,2.1,5.3,2.1,8.4
		c0,3.1-0.7,5.9-2.1,8.4c-1.4,2.5-3.2,4.5-5.6,5.9c-2.3,1.4-4.9,2.1-7.7,2.1h-6.6v-1.5l23.1,22.2h-7.7l-21.5-20.7h-4.6v20.7H373.7z
		 M397.1,191c1.7,0,3.2-0.4,4.6-1.3c1.4-0.9,2.5-2.2,3.3-3.8c0.8-1.6,1.2-3.5,1.2-5.6c0-3.2-0.9-5.8-2.7-7.8c-1.8-2-4-3-6.5-3h-17.3
		V191H397.1z"/>
</g>
<g>
	<path class="st3" d="M478.1,743.9c-3.3,0-6.3-0.6-8.8-1.9c-2.5-1.3-4.5-3.1-5.9-5.3c-1.4-2.3-2.1-4.8-2.1-7.7
		c0-3.2,0.7-5.9,2.1-8.2c1.4-2.3,3.5-4.1,6.4-5.4c2.9-1.3,6.5-1.9,10.9-1.9h13V712c0-3.6-1-6.4-3.1-8.5c-2.1-2.1-4.9-3.1-8.5-3.1
		c-3.5,0-6.3,0.8-8.5,2.4c-2.2,1.6-3.4,3.5-3.6,5.8h-7.2c0.2-2.6,1.1-5.1,2.6-7.4c1.5-2.3,3.8-4.1,6.6-5.5c2.9-1.4,6.2-2.1,10.1-2.1
		c3.9,0,7.2,0.7,10,2.2c2.8,1.4,5,3.6,6.5,6.3c1.5,2.8,2.3,6.1,2.3,9.9V743h-6.3l-1-5.8H493c-1.1,1.7-3,3.3-5.7,4.7
		C484.7,743.2,481.6,743.9,478.1,743.9z M478.1,737.2c3.2,0,5.9-0.6,8.3-1.8c2.3-1.2,4.1-3,5.4-5.2c1.2-2.3,1.8-4.9,1.8-7.9v-1.9
		h-13c-4.1,0-7.2,0.8-9.1,2.4c-2,1.6-2.9,3.7-2.9,6.3c0,2.4,0.8,4.4,2.5,5.9C472.6,736.4,475,737.2,478.1,737.2z"/>
	<path class="st3" d="M533.6,743.9c-4.3,0-8.2-1-11.6-3.1c-3.4-2.1-6.2-5-8.1-8.8c-2-3.8-2.9-8.2-2.9-13.2c0-0.5,0-1,0-1.5
		s0-0.9,0-1.4c0-5.6,0.4-10.4,1.3-14.4c0.9-4,2.3-7.5,4.3-10.3c2-2.9,4.6-5.2,7.9-7.1c2.2-1.2,4.5-2.1,7-2.7
		c2.4-0.6,5.5-1.1,9.3-1.4c2.3-0.3,3.9-1,4.9-2.1c1-1.1,1.5-2.8,1.6-4.9h6.3c-0.1,2.7-0.5,5-1.4,6.9c-0.8,1.9-2.2,3.3-4,4.4
		c-1.8,1.1-4.1,1.8-6.9,2c-2.9,0.3-5.4,0.7-7.6,1.2c-2.2,0.5-4.1,1.3-5.8,2.4c-2.6,1.5-4.8,3.6-6.5,6.2c-1.7,2.6-2.7,5.8-3.2,9.7
		h0.5c2.1-2.8,4.4-4.7,7.1-5.9c2.7-1.2,5.6-1.8,8.8-1.8c4,0,7.6,1,11,2.9c3.3,2,5.9,4.7,7.9,8.2c1.9,3.5,2.9,7.3,2.9,11.6
		c0,4.4-1,8.4-2.9,11.9c-2,3.5-4.7,6.3-8.1,8.3C541.8,742.9,537.9,743.9,533.6,743.9z M533.6,737.2c2.9,0,5.5-0.7,7.9-2.1
		c2.4-1.4,4.2-3.3,5.6-5.8c1.4-2.5,2-5.3,2-8.5c0-3.2-0.7-6-2-8.5c-1.4-2.5-3.2-4.5-5.6-5.8c-2.4-1.4-5-2.1-7.9-2.1
		s-5.5,0.7-7.9,2.1c-2.4,1.4-4.2,3.3-5.6,5.8c-1.4,2.5-2,5.3-2,8.5c0,3.2,0.7,6,2,8.5c1.4,2.5,3.2,4.5,5.6,5.8
		C528.1,736.5,530.7,737.2,533.6,737.2z"/>
	<path class="st3" d="M566,743v-48.3h25.1c2.7,0,5.1,0.6,7.1,1.7c2,1.1,3.6,2.7,4.7,4.7c1.1,2,1.7,4.4,1.7,7.1
		c0,2.4-0.6,4.6-1.8,6.3c-1.2,1.8-2.5,3-4,3.8v0.5c1.7,0.6,3.3,1.9,4.7,3.7c1.4,1.8,2.1,4.1,2.1,6.8c0,2.6-0.6,4.9-1.8,7
		c-1.2,2.1-2.8,3.7-4.8,4.9c-2,1.2-4.3,1.8-6.9,1.8H566z M590.1,715.4c2,0,3.7-0.7,5.1-2c1.4-1.4,2.1-3.1,2.1-5.2
		c0-2.1-0.7-3.9-2.1-5.2c-1.4-1.4-3.1-2-5.1-2h-16.9v14.5H590.1z M591.1,736.7c1.3,0,2.5-0.3,3.6-0.9c1.1-0.6,2-1.5,2.7-2.6
		c0.6-1.1,1-2.4,1-3.9c0-2.3-0.7-4.1-2.1-5.5c-1.4-1.4-3.1-2.1-5.1-2.1h-17.9v15H591.1z"/>
	<path class="st3" d="M615.3,743v-48.3h30.9v6.8h-23.7V743H615.3z"/>
	<path class="st3" d="M645.2,754.5v-18.4h1c2.2,0,3.8-0.5,4.9-1.6s1.7-2.8,1.9-5.2l2.9-34.8h32.4v41.5h6.8v18.4h-7.2V743h-35.3v11.6
		H645.2z M657.8,736.2h23.2v-34.8h-18.4l-2.4,28c-0.1,1.7-0.4,3.2-0.9,4.4C658.8,735.1,658.3,735.9,657.8,736.2z"/>
	<path class="st3" d="M723,743.9c-4.3,0-8.2-1.1-11.8-3.2c-3.5-2.1-6.3-5.1-8.4-8.9c-2-3.8-3-8.1-3-13c0-4.9,1-9.2,3-13
		c2-3.8,4.8-6.8,8.4-8.9c3.5-2.1,7.5-3.2,11.8-3.2c4.1,0,7.9,1,11.3,3c3.4,2,6.1,4.8,8,8.3c1.9,3.5,2.9,7.5,2.9,11.9
		c0,1.3,0,2.4-0.1,3.4s-0.2,1.6-0.3,1.9H707c0.3,3,1.2,5.6,2.7,7.9c1.5,2.3,3.4,4,5.7,5.3c2.3,1.2,4.8,1.8,7.5,1.8
		c2.9,0,5.5-0.7,7.8-2c2.3-1.4,4-3.3,5.3-5.7h7.7c-1.2,3.1-2.7,5.7-4.7,7.9c-2,2.2-4.3,3.8-7,4.9S726.3,743.9,723,743.9z
		 M737.9,715.4c-0.1-2.8-0.9-5.4-2.2-7.7c-1.4-2.3-3.1-4.1-5.4-5.4c-2.2-1.3-4.7-1.9-7.4-1.9c-2.8,0-5.4,0.6-7.7,1.9
		c-2.3,1.3-4.2,3.1-5.6,5.3c-1.4,2.3-2.3,4.8-2.6,7.7H737.9z"/>
	<path class="st3" d="M775.1,743.9c-4.3,0-8.2-1.1-11.8-3.2c-3.5-2.1-6.3-5.1-8.4-8.9c-2-3.8-3-8.1-3-13c0-4.9,1-9.2,3-13
		c2-3.8,4.8-6.8,8.4-8.9c3.5-2.1,7.5-3.2,11.8-3.2c4.1,0,7.9,1,11.3,3c3.4,2,6.1,4.8,8,8.3c1.9,3.5,2.9,7.5,2.9,11.9
		c0,1.3,0,2.4-0.1,3.4c-0.1,1-0.2,1.6-0.3,1.9h-37.7c0.3,3,1.2,5.6,2.7,7.9c1.5,2.3,3.4,4,5.7,5.3c2.3,1.2,4.8,1.8,7.5,1.8
		c2.9,0,5.5-0.7,7.8-2s4-3.3,5.3-5.7h7.7c-1.2,3.1-2.7,5.7-4.7,7.9c-2,2.2-4.3,3.8-7,4.9S778.5,743.9,775.1,743.9z M790.1,715.4
		c-0.1-2.8-0.9-5.4-2.2-7.7c-1.4-2.3-3.1-4.1-5.4-5.4c-2.2-1.3-4.7-1.9-7.4-1.9c-2.8,0-5.4,0.6-7.7,1.9c-2.3,1.3-4.2,3.1-5.6,5.3
		c-1.4,2.3-2.3,4.8-2.6,7.7H790.1z M762.1,684.5v-8.2h8.2v8.2H762.1z M779,684.5v-8.2h8.2v8.2H779z"/>
	<path class="st3" d="M799.3,743l19.8-24.6l-18.4-23.7h8.7l17.4,22.7v-22.7h7.2v22.7l17.4-22.7h8.7l-18.4,23.7l19.8,24.6h-8.7
		l-18.8-23.7V743h-7.2v-23.7L808,743H799.3z"/>
	<path class="st3" d="M882.4,743.9c-3.7,0-7-0.7-9.9-2.1c-2.9-1.4-5.1-3.3-6.6-5.8c-1.5-2.4-2.3-5.1-2.3-8h7.2
		c0,1.6,0.5,3.1,1.4,4.5c0.9,1.4,2.3,2.5,4.1,3.4c1.8,0.8,3.8,1.3,6.1,1.3c3.9,0,6.8-0.7,8.7-2.1c1.9-1.4,2.8-3.3,2.8-5.6
		c0-2.3-1-4.1-2.9-5.6s-4.7-2.2-8.2-2.2h-4.3v-6.3h4.3c3.3,0,5.8-0.7,7.5-2.2c1.7-1.4,2.6-3.3,2.6-5.6c0-2.1-0.9-3.8-2.8-5.2
		c-1.8-1.4-4.5-2.1-7.9-2.1c-3.3,0-5.9,0.8-7.8,2.5c-1.9,1.6-2.9,3.7-2.9,6.2h-7.2c0-2.9,0.8-5.5,2.3-7.9c1.5-2.4,3.6-4.2,6.3-5.6
		s5.8-2,9.3-2c3.7,0,7,0.6,9.7,1.9c2.7,1.3,4.7,2.9,6.1,5.1c1.4,2.1,2.1,4.5,2.1,7.1c0,2.7-0.8,5-2.4,6.8c-1.6,1.8-3.4,3.1-5.3,3.7
		v0.5c2.4,0.5,4.4,1.7,6.1,3.7c1.7,1.9,2.6,4.3,2.6,7.1c0,2.7-0.7,5.2-2.2,7.3c-1.5,2.2-3.6,3.9-6.5,5.2
		C889.7,743.3,886.3,743.9,882.4,743.9z"/>
	<path class="st3" d="M910.9,743v-48.3h7.2v39.6h1.9l18.4-39.6H951V743h-7.2v-39.6h-1.9L923.4,743H910.9z"/>
	<path class="st3" d="M963.5,743v-48.3h7.2v39.6h1.9l18.4-39.6h12.6V743h-7.2v-39.6h-1.9L976.1,743H963.5z M983.8,686.4
		c-3.7,0-6.8-1.1-9.3-3.3c-2.5-2.2-3.9-5.1-4.2-8.7h6.3c0.3,2.1,1,3.8,2.3,5c1.3,1.2,2.9,1.8,4.9,1.8c2,0,3.6-0.6,4.9-1.8
		c1.3-1.2,2.1-2.9,2.3-5h6.3c-0.3,3.6-1.7,6.5-4.2,8.7C990.6,685.3,987.5,686.4,983.8,686.4z"/>
	<path class="st3" d="M1016.2,743v-48.3h7.2v22.2l21.6-22.2h9.3l-23.2,23.7l24.2,24.6h-9.3l-22.6-23.2V743H1016.2z"/>
	<path class="st3" d="M1055.3,743.4v-7.2h2.9c1.8,0,3.3-0.5,4.3-1.6c1.1-1.1,1.7-2.8,1.9-5.1l2.9-34.8h32.4V743h-7.2v-41.5h-18.4
		l-2.4,28c-0.5,4.8-1.8,8.3-4,10.6c-2.2,2.3-5.4,3.4-9.5,3.4H1055.3z"/>
	<path class="st3" d="M1112.3,743v-48.3h13.5l13,40.1h1.9l13-40.1h13.5V743h-7.2v-39.6h-1.9l-13,39.6h-10.6l-13-39.6h-1.9V743
		H1112.3z"/>
	<path class="st3" d="M1179.9,743v-48.3h7.2v20.8h25.6v-20.8h7.2V743h-7.2v-20.8h-25.6V743H1179.9z"/>
	<path class="st3" d="M483.4,820.7c-4.3,0-8.2-1.1-11.8-3.2c-3.5-2.1-6.3-5.1-8.4-8.9c-2-3.8-3-8.1-3-13c0-4.9,1-9.2,3-13
		c2-3.8,4.8-6.8,8.4-8.9c3.5-2.1,7.5-3.2,11.8-3.2s8.2,1.1,11.8,3.2c3.5,2.1,6.3,5.1,8.4,8.9c2,3.8,3,8.1,3,13c0,4.9-1,9.2-3,13
		c-2,3.8-4.8,6.8-8.4,8.9C491.6,819.7,487.7,820.7,483.4,820.7z M483.4,814c2.9,0,5.6-0.8,8-2.3c2.4-1.5,4.4-3.7,5.8-6.5
		c1.4-2.8,2.1-6,2.1-9.6c0-3.6-0.7-6.8-2.1-9.6c-1.4-2.8-3.3-5-5.8-6.5c-2.4-1.5-5.1-2.3-8-2.3s-5.6,0.8-8,2.3
		c-2.4,1.5-4.4,3.7-5.8,6.5c-1.4,2.8-2.1,6-2.1,9.6c0,3.6,0.7,6.8,2.1,9.6c1.4,2.8,3.3,5,5.8,6.5C477.8,813.2,480.5,814,483.4,814z"
		/>
	<path class="st3" d="M516.2,819.8v-48.3h40.1v48.3h-7.2v-41.5h-25.6v41.5H516.2z"/>
	<path class="st3" d="M568.9,839.1v-67.6h6.3l1,6.8h0.5c2-2.5,4.3-4.4,6.8-5.7c2.5-1.3,5.4-2,8.7-2c4.2,0,8,1.1,11.4,3.2
		c3.4,2.1,6,5.1,8,8.9c1.9,3.8,2.9,8.1,2.9,13c0,4.9-1,9.2-2.9,13c-1.9,3.8-4.6,6.8-8,8.9c-3.4,2.1-7.2,3.2-11.4,3.2
		c-3.3,0-6.2-0.7-8.7-2s-4.8-3.2-6.8-5.7h-0.5v26.1H568.9z M591.6,814c2.8,0,5.3-0.8,7.7-2.3c2.4-1.5,4.2-3.7,5.7-6.5
		c1.4-2.8,2.1-6,2.1-9.6c0-3.6-0.7-6.8-2.1-9.6c-1.4-2.8-3.3-4.9-5.7-6.5c-2.4-1.5-4.9-2.3-7.7-2.3c-2.8,0-5.3,0.8-7.7,2.3
		c-2.4,1.5-4.2,3.7-5.7,6.5c-1.4,2.8-2.1,6-2.1,9.6c0,3.6,0.7,6.8,2.1,9.6c1.4,2.8,3.3,4.9,5.7,6.5C586.3,813.2,588.8,814,591.6,814
		z"/>
	<path class="st3" d="M644.2,820.7c-4.3,0-8.2-1.1-11.8-3.2c-3.5-2.1-6.3-5.1-8.4-8.9c-2-3.8-3-8.1-3-13c0-4.9,1-9.2,3-13
		c2-3.8,4.8-6.8,8.4-8.9c3.5-2.1,7.5-3.2,11.8-3.2c3.5,0,6.8,0.7,9.7,2c2.9,1.3,5.4,3.2,7.4,5.7c2,2.5,3.4,5.4,4.2,8.7h-7.2
		c-1-3.1-2.7-5.5-5.2-7.1c-2.5-1.7-5.4-2.5-8.8-2.5c-2.9,0-5.6,0.8-8,2.3c-2.4,1.5-4.4,3.7-5.8,6.5c-1.4,2.8-2.1,6-2.1,9.6
		c0,3.6,0.7,6.8,2.1,9.6c1.4,2.8,3.3,5,5.8,6.5c2.4,1.5,5.1,2.3,8,2.3c3.5,0,6.4-0.9,8.9-2.6c2.4-1.7,4.2-4.3,5.1-7.5h7.2
		c-0.8,3.5-2.2,6.5-4.2,9c-2,2.5-4.5,4.5-7.4,5.8C651,820.1,647.8,820.7,644.2,820.7z"/>
	<path class="st3" d="M683.8,819.8v-41.5h-16.4v-6.8h40.1v6.8h-16.4v41.5H683.8z"/>
	<path class="st3" d="M714.3,839.1v-6.8h9.2c0.9,0,1.6-0.3,2.2-0.8c0.5-0.5,1-1.2,1.2-2.1l2.8-8.3l0.1,4.9L709,771.5h7.7l15,40.1
		h1.9l13.5-40.1h7.7l-21.7,60.9c-0.8,2.3-1.9,4-3.3,5.1c-1.4,1.1-3.3,1.6-5.9,1.6H714.3z"/>
	<path class="st3" d="M783.4,839.1v-21.9l2.6,2.6h-4.1c-5,0-9.3-1-13-3c-3.7-2-6.6-4.8-8.6-8.5c-2-3.7-3-7.9-3-12.7
		c0-4.8,1-9,3-12.7c2-3.7,4.9-6.5,8.6-8.5c3.7-2,8-3,13-3h4.1l-2.6,2.6v-21.9h7.2v21.9l-2.6-2.6h4.1c5,0,9.3,1,13,3
		c3.7,2,6.6,4.8,8.6,8.5c2,3.7,3,7.9,3,12.7c0,4.8-1,9-3,12.7c-2,3.7-4.9,6.5-8.6,8.5c-3.7,2-8,3-13,3H788l2.6-2.6v21.9H783.4z
		 M783.4,815.6v-40l2.6,2.6h-4.1c-3.7,0-6.8,0.7-9.4,2.1c-2.6,1.4-4.6,3.4-5.9,6c-1.4,2.6-2,5.7-2,9.2c0,3.5,0.7,6.6,2,9.2
		c1.4,2.6,3.3,4.6,5.9,6c2.6,1.4,5.7,2.1,9.4,2.1h4.1L783.4,815.6z M790.6,815.6L788,813h4.1c3.7,0,6.8-0.7,9.4-2.1
		c2.6-1.4,4.6-3.4,5.9-6c1.4-2.6,2-5.7,2-9.2c0-3.5-0.7-6.6-2-9.2c-1.4-2.6-3.3-4.6-5.9-6c-2.6-1.4-5.7-2.1-9.4-2.1H788l2.6-2.6
		V815.6z"/>
	<path class="st3" d="M818.1,819.8l16.4-24.6l-15.9-23.7h8.7l12.1,18.4h1.9l12.1-18.4h8.7l-15.9,23.7l16.4,24.6h-8.7l-12.6-19.3
		h-1.9l-12.6,19.3H818.1z"/>
	<path class="st3" d="M908,831.4v-11.6h-38.6v-48.3h7.2V813h24.6v-41.5h7.2V813h6.8v18.4H908z"/>
	<path class="st3" d="M951.5,800.9c-2.1,1.4-4.3,2.4-6.5,3c-2.2,0.6-4.7,0.9-7.5,0.9c-5.8,0-10.1-1.5-13-4.6
		c-2.9-3.1-4.3-7.7-4.3-13.7v-15h7.2v15c0,3.9,0.9,6.8,2.8,8.7c1.9,1.9,4.6,2.9,8.3,2.9c2.6,0,4.9-0.4,7-1.1
		c2.1-0.7,4.1-1.8,6.1-3.3v-22.2h7.2v48.3h-7.2V800.9z"/>
	<path class="st3" d="M971.3,819.8v-48.3h7.2V813h19.8v-41.5h7.2V813h19.8v-41.5h7.2v48.3H971.3z"/>
	<path class="st3" d="M1106,831.4v-11.6h-60.9v-48.3h7.2V813h19.8v-41.5h7.2V813h19.8v-41.5h7.2V813h6.8v18.4H1106z"/>
	<path class="st3" d="M469.4,896.6V855h-12.1v-6.8h19.3v16.4h14.5c3.2,0,6,0.7,8.5,2.1c2.5,1.4,4.5,3.3,5.8,5.7
		c1.4,2.4,2.1,5.1,2.1,8.2c0,3-0.7,5.7-2.1,8.2c-1.4,2.4-3.3,4.3-5.8,5.7c-2.5,1.4-5.3,2.1-8.5,2.1H469.4z M491.1,889.8
		c2.6,0,4.8-0.9,6.6-2.6c1.7-1.7,2.6-3.9,2.6-6.6c0-2.6-0.9-4.8-2.6-6.6c-1.7-1.7-3.9-2.6-6.6-2.6h-14.5v18.4H491.1z"/>
	<path class="st3" d="M516.2,896.6v-48.3h7.2v16.4h13c3.2,0,6,0.7,8.5,2.1c2.5,1.4,4.5,3.3,5.8,5.7s2.1,5.1,2.1,8.2
		c0,3-0.7,5.7-2.1,8.2c-1.4,2.4-3.3,4.3-5.8,5.7c-2.5,1.4-5.3,2.1-8.5,2.1H516.2z M536.5,889.8c2.6,0,4.8-0.9,6.6-2.6
		s2.6-3.9,2.6-6.6c0-2.6-0.9-4.8-2.6-6.6s-3.9-2.6-6.6-2.6h-13v18.4H536.5z M560.2,896.6v-48.3h7.2v48.3H560.2z"/>
	<path class="st3" d="M580,896.6v-48.3h7.2v16.4h15c3.2,0,6,0.7,8.5,2.1c2.5,1.4,4.5,3.3,5.8,5.7s2.1,5.1,2.1,8.2
		c0,3-0.7,5.7-2.1,8.2c-1.4,2.4-3.3,4.3-5.8,5.7c-2.5,1.4-5.3,2.1-8.5,2.1H580z M602.2,889.8c2.6,0,4.8-0.9,6.6-2.6s2.6-3.9,2.6-6.6
		c0-2.6-0.9-4.8-2.6-6.6s-3.9-2.6-6.6-2.6h-15v18.4H602.2z"/>
	<path class="st3" d="M645.2,897.6c-3.5,0-6.8-0.7-9.7-2s-5.4-3.2-7.4-5.7c-2-2.5-3.4-5.4-4.2-8.7h7.2c1,3,2.7,5.4,5.3,7.1
		c2.6,1.7,5.5,2.6,8.7,2.6c2.7,0,5.2-0.6,7.5-1.8c2.3-1.2,4.2-3,5.7-5.2c1.5-2.3,2.4-4.9,2.7-7.9h-21.7v-6.8h21.7
		c-0.3-3-1.2-5.7-2.7-7.9c-1.5-2.3-3.4-4-5.7-5.2c-2.3-1.2-4.8-1.8-7.5-1.8c-3.2,0-6.1,0.8-8.7,2.5c-2.6,1.6-4.3,3.9-5.3,6.7H624
		c0.8-3.2,2.2-6,4.2-8.4c2-2.4,4.5-4.2,7.4-5.6c2.9-1.3,6.1-2,9.6-2c4.3,0,8.2,1.1,11.8,3.2c3.5,2.1,6.3,5.1,8.4,8.9
		c2,3.8,3,8.1,3,13c0,4.9-1,9.2-3,13c-2,3.8-4.8,6.8-8.4,8.9C653.4,896.5,649.5,897.6,645.2,897.6z"/>
	<path class="st3" d="M714.8,897.6c-3.9,0-7.4-0.9-10.6-2.7c-3.2-1.8-5.8-4.3-7.9-7.6c-2.1-3.3-3.3-7.1-3.8-11.4h-7.2v20.8h-7.2
		v-48.3h7.2v20.8h7.2c0.4-4.3,1.7-8.1,3.8-11.4c2.1-3.3,4.7-5.8,7.9-7.6c3.2-1.8,6.7-2.7,10.6-2.7c4.2,0,8,1.1,11.4,3.2
		c3.4,2.1,6,5.1,8,8.9c1.9,3.8,2.9,8.1,2.9,13c0,4.9-1,9.2-2.9,13c-1.9,3.8-4.6,6.8-8,8.9C722.7,896.5,718.9,897.6,714.8,897.6z
		 M714.8,890.8c2.8,0,5.3-0.8,7.5-2.3c2.3-1.5,4.1-3.7,5.4-6.5c1.4-2.8,2-6,2-9.6c0-3.6-0.7-6.8-2-9.6c-1.4-2.8-3.2-5-5.4-6.5
		c-2.3-1.5-4.8-2.3-7.5-2.3c-2.8,0-5.3,0.8-7.5,2.3c-2.3,1.5-4.1,3.7-5.4,6.5s-2,6-2,9.6c0,3.6,0.7,6.8,2,9.6c1.4,2.8,3.2,5,5.4,6.5
		C709.5,890,712,890.8,714.8,890.8z"/>
	<path class="st3" d="M742.8,896.6l20-20v2.6h-3.1c-3,0-5.7-0.6-8.2-1.9c-2.4-1.3-4.3-3.1-5.7-5.5c-1.4-2.3-2.1-5-2.1-8.1
		c0-3,0.7-5.7,2.1-8.1c1.4-2.3,3.3-4.2,5.7-5.5c2.4-1.3,5.1-1.9,8.2-1.9h22.7v48.3h-7.2v-17.4h-5.8L752,896.6H742.8z M759.7,872.4
		h15.5V855h-15.5c-2.4,0-4.5,0.8-6.2,2.4c-1.7,1.6-2.5,3.7-2.5,6.3c0,2.6,0.8,4.7,2.5,6.3C755.2,871.6,757.2,872.4,759.7,872.4z"/>
	<path class="st3" d="M487.7,1051.2c-4.8,0-9.1-1.4-13.1-4.1s-7.1-6.7-9.5-11.9c-2.4-5.2-3.5-11.5-3.5-18.8c0-7.3,1.2-13.5,3.5-18.8
		c2.4-5.2,5.5-9.2,9.5-11.9s8.3-4.1,13.1-4.1c4.8,0,9.1,1.4,13.1,4.1s7.1,6.7,9.5,11.9c2.3,5.3,3.5,11.5,3.5,18.8
		c0,7.3-1.2,13.5-3.5,18.8c-2.4,5.3-5.5,9.2-9.5,11.9S492.5,1051.2,487.7,1051.2z M487.7,1043.9c3.3,0,6.3-1,9.1-3.1
		c2.8-2.1,5-5.2,6.7-9.4c1.7-4.2,2.5-9.2,2.5-15c0-5.9-0.8-10.9-2.5-15c-1.7-4.2-3.9-7.3-6.7-9.4s-5.8-3.1-9.1-3.1s-6.3,1-9.1,3.1
		c-2.8,2.1-5,5.2-6.7,9.4c-1.7,4.2-2.5,9.2-2.5,15c0,5.9,0.8,10.9,2.5,15c1.7,4.2,3.9,7.3,6.7,9.4
		C481.4,1042.9,484.4,1043.9,487.7,1043.9z"/>
	<path class="st3" d="M535.1,1050.2v-53.1h-14.5v-6.8h11.6c1,0,1.7-0.2,2.2-0.7c0.5-0.5,0.7-1.2,0.7-2.2v-4.8h7.7v67.6H535.1z"/>
	<path class="st3" d="M554.9,1050.2v-6.3l27.5-29.5c2.1-2.2,3.5-4.2,4.4-6c0.9-1.8,1.4-4,1.4-6.5c0-2.6-0.5-4.8-1.6-6.8
		c-1.1-2-2.6-3.5-4.6-4.6c-2-1.1-4.2-1.6-6.8-1.6c-2.4,0-4.6,0.6-6.6,1.8c-2,1.2-3.6,2.9-4.7,5.1c-1.2,2.2-1.7,4.7-1.7,7.5h-7.7
		c0-4.1,0.9-7.8,2.7-11.2c1.8-3.3,4.2-5.9,7.4-7.8c3.2-1.9,6.7-2.8,10.7-2.8c4,0,7.6,0.9,10.7,2.6c3.2,1.7,5.6,4.1,7.4,7.1
		c1.8,3.1,2.7,6.6,2.7,10.6c0,2.6-0.3,5-1,7.1c-0.7,2.1-1.6,3.9-2.8,5.6c-1.2,1.6-2.6,3.4-4.4,5.3l-21.7,22.7v0.5h31.4v7.2H554.9z"
		/>
	<path class="st3" d="M625.9,1051.2c-4.4,0-8.3-0.9-11.6-2.6c-3.4-1.7-6-4-7.8-6.9c-1.8-2.9-2.8-6-2.8-9.4h7.7
		c0,2.1,0.6,4.1,1.7,5.8s2.8,3.2,5,4.2c2.2,1,4.8,1.5,7.7,1.5c2.8,0,5.3-0.5,7.5-1.6c2.2-1.1,3.9-2.5,5.1-4.3
		c1.2-1.8,1.8-3.9,1.8-6.1c0-3.7-1.3-6.7-4-9c-2.7-2.3-6.2-3.5-10.5-3.5h-4.3v-7.2h4.3c2.8,0,5.3-0.5,7.3-1.6c2-1.1,3.6-2.5,4.6-4.3
		c1.1-1.8,1.6-3.8,1.6-6c0-2-0.6-3.9-1.7-5.6c-1.1-1.7-2.7-3.1-4.8-4.2c-2.1-1-4.4-1.5-7.1-1.5c-2.5,0-4.8,0.5-6.9,1.5
		c-2.1,1-3.7,2.4-4.9,4.1c-1.2,1.7-1.8,3.5-1.8,5.5h-7.7c0-3.2,0.9-6.2,2.7-9c1.8-2.8,4.3-5.1,7.6-6.8c3.3-1.7,6.9-2.6,11-2.6
		c4.1,0,7.8,0.8,11,2.5c3.2,1.6,5.7,3.9,7.5,6.8c1.8,2.9,2.7,6,2.7,9.5c0,2.6-0.5,4.9-1.6,7c-1.1,2.1-2.4,3.8-4.1,5.2
		c-1.6,1.4-3.3,2.4-4.9,2.9v0.5c3,1,5.6,2.9,8,5.7c2.4,2.8,3.6,6.2,3.6,10.2c0,3.5-1,6.8-2.8,9.7c-1.9,2.9-4.5,5.3-7.9,7
		C633.9,1050.3,630.1,1051.2,625.9,1051.2z"/>
	<path class="st3" d="M685.8,1050.2v-15.5h-31.4v-5.8l26.6-46.4h12.6v45.4h8.7v6.8h-8.7v15.5H685.8z M664,1028h21.7v-35.3h-1.9
		l-19.8,34.8V1028z"/>
	<path class="st3" d="M730.2,1051.2c-3.7,0-7.2-0.7-10.4-2.2s-5.9-3.6-8-6.5c-2.1-2.8-3.4-6.2-3.8-10.1h7.7c0.4,2.4,1.4,4.4,2.8,6.2
		c1.4,1.7,3.1,3.1,5.1,4c2,0.9,4.2,1.4,6.6,1.4c2.8,0,5.4-0.7,7.8-2.1c2.4-1.4,4.3-3.3,5.6-5.7c1.4-2.4,2-5.1,2-8
		c0-3.1-0.6-5.8-1.9-8.2c-1.3-2.3-3.1-4.2-5.3-5.5c-2.3-1.3-4.8-2-7.7-2c-2.7,0-5.2,0.5-7.5,1.5c-2.3,1-4.1,2.4-5.6,4.3h-8.2
		l3.9-35.7h36.2v7.2h-29.8l-2.1,19.8h0.5c1.7-1.4,3.7-2.5,6-3.2c2.3-0.7,4.8-1.1,7.5-1.1c3.9,0,7.5,1,10.8,3c3.3,2,6,4.7,8,8.2
		c2,3.5,3,7.4,3,11.7c0,4.4-1,8.3-3,11.8c-2,3.5-4.8,6.2-8.3,8.2C738.6,1050.2,734.7,1051.2,730.2,1051.2z"/>
	<path class="st3" d="M784.3,1051.2c-4.3,0-8.1-1-11.7-3c-3.5-2-6.3-4.8-8.4-8.3c-2.1-3.5-3.1-7.3-3.1-11.4c0-2.3,0.4-4.6,1.2-7.1
		c0.8-2.4,1.7-4.4,2.7-6l21.3-32.8h8.7l-15.9,25.1h0.5c0.8-0.3,1.7-0.5,2.9-0.7c1.2-0.2,2.3-0.3,3.4-0.3c4,0,7.6,0.9,11,2.8
		c3.3,1.9,5.9,4.5,7.9,7.8c1.9,3.3,2.9,7,2.9,11.2c0,4.1-1,7.9-3.1,11.4c-2.1,3.5-4.9,6.2-8.4,8.3
		C792.5,1050.2,788.6,1051.2,784.3,1051.2z M784.3,1043.9c2.8,0,5.4-0.7,7.8-2c2.4-1.4,4.3-3.2,5.6-5.6s2-5,2-7.8
		c0-2.8-0.7-5.4-2-7.8c-1.4-2.4-3.2-4.3-5.6-5.6c-2.4-1.4-5-2-7.8-2c-2.8,0-5.4,0.7-7.8,2c-2.4,1.4-4.3,3.2-5.6,5.6
		c-1.4,2.4-2,5-2,7.8c0,2.8,0.7,5.4,2,7.8s3.2,4.3,5.6,5.6C778.9,1043.3,781.5,1043.9,784.3,1043.9z"/>
	<path class="st3" d="M819.1,1050.2l23.8-60.4H809v-7.2h42.5v6.3l-24.2,61.3H819.1z"/>
	<path class="st3" d="M880.4,1051.2c-4.4,0-8.3-0.9-11.6-2.7s-6-4.1-7.8-7.1c-1.8-3-2.8-6.2-2.8-9.6c0-2.8,0.5-5.3,1.6-7.5
		c1.1-2.3,2.4-4.1,4.1-5.7c1.6-1.5,3.3-2.6,4.9-3.2v-0.5c-2.3-1.1-4.4-2.9-6.3-5.5c-1.9-2.6-2.8-5.6-2.8-9c0-3.5,0.9-6.7,2.7-9.6
		c1.8-2.9,4.3-5.2,7.4-6.8c3.2-1.6,6.7-2.5,10.7-2.5c3.9,0,7.5,0.8,10.7,2.5c3.2,1.6,5.7,3.9,7.4,6.8c1.8,2.9,2.7,6.1,2.7,9.6
		c0,3.4-1,6.4-2.8,9c-1.9,2.6-4,4.4-6.3,5.5v0.5c2.7,1.1,5.2,3.1,7.3,6c2.2,2.9,3.3,6.4,3.3,10.4c0,3.3-0.9,6.5-2.8,9.5
		c-1.8,3-4.4,5.3-7.8,7.1C888.7,1050.3,884.8,1051.2,880.4,1051.2z M880.4,1043.9c2.7,0,5.2-0.5,7.4-1.6c2.2-1.1,4-2.6,5.2-4.5
		c1.3-1.9,1.9-4,1.9-6.4c0-2.4-0.6-4.5-1.9-6.4c-1.3-1.9-3-3.4-5.2-4.5c-2.2-1.1-4.7-1.6-7.4-1.6s-5.2,0.5-7.4,1.6
		c-2.2,1.1-4,2.6-5.2,4.5c-1.3,1.9-1.9,4-1.9,6.4c0,2.4,0.6,4.5,1.9,6.4c1.3,1.9,3,3.4,5.2,4.5
		C875.3,1043.4,877.7,1043.9,880.4,1043.9z M880.4,1012.1c2.6,0,4.9-0.5,6.9-1.5c2-1,3.5-2.4,4.5-4.2c1.1-1.8,1.6-3.7,1.6-5.8
		c0-2.1-0.5-4.1-1.6-5.8c-1.1-1.8-2.6-3.2-4.5-4.2c-2-1-4.3-1.5-6.9-1.5s-4.9,0.5-6.9,1.5c-2,1-3.5,2.4-4.5,4.2s-1.6,3.7-1.6,5.8
		c0,2.1,0.5,4.1,1.6,5.8c1.1,1.8,2.6,3.2,4.5,4.2C875.5,1011.5,877.8,1012.1,880.4,1012.1z"/>
	<path class="st3" d="M922.9,1050.2l15.9-25.1h-0.5c-0.8,0.3-1.7,0.5-2.9,0.7c-1.2,0.2-2.3,0.3-3.4,0.3c-4,0-7.6-0.9-11-2.8
		c-3.3-1.9-5.9-4.5-7.9-7.8c-1.9-3.3-2.9-7-2.9-11.2c0-4.1,1-7.9,3.1-11.4c2.1-3.5,4.9-6.2,8.4-8.3c3.5-2,7.4-3,11.7-3
		c4.3,0,8.1,1,11.7,3c3.5,2,6.3,4.8,8.4,8.3c2.1,3.5,3.1,7.3,3.1,11.4c0,2.3-0.4,4.6-1.2,7.1c-0.8,2.4-1.7,4.4-2.7,6l-21.3,32.8
		H922.9z M933.6,1019.8c2.8,0,5.4-0.7,7.8-2c2.4-1.4,4.3-3.2,5.6-5.6c1.4-2.4,2-5,2-7.8c0-2.8-0.7-5.4-2-7.8s-3.2-4.3-5.6-5.6
		c-2.4-1.4-5-2-7.8-2c-2.8,0-5.4,0.7-7.8,2c-2.4,1.4-4.3,3.2-5.6,5.6s-2,5-2,7.8c0,2.8,0.7,5.4,2,7.8c1.4,2.4,3.2,4.3,5.6,5.6
		C928.1,1019.1,930.7,1019.8,933.6,1019.8z"/>
	<path class="st3" d="M967.4,1050.2v-67.6h13.5l29,58.4h1.9v-58.4h7.7v67.6H1006l-29-58.4h-1.9v58.4H967.4z M1042.7,1036.7
		c-2.7,0-5.2-0.6-7.5-1.9c-2.3-1.3-4.1-3.1-5.5-5.4c-1.4-2.3-2-4.8-2-7.7s0.7-5.4,2-7.7c1.4-2.3,3.2-4.1,5.5-5.4
		c2.3-1.3,4.8-1.9,7.5-1.9s5.2,0.6,7.5,1.9c2.3,1.3,4.1,3.1,5.5,5.4c1.4,2.3,2,4.8,2,7.7s-0.7,5.4-2,7.7c-1.4,2.3-3.2,4.1-5.5,5.4
		C1047.9,1036,1045.4,1036.7,1042.7,1036.7z M1028.3,1050.2v-6.8h29v6.8H1028.3z M1042.7,1030.4c1.5,0,2.9-0.4,4.1-1.1
		c1.3-0.7,2.3-1.7,3-3c0.7-1.3,1.1-2.9,1.1-4.6c0-1.7-0.4-3.3-1.1-4.6c-0.7-1.3-1.7-2.3-3-3c-1.3-0.7-2.6-1.1-4.1-1.1
		c-1.5,0-2.8,0.4-4.1,1.1c-1.3,0.7-2.3,1.7-3,3c-0.7,1.3-1.1,2.8-1.1,4.6c0,1.7,0.4,3.3,1.1,4.6c0.7,1.3,1.7,2.3,3,3
		C1039.9,1030.1,1041.3,1030.4,1042.7,1030.4z"/>
	<path class="st3" d="M1080.4,1011.6c-2.7,0-5.2-0.6-7.5-1.9c-2.3-1.3-4.1-3.1-5.5-5.4c-1.4-2.3-2-4.8-2-7.7s0.7-5.4,2-7.7
		c1.4-2.3,3.2-4.1,5.5-5.4c2.3-1.3,4.8-1.9,7.5-1.9s5.2,0.6,7.5,1.9c2.3,1.3,4.1,3.1,5.5,5.4c1.4,2.3,2,4.8,2,7.7s-0.7,5.4-2,7.7
		c-1.4,2.3-3.2,4.1-5.5,5.4C1085.6,1010.9,1083.1,1011.6,1080.4,1011.6z M1080.4,1005.3c1.5,0,2.8-0.4,4.1-1.1c1.3-0.7,2.3-1.7,3-3
		c0.7-1.3,1.1-2.9,1.1-4.6c0-1.7-0.4-3.3-1.1-4.6c-0.7-1.3-1.7-2.3-3-3c-1.3-0.7-2.6-1.1-4.1-1.1c-1.5,0-2.9,0.4-4.1,1.1
		c-1.3,0.7-2.3,1.7-3,3c-0.7,1.3-1.1,2.8-1.1,4.6c0,1.7,0.4,3.3,1.1,4.6c0.7,1.3,1.7,2.3,3,3
		C1077.6,1004.9,1078.9,1005.3,1080.4,1005.3z M1073.7,1050.2l42-67.6h7.7l-42,67.6H1073.7z M1116.6,1051.2c-2.7,0-5.2-0.6-7.5-1.9
		c-2.3-1.3-4.1-3.1-5.5-5.4c-1.4-2.3-2-4.8-2-7.7s0.7-5.4,2-7.7c1.4-2.3,3.2-4.1,5.5-5.4c2.3-1.3,4.8-1.9,7.5-1.9s5.2,0.6,7.5,1.9
		c2.3,1.3,4.1,3.1,5.5,5.4c1.4,2.3,2,4.8,2,7.7s-0.7,5.4-2,7.7c-1.4,2.3-3.2,4.1-5.5,5.4C1121.8,1050.5,1119.4,1051.2,1116.6,1051.2
		z M1116.6,1044.9c1.5,0,2.9-0.4,4.1-1.1c1.3-0.7,2.3-1.7,3-3c0.7-1.3,1.1-2.9,1.1-4.6c0-1.7-0.4-3.3-1.1-4.6c-0.7-1.3-1.7-2.3-3-3
		c-1.3-0.7-2.6-1.1-4.1-1.1c-1.5,0-2.8,0.4-4.1,1.1c-1.3,0.7-2.3,1.7-3,3c-0.7,1.3-1.1,2.8-1.1,4.6c0,1.7,0.4,3.3,1.1,4.6
		c0.7,1.3,1.7,2.3,3,3C1113.8,1044.5,1115.2,1044.9,1116.6,1044.9z"/>
	<path class="st3" d="M1153.8,1029c0-2.6,0.4-4.8,1.1-6.6c0.7-1.8,1.8-3.4,3.3-4.8c1.5-1.4,3.6-2.8,6.2-4.1c1.6-0.8,2.9-1.8,4-2.9
		c1.1-1.1,1.9-2.4,2.4-4c0.5-1.5,0.8-3.2,0.8-5.2c0-2.4-0.6-4.5-1.8-6.4c-1.2-1.9-2.8-3.4-4.8-4.5c-2-1.1-4.3-1.6-6.9-1.6
		c-2.6,0-5,0.5-7.1,1.5c-2.1,1-3.7,2.4-4.8,4.2c-1.1,1.8-1.7,3.7-1.7,5.8h-7.7c0-3.5,0.9-6.7,2.7-9.6c1.8-2.9,4.3-5.1,7.5-6.8
		c3.2-1.6,6.9-2.5,11-2.5c4.1,0,7.8,0.9,11,2.6c3.2,1.7,5.7,4.1,7.5,7.1c1.8,3,2.7,6.4,2.7,10c0,4.2-1,7.8-2.9,10.8
		c-1.9,3-4.7,5.4-8.2,7.1c-2.7,1.4-4.5,2.8-5.4,4.3c-0.9,1.5-1.4,3.3-1.4,5.4v5.8h-7.7V1029z M1153.4,1050.2v-8.7h8.7v8.7H1153.4z"
		/>
	<path class="st3" d="M1190.1,1050.2v-8.7h8.7v8.7H1190.1z M1191.5,1034.8l-1-23.2v-29h7.7v29l-1,23.2H1191.5z"/>
	<path class="st3" d="M1219.5,1017.9l-5.3-4.3l8.7-11.1l-13.5-3.9l1.9-6.3l13.5,4.8l-0.5-14.5h6.8l-0.5,14.5l13.5-4.8l1.9,6.3
		l-13.5,3.9l8.7,11.1l-5.3,4.3l-8.2-12.1L1219.5,1017.9z"/>
</g>
</svg>
