<?xml version="1.0" encoding="utf-8"?>
<!-- Generator: Adobe Illustrator 22.0.0, SVG Export Plug-In . SVG Version: 6.00 Build 0)  -->
<svg version="1.1" id="Layer_1" xmlns="http://www.w3.org/2000/svg" xmlns:xlink="http://www.w3.org/1999/xlink" x="0px" y="0px"
	 viewBox="0 0 2000 1400" style="enable-background:new 0 0 2000 1400;" xml:space="preserve">
<style type="text/css">
	.st0{display:none;}
	.st1{display:inline;fill:#1B1B2D;}
	.st2{display:inline;}
	.st3{fill:#FFFFFF;}
</style>
<g id="Layer_2_1_" class="st0">
	<rect class="st1" width="2000" height="2000"/>
	<g class="st2">
		<g>
			<path class="st3" d="M584.8,976.5c0,35.9-11.1,70.9-31.9,100.3c-20.7,29.3-50.1,51.5-84,63.5v-41.7c23.2-11,42.7-28.3,56.4-49.9
				s21-46.7,20.9-72.3c0-25.6-7.3-50.7-21-72.3s-33.3-38.9-56.5-49.8v-41.7c33.9,12,63.3,34.2,84,63.5
				C573.6,905.6,584.7,940.6,584.8,976.5z"/>
			<rect x="275.5" y="957.2" class="st3" width="154.6" height="38.6"/>
			<path class="st3" d="M507.4,976.5c0-12.7-2.5-25.2-7.4-36.9s-12-22.4-20.9-31.3c-9-9-19.6-16.1-31.4-20.9
				c-11.7-4.8-24.3-7.3-37-7.3h-57.9v38.6h115.9v115.8h-116v38.6h57.9c12.7,0,25.3-2.5,37-7.3s22.4-12,31.4-20.9
				c9-9,16.1-19.6,21-31.3C504.9,1001.8,507.4,989.2,507.4,976.5z"/>
		</g>
		<g>
			<g>
				<path class="st3" d="M925.5,1125.6c-22,0-41.8-4.4-59.3-13.3c-17.6-8.8-32.1-20.8-43.6-36c-11.5-15.1-19.3-32-23.3-50.5h44.2
					c3.8,11.5,9.4,21.7,17.1,30.6c7.6,8.8,17,15.8,28.1,20.7c11.1,5,23.4,7.4,36.8,7.4c15.8,0,30.3-3.7,43.4-11.1
					c13.1-7.4,23.7-17.6,31.8-30.6c8-13,12.9-27.4,14.5-43.2H891.7v-39h123.4c-1.6-15.5-6.4-29.7-14.5-42.4
					c-8-12.7-18.6-22.8-31.8-30.2c-13.1-7.4-27.6-11.1-43.4-11.1c-19.8,0-37,5.3-51.5,15.9c-14.5,10.6-24.7,24.2-30.6,40.8h-44.2
					c4.8-18,13.1-34.4,24.7-49.3c11.7-14.9,26.2-26.7,43.6-35.4c17.4-8.7,36.7-13.1,57.9-13.1c24.7,0,47.4,6.2,68.2,18.5
					s37.1,29.5,49.1,51.5c11.9,22,17.9,46.9,17.9,74.8c0,27.9-6,52.8-17.9,74.8s-28.3,39.1-49.1,51.5
					C972.8,1119.5,950.1,1125.6,925.5,1125.6z"/>
				<path class="st3" d="M1082.7,1124v-39h10.9c7.8,0,14-2.3,18.7-6.8c4.7-4.6,7.4-11.9,8.2-22.1l11.3-136.7h143.9v202.2h-40.2
					V956.8h-66.3l-9.2,103.3c-1.9,21.4-7.8,37.5-17.9,48c-10.1,10.6-24.9,15.9-44.4,15.9H1082.7z"/>
				<path class="st3" d="M1368.9,1121.6V956.8h-66.3v-37.4h173.3v37.4h-66.3v164.8H1368.9z"/>
				<path class="st3" d="M1565.5,1125.6c-14.5,0-27.1-2.8-38-8.2c-10.9-5.5-19.2-12.9-25.1-22.3s-8.8-20.1-8.8-32.2
					c0-13.1,2.9-24.5,8.8-34.2c5.9-9.6,14.9-17.2,27.1-22.7s27.4-8.2,45.6-8.2h51.5v-5.2c0-13.1-3.8-23.5-11.5-31.2
					c-7.6-7.6-18-11.5-31.2-11.5c-12.3,0-22.3,2.8-30,8.4c-7.6,5.6-12.1,12.5-13.5,20.5h-40.2c1.1-11,5-21.4,11.7-31.2
					s16.2-17.6,28.5-23.5s26.8-8.8,43.4-8.8c16.9,0,31.6,3.2,44,9.4c12.5,6.3,22,15.3,28.7,26.9c6.7,11.7,10.1,25.3,10.1,40.8v129.1
					h-35l-4-22.1h-2c-4.6,6.7-12.2,12.7-22.9,18.1C1592.2,1123,1579.7,1125.6,1565.5,1125.6z M1570,1091.1c11.5,0,21.6-2.2,30.2-6.6
					s15.1-10.7,19.7-18.9c4.6-8.2,6.8-17.8,6.8-28.7v-6.8H1578c-15,0-26.1,2.9-33.2,8.6c-7.1,5.8-10.7,13.3-10.7,22.7
					c0,8.8,3.1,16,9.2,21.5C1549.6,1088.3,1558.4,1091.1,1570,1091.1z"/>
			</g>
		</g>
	</g>
</g>
<rect class="st3" width="2000" height="1400"/>
<g>
	<g>
		<path d="M1212.3,700c0,49.3-15.3,97.4-43.8,137.7s-68.8,70.7-115.3,87.2v-57.2c31.8-15,58.7-38.8,77.5-68.5s28.8-64.1,28.8-99.3
			c0-35.1-10-69.6-28.9-99.2c-18.8-29.7-45.7-53.4-77.5-68.4v-57.2c46.6,16.5,86.9,46.9,115.4,87.2S1212.3,650.7,1212.3,700z"/>
		<rect x="787.7" y="673.5" width="212.3" height="53"/>
		<path d="M1106.1,700c0-17.4-3.4-34.6-10.1-50.7c-6.7-16.1-16.4-30.7-28.8-43c-12.3-12.3-27-22.1-43.1-28.7
			c-16.1-6.7-33.4-10.1-50.8-10.1h-79.5v53H1053v159H893.9v53h79.5c17.4,0,34.7-3.4,50.8-10.1c16.1-6.7,30.7-16.4,43.1-28.7
			c12.3-12.3,22.1-26.9,28.8-43C1102.7,734.7,1106.1,717.4,1106.1,700z"/>
	</g>
</g>
</svg>
