<?xml version="1.0" encoding="utf-8"?>
<!-- Generator: Adobe Illustrator 22.0.0, SVG Export Plug-In . SVG Version: 6.00 Build 0)  -->
<svg version="1.1" id="Бараев_Александр_Анатольевич"
	 xmlns="http://www.w3.org/2000/svg" xmlns:xlink="http://www.w3.org/1999/xlink" x="0px" y="0px" viewBox="0 0 2551.2 1417.3"
	 style="enable-background:new 0 0 2551.2 1417.3;" xml:space="preserve">
<style type="text/css">
	.st0{fill:none;stroke:#000000;stroke-miterlimit:10;}
	.st1{fill:#1B1B2D;}
</style>
<rect x="0" class="st0" width="2551.2" height="1417.3"/>
<g>
	<g>
		<path class="st1" d="M71.8,132.8c-3.9-2-7.1-4.6-9.7-8c-2.5-3.3-4.3-7.1-5.2-11.2h9.7c1.2,3.9,3.5,7.1,6.7,9.5
			c3.2,2.4,7.1,3.6,11.6,3.6c3.5,0,6.7-0.8,9.6-2.5c2.9-1.7,5.3-3.9,7.2-6.8c1.8-2.9,2.9-6.1,3.2-9.7H77.4v-8.4h27.5
			c-0.3-3.5-1.4-6.7-3.2-9.5c-1.8-2.8-4.2-5.1-7.2-6.8c-2.9-1.7-6.1-2.5-9.6-2.5c-4.4,0-8.2,1.2-11.4,3.6c-3.2,2.4-5.5,5.4-6.8,9.1
			H57c1.1-4,2.9-7.6,5.5-10.8c2.6-3.3,5.8-5.9,9.7-7.8c3.9-1.9,8.1-2.9,12.8-2.9c5.5,0,10.5,1.4,15.1,4.1c4.5,2.7,8.1,6.5,10.8,11.4
			c2.7,4.9,4,10.4,4,16.5c0,6.2-1.3,11.7-4,16.5c-2.7,4.9-6.3,8.7-10.8,11.4c-4.5,2.7-9.6,4.1-15.1,4.1
			C80.1,135.8,75.7,134.8,71.8,132.8z"/>
		<path class="st1" d="M115.6,135.3v-9.2h2.8c4.1,0,6.3-2.4,6.8-7.2l3.9-46.3h40.2v62.2h-9.3V81.5h-22.2l-3.3,38.5
			c-0.4,5.2-1.9,9.1-4.4,11.6c-2.5,2.5-6.1,3.7-10.8,3.7H115.6z"/>
		<path class="st1" d="M204.8,134.9h-9.3V81.5h-19.6v-8.9h48.4v8.9h-19.5V134.9z"/>
		<path class="st1" d="M278,134.9h-10l-5.3-14.9H234l-5.3,14.9h-10.1l22.9-62.2h13.7L278,134.9z M247.4,82.6L237,111.5h22.6
			l-10.4-28.9H247.4z"/>
	</g>
</g>
<g>
	<g>
		<path class="st1" d="M1284.8,113.6h-4.9V70.9h26.8v4.6h-22V113.6z"/>
		<path class="st1" d="M1307.3,125.8V83.1h4l0.6,4.3h0.3c1.3-1.6,2.7-2.8,4.3-3.6c1.6-0.8,3.4-1.3,5.5-1.3c2.6,0,5,0.7,7.2,2
			c2.1,1.3,3.8,3.2,5,5.6c1.2,2.4,1.8,5.1,1.8,8.2c0,3.1-0.6,5.8-1.8,8.2s-2.9,4.3-5,5.6c-2.1,1.3-4.5,2-7.2,2
			c-2.1,0-3.9-0.4-5.5-1.3s-3-2-4.3-3.6h-0.3v16.5H1307.3z M1326.5,108.5c1.5-1,2.7-2.3,3.6-4.1c0.9-1.7,1.3-3.8,1.3-6
			c0-2.3-0.4-4.3-1.3-6c-0.9-1.7-2.1-3.1-3.6-4.1c-1.5-1-3.1-1.5-4.8-1.5c-1.7,0-3.4,0.5-4.8,1.5c-1.5,1-2.7,2.3-3.6,4.1
			c-0.9,1.7-1.3,3.8-1.3,6c0,2.3,0.4,4.3,1.3,6c0.9,1.7,2.1,3.1,3.6,4.1c1.5,1,3.1,1.5,4.8,1.5C1323.4,110,1325,109.5,1326.5,108.5z
			"/>
		<path class="st1" d="M1344.5,111.6c-2-1.8-3-4-3-6.8c0-3,1-5.4,3-7.2c2-1.7,5.1-2.6,9.2-2.6h8.2v-0.9c0-2.3-0.7-4.1-2-5.4
			c-1.3-1.3-3.1-2-5.4-2c-2.2,0-4,0.5-5.3,1.5c-1.4,1-2.1,2.2-2.3,3.7h-4.6c0.1-1.7,0.7-3.2,1.6-4.7c1-1.4,2.4-2.6,4.2-3.5
			c1.8-0.9,3.9-1.3,6.4-1.3c3.7,0,6.6,1,8.7,3.1c2.1,2.1,3.2,4.9,3.2,8.5v19.5h-4l-0.6-3.7h-0.3c-0.7,1.1-1.9,2.1-3.6,3
			s-3.7,1.3-5.9,1.3C1349,114.3,1346.4,113.4,1344.5,111.6z M1359.3,107.5c1.7-1.7,2.6-4,2.6-6.9v-1.2h-8.2c-2.6,0-4.5,0.5-5.8,1.5
			s-1.9,2.3-1.9,4c0,1.5,0.5,2.8,1.6,3.8c1.1,1,2.6,1.4,4.5,1.4C1355.2,110,1357.6,109.1,1359.3,107.5z"/>
		<path class="st1" d="M1370.8,121v-11.6h0.6c1.4,0,2.4-0.3,3.1-1s1.1-1.8,1.2-3.3l1.8-22h20.4v26.2h4.3V121h-4.6v-7.3h-22.3v7.3
			H1370.8z M1393.3,109.4v-22h-11.6l-1.5,17.7c-0.1,1.1-0.3,2-0.6,2.8c-0.3,0.8-0.6,1.3-0.9,1.5H1393.3z"/>
		<path class="st1" d="M1425.7,101.8c-1.3,0.9-2.7,1.5-4.1,1.9s-3,0.5-4.7,0.5c-3.7,0-6.4-1-8.2-2.9s-2.7-4.8-2.7-8.7v-9.5h4.6v9.5
			c0,2.4,0.6,4.3,1.8,5.5c1.2,1.2,2.9,1.8,5.2,1.8c1.6,0,3.1-0.2,4.4-0.7c1.3-0.4,2.6-1.1,3.8-2.1v-14h4.6v30.5h-4.6V101.8z"/>
		<path class="st1" d="M1440.5,111.6c-2-1.8-3-4-3-6.8c0-3,1-5.4,3-7.2c2-1.7,5.1-2.6,9.2-2.6h8.2v-0.9c0-2.3-0.7-4.1-2-5.4
			c-1.3-1.3-3.1-2-5.4-2c-2.2,0-4,0.5-5.3,1.5c-1.4,1-2.1,2.2-2.3,3.7h-4.6c0.1-1.7,0.7-3.2,1.6-4.7c1-1.4,2.4-2.6,4.2-3.5
			c1.8-0.9,3.9-1.3,6.4-1.3c3.7,0,6.6,1,8.7,3.1c2.1,2.1,3.2,4.9,3.2,8.5v19.5h-4l-0.6-3.7h-0.3c-0.7,1.1-1.9,2.1-3.6,3
			s-3.7,1.3-5.9,1.3C1445.1,114.3,1442.5,113.4,1440.5,111.6z M1455.4,107.5c1.7-1.7,2.6-4,2.6-6.9v-1.2h-8.2
			c-2.6,0-4.5,0.5-5.8,1.5s-1.9,2.3-1.9,4c0,1.5,0.5,2.8,1.6,3.8c1.1,1,2.6,1.4,4.5,1.4C1451.3,110,1453.7,109.1,1455.4,107.5z"/>
		<path class="st1" d="M1475.7,113.6h-4.6V83.1h4.6v13.1h16.2V83.1h4.6v30.5h-4.6v-13.1h-16.2V113.6z"/>
		<path class="st1" d="M1512.9,113.6h-7.9V83.1h4.6v25h1.2l11.6-25h7.9v30.5h-4.6v-25h-1.2L1512.9,113.6z"/>
		<path class="st1" d="M1543.4,113.6h-4.6V83.1h4.6v13.1h16.2V83.1h4.6v30.5h-4.6v-13.1h-16.2V113.6z"/>
		<path class="st1" d="M1578.1,112.2c-2.2-1.3-4-3.2-5.3-5.6s-1.9-5.1-1.9-8.2c0-3.1,0.6-5.8,1.9-8.2c1.3-2.4,3-4.3,5.3-5.6
			c2.2-1.3,4.7-2,7.4-2c2.7,0,5.2,0.7,7.4,2c2.2,1.3,4,3.2,5.3,5.6c1.3,2.4,1.9,5.1,1.9,8.2c0,3.1-0.6,5.8-1.9,8.2
			c-1.3,2.4-3,4.3-5.3,5.6c-2.2,1.3-4.7,2-7.4,2C1582.8,114.3,1580.3,113.6,1578.1,112.2z M1590.6,108.6c1.5-1,2.8-2.3,3.7-4.1
			c0.9-1.8,1.3-3.8,1.3-6.1c0-2.3-0.4-4.3-1.3-6.1c-0.9-1.8-2.1-3.1-3.7-4.1c-1.5-1-3.2-1.4-5.1-1.4s-3.5,0.5-5.1,1.4
			c-1.5,1-2.8,2.3-3.7,4.1c-0.9,1.8-1.3,3.8-1.3,6.1c0,2.3,0.4,4.3,1.3,6.1c0.9,1.8,2.1,3.1,3.7,4.1c1.5,1,3.2,1.4,5.1,1.4
			S1589,109.5,1590.6,108.6z"/>
		<path class="st1" d="M1606.8,113.6V83.1h15.9c2.6,0,4.7,0.8,6.2,2.3c1.5,1.5,2.3,3.6,2.3,6.2c0,1.5-0.4,2.9-1.1,4
			c-0.8,1.1-1.6,1.9-2.5,2.4v0.3c1.1,0.4,2.1,1.2,3,2.3c0.9,1.1,1.3,2.6,1.3,4.3c0,2.5-0.8,4.5-2.4,6.2c-1.6,1.6-3.7,2.5-6.1,2.5
			H1606.8z M1622.1,96.3c1.3,0,2.3-0.4,3.2-1.3c0.9-0.9,1.3-2,1.3-3.3s-0.4-2.4-1.3-3.3s-2-1.3-3.2-1.3h-10.7v9.2H1622.1z
			 M1622.7,109.7c1.3,0,2.3-0.4,3.2-1.3c0.9-0.9,1.3-2,1.3-3.4c0-1.4-0.4-2.6-1.3-3.4c-0.9-0.9-2-1.3-3.2-1.3h-11.3v9.5H1622.7z"/>
		<path class="st1" d="M1688,113.6h-5.2l-4.1-11h-21.1l-4.1,11h-5.2l16.2-42.7h7.3L1688,113.6z M1667.5,76.1l-8.2,22h17.7l-8.2-22
			H1667.5z"/>
		<path class="st1" d="M1688.6,114v-4.6h1.8c1.1,0,2.1-0.3,2.7-1s1.1-1.8,1.2-3.2l1.8-22h20.4v30.5h-4.6V87.4h-11.6l-1.5,17.7
			c-0.3,3-1.1,5.2-2.5,6.7c-1.4,1.4-3.4,2.2-6,2.2H1688.6z"/>
		<path class="st1" d="M1730.6,112.2c-2.2-1.3-4-3.2-5.3-5.6s-1.9-5.1-1.9-8.2c0-3.1,0.6-5.8,1.9-8.2c1.3-2.4,3-4.3,5.3-5.6
			c2.2-1.3,4.7-2,7.4-2c2.6,0,5,0.6,7.1,1.9c2.2,1.3,3.8,3,5.1,5.2c1.2,2.2,1.8,4.7,1.8,7.5c0,1.6-0.1,2.7-0.3,3.4h-23.8
			c0.3,2.8,1.4,5.1,3.3,6.9c1.9,1.7,4.2,2.6,6.8,2.6c1.8,0,3.5-0.4,4.9-1.3c1.4-0.9,2.6-2.1,3.3-3.6h4.9c-1.1,2.9-2.7,5.2-5,6.8
			c-2.3,1.6-5,2.4-8.1,2.4C1735.3,114.3,1732.8,113.6,1730.6,112.2z M1747.5,96.3c-0.2-2.8-1.1-5-2.9-6.8c-1.8-1.8-4-2.7-6.6-2.7
			c-2.7,0-5,0.9-6.8,2.7c-1.8,1.8-2.9,4-3.2,6.8H1747.5z"/>
		<path class="st1" d="M1763.3,113.6h-4.6V83.1h4.6v14l13.7-14h5.9l-14.6,14.9l15.3,15.6h-5.9L1763.3,99V113.6z"/>
		<path class="st1" d="M1791.9,112.2c-2.2-1.3-4-3.2-5.3-5.6s-1.9-5.1-1.9-8.2c0-3.1,0.6-5.8,1.9-8.2c1.3-2.4,3-4.3,5.3-5.6
			c2.2-1.3,4.7-2,7.4-2c3.4,0,6.3,0.9,8.7,2.8c2.4,1.9,4,4.4,4.8,7.6h-4.6c-0.6-2-1.7-3.5-3.3-4.5c-1.6-1.1-3.4-1.6-5.6-1.6
			c-1.8,0-3.5,0.5-5.1,1.4c-1.5,1-2.8,2.3-3.7,4.1c-0.9,1.8-1.3,3.8-1.3,6.1c0,2.3,0.4,4.3,1.3,6.1c0.9,1.8,2.1,3.1,3.7,4.1
			c1.5,1,3.2,1.4,5.1,1.4c2.2,0,4.1-0.5,5.6-1.6c1.5-1.1,2.6-2.7,3.2-4.8h4.6c-0.8,3.3-2.4,5.9-4.8,7.8c-2.4,1.9-5.3,2.8-8.7,2.8
			C1796.6,114.3,1794.1,113.6,1791.9,112.2z"/>
		<path class="st1" d="M1820.9,111.6c-2-1.8-3-4-3-6.8c0-3,1-5.4,3-7.2c2-1.7,5.1-2.6,9.2-2.6h8.2v-0.9c0-2.3-0.7-4.1-2-5.4
			c-1.3-1.3-3.1-2-5.4-2c-2.2,0-4,0.5-5.3,1.5c-1.4,1-2.1,2.2-2.3,3.7h-4.6c0.1-1.7,0.7-3.2,1.6-4.7c1-1.4,2.4-2.6,4.2-3.5
			c1.8-0.9,3.9-1.3,6.4-1.3c3.7,0,6.6,1,8.7,3.1c2.1,2.1,3.2,4.9,3.2,8.5v19.5h-4l-0.6-3.7h-0.3c-0.7,1.1-1.9,2.1-3.6,3
			s-3.7,1.3-5.9,1.3C1825.4,114.3,1822.8,113.4,1820.9,111.6z M1835.7,107.5c1.7-1.7,2.6-4,2.6-6.9v-1.2h-8.2
			c-2.6,0-4.5,0.5-5.8,1.5c-1.2,1-1.9,2.3-1.9,4c0,1.5,0.5,2.8,1.6,3.8c1.1,1,2.6,1.4,4.5,1.4C1831.6,110,1834,109.1,1835.7,107.5z"
			/>
		<path class="st1" d="M1856,113.6h-4.6V83.1h4.6v13.1h16.2V83.1h4.6v30.5h-4.6v-13.1H1856V113.6z"/>
		<path class="st1" d="M1881,121v-11.6h0.6c1.4,0,2.4-0.3,3.1-1s1.1-1.8,1.2-3.3l1.8-22h20.4v26.2h4.3V121h-4.6v-7.3h-22.3v7.3H1881
			z M1903.6,109.4v-22H1892l-1.5,17.7c-0.1,1.1-0.3,2-0.6,2.8c-0.3,0.8-0.6,1.3-0.9,1.5H1903.6z"/>
		<path class="st1" d="M1917.9,125.8V83.1h4l0.6,4.3h0.3c1.3-1.6,2.7-2.8,4.3-3.6c1.6-0.8,3.4-1.3,5.5-1.3c2.6,0,5,0.7,7.2,2
			c2.1,1.3,3.8,3.2,5,5.6c1.2,2.4,1.8,5.1,1.8,8.2c0,3.1-0.6,5.8-1.8,8.2c-1.2,2.4-2.9,4.3-5,5.6c-2.1,1.3-4.5,2-7.2,2
			c-2.1,0-3.9-0.4-5.5-1.3s-3-2-4.3-3.6h-0.3v16.5H1917.9z M1937.1,108.5c1.5-1,2.7-2.3,3.6-4.1c0.9-1.7,1.3-3.8,1.3-6
			c0-2.3-0.4-4.3-1.3-6c-0.9-1.7-2.1-3.1-3.6-4.1s-3.1-1.5-4.8-1.5c-1.7,0-3.4,0.5-4.8,1.5c-1.5,1-2.7,2.3-3.6,4.1
			c-0.9,1.7-1.3,3.8-1.3,6c0,2.3,0.4,4.3,1.3,6c0.9,1.7,2.1,3.1,3.6,4.1c1.5,1,3.1,1.5,4.8,1.5C1934,110,1935.6,109.5,1937.1,108.5z
			"/>
		<path class="st1" d="M1972.8,113.6h-4.9V70.9h4.9v18.9h23.8V70.9h4.9v42.7h-4.9V94.4h-23.8V113.6z"/>
		<path class="st1" d="M2018.6,113.6h-7.9V83.1h4.6v25h1.2l11.6-25h7.9v30.5h-4.6v-25h-1.2L2018.6,113.6z"/>
		<path class="st1" d="M2049.1,113.6h-4.6V83.1h4.6v14l13.7-14h5.9L2054,98.1l15.3,15.6h-5.9L2049.1,99V113.6z"/>
		<path class="st1" d="M2077.6,112.2c-2.2-1.3-4-3.2-5.3-5.6s-1.9-5.1-1.9-8.2c0-3.1,0.6-5.8,1.9-8.2c1.3-2.4,3-4.3,5.3-5.6
			c2.2-1.3,4.7-2,7.4-2c2.7,0,5.2,0.7,7.4,2c2.2,1.3,4,3.2,5.3,5.6c1.3,2.4,1.9,5.1,1.9,8.2c0,3.1-0.6,5.8-1.9,8.2
			c-1.3,2.4-3,4.3-5.3,5.6c-2.2,1.3-4.7,2-7.4,2C2082.4,114.3,2079.9,113.6,2077.6,112.2z M2090.1,108.6c1.5-1,2.8-2.3,3.7-4.1
			c0.9-1.8,1.3-3.8,1.3-6.1c0-2.3-0.4-4.3-1.3-6.1c-0.9-1.8-2.1-3.1-3.7-4.1c-1.5-1-3.2-1.4-5.1-1.4s-3.5,0.5-5.1,1.4
			c-1.5,1-2.8,2.3-3.7,4.1c-0.9,1.8-1.3,3.8-1.3,6.1c0,2.3,0.4,4.3,1.3,6.1c0.9,1.8,2.1,3.1,3.7,4.1c1.5,1,3.2,1.4,5.1,1.4
			S2088.6,109.5,2090.1,108.6z"/>
		<path class="st1" d="M2101.6,114v-4.6h1.8c1.1,0,2.1-0.3,2.7-1s1.1-1.8,1.2-3.2l1.8-22h20.4v30.5h-4.6V87.4h-11.6l-1.5,17.7
			c-0.3,3-1.1,5.2-2.5,6.7c-1.4,1.4-3.4,2.2-6,2.2H2101.6z"/>
		<path class="st1" d="M2139.9,111.6c-2-1.8-3-4-3-6.8c0-3,1-5.4,3-7.2c2-1.7,5.1-2.6,9.2-2.6h8.2v-0.9c0-2.3-0.7-4.1-2-5.4
			c-1.3-1.3-3.1-2-5.4-2c-2.2,0-4,0.5-5.3,1.5c-1.4,1-2.1,2.2-2.3,3.7h-4.6c0.1-1.7,0.7-3.2,1.6-4.7c1-1.4,2.4-2.6,4.2-3.5
			c1.8-0.9,3.9-1.3,6.4-1.3c3.7,0,6.6,1,8.7,3.1c2.1,2.1,3.2,4.9,3.2,8.5v19.5h-4l-0.6-3.7h-0.3c-0.7,1.1-1.9,2.1-3.6,3
			s-3.7,1.3-5.9,1.3C2144.4,114.3,2141.9,113.4,2139.9,111.6z M2154.8,107.5c1.7-1.7,2.6-4,2.6-6.9v-1.2h-8.2
			c-2.6,0-4.5,0.5-5.8,1.5c-1.2,1-1.9,2.3-1.9,4c0,1.5,0.5,2.8,1.6,3.8c1.1,1,2.6,1.4,4.5,1.4C2150.7,110,2153,109.1,2154.8,107.5z"
			/>
		<path class="st1" d="M2175.8,112.2c-2.2-1.3-4-3.2-5.3-5.6s-1.9-5.1-1.9-8.2c0-3.1,0.6-5.8,1.9-8.2c1.3-2.4,3-4.3,5.3-5.6
			c2.2-1.3,4.7-2,7.4-2c2.6,0,5,0.6,7.1,1.9c2.2,1.3,3.8,3,5.1,5.2c1.2,2.2,1.8,4.7,1.8,7.5c0,1.6-0.1,2.7-0.3,3.4h-23.8
			c0.3,2.8,1.4,5.1,3.3,6.9c1.9,1.7,4.2,2.6,6.8,2.6c1.8,0,3.5-0.4,4.9-1.3c1.4-0.9,2.6-2.1,3.3-3.6h4.9c-1.1,2.9-2.7,5.2-5,6.8
			c-2.3,1.6-5,2.4-8.1,2.4C2180.6,114.3,2178.1,113.6,2175.8,112.2z M2192.7,96.3c-0.2-2.8-1.1-5-2.9-6.8c-1.8-1.8-4-2.7-6.6-2.7
			c-2.7,0-5,0.9-6.8,2.7c-1.8,1.8-2.9,4-3.2,6.8H2192.7z"/>
		<path class="st1" d="M2204,113.6V83.1h15.9c2.6,0,4.7,0.8,6.2,2.3c1.5,1.5,2.3,3.6,2.3,6.2c0,1.5-0.4,2.9-1.1,4
			c-0.8,1.1-1.6,1.9-2.5,2.4v0.3c1.1,0.4,2.1,1.2,3,2.3c0.9,1.1,1.3,2.6,1.3,4.3c0,2.5-0.8,4.5-2.4,6.2c-1.6,1.6-3.7,2.5-6.1,2.5
			H2204z M2219.3,96.3c1.3,0,2.3-0.4,3.2-1.3c0.9-0.9,1.3-2,1.3-3.3s-0.4-2.4-1.3-3.3s-2-1.3-3.2-1.3h-10.7v9.2H2219.3z
			 M2219.9,109.7c1.3,0,2.3-0.4,3.2-1.3c0.9-0.9,1.3-2,1.3-3.4c0-1.4-0.4-2.6-1.3-3.4c-0.9-0.9-2-1.3-3.2-1.3h-11.3v9.5H2219.9z"/>
		<path class="st1" d="M2243.7,113.6h-7.9V83.1h4.6v25h1.2l11.6-25h7.9v30.5h-4.6v-25h-1.2L2243.7,113.6z"/>
		<path class="st1" d="M2288.2,101.8c-1.3,0.9-2.7,1.5-4.1,1.9c-1.4,0.4-3,0.5-4.7,0.5c-3.7,0-6.4-1-8.2-2.9s-2.7-4.8-2.7-8.7v-9.5
			h4.6v9.5c0,2.4,0.6,4.3,1.8,5.5c1.2,1.2,2.9,1.8,5.2,1.8c1.6,0,3.1-0.2,4.4-0.7c1.3-0.4,2.6-1.1,3.8-2.1v-14h4.6v30.5h-4.6V101.8z
			"/>
		<path class="st1" d="M1295.4,177.6h-4.9v-38.1h-14v-4.6h32.9v4.6h-14V177.6z"/>
		<path class="st1" d="M1315.8,176.2c-2.2-1.3-4-3.2-5.3-5.6s-1.9-5.1-1.9-8.2c0-3.1,0.6-5.8,1.9-8.2c1.3-2.4,3-4.3,5.3-5.6
			c2.2-1.3,4.7-2,7.4-2c2.6,0,5,0.6,7.1,1.9c2.2,1.3,3.8,3,5.1,5.2c1.2,2.2,1.8,4.7,1.8,7.5c0,1.6-0.1,2.7-0.3,3.4h-23.8
			c0.3,2.8,1.4,5.1,3.3,6.9c1.9,1.7,4.2,2.6,6.8,2.6c1.8,0,3.5-0.4,4.9-1.3c1.4-0.9,2.6-2.1,3.3-3.6h4.9c-1.1,2.9-2.7,5.2-5,6.8
			c-2.3,1.6-5,2.4-8.1,2.4C1320.5,178.3,1318,177.6,1315.8,176.2z M1332.7,160.3c-0.2-2.8-1.1-5-2.9-6.8c-1.8-1.8-4-2.7-6.6-2.7
			c-2.7,0-5,0.9-6.8,2.7s-2.9,4-3.2,6.8H1332.7z"/>
		<path class="st1" d="M1344.6,177.6h-5.5l10.4-15.6l-10.1-14.9h5.5l7.6,11.6h1.2l7.6-11.6h5.5l-10.1,14.9l10.4,15.6h-5.5l-7.9-12.2
			h-1.2L1344.6,177.6z"/>
		<path class="st1" d="M1376.6,177.6h-4.6v-30.5h4.6v13.1h16.2v-13.1h4.6v30.5h-4.6v-13.1h-16.2V177.6z"/>
		<path class="st1" d="M1413.8,177.6h-7.9v-30.5h4.6v25h1.2l11.6-25h7.9v30.5h-4.6v-25h-1.2L1413.8,177.6z"/>
		<path class="st1" d="M1458.3,165.8c-1.3,0.9-2.7,1.5-4.1,1.9c-1.4,0.4-3,0.5-4.7,0.5c-3.7,0-6.4-1-8.2-2.9s-2.7-4.8-2.7-8.7v-9.5
			h4.6v9.5c0,2.4,0.6,4.3,1.8,5.5c1.2,1.2,2.9,1.8,5.2,1.8c1.6,0,3.1-0.2,4.4-0.7c1.3-0.4,2.6-1.1,3.8-2.1v-14h4.6v30.5h-4.6V165.8z
			"/>
		<path class="st1" d="M1476.8,176.2c-2.2-1.3-4-3.2-5.3-5.6s-1.9-5.1-1.9-8.2c0-3.1,0.6-5.8,1.9-8.2c1.3-2.4,3-4.3,5.3-5.6
			c2.2-1.3,4.7-2,7.4-2c2.6,0,5,0.6,7.1,1.9c2.2,1.3,3.8,3,5.1,5.2c1.2,2.2,1.8,4.7,1.8,7.5c0,1.6-0.1,2.7-0.3,3.4h-23.8
			c0.3,2.8,1.4,5.1,3.3,6.9c1.9,1.7,4.2,2.6,6.8,2.6c1.8,0,3.5-0.4,4.9-1.3c1.4-0.9,2.6-2.1,3.3-3.6h4.9c-1.1,2.9-2.7,5.2-5,6.8
			c-2.3,1.6-5,2.4-8.1,2.4C1481.5,178.3,1479,177.6,1476.8,176.2z M1493.7,160.3c-0.2-2.8-1.1-5-2.9-6.8c-1.8-1.8-4-2.7-6.6-2.7
			c-2.7,0-5,0.9-6.8,2.7s-2.9,4-3.2,6.8H1493.7z"/>
		<path class="st1" d="M1510.3,176.2c-2.2-1.3-4-3.2-5.3-5.6s-1.9-5.1-1.9-8.2c0-3.1,0.6-5.8,1.9-8.2c1.3-2.4,3-4.3,5.3-5.6
			c2.2-1.3,4.7-2,7.4-2c3.4,0,6.3,0.9,8.7,2.8c2.4,1.9,4,4.4,4.8,7.6h-4.6c-0.6-2-1.7-3.5-3.3-4.5c-1.6-1.1-3.4-1.6-5.6-1.6
			c-1.8,0-3.5,0.5-5.1,1.4c-1.5,1-2.8,2.3-3.7,4.1c-0.9,1.8-1.3,3.8-1.3,6.1c0,2.3,0.4,4.3,1.3,6.1c0.9,1.8,2.1,3.1,3.7,4.1
			c1.5,1,3.2,1.4,5.1,1.4c2.2,0,4.1-0.5,5.6-1.6c1.5-1.1,2.6-2.7,3.2-4.8h4.6c-0.8,3.3-2.4,5.9-4.8,7.8c-2.4,1.9-5.3,2.8-8.7,2.8
			C1515.1,178.3,1512.6,177.6,1510.3,176.2z"/>
		<path class="st1" d="M1542.2,177.6h-4.6v-30.5h4.6v14l13.7-14h5.9l-14.6,14.9l15.3,15.6h-5.9l-14.3-14.6V177.6z"/>
		<path class="st1" d="M1574.5,177.6h-7.9v-30.5h4.6v25h1.2l11.6-25h7.9v30.5h-4.6v-25h-1.2L1574.5,177.6z"/>
		<path class="st1" d="M1608.4,177.6h-7.9v-30.5h4.6v25h1.2l11.6-25h7.9v30.5h-4.6v-25h-1.2L1608.4,177.6z M1607.4,139.9
			c-1.6-1.4-2.5-3.2-2.7-5.5h4c0.2,1.3,0.7,2.4,1.5,3.1c0.8,0.8,1.9,1.1,3.1,1.1c1.3,0,2.3-0.4,3.1-1.1c0.8-0.8,1.3-1.8,1.5-3.1h4
			c-0.2,2.3-1,4.1-2.7,5.5c-1.6,1.4-3.6,2.1-5.9,2.1S1609,141.3,1607.4,139.9z"/>
		<path class="st1" d="M1644.1,185v-11.6h0.6c1.4,0,2.4-0.3,3.1-1s1.1-1.8,1.2-3.3l1.8-22h20.4v26.2h4.3V185h-4.6v-7.3h-22.3v7.3
			H1644.1z M1666.6,173.4v-22H1655l-1.5,17.7c-0.1,1.1-0.3,2-0.6,2.8c-0.3,0.8-0.6,1.3-0.9,1.5H1666.6z"/>
		<path class="st1" d="M1688.9,177.6h-7.9v-30.5h4.6v25h1.2l11.6-25h7.9v30.5h-4.6v-25h-1.2L1688.9,177.6z"/>
		<path class="st1" d="M1714.8,189.8v-42.7h4l0.6,4.3h0.3c1.3-1.6,2.7-2.8,4.3-3.6c1.6-0.8,3.4-1.3,5.5-1.3c2.6,0,5,0.7,7.2,2
			c2.1,1.3,3.8,3.2,5,5.6c1.2,2.4,1.8,5.1,1.8,8.2c0,3.1-0.6,5.8-1.8,8.2c-1.2,2.4-2.9,4.3-5,5.6c-2.1,1.3-4.5,2-7.2,2
			c-2.1,0-3.9-0.4-5.5-1.3s-3-2-4.3-3.6h-0.3v16.5H1714.8z M1734,172.5c1.5-1,2.7-2.3,3.6-4.1c0.9-1.7,1.3-3.8,1.3-6
			c0-2.3-0.4-4.3-1.3-6c-0.9-1.7-2.1-3.1-3.6-4.1s-3.1-1.5-4.8-1.5c-1.7,0-3.4,0.5-4.8,1.5c-1.5,1-2.7,2.3-3.6,4.1
			c-0.9,1.7-1.3,3.8-1.3,6c0,2.3,0.4,4.3,1.3,6c0.9,1.7,2.1,3.1,3.6,4.1c1.5,1,3.1,1.5,4.8,1.5C1730.9,174,1732.5,173.5,1734,172.5z
			"/>
		<path class="st1" d="M1755.6,176.2c-2.2-1.3-4-3.2-5.3-5.6s-1.9-5.1-1.9-8.2c0-3.1,0.6-5.8,1.9-8.2c1.3-2.4,3-4.3,5.3-5.6
			c2.2-1.3,4.7-2,7.4-2c2.6,0,5,0.6,7.1,1.9c2.2,1.3,3.8,3,5.1,5.2c1.2,2.2,1.8,4.7,1.8,7.5c0,1.6-0.1,2.7-0.3,3.4h-23.8
			c0.3,2.8,1.4,5.1,3.3,6.9c1.9,1.7,4.2,2.6,6.8,2.6c1.8,0,3.5-0.4,4.9-1.3c1.4-0.9,2.6-2.1,3.3-3.6h4.9c-1.1,2.9-2.7,5.2-5,6.8
			c-2.3,1.6-5,2.4-8.1,2.4C1760.3,178.3,1757.8,177.6,1755.6,176.2z M1772.5,160.3c-0.2-2.8-1.1-5-2.9-6.8c-1.8-1.8-4-2.7-6.6-2.7
			c-2.7,0-5,0.9-6.8,2.7s-2.9,4-3.2,6.8H1772.5z"/>
		<path class="st1" d="M1788.3,177.6h-4.6v-30.5h4.6v14l13.7-14h5.9l-14.6,14.9l15.3,15.6h-5.9l-14.3-14.6V177.6z"/>
		<path class="st1" d="M1824.3,177.6h-4.6v-26.2h-10.4v-4.3h25.3v4.3h-10.4V177.6z"/>
		<path class="st1" d="M1844,176.2c-2.2-1.3-4-3.2-5.3-5.6s-1.9-5.1-1.9-8.2c0-3.1,0.6-5.8,1.9-8.2c1.3-2.4,3-4.3,5.3-5.6
			c2.2-1.3,4.7-2,7.4-2c2.7,0,5.2,0.7,7.4,2c2.2,1.3,4,3.2,5.3,5.6c1.3,2.4,1.9,5.1,1.9,8.2c0,3.1-0.6,5.8-1.9,8.2
			c-1.3,2.4-3,4.3-5.3,5.6c-2.2,1.3-4.7,2-7.4,2C1848.7,178.3,1846.2,177.6,1844,176.2z M1856.5,172.6c1.5-1,2.8-2.3,3.7-4.1
			c0.9-1.8,1.3-3.8,1.3-6.1c0-2.3-0.4-4.3-1.3-6.1c-0.9-1.8-2.1-3.1-3.7-4.1c-1.5-1-3.2-1.4-5.1-1.4s-3.5,0.5-5.1,1.4
			c-1.5,1-2.8,2.3-3.7,4.1c-0.9,1.8-1.3,3.8-1.3,6.1c0,2.3,0.4,4.3,1.3,6.1c0.9,1.8,2.1,3.1,3.7,4.1c1.5,1,3.2,1.4,5.1,1.4
			S1855,173.5,1856.5,172.6z"/>
		<path class="st1" d="M1872.8,189.8v-42.7h4l0.6,4.3h0.3c1.3-1.6,2.7-2.8,4.3-3.6c1.6-0.8,3.4-1.3,5.5-1.3c2.6,0,5,0.7,7.2,2
			c2.1,1.3,3.8,3.2,5,5.6c1.2,2.4,1.8,5.1,1.8,8.2c0,3.1-0.6,5.8-1.8,8.2c-1.2,2.4-2.9,4.3-5,5.6c-2.1,1.3-4.5,2-7.2,2
			c-2.1,0-3.9-0.4-5.5-1.3s-3-2-4.3-3.6h-0.3v16.5H1872.8z M1892,172.5c1.5-1,2.7-2.3,3.6-4.1c0.9-1.7,1.3-3.8,1.3-6
			c0-2.3-0.4-4.3-1.3-6c-0.9-1.7-2.1-3.1-3.6-4.1s-3.1-1.5-4.8-1.5c-1.7,0-3.4,0.5-4.8,1.5c-1.5,1-2.7,2.3-3.6,4.1
			c-0.9,1.7-1.3,3.8-1.3,6c0,2.3,0.4,4.3,1.3,6c0.9,1.7,2.1,3.1,3.6,4.1c1.5,1,3.1,1.5,4.8,1.5C1888.9,174,1890.5,173.5,1892,172.5z
			"/>
	</g>
</g>
<g>
	<g>
		<path class="st1" d="M1293.6,320h-4.6v-11.9h-11v-4.3h11v-11.9h4.6v11.9h11v4.3h-11V320z"/>
		<path class="st1" d="M1320.8,323.6h-5.2l15-38.1h-21.4v-4.6h26.8v4L1320.8,323.6z"/>
		<path class="st1" d="M1363.5,335.8c-2.8-4.2-5-8.7-6.4-13.5s-2.1-9.8-2.1-14.9s0.7-10.1,2.1-14.9c1.4-4.8,3.6-9.3,6.4-13.5h4.9
			c-3,4.2-5.2,8.7-6.6,13.5c-1.5,4.8-2.2,9.8-2.2,14.9c0,5.2,0.7,10.1,2.2,14.9c1.5,4.8,3.7,9.3,6.6,13.5H1363.5z"/>
		<path class="st1" d="M1380.2,323.6l10.1-15.9h-0.3c-1.3,0.4-2.6,0.6-4,0.6c-2.5,0-4.8-0.6-6.9-1.8c-2.1-1.2-3.8-2.8-5-4.9
			c-1.2-2.1-1.8-4.4-1.8-7c0-2.6,0.6-5,2-7.2c1.3-2.2,3.1-3.9,5.3-5.2c2.2-1.3,4.7-1.9,7.4-1.9c2.7,0,5.1,0.6,7.4,1.9
			c2.2,1.3,4,3,5.3,5.2c1.3,2.2,2,4.6,2,7.2c0,1.4-0.2,2.9-0.7,4.5c-0.5,1.5-1.1,2.8-1.7,3.8l-13.4,20.7H1380.2z M1391.9,303.2
			c1.5-0.9,2.7-2,3.5-3.5c0.9-1.5,1.3-3.2,1.3-4.9c0-1.8-0.4-3.4-1.3-4.9c-0.9-1.5-2-2.7-3.5-3.5c-1.5-0.9-3.2-1.3-4.9-1.3
			c-1.8,0-3.4,0.4-4.9,1.3c-1.5,0.9-2.7,2-3.5,3.5c-0.9,1.5-1.3,3.2-1.3,4.9c0,1.8,0.4,3.4,1.3,4.9c0.9,1.5,2,2.7,3.5,3.5
			c1.5,0.9,3.2,1.3,4.9,1.3C1388.7,304.4,1390.4,304,1391.9,303.2z"/>
		<path class="st1" d="M1413.8,322.6c-2.1-1.1-3.8-2.6-4.9-4.5c-1.2-1.9-1.7-3.9-1.7-6c0-2.5,0.7-4.7,2.1-6.6
			c1.4-1.8,2.9-3.1,4.6-3.8v-0.3c-1.5-0.7-2.8-1.8-4-3.5c-1.2-1.6-1.8-3.5-1.8-5.7c0-2.2,0.6-4.2,1.7-6c1.1-1.8,2.7-3.3,4.7-4.3
			s4.3-1.6,6.7-1.6s4.7,0.5,6.7,1.6c2,1,3.6,2.5,4.7,4.3c1.1,1.8,1.7,3.8,1.7,6c0,2.2-0.6,4-1.8,5.7c-1.2,1.6-2.5,2.8-4,3.5v0.3
			c1.7,0.7,3.3,2,4.6,3.8c1.4,1.9,2.1,4,2.1,6.6c0,2.1-0.6,4.1-1.7,6c-1.2,1.9-2.8,3.4-4.9,4.5c-2.1,1.1-4.6,1.7-7.4,1.7
			S1415.9,323.7,1413.8,322.6z M1427.6,317.4c1.7-1.5,2.6-3.4,2.6-5.7s-0.9-4.2-2.6-5.7c-1.7-1.5-3.9-2.3-6.5-2.3s-4.8,0.8-6.5,2.3
			c-1.7,1.5-2.6,3.4-2.6,5.7s0.9,4.2,2.6,5.7c1.7,1.5,3.9,2.3,6.5,2.3S1425.9,318.9,1427.6,317.4z M1427.1,297.4
			c1.5-1.4,2.2-3.1,2.2-5.2c0-2.1-0.7-3.8-2.2-5.2c-1.5-1.4-3.5-2.1-6-2.1s-4.5,0.7-6,2.1c-1.5,1.4-2.2,3.1-2.2,5.2
			c0,2.1,0.7,3.8,2.2,5.2c1.5,1.4,3.5,2.1,6,2.1S1425.6,298.9,1427.1,297.4z"/>
		<path class="st1" d="M1448.9,323.6v-33.5h-9.2v-4.3h7.3c1.2,0,1.8-0.6,1.8-1.8v-3.1h4.9v42.7H1448.9z"/>
		<path class="st1" d="M1461.4,335.8c3-4.2,5.2-8.7,6.6-13.5c1.5-4.8,2.2-9.7,2.2-14.9c0-5.2-0.7-10.1-2.2-14.9
			c-1.5-4.8-3.7-9.3-6.6-13.5h4.9c2.8,4.2,5,8.7,6.4,13.5c1.4,4.8,2.1,9.8,2.1,14.9s-0.7,10.1-2.1,14.9c-1.4,4.8-3.6,9.3-6.4,13.5
			H1461.4z"/>
		<path class="st1" d="M1502.5,323.6v-33.5h-9.1v-4.3h7.3c1.2,0,1.8-0.6,1.8-1.8v-3.1h4.9v42.7H1502.5z"/>
		<path class="st1" d="M1522,322.6c-2.1-1.1-3.8-2.6-4.9-4.5c-1.2-1.9-1.7-3.9-1.7-6c0-2.5,0.7-4.7,2.1-6.6c1.4-1.8,2.9-3.1,4.6-3.8
			v-0.3c-1.5-0.7-2.8-1.8-4-3.5c-1.2-1.6-1.8-3.5-1.8-5.7c0-2.2,0.6-4.2,1.7-6c1.1-1.8,2.7-3.3,4.7-4.3c2-1,4.3-1.6,6.7-1.6
			c2.5,0,4.7,0.5,6.7,1.6s3.6,2.5,4.7,4.3c1.1,1.8,1.7,3.8,1.7,6c0,2.2-0.6,4-1.8,5.7c-1.2,1.6-2.5,2.8-4,3.5v0.3
			c1.7,0.7,3.3,2,4.6,3.8c1.4,1.9,2.1,4,2.1,6.6c0,2.1-0.6,4.1-1.7,6c-1.2,1.9-2.8,3.4-4.9,4.5c-2.1,1.1-4.6,1.7-7.3,1.7
			C1526.6,324.3,1524.2,323.7,1522,322.6z M1535.9,317.4c1.7-1.5,2.6-3.4,2.6-5.7s-0.9-4.2-2.6-5.7c-1.8-1.5-3.9-2.3-6.5-2.3
			c-2.6,0-4.8,0.8-6.5,2.3c-1.8,1.5-2.6,3.4-2.6,5.7s0.9,4.2,2.6,5.7c1.7,1.5,3.9,2.3,6.5,2.3C1532,319.7,1534.2,318.9,1535.9,317.4
			z M1535.4,297.4c1.5-1.4,2.2-3.1,2.2-5.2c0-2.1-0.7-3.8-2.2-5.2c-1.5-1.4-3.5-2.1-6-2.1c-2.5,0-4.5,0.7-6,2.1
			c-1.5,1.4-2.2,3.1-2.2,5.2c0,2.1,0.7,3.8,2.2,5.2c1.5,1.4,3.5,2.1,6,2.1C1531.9,299.6,1533.9,298.9,1535.4,297.4z"/>
		<path class="st1" d="M1556.2,322.6c-2.1-1.1-3.8-2.6-4.9-4.5c-1.2-1.9-1.7-3.9-1.7-6c0-2.5,0.7-4.7,2.1-6.6
			c1.4-1.8,2.9-3.1,4.6-3.8v-0.3c-1.5-0.7-2.8-1.8-4-3.5c-1.2-1.6-1.8-3.5-1.8-5.7c0-2.2,0.6-4.2,1.7-6c1.1-1.8,2.7-3.3,4.7-4.3
			c2-1,4.3-1.6,6.7-1.6c2.5,0,4.7,0.5,6.7,1.6c2,1,3.6,2.5,4.7,4.3c1.1,1.8,1.7,3.8,1.7,6c0,2.2-0.6,4-1.8,5.7
			c-1.2,1.6-2.5,2.8-4,3.5v0.3c1.7,0.7,3.3,2,4.6,3.8c1.4,1.9,2.1,4,2.1,6.6c0,2.1-0.6,4.1-1.7,6c-1.2,1.9-2.8,3.4-4.9,4.5
			c-2.1,1.1-4.6,1.7-7.4,1.7C1560.8,324.3,1558.3,323.7,1556.2,322.6z M1570.1,317.4c1.7-1.5,2.6-3.4,2.6-5.7s-0.9-4.2-2.6-5.7
			c-1.7-1.5-3.9-2.3-6.5-2.3c-2.6,0-4.8,0.8-6.5,2.3c-1.7,1.5-2.6,3.4-2.6,5.7s0.9,4.2,2.6,5.7c1.7,1.5,3.9,2.3,6.5,2.3
			C1566.1,319.7,1568.3,318.9,1570.1,317.4z M1569.5,297.4c1.5-1.4,2.2-3.1,2.2-5.2c0-2.1-0.7-3.8-2.2-5.2c-1.5-1.4-3.5-2.1-6-2.1
			c-2.5,0-4.5,0.7-6,2.1c-1.5,1.4-2.2,3.1-2.2,5.2c0,2.1,0.7,3.8,2.2,5.2c1.5,1.4,3.5,2.1,6,2.1
			C1566.1,299.6,1568.1,298.9,1569.5,297.4z"/>
		<path class="st1" d="M1602.9,308.4h-19.5v-4.3h19.5V308.4z"/>
		<path class="st1" d="M1615.8,322.9c-2-0.9-3.7-2.3-5-4.1c-1.3-1.8-2.1-3.9-2.4-6.4h4.9c0.4,2.3,1.5,4.1,3.2,5.4c1.7,1.3,3.7,2,6,2
			c1.8,0,3.4-0.4,4.9-1.3c1.5-0.9,2.7-2.1,3.5-3.6c0.9-1.5,1.3-3.2,1.3-5.1c0-2.9-0.9-5.3-2.7-7.1c-1.8-1.8-4-2.7-6.8-2.7
			c-1.7,0-3.3,0.3-4.7,0.9c-1.4,0.6-2.6,1.5-3.5,2.7h-5.2l2.4-22.6h22.9v4.6h-18.8l-1.3,12.5h0.3c1.1-0.9,2.3-1.6,3.8-2
			c1.5-0.5,3.1-0.7,4.8-0.7c2.4,0,4.7,0.6,6.8,1.9c2.1,1.3,3.8,3,5,5.2c1.3,2.2,1.9,4.7,1.9,7.4c0,2.8-0.6,5.3-1.9,7.5
			c-1.3,2.2-3,3.9-5.2,5.2c-2.2,1.2-4.7,1.9-7.5,1.9C1620,324.3,1617.8,323.8,1615.8,322.9z"/>
		<path class="st1" d="M1649.8,322.6c-2.1-1.1-3.8-2.6-4.9-4.5c-1.2-1.9-1.7-3.9-1.7-6c0-2.5,0.7-4.7,2.1-6.6
			c1.4-1.8,2.9-3.1,4.6-3.8v-0.3c-1.5-0.7-2.8-1.8-4-3.5c-1.2-1.6-1.8-3.5-1.8-5.7c0-2.2,0.6-4.2,1.7-6c1.1-1.8,2.7-3.3,4.7-4.3
			c2-1,4.3-1.6,6.7-1.6c2.5,0,4.7,0.5,6.7,1.6c2,1,3.6,2.5,4.7,4.3c1.1,1.8,1.7,3.8,1.7,6c0,2.2-0.6,4-1.8,5.7
			c-1.2,1.6-2.5,2.8-4,3.5v0.3c1.7,0.7,3.3,2,4.6,3.8c1.4,1.9,2.1,4,2.1,6.6c0,2.1-0.6,4.1-1.7,6c-1.2,1.9-2.8,3.4-4.9,4.5
			c-2.1,1.1-4.6,1.7-7.4,1.7C1654.4,324.3,1652,323.7,1649.8,322.6z M1663.7,317.4c1.7-1.5,2.6-3.4,2.6-5.7s-0.9-4.2-2.6-5.7
			c-1.7-1.5-3.9-2.3-6.5-2.3c-2.6,0-4.8,0.8-6.5,2.3c-1.7,1.5-2.6,3.4-2.6,5.7s0.9,4.2,2.6,5.7c1.7,1.5,3.9,2.3,6.5,2.3
			C1659.8,319.7,1661.9,318.9,1663.7,317.4z M1663.2,297.4c1.5-1.4,2.2-3.1,2.2-5.2c0-2.1-0.7-3.8-2.2-5.2c-1.5-1.4-3.5-2.1-6-2.1
			c-2.5,0-4.5,0.7-6,2.1c-1.5,1.4-2.2,3.1-2.2,5.2c0,2.1,0.7,3.8,2.2,5.2c1.5,1.4,3.5,2.1,6,2.1
			C1659.7,299.6,1661.7,298.9,1663.2,297.4z"/>
		<path class="st1" d="M1696.5,308.4H1677v-4.3h19.5V308.4z"/>
		<path class="st1" d="M1710.8,321.7c-2.5-1.7-4.5-4.2-6-7.5s-2.2-7.3-2.2-11.9c0-4.6,0.7-8.5,2.2-11.9c1.5-3.3,3.5-5.8,6-7.5
			s5.3-2.6,8.3-2.6c3,0,5.8,0.9,8.3,2.6s4.5,4.2,6,7.5c1.5,3.3,2.2,7.3,2.2,11.9c0,4.6-0.7,8.5-2.2,11.9s-3.5,5.8-6,7.5
			s-5.3,2.6-8.3,2.6C1716.1,324.3,1713.3,323.4,1710.8,321.7z M1724.8,317.7c1.8-1.3,3.2-3.3,4.2-5.9c1.1-2.6,1.6-5.8,1.6-9.5
			s-0.5-6.9-1.6-9.5c-1.1-2.6-2.5-4.6-4.2-5.9c-1.8-1.3-3.7-2-5.8-2s-4,0.7-5.8,2c-1.8,1.3-3.2,3.3-4.2,5.9
			c-1.1,2.6-1.6,5.8-1.6,9.5s0.5,6.9,1.6,9.5c1.1,2.6,2.5,4.6,4.2,5.9c1.8,1.3,3.7,2,5.8,2S1723.1,319,1724.8,317.7z"/>
		<path class="st1" d="M1750.5,321.7c-2.5-1.7-4.5-4.2-6-7.5s-2.2-7.3-2.2-11.9c0-4.6,0.7-8.5,2.2-11.9c1.5-3.3,3.5-5.8,6-7.5
			s5.3-2.6,8.3-2.6c3,0,5.8,0.9,8.3,2.6s4.5,4.2,6,7.5c1.5,3.3,2.2,7.3,2.2,11.9c0,4.6-0.7,8.5-2.2,11.9s-3.5,5.8-6,7.5
			s-5.3,2.6-8.3,2.6C1755.7,324.3,1753,323.4,1750.5,321.7z M1764.5,317.7c1.8-1.3,3.2-3.3,4.2-5.9c1.1-2.6,1.6-5.8,1.6-9.5
			s-0.5-6.9-1.6-9.5c-1.1-2.6-2.5-4.6-4.2-5.9c-1.8-1.3-3.7-2-5.8-2s-4,0.7-5.8,2c-1.8,1.3-3.2,3.3-4.2,5.9
			c-1.1,2.6-1.6,5.8-1.6,9.5s0.5,6.9,1.6,9.5c1.1,2.6,2.5,4.6,4.2,5.9c1.8,1.3,3.7,2,5.8,2S1762.7,319,1764.5,317.7z"/>
		<path class="st1" d="M1285.3,399c-2-1-3.6-2.3-4.7-3.8c-1.1-1.6-1.7-3.3-1.9-5.1h4.6c0.2,1.7,1,3.1,2.7,4.3
			c1.6,1.2,3.8,1.8,6.5,1.8c2.8,0,5-0.8,6.6-2.3c1.7-1.5,2.5-3.6,2.5-6.2v-5.5h-0.3c-1.2,1.4-2.7,2.4-4.3,3.2
			c-1.7,0.7-3.5,1.1-5.4,1.1c-2.6,0-5-0.6-7.2-1.9c-2.1-1.3-3.8-3-5-5.3c-1.2-2.3-1.8-4.9-1.8-7.7c0-2.9,0.6-5.5,1.8-7.7
			c1.2-2.3,2.9-4,5-5.3s4.5-1.9,7.2-1.9c2,0,3.8,0.4,5.5,1.3c1.7,0.8,3.1,1.9,4.2,3.3h0.3l0.6-4h4v30.5c0,2.5-0.5,4.7-1.6,6.7
			c-1.1,1.9-2.7,3.4-4.8,4.5c-2.1,1.1-4.5,1.6-7.3,1.6C1289.7,400.5,1287.3,400,1285.3,399z M1296.8,380.8c1.5-0.9,2.7-2.2,3.5-3.8
			c0.9-1.6,1.3-3.5,1.3-5.6s-0.4-3.9-1.3-5.6c-0.9-1.6-2-2.9-3.5-3.8c-1.5-0.9-3.1-1.3-5-1.3s-3.5,0.4-5,1.3
			c-1.5,0.9-2.7,2.2-3.5,3.8c-0.9,1.6-1.3,3.5-1.3,5.6s0.4,3.9,1.3,5.6c0.9,1.6,2,2.9,3.5,3.8c1.5,0.9,3.1,1.3,5,1.3
			S1295.3,381.7,1296.8,380.8z"/>
		<path class="st1" d="M1314.7,387.6v-30.5h4l0.6,3h0.3c0.7-1.1,1.4-1.8,2.3-2.3c0.8-0.5,2-0.7,3.5-0.7h5.2v4.3h-4.6
			c-2.1,0-3.8,0.6-4.9,1.7s-1.8,2.8-1.8,5v19.5H1314.7z"/>
		<path class="st1" d="M1336.5,385.6c-2-1.8-3-4-3-6.8c0-3,1-5.4,3-7.2c2-1.7,5.1-2.6,9.2-2.6h8.2v-0.9c0-2.3-0.7-4.1-2-5.4
			c-1.3-1.3-3.1-2-5.4-2c-2.2,0-4,0.5-5.3,1.5c-1.4,1-2.1,2.2-2.3,3.7h-4.6c0.1-1.7,0.7-3.2,1.6-4.7c1-1.4,2.4-2.6,4.2-3.5
			c1.8-0.9,3.9-1.3,6.4-1.3c3.7,0,6.6,1,8.7,3.1c2.1,2.1,3.2,4.9,3.2,8.5v19.5h-4l-0.6-3.7h-0.3c-0.7,1.1-1.9,2.1-3.6,3
			c-1.7,0.9-3.7,1.3-5.9,1.3C1341.1,388.3,1338.5,387.4,1336.5,385.6z M1351.4,381.5c1.7-1.7,2.6-4,2.6-6.9v-1.2h-8.2
			c-2.6,0-4.5,0.5-5.8,1.5c-1.2,1-1.9,2.3-1.9,4c0,1.5,0.5,2.8,1.6,3.8c1.1,1,2.6,1.4,4.5,1.4C1347.3,384,1349.7,383.1,1351.4,381.5
			z"/>
		<path class="st1" d="M1372.2,386.2c-2.1-1.3-3.8-3.2-5-5.6c-1.2-2.4-1.8-5.1-1.8-8.2c0-3.1,0.6-5.8,1.8-8.2c1.2-2.4,2.9-4.3,5-5.6
			c2.1-1.3,4.5-2,7.2-2c2.1,0,3.9,0.4,5.5,1.3c1.6,0.8,3,2,4.3,3.6h0.3v-16.5h4.6v42.7h-4l-0.6-4.3h-0.3c-1.3,1.6-2.7,2.8-4.3,3.6
			s-3.4,1.3-5.5,1.3C1376.7,388.3,1374.3,387.6,1372.2,386.2z M1384.5,382.5c1.5-1,2.7-2.3,3.6-4.1c0.9-1.7,1.3-3.8,1.3-6
			c0-2.3-0.4-4.3-1.3-6c-0.9-1.7-2.1-3.1-3.6-4.1s-3.1-1.5-4.8-1.5c-1.7,0-3.4,0.5-4.8,1.5s-2.7,2.3-3.6,4.1c-0.9,1.7-1.3,3.8-1.3,6
			c0,2.3,0.4,4.3,1.3,6c0.9,1.7,2.1,3.1,3.6,4.1s3.1,1.5,4.8,1.5C1381.4,384,1383,383.5,1384.5,382.5z"/>
		<path class="st1" d="M1426.6,393.1c-4.8,0-9-1-12.7-3c-3.7-2-6.6-4.8-8.6-8.4c-2-3.6-3-7.6-3-12c0-4.6,1.1-8.7,3.2-12.4
			c2.1-3.7,5-6.5,8.7-8.6c3.7-2.1,7.9-3.1,12.5-3.1c5,0,9.4,1,13.2,3.1c3.8,2.1,6.8,4.9,8.9,8.5c2.1,3.6,3.2,7.5,3.2,11.9
			c0,4.5-1,7.9-2.9,10.2c-1.9,2.3-4.4,3.5-7.5,3.5c-1.7,0-3.2-0.4-4.3-1.2c-1.2-0.8-2-1.7-2.4-2.7h-0.3c-0.8,1-2,1.9-3.6,2.7
			s-3.4,1.2-5.3,1.2c-2.3,0-4.4-0.5-6.2-1.6c-1.8-1.1-3.3-2.6-4.3-4.5s-1.6-4.2-1.6-6.6c0-2.5,0.5-4.7,1.6-6.6s2.5-3.5,4.4-4.5
			c1.8-1.1,3.9-1.6,6.3-1.6c1.9,0,3.6,0.4,5,1.1c1.4,0.8,2.4,1.6,2.9,2.5h0.3l0.6-3h4v17.4c0,1.1,0.3,1.9,0.8,2.5
			c0.5,0.6,1.3,0.9,2.2,0.9c3.9,0,5.8-3.2,5.8-9.5c0-3.7-0.9-6.9-2.6-9.9s-4.2-5.2-7.3-6.9c-3.1-1.7-6.8-2.5-10.9-2.5
			c-3.8,0-7.2,0.8-10.2,2.5c-3,1.7-5.4,4-7,7c-1.7,3-2.5,6.4-2.5,10.2c0,3.7,0.8,7.1,2.5,10c1.6,2.9,4,5.2,7,6.8s6.5,2.4,10.4,2.4
			h12.5v4.3H1426.6z M1431.7,376.1c1.5-1.6,2.2-3.6,2.2-6.2c0-2.6-0.7-4.6-2.2-6.2c-1.5-1.6-3.4-2.3-5.7-2.3c-2.3,0-4.2,0.8-5.7,2.3
			c-1.5,1.6-2.2,3.6-2.2,6.2c0,2.6,0.7,4.6,2.2,6.2s3.4,2.3,5.7,2.3C1428.3,378.5,1430.2,377.7,1431.7,376.1z"/>
		<path class="st1" d="M1464.6,386.2c-2.2-1.3-4-3.2-5.3-5.6s-1.9-5.1-1.9-8.2c0-3.1,0.6-5.8,1.9-8.2c1.3-2.4,3-4.3,5.3-5.6
			c2.2-1.3,4.7-2,7.4-2c2.6,0,5,0.6,7.1,1.9c2.2,1.3,3.8,3,5.1,5.2c1.2,2.2,1.8,4.7,1.8,7.5c0,1.6-0.1,2.7-0.3,3.4H1462
			c0.3,2.8,1.4,5.1,3.3,6.9c1.9,1.7,4.2,2.6,6.8,2.6c1.8,0,3.5-0.4,4.9-1.3c1.4-0.9,2.6-2.1,3.3-3.6h4.9c-1.1,2.9-2.7,5.2-5,6.8
			c-2.3,1.6-5,2.4-8.1,2.4C1469.3,388.3,1466.8,387.6,1464.6,386.2z M1481.5,370.3c-0.2-2.8-1.1-5-2.9-6.8c-1.8-1.8-4-2.7-6.6-2.7
			c-2.7,0-5,0.9-6.8,2.7s-2.9,4-3.2,6.8H1481.5z"/>
		<path class="st1" d="M1497.7,387.6h-4.6v-42.7h4.6V387.6z"/>
		<path class="st1" d="M1514.1,387.6c-1.7,0-3-0.5-4-1.4c-1-1-1.5-2.2-1.5-3.8v-21h-4.9v-4.3h4.9v-8.5h4.6v8.5h7v4.3h-7v20.1
			c0,1.2,0.6,1.8,1.8,1.8h5.2v4.3H1514.1z"/>
		<path class="st1" d="M1527.8,385.6c-2-1.8-3-4-3-6.8c0-3,1-5.4,3-7.2c2-1.7,5.1-2.6,9.2-2.6h8.2v-0.9c0-2.3-0.7-4.1-2-5.4
			c-1.3-1.3-3.1-2-5.4-2c-2.2,0-4,0.5-5.3,1.5c-1.4,1-2.1,2.2-2.3,3.7h-4.6c0.1-1.7,0.7-3.2,1.6-4.7c1-1.4,2.4-2.6,4.2-3.5
			c1.8-0.9,3.9-1.3,6.4-1.3c3.7,0,6.6,1,8.7,3.1s3.2,4.9,3.2,8.5v19.5h-4l-0.6-3.7h-0.3c-0.7,1.1-1.9,2.1-3.6,3s-3.7,1.3-5.9,1.3
			C1532.3,388.3,1529.7,387.4,1527.8,385.6z M1542.6,381.5c1.7-1.7,2.6-4,2.6-6.9v-1.2h-8.2c-2.6,0-4.5,0.5-5.8,1.5
			c-1.2,1-1.9,2.3-1.9,4c0,1.5,0.5,2.8,1.6,3.8c1.1,1,2.6,1.4,4.5,1.4C1538.5,384,1540.9,383.1,1542.6,381.5z"/>
		<path class="st1" d="M1576.3,372.4h-19.5v-4.3h19.5V372.4z"/>
		<path class="st1" d="M1586.7,386.9c-1.9-0.9-3.3-2-4.3-3.5c-1-1.4-1.5-3-1.5-4.7h4.6c0,1.4,0.7,2.6,2,3.7s3.2,1.5,5.6,1.5
			c2.3,0,4.1-0.4,5.4-1.3c1.3-0.9,1.9-2,1.9-3.3c0-1.2-0.4-2.2-1.3-3c-0.8-0.8-2.1-1.3-3.9-1.6l-5.2-0.9c-5.7-1-8.5-3.8-8.5-8.5
			c0-2.6,1-4.7,2.9-6.3c1.9-1.7,4.7-2.5,8.4-2.5c2.4,0,4.4,0.4,6.3,1.3c1.8,0.9,3.2,2,4.2,3.5c1,1.5,1.5,3,1.5,4.6h-4.6
			c0-1.4-0.7-2.6-2-3.7c-1.3-1-3.1-1.5-5.3-1.5c-2.2,0-3.8,0.4-5,1.3c-1.2,0.9-1.7,2-1.7,3.3c0,1.1,0.4,2.1,1.1,2.7
			c0.8,0.7,2,1.2,3.8,1.5l5.2,0.9c3,0.5,5.3,1.5,6.7,3c1.4,1.5,2.1,3.4,2.1,5.9c0,2.6-1,4.7-3.1,6.3c-2.1,1.7-5,2.5-8.8,2.5
			C1590.7,388.3,1588.5,387.8,1586.7,386.9z"/>
		<path class="st1" d="M1611.4,399.8v-42.7h4l0.6,4.3h0.3c1.3-1.6,2.7-2.8,4.3-3.6c1.6-0.8,3.4-1.3,5.5-1.3c2.6,0,5,0.7,7.2,2
			c2.1,1.3,3.8,3.2,5,5.6c1.2,2.4,1.8,5.1,1.8,8.2c0,3.1-0.6,5.8-1.8,8.2c-1.2,2.4-2.9,4.3-5,5.6c-2.1,1.3-4.5,2-7.2,2
			c-2.1,0-3.9-0.4-5.5-1.3s-3-2-4.3-3.6h-0.3v16.5H1611.4z M1630.6,382.5c1.5-1,2.7-2.3,3.6-4.1c0.9-1.7,1.3-3.8,1.3-6
			c0-2.3-0.4-4.3-1.3-6c-0.9-1.7-2.1-3.1-3.6-4.1s-3.1-1.5-4.8-1.5c-1.7,0-3.4,0.5-4.8,1.5c-1.5,1-2.7,2.3-3.6,4.1
			c-0.9,1.7-1.3,3.8-1.3,6c0,2.3,0.4,4.3,1.3,6c0.9,1.7,2.1,3.1,3.6,4.1c1.5,1,3.1,1.5,4.8,1.5
			C1627.5,384,1629.1,383.5,1630.6,382.5z"/>
		<path class="st1" d="M1656.3,387c-1.6-0.8-3-2-4.3-3.6h-0.3l-0.6,4.3h-4v-42.7h4.6v16.5h0.3c1.3-1.6,2.7-2.8,4.3-3.6
			c1.6-0.8,3.4-1.3,5.5-1.3c2.6,0,5,0.7,7.2,2c2.1,1.3,3.8,3.2,5,5.6c1.2,2.4,1.8,5.1,1.8,8.2c0,3.1-0.6,5.8-1.8,8.2s-2.9,4.3-5,5.6
			c-2.1,1.3-4.5,2-7.2,2C1659.7,388.3,1657.8,387.8,1656.3,387z M1666.3,382.5c1.5-1,2.7-2.3,3.6-4.1c0.9-1.7,1.3-3.8,1.3-6
			c0-2.3-0.4-4.3-1.3-6c-0.9-1.7-2.1-3.1-3.6-4.1c-1.5-1-3.1-1.5-4.8-1.5c-1.7,0-3.4,0.5-4.8,1.5c-1.5,1-2.7,2.3-3.6,4.1
			c-0.9,1.7-1.3,3.8-1.3,6c0,2.3,0.4,4.3,1.3,6c0.9,1.7,2.1,3.1,3.6,4.1c1.5,1,3.1,1.5,4.8,1.5
			C1663.2,384,1664.8,383.5,1666.3,382.5z"/>
		<path class="st1" d="M1687.4,387.6h-5.5v-5.5h5.5V387.6z"/>
		<path class="st1" d="M1700.7,386.2c-2.2-1.3-4-3.2-5.3-5.6s-1.9-5.1-1.9-8.2c0-3.1,0.6-5.8,1.9-8.2c1.3-2.4,3-4.3,5.3-5.6
			c2.2-1.3,4.7-2,7.4-2c3.4,0,6.3,0.9,8.7,2.8c2.4,1.9,4,4.4,4.8,7.6h-4.6c-0.6-2-1.7-3.5-3.3-4.5c-1.6-1.1-3.4-1.6-5.6-1.6
			c-1.8,0-3.5,0.5-5.1,1.4c-1.5,1-2.8,2.3-3.7,4.1c-0.9,1.8-1.3,3.8-1.3,6.1c0,2.3,0.4,4.3,1.3,6.1c0.9,1.8,2.1,3.1,3.7,4.1
			c1.5,1,3.2,1.4,5.1,1.4c2.2,0,4.1-0.5,5.6-1.6c1.5-1.1,2.6-2.7,3.2-4.8h4.6c-0.8,3.3-2.4,5.9-4.8,7.8c-2.4,1.9-5.3,2.8-8.7,2.8
			C1705.4,388.3,1702.9,387.6,1700.7,386.2z"/>
		<path class="st1" d="M1733.3,386.2c-2.2-1.3-4-3.2-5.3-5.6s-1.9-5.1-1.9-8.2c0-3.1,0.6-5.8,1.9-8.2c1.3-2.4,3-4.3,5.3-5.6
			c2.2-1.3,4.7-2,7.4-2c2.7,0,5.2,0.7,7.4,2c2.2,1.3,4,3.2,5.3,5.6c1.3,2.4,1.9,5.1,1.9,8.2c0,3.1-0.6,5.8-1.9,8.2
			c-1.3,2.4-3,4.3-5.3,5.6c-2.2,1.3-4.7,2-7.4,2C1738,388.3,1735.5,387.6,1733.3,386.2z M1745.8,382.6c1.5-1,2.8-2.3,3.7-4.1
			c0.9-1.8,1.3-3.8,1.3-6.1c0-2.3-0.4-4.3-1.3-6.1c-0.9-1.8-2.1-3.1-3.7-4.1c-1.5-1-3.2-1.4-5.1-1.4s-3.5,0.5-5.1,1.4
			c-1.5,1-2.8,2.3-3.7,4.1c-0.9,1.8-1.3,3.8-1.3,6.1c0,2.3,0.4,4.3,1.3,6.1c0.9,1.8,2.1,3.1,3.7,4.1c1.5,1,3.2,1.4,5.1,1.4
			S1744.3,383.5,1745.8,382.6z"/>
		<path class="st1" d="M1762.1,387.6v-30.5h4l0.6,3.4h0.3c0.8-1,1.9-1.9,3.4-2.7c1.4-0.8,2.9-1.2,4.6-1.2c2.2,0,4,0.5,5.6,1.6
			c1.6,1.1,2.7,2.3,3.3,3.6h0.3c0.9-1.3,2.2-2.5,4-3.6c1.8-1.1,3.8-1.6,6.1-1.6c2.1,0,4,0.5,5.7,1.5c1.7,1,3,2.4,3.9,4.2
			c0.9,1.8,1.4,3.8,1.4,6.2v19.2h-4.6v-19.2c0-2.3-0.6-4.1-1.9-5.5s-3-2.1-5.1-2.1c-1.3,0-2.5,0.3-3.7,1c-1.2,0.7-2.1,1.6-2.8,2.8
			c-0.7,1.2-1.1,2.5-1.1,3.8v19.2h-4.6v-19.2c0-2.3-0.6-4.1-1.9-5.5s-3-2.1-5.1-2.1c-1.3,0-2.5,0.3-3.7,1c-1.2,0.7-2.1,1.6-2.8,2.8
			c-0.7,1.2-1.1,2.5-1.1,3.8v19.2H1762.1z"/>
	</g>
</g>
<g>
	<g>
		<path class="st1" d="M1288.2,1151c-3.1-1.8-5.6-4.4-7.4-7.8c-1.8-3.3-2.7-7.1-2.7-11.4c0-4.3,0.9-8.1,2.7-11.4
			c1.8-3.3,4.3-5.9,7.4-7.8c3.1-1.8,6.6-2.8,10.3-2.8c4.6,0,8.6,1.3,12,3.8c3.4,2.6,5.7,6.1,6.9,10.5h-5.2c-1.1-3.1-2.8-5.4-5.2-7.2
			c-2.4-1.7-5.3-2.6-8.5-2.6c-2.8,0-5.5,0.7-7.8,2.2s-4.3,3.5-5.6,6.2c-1.4,2.6-2.1,5.7-2.1,9s0.7,6.4,2.1,9
			c1.4,2.6,3.3,4.7,5.6,6.2s5,2.2,7.8,2.2c3.2,0,6-0.9,8.5-2.7c2.4-1.8,4.2-4.2,5.2-7.4h5.2c-1.2,4.6-3.5,8.1-6.9,10.7
			c-3.4,2.6-7.4,3.9-12,3.9C1294.8,1153.7,1291.3,1152.8,1288.2,1151z"/>
		<path class="st1" d="M1325.5,1151.1c-2-1.8-3-4-3-6.8c0-3,1-5.4,3-7.2c2-1.7,5.1-2.6,9.2-2.6h8.2v-0.9c0-2.3-0.7-4.1-2-5.4
			c-1.3-1.3-3.1-2-5.4-2c-2.2,0-4,0.5-5.3,1.5c-1.4,1-2.1,2.2-2.3,3.7h-4.6c0.1-1.7,0.7-3.2,1.6-4.7c1-1.4,2.4-2.6,4.2-3.5
			c1.8-0.9,3.9-1.3,6.4-1.3c3.7,0,6.6,1,8.7,3.1c2.1,2.1,3.2,4.9,3.2,8.5v19.5h-4l-0.6-3.7h-0.3c-0.7,1.1-1.9,2.1-3.6,3
			c-1.7,0.9-3.7,1.3-5.9,1.3C1330.1,1153.7,1327.5,1152.9,1325.5,1151.1z M1340.4,1146.9c1.7-1.7,2.6-4,2.6-6.9v-1.2h-8.2
			c-2.6,0-4.5,0.5-5.8,1.5c-1.2,1-1.9,2.3-1.9,4c0,1.5,0.5,2.8,1.6,3.8c1.1,1,2.6,1.4,4.5,1.4
			C1336.3,1149.5,1338.7,1148.6,1340.4,1146.9z"/>
		<path class="st1" d="M1360.7,1153.1h-4.6v-30.5h4.6v13.1h16.2v-13.1h4.6v30.5h-4.6V1140h-16.2V1153.1z"/>
		<path class="st1" d="M1394.6,1153.1h-4.6v-30.5h4.6v14l13.7-14h5.9l-14.6,14.9l15.3,15.6h-5.9l-14.3-14.6V1153.1z"/>
		<path class="st1" d="M1430.6,1153.1h-4.6v-26.2h-10.4v-4.3h25.3v4.3h-10.4V1153.1z"/>
		<path class="st1" d="M1462.9,1137.9h-19.5v-4.3h19.5V1137.9z"/>
		<path class="st1" d="M1475.4,1153.1h-4.9v-42.7h33.5v42.7h-4.9V1115h-23.8V1153.1z"/>
		<path class="st1" d="M1518.6,1151.7c-2.2-1.3-4-3.2-5.3-5.6c-1.3-2.4-1.9-5.1-1.9-8.2c0-3.1,0.6-5.8,1.9-8.2s3-4.3,5.3-5.6
			c2.2-1.3,4.7-2,7.4-2c2.6,0,5,0.6,7.1,1.9c2.2,1.3,3.8,3,5.1,5.2c1.2,2.2,1.8,4.7,1.8,7.5c0,1.6-0.1,2.7-0.3,3.4H1516
			c0.3,2.8,1.4,5.1,3.3,6.9c1.9,1.7,4.2,2.6,6.8,2.6c1.8,0,3.5-0.4,4.9-1.3c1.4-0.9,2.6-2.1,3.3-3.6h4.9c-1.1,2.9-2.7,5.2-5,6.8
			c-2.3,1.6-5,2.4-8.1,2.4C1523.3,1153.7,1520.8,1153.1,1518.6,1151.7z M1535.5,1135.7c-0.2-2.8-1.1-5-2.9-6.8
			c-1.8-1.8-4-2.7-6.6-2.7c-2.7,0-5,0.9-6.8,2.7s-2.9,4-3.2,6.8H1535.5z"/>
		<path class="st1" d="M1557.1,1153.1h-4.6v-26.2h-10.4v-4.3h25.3v4.3h-10.4V1153.1z"/>
		<path class="st1" d="M1576.8,1151.7c-2.2-1.3-4-3.2-5.3-5.6c-1.3-2.4-1.9-5.1-1.9-8.2c0-3.1,0.6-5.8,1.9-8.2s3-4.3,5.3-5.6
			c2.2-1.3,4.7-2,7.4-2c2.6,0,5,0.6,7.1,1.9c2.2,1.3,3.8,3,5.1,5.2c1.2,2.2,1.8,4.7,1.8,7.5c0,1.6-0.1,2.7-0.3,3.4h-23.8
			c0.3,2.8,1.4,5.1,3.3,6.9c1.9,1.7,4.2,2.6,6.8,2.6c1.8,0,3.5-0.4,4.9-1.3c1.4-0.9,2.6-2.1,3.3-3.6h4.9c-1.1,2.9-2.7,5.2-5,6.8
			c-2.3,1.6-5,2.4-8.1,2.4C1581.6,1153.7,1579.1,1153.1,1576.8,1151.7z M1593.7,1135.7c-0.2-2.8-1.1-5-2.9-6.8
			c-1.8-1.8-4-2.7-6.6-2.7c-2.7,0-5,0.9-6.8,2.7s-2.9,4-3.2,6.8H1593.7z"/>
		<path class="st1" d="M1605,1165.3v-42.7h4l0.6,4.3h0.3c1.3-1.6,2.7-2.8,4.3-3.6c1.6-0.8,3.4-1.3,5.5-1.3c2.6,0,5,0.7,7.2,2
			c2.1,1.3,3.8,3.2,5,5.6s1.8,5.1,1.8,8.2c0,3.1-0.6,5.8-1.8,8.2c-1.2,2.4-2.9,4.3-5,5.6c-2.1,1.3-4.5,2-7.2,2
			c-2.1,0-3.9-0.4-5.5-1.3s-3-2-4.3-3.6h-0.3v16.5H1605z M1624.2,1148c1.5-1,2.7-2.3,3.6-4.1c0.9-1.7,1.3-3.8,1.3-6s-0.4-4.3-1.3-6
			c-0.9-1.7-2.1-3.1-3.6-4.1c-1.5-1-3.1-1.5-4.8-1.5c-1.7,0-3.4,0.5-4.8,1.5c-1.5,1-2.7,2.3-3.6,4.1c-0.9,1.7-1.3,3.8-1.3,6
			s0.4,4.3,1.3,6c0.9,1.7,2.1,3.1,3.6,4.1c1.5,1,3.1,1.5,4.8,1.5C1621.1,1149.5,1622.7,1149,1624.2,1148z"/>
		<path class="st1" d="M1645.9,1151.8c-2.2-1.3-3.9-3.2-5.1-5.6c-1.2-2.4-1.9-5.2-1.9-8.4v-1.8c0-5.3,0.6-9.5,2-12.7
			c1.3-3.2,3.5-5.7,6.6-7.4c1.4-0.8,2.8-1.3,4.4-1.7c1.5-0.4,3.5-0.7,5.9-0.9c1.4-0.2,2.4-0.6,3.1-1.3c0.6-0.7,1-1.7,1-3.1h4
			c0,2.6-0.7,4.5-1.9,5.9c-1.2,1.4-3.2,2.2-5.8,2.5c-1.8,0.2-3.4,0.4-4.8,0.8c-1.4,0.3-2.6,0.8-3.7,1.5c-3.5,2.1-5.6,5.5-6.1,10.1
			h0.3c2.4-3.3,5.8-4.9,10.1-4.9c2.5,0,4.8,0.6,6.9,1.9c2.1,1.2,3.8,3,5,5.2c1.2,2.2,1.8,4.6,1.8,7.3c0,2.8-0.6,5.3-1.9,7.5
			c-1.2,2.2-2.9,4-5.1,5.2c-2.2,1.3-4.6,1.9-7.4,1.9C1650.5,1153.7,1648,1153.1,1645.9,1151.8z M1658.2,1148.2
			c1.5-0.9,2.7-2.1,3.5-3.7c0.9-1.6,1.3-3.4,1.3-5.4s-0.4-3.8-1.3-5.4c-0.9-1.6-2-2.8-3.5-3.7s-3.1-1.3-5-1.3s-3.5,0.4-5,1.3
			c-1.5,0.9-2.7,2.1-3.5,3.7c-0.9,1.6-1.3,3.4-1.3,5.4s0.4,3.8,1.3,5.4c0.9,1.6,2,2.8,3.5,3.7c1.5,0.9,3.1,1.3,5,1.3
			S1656.7,1149,1658.2,1148.2z"/>
		<path class="st1" d="M1694.1,1122.6h4.9l-13.7,38.4c-0.5,1.5-1.2,2.5-2.1,3.2c-0.9,0.7-2.1,1-3.7,1h-6.1v-4.3h5.8
			c1,0,1.7-0.6,2.1-1.8l1.2-3.7l-12.5-32.9h4.9l9.5,25.3h1.2L1694.1,1122.6z"/>
		<path class="st1" d="M1703.8,1165.3v-42.7h4l0.6,4.3h0.3c1.3-1.6,2.7-2.8,4.3-3.6c1.6-0.8,3.4-1.3,5.5-1.3c2.6,0,5,0.7,7.2,2
			c2.1,1.3,3.8,3.2,5,5.6c1.2,2.4,1.8,5.1,1.8,8.2c0,3.1-0.6,5.8-1.8,8.2c-1.2,2.4-2.9,4.3-5,5.6c-2.1,1.3-4.5,2-7.2,2
			c-2.1,0-3.9-0.4-5.5-1.3s-3-2-4.3-3.6h-0.3v16.5H1703.8z M1723,1148c1.5-1,2.7-2.3,3.6-4.1c0.9-1.7,1.3-3.8,1.3-6s-0.4-4.3-1.3-6
			c-0.9-1.7-2.1-3.1-3.6-4.1s-3.1-1.5-4.8-1.5c-1.7,0-3.4,0.5-4.8,1.5s-2.7,2.3-3.6,4.1c-0.9,1.7-1.3,3.8-1.3,6s0.4,4.3,1.3,6
			c0.9,1.7,2.1,3.1,3.6,4.1s3.1,1.5,4.8,1.5C1719.9,1149.5,1721.5,1149,1723,1148z"/>
		<path class="st1" d="M1743.8,1153.1h-4.6v-30.5h19.5v4.3h-14.9V1153.1z"/>
		<path class="st1" d="M1763,1158h-4l1.2-10.4h5.5L1763,1158z"/>
		<path class="st1" d="M1283.9,1217.1h-4.6v-30.5h25.3v30.5h-4.6v-26.2h-16.2V1217.1z"/>
		<path class="st1" d="M1313.1,1229.3v-42.7h4l0.6,4.3h0.3c1.3-1.6,2.7-2.8,4.3-3.6c1.6-0.8,3.4-1.3,5.5-1.3c2.6,0,5,0.7,7.2,2
			c2.1,1.3,3.8,3.2,5,5.6c1.2,2.4,1.8,5.1,1.8,8.2c0,3.1-0.6,5.8-1.8,8.2c-1.2,2.4-2.9,4.3-5,5.6c-2.1,1.3-4.5,2-7.2,2
			c-2.1,0-3.9-0.4-5.5-1.3s-3-2-4.3-3.6h-0.3v16.5H1313.1z M1332.3,1212c1.5-1,2.7-2.3,3.6-4.1c0.9-1.7,1.3-3.8,1.3-6
			s-0.4-4.3-1.3-6c-0.9-1.7-2.1-3.1-3.6-4.1s-3.1-1.5-4.8-1.5c-1.7,0-3.4,0.5-4.8,1.5s-2.7,2.3-3.6,4.1c-0.9,1.7-1.3,3.8-1.3,6
			s0.4,4.3,1.3,6c0.9,1.7,2.1,3.1,3.6,4.1s3.1,1.5,4.8,1.5C1329.2,1213.5,1330.8,1213,1332.3,1212z"/>
		<path class="st1" d="M1353.9,1215.7c-2.2-1.3-4-3.2-5.3-5.6c-1.3-2.4-1.9-5.1-1.9-8.2c0-3.1,0.6-5.8,1.9-8.2
			c1.3-2.4,3-4.3,5.3-5.6c2.2-1.3,4.7-2,7.4-2s5.2,0.7,7.4,2c2.2,1.3,4,3.2,5.3,5.6s1.9,5.1,1.9,8.2c0,3.1-0.6,5.8-1.9,8.2
			c-1.3,2.4-3,4.3-5.3,5.6c-2.2,1.3-4.7,2-7.4,2S1356.1,1217.1,1353.9,1215.7z M1366.4,1212c1.5-1,2.8-2.3,3.7-4.1
			c0.9-1.8,1.3-3.8,1.3-6.1s-0.4-4.3-1.3-6.1c-0.9-1.8-2.1-3.1-3.7-4.1c-1.5-1-3.2-1.4-5.1-1.4s-3.5,0.5-5.1,1.4
			c-1.5,1-2.8,2.3-3.7,4.1c-0.9,1.8-1.3,3.8-1.3,6.1s0.4,4.3,1.3,6.1c0.9,1.8,2.1,3.1,3.7,4.1c1.5,1,3.2,1.4,5.1,1.4
			S1364.8,1213,1366.4,1212z"/>
		<path class="st1" d="M1388,1215.7c-2.2-1.3-4-3.2-5.3-5.6c-1.3-2.4-1.9-5.1-1.9-8.2c0-3.1,0.6-5.8,1.9-8.2s3-4.3,5.3-5.6
			c2.2-1.3,4.7-2,7.4-2c3.4,0,6.3,0.9,8.7,2.8c2.4,1.9,4,4.4,4.8,7.6h-4.6c-0.6-2-1.7-3.5-3.3-4.5c-1.6-1.1-3.4-1.6-5.6-1.6
			c-1.8,0-3.5,0.5-5.1,1.4c-1.5,1-2.8,2.3-3.7,4.1s-1.3,3.8-1.3,6.1s0.4,4.3,1.3,6.1s2.1,3.1,3.7,4.1c1.5,1,3.2,1.4,5.1,1.4
			c2.2,0,4.1-0.5,5.6-1.6c1.5-1.1,2.6-2.7,3.2-4.8h4.6c-0.8,3.3-2.4,5.9-4.8,7.8c-2.4,1.9-5.3,2.8-8.7,2.8
			C1392.8,1217.7,1390.3,1217.1,1388,1215.7z"/>
		<path class="st1" d="M1419.9,1217.1h-4.6v-30.5h25.3v30.5h-4.6v-26.2h-16.2V1217.1z"/>
		<path class="st1" d="M1454.5,1215.7c-2.2-1.3-4-3.2-5.3-5.6c-1.3-2.4-1.9-5.1-1.9-8.2c0-3.1,0.6-5.8,1.9-8.2
			c1.3-2.4,3-4.3,5.3-5.6c2.2-1.3,4.7-2,7.4-2c2.6,0,5,0.6,7.1,1.9c2.2,1.3,3.8,3,5.1,5.2c1.2,2.2,1.8,4.7,1.8,7.5
			c0,1.6-0.1,2.7-0.3,3.4h-23.8c0.3,2.8,1.4,5.1,3.3,6.9c1.9,1.7,4.2,2.6,6.8,2.6c1.8,0,3.5-0.4,4.9-1.3c1.4-0.9,2.6-2.1,3.3-3.6
			h4.9c-1.1,2.9-2.7,5.2-5,6.8s-5,2.4-8.1,2.4C1459.2,1217.7,1456.8,1217.1,1454.5,1215.7z M1471.4,1199.7c-0.2-2.8-1.1-5-2.9-6.8
			c-1.8-1.8-4-2.7-6.6-2.7c-2.7,0-5,0.9-6.8,2.7s-2.9,4-3.2,6.8H1471.4z"/>
		<path class="st1" d="M1487.3,1217.1h-4.6v-30.5h4.6v14l13.7-14h5.9l-14.6,14.9l15.3,15.6h-5.9l-14.3-14.6V1217.1z"/>
		<path class="st1" d="M1523.3,1217.1h-4.6v-26.2h-10.4v-4.3h25.3v4.3h-10.4V1217.1z"/>
		<path class="st1" d="M1548,1217.4v-4.9h2.1c1.3,0,2.3-0.4,3.1-1.2c0.8-0.8,1.3-2,1.5-3.7l2.7-33.2h26.5v42.7h-4.9V1179H1562
			l-2.4,28.7c-0.3,3.3-1.2,5.8-2.7,7.4c-1.5,1.6-3.8,2.4-6.7,2.4H1548z"/>
		<path class="st1" d="M1613.6,1186.6h4.9l-13.7,38.4c-0.5,1.5-1.2,2.5-2.1,3.2c-0.9,0.7-2.1,1-3.7,1h-6.1v-4.3h5.8
			c1,0,1.7-0.6,2.1-1.8l1.2-3.7l-12.5-32.9h4.9l9.5,25.3h1.2L1613.6,1186.6z"/>
		<path class="st1" d="M1627.9,1217.1h-4.6v-30.5h4.6v13.1h16.2v-13.1h4.6v30.5h-4.6V1204h-16.2V1217.1z"/>
		<path class="st1" d="M1658.9,1215.1c-2-1.8-3-4-3-6.8c0-3,1-5.4,3-7.2c2-1.7,5.1-2.6,9.2-2.6h8.2v-0.9c0-2.3-0.7-4.1-2-5.4
			c-1.3-1.3-3.1-2-5.4-2c-2.2,0-4,0.5-5.3,1.5c-1.4,1-2.1,2.2-2.3,3.7h-4.6c0.1-1.7,0.7-3.2,1.6-4.7c1-1.4,2.4-2.6,4.2-3.5
			c1.8-0.9,3.9-1.3,6.4-1.3c3.7,0,6.6,1,8.7,3.1c2.1,2.1,3.2,4.9,3.2,8.5v19.5h-4l-0.6-3.7h-0.3c-0.7,1.1-1.9,2.1-3.6,3
			c-1.7,0.9-3.7,1.3-5.9,1.3C1663.5,1217.7,1660.9,1216.9,1658.9,1215.1z M1673.8,1210.9c1.7-1.7,2.6-4,2.6-6.9v-1.2h-8.2
			c-2.6,0-4.5,0.5-5.8,1.5c-1.2,1-1.9,2.3-1.9,4c0,1.5,0.5,2.8,1.6,3.8c1.1,1,2.6,1.4,4.5,1.4
			C1669.7,1213.5,1672.1,1212.6,1673.8,1210.9z"/>
		<path class="st1" d="M1707.5,1205.2c-1.3,0.9-2.7,1.5-4.1,1.9c-1.4,0.4-3,0.5-4.7,0.5c-3.7,0-6.4-1-8.2-2.9
			c-1.8-2-2.7-4.8-2.7-8.7v-9.5h4.6v9.5c0,2.4,0.6,4.3,1.8,5.5c1.2,1.2,2.9,1.8,5.2,1.8c1.6,0,3.1-0.2,4.4-0.7
			c1.3-0.4,2.6-1.1,3.8-2.1v-14h4.6v30.5h-4.6V1205.2z"/>
		<path class="st1" d="M1722.3,1215.1c-2-1.8-3-4-3-6.8c0-3,1-5.4,3-7.2c2-1.7,5.1-2.6,9.2-2.6h8.2v-0.9c0-2.3-0.7-4.1-2-5.4
			c-1.3-1.3-3.1-2-5.4-2c-2.2,0-4,0.5-5.3,1.5c-1.4,1-2.1,2.2-2.3,3.7h-4.6c0.1-1.7,0.7-3.2,1.6-4.7c1-1.4,2.4-2.6,4.2-3.5
			c1.8-0.9,3.9-1.3,6.4-1.3c3.7,0,6.6,1,8.7,3.1c2.1,2.1,3.2,4.9,3.2,8.5v19.5h-4l-0.6-3.7h-0.3c-0.7,1.1-1.9,2.1-3.6,3
			c-1.7,0.9-3.7,1.3-5.9,1.3C1726.9,1217.7,1724.3,1216.9,1722.3,1215.1z M1737.2,1210.9c1.7-1.7,2.6-4,2.6-6.9v-1.2h-8.2
			c-2.6,0-4.5,0.5-5.8,1.5c-1.2,1-1.9,2.3-1.9,4c0,1.5,0.5,2.8,1.6,3.8c1.1,1,2.6,1.4,4.5,1.4
			C1733.1,1213.5,1735.5,1212.6,1737.2,1210.9z"/>
		<path class="st1" d="M1752.9,1229.3v-42.7h4l0.6,4.3h0.3c1.3-1.6,2.7-2.8,4.3-3.6c1.6-0.8,3.4-1.3,5.5-1.3c2.6,0,5,0.7,7.2,2
			c2.1,1.3,3.8,3.2,5,5.6s1.8,5.1,1.8,8.2c0,3.1-0.6,5.8-1.8,8.2c-1.2,2.4-2.9,4.3-5,5.6c-2.1,1.3-4.5,2-7.2,2
			c-2.1,0-3.9-0.4-5.5-1.3s-3-2-4.3-3.6h-0.3v16.5H1752.9z M1772.1,1212c1.5-1,2.7-2.3,3.6-4.1c0.9-1.7,1.3-3.8,1.3-6
			s-0.4-4.3-1.3-6c-0.9-1.7-2.1-3.1-3.6-4.1c-1.5-1-3.1-1.5-4.8-1.5c-1.7,0-3.4,0.5-4.8,1.5c-1.5,1-2.7,2.3-3.6,4.1
			c-0.9,1.7-1.3,3.8-1.3,6s0.4,4.3,1.3,6c0.9,1.7,2.1,3.1,3.6,4.1c1.5,1,3.1,1.5,4.8,1.5C1769,1213.5,1770.6,1213,1772.1,1212z"/>
		<path class="st1" d="M1793.7,1215.7c-2.2-1.3-4-3.2-5.3-5.6c-1.3-2.4-1.9-5.1-1.9-8.2c0-3.1,0.6-5.8,1.9-8.2
			c1.3-2.4,3-4.3,5.3-5.6c2.2-1.3,4.7-2,7.4-2c3.4,0,6.3,0.9,8.7,2.8c2.4,1.9,4,4.4,4.8,7.6h-4.6c-0.6-2-1.7-3.5-3.3-4.5
			c-1.6-1.1-3.4-1.6-5.6-1.6c-1.8,0-3.5,0.5-5.1,1.4c-1.5,1-2.8,2.3-3.7,4.1c-0.9,1.8-1.3,3.8-1.3,6.1s0.4,4.3,1.3,6.1
			c0.9,1.8,2.1,3.1,3.7,4.1c1.5,1,3.2,1.4,5.1,1.4c2.2,0,4.1-0.5,5.6-1.6c1.5-1.1,2.6-2.7,3.2-4.8h4.6c-0.8,3.3-2.4,5.9-4.8,7.8
			c-2.4,1.9-5.3,2.8-8.7,2.8C1798.4,1217.7,1795.9,1217.1,1793.7,1215.7z"/>
		<path class="st1" d="M1825.5,1217.1h-4.6v-30.5h4.6v14l13.7-14h5.9l-14.6,14.9l15.3,15.6h-5.9l-14.3-14.6V1217.1z"/>
		<path class="st1" d="M1854.1,1215.7c-2.2-1.3-4-3.2-5.3-5.6c-1.3-2.4-1.9-5.1-1.9-8.2c0-3.1,0.6-5.8,1.9-8.2s3-4.3,5.3-5.6
			c2.2-1.3,4.7-2,7.4-2c2.7,0,5.2,0.7,7.4,2c2.2,1.3,4,3.2,5.3,5.6c1.3,2.4,1.9,5.1,1.9,8.2c0,3.1-0.6,5.8-1.9,8.2
			c-1.3,2.4-3,4.3-5.3,5.6c-2.2,1.3-4.7,2-7.4,2C1858.8,1217.7,1856.3,1217.1,1854.1,1215.7z M1866.6,1212c1.5-1,2.8-2.3,3.7-4.1
			s1.3-3.8,1.3-6.1s-0.4-4.3-1.3-6.1s-2.1-3.1-3.7-4.1c-1.5-1-3.2-1.4-5.1-1.4s-3.5,0.5-5.1,1.4c-1.5,1-2.8,2.3-3.7,4.1
			s-1.3,3.8-1.3,6.1s0.4,4.3,1.3,6.1s2.1,3.1,3.7,4.1c1.5,1,3.2,1.4,5.1,1.4S1865,1213,1866.6,1212z"/>
		<path class="st1" d="M1887.4,1217.1h-4.6v-30.5h19.5v4.3h-14.9V1217.1z"/>
		<path class="st1" d="M1912,1215.7c-2.2-1.3-4-3.2-5.3-5.6c-1.3-2.4-1.9-5.1-1.9-8.2c0-3.1,0.6-5.8,1.9-8.2s3-4.3,5.3-5.6
			c2.2-1.3,4.7-2,7.4-2c2.7,0,5.2,0.7,7.4,2c2.2,1.3,4,3.2,5.3,5.6c1.3,2.4,1.9,5.1,1.9,8.2c0,3.1-0.6,5.8-1.9,8.2
			c-1.3,2.4-3,4.3-5.3,5.6c-2.2,1.3-4.7,2-7.4,2C1916.7,1217.7,1914.3,1217.1,1912,1215.7z M1924.5,1212c1.5-1,2.8-2.3,3.7-4.1
			s1.3-3.8,1.3-6.1s-0.4-4.3-1.3-6.1s-2.1-3.1-3.7-4.1c-1.5-1-3.2-1.4-5.1-1.4s-3.5,0.5-5.1,1.4c-1.5,1-2.8,2.3-3.7,4.1
			s-1.3,3.8-1.3,6.1s0.4,4.3,1.3,6.1s2.1,3.1,3.7,4.1c1.5,1,3.2,1.4,5.1,1.4S1923,1213,1924.5,1212z"/>
		<path class="st1" d="M1943.3,1222h-4l1.2-10.4h5.5L1943.3,1222z"/>
		<path class="st1" d="M1963.4,1224.4v-11.6h0.6c1.4,0,2.4-0.3,3.1-1s1.1-1.8,1.2-3.3l1.8-22h20.4v26.2h4.3v11.6h-4.6v-7.3H1968v7.3
			H1963.4z M1986,1212.9v-22h-11.6l-1.5,17.7c-0.1,1.1-0.3,2-0.6,2.8c-0.3,0.8-0.6,1.3-0.9,1.5H1986z"/>
		<path class="st1" d="M2005.7,1215.7c-2.2-1.3-4-3.2-5.3-5.6c-1.3-2.4-1.9-5.1-1.9-8.2c0-3.1,0.6-5.8,1.9-8.2
			c1.3-2.4,3-4.3,5.3-5.6c2.2-1.3,4.7-2,7.4-2s5.2,0.7,7.4,2c2.2,1.3,4,3.2,5.3,5.6s1.9,5.1,1.9,8.2c0,3.1-0.6,5.8-1.9,8.2
			c-1.3,2.4-3,4.3-5.3,5.6c-2.2,1.3-4.7,2-7.4,2S2007.9,1217.1,2005.7,1215.7z M2018.2,1212c1.5-1,2.8-2.3,3.7-4.1
			c0.9-1.8,1.3-3.8,1.3-6.1s-0.4-4.3-1.3-6.1c-0.9-1.8-2.1-3.1-3.7-4.1c-1.5-1-3.2-1.4-5.1-1.4s-3.5,0.5-5.1,1.4
			c-1.5,1-2.8,2.3-3.7,4.1c-0.9,1.8-1.3,3.8-1.3,6.1s0.4,4.3,1.3,6.1c0.9,1.8,2.1,3.1,3.7,4.1c1.5,1,3.2,1.4,5.1,1.4
			S2016.6,1213,2018.2,1212z"/>
		<path class="st1" d="M2039,1217.1h-4.6v-30.5h8.5l8.2,25.3h1.2l8.2-25.3h8.5v30.5h-4.6v-25h-1.2l-8.2,25h-6.7l-8.2-25h-1.2V1217.1
			z"/>
		<path class="st1" d="M2090.9,1217.1v-4l17.4-18.6c1.3-1.4,2.2-2.7,2.8-3.8c0.6-1.2,0.9-2.5,0.9-4.1c0-2.4-0.8-4.4-2.3-5.9
			c-1.5-1.5-3.5-2.3-5.9-2.3c-1.5,0-2.9,0.4-4.1,1.2c-1.3,0.8-2.3,1.9-3,3.2c-0.7,1.4-1.1,3-1.1,4.8h-4.9c0-2.6,0.6-5,1.7-7
			c1.1-2.1,2.7-3.7,4.7-4.9c2-1.2,4.2-1.8,6.8-1.8s4.8,0.5,6.8,1.6c2,1.1,3.5,2.6,4.7,4.5c1.1,1.9,1.7,4.2,1.7,6.7
			c0,2.4-0.4,4.4-1.3,6.1c-0.9,1.7-2.2,3.4-3.9,5.2l-13.7,14.3v0.3h19.8v4.6H2090.9z"/>
		<path class="st1" d="M2130.8,1217.1v-33.5h-9.2v-4.3h7.3c1.2,0,1.8-0.6,1.8-1.8v-3h4.9v42.7H2130.8z"/>
		<path class="st1" d="M2147.3,1222h-4l1.2-10.4h5.5L2147.3,1222z"/>
		<path class="st1" d="M2176.3,1217.1h-4.6v-30.5h4.6v14l13.7-14h5.9l-14.6,14.9l15.3,15.6h-5.9l-14.3-14.6V1217.1z"/>
		<path class="st1" d="M2204.8,1215.7c-2.2-1.3-4-3.2-5.3-5.6c-1.3-2.4-1.9-5.1-1.9-8.2c0-3.1,0.6-5.8,1.9-8.2
			c1.3-2.4,3-4.3,5.3-5.6c2.2-1.3,4.7-2,7.4-2c2.7,0,5.2,0.7,7.4,2c2.2,1.3,4,3.2,5.3,5.6c1.3,2.4,1.9,5.1,1.9,8.2
			c0,3.1-0.6,5.8-1.9,8.2c-1.3,2.4-3,4.3-5.3,5.6c-2.2,1.3-4.7,2-7.4,2C2209.5,1217.7,2207.1,1217.1,2204.8,1215.7z M2217.3,1212
			c1.5-1,2.8-2.3,3.7-4.1s1.3-3.8,1.3-6.1s-0.4-4.3-1.3-6.1s-2.1-3.1-3.7-4.1s-3.2-1.4-5.1-1.4s-3.5,0.5-5.1,1.4
			c-1.5,1-2.8,2.3-3.7,4.1c-0.9,1.8-1.3,3.8-1.3,6.1s0.4,4.3,1.3,6.1c0.9,1.8,2.1,3.1,3.7,4.1c1.5,1,3.2,1.4,5.1,1.4
			S2215.8,1213,2217.3,1212z"/>
		<path class="st1" d="M2233.6,1229.3v-42.7h4l0.6,4.3h0.3c1.3-1.6,2.7-2.8,4.3-3.6c1.6-0.8,3.4-1.3,5.5-1.3c2.6,0,5,0.7,7.2,2
			c2.1,1.3,3.8,3.2,5,5.6c1.2,2.4,1.8,5.1,1.8,8.2c0,3.1-0.6,5.8-1.8,8.2c-1.2,2.4-2.9,4.3-5,5.6c-2.1,1.3-4.5,2-7.2,2
			c-2.1,0-3.9-0.4-5.5-1.3s-3-2-4.3-3.6h-0.3v16.5H2233.6z M2252.8,1212c1.5-1,2.7-2.3,3.6-4.1c0.9-1.7,1.3-3.8,1.3-6
			s-0.4-4.3-1.3-6c-0.9-1.7-2.1-3.1-3.6-4.1s-3.1-1.5-4.8-1.5c-1.7,0-3.4,0.5-4.8,1.5c-1.5,1-2.7,2.3-3.6,4.1
			c-0.9,1.7-1.3,3.8-1.3,6s0.4,4.3,1.3,6c0.9,1.7,2.1,3.1,3.6,4.1c1.5,1,3.1,1.5,4.8,1.5C2249.7,1213.5,2251.3,1213,2252.8,1212z"/>
		<path class="st1" d="M2273.6,1217.1h-4.6v-30.5h25.3v30.5h-4.6v-26.2h-16.2V1217.1z"/>
		<path class="st1" d="M2323.3,1186.6h4.9l-13.7,38.4c-0.5,1.5-1.2,2.5-2.1,3.2c-0.9,0.7-2.1,1-3.7,1h-6.1v-4.3h5.8
			c1,0,1.7-0.6,2.1-1.8l1.2-3.7l-12.5-32.9h4.9l9.5,25.3h1.2L2323.3,1186.6z"/>
		<path class="st1" d="M2337.8,1215.7c-2.2-1.3-4-3.2-5.3-5.6c-1.3-2.4-1.9-5.1-1.9-8.2c0-3.1,0.6-5.8,1.9-8.2s3-4.3,5.3-5.6
			c2.2-1.3,4.7-2,7.4-2c3.4,0,6.3,0.9,8.7,2.8c2.4,1.9,4,4.4,4.8,7.6h-4.6c-0.6-2-1.7-3.5-3.3-4.5c-1.6-1.1-3.4-1.6-5.6-1.6
			c-1.8,0-3.5,0.5-5.1,1.4s-2.8,2.3-3.7,4.1c-0.9,1.8-1.3,3.8-1.3,6.1s0.4,4.3,1.3,6.1c0.9,1.8,2.1,3.1,3.7,4.1
			c1.5,1,3.2,1.4,5.1,1.4c2.2,0,4.1-0.5,5.6-1.6c1.5-1.1,2.6-2.7,3.2-4.8h4.6c-0.8,3.3-2.4,5.9-4.8,7.8c-2.4,1.9-5.3,2.8-8.7,2.8
			C2342.5,1217.7,2340,1217.1,2337.8,1215.7z"/>
		<path class="st1" d="M2384.3,1217.1v-33.5h-9.1v-4.3h7.3c1.2,0,1.8-0.6,1.8-1.8v-3h4.9v42.7H2384.3z"/>
		<path class="st1" d="M1292.1,1345.1h-7.9l-8.2-30.5h4.9l6.7,25.6h1.2l6.7-25.6h7.3l6.7,25.6h1.2l6.7-25.6h4.9l-8.2,30.5h-7.9
			l-6.4-24.7h-1.2L1292.1,1345.1z"/>
		<path class="st1" d="M1340.3,1345.1h-7.9l-8.2-30.5h4.9l6.7,25.6h1.2l6.7-25.6h7.3l6.7,25.6h1.2l6.7-25.6h4.9l-8.2,30.5h-7.9
			l-6.4-24.7h-1.2L1340.3,1345.1z"/>
		<path class="st1" d="M1388.5,1345.1h-7.9l-8.2-30.5h4.9l6.7,25.6h1.2l6.7-25.6h7.3l6.7,25.6h1.2l6.7-25.6h4.9l-8.2,30.5h-7.9
			l-6.4-24.7h-1.2L1388.5,1345.1z"/>
		<path class="st1" d="M1427.5,1345.1h-5.5v-5.5h5.5V1345.1z"/>
		<path class="st1" d="M1440.8,1343.7c-2.2-1.3-4-3.2-5.3-5.6c-1.3-2.4-1.9-5.1-1.9-8.2c0-3.1,0.6-5.8,1.9-8.2
			c1.3-2.4,3-4.3,5.3-5.6c2.2-1.3,4.7-2,7.4-2c2.6,0,5,0.6,7.1,1.9c2.2,1.3,3.8,3,5.1,5.2c1.2,2.2,1.8,4.7,1.8,7.5
			c0,1.6-0.1,2.7-0.3,3.4h-23.8c0.3,2.8,1.4,5.1,3.3,6.9c1.9,1.7,4.2,2.6,6.8,2.6c1.8,0,3.5-0.4,4.9-1.3c1.4-0.9,2.6-2.1,3.3-3.6
			h4.9c-1.1,2.9-2.7,5.2-5,6.8s-5,2.4-8.1,2.4C1445.5,1345.7,1443,1345.1,1440.8,1343.7z M1457.7,1327.7c-0.2-2.8-1.1-5-2.9-6.8
			c-1.8-1.8-4-2.7-6.6-2.7c-2.7,0-5,0.9-6.8,2.7s-2.9,4-3.2,6.8H1457.7z"/>
		<path class="st1" d="M1473.9,1345.1h-4.6v-42.7h4.6V1345.1z"/>
		<path class="st1" d="M1490.3,1345.1c-1.7,0-3-0.5-4-1.4c-1-1-1.5-2.2-1.5-3.8v-21h-4.9v-4.3h4.9v-8.5h4.6v8.5h7v4.3h-7v20.1
			c0,1.2,0.6,1.8,1.8,1.8h5.2v4.3H1490.3z"/>
		<path class="st1" d="M1504,1343.1c-2-1.8-3-4-3-6.8c0-3,1-5.4,3-7.2c2-1.7,5.1-2.6,9.2-2.6h8.2v-0.9c0-2.3-0.7-4.1-2-5.4
			c-1.3-1.3-3.1-2-5.4-2c-2.2,0-4,0.5-5.3,1.5c-1.4,1-2.1,2.2-2.3,3.7h-4.6c0.1-1.7,0.7-3.2,1.6-4.7c1-1.4,2.4-2.6,4.2-3.5
			c1.8-0.9,3.9-1.3,6.4-1.3c3.7,0,6.6,1,8.7,3.1c2.1,2.1,3.2,4.9,3.2,8.5v19.5h-4l-0.6-3.7h-0.3c-0.7,1.1-1.9,2.1-3.6,3
			c-1.7,0.9-3.7,1.3-5.9,1.3C1508.5,1345.7,1505.9,1344.9,1504,1343.1z M1518.9,1338.9c1.7-1.7,2.6-4,2.6-6.9v-1.2h-8.2
			c-2.6,0-4.5,0.5-5.8,1.5c-1.2,1-1.9,2.3-1.9,4c0,1.5,0.5,2.8,1.6,3.8c1.1,1,2.6,1.4,4.5,1.4
			C1514.7,1341.5,1517.1,1340.6,1518.9,1338.9z"/>
		<path class="st1" d="M1537.9,1344.4c-1.9-0.9-3.3-2-4.3-3.5c-1-1.4-1.5-3-1.5-4.7h4.6c0,1.4,0.7,2.6,2,3.7c1.4,1,3.2,1.5,5.6,1.5
			c2.3,0,4.1-0.4,5.4-1.3c1.3-0.9,1.9-2,1.9-3.3c0-1.2-0.4-2.2-1.3-3c-0.8-0.8-2.1-1.3-3.9-1.6l-5.2-0.9c-5.7-1-8.5-3.8-8.5-8.5
			c0-2.6,1-4.7,2.9-6.3c1.9-1.7,4.7-2.5,8.4-2.5c2.4,0,4.4,0.4,6.3,1.3c1.8,0.9,3.2,2,4.2,3.5c1,1.5,1.5,3,1.5,4.6h-4.6
			c0-1.4-0.7-2.6-2-3.7c-1.3-1-3.1-1.5-5.3-1.5c-2.2,0-3.8,0.4-5,1.3c-1.2,0.9-1.7,2-1.7,3.3c0,1.1,0.4,2.1,1.1,2.7
			c0.8,0.7,2,1.2,3.8,1.5l5.2,0.9c3,0.5,5.3,1.5,6.7,3c1.4,1.5,2.1,3.4,2.1,5.9c0,2.6-1,4.7-3.1,6.3c-2.1,1.7-5,2.5-8.8,2.5
			C1541.9,1345.7,1539.7,1345.3,1537.9,1344.4z"/>
		<path class="st1" d="M1562.6,1357.3v-42.7h4l0.6,4.3h0.3c1.3-1.6,2.7-2.8,4.3-3.6c1.6-0.8,3.4-1.3,5.5-1.3c2.6,0,5,0.7,7.2,2
			c2.1,1.3,3.8,3.2,5,5.6s1.8,5.1,1.8,8.2c0,3.1-0.6,5.8-1.8,8.2c-1.2,2.4-2.9,4.3-5,5.6c-2.1,1.3-4.5,2-7.2,2
			c-2.1,0-3.9-0.4-5.5-1.3s-3-2-4.3-3.6h-0.3v16.5H1562.6z M1581.8,1340c1.5-1,2.7-2.3,3.6-4.1c0.9-1.7,1.3-3.8,1.3-6
			s-0.4-4.3-1.3-6c-0.9-1.7-2.1-3.1-3.6-4.1c-1.5-1-3.1-1.5-4.8-1.5c-1.7,0-3.4,0.5-4.8,1.5c-1.5,1-2.7,2.3-3.6,4.1
			c-0.9,1.7-1.3,3.8-1.3,6s0.4,4.3,1.3,6c0.9,1.7,2.1,3.1,3.6,4.1c1.5,1,3.1,1.5,4.8,1.5C1578.7,1341.5,1580.3,1341,1581.8,1340z"/>
		<path class="st1" d="M1607.5,1344.5c-1.6-0.8-3-2-4.3-3.6h-0.3l-0.6,4.3h-4v-42.7h4.6v16.5h0.3c1.3-1.6,2.7-2.8,4.3-3.6
			c1.6-0.8,3.4-1.3,5.5-1.3c2.6,0,5,0.7,7.2,2c2.1,1.3,3.8,3.2,5,5.6c1.2,2.4,1.8,5.1,1.8,8.2c0,3.1-0.6,5.8-1.8,8.2
			c-1.2,2.4-2.9,4.3-5,5.6c-2.1,1.3-4.5,2-7.2,2C1610.9,1345.7,1609,1345.3,1607.5,1344.5z M1617.5,1340c1.5-1,2.7-2.3,3.6-4.1
			c0.9-1.7,1.3-3.8,1.3-6s-0.4-4.3-1.3-6c-0.9-1.7-2.1-3.1-3.6-4.1s-3.1-1.5-4.8-1.5c-1.7,0-3.4,0.5-4.8,1.5c-1.5,1-2.7,2.3-3.6,4.1
			c-0.9,1.7-1.3,3.8-1.3,6s0.4,4.3,1.3,6c0.9,1.7,2.1,3.1,3.6,4.1c1.5,1,3.1,1.5,4.8,1.5C1614.4,1341.5,1616,1341,1617.5,1340z"/>
		<path class="st1" d="M1638.6,1345.1h-5.5v-5.5h5.5V1345.1z"/>
		<path class="st1" d="M1646.5,1345.1v-30.5h4l0.6,3h0.3c0.7-1.1,1.4-1.8,2.3-2.3c0.8-0.5,2-0.7,3.5-0.7h5.2v4.3h-4.6
			c-2.1,0-3.8,0.6-4.9,1.7c-1.2,1.2-1.8,2.8-1.8,5v19.5H1646.5z"/>
		<path class="st1" d="M1673.2,1344.1c-1.9-1.1-3.3-2.6-4.4-4.5c-1.1-2-1.6-4.2-1.6-6.6v-18.3h4.6v18.3c0,1.6,0.4,3,1.1,4.3
			c0.7,1.3,1.7,2.3,3,3.1c1.3,0.8,2.6,1.1,4.1,1.1c1.6,0,3.1-0.4,4.4-1.2c1.4-0.8,2.4-1.8,3.2-3.1c0.8-1.3,1.2-2.7,1.2-4.2v-18.3
			h4.6v30.5h-4l-0.6-3.4h-0.3c-0.9,1.1-2.1,2-3.7,2.8s-3.4,1.2-5.5,1.2C1677.1,1345.7,1675,1345.2,1673.2,1344.1z"/>
	</g>
</g>
<g>
	<path class="st1" d="M283.1,1222c0,27-8.4,53.2-23.9,75.3c-15.6,22-37.6,38.7-63,47.7v-31.3c17.4-8.2,32.1-21.2,42.3-37.4
		c10.3-16.2,15.7-35.1,15.7-54.3c0-19.2-5.5-38-15.8-54.2c-10.3-16.2-25-29.2-42.4-37.4V1099c25.5,9,47.5,25.6,63.1,47.7
		C274.8,1168.7,283.1,1195,283.1,1222z"/>
	<rect x="51" y="1207.5" class="st1" width="116.1" height="29"/>
	<path class="st1" d="M225.1,1222c0-9.5-1.9-18.9-5.5-27.7c-3.6-8.8-9-16.8-15.7-23.5c-6.7-6.7-14.7-12.1-23.5-15.7
		c-8.8-3.6-18.2-5.5-27.8-5.5h-43.5v29h87v86.9h-87v29h43.5c9.5,0,19-1.9,27.8-5.5s16.8-9,23.5-15.7c6.7-6.7,12.1-14.7,15.7-23.5
		C223.2,1240.9,225.1,1231.5,225.1,1222z"/>
</g>
<g>
	<g>
		<path class="st1" d="M66.1,648.3h-6.4v-42.7h6.4v19.6l16.3-19.6h7.9l-17.6,21l18.8,21.7h-7.9L66.1,628V648.3z"/>
		<path class="st1" d="M102,646.1c-3.1-1.9-5.6-4.5-7.4-7.8c-1.8-3.3-2.7-7.1-2.7-11.3c0-4.2,0.9-8,2.7-11.3
			c1.8-3.3,4.3-5.9,7.4-7.8c3.1-1.9,6.6-2.8,10.3-2.8c3.8,0,7.2,0.9,10.4,2.8c3.1,1.9,5.6,4.5,7.4,7.8c1.8,3.3,2.7,7.1,2.7,11.3
			c0,4.2-0.9,8-2.7,11.3c-1.8,3.3-4.3,5.9-7.4,7.8c-3.1,1.9-6.6,2.8-10.4,2.8C108.6,648.9,105.1,648,102,646.1z M119.5,640.8
			c2.2-1.3,3.9-3.2,5.1-5.6c1.3-2.4,1.9-5.2,1.9-8.3c0-3.1-0.6-5.8-1.9-8.3c-1.3-2.4-3-4.3-5.1-5.6c-2.2-1.3-4.5-2-7.1-2
			c-2.6,0-4.9,0.7-7.1,2c-2.2,1.3-3.9,3.2-5.1,5.6c-1.3,2.4-1.9,5.2-1.9,8.3c0,3.1,0.6,5.8,1.9,8.3c1.3,2.4,3,4.3,5.1,5.6
			c2.2,1.3,4.5,2,7.1,2C115,642.8,117.4,642.1,119.5,640.8z"/>
		<path class="st1" d="M146.9,648.3h-6.4v-42.7h10.7l11.7,33.9h1.2l11.7-33.9h10.8v42.7h-6.4v-33.1H179l-11.5,33.1h-7.9l-11.5-33.1
			h-1.2V648.3z"/>
		<path class="st1" d="M202.4,648.3H196v-42.7h34.1v42.7h-6.4v-36.6h-21.3V648.3z"/>
		<path class="st1" d="M235.3,648.6v-6.3h1.9c2.8,0,4.4-1.6,4.6-4.9l2.7-31.8h27.6v42.7h-6.4v-36.6h-15.3l-2.3,26.4
			c-0.3,3.6-1.3,6.2-3,7.9c-1.7,1.7-4.2,2.6-7.4,2.6H235.3z"/>
		<path class="st1" d="M309.5,648.3h-28v-42.7h28v5.9h-21.6v12.4h20.4v5.8h-20.4v12.6h21.6V648.3z"/>
		<path class="st1" d="M323.9,648.3h-6.4v-42.7h6.4v19.6l16.3-19.6h7.9l-17.6,21l18.8,21.7h-7.9L323.9,628V648.3z"/>
		<path class="st1" d="M359.8,646.1c-3.1-1.9-5.6-4.5-7.4-7.8c-1.8-3.3-2.7-7.1-2.7-11.3c0-4.2,0.9-8,2.7-11.3
			c1.8-3.3,4.3-5.9,7.4-7.8c3.1-1.9,6.6-2.8,10.3-2.8c3.3,0,6.2,0.7,8.8,2c2.6,1.3,4.8,3.1,6.6,5.4c1.8,2.3,3,4.8,3.7,7.6h-6.6
			c-0.9-2.6-2.5-4.8-4.7-6.4c-2.2-1.6-4.8-2.5-7.8-2.5c-2.6,0-4.9,0.7-7.1,2c-2.2,1.3-3.9,3.2-5.1,5.6c-1.3,2.4-1.9,5.2-1.9,8.3
			c0,3.1,0.6,5.8,1.9,8.3c1.3,2.4,3,4.3,5.1,5.6c2.2,1.3,4.5,2,7.1,2c3.1,0,5.7-0.8,7.9-2.5c2.2-1.7,3.7-3.9,4.6-6.7h6.6
			c-0.7,2.9-1.9,5.5-3.7,7.8c-1.7,2.3-3.9,4.1-6.6,5.5c-2.6,1.3-5.6,2-8.9,2C366.4,648.9,362.9,648,359.8,646.1z"/>
		<path class="st1" d="M402.4,648.3H396v-42.7h6.4v18.1h21.5v-18.1h6.4v42.7h-6.4v-18.4h-21.5V648.3z"/>
		<path class="st1" d="M448,646.1c-3.1-1.9-5.6-4.5-7.4-7.8c-1.8-3.3-2.7-7.1-2.7-11.3c0-4.2,0.9-8,2.7-11.3
			c1.8-3.3,4.3-5.9,7.4-7.8c3.1-1.9,6.6-2.8,10.3-2.8c3.8,0,7.2,0.9,10.4,2.8c3.1,1.9,5.6,4.5,7.4,7.8c1.8,3.3,2.7,7.1,2.7,11.3
			c0,4.2-0.9,8-2.7,11.3c-1.8,3.3-4.3,5.9-7.4,7.8c-3.1,1.9-6.6,2.8-10.4,2.8C454.6,648.9,451.1,648,448,646.1z M465.5,640.8
			c2.2-1.3,3.9-3.2,5.1-5.6c1.3-2.4,1.9-5.2,1.9-8.3c0-3.1-0.6-5.8-1.9-8.3c-1.3-2.4-3-4.3-5.1-5.6c-2.2-1.3-4.5-2-7.1-2
			c-2.6,0-4.9,0.7-7.1,2c-2.2,1.3-3.9,3.2-5.1,5.6c-1.3,2.4-1.9,5.2-1.9,8.3c0,3.1,0.6,5.8,1.9,8.3c1.3,2.4,3,4.3,5.1,5.6
			c2.2,1.3,4.5,2,7.1,2C461,642.8,463.3,642.1,465.5,640.8z"/>
		<path class="st1" d="M514.5,648.3h-28v-42.7h28v5.9h-21.6v12.4h20.4v5.8h-20.4v12.6h21.6V648.3z"/>
		<path class="st1" d="M543.7,648.3h-6.4v-42.7h34.1v42.7H565v-36.6h-21.3V648.3z"/>
		<path class="st1" d="M580.8,648.3v-42.7h19c2.4,0,4.6,0.6,6.5,1.7c2,1.2,3.5,2.8,4.6,4.8c1.1,2.1,1.7,4.4,1.7,7.1
			c0,2.6-0.6,5-1.7,7.1c-1.1,2.1-2.7,3.7-4.6,4.9c-2,1.2-4.1,1.7-6.5,1.7h-12.6v15.3H580.8z M599.6,626.9c1.8,0,3.4-0.7,4.7-2.1
			c1.3-1.4,1.9-3.2,1.9-5.5c0-2.3-0.6-4.1-1.9-5.5c-1.3-1.4-2.8-2.1-4.7-2.1h-12.4v15.2H599.6z"/>
		<path class="st1" d="M628.3,646.1c-3.1-1.9-5.6-4.5-7.4-7.8c-1.8-3.3-2.7-7.1-2.7-11.3c0-4.2,0.9-8,2.7-11.3
			c1.8-3.3,4.3-5.9,7.4-7.8c3.1-1.9,6.6-2.8,10.3-2.8c3.8,0,7.2,0.9,10.4,2.8c3.1,1.9,5.6,4.5,7.4,7.8c1.8,3.3,2.7,7.1,2.7,11.3
			c0,4.2-0.9,8-2.7,11.3c-1.8,3.3-4.3,5.9-7.4,7.8c-3.1,1.9-6.6,2.8-10.4,2.8C634.9,648.9,631.5,648,628.3,646.1z M645.8,640.8
			c2.2-1.3,3.9-3.2,5.1-5.6c1.3-2.4,1.9-5.2,1.9-8.3c0-3.1-0.6-5.8-1.9-8.3c-1.3-2.4-3-4.3-5.1-5.6c-2.2-1.3-4.5-2-7.1-2
			c-2.6,0-4.9,0.7-7.1,2c-2.2,1.3-3.9,3.2-5.1,5.6c-1.3,2.4-1.9,5.2-1.9,8.3c0,3.1,0.6,5.8,1.9,8.3c1.3,2.4,3,4.3,5.1,5.6
			c2.2,1.3,4.5,2,7.1,2C641.3,642.8,643.7,642.1,645.8,640.8z"/>
		<path class="st1" d="M694.8,648.3h-28v-42.7h28v5.9h-21.6v12.4h20.4v5.8h-20.4v12.6h21.6V648.3z"/>
		<path class="st1" d="M709.2,648.3h-6.4v-42.7h6.4v19.6l16.3-19.6h7.9l-17.6,21l18.8,21.7h-7.9L709.2,628V648.3z"/>
		<path class="st1" d="M754.6,648.3h-6.4v-36.6h-13.4v-6.1h33.2v6.1h-13.4V648.3z"/>
		<path class="st1" d="M783.3,648.3H774v-42.7h6.4V639h1.2l17.4-33.4h9.3v42.7h-6.4v-33.4h-1.2L783.3,648.3z"/>
		<path class="st1" d="M817.7,648.3v-42.7h19c2.4,0,4.6,0.6,6.5,1.7c2,1.2,3.5,2.8,4.6,4.8c1.1,2.1,1.7,4.4,1.7,7.1
			c0,2.6-0.6,5-1.7,7.1c-1.1,2.1-2.7,3.7-4.6,4.9c-2,1.2-4.1,1.7-6.5,1.7h-12.6v15.3H817.7z M836.5,626.9c1.8,0,3.4-0.7,4.7-2.1
			c1.3-1.4,1.9-3.2,1.9-5.5c0-2.3-0.6-4.1-1.9-5.5c-1.3-1.4-2.8-2.1-4.7-2.1h-12.4v15.2H836.5z"/>
		<path class="st1" d="M865.3,646.1c-3.1-1.9-5.6-4.5-7.4-7.8c-1.8-3.3-2.7-7.1-2.7-11.3c0-4.2,0.9-8,2.7-11.3
			c1.8-3.3,4.3-5.9,7.4-7.8c3.1-1.9,6.6-2.8,10.3-2.8c3.8,0,7.2,0.9,10.4,2.8c3.1,1.9,5.6,4.5,7.4,7.8c1.8,3.3,2.7,7.1,2.7,11.3
			c0,4.2-0.9,8-2.7,11.3c-1.8,3.3-4.3,5.9-7.4,7.8c-3.1,1.9-6.6,2.8-10.4,2.8C871.8,648.9,868.4,648,865.3,646.1z M882.7,640.8
			c2.2-1.3,3.9-3.2,5.1-5.6c1.3-2.4,1.9-5.2,1.9-8.3c0-3.1-0.6-5.8-1.9-8.3c-1.3-2.4-3-4.3-5.1-5.6c-2.2-1.3-4.5-2-7.1-2
			c-2.6,0-4.9,0.7-7.1,2c-2.2,1.3-3.9,3.2-5.1,5.6c-1.3,2.4-1.9,5.2-1.9,8.3c0,3.1,0.6,5.8,1.9,8.3c1.3,2.4,3,4.3,5.1,5.6
			c2.2,1.3,4.5,2,7.1,2C878.2,642.8,880.6,642.1,882.7,640.8z"/>
		<path class="st1" d="M903.7,648.3v-42.7h19c2.2,0,4.3,0.5,6.1,1.6c1.8,1,3.2,2.5,4.3,4.3c1,1.8,1.6,3.8,1.6,6.1
			c0,2.1-0.5,4-1.4,5.6c-0.9,1.6-2,2.8-3.2,3.5v0.3c1.3,0.7,2.5,1.8,3.6,3.5c1.1,1.7,1.6,3.7,1.6,5.9c0,2.2-0.5,4.3-1.6,6.1
			c-1,1.8-2.5,3.2-4.3,4.3c-1.8,1-3.8,1.6-6.1,1.6H903.7z M922.3,624.1c1.6,0,3-0.6,4.2-1.8c1.2-1.2,1.7-2.7,1.7-4.5
			c0-1.8-0.6-3.4-1.7-4.6c-1.2-1.2-2.6-1.8-4.2-1.8h-12.2v12.7H922.3z M922.9,642.5c1.6,0,3-0.6,4.2-1.8c1.2-1.2,1.7-2.7,1.7-4.6
			c0-1.8-0.6-3.3-1.7-4.5c-1.2-1.2-2.6-1.8-4.2-1.8h-12.8v12.7H922.9z"/>
		<path class="st1" d="M978.1,648.3h-6.9l-3.7-10.2h-19.6l-3.7,10.2h-7l15.7-42.7h9.4L978.1,648.3z M957.1,612.4l-7.1,19.8h15.5
			l-7.1-19.8H957.1z"/>
		<path class="st1" d="M989.1,648.3h-6.4v-42.7h6.4v18.1h21.5v-18.1h6.4v42.7h-6.4v-18.4h-21.5V648.3z"/>
		<path class="st1" d="M1035.7,648.3h-9.3v-42.7h6.4V639h1.2l17.4-33.4h9.3v42.7h-6.4v-33.4h-1.2L1035.7,648.3z"/>
		<path class="st1" d="M1098.1,648.3h-28v-42.7h28v5.9h-21.6v12.4h20.4v5.8h-20.4v12.6h21.6V648.3z"/>
		<path class="st1" d="M1109,653.4h-5.1l1.3-12h7L1109,653.4z"/>
		<path class="st1" d="M66.1,714.3h-6.4v-42.7h10.7l11.7,33.9h1.2L95,671.6h10.8v42.7h-6.4v-33.1h-1.2l-11.5,33.1h-7.9l-11.5-33.1
			h-1.2V714.3z"/>
		<path class="st1" d="M123.5,712.1c-3.1-1.9-5.6-4.5-7.4-7.8c-1.8-3.3-2.7-7.1-2.7-11.3c0-4.2,0.9-8,2.7-11.3
			c1.8-3.3,4.3-5.9,7.4-7.8c3.1-1.9,6.6-2.8,10.3-2.8c3.8,0,7.2,0.9,10.4,2.8c3.1,1.9,5.6,4.5,7.4,7.8c1.8,3.3,2.7,7.1,2.7,11.3
			c0,4.2-0.9,8-2.7,11.3c-1.8,3.3-4.3,5.9-7.4,7.8c-3.1,1.9-6.6,2.8-10.4,2.8C130.1,714.9,126.6,714,123.5,712.1z M141,706.8
			c2.2-1.3,3.9-3.2,5.1-5.6c1.3-2.4,1.9-5.2,1.9-8.3c0-3.1-0.6-5.8-1.9-8.3c-1.3-2.4-3-4.3-5.1-5.6c-2.2-1.3-4.5-2-7.1-2
			c-2.6,0-4.9,0.7-7.1,2c-2.2,1.3-3.9,3.2-5.1,5.6c-1.3,2.4-1.9,5.2-1.9,8.3c0,3.1,0.6,5.8,1.9,8.3c1.3,2.4,3,4.3,5.1,5.6
			c2.2,1.3,4.5,2,7.1,2C136.4,708.8,138.8,708.1,141,706.8z"/>
		<path class="st1" d="M168.4,714.3H162v-42.7h6.4v18.1h21.5v-18.1h6.4v42.7h-6.4v-18.4h-21.5V714.3z"/>
		<path class="st1" d="M222.2,714.3h-6.4v-36.6h-13.4v-6.1h33.2v6.1h-13.4V714.3z"/>
		<path class="st1" d="M274,714.3h-6.9l-3.7-10.2h-19.6l-3.7,10.2h-7l15.7-42.7h9.4L274,714.3z M253,678.4l-7.1,19.8h15.5l-7.1-19.8
			H253z"/>
		<path class="st1" d="M281.3,714.3h-7.6l15.6-21.7l-14.3-21h7.6l13.3,19.6v-19.6h6.4v19.6l13.3-19.6h7.6l-14.3,21l15.6,21.7h-7.6
			l-14.5-20.6v20.6h-6.4v-20.6L281.3,714.3z"/>
		<path class="st1" d="M351.8,714.3h-9.3v-42.7h6.4V705h1.2l17.4-33.4h9.3v42.7h-6.4v-33.4h-1.2L351.8,714.3z"/>
		<path class="st1" d="M409.4,712.1c-3.1-1.9-5.6-4.5-7.4-7.8c-1.8-3.3-2.7-7.1-2.7-11.3c0-4.2,0.9-8,2.7-11.3
			c1.8-3.3,4.3-5.9,7.4-7.8c3.1-1.9,6.6-2.8,10.3-2.8c3.8,0,7.2,0.9,10.4,2.8c3.1,1.9,5.6,4.5,7.4,7.8c1.8,3.3,2.7,7.1,2.7,11.3
			c0,4.2-0.9,8-2.7,11.3c-1.8,3.3-4.3,5.9-7.4,7.8c-3.1,1.9-6.6,2.8-10.4,2.8C415.9,714.9,412.5,714,409.4,712.1z M426.8,706.8
			c2.2-1.3,3.9-3.2,5.1-5.6c1.3-2.4,1.9-5.2,1.9-8.3c0-3.1-0.6-5.8-1.9-8.3c-1.3-2.4-3-4.3-5.1-5.6c-2.2-1.3-4.5-2-7.1-2
			c-2.6,0-4.9,0.7-7.1,2c-2.2,1.3-3.9,3.2-5.1,5.6c-1.3,2.4-1.9,5.2-1.9,8.3c0,3.1,0.6,5.8,1.9,8.3c1.3,2.4,3,4.3,5.1,5.6
			c2.2,1.3,4.5,2,7.1,2C422.3,708.8,424.7,708.1,426.8,706.8z"/>
		<path class="st1" d="M447.8,714.3v-42.7h29.5v5.8h-23.1v12h13.3c2.3,0,4.3,0.5,6.2,1.6c1.9,1.1,3.3,2.5,4.4,4.4
			c1.1,1.9,1.6,4,1.6,6.4c0,2.4-0.5,4.6-1.6,6.5c-1.1,1.9-2.5,3.4-4.4,4.4c-1.9,1.1-3.9,1.6-6.2,1.6H447.8z M467.3,708.5
			c1.7,0,3.2-0.6,4.3-1.9c1.1-1.2,1.6-2.9,1.6-4.8c0-2-0.5-3.6-1.6-4.8c-1.1-1.2-2.5-1.8-4.3-1.8h-13.1v13.4H467.3z"/>
		<path class="st1" d="M495.4,712.1c-3.1-1.9-5.6-4.5-7.4-7.8c-1.8-3.3-2.7-7.1-2.7-11.3c0-4.2,0.9-8,2.7-11.3
			c1.8-3.3,4.3-5.9,7.4-7.8c3.1-1.9,6.6-2.8,10.3-2.8c3.3,0,6.2,0.7,8.8,2c2.6,1.3,4.8,3.1,6.6,5.4c1.8,2.3,3,4.8,3.7,7.6h-6.6
			c-0.9-2.6-2.5-4.8-4.7-6.4c-2.2-1.6-4.8-2.5-7.8-2.5c-2.6,0-4.9,0.7-7.1,2c-2.2,1.3-3.9,3.2-5.1,5.6c-1.3,2.4-1.9,5.2-1.9,8.3
			c0,3.1,0.6,5.8,1.9,8.3c1.3,2.4,3,4.3,5.1,5.6c2.2,1.3,4.5,2,7.1,2c3.1,0,5.7-0.8,7.9-2.5c2.2-1.7,3.7-3.9,4.6-6.7h6.6
			c-0.7,2.9-1.9,5.5-3.7,7.8c-1.7,2.3-3.9,4.1-6.6,5.5c-2.6,1.3-5.6,2-8.9,2C502,714.9,498.5,714,495.4,712.1z"/>
		<path class="st1" d="M526.2,714.6v-6.3h1.9c2.8,0,4.4-1.6,4.6-4.9l2.7-31.8H563v42.7h-6.4v-36.6h-15.3l-2.3,26.4
			c-0.3,3.6-1.3,6.2-3,7.9c-1.7,1.7-4.2,2.6-7.4,2.6H526.2z"/>
		<path class="st1" d="M598.4,671.6h6.9l-17.1,37.6c-0.8,1.7-1.8,3-3.1,3.8c-1.3,0.9-3,1.3-5.3,1.3h-6.1v-5.9h5.8
			c0.9,0,1.5-0.2,2-0.5c0.5-0.3,0.9-0.8,1.2-1.6l1-2.2l-15.9-32.6h7l11.5,24.2h1.2L598.4,671.6z"/>
		<path class="st1" d="M612.8,714.3h-7.6l15.6-21.7l-14.3-21h7.6l13.3,19.6v-19.6h6.4v19.6l13.3-19.6h7.6l-14.3,21l15.6,21.7h-7.6
			l-14.5-20.6v20.6h-6.4v-20.6L612.8,714.3z"/>
		<path class="st1" d="M669.7,714.3h-9.3v-42.7h6.4V705h1.2l17.4-33.4h9.3v42.7h-6.4v-33.4h-1.2L669.7,714.3z"/>
		<path class="st1" d="M704.1,714.3v-42.7h19c2.2,0,4.3,0.5,6.1,1.6c1.8,1,3.2,2.5,4.3,4.3c1,1.8,1.6,3.8,1.6,6.1
			c0,2.1-0.5,4-1.4,5.6c-0.9,1.6-2,2.8-3.2,3.5v0.3c1.3,0.7,2.5,1.8,3.6,3.5c1.1,1.7,1.6,3.7,1.6,5.9c0,2.2-0.5,4.3-1.6,6.1
			c-1,1.8-2.5,3.2-4.3,4.3c-1.8,1-3.8,1.6-6.1,1.6H704.1z M722.7,690.1c1.6,0,3-0.6,4.2-1.8c1.2-1.2,1.7-2.7,1.7-4.5
			c0-1.8-0.6-3.4-1.7-4.6c-1.2-1.2-2.6-1.8-4.2-1.8h-12.2v12.7H722.7z M723.3,708.5c1.6,0,3-0.6,4.2-1.8c1.2-1.2,1.7-2.7,1.7-4.6
			c0-1.8-0.6-3.3-1.7-4.5c-1.2-1.2-2.6-1.8-4.2-1.8h-12.8v12.7H723.3z"/>
		<path class="st1" d="M778.4,714.3h-6.9l-3.7-10.2h-19.6l-3.7,10.2h-7l15.7-42.7h9.4L778.4,714.3z M757.4,678.4l-7.1,19.8h15.5
			l-7.1-19.8H757.4z"/>
		<path class="st1" d="M789.5,714.3h-6.4v-42.7h6.4v18.1h21.5v-18.1h6.4v42.7h-6.4v-18.4h-21.5V714.3z"/>
		<path class="st1" d="M836,714.3h-9.3v-42.7h6.4V705h1.2l17.4-33.4h9.3v42.7h-6.4v-33.4h-1.2L836,714.3z"/>
		<path class="st1" d="M898.4,714.3h-28v-42.7h28v5.9h-21.6v12.4h20.4v5.8h-20.4v12.6h21.6V714.3z"/>
		<path class="st1" d="M68.9,780.3h-9.3v-42.7h6.4V771h1.2l17.4-33.4H94v42.7h-6.4v-33.4h-1.2L68.9,780.3z"/>
		<path class="st1" d="M109.8,780.3h-6.4v-42.7h6.4v18.1h21.5v-18.1h6.4v42.7h-6.4v-18.4h-21.5V780.3z"/>
		<path class="st1" d="M149.8,780.3h-7.6l15.6-21.7l-14.3-21h7.6l13.3,19.6v-19.6h6.4v19.6l13.3-19.6h7.6l-14.3,21l15.6,21.7h-7.6
			l-14.5-20.6v20.6h-6.4v-20.6L149.8,780.3z"/>
		<path class="st1" d="M225.3,780.3h-28v-42.7h28v5.9h-21.6v12.4h20.4v5.8h-20.4v12.6h21.6V780.3z"/>
		<path class="st1" d="M239.7,780.3h-6.4v-42.7h6.4v18.1h21.5v-18.1h6.4v42.7h-6.4v-18.4h-21.5V780.3z"/>
		<path class="st1" d="M305,780.3h-28v-42.7h28v5.9h-21.6v12.4h20.4v5.8h-20.4v12.6H305V780.3z"/>
		<path class="st1" d="M313,780.3v-42.7h19c2.4,0,4.6,0.6,6.5,1.7c2,1.2,3.5,2.8,4.6,4.8c1.1,2.1,1.7,4.4,1.7,7.1
			c0,2.6-0.6,5-1.7,7.1c-1.1,2.1-2.7,3.7-4.6,4.9c-2,1.2-4.1,1.7-6.5,1.7h-12.6v15.3H313z M331.8,758.9c1.8,0,3.4-0.7,4.7-2.1
			c1.3-1.4,1.9-3.2,1.9-5.5c0-2.3-0.6-4.1-1.9-5.5c-1.3-1.4-2.8-2.1-4.7-2.1h-12.4v15.2H331.8z"/>
		<path class="st1" d="M358.6,780.3h-6.4v-42.7h6.4v18.1h21.5v-18.1h6.4v42.7h-6.4v-18.4h-21.5V780.3z"/>
		<path class="st1" d="M395.9,780.3v-42.7h6.4v15.1H413c2.4,0,4.7,0.6,6.6,1.8c2,1.2,3.5,2.8,4.7,4.9c1.1,2.1,1.7,4.5,1.7,7.1
			c0,2.6-0.6,5-1.7,7.1c-1.1,2.1-2.7,3.7-4.7,4.9c-2,1.2-4.2,1.8-6.6,1.8H395.9z M412.9,774.2c2,0,3.6-0.7,4.8-2.2
			c1.3-1.4,1.9-3.3,1.9-5.5c0-2.2-0.6-4.1-1.9-5.6c-1.3-1.5-2.9-2.2-4.8-2.2h-10.6v15.4H412.9z M437,780.3h-6.4v-42.7h6.4V780.3z"/>
		<path class="st1" d="M449.3,780.3h-7.4l14.8-22l-13.8-20.7h7.4l10.2,15.6h1.2l10.1-15.6h7.4l-13.8,20.7l14.8,22h-7.4l-11-16.7
			h-1.2L449.3,780.3z"/>
		<path class="st1" d="M506.7,778.1c-3.1-1.9-5.6-4.5-7.4-7.8c-1.8-3.3-2.7-7.1-2.7-11.3s0.9-8,2.7-11.3c1.8-3.3,4.3-5.9,7.4-7.8
			c3.1-1.9,6.6-2.8,10.3-2.8c3.3,0,6.2,0.7,8.8,2c2.6,1.3,4.8,3.1,6.6,5.4s3,4.8,3.7,7.6h-6.6c-0.9-2.6-2.5-4.8-4.7-6.4
			c-2.2-1.6-4.8-2.5-7.8-2.5c-2.6,0-4.9,0.7-7.1,2c-2.2,1.3-3.9,3.2-5.1,5.6c-1.3,2.4-1.9,5.2-1.9,8.3s0.6,5.8,1.9,8.3
			c1.3,2.4,3,4.3,5.1,5.6c2.2,1.3,4.5,2,7.1,2c3.1,0,5.7-0.8,7.9-2.5s3.7-3.9,4.6-6.7h6.6c-0.7,2.9-1.9,5.5-3.7,7.8
			c-1.7,2.3-3.9,4.1-6.6,5.5c-2.6,1.3-5.6,2-8.9,2C513.3,780.9,509.8,780,506.7,778.1z"/>
		<path class="st1" d="M552.2,780.3h-9.3v-42.7h6.4V771h1.2l17.4-33.4h9.3v42.7h-6.4v-33.4h-1.2L552.2,780.3z"/>
		<path class="st1" d="M594.9,778.1c-3.1-1.9-5.6-4.5-7.4-7.8c-1.8-3.3-2.7-7.1-2.7-11.3s0.9-8,2.7-11.3c1.8-3.3,4.3-5.9,7.4-7.8
			c3.1-1.9,6.6-2.8,10.3-2.8c3.3,0,6.2,0.7,8.8,2c2.6,1.3,4.8,3.1,6.6,5.4s3,4.8,3.7,7.6h-6.6c-0.9-2.6-2.5-4.8-4.7-6.4
			c-2.2-1.6-4.8-2.5-7.8-2.5c-2.6,0-4.9,0.7-7.1,2c-2.2,1.3-3.9,3.2-5.1,5.6c-1.3,2.4-1.9,5.2-1.9,8.3s0.6,5.8,1.9,8.3
			c1.3,2.4,3,4.3,5.1,5.6c2.2,1.3,4.5,2,7.1,2c3.1,0,5.7-0.8,7.9-2.5s3.7-3.9,4.6-6.7h6.6c-0.7,2.9-1.9,5.5-3.7,7.8
			c-1.7,2.3-3.9,4.1-6.6,5.5c-2.6,1.3-5.6,2-8.9,2C601.5,780.9,598,780,594.9,778.1z"/>
		<path class="st1" d="M646.4,780.3H640v-36.6h-13.4v-6.1h33.2v6.1h-13.4V780.3z"/>
		<path class="st1" d="M693.9,780.3h-28v-42.7h28v5.9h-21.6v12.4h20.4v5.8h-20.4v12.6h21.6V780.3z"/>
		<path class="st1" d="M708.3,780.3h-6.4v-42.7h10.7l11.7,33.9h1.2l11.7-33.9H748v42.7h-6.4v-33.1h-1.2l-11.5,33.1H721l-11.5-33.1
			h-1.2V780.3z"/>
	</g>
</g>
</svg>
