<?xml version="1.0" encoding="utf-8"?>
<!-- Generator: Adobe Illustrator 22.0.0, SVG Export Plug-In . SVG Version: 6.00 Build 0)  -->
<svg version="1.1" id="Layer_1" xmlns="http://www.w3.org/2000/svg" xmlns:xlink="http://www.w3.org/1999/xlink" x="0px" y="0px"
	 viewBox="0 0 1600 1163.6" style="enable-background:new 0 0 1600 1163.6;" xml:space="preserve">
<style type="text/css">
	.st0{fill:#D1D1D5;}
	.st1{fill:#1B1B2D;}
	.st2{fill:#FFFFFF;}
</style>
<rect class="st0" width="1600" height="1163.6"/>
<g>
	<path class="st1" d="M457.5,385.6l28.3-74.2h10.9l28.2,74.2h-9.9l-7.8-20h-32.3l-7.8,20H457.5z M477.6,357.2h26.8L491,321.4
		L477.6,357.2z"/>
	<path class="st1" d="M533.3,385.6v-74.2H579v8.5h-36.5v21.8h19.8c14.2,0,23.9,7.2,23.9,21.8c0,13.9-9.5,22-23.7,22H533.3z
		 M542.5,377.1h19.1c9.3,0,15.2-5.2,15.2-13.5c0-8.3-5.9-13.5-15.3-13.5h-19V377.1z"/>
	<path class="st1" d="M596.7,311.4H623c15.8,0,24.6,7.6,24.6,19.6c0,8.5-4.7,13.7-11.7,16.1c7.8,1.5,14.7,6.6,14.7,17.3
		c0,13.1-9.3,21.2-26.9,21.2h-27V311.4z M605.9,319.7v23.9h17.5c9.5,0,14.9-4.5,14.9-12c0-7.4-5.3-11.9-14.9-11.9H605.9z
		 M605.9,351.9v25.3h17.8c11.4,0,17.5-4.8,17.5-12.4c0-8.4-6.5-12.9-17.5-12.9H605.9z"/>
	<path class="st1" d="M662.2,385.6v-74.2h43.5v8.5h-34.2v65.7H662.2z"/>
	<path class="st1" d="M769.5,377.1h9.1v23.6h-9.2v-15.2h-56.7v15.2h-9.2v-23.6h7c5-4.5,7.8-11.3,7.8-33.1v-32.6h51.2V377.1z
		 M760.2,377.1v-57.9H727v26c0,17.3-1.8,26-5.8,31.9H760.2z"/>
	<path class="st1" d="M788,311.4h47.3v8.5h-38.1v23.7h31.7v8.5h-31.7v25h39.4v8.5H788V311.4z"/>
	<path class="st1" d="M847.1,311.4h47.3v8.5h-38.1v23.7H888v8.5h-31.7v25h39.4v8.5h-48.7V311.4z M861.4,292c3.3,0,5.6,2.3,5.6,5.5
		c0,3.1-2.3,5.4-5.6,5.4c-3.2,0-5.5-2.3-5.5-5.4C855.9,294.3,858.2,292,861.4,292z M880.7,292c3.2,0,5.5,2.3,5.5,5.5
		c0,3.1-2.3,5.4-5.5,5.4c-3.1,0-5.6-2.3-5.6-5.4C875,294.3,877.6,292,880.7,292z"/>
	<path class="st1" d="M900.5,385.6l27-38.2l-25.3-36h10.5l22.9,32.3h11v-32.3h9.2v32.3h11l22.9-32.3h10.5l-25.3,36l26.9,38.2h-11.1
		l-23.5-33.4h-11.3v33.4h-9.2v-33.4h-11.3l-23.6,33.4H900.5z"/>
	<path class="st1" d="M1004.7,363.3h9.4c0.5,9.8,7.7,14.4,18.5,14.4c11.1,0,17.7-4.9,17.7-13.4c0-8.6-6-12.7-17.5-12.7h-7.4v-7.7
		h6.9c11.1,0,16.1-4.6,16.1-12.7c0-7.8-6.5-12-15.9-12c-10.4,0-17,5.1-17.5,13.6h-9.4c0.5-13,11.3-22,26.8-22c16,0,25.4,8,25.4,19.6
		c0,9.8-4.9,14.9-12.1,16.9c7,1.7,14,6.5,14,17.8c0,12.6-10.9,21.2-27.7,21.2C1014.9,386.2,1005.1,378,1004.7,363.3z"/>
	<path class="st1" d="M1071.4,385.6v-74.2h9.2v58.8l39.8-58.8h8.6v74.2h-9.2v-58.8l-39.8,58.8H1071.4z"/>
	<path class="st1" d="M1143.3,385.6v-74.2h9.2v58.8l39.8-58.8h8.6v74.2h-9.2v-58.8l-39.8,58.8H1143.3z M1156.6,290.6h7.2
		c0,5.2,2.3,8.4,8.4,8.4s8.6-3.2,8.6-8.4h7.2c-0.2,8.9-5.6,14.5-15.9,14.5C1161.9,305.1,1156.8,299.5,1156.6,290.6z"/>
	<path class="st1" d="M1215.3,385.6v-74.2h9.2v32.2h13.7l24.4-32.2h10.7l-27.2,35.9l28.9,38.3h-11.2l-25.5-33.5h-13.7v33.5H1215.3z"
		/>
	<path class="st1" d="M1278.4,385.6v-8.5h1.8c8.2,0,11.8-5.1,11.8-29.3v-36.5h51.5v74.2h-9.2v-65.7h-33.4v28.7
		c0,28.5-6.1,37-19.6,37H1278.4z"/>
	<path class="st1" d="M1357.9,311.4h11.7l26.3,61.6l26-61.6h11.4v74.2h-9v-58.5l-24.6,58.5h-8.2l-24.6-58.5v58.5h-9V311.4z"/>
	<path class="st1" d="M463.5,414.6h9.2v32.2h38.4v-32.2h9.2v74.2h-9.2v-33.5h-38.4v33.5h-9.2V414.6z"/>
	<path class="st1" d="M567.4,489.4c-20.9,0-35.4-15.9-35.4-37.7s14.5-37.7,35.4-37.7c20.9,0,35.4,15.9,35.4,37.7
		S588.3,489.4,567.4,489.4z M567.4,481c15.5,0,26-12.2,26-29.3s-10.5-29.3-26-29.3c-15.5,0-26,12.2-26,29.3S551.9,481,567.4,481z"/>
	<path class="st1" d="M614.5,488.8v-74.2h56.3v74.2h-9.2v-65.7h-37.8v65.7H614.5z"/>
	<path class="st1" d="M685.2,414.6h28.5c14.8,0,24.6,8.9,24.6,22.8c0,13.9-9.8,22.9-24.6,22.9h-19.3v28.5h-9.2V414.6z M694.4,423.1
		v28.7h18.4c9.8,0,16-5.6,16-14.4c0-8.8-6.1-14.3-15.9-14.3H694.4z"/>
	<path class="st1" d="M745.4,451.7c0-22.5,13.9-37.7,35.4-37.7c16.4,0,28.4,9.5,31.2,24.9h-9.8c-2.9-10.3-10.7-16.4-21.8-16.4
		c-15.6,0-25.5,12.1-25.5,29.3c0,17.1,9.5,29.3,25.1,29.3c11.4,0,19.4-6,22.2-16.4h9.8c-2.8,15.4-15.1,24.9-31.8,24.9
		C758.8,489.4,745.4,474.4,745.4,451.7z"/>
	<path class="st1" d="M814.2,414.6h57.3v8.5h-24.1v65.7h-9.2v-65.7h-24.1V414.6z"/>
	<path class="st1" d="M883.2,488.8v-8.5h6.7c6,0,8.3-1,11-7l2.3-5.1l-28.6-53.6h10.6l22.9,43.8l19.6-43.8h10l-28.4,61.2
		c-4.7,10.2-9.4,13-17,13H883.2z"/>
	<path class="st1" d="M985.6,484v9h-8.9v-9c-22.9-0.7-37.4-12.7-37.4-32.3c0-19.5,14.4-31.6,37.4-32.3v-9h8.9v9
		c22.9,0.7,37.4,12.7,37.4,32.3C1023,471.2,1008.6,483.1,985.6,484z M976.7,475.9v-48.3c-18.1,0.6-28.2,9.5-28.2,24.2
		C948.5,466.2,958.5,475.1,976.7,475.9z M985.6,475.9c18.1-0.7,28.2-9.6,28.2-24.2s-10-23.4-28.2-24.2V475.9z"/>
	<path class="st1" d="M1049.1,450.7l-23.4-36.1h10.8l18.6,28.7l18.5-28.7h10.6l-23.4,35.5l25,38.7h-10.9l-20.1-31.1l-19.9,31.1
		h-10.7L1049.1,450.7z"/>
	<path class="st1" d="M1150.9,480.3h9.1V504h-9.2v-15.2h-56.2v-74.2h9.2v65.7h37.8v-65.7h9.2V480.3z"/>
	<path class="st1" d="M1209.2,414.6h9.2v74.2h-9.2V457c-5.1,3.1-12,4.9-19.9,4.9c-14.7,0-25.4-7.3-25.4-23.1v-24.2h9.2V437
		c0,11.4,6.9,16.4,17.2,16.4c7.6,0,14-2,19-5.5V414.6z"/>
	<path class="st1" d="M1232.8,488.8v-74.2h9.2v65.7h31.3v-65.7h9.2v65.7h31.3v-65.7h9.2v74.2H1232.8z"/>
	<path class="st1" d="M1427.7,480.3h9.1V504h-9.2v-15.2h-90.1v-74.2h9.2v65.7h31.3v-65.7h9.2v65.7h31.3v-65.7h9.2V480.3z"/>
	<path class="st1" d="M480.2,592v-66.4h-21.7v-7.8h31v28.4H509c14.7,0,24.5,9.5,24.5,22.9c0,13.3-9.8,22.9-24.5,22.9H480.2z
		 M489.4,583.5h18.9c9.6,0,15.8-5.7,15.8-14.4c0-8.7-6.3-14.4-15.9-14.4h-18.8V583.5z"/>
	<path class="st1" d="M543.9,592v-74.2h9.2v28.4h18.6c14.7,0,24.5,9.5,24.5,22.9c0,13.3-9.8,22.9-24.5,22.9H543.9z M553.1,583.5
		h17.8c9.6,0,15.8-5.7,15.8-14.4c0-8.7-6.3-14.4-15.9-14.4h-17.7V583.5z M605.7,592v-74.2h9.2V592H605.7z"/>
	<path class="st1" d="M629.3,592v-74.2h9.2v28.4h19.6c14.7,0,24.5,9.5,24.5,22.9c0,13.3-9.8,22.9-24.5,22.9H629.3z M638.5,583.5
		h18.9c9.6,0,15.8-5.7,15.8-14.4c0-8.7-6.3-14.4-15.9-14.4h-18.8V583.5z"/>
	<path class="st1" d="M756.4,554.9c0,22.5-13.9,37.7-35.4,37.7c-16.9,0-28.6-9.5-31.4-24.9h9.9c2.9,10.3,10.4,16.4,21.9,16.4
		c14.4,0,24-10.3,25.3-25.3H716v-8.5h30.7c-1.5-14.6-10.4-24.7-24.6-24.7c-11.4,0-19.1,6-21.8,16.4h-9.9
		c2.8-15.4,14.7-24.9,31.3-24.9C743.3,517.2,756.4,532.2,756.4,554.9z"/>
	<path class="st1" d="M860.3,554.9c0,21.8-14.3,37.7-35,37.7c-19.4,0-33.3-14.1-34.9-33.9h-13.1V592h-9.2v-74.2h9.2v32.4h13.3
		c1.9-19.4,15.6-33.1,34.8-33.1C846,517.2,860.3,533.1,860.3,554.9z M850.9,554.9c0-17.1-10.3-29.3-25.5-29.3
		c-15.3,0-25.5,12.2-25.5,29.3s10.3,29.3,25.5,29.3C840.6,584.2,850.9,572,850.9,554.9z"/>
	<path class="st1" d="M922.9,517.8V592h-9.2v-28.5h-17.8L878.4,592h-10.7l18.2-29.7c-11.3-2.4-17.4-10.7-17.4-21.9
		c0-13.4,10.1-22.6,25-22.6H922.9z M913.6,555v-28.7h-19.4c-9.9,0-16.2,5.5-16.2,14.3c0,8.8,6.3,14.4,16.1,14.4H913.6z"/>
</g>
<g>
	<path class="st2" d="M87.5,95h34.2v6.1H94.2v17.2h23v6.1h-23v18.1h28.6v6.1H87.5V95z"/>
	<path class="st2" d="M128.4,148.7V95h6.7v47.6h24.5v6.1H128.4z"/>
	<path class="st2" d="M153.1,95h41.5v6.1h-17.4v47.6h-6.7v-47.6h-17.4V95z"/>
	<path class="st2" d="M187.8,148.7L208.3,95h7.9l20.4,53.7h-7.1l-5.7-14.5h-23.4l-5.7,14.5H187.8z M202.4,128.1h19.4l-9.7-25.9
		L202.4,128.1z"/>
	<path class="st2" d="M263.7,131.1c0.5,7.2,6.1,12,14.4,12c7.2,0,12.4-3.3,12.4-9.1c0-6.7-6.6-8.1-14.7-9.4
		c-8.7-1.5-17.6-4.3-17.6-14.7c0-9.1,7.4-15.3,18.3-15.3c12,0,19.3,6.7,20,16.4h-6.9c-0.8-6.2-5.8-10.3-13.1-10.3
		c-7,0-11.7,3.1-11.7,8.8c0,6.4,6.5,7.8,14.6,9.1c8.8,1.5,17.7,4.4,17.7,14.8c0,9.3-7.8,15.8-19.1,15.8c-13.1,0-20.8-7.4-21.2-18
		H263.7z"/>
	<path class="st2" d="M297.4,148.7L317.9,95h7.9l20.4,53.7h-7.1l-5.7-14.5H310l-5.7,14.5H297.4z M312,128.1h19.4l-9.7-25.9
		L312,128.1z"/>
	<path class="st2" d="M350.3,148.7V95h6.1l28.9,41.5V95h6.5v53.7h-6.1l-28.9-41.5v41.5H350.3z"/>
	<path class="st2" d="M405.2,131.1c0.5,7.2,6.1,12,14.4,12c7.2,0,12.4-3.3,12.4-9.1c0-6.7-6.6-8.1-14.7-9.4
		c-8.7-1.5-17.6-4.3-17.6-14.7c0-9.1,7.4-15.3,18.3-15.3c12,0,19.3,6.7,20,16.4h-6.9c-0.8-6.2-5.8-10.3-13.1-10.3
		c-7,0-11.7,3.1-11.7,8.8c0,6.4,6.5,7.8,14.6,9.1c8.8,1.5,17.7,4.4,17.7,14.8c0,9.3-7.8,15.8-19.1,15.8c-13.1,0-20.8-7.4-21.2-18
		H405.2z"/>
	<path class="st1" d="M87.5,163.8h20.6c10.7,0,17.9,6.4,17.9,16.5c0,7.5-4.5,13.4-11.4,15.3l12.1,22h-7.5l-11.4-20.7H94.2v20.7h-6.7
		V163.8z M94.2,169.9v20.8h13.4c7.1,0,11.6-4.1,11.6-10.4s-4.5-10.4-11.5-10.4H94.2z"/>
	<path class="st1" d="M132.5,163.8h34.2v6.1h-27.6v17.2h23v6.1h-23v18.1h28.6v6.1h-35.2V163.8z"/>
	<path class="st1" d="M169.6,190.7c0-16.3,10.1-27.3,25.6-27.3c11.9,0,20.9,6.9,22.7,18h-7.1c-1.8-7.4-7.6-11.8-15.7-11.8
		c-11.3,0-18.7,8.8-18.7,21.2c0,12.4,7.4,21.2,18.5,21.2c9.9,0,17-5.9,17-15.4v-1.8h-16.1v-6.1h22.6v29.1h-5.8l-0.5-7.8
		c-2.5,3.9-8.2,8.3-17.4,8.3C180,218,169.6,206.9,169.6,190.7z"/>
	<path class="st1" d="M226.7,163.8h6.7V195c0,11.1,4.5,16.9,13.7,16.9c9.4,0,13.9-5.8,13.9-16.9v-31.2h6.7v30.8
		c0,15.4-7.1,23.4-20.6,23.4s-20.4-8.1-20.4-23.4V163.8z"/>
	<path class="st1" d="M275.9,217.5v-53.7h6.7v47.6h24.5v6.1H275.9z"/>
	<path class="st1" d="M308.2,217.5l20.5-53.7h7.9l20.4,53.7h-7.1l-5.7-14.5h-23.4l-5.7,14.5H308.2z M322.8,197h19.4l-9.7-25.9
		L322.8,197z"/>
	<path class="st1" d="M361.2,163.8h20.6c10.7,0,17.9,6.4,17.9,16.5c0,7.5-4.5,13.4-11.4,15.3l12.1,22h-7.5l-11.4-20.7h-13.5v20.7
		h-6.7V163.8z M367.8,169.9v20.8h13.4c7.1,0,11.6-4.1,11.6-10.4s-4.5-10.4-11.5-10.4H367.8z"/>
</g>
<g>
	<path class="st1" d="M507.8,735.7v7.2h-4.3c-6.6,0-8.8-2.8-8.9-7.6c-3.1,4.4-8,8.2-16.5,8.2c-10.8,0-18.2-5.4-18.2-14.4
		c0-9.9,6.9-15.4,19.8-15.4h14.5v-3.4c0-6.4-4.5-10.2-12.3-10.2c-7,0-11.6,3.3-12.6,8.3h-7.9c1.2-9.7,9-15.4,20.9-15.4
		c12.6,0,19.8,6.3,19.8,17.8v21.5c0,2.6,1,3.3,3.2,3.3H507.8z M494.2,720.4h-15.3c-7.1,0-11,2.6-11,8.2c0,4.8,4.2,8.1,10.7,8.1
		c9.9,0,15.6-5.7,15.6-13.9V720.4z"/>
	<path class="st1" d="M559.8,720c0,13.6-9.6,23.6-24.1,23.6c-14.8,0-24.1-8.9-24.1-27.6c0-26.4,6.3-36.3,27.6-39l16.7-2.1v7.4
		l-15,1.9c-15.5,2-19.9,6.1-21.4,20.7c3.5-4.7,9.7-7.8,18.1-7.8C550.3,697,559.8,706,559.8,720z M551.8,720.3
		c0-9.5-6.6-16.3-15.8-16.3c-9.7,0-16.2,6.9-16.2,15.4c0,11,6.8,17.4,16,17.4C545.1,736.7,551.8,729.8,551.8,720.3z"/>
	<path class="st1" d="M567.9,743v-49.3h21c12.2,0,18.1,4.7,18.1,13.2c0,6.2-4.1,9.6-8.1,10.5c5.7,0.9,10,4.4,10,11.2
		c0,9.6-6.8,14.3-19.6,14.3H567.9z M575.8,714.7h13.7c6.6,0,9.4-2.7,9.4-7.1c0-4.7-2.8-7.1-9.4-7.1h-13.7V714.7z M575.8,736.2h14.5
		c6.8,0,10.4-2.3,10.4-7.4c0-4.8-3.7-7.5-10.4-7.5h-14.5V736.2z"/>
	<path class="st1" d="M616.6,743v-49.3h31.6v7.2h-23.7v42H616.6z"/>
	<path class="st1" d="M693.4,735.7h7.8V756h-7.9v-13h-40.2v13h-7.9v-20.3h5c3.6-2.7,5.5-6.2,5.5-21.4v-20.6h37.7V735.7z
		 M685.5,735.7v-34.8h-22v14.2c0,11.3-1.3,16.8-3.7,20.6H685.5z"/>
	<path class="st1" d="M703.8,718.3c0-15,9.5-25.2,23.4-25.2c13.9,0,23,8.8,23.4,23.4c0,1.1-0.1,2.2-0.2,3.4h-38.3v0.7
		c0.3,9.4,6.2,15.9,15.6,15.9c7,0,12.4-3.7,14-10h8c-1.9,9.9-10,17.1-21.4,17.1C713.4,743.5,703.8,733.4,703.8,718.3z M742,713.3
		c-0.8-8.5-6.6-13.2-14.8-13.2c-7.2,0-13.9,5.2-14.7,13.2H742z"/>
	<path class="st1" d="M756.9,718.3c0-15,9.5-25.2,23.4-25.2c13.9,0,23,8.8,23.4,23.4c0,1.1-0.1,2.2-0.2,3.4h-38.3v0.7
		c0.3,9.4,6.2,15.9,15.6,15.9c7,0,12.4-3.7,14-10h8c-1.9,9.9-10,17.1-21.4,17.1C766.5,743.5,756.9,733.4,756.9,718.3z M795.1,713.3
		c-0.8-8.5-6.6-13.2-14.8-13.2c-7.2,0-13.9,5.2-14.7,13.2H795.1z M771.9,676.1c3,0,5.1,2.1,5.1,5c0,2.8-2.1,4.9-5.1,4.9
		c-2.9,0-5-2.1-5-4.9C766.8,678.2,769,676.1,771.9,676.1z M789.4,676.1c2.9,0,5,2.1,5,5c0,2.8-2.1,4.9-5,4.9c-2.8,0-5.1-2.1-5.1-4.9
		C784.3,678.2,786.6,676.1,789.4,676.1z"/>
	<path class="st1" d="M804.4,743l18.6-25.5l-17.2-23.8h8.8l14.9,20.6h7.6v-20.6h7.7v20.6h7.6l14.9-20.6h8.8L859,717.5l18.6,25.5
		h-9.1l-15.7-21.4h-7.9V743h-7.7v-21.4h-7.9L813.5,743H804.4z"/>
	<path class="st1" d="M920.5,728.8c0,9.1-8.3,14.8-21.6,14.8c-14,0-20-5.7-20.5-15.7h8.2c1.2,5.9,4.2,9,12.4,9
		c8.2,0,13.4-3,13.4-8.1c0-5.2-3.8-7.2-10-7.2h-8.4v-6.9h7.9c5.8,0,9.3-2.1,9.3-7.3c0-4.4-4.3-7.3-11.8-7.3c-8,0-11.5,3.4-12.6,8.7
		h-8.2c0.6-9.2,8.2-15.5,21-15.5c12.5,0,19.7,5.5,19.7,13.9c0,6.1-3.6,9.6-8.7,10.6C916.8,718.6,920.5,722.3,920.5,728.8z"/>
	<path class="st1" d="M928.4,743v-49.3h7.7V731l29.4-37.3h7V743h-7.7v-37.4L935.3,743H928.4z"/>
	<path class="st1" d="M982.3,743v-49.3h7.7V731l29.4-37.3h7V743h-7.7v-37.4L989.2,743H982.3z M990,674.8h6.6c0,4.7,2.1,7.6,7.6,7.6
		c5.5,0,7.8-2.9,7.8-7.6h6.6c-0.2,8.1-5.1,13.2-14.5,13.2C994.8,688.1,990.2,683,990,674.8z"/>
	<path class="st1" d="M1036.2,743v-49.3h7.9v20.6h10.5l15.4-20.6h9.2l-18,23.7l19.5,25.6h-9.6l-16.4-21.4h-10.6V743H1036.2z"/>
	<path class="st1" d="M1081.8,743v-7.2h1.4c5.6,0,7.7-3.4,7.7-18.2v-23.9h37.3V743h-7.9v-42h-21.6v16.9c0,19.6-4.6,25.1-14.2,25.1
		H1081.8z"/>
	<path class="st1" d="M1138.1,743v-49.3h9.8l18.9,39.6l18.6-39.6h9.5l0.2,49.3h-7.6v-37.2l-17.7,37.2h-6.4l-17.7-37.2V743H1138.1z"
		/>
	<path class="st1" d="M1240.6,693.7h7.9V743h-7.9v-21.4h-27.7V743h-7.9v-49.3h7.9v20.6h27.7V693.7z"/>
	<path class="st1" d="M460,795.1c0-15,10-25.2,24.4-25.2c14.4,0,24.4,10.2,24.4,25.2s-10,25.2-24.4,25.2
		C470.1,820.4,460,810.1,460,795.1z M500.8,795.1c0-10.5-6.6-18.2-16.3-18.2c-9.8,0-16.3,7.6-16.3,18.2c0,10.5,6.6,18.2,16.3,18.2
		C494.2,813.3,500.8,805.7,500.8,795.1z"/>
	<path class="st1" d="M517,819.8v-49.3h42.6v49.3h-7.9v-42h-26.8v42H517z"/>
	<path class="st1" d="M618,795.1c0,15.1-10,25.2-23.7,25.2c-8.3,0-13.9-3.4-16.9-8.1v26.9h-7.9v-68.6h6.9l1.1,7.9
		c3.3-4.5,8.6-8.5,16.9-8.5C607.9,769.9,618,779.1,618,795.1z M609.8,795.1c0-10.7-6.6-18.2-16.3-18.2c-9.7,0-16.2,7.4-16.2,18
		c0,10.8,6.6,18.4,16.2,18.4C603.3,813.3,609.8,805.9,609.8,795.1z"/>
	<path class="st1" d="M624.3,795.2c0-15.1,9.8-25.3,24.1-25.3c12.1,0,19.7,6.8,21.7,17.6h-8.3c-1.4-6.6-6.3-10.5-13.5-10.5
		c-9.5,0-15.8,7.5-15.8,18.3s6.4,18.1,15.8,18.1c7.1,0,11.9-4.1,13.4-10.3h8.4c-1.9,10.6-10,17.4-21.9,17.4
		C633.8,820.4,624.3,810.6,624.3,795.2z"/>
	<path class="st1" d="M689.5,819.8v-42h-17.8v-7.2h43.5v7.2h-17.8v42H689.5z"/>
	<path class="st1" d="M716.8,770.5h8.4l15.2,39.3l14.7-39.3h8.4l-22.7,57.6c-3.1,7.9-4.9,11-11.9,11h-9.5v-7.2h7.1
		c4.5,0,5.3-1.2,7.1-5.8l2.4-6L716.8,770.5z"/>
	<path class="st1" d="M792.7,839.1v-18.9c-16.9-0.4-28-10-28-25c0-14.8,11.2-24.5,28-25v-16.4h7.7v16.4c16.8,0.5,27.9,10,27.9,25
		c0,14.8-11.1,24.6-27.9,25v18.9H792.7z M792.7,777.1c-12.1,0.3-19.9,7-19.9,18.1s7.8,17.8,19.9,18.1V777.1z M800.4,813.2
		c12.2-0.3,19.9-7,19.9-18.1s-7.7-17.8-19.9-18.1V813.2z"/>
	<path class="st1" d="M847.9,794.5l-17.5-24h9.5l13,18.3l13.2-18.3h9l-17.6,24l18.8,25.3h-9.5L852.5,800l-14.4,19.8h-9L847.9,794.5z
		"/>
	<path class="st1" d="M922.8,812.5h8.2v20.3H923v-13h-42v-49.3h7.9v42h25.9v-42h7.9V812.5z"/>
	<path class="st1" d="M965.1,770.5h7.9v49.3h-7.9V800c-3.8,2.5-8.9,3.8-13.7,3.8c-12,0-19.3-5.2-19.3-17.9v-15.4h7.9v14
		c0,9,4.3,12.1,12.9,12.1c4.7,0,8.9-1.2,12.2-4V770.5z"/>
	<path class="st1" d="M982.8,819.8v-49.3h7.9v42h21.4v-42h7.9v42h21.4v-42h7.9v49.3H982.8z"/>
	<path class="st1" d="M1126,812.5h8.2v20.3h-7.9v-13h-66.9v-49.3h7.9v42h21.4v-42h7.9v42h21.4v-42h7.9V812.5z"/>
	<path class="st1" d="M493.6,863.4c12.3,0,19.3,6.1,19.3,16.6c0,10.4-7.1,16.6-19.3,16.6h-21.2v-42h-15v-7.2h22.9v16H493.6z
		 M492.4,889.8c8.1,0,12.6-3.6,12.6-9.9c0-6.5-4.4-9.9-12.6-9.9h-12v19.7H492.4z"/>
	<path class="st1" d="M520.6,896.6v-49.3h7.9v16h12.6c12.3,0,19.3,6.1,19.3,16.6c0,10.4-7.1,16.6-19.3,16.6H520.6z M528.5,889.8
		h11.3c8.1,0,12.6-3.6,12.6-9.9c0-6.5-4.4-9.9-12.6-9.9h-11.3V889.8z M568.4,896.6v-49.3h7.9v49.3H568.4z"/>
	<path class="st1" d="M586.2,896.6v-49.3h7.9v16h13.2c12.3,0,19.3,6.1,19.3,16.6c0,10.4-7.1,16.6-19.3,16.6H586.2z M594.1,889.8h12
		c8.1,0,12.6-3.6,12.6-9.9c0-6.5-4.4-9.9-12.6-9.9h-12V889.8z"/>
	<path class="st1" d="M678,871.9c0,15.4-9.8,25.3-24.1,25.3c-12.1,0-19.7-6.8-21.7-17.6h8.3c1.4,6.6,6.3,10.6,13.5,10.6
		c8.5,0,14.5-5.9,15.6-15h-21.3v-7h21.2c-1.3-8.8-7.1-14.6-15.6-14.6c-6.7,0-11.9,4.2-13.4,10.4h-8.4c1.9-10.6,10.3-17.4,21.9-17.4
		C668.5,846.7,678,856.5,678,871.9z"/>
	<path class="st1" d="M754,871.9c0,15.1-9.7,25.3-24.2,25.3c-13.4,0-22.8-8.9-24.1-22.2H694v21.6h-7.9v-49.3h7.9v21.2h11.8
		c1.4-13,10.7-21.6,24-21.6C744.3,846.8,754,856.9,754,871.9z M746,871.9c0-11.1-6.5-18.6-16.2-18.6c-9.7,0-16.1,7.5-16.1,18.6
		s6.5,18.9,16.1,18.9C739.5,890.8,746,883,746,871.9z"/>
	<path class="st1" d="M800.8,847.3v49.3h-7.9v-16.9h-13.1l-12.1,16.9h-9.3l13.5-18c-7.9-1.7-12.3-7.1-12.3-15.1
		c0-10.1,7.1-16.2,19.5-16.2H800.8z M792.9,872.8v-18.7h-13.5c-7.4,0-11.7,3.2-11.7,9.3c0,6.4,4.3,9.5,11.7,9.5H792.9z"/>
	<path class="st1" d="M460.5,1014.9c0-19.2,10.4-32.8,25.7-32.8c15.2,0,25.6,13.6,25.6,32.8v3.1c0,20.2-10.4,32.8-25.6,32.8
		c-15.3,0-25.7-12.7-25.7-32.8V1014.9z M503.6,1015.1c0-16-7-25.7-17.4-25.7c-10.5,0-17.5,9.7-17.5,25.7v2.5c0,16,7,25.7,17.5,25.7
		c10.4,0,17.4-9.7,17.4-25.7V1015.1z"/>
	<path class="st1" d="M531.1,982.6h7.9v67.6h-8.1v-48.5c-1,0.9-2.5,1.3-4.6,1.3h-10.9v-7.2h11c3.2,0,4.7-2.4,4.7-5.8V982.6z"/>
	<path class="st1" d="M546.9,1043.4l26.3-22.8c6.3-5.4,11.5-10.6,11.5-18c0-8.5-5.8-13.3-14.8-13.3c-8.7,0-14.5,5.8-14.5,15.1v1.3
		h-8.1v-1.7c0-12.8,9-21.8,22.6-21.8c14.6,0,23.1,8,23.1,20.2c0,10.1-6.6,16.5-14.6,23.4l-20.3,17.2h35.4v7.4h-46.6V1043.4z"/>
	<path class="st1" d="M646.6,1031.5c0,11.5-9.7,19.3-24.3,19.3c-14.7,0-24.2-8-24.2-21.4h8c0.1,8.9,7.1,14.2,16.6,14.2
		c8.8,0,15.6-4.9,15.6-12.7c0-7.1-5.8-11.6-16.3-11.6h-5.8v-7.1h5.3c10,0,15.1-5,15.1-11.9c0-6.9-6.2-11.1-14.3-11.1
		c-8.5,0-14.7,5.1-14.8,12.8h-8c0.1-11.9,9.4-20.1,22.7-20.1c13.9,0,22.7,7.2,22.7,17.9c0,8.5-4.4,13.4-10.9,15.2
		C640.2,1016.2,646.6,1021.1,646.6,1031.5z"/>
	<path class="st1" d="M650.8,1026.5l34.5-43.9h9.1v43.7h10.9v7.4h-10.9v16.5h-8.1v-16.5h-35.5V1026.5z M659.9,1026.3h26.4v-33.7
		L659.9,1026.3z"/>
	<path class="st1" d="M757.2,1027.6c0,15-11,23.1-23.7,23.1c-15.1,0-23.8-9.8-24.4-21.5h8c0.8,7.8,6.7,14.3,16.4,14.3
		c7.9,0,15.4-5.3,15.4-15.7c0-9.2-5.9-15.6-15.3-15.6c-4.2,0-12.5,1.2-15.4,9.2l-7.8-0.2l2.2-38.4h40.5v7.4h-33l-1.5,21.3
		c4.2-4.9,9.9-6.5,16.2-6.5C748,1004.9,757.2,1014.2,757.2,1027.6z"/>
	<path class="st1" d="M763.4,1016.7c0-21.3,9.6-34.7,25.7-34.7c12.3,0,20.7,7.3,22.3,18.6h-8.1c-1.5-6.9-6.4-11.5-14.6-11.5
		c-11.8,0-18.3,10.7-18.3,26c0,1,0,1.6,0.1,3.3c0.1-0.4,0.2-1,0.6-1.8c3-6.7,9.8-11.1,18.8-11.1c13.3,0,22.7,8.8,22.7,22.6
		c0,13-9.6,22.7-23.5,22.7c-9.4,0-16.2-4.3-20.5-11.2C765.3,1033.7,763.4,1025.6,763.4,1016.7z M789.3,1012.6
		c-9.4,0-15.7,6.4-15.7,15.7c0,9.1,6.2,15.4,15.5,15.4c9.4,0,15.5-6.5,15.5-15.6C804.5,1019.1,798.7,1012.6,789.3,1012.6z"/>
	<path class="st1" d="M814.4,982.6h47.7v5.7l-33.2,61.9h-8.8l33.1-60.2h-38.8V982.6z"/>
	<path class="st1" d="M913.9,1032.1c0,10.9-9.4,18.7-24.6,18.7s-24.6-7.8-24.6-18.7c0-9.2,5.9-15.1,13.5-16.8
		c-6.5-1.4-11.6-7.1-11.6-15.3c0-10.6,8.9-18,22.7-18s22.7,7.3,22.7,18c0,7.7-5,13.8-11.6,15.3
		C907.9,1017,913.9,1022.8,913.9,1032.1z M905.6,1031.5c0-7.1-6.7-12.3-16.3-12.3s-16.3,5.1-16.3,12.3c0,7.2,6.8,12.4,16.3,12.4
		C898.9,1043.8,905.6,1038.7,905.6,1031.5z M889.2,1011.1c8.7,0,14.4-4.4,14.4-11.1c0-6.6-5.7-11-14.4-11s-14.4,4.4-14.4,11
		C874.8,1006.6,880.5,1011.1,889.2,1011.1z"/>
	<path class="st1" d="M921.8,1032.2h8.1c1.5,6.9,6.4,11.5,14.6,11.5c11.8,0,18.3-10.7,18.3-26c0-1,0-1.6-0.1-3.3
		c-0.1,0.4-0.2,1-0.6,1.8c-3,6.7-9.8,11.1-18.8,11.1c-13.3,0-22.7-8.8-22.7-22.6c0-13,9.6-22.7,23.5-22.7c9.4,0,16.2,4.3,20.5,11.2
		c3.4,5.9,5.3,14,5.3,22.9c0,21.3-9.6,34.7-25.7,34.7C931.8,1050.8,923.4,1043.5,921.8,1032.2z M959.6,1004.5
		c0-9.1-6.2-15.4-15.5-15.4c-9.4,0-15.5,6.5-15.5,15.6c0,9,5.8,15.5,15.2,15.5S959.6,1013.8,959.6,1004.5z"/>
	<path class="st1" d="M979.6,1050.2v-67.6h7.3l32,50.9v-50.9h8.3v67.6h-7.3l-32.1-50.9v50.9H979.6z M1033.7,1004.6
		c0-13.5,8.7-22.6,21.8-22.6c13,0,21.8,9.1,21.8,22.6s-8.8,22.7-21.8,22.7C1042.4,1027.3,1033.7,1018.1,1033.7,1004.6z
		 M1069.1,1004.6c0-9.4-5.4-15.6-13.6-15.6c-8.3,0-13.7,6.2-13.7,15.6c0,9.5,5.4,15.6,13.7,15.6
		C1063.7,1020.3,1069.1,1014.1,1069.1,1004.6z"/>
	<path class="st1" d="M1104.4,982c9.8,0,17,6.9,17,16.4c0,9.4-7.2,16.2-17,16.2s-17-6.9-17-16.2C1087.4,988.9,1094.6,982,1104.4,982
		z M1104.4,988.4c-5.7,0-9.9,4.3-9.9,10c0,5.7,4.2,9.9,9.9,9.9s9.9-4.2,9.9-9.9C1114.2,992.6,1110.1,988.4,1104.4,988.4z
		 M1098.8,1050.2l46.1-67.6h7.8l-46.1,67.6H1098.8z M1146.9,1018.1c9.8,0,17,6.9,17,16.4c0,9.4-7.2,16.2-17,16.2s-17-6.9-17-16.2
		C1129.9,1025,1137.1,1018.1,1146.9,1018.1z M1146.9,1024.5c-5.7,0-9.9,4.3-9.9,10c0,5.7,4.2,9.9,9.9,9.9c5.7,0,9.9-4.2,9.9-9.9
		C1156.7,1028.8,1152.6,1024.5,1146.9,1024.5z"/>
	<path class="st1" d="M1171.4,1004.1c0-12.4,8.3-22.1,21.9-22.1c12.7,0,20.8,7.2,20.8,17.1c0,8.6-4.5,13-9.5,16.5
		c-5.1,3.6-8.9,6.2-8.9,11.5v2.5h-7.4v-3.4c0-7.7,4.8-10.9,10.3-14.7c4.3-3.1,7.1-6.4,7.1-11.7c0-6.1-5-10.5-12.4-10.5
		c-8.4,0-13.9,6-13.9,14.8H1171.4z M1192.2,1040c3.2,0,5.5,2.1,5.5,5.4s-2.3,5.4-5.5,5.4c-3.2,0-5.5-2.1-5.5-5.4
		S1189,1040,1192.2,1040z"/>
	<path class="st1" d="M1228.8,1040c3.2,0,5.5,2.1,5.5,5.4s-2.3,5.4-5.5,5.4c-3.2,0-5.5-2.1-5.5-5.4S1225.6,1040,1228.8,1040z
		 M1225.8,1030l-1.3-47.4h8.5l-1.2,47.4H1225.8z"/>
	<path class="st1" d="M1276.4,995.2l-11.8,4.3l8,9.5l-4.3,3.9l-8.1-10.1l-8,10.1l-4.2-3.9l8.1-9.6l-11.8-4.3l2.2-5.4l11.2,5.1
		l-0.2-12.4h5.5l-0.3,12.5l11.3-5.2L1276.4,995.2z"/>
</g>
</svg>
