<?xml version="1.0" encoding="utf-8"?>
<!-- Generator: Adobe Illustrator 22.0.0, SVG Export Plug-In . SVG Version: 6.00 Build 0)  -->
<svg version="1.1" id="Layer_1" xmlns="http://www.w3.org/2000/svg" xmlns:xlink="http://www.w3.org/1999/xlink" x="0px" y="0px"
	 viewBox="0 0 1323.2 200" style="enable-background:new 0 0 1323.2 200;" xml:space="preserve">
<style type="text/css">
	.st0{fill:#3B3B4B;}
</style>
<g>
	<g>
		<g>
			<g>
				<path class="st0" d="M188.8,100c0,21.9-6.8,43.4-19.4,61.2c-12.6,17.8-30.6,31.5-51.3,38.8v-25.4c14.2-6.6,26-17.3,34.5-30.5
					c8.3-13.2,12.8-28.5,12.8-44.1s-4.4-31-12.9-44.1c-8.3-13.2-20.3-23.7-34.5-30.5V0c20.7,7.3,38.7,20.8,51.3,38.8
					C181.9,56.6,188.8,78.1,188.8,100z"/>
				<rect y="88.3" class="st0" width="94.4" height="23.6"/>
				<path class="st0" d="M141.4,100c0-7.7-1.6-15.4-4.4-22.5c-3-7.2-7.3-13.7-12.8-19.1s-12-9.8-19.1-12.8s-14.8-4.4-22.5-4.4H47.1
					v23.6H118v70.7H47.1V159h35.4c7.8,0,15.4-1.6,22.5-4.4c7.2-3,13.7-7.3,19.1-12.8s9.8-12,12.8-19.1
					C140,115.4,141.4,107.8,141.4,100z"/>
			</g>
		</g>
		<g>
			<path class="st0" d="M345.8,163c-10.7,0-20.6-2.7-29.6-8.1c-9-5.3-16.1-12.8-21.4-22.4c-5.2-9.5-7.8-20.3-7.8-32.6
				c0-12.1,2.6-22.9,7.8-32.6c5.2-9.5,12.2-17.1,21.4-22.4c9-5.3,18.9-8.1,29.6-8.1c10.8,0,20.7,2.7,29.8,8.1
				c9,5.3,16.1,12.8,21.4,22.4c5.2,9.5,7.8,20.4,7.8,32.6s-2.6,22.9-7.8,32.6c-5.2,9.5-12.2,17.1-21.4,22.4
				C366.5,160.4,356.6,163,345.8,163z M345.8,145.3c7.4,0,14.2-2,20.3-5.7c6.1-3.8,10.9-9.1,14.5-15.9c3.5-6.8,5.3-14.6,5.3-23.4
				s-1.8-16.7-5.3-23.4c-3.5-6.8-8.3-12.1-14.5-15.9c-6.1-3.8-12.9-5.7-20.3-5.7c-7.3,0-14.1,2-20.2,5.7
				c-6.1,3.8-10.9,9.1-14.6,15.9c-3.6,6.8-5.5,14.6-5.5,23.4s1.8,16.7,5.5,23.4c3.6,6.8,8.5,12.1,14.6,15.9
				C331.8,143.4,338.4,145.3,345.8,145.3z"/>
			<path class="st0" d="M475.9,163c-10.7,0-20.6-2.7-29.6-8.1c-9-5.3-16.1-12.8-21.4-22.4c-5.2-9.5-7.8-20.3-7.8-32.6
				c0-12.1,2.6-22.9,7.8-32.6c5.2-9.5,12.2-17.1,21.4-22.4c9-5.3,18.9-8.1,29.6-8.1c10.8,0,20.7,2.7,29.8,8.1
				c9,5.3,16.1,12.8,21.4,22.4c5.2,9.5,7.8,20.4,7.8,32.6s-2.6,22.9-7.8,32.6c-5.2,9.5-12.2,17.1-21.4,22.4
				C496.6,160.4,486.7,163,475.9,163z M475.9,145.3c7.4,0,14.2-2,20.3-5.7c6.1-3.8,10.9-9.1,14.5-15.9c3.5-6.8,5.3-14.6,5.3-23.4
				s-1.8-16.7-5.3-23.4s-8.3-12.1-14.5-15.9c-6.1-3.8-12.9-5.7-20.3-5.7c-7.3,0-14.1,2-20.2,5.7c-6.1,3.8-10.9,9.1-14.6,15.9
				c-3.6,6.8-5.5,14.6-5.5,23.4s1.8,16.7,5.5,23.4c3.6,6.8,8.5,12.1,14.6,15.9C461.8,143.4,468.6,145.3,475.9,145.3z"/>
			<path class="st0" d="M606,163c-10.7,0-20.6-2.7-29.6-8.1c-9-5.3-16.1-12.8-21.4-22.4c-5.2-9.5-7.8-20.3-7.8-32.6
				c0-12.1,2.6-22.9,7.8-32.6c5.2-9.5,12.2-17.1,21.4-22.4c9-5.3,18.9-8.1,29.6-8.1c10.8,0,20.7,2.7,29.8,8.1
				c9,5.3,16.1,12.8,21.4,22.4c5.2,9.5,7.8,20.4,7.8,32.6s-2.6,22.9-7.8,32.6c-5.2,9.5-12.2,17.1-21.4,22.4
				C626.8,160.4,616.9,163,606,163z M606,145.3c7.4,0,14.2-2,20.3-5.7c6.1-3.8,10.9-9.1,14.5-15.9c3.5-6.8,5.3-14.6,5.3-23.4
				s-1.8-16.7-5.3-23.4s-8.3-12.1-14.5-15.9c-6.1-3.8-12.9-5.7-20.3-5.7c-7.3,0-14.1,2-20.2,5.7c-6.1,3.8-10.9,9.1-14.6,15.9
				c-3.6,6.8-5.5,14.6-5.5,23.4s1.8,16.7,5.5,23.4c3.6,6.8,8.5,12.1,14.6,15.9C591.9,143.4,598.7,145.3,606,145.3z"/>
			<path class="st0" d="M737.2,134.9l-25-34.6l25-34.8h18.2l-24.7,34.8l24.7,34.8h-18.2V134.9z M773.2,134.9l-25-34.6l25-34.8h18.2
				l-24.7,34.8l24.7,34.8h-18.2V134.9z"/>
			<path class="st0" d="M859.5,163c-9.5,0-18.1-2-25.8-5.7c-7.7-3.9-13.9-9.1-19-15.6c-4.9-6.6-8.3-13.9-10.2-21.9h19.3
				c1.7,4.9,4.2,9.4,7.4,13.3c3.3,3.9,7.4,6.9,12.2,9c4.8,2.2,10.2,3.3,16,3.3c6.9,0,13.2-1.6,18.9-4.8s10.3-7.7,13.8-13.3
				c3.5-5.6,5.6-11.8,6.3-18.8h-53.6V91.5h53.6c-0.7-6.8-2.7-12.9-6.3-18.5c-3.5-5.5-8.1-9.9-13.8-13.2s-12-4.8-18.9-4.8
				c-8.6,0-16,2.3-22.4,6.9c-6.3,4.6-10.7,10.5-13.3,17.7h-19.3c2.1-7.8,5.7-15,10.8-21.4c5.1-6.5,11.3-11.6,19-15.4
				c7.6-3.8,16-5.7,25.1-5.7c10.7,0,20.6,2.7,29.6,8.1c9,5.3,16.1,12.8,21.4,22.4c5.2,9.5,7.8,20.4,7.8,32.6s-2.6,22.9-7.8,32.6
				c-5.2,9.5-12.2,17.1-21.4,22.4C879.9,160.4,870.2,163,859.5,163z"/>
			<path class="st0" d="M919.9,162.2v-18.4h5.5c3.9,0,6.9-1.2,9.1-3.5c2.2-2.3,3.6-5.9,4.2-10.7l7.6-90.6h79.3v122.3h-18.8V56.9
				h-43.4l-6.5,75.3c-0.8,10.2-3.8,17.7-8.7,22.7c-4.9,4.9-12.1,7.4-21.1,7.4L919.9,162.2L919.9,162.2z"/>
			<path class="st0" d="M1075.2,161.3V56.9H1037V39.1h95.1v17.8h-38.3v104.4H1075.2z"/>
			<path class="st0" d="M1120.8,161.3l44.9-122.3h27.3l44.7,122.3h-19.9l-36.7-102.5h-3.5l-36.7,102.5H1120.8z M1147.9,132.2v-16.8
				h63.5v16.8H1147.9z"/>
			<path class="st0" d="M1243.9,134.9l25-34.8l-25-34.8h18.4l24.7,34.8l-24.7,34.8H1243.9z M1280.1,134.9l25-34.8l-25-34.8h18.4
				l24.7,34.8l-24.7,34.8H1280.1z"/>
		</g>
	</g>
</g>
</svg>
