<?xml version="1.0" encoding="utf-8"?>
<!-- Generator: Adobe Illustrator 22.0.0, SVG Export Plug-In . SVG Version: 6.00 Build 0)  -->
<svg version="1.1" id="Layer_1" xmlns="http://www.w3.org/2000/svg" xmlns:xlink="http://www.w3.org/1999/xlink" x="0px" y="0px"
	 viewBox="0 0 981 242.5" style="enable-background:new 0 0 981 242.5;" xml:space="preserve">
<style type="text/css">
	.st0{fill:#1B1B2D;}
</style>
<g>
	<g>
		<path class="st0" d="M229.1,121.2c0,26.6-8.2,52.5-23.6,74.3c-15.4,21.7-37.1,38.2-62.2,47v-30.8c17.2-8.1,31.6-20.9,41.8-37
			c10.1-16.1,15.5-34.6,15.5-53.5s-5.4-37.5-15.6-53.5c-10.1-16.1-24.6-28.8-41.8-36.9V0c25.1,8.9,46.9,25.3,62.3,47
			C220.8,68.6,229.1,94.7,229.1,121.2z"/>
		<rect y="106.9" class="st0" width="114.5" height="28.6"/>
		<path class="st0" d="M171.8,121.2c0-9.4-1.8-18.7-5.4-27.4s-8.9-16.5-15.5-23.2c-6.6-6.6-14.6-11.9-23.2-15.5s-18-5.4-27.4-5.4
			H57.4v28.5h85.9V164H57.4v28.6h42.9c9.4,0,18.7-1.8,27.4-5.4c8.7-3.6,16.6-8.9,23.2-15.5s11.9-14.5,15.5-23.2
			C170,139.9,171.8,130.6,171.8,121.2z"/>
	</g>
	<g>
		<path class="st0" d="M428.8,213.6c-14,0-26.7-2.8-37.9-8.5s-20.5-13.3-27.9-23s-12.3-20.4-14.9-32.2h28.3
			c2.4,7.4,6,13.9,10.9,19.5c4.9,5.7,10.9,10.1,18,13.2c7.1,3.2,14.9,4.8,23.5,4.8c10.1,0,19.4-2.4,27.8-7.1
			c8.4-4.7,15.2-11.2,20.3-19.5s8.2-17.5,9.3-27.6h-78.9v-25h78.9c-1-9.9-4.1-19-9.3-27.1c-5.1-8.1-11.9-14.6-20.3-19.3
			c-8.4-4.7-17.6-7.1-27.8-7.1c-12.7,0-23.6,3.4-32.9,10.1c-9.3,6.8-15.8,15.5-19.5,26.1h-28.3c3.1-11.5,8.4-22,15.8-31.5
			c7.5-9.5,16.7-17,27.9-22.6c11.1-5.6,23.5-8.4,37-8.4c15.8,0,30.3,3.9,43.6,11.8c13.3,7.9,23.7,18.8,31.3,32.9
			c7.6,14,11.4,30,11.4,47.8s-3.8,33.7-11.4,47.8c-7.6,14-18.1,25-31.3,32.9C459,209.7,444.5,213.6,428.8,213.6z"/>
		<path class="st0" d="M516.2,212.3v-27h8c5.7,0,10.1-1.7,13.5-5.1c3.3-3.4,5.4-8.6,6-15.7l11-133.4h116.7V211h-27.5V57.4h-63.7
			l-9.5,110.7c-1.2,14.9-5.5,26-12.8,33.3c-7.4,7.3-17.7,10.9-31.1,10.9L516.2,212.3L516.2,212.3z"/>
		<path class="st0" d="M743.2,211V57.4h-56.3V31.2h139.8v26.2h-56.2v153.7h-27.3V211z"/>
		<path class="st0" d="M808.9,211l66-179.9h40.3L981,211h-29.5l-54-150.8h-5.1l-54,150.8H808.9z M848.7,168.1v-24.7h93.5v24.7H848.7
			z"/>
	</g>
</g>
</svg>
