<?xml version="1.0" encoding="utf-8"?>
<!-- Generator: Adobe Illustrator 22.0.0, SVG Export Plug-In . SVG Version: 6.00 Build 0)  -->
<svg version="1.1" id="Layer_1" xmlns="http://www.w3.org/2000/svg" xmlns:xlink="http://www.w3.org/1999/xlink" x="0px" y="0px"
	 viewBox="0 0 1532.8 318" style="enable-background:new 0 0 1532.8 318;" xml:space="preserve">
<style type="text/css">
	.st0{fill:#3B3B4B;}
</style>
<g>
	<g>
		<path class="st0" d="M300,159c0,34.8-10.9,68.9-31,97.2c-20.1,28.4-48.5,49.9-81.4,61.8v-40.5c22.5-10.6,41.4-27.4,54.7-48.5
			c13.2-21.1,20.3-45.4,20.3-70.3s-7.1-49.2-20.3-70c-13.2-21.1-32.4-37.9-54.9-48.3V0c32.9,11.6,61.5,33.1,81.6,61.5
			C289.3,90.1,300,124.2,300,159z"/>
		<rect y="140.3" class="st0" width="150" height="37.4"/>
		<path class="st0" d="M225,159c0-12.3-2.4-24.4-7.1-36c-4.7-11.4-11.6-21.8-20.3-30.3c-8.8-8.8-19.2-15.6-30.5-20.3
			c-11.4-4.7-23.7-7.1-36-7.1H75v37.4h112.4v112.4H75v37.4h56.3c12.3,0,24.6-2.4,36-7.1c11.4-4.7,21.8-11.6,30.5-20.3
			c8.8-8.8,15.6-18.9,20.3-30.3C222.6,183.4,225,171.3,225,159z"/>
	</g>
	<g>
		<path class="st0" d="M514.5,36.2c0,19.4-11.9,32.5-30.8,32.5c-14.8,0-25-8.7-27.2-22h10.9c2.1,7.8,7.8,12.9,16.9,12.9
			c10.8,0,18-7.6,19.4-19.1h-24.5v-8.9h24.5c-1.5-11.3-8.3-18.6-18.9-18.6c-9.1,0-14.9,5-17,12.9H457c2.2-13.3,12.7-22,27.4-22
			C503.2,3.7,514.5,16.6,514.5,36.2z"/>
		<path class="st0" d="M515.5,68.1v-9.3h1.6c6.6,0,9.5-4.2,9.5-23.1V4.2h46.1V68h-10.5V13.5h-25.6v23c0,23.8-5.7,31.5-18.2,31.5
			L515.5,68.1L515.5,68.1z"/>
		<path class="st0" d="M580.4,4.3h49.9v9.3h-19.7v54.5h-10.5V13.6h-19.7V4.3z"/>
		<path class="st0" d="M624.3,68.1l23.9-63.8h12.5l23.8,63.8h-11.2l-6-15.8h-26.2l-5.9,15.8H624.3z M644,43.4h20.3l-10.2-27.8
			L644,43.4z"/>
		<path class="st0" d="M458.1,159.9V115h5.6v19.5h8.3l14.8-19.5h6.5l-16.5,21.7l17.5,23.2h-6.9l-15.5-20.3h-8.3v20.3H458.1z"/>
		<path class="st0" d="M516.6,160.3c-12.6,0-21.4-9.6-21.4-22.8s8.8-22.8,21.4-22.8c12.6,0,21.4,9.6,21.4,22.8
			S529.2,160.3,516.6,160.3z M516.6,155.2c9.4,0,15.7-7.4,15.7-17.7s-6.4-17.7-15.7-17.7c-9.3,0-15.7,7.4-15.7,17.7
			S507.2,155.2,516.6,155.2z"/>
		<path class="st0" d="M545.1,115h7.1l15.9,37.3l15.7-37.3h6.9v44.9h-5.5v-35.4l-14.8,35.4h-5l-14.9-35.4v35.4H545L545.1,115
			L545.1,115z"/>
		<path class="st0" d="M599.4,159.9V115h34.1v44.9h-5.6v-39.8H605v39.8H599.4z"/>
		<path class="st0" d="M638.4,159.9v-5.1h1.1c4.9,0,7.1-3.1,7.1-17.7V115h31.2v44.9h-5.6v-39.8H652v17.4c0,17.3-3.7,22.4-11.9,22.4
			L638.4,159.9L638.4,159.9z"/>
		<path class="st0" d="M686.5,115h28.6v5.1h-23v14.4h19.2v5.1h-19.2v15.1H716v5.1h-29.4L686.5,115L686.5,115z"/>
		<path class="st0" d="M722.3,159.9V115h5.6v19.5h8.3L751,115h6.5L741,136.7l17.5,23.2h-6.8l-15.5-20.3h-8.3v20.3H722.3z"/>
		<path class="st0" d="M759.4,137.5c0-13.6,8.4-22.8,21.4-22.8c9.9,0,17.2,5.8,18.9,15.1h-5.9c-1.7-6.2-6.5-9.9-13.2-9.9
			c-9.4,0-15.5,7.3-15.5,17.7c0,10.3,5.8,17.7,15.2,17.7c6.9,0,11.7-3.7,13.4-9.9h5.9c-1.7,9.3-9.1,15.1-19.2,15.1
			C767.4,160.3,759.4,151.2,759.4,137.5z"/>
		<path class="st0" d="M806.3,115h5.6v19.5h23.2V115h5.6v44.9h-5.6v-20.3h-23.2v20.3h-5.6V115z"/>
		<path class="st0" d="M869.2,160.3c-12.6,0-21.4-9.6-21.4-22.8s8.8-22.8,21.4-22.8s21.4,9.6,21.4,22.8S881.8,160.3,869.2,160.3z
			 M869.2,155.2c9.4,0,15.7-7.4,15.7-17.7s-6.4-17.7-15.7-17.7c-9.4,0-15.7,7.4-15.7,17.7C853.5,147.8,859.8,155.2,869.2,155.2z"/>
		<path class="st0" d="M897.7,115h28.6v5.1h-23v14.4h19.2v5.1h-19.2v15.1h23.9v5.1h-29.4L897.7,115L897.7,115z"/>
		<path class="st0" d="M950.2,159.9V115h34.1v44.9h-5.6v-39.8h-22.9v39.8H950.2z"/>
		<path class="st0" d="M993,115h17.3c9,0,14.9,5.4,14.9,13.8s-5.9,13.9-14.9,13.9h-11.7V160H993L993,115L993,115z M998.6,120.1v17.4
			h11.2c5.9,0,9.7-3.4,9.7-8.7s-3.7-8.7-9.6-8.7H998.6z"/>
		<path class="st0" d="M1050.9,160.3c-12.6,0-21.4-9.6-21.4-22.8s8.8-22.8,21.4-22.8s21.4,9.6,21.4,22.8S1063.5,160.3,1050.9,160.3z
			 M1050.9,155.2c9.4,0,15.7-7.4,15.7-17.7s-6.4-17.7-15.7-17.7s-15.7,7.4-15.7,17.7S1041.5,155.2,1050.9,155.2z"/>
		<path class="st0" d="M1079.4,115h28.6v5.1h-23v14.4h19.2v5.1H1085v15.1h23.9v5.1h-29.5V115z"/>
		<path class="st0" d="M1115.1,159.9V115h5.6v19.5h8.3l14.8-19.5h6.5l-16.5,21.7l17.5,23.2h-6.8l-15.5-20.3h-8.3v20.3H1115.1z"/>
		<path class="st0" d="M1152.4,115h34.7v5.1h-14.6v39.8h-5.6v-39.8h-14.5V115z"/>
		<path class="st0" d="M1192.7,159.9V115h5.6v35.6l24.1-35.6h5.2v44.9h-5.6v-35.6l-24.1,35.6H1192.7z"/>
		<path class="st0" d="M1236.3,115h17.3c9,0,14.9,5.4,14.9,13.8s-5.9,13.9-14.9,13.9h-11.7V160h-5.6L1236.3,115L1236.3,115z
			 M1241.9,120.1v17.4h11.2c5.9,0,9.7-3.4,9.7-8.7s-3.7-8.7-9.6-8.7H1241.9z"/>
		<path class="st0" d="M1294.2,160.3c-12.6,0-21.4-9.6-21.4-22.8s8.8-22.8,21.4-22.8s21.4,9.6,21.4,22.8S1306.8,160.3,1294.2,160.3z
			 M1294.2,155.2c9.4,0,15.7-7.4,15.7-17.7s-6.4-17.7-15.7-17.7c-9.4,0-15.7,7.4-15.7,17.7C1278.4,147.8,1284.8,155.2,1294.2,155.2z
			"/>
		<path class="st0" d="M1322.6,115h15.9c9.6,0,14.9,4.6,14.9,11.9c0,5.1-2.8,8.3-7.1,9.8c4.7,0.9,8.9,4,8.9,10.5
			c0,8-5.6,12.8-16.3,12.8h-16.4L1322.6,115L1322.6,115z M1328.2,120.1v14.4h10.6c5.8,0,9-2.7,9-7.2s-3.2-7.2-9-7.2H1328.2z
			 M1328.2,139.5v15.3h10.8c6.9,0,10.6-2.9,10.6-7.5c0-5.1-3.9-7.8-10.6-7.8H1328.2z"/>
		<path class="st0" d="M1357.2,159.9l17.1-44.9h6.6l17.1,44.9h-6l-4.7-12.1h-19.6l-4.7,12.1H1357.2z M1369.4,142.7h16.2l-8.1-21.6
			L1369.4,142.7z"/>
		<path class="st0" d="M1403.1,115h5.6v19.5h23.2V115h5.6v44.9h-5.6v-20.3h-23.2v20.3h-5.6V115z"/>
		<path class="st0" d="M1446.2,159.9V115h5.6v35.6l24.1-35.6h5.2v44.9h-5.6v-35.6l-24.1,35.6H1446.2z"/>
		<path class="st0" d="M1489.8,115h28.6v5.1h-23v14.4h19.2v5.1h-19.2v15.1h23.9v5.1h-29.4L1489.8,115L1489.8,115z"/>
		<path class="st0" d="M1532.8,159.7c0,5.5-3.4,8.7-9,8.9v-3c4.1-0.1,5.4-3,5.4-5.1c0-0.3,0-0.6-0.1-0.8c-0.5,0.5-1.4,0.8-2.2,0.8
			c-1.9,0-3.4-1.2-3.4-3.5c0-2.1,1.5-3.7,4.2-3.7C1530.9,153.2,1532.8,156.2,1532.8,159.7z"/>
		<path class="st0" d="M458.1,192h7.1l15.9,37.3l15.7-37.3h6.9v44.9h-5.5v-35.4l-14.8,35.4h-5l-14.9-35.4v35.4H458V192H458.1z"/>
		<path class="st0" d="M532.2,237.3c-12.6,0-21.4-9.6-21.4-22.8s8.8-22.8,21.4-22.8c12.6,0,21.4,9.6,21.4,22.8
			S544.8,237.3,532.2,237.3z M532.2,232.1c9.4,0,15.7-7.4,15.7-17.7s-6.4-17.7-15.7-17.7c-9.3,0-15.7,7.4-15.7,17.7
			C516.5,224.8,522.8,232.1,532.2,232.1z"/>
		<path class="st0" d="M560.7,192h5.6v19.5h23.2V192h5.6v44.9h-5.6v-20.3h-23.2v20.3h-5.6V192z"/>
		<path class="st0" d="M600.7,192h34.7v5.1h-14.6v39.8h-5.6v-39.8h-14.6L600.7,192L600.7,192z"/>
		<path class="st0" d="M631.2,236.9l17.2-44.9h6.6l17.1,44.9h-6l-4.7-12.1h-19.6l-4.7,12.1H631.2z M643.4,219.7h16.2l-8.1-21.6
			L643.4,219.7z"/>
		<path class="st0" d="M673.9,236.9l16.4-23.1L674.9,192h6.4l13.9,19.6h6.7V192h5.6v19.6h6.7l13.9-19.6h6.4l-15.3,21.8l16.3,23.1
			h-6.7l-14.2-20.2h-7.2v20.2h-5.6v-20.2h-6.9l-14.3,20.2L673.9,236.9L673.9,236.9z"/>
		<path class="st0" d="M757.4,236.9V192h5.6v35.6l24.1-35.6h5.2v44.9h-5.6v-35.6l-24.1,35.6H757.4z"/>
		<path class="st0" d="M837.5,237.3c-12.6,0-21.4-9.6-21.4-22.8s8.8-22.8,21.4-22.8s21.4,9.6,21.4,22.8S850.1,237.3,837.5,237.3z
			 M837.5,232.1c9.4,0,15.7-7.4,15.7-17.7s-6.4-17.7-15.7-17.7s-15.7,7.4-15.7,17.7C821.8,224.8,828.1,232.1,837.5,232.1z"/>
		<path class="st0" d="M866,236.9V192h27.7v5.1h-22.1v13.2h12c8.6,0,14.4,4.4,14.4,13.2c0,8.4-5.8,13.3-14.4,13.3H866V236.9z
			 M871.6,231.8h11.5c5.6,0,9.2-3.1,9.2-8.1s-3.6-8.1-9.2-8.1h-11.5V231.8z"/>
		<path class="st0" d="M902.3,214.4c0-13.6,8.4-22.8,21.4-22.8c9.9,0,17.2,5.8,18.9,15.1h-5.9c-1.7-6.2-6.5-9.9-13.2-9.9
			c-9.4,0-15.5,7.3-15.5,17.7c0,10.3,5.8,17.7,15.2,17.7c6.9,0,11.7-3.7,13.4-9.9h5.9c-1.7,9.3-9.1,15.1-19.2,15.1
			C910.4,237.3,902.3,228.2,902.3,214.4z"/>
		<path class="st0" d="M944.4,236.9v-5.1h1.1c4.9,0,7.1-3.1,7.1-17.7V192h31.2v44.9h-5.6v-39.8H958v17.4c0,17.3-3.7,22.4-11.9,22.4
			L944.4,236.9L944.4,236.9z"/>
		<path class="st0" d="M993.9,236.9v-5.1h4c3.7,0,5-0.6,6.7-4.2l1.4-3.1L988.7,192h6.4l13.9,26.5l11.9-26.5h6l-17.2,37
			c-2.8,6.2-5.7,7.9-10.3,7.9L993.9,236.9L993.9,236.9z"/>
		<path class="st0" d="M1028,236.9l16.4-23.1l-15.3-21.8h6.4l13.9,19.6h6.7V192h5.6v19.6h6.7l13.9-19.6h6.4l-15.3,21.8l16.3,23.1
			h-6.7l-14.2-20.2h-6.9v20.2h-5.6v-20.2h-6.9l-14.3,20.2L1028,236.9L1028,236.9z"/>
		<path class="st0" d="M1094.7,236.9V192h5.6v35.6l24.1-35.6h5.2v44.9h-5.6v-35.6l-24.1,35.6H1094.7z"/>
		<path class="st0" d="M1138.3,192h15.9c9.6,0,14.9,4.6,14.9,11.9c0,5.1-2.8,8.3-7.1,9.8c4.7,0.9,8.9,4,8.9,10.5
			c0,8-5.6,12.8-16.3,12.8h-16.4L1138.3,192L1138.3,192z M1143.8,197.1v14.4h10.6c5.8,0,9-2.7,9-7.2s-3.2-7.2-9-7.2H1143.8z
			 M1143.8,216.5v15.3h10.8c6.9,0,10.6-2.9,10.6-7.5c0-5.1-3.9-7.8-10.6-7.8H1143.8z"/>
		<path class="st0" d="M1172.8,236.9l17.1-44.9h6.6l17.1,44.9h-6l-4.7-12.1h-19.5l-4.7,12.1H1172.8z M1185,219.7h16.2l-8.1-21.6
			L1185,219.7z"/>
		<path class="st0" d="M1218.7,192h5.6v19.5h23.2V192h5.6v44.9h-5.6v-20.3h-23.2v20.3h-5.6V192z"/>
		<path class="st0" d="M1261.8,236.9V192h5.6v35.6l24.1-35.6h5.2v44.9h-5.6v-35.6l-24.1,35.6H1261.8z"/>
		<path class="st0" d="M1305.4,192h28.6v5.1h-23v14.4h19.2v5.1H1311v15.1h23.9v5.1h-29.5V192z"/>
		<path class="st0" d="M458.1,313.9V269h5.6v35.6l24.1-35.6h5.2v44.9h-5.6v-35.6l-24.1,35.6H458.1z"/>
		<path class="st0" d="M501.6,269h5.6v19.5h23.2V269h5.6v44.9h-5.6v-20.3h-23.2v20.3h-5.6V269z"/>
		<path class="st0" d="M541.4,313.9l16.4-23.1L542.4,269h6.4l13.9,19.6h6.7V269h5.6v19.6h6.7l13.7-19.6h6.4l-15.4,21.8l16.3,23.1
			H596l-14.2-20.2h-6.9v20.2h-5.6v-20.2h-6.9l-14.3,20.2L541.4,313.9L541.4,313.9z"/>
		<path class="st0" d="M608,269h28.6v5.1h-23v14.4h19.2v5.1h-19.2v15.1h23.9v5.1h-29.4L608,269L608,269z"/>
		<path class="st0" d="M643.7,269h5.6v19.5h23.2V269h5.6v44.9h-5.6v-20.3h-23.2v20.3h-5.6V269z"/>
		<path class="st0" d="M686.9,269h28.6v5.1h-23v14.4h19.2v5.1h-19.3v15.1h23.9v5.1h-29.4V269z"/>
		<path class="st0" d="M722.6,269h17.3c9,0,14.9,5.4,14.9,13.8s-5.9,13.9-14.9,13.9h-11.7V314h-5.6V269z M728.2,274.1v17.4h11.2
			c5.9,0,9.7-3.4,9.7-8.7s-3.7-8.7-9.6-8.7H728.2z"/>
		<path class="st0" d="M760.7,269h5.6v19.5h23.2V269h5.6v44.9h-5.6v-20.3h-23.2v20.3h-5.6V269z"/>
		<path class="st0" d="M803.8,313.9V269h5.6v17.2h11.2c8.9,0,14.8,5.8,14.8,13.9c0,8-5.9,13.9-14.8,13.9h-16.8V313.9z M809.4,308.7
			h10.8c5.8,0,9.6-3.5,9.6-8.7s-3.8-8.7-9.6-8.7h-10.8V308.7z M841.2,313.9V269h5.6v44.9H841.2z"/>
		<path class="st0" d="M867.3,290.8l-14.2-21.9h6.5l11.2,17.4l11.2-17.4h6.4l-14.2,21.5l15.1,23.4h-6.6L870.5,295l-12.1,18.8h-6.5
			L867.3,290.8z"/>
		<path class="st0" d="M909.9,291.4c0-13.6,8.4-22.8,21.4-22.8c9.9,0,17.2,5.8,18.9,15.1h-5.9c-1.7-6.2-6.5-9.9-13.2-9.9
			c-9.4,0-15.5,7.3-15.5,17.7c0,10.3,5.8,17.7,15.2,17.7c6.9,0,11.7-3.7,13.4-9.9h5.9c-1.7,9.3-9.1,15.1-19.2,15.1
			C918,314.3,909.9,305.2,909.9,291.4z"/>
		<path class="st0" d="M956.9,313.9V269h5.6v35.6l24.1-35.6h5.2v44.9h-5.6v-35.6l-24.1,35.6H956.9z"/>
		<path class="st0" d="M998.8,291.4c0-13.6,8.4-22.8,21.4-22.8c9.9,0,17.2,5.8,18.9,15.1h-5.9c-1.7-6.2-6.5-9.9-13.2-9.9
			c-9.4,0-15.5,7.3-15.5,17.7c0,10.3,5.8,17.7,15.2,17.7c6.9,0,11.7-3.7,13.4-9.9h5.9c-1.7,9.3-9.1,15.1-19.2,15.1
			C1006.9,314.3,998.8,305.2,998.8,291.4z"/>
		<path class="st0" d="M1040.4,269h34.7v5.1h-14.6v39.8h-5.6v-39.8h-14.5V269z"/>
		<path class="st0" d="M1080.8,269h28.6v5.1h-23v14.4h19.2v5.1h-19.2v15.1h23.9v5.1h-29.4L1080.8,269L1080.8,269z"/>
		<path class="st0" d="M1116.5,269h7.1l15.9,37.3l15.7-37.3h6.9v44.9h-5.5v-35.4l-14.9,35.4h-4.9l-14.9-35.4v35.4h-5.5V269H1116.5z"
			/>
	</g>
	<g>
		<rect x="390.8" class="st0" width="1" height="318"/>
	</g>
</g>
</svg>
