<?xml version="1.0" encoding="utf-8"?>
<!-- Generator: Adobe Illustrator 22.0.0, SVG Export Plug-In . SVG Version: 6.00 Build 0)  -->
<svg version="1.1" id="Layer_1" xmlns="http://www.w3.org/2000/svg" xmlns:xlink="http://www.w3.org/1999/xlink" x="0px" y="0px"
	 viewBox="0 0 251 265.9" style="enable-background:new 0 0 251 265.9;" xml:space="preserve">
<style type="text/css">
	.st0{fill:#FFFFFF;}
</style>
<g>
	<path class="st0" d="M251,133c0,29.1-9,57.6-25.9,81.4s-40.6,41.8-68.2,51.6v-33.8c18.8-8.9,34.7-22.9,45.8-40.5
		c11.1-17.6,17-37.9,17-58.7c0-20.8-5.9-41.1-17.1-58.7c-11.1-17.5-27-31.6-45.8-40.5V0c27.5,9.7,51.4,27.7,68.2,51.5
		C241.9,75.4,251,103.8,251,133z"/>
	<rect y="117.3" class="st0" width="125.5" height="31.3"/>
	<path class="st0" d="M188.2,133c0-10.3-2-20.5-6-30c-3.9-9.5-9.7-18.1-17-25.4c-7.3-7.3-15.9-13-25.4-17c-9.5-3.9-19.7-6-30-6h-47
		v31.3h94.1v94H62.8v31.3h47c10.3,0,20.5-2,30-6c9.5-3.9,18.2-9.7,25.5-17c7.3-7.3,13.1-15.9,17-25.4
		C186.2,153.4,188.2,143.3,188.2,133z"/>
</g>
</svg>
